<?xml version="1.0" encoding="utf-8"?>
<!-- Generator: Adobe Illustrator 18.1.1, SVG Export Plug-In . SVG Version: 6.00 Build 0)  -->
<svg version="1.1" id="Calque_2" xmlns="http://www.w3.org/2000/svg" xmlns:xlink="http://www.w3.org/1999/xlink" x="0px" y="0px"
	 width="640.7px" height="323.3px" viewBox="-422.2 378.5 640.7 323.3" enable-background="new -422.2 378.5 640.7 323.3"
	 xml:space="preserve">
<path opacity="0.13" fill="#28D18A" d="M179.2,697.8h-561c-19.8,0-36-16.2-36-36v-244c0-19.8,16.2-36,36-36h561
	c19.8,0,36,16.2,36,36v244C215.2,681.6,199,697.8,179.2,697.8z"/>
<title>echo-dot</title>
<linearGradient id="SVGID_1_" gradientUnits="userSpaceOnUse" x1="-99.3325" y1="319.9494" x2="-99.3325" y2="385.336" gradientTransform="matrix(1 0 0 -1 0 794.172)">
	<stop  offset="0" style="stop-color:#808080;stop-opacity:0.25"/>
	<stop  offset="0.54" style="stop-color:#808080;stop-opacity:0.12"/>
	<stop  offset="1" style="stop-color:#808080;stop-opacity:0.1"/>
</linearGradient>
<path fill="url(#SVGID_1_)" d="M-316.6,408.8h434.5c5.3,0,9.5,4.3,9.5,9.5v46.3c0,5.3-4.3,9.5-9.5,9.5h-434.5
	c-5.3,0-9.5-4.3-9.5-9.5v-46.3C-326.1,413.1-321.8,408.8-316.6,408.8z"/>
<linearGradient id="SVGID_2_" gradientUnits="userSpaceOnUse" x1="-99.3325" y1="219.8078" x2="-99.3325" y2="285.1944" gradientTransform="matrix(1 0 0 -1 0 794.172)">
	<stop  offset="0" style="stop-color:#808080;stop-opacity:0.25"/>
	<stop  offset="0.54" style="stop-color:#808080;stop-opacity:0.12"/>
	<stop  offset="1" style="stop-color:#808080;stop-opacity:0.1"/>
</linearGradient>
<path fill="url(#SVGID_2_)" d="M-316.6,509h434.5c5.3,0,9.5,4.3,9.5,9.5v46.3c0,5.3-4.3,9.5-9.5,9.5h-434.5c-5.3,0-9.5-4.3-9.5-9.5
	v-46.3C-326.1,513.3-321.8,509-316.6,509z"/>
<linearGradient id="SVGID_3_" gradientUnits="userSpaceOnUse" x1="-99.3325" y1="120.2589" x2="-99.3325" y2="185.6455" gradientTransform="matrix(1 0 0 -1 0 794.172)">
	<stop  offset="0" style="stop-color:#808080;stop-opacity:0.25"/>
	<stop  offset="0.54" style="stop-color:#808080;stop-opacity:0.12"/>
	<stop  offset="1" style="stop-color:#808080;stop-opacity:0.1"/>
</linearGradient>
<path fill="url(#SVGID_3_)" d="M-316.6,608.5h434.5c5.3,0,9.5,4.3,9.5,9.5v46.3c0,5.3-4.3,9.5-9.5,9.5h-434.5
	c-5.3,0-9.5-4.3-9.5-9.5v-46.3C-326.1,612.8-321.8,608.5-316.6,608.5z"/>
<path fill="#FFFFFF" d="M-312.4,411.2h426.2c5.3,0,9.5,4.3,9.5,9.5v38.6c0,5.3-4.3,9.5-9.5,9.5h-426.2c-5.3,0-9.5-4.3-9.5-9.5v-38.6
	C-322,415.5-317.7,411.2-312.4,411.2z"/>
<path fill="#FFFFFF" d="M-312.4,511.3h426.2c5.3,0,9.5,4.3,9.5,9.5v38.6c0,5.3-4.3,9.5-9.5,9.5h-426.2c-5.3,0-9.5-4.3-9.5-9.5v-38.6
	C-322,515.6-317.7,511.3-312.4,511.3z"/>
<path fill="#FFFFFF" d="M-312.4,611.5h426.2c5.3,0,9.5,4.3,9.5,9.5v38.6c0,5.3-4.3,9.5-9.5,9.5h-426.2c-5.3,0-9.5-4.3-9.5-9.5V621
	C-322,615.7-317.7,611.5-312.4,611.5z"/>
<g>
	<path fill="#767777" d="M-285.8,634.7h8.2c1.9,0,3.3,0.4,4.2,1.2c0.9,0.8,1.4,2,1.4,3.4c0,0.8-0.1,1.5-0.4,2
		c-0.2,0.5-0.5,1-0.8,1.3c-0.3,0.3-0.6,0.6-0.9,0.7c-0.3,0.1-0.5,0.2-0.7,0.3v0c0.3,0,0.5,0.1,0.8,0.2c0.3,0.1,0.6,0.3,0.8,0.6
		c0.3,0.3,0.5,0.6,0.6,1.1c0.2,0.4,0.3,1,0.3,1.7c0,1,0.1,1.9,0.2,2.7s0.4,1.4,0.7,1.8h-3.2c-0.2-0.4-0.4-0.8-0.4-1.2
		c0-0.4-0.1-0.9-0.1-1.3c0-0.8,0-1.5-0.1-2c-0.1-0.6-0.3-1-0.5-1.4c-0.3-0.4-0.6-0.7-1-0.8c-0.4-0.2-1-0.3-1.7-0.3h-4.4v7.1h-3
		V634.7z M-282.8,642.5h4.9c1,0,1.7-0.2,2.2-0.7c0.5-0.5,0.7-1.1,0.7-2.1c0-0.5-0.1-1-0.2-1.3c-0.2-0.3-0.4-0.6-0.7-0.8
		c-0.3-0.2-0.6-0.3-1-0.4s-0.7-0.1-1.1-0.1h-4.9V642.5z"/>
	<path fill="#767777" d="M-258.4,651.9h-2.7v-1.7h0c-0.3,0.6-0.8,1.1-1.5,1.5c-0.7,0.4-1.3,0.6-2,0.6c-1.6,0-2.8-0.4-3.5-1.2
		c-0.7-0.8-1.1-2-1.1-3.7v-7.9h2.7v7.6c0,1.1,0.2,1.9,0.6,2.3c0.4,0.4,1,0.7,1.8,0.7c0.6,0,1.1-0.1,1.4-0.3c0.4-0.2,0.7-0.4,0.9-0.7
		c0.2-0.3,0.4-0.7,0.5-1.1c0.1-0.4,0.2-0.9,0.2-1.3v-7.2h2.7V651.9z"/>
	<path fill="#767777" d="M-255.5,639.5h2.6v1.8l0,0c0.4-0.7,1-1.2,1.6-1.6c0.7-0.4,1.4-0.6,2.2-0.6c1.4,0,2.4,0.4,3.2,1.1
		c0.8,0.7,1.2,1.8,1.2,3.2v8.5h-2.7v-7.8c0-1-0.2-1.7-0.6-2.1c-0.4-0.4-1-0.7-1.8-0.7c-0.5,0-0.9,0.1-1.2,0.3
		c-0.4,0.2-0.7,0.4-0.9,0.7c-0.3,0.3-0.5,0.6-0.6,1s-0.2,0.8-0.2,1.3v7.3h-2.7V639.5z"/>
	<path fill="#767777" d="M-241.7,639.5h2.6v1.8l0,0c0.4-0.7,1-1.2,1.6-1.6c0.7-0.4,1.4-0.6,2.2-0.6c1.4,0,2.4,0.4,3.2,1.1
		c0.8,0.7,1.2,1.8,1.2,3.2v8.5h-2.7v-7.8c0-1-0.2-1.7-0.6-2.1c-0.4-0.4-1-0.7-1.8-0.7c-0.5,0-0.9,0.1-1.2,0.3
		c-0.4,0.2-0.7,0.4-0.9,0.7c-0.3,0.3-0.5,0.6-0.6,1s-0.2,0.8-0.2,1.3v7.3h-2.7V639.5z"/>
	<path fill="#767777" d="M-227.9,634.7h2.7v2.6h-2.7V634.7z M-227.9,639.5h2.7v12.4h-2.7V639.5z"/>
	<path fill="#767777" d="M-222.2,639.5h2.6v1.8l0,0c0.4-0.7,1-1.2,1.6-1.6c0.7-0.4,1.4-0.6,2.2-0.6c1.4,0,2.4,0.4,3.2,1.1
		c0.8,0.7,1.2,1.8,1.2,3.2v8.5h-2.7v-7.8c0-1-0.2-1.7-0.6-2.1c-0.4-0.4-1-0.7-1.8-0.7c-0.5,0-0.9,0.1-1.2,0.3
		c-0.4,0.2-0.7,0.4-0.9,0.7c-0.3,0.3-0.5,0.6-0.6,1s-0.2,0.8-0.2,1.3v7.3h-2.7V639.5z"/>
	<path fill="#767777" d="M-196.9,651.2c0,1.9-0.5,3.3-1.6,4.2s-2.6,1.4-4.5,1.4c-0.6,0-1.3-0.1-1.9-0.2c-0.6-0.1-1.2-0.3-1.7-0.6
		c-0.5-0.3-1-0.7-1.3-1.2c-0.4-0.5-0.6-1.1-0.6-1.8h2.7c0.1,0.4,0.2,0.7,0.4,0.9s0.4,0.4,0.7,0.6c0.3,0.1,0.6,0.2,0.9,0.3
		c0.3,0,0.7,0.1,1,0.1c1.1,0,1.9-0.3,2.4-0.8c0.5-0.5,0.8-1.3,0.8-2.4v-1.9h0c-0.4,0.7-0.9,1.2-1.6,1.6c-0.7,0.4-1.4,0.6-2.1,0.6
		c-1,0-1.8-0.2-2.5-0.5c-0.7-0.3-1.3-0.8-1.7-1.4c-0.5-0.6-0.8-1.3-1-2.1s-0.3-1.6-0.3-2.5c0-0.8,0.1-1.6,0.4-2.4
		c0.3-0.8,0.6-1.4,1.1-2s1.1-1,1.8-1.4c0.7-0.3,1.5-0.5,2.4-0.5c0.8,0,1.5,0.2,2.2,0.5c0.7,0.3,1.2,0.8,1.5,1.5h0v-1.7h2.7V651.2z
		 M-203,649.7c0.6,0,1.1-0.1,1.5-0.4c0.4-0.2,0.8-0.6,1-1c0.3-0.4,0.5-0.9,0.6-1.4c0.1-0.5,0.2-1,0.2-1.6c0-0.5-0.1-1-0.2-1.5
		s-0.3-0.9-0.6-1.3s-0.6-0.7-1-0.9c-0.4-0.2-0.9-0.3-1.5-0.3c-0.6,0-1.1,0.1-1.5,0.4c-0.4,0.3-0.8,0.6-1,1s-0.4,0.9-0.6,1.4
		c-0.1,0.5-0.2,1-0.2,1.5s0.1,1,0.2,1.5c0.1,0.5,0.3,0.9,0.6,1.3s0.6,0.7,1,0.9C-204.1,649.6-203.6,649.7-203,649.7z"/>
	<path fill="#767777" d="M-188.7,639.5h2.1v-3.7h2.7v3.7h2.5v2h-2.5v6.6c0,0.3,0,0.5,0,0.7s0.1,0.4,0.2,0.5c0.1,0.1,0.2,0.3,0.4,0.3
		c0.2,0.1,0.4,0.1,0.7,0.1c0.2,0,0.4,0,0.6,0c0.2,0,0.4,0,0.6-0.1v2.1c-0.3,0-0.6,0.1-0.9,0.1c-0.3,0-0.6,0-0.9,0
		c-0.7,0-1.3-0.1-1.7-0.2c-0.4-0.1-0.8-0.3-1-0.6c-0.2-0.3-0.4-0.6-0.5-1c-0.1-0.4-0.1-0.9-0.2-1.4v-7.3h-2.1V639.5z"/>
	<path fill="#767777" d="M-173.8,652.2c-1,0-1.9-0.2-2.7-0.5c-0.8-0.3-1.4-0.8-2-1.4s-0.9-1.3-1.2-2.1c-0.3-0.8-0.4-1.7-0.4-2.6
		c0-0.9,0.1-1.8,0.4-2.6c0.3-0.8,0.7-1.5,1.2-2.1c0.5-0.6,1.2-1,2-1.4c0.8-0.3,1.7-0.5,2.7-0.5s1.9,0.2,2.7,0.5s1.4,0.8,2,1.4
		c0.5,0.6,0.9,1.3,1.2,2.1c0.3,0.8,0.4,1.7,0.4,2.6c0,1-0.1,1.8-0.4,2.6c-0.3,0.8-0.7,1.5-1.2,2.1c-0.5,0.6-1.2,1-2,1.4
		C-171.9,652-172.8,652.2-173.8,652.2z M-173.8,650c0.6,0,1.1-0.1,1.6-0.4c0.4-0.3,0.8-0.6,1.1-1s0.5-0.9,0.6-1.4
		c0.1-0.5,0.2-1.1,0.2-1.6c0-0.5-0.1-1.1-0.2-1.6c-0.1-0.5-0.3-1-0.6-1.4s-0.7-0.7-1.1-1c-0.4-0.3-1-0.4-1.6-0.4
		c-0.6,0-1.1,0.1-1.6,0.4c-0.4,0.3-0.8,0.6-1.1,1s-0.5,0.9-0.6,1.4c-0.1,0.5-0.2,1.1-0.2,1.6c0,0.5,0.1,1.1,0.2,1.6
		c0.1,0.5,0.3,1,0.6,1.4s0.7,0.8,1.1,1C-174.9,649.9-174.4,650-173.8,650z"/>
	<path fill="#767777" d="M-165.2,634.7h2.7v2.6h-2.7V634.7z M-165.2,639.5h2.7v12.4h-2.7V639.5z"/>
	<path fill="#767777" d="M-159.4,634.7h2.7v17.1h-2.7V634.7z"/>
	<path fill="#767777" d="M-151.6,646.4c0,0.5,0.1,0.9,0.2,1.4c0.1,0.4,0.3,0.8,0.6,1.2c0.3,0.3,0.6,0.6,1,0.8s0.9,0.3,1.5,0.3
		c0.8,0,1.4-0.2,1.9-0.5c0.5-0.3,0.9-0.9,1.1-1.5h2.6c-0.1,0.7-0.4,1.3-0.7,1.8c-0.4,0.5-0.8,1-1.3,1.3c-0.5,0.4-1.1,0.6-1.7,0.8
		c-0.6,0.2-1.3,0.3-1.9,0.3c-1,0-1.8-0.2-2.6-0.5c-0.8-0.3-1.4-0.8-1.9-1.3c-0.5-0.6-0.9-1.3-1.2-2.1c-0.3-0.8-0.4-1.7-0.4-2.6
		c0-0.9,0.1-1.7,0.4-2.5s0.7-1.5,1.2-2.1s1.1-1.1,1.9-1.4c0.7-0.4,1.6-0.5,2.5-0.5c1,0,1.9,0.2,2.6,0.6s1.4,0.9,1.9,1.6
		s0.9,1.4,1.1,2.3c0.2,0.9,0.3,1.8,0.2,2.7H-151.6z M-145.2,644.6c0-0.4-0.1-0.8-0.3-1.2c-0.2-0.4-0.4-0.7-0.6-1s-0.6-0.5-1-0.7
		c-0.4-0.2-0.8-0.3-1.3-0.3c-0.5,0-0.9,0.1-1.3,0.3c-0.4,0.2-0.7,0.4-1,0.7c-0.3,0.3-0.5,0.6-0.7,1s-0.3,0.8-0.3,1.3H-145.2z"/>
	<path fill="#767777" d="M-141.6,639.5h2.1v-3.7h2.7v3.7h2.5v2h-2.5v6.6c0,0.3,0,0.5,0,0.7s0.1,0.4,0.2,0.5c0.1,0.1,0.2,0.3,0.4,0.3
		c0.2,0.1,0.4,0.1,0.7,0.1c0.2,0,0.4,0,0.6,0c0.2,0,0.4,0,0.6-0.1v2.1c-0.3,0-0.6,0.1-0.9,0.1c-0.3,0-0.6,0-0.9,0
		c-0.7,0-1.3-0.1-1.7-0.2c-0.4-0.1-0.8-0.3-1-0.6c-0.2-0.3-0.4-0.6-0.5-1c-0.1-0.4-0.1-0.9-0.2-1.4v-7.3h-2.1V639.5z"/>
</g>
<g>
	<path fill="#767777" d="M-283.8,544.9c0,0.7,0.1,1.2,0.3,1.7c0.2,0.5,0.5,0.8,0.9,1.1s0.9,0.5,1.4,0.6c0.5,0.1,1.1,0.2,1.7,0.2
		c0.7,0,1.2-0.1,1.7-0.2c0.5-0.2,0.8-0.3,1.1-0.6c0.3-0.2,0.5-0.5,0.6-0.8c0.1-0.3,0.2-0.6,0.2-0.9c0-0.7-0.1-1.1-0.4-1.5
		c-0.3-0.3-0.6-0.5-1-0.7c-0.6-0.2-1.3-0.4-2.1-0.6c-0.8-0.2-1.8-0.5-3-0.8c-0.7-0.2-1.3-0.4-1.8-0.8c-0.5-0.3-0.9-0.7-1.2-1
		s-0.5-0.8-0.6-1.2c-0.1-0.4-0.2-0.9-0.2-1.3c0-0.9,0.2-1.6,0.5-2.2s0.8-1.2,1.4-1.6c0.6-0.4,1.3-0.7,2-0.9s1.5-0.3,2.3-0.3
		c0.9,0,1.7,0.1,2.5,0.3c0.8,0.2,1.5,0.6,2.1,1c0.6,0.5,1.1,1,1.4,1.7c0.4,0.7,0.5,1.5,0.5,2.4h-3c-0.1-1.1-0.5-1.9-1.1-2.3
		c-0.7-0.5-1.5-0.7-2.6-0.7c-0.4,0-0.7,0-1.1,0.1c-0.4,0.1-0.7,0.2-1,0.4c-0.3,0.2-0.6,0.4-0.8,0.7c-0.2,0.3-0.3,0.6-0.3,1.1
		c0,0.6,0.2,1.1,0.6,1.4c0.4,0.3,0.9,0.6,1.5,0.8c0.1,0,0.3,0.1,0.8,0.2s0.9,0.3,1.5,0.4c0.5,0.1,1.1,0.3,1.6,0.4
		c0.5,0.1,0.9,0.2,1.1,0.3c0.6,0.2,1,0.4,1.5,0.7c0.4,0.3,0.8,0.7,1,1c0.3,0.4,0.5,0.8,0.6,1.3c0.1,0.4,0.2,0.9,0.2,1.3
		c0,1-0.2,1.8-0.6,2.5s-0.9,1.2-1.5,1.7c-0.6,0.4-1.4,0.7-2.2,0.9c-0.8,0.2-1.6,0.3-2.5,0.3c-1,0-1.9-0.1-2.8-0.4
		c-0.9-0.2-1.6-0.6-2.3-1.1c-0.6-0.5-1.2-1.1-1.5-1.9c-0.4-0.8-0.6-1.7-0.6-2.7H-283.8z"/>
	<path fill="#767777" d="M-270.6,538.2h2.6v1.7h0c0.4-0.7,0.9-1.2,1.6-1.5c0.7-0.3,1.4-0.5,2.2-0.5c1,0,1.8,0.2,2.6,0.5
		c0.7,0.3,1.3,0.8,1.8,1.4c0.5,0.6,0.8,1.3,1.1,2.1c0.2,0.8,0.4,1.7,0.4,2.6c0,0.8-0.1,1.6-0.3,2.4c-0.2,0.8-0.5,1.5-1,2.1
		c-0.4,0.6-1,1.1-1.7,1.4c-0.7,0.4-1.5,0.5-2.4,0.5c-0.4,0-0.8,0-1.2-0.1c-0.4-0.1-0.8-0.2-1.2-0.3c-0.4-0.2-0.7-0.4-1-0.6
		c-0.3-0.2-0.6-0.5-0.8-0.9h0v6.2h-2.7V538.2z M-261,544.4c0-0.6-0.1-1.1-0.2-1.6c-0.1-0.5-0.4-1-0.6-1.4c-0.3-0.4-0.6-0.7-1.1-1
		c-0.4-0.2-0.9-0.4-1.5-0.4c-1.2,0-2,0.4-2.6,1.2s-0.9,1.9-0.9,3.2c0,0.6,0.1,1.2,0.2,1.7c0.2,0.5,0.4,1,0.7,1.4
		c0.3,0.4,0.7,0.7,1.1,0.9c0.4,0.2,0.9,0.3,1.5,0.3c0.6,0,1.2-0.1,1.6-0.4c0.4-0.3,0.8-0.6,1.1-1c0.3-0.4,0.5-0.9,0.6-1.4
		C-261.1,545.5-261,544.9-261,544.4z"/>
	<path fill="#767777" d="M-256,538.2h2.6v2.4h0c0.1-0.3,0.2-0.7,0.5-1c0.2-0.3,0.5-0.6,0.8-0.9c0.3-0.3,0.7-0.5,1.1-0.6
		c0.4-0.2,0.8-0.2,1.2-0.2c0.3,0,0.5,0,0.7,0c0.1,0,0.2,0,0.4,0v2.6c-0.2,0-0.4-0.1-0.6-0.1c-0.2,0-0.4,0-0.6,0
		c-0.5,0-0.9,0.1-1.3,0.3c-0.4,0.2-0.8,0.5-1.1,0.8c-0.3,0.4-0.5,0.8-0.7,1.3c-0.2,0.5-0.3,1.1-0.3,1.8v5.9h-2.7V538.2z"/>
	<path fill="#767777" d="M-237.1,547.8c0,0.3,0,0.6,0.1,0.7s0.3,0.2,0.5,0.2c0.1,0,0.2,0,0.3,0c0.1,0,0.2,0,0.4,0v1.9
		c-0.1,0-0.2,0.1-0.4,0.1s-0.3,0.1-0.5,0.1c-0.2,0-0.3,0.1-0.5,0.1c-0.2,0-0.3,0-0.4,0c-0.6,0-1-0.1-1.4-0.3
		c-0.4-0.2-0.6-0.6-0.7-1.2c-0.5,0.5-1.2,0.9-2,1.2c-0.8,0.2-1.6,0.4-2.3,0.4c-0.6,0-1.1-0.1-1.6-0.2c-0.5-0.2-1-0.4-1.4-0.7
		c-0.4-0.3-0.7-0.7-0.9-1.1c-0.2-0.5-0.3-1-0.3-1.6c0-0.8,0.1-1.4,0.4-1.9c0.3-0.5,0.6-0.9,1.1-1.1c0.5-0.3,1-0.5,1.5-0.6
		c0.6-0.1,1.1-0.2,1.7-0.3c0.5-0.1,1-0.2,1.4-0.2c0.4,0,0.8-0.1,1.2-0.2c0.3-0.1,0.6-0.2,0.8-0.4s0.3-0.5,0.3-0.9
		c0-0.4-0.1-0.6-0.3-0.9c-0.2-0.2-0.4-0.4-0.6-0.5c-0.2-0.1-0.5-0.2-0.8-0.2c-0.3,0-0.6-0.1-0.9-0.1c-0.8,0-1.4,0.2-1.9,0.5
		c-0.5,0.3-0.8,0.8-0.8,1.5h-2.7c0-0.8,0.2-1.5,0.6-2c0.3-0.5,0.8-1,1.3-1.3c0.5-0.3,1.1-0.5,1.8-0.7c0.7-0.1,1.3-0.2,2-0.2
		c0.6,0,1.2,0.1,1.8,0.2c0.6,0.1,1.1,0.3,1.6,0.6c0.5,0.3,0.9,0.7,1.1,1.1c0.3,0.5,0.4,1,0.4,1.7V547.8z M-239.9,544.4
		c-0.4,0.3-0.9,0.4-1.5,0.5c-0.6,0.1-1.2,0.1-1.8,0.3c-0.3,0-0.6,0.1-0.8,0.2c-0.3,0.1-0.5,0.2-0.7,0.4c-0.2,0.2-0.4,0.4-0.5,0.6
		s-0.2,0.5-0.2,0.9c0,0.3,0.1,0.6,0.3,0.8c0.2,0.2,0.4,0.4,0.6,0.5c0.2,0.1,0.5,0.2,0.8,0.3c0.3,0,0.6,0.1,0.8,0.1
		c0.3,0,0.6,0,1-0.1c0.4-0.1,0.7-0.2,1-0.4c0.3-0.2,0.6-0.4,0.8-0.7c0.2-0.3,0.3-0.7,0.3-1.1V544.4z"/>
	<path fill="#767777" d="M-235.5,538.2h3l3.2,9.3h0l3.1-9.3h2.9l-4.8,13.1c-0.2,0.6-0.4,1.1-0.7,1.6c-0.2,0.5-0.5,1-0.8,1.4
		c-0.3,0.4-0.7,0.7-1.2,0.9c-0.5,0.2-1.1,0.3-1.8,0.3c-0.6,0-1.3,0-1.9-0.1v-2.3c0.2,0,0.4,0.1,0.6,0.1c0.2,0,0.4,0.1,0.6,0.1
		c0.3,0,0.6,0,0.8-0.1s0.4-0.2,0.5-0.3c0.1-0.2,0.3-0.3,0.3-0.5c0.1-0.2,0.2-0.4,0.3-0.7l0.3-1L-235.5,538.2z"/>
	<path fill="#767777" d="M-216.3,538.2h2v-1c0-0.8,0.1-1.4,0.3-1.9s0.4-0.9,0.8-1.1c0.3-0.3,0.7-0.4,1.1-0.5
		c0.4-0.1,0.8-0.1,1.3-0.1c0.9,0,1.5,0.1,1.9,0.2v2.1c-0.2,0-0.4-0.1-0.6-0.1c-0.2,0-0.4,0-0.7,0c-0.4,0-0.7,0.1-0.9,0.3
		c-0.3,0.2-0.4,0.5-0.4,1v1.3h2.3v2h-2.3v10.4h-2.7v-10.4h-2V538.2z"/>
	<path fill="#767777" d="M-201.8,550.9c-1,0-1.9-0.2-2.7-0.5c-0.8-0.3-1.4-0.8-2-1.4s-0.9-1.3-1.2-2.1c-0.3-0.8-0.4-1.7-0.4-2.6
		c0-0.9,0.1-1.8,0.4-2.6c0.3-0.8,0.7-1.5,1.2-2.1c0.5-0.6,1.2-1,2-1.4c0.8-0.3,1.7-0.5,2.7-0.5s1.9,0.2,2.7,0.5s1.4,0.8,2,1.4
		c0.5,0.6,0.9,1.3,1.2,2.1c0.3,0.8,0.4,1.7,0.4,2.6c0,1-0.1,1.8-0.4,2.6c-0.3,0.8-0.7,1.5-1.2,2.1c-0.5,0.6-1.2,1-2,1.4
		C-199.9,550.8-200.8,550.9-201.8,550.9z M-201.8,548.8c0.6,0,1.1-0.1,1.6-0.4c0.4-0.3,0.8-0.6,1.1-1s0.5-0.9,0.6-1.4
		c0.1-0.5,0.2-1.1,0.2-1.6c0-0.5-0.1-1.1-0.2-1.6c-0.1-0.5-0.3-1-0.6-1.4s-0.7-0.7-1.1-1c-0.4-0.3-1-0.4-1.6-0.4
		c-0.6,0-1.1,0.1-1.6,0.4c-0.4,0.3-0.8,0.6-1.1,1s-0.5,0.9-0.6,1.4c-0.1,0.5-0.2,1.1-0.2,1.6c0,0.5,0.1,1.1,0.2,1.6
		c0.1,0.5,0.3,1,0.6,1.4s0.7,0.8,1.1,1C-202.9,548.6-202.4,548.8-201.8,548.8z"/>
	<path fill="#767777" d="M-193.2,538.2h2.6v2.4h0c0.1-0.3,0.2-0.7,0.5-1c0.2-0.3,0.5-0.6,0.8-0.9c0.3-0.3,0.7-0.5,1.1-0.6
		c0.4-0.2,0.8-0.2,1.2-0.2c0.3,0,0.5,0,0.7,0c0.1,0,0.2,0,0.4,0v2.6c-0.2,0-0.4-0.1-0.6-0.1c-0.2,0-0.4,0-0.6,0
		c-0.5,0-0.9,0.1-1.3,0.3c-0.4,0.2-0.8,0.5-1.1,0.8c-0.3,0.4-0.5,0.8-0.7,1.3c-0.2,0.5-0.3,1.1-0.3,1.8v5.9h-2.7V538.2z"/>
	<path fill="#767777" d="M-167.7,547.8c0,0.3,0,0.6,0.1,0.7s0.3,0.2,0.5,0.2c0.1,0,0.2,0,0.3,0c0.1,0,0.2,0,0.4,0v1.9
		c-0.1,0-0.2,0.1-0.4,0.1s-0.3,0.1-0.5,0.1c-0.2,0-0.3,0.1-0.5,0.1c-0.2,0-0.3,0-0.4,0c-0.6,0-1-0.1-1.4-0.3
		c-0.4-0.2-0.6-0.6-0.7-1.2c-0.5,0.5-1.2,0.9-2,1.2c-0.8,0.2-1.6,0.4-2.3,0.4c-0.6,0-1.1-0.1-1.6-0.2c-0.5-0.2-1-0.4-1.4-0.7
		c-0.4-0.3-0.7-0.7-0.9-1.1c-0.2-0.5-0.3-1-0.3-1.6c0-0.8,0.1-1.4,0.4-1.9c0.3-0.5,0.6-0.9,1.1-1.1c0.5-0.3,1-0.5,1.5-0.6
		c0.6-0.1,1.1-0.2,1.7-0.3c0.5-0.1,1-0.2,1.4-0.2c0.4,0,0.8-0.1,1.2-0.2c0.3-0.1,0.6-0.2,0.8-0.4s0.3-0.5,0.3-0.9
		c0-0.4-0.1-0.6-0.3-0.9c-0.2-0.2-0.4-0.4-0.6-0.5c-0.2-0.1-0.5-0.2-0.8-0.2c-0.3,0-0.6-0.1-0.9-0.1c-0.8,0-1.4,0.2-1.9,0.5
		c-0.5,0.3-0.8,0.8-0.8,1.5h-2.7c0-0.8,0.2-1.5,0.6-2c0.3-0.5,0.8-1,1.3-1.3c0.5-0.3,1.1-0.5,1.8-0.7c0.7-0.1,1.3-0.2,2-0.2
		c0.6,0,1.2,0.1,1.8,0.2c0.6,0.1,1.1,0.3,1.6,0.6c0.5,0.3,0.9,0.7,1.1,1.1c0.3,0.5,0.4,1,0.4,1.7V547.8z M-170.5,544.4
		c-0.4,0.3-0.9,0.4-1.5,0.5c-0.6,0.1-1.2,0.1-1.8,0.3c-0.3,0-0.6,0.1-0.8,0.2c-0.3,0.1-0.5,0.2-0.7,0.4c-0.2,0.2-0.4,0.4-0.5,0.6
		s-0.2,0.5-0.2,0.9c0,0.3,0.1,0.6,0.3,0.8c0.2,0.2,0.4,0.4,0.6,0.5c0.2,0.1,0.5,0.2,0.8,0.3c0.3,0,0.6,0.1,0.8,0.1
		c0.3,0,0.6,0,1-0.1c0.4-0.1,0.7-0.2,1-0.4c0.3-0.2,0.6-0.4,0.8-0.7c0.2-0.3,0.3-0.7,0.3-1.1V544.4z"/>
	<path fill="#767777" d="M-164.8,538.2h2.6v1.8l0,0c0.4-0.7,1-1.2,1.6-1.6c0.7-0.4,1.4-0.6,2.2-0.6c1.4,0,2.4,0.4,3.2,1.1
		c0.8,0.7,1.2,1.8,1.2,3.2v8.5h-2.7v-7.8c0-1-0.2-1.7-0.6-2.1c-0.4-0.4-1-0.7-1.8-0.7c-0.5,0-0.9,0.1-1.2,0.3
		c-0.4,0.2-0.7,0.4-0.9,0.7c-0.3,0.3-0.5,0.6-0.6,1s-0.2,0.8-0.2,1.3v7.3h-2.7V538.2z"/>
	<path fill="#767777" d="M-152.3,538.2h2.1v-3.7h2.7v3.7h2.5v2h-2.5v6.6c0,0.3,0,0.5,0,0.7s0.1,0.4,0.2,0.5c0.1,0.1,0.2,0.3,0.4,0.3
		c0.2,0.1,0.4,0.1,0.7,0.1c0.2,0,0.4,0,0.6,0c0.2,0,0.4,0,0.6-0.1v2.1c-0.3,0-0.6,0.1-0.9,0.1c-0.3,0-0.6,0-0.9,0
		c-0.7,0-1.3-0.1-1.7-0.2c-0.4-0.1-0.8-0.3-1-0.6c-0.2-0.3-0.4-0.6-0.5-1c-0.1-0.4-0.1-0.9-0.2-1.4v-7.3h-2.1V538.2z"/>
	<path fill="#767777" d="M-141,546.6c0.1,0.8,0.4,1.4,0.9,1.7s1.2,0.5,1.9,0.5c0.3,0,0.5,0,0.9-0.1c0.3,0,0.6-0.1,0.9-0.2
		c0.3-0.1,0.5-0.3,0.7-0.5c0.2-0.2,0.3-0.5,0.3-0.9c0-0.4-0.1-0.6-0.4-0.9c-0.2-0.2-0.5-0.4-0.9-0.5c-0.4-0.1-0.8-0.3-1.3-0.3
		s-1-0.2-1.5-0.3c-0.5-0.1-1-0.2-1.5-0.4c-0.5-0.2-0.9-0.4-1.3-0.6c-0.4-0.3-0.7-0.6-0.9-1c-0.2-0.4-0.3-0.9-0.3-1.6
		c0-0.7,0.2-1.2,0.5-1.7c0.3-0.5,0.7-0.8,1.2-1.1c0.5-0.3,1.1-0.5,1.7-0.6c0.6-0.1,1.2-0.2,1.8-0.2c0.6,0,1.3,0.1,1.8,0.2
		s1.1,0.4,1.6,0.7c0.5,0.3,0.9,0.7,1.2,1.2c0.3,0.5,0.5,1.1,0.6,1.8h-2.9c-0.1-0.7-0.4-1.1-0.9-1.3c-0.5-0.2-1-0.3-1.6-0.3
		c-0.2,0-0.4,0-0.7,0c-0.3,0-0.5,0.1-0.7,0.2c-0.2,0.1-0.4,0.2-0.6,0.4s-0.2,0.4-0.2,0.7c0,0.3,0.1,0.6,0.3,0.8
		c0.2,0.2,0.5,0.4,0.9,0.5c0.4,0.1,0.8,0.3,1.3,0.3s1,0.2,1.5,0.3c0.5,0.1,1,0.2,1.5,0.4c0.5,0.2,0.9,0.4,1.3,0.6
		c0.4,0.3,0.7,0.6,0.9,1c0.2,0.4,0.3,0.9,0.3,1.5c0,0.7-0.2,1.4-0.5,1.9c-0.3,0.5-0.8,0.9-1.3,1.2c-0.5,0.3-1.1,0.6-1.8,0.7
		c-0.7,0.1-1.3,0.2-1.9,0.2c-0.8,0-1.5-0.1-2.2-0.3s-1.2-0.4-1.7-0.8c-0.5-0.4-0.9-0.8-1.2-1.3c-0.3-0.5-0.4-1.2-0.4-1.9H-141z"/>
</g>
<g>
	<path fill="#767777" d="M-281.2,433h3.2l6.6,17.1h-3.2l-1.6-4.5h-6.8l-1.6,4.5h-3.1L-281.2,433z M-282.3,443.3h5.2l-2.6-7.4h-0.1
		L-282.3,443.3z"/>
	<path fill="#767777" d="M-265.2,432.5h2.6l-6.9,18h-2.6L-265.2,432.5z"/>
	<path fill="#767777" d="M-249.8,438.4c-0.1-0.5-0.3-1-0.5-1.4s-0.5-0.8-0.9-1.1c-0.4-0.3-0.8-0.5-1.2-0.7c-0.5-0.2-1-0.3-1.6-0.3
		c-0.9,0-1.7,0.2-2.4,0.6s-1.2,0.9-1.6,1.5c-0.4,0.6-0.7,1.3-0.9,2.1s-0.3,1.6-0.3,2.4c0,0.8,0.1,1.6,0.3,2.4s0.5,1.5,0.9,2.1
		c0.4,0.6,1,1.1,1.6,1.5s1.5,0.6,2.4,0.6c0.7,0,1.3-0.1,1.8-0.3c0.5-0.2,1-0.6,1.3-1c0.4-0.4,0.7-0.9,0.9-1.4
		c0.2-0.5,0.3-1.1,0.4-1.8h2.9c-0.1,1-0.3,2-0.7,2.8c-0.4,0.8-0.9,1.6-1.5,2.2c-0.6,0.6-1.4,1.1-2.3,1.4c-0.9,0.3-1.8,0.5-2.9,0.5
		c-1.3,0-2.4-0.2-3.4-0.7s-1.9-1.1-2.6-1.9c-0.7-0.8-1.2-1.8-1.6-2.9c-0.4-1.1-0.6-2.2-0.6-3.5c0-1.2,0.2-2.4,0.6-3.5
		c0.4-1.1,0.9-2,1.6-2.9c0.7-0.8,1.6-1.5,2.6-1.9c1-0.5,2.2-0.7,3.4-0.7c1,0,1.9,0.1,2.7,0.4c0.8,0.3,1.6,0.6,2.2,1.2
		s1.2,1.1,1.6,1.8s0.6,1.5,0.7,2.5H-249.8z"/>
	<path fill="#767777" d="M-237.7,437.7h2.6v1.8l0,0c0.4-0.7,1-1.2,1.6-1.6c0.7-0.4,1.4-0.6,2.2-0.6c1.4,0,2.4,0.4,3.2,1.1
		c0.8,0.7,1.2,1.8,1.2,3.2v8.5h-2.7v-7.8c0-1-0.2-1.7-0.6-2.1c-0.4-0.4-1-0.7-1.8-0.7c-0.5,0-0.9,0.1-1.2,0.3
		c-0.4,0.2-0.7,0.4-0.9,0.7c-0.3,0.3-0.5,0.6-0.6,1s-0.2,0.8-0.2,1.3v7.3h-2.7V437.7z"/>
	<path fill="#767777" d="M-218.3,450.4c-1,0-1.9-0.2-2.7-0.5c-0.8-0.3-1.4-0.8-2-1.4s-0.9-1.3-1.2-2.1c-0.3-0.8-0.4-1.7-0.4-2.6
		c0-0.9,0.1-1.8,0.4-2.6c0.3-0.8,0.7-1.5,1.2-2.1c0.5-0.6,1.2-1,2-1.4c0.8-0.3,1.7-0.5,2.7-0.5s1.9,0.2,2.7,0.5s1.4,0.8,2,1.4
		c0.5,0.6,0.9,1.3,1.2,2.1c0.3,0.8,0.4,1.7,0.4,2.6c0,1-0.1,1.8-0.4,2.6c-0.3,0.8-0.7,1.5-1.2,2.1c-0.5,0.6-1.2,1-2,1.4
		C-216.4,450.3-217.3,450.4-218.3,450.4z M-218.3,448.3c0.6,0,1.1-0.1,1.6-0.4c0.4-0.3,0.8-0.6,1.1-1s0.5-0.9,0.6-1.4
		c0.1-0.5,0.2-1.1,0.2-1.6c0-0.5-0.1-1.1-0.2-1.6c-0.1-0.5-0.3-1-0.6-1.4s-0.7-0.7-1.1-1c-0.4-0.3-1-0.4-1.6-0.4
		c-0.6,0-1.1,0.1-1.6,0.4c-0.4,0.3-0.8,0.6-1.1,1s-0.5,0.9-0.6,1.4c-0.1,0.5-0.2,1.1-0.2,1.6c0,0.5,0.1,1.1,0.2,1.6
		c0.1,0.5,0.3,1,0.6,1.4s0.7,0.8,1.1,1C-219.4,448.1-218.9,448.3-218.3,448.3z"/>
	<path fill="#767777" d="M-211,437.7h2.1V434h2.7v3.7h2.5v2h-2.5v6.6c0,0.3,0,0.5,0,0.7s0.1,0.4,0.2,0.5c0.1,0.1,0.2,0.3,0.4,0.3
		c0.2,0.1,0.4,0.1,0.7,0.1c0.2,0,0.4,0,0.6,0c0.2,0,0.4,0,0.6-0.1v2.1c-0.3,0-0.6,0.1-0.9,0.1c-0.3,0-0.6,0-0.9,0
		c-0.7,0-1.3-0.1-1.7-0.2c-0.4-0.1-0.8-0.3-1-0.6c-0.2-0.3-0.4-0.6-0.5-1c-0.1-0.4-0.1-0.9-0.2-1.4v-7.3h-2.1V437.7z"/>
	<path fill="#767777" d="M-186.7,441.8c-0.1-0.8-0.4-1.3-0.9-1.7c-0.5-0.4-1.1-0.6-1.9-0.6c-0.4,0-0.7,0.1-1.1,0.2s-0.8,0.3-1.1,0.7
		c-0.3,0.3-0.6,0.8-0.8,1.4c-0.2,0.6-0.3,1.3-0.3,2.3c0,0.5,0.1,1,0.2,1.5c0.1,0.5,0.3,1,0.6,1.4c0.3,0.4,0.6,0.7,1,1
		c0.4,0.2,0.9,0.4,1.5,0.4c0.8,0,1.5-0.2,2-0.7c0.5-0.5,0.8-1.2,1-2.1h2.7c-0.3,1.6-0.9,2.9-1.8,3.7c-1,0.9-2.3,1.3-3.9,1.3
		c-1,0-1.8-0.2-2.6-0.5c-0.7-0.3-1.4-0.8-1.9-1.3c-0.5-0.6-0.9-1.2-1.2-2c-0.3-0.8-0.4-1.6-0.4-2.5c0-0.9,0.1-1.8,0.4-2.6
		c0.3-0.8,0.6-1.5,1.2-2.1c0.5-0.6,1.1-1.1,1.9-1.4c0.8-0.3,1.7-0.5,2.7-0.5c0.7,0,1.4,0.1,2.1,0.3c0.6,0.2,1.2,0.5,1.7,0.8
		c0.5,0.4,0.9,0.8,1.2,1.4c0.3,0.6,0.5,1.2,0.6,2H-186.7z"/>
	<path fill="#767777" d="M-176,450.4c-1,0-1.9-0.2-2.7-0.5c-0.8-0.3-1.4-0.8-2-1.4s-0.9-1.3-1.2-2.1c-0.3-0.8-0.4-1.7-0.4-2.6
		c0-0.9,0.1-1.8,0.4-2.6c0.3-0.8,0.7-1.5,1.2-2.1c0.5-0.6,1.2-1,2-1.4c0.8-0.3,1.7-0.5,2.7-0.5s1.9,0.2,2.7,0.5s1.4,0.8,2,1.4
		c0.5,0.6,0.9,1.3,1.2,2.1c0.3,0.8,0.4,1.7,0.4,2.6c0,1-0.1,1.8-0.4,2.6c-0.3,0.8-0.7,1.5-1.2,2.1c-0.5,0.6-1.2,1-2,1.4
		C-174.1,450.3-175,450.4-176,450.4z M-176,448.3c0.6,0,1.1-0.1,1.6-0.4c0.4-0.3,0.8-0.6,1.1-1s0.5-0.9,0.6-1.4
		c0.1-0.5,0.2-1.1,0.2-1.6c0-0.5-0.1-1.1-0.2-1.6c-0.1-0.5-0.3-1-0.6-1.4s-0.7-0.7-1.1-1c-0.4-0.3-1-0.4-1.6-0.4
		c-0.6,0-1.1,0.1-1.6,0.4c-0.4,0.3-0.8,0.6-1.1,1s-0.5,0.9-0.6,1.4c-0.1,0.5-0.2,1.1-0.2,1.6c0,0.5,0.1,1.1,0.2,1.6
		c0.1,0.5,0.3,1,0.6,1.4s0.7,0.8,1.1,1C-177.2,448.1-176.6,448.3-176,448.3z"/>
	<path fill="#767777" d="M-161.8,450.4c-1,0-1.9-0.2-2.7-0.5c-0.8-0.3-1.4-0.8-2-1.4s-0.9-1.3-1.2-2.1c-0.3-0.8-0.4-1.7-0.4-2.6
		c0-0.9,0.1-1.8,0.4-2.6c0.3-0.8,0.7-1.5,1.2-2.1c0.5-0.6,1.2-1,2-1.4c0.8-0.3,1.7-0.5,2.7-0.5s1.9,0.2,2.7,0.5s1.4,0.8,2,1.4
		c0.5,0.6,0.9,1.3,1.2,2.1c0.3,0.8,0.4,1.7,0.4,2.6c0,1-0.1,1.8-0.4,2.6c-0.3,0.8-0.7,1.5-1.2,2.1c-0.5,0.6-1.2,1-2,1.4
		C-159.9,450.3-160.8,450.4-161.8,450.4z M-161.8,448.3c0.6,0,1.1-0.1,1.6-0.4c0.4-0.3,0.8-0.6,1.1-1s0.5-0.9,0.6-1.4
		c0.1-0.5,0.2-1.1,0.2-1.6c0-0.5-0.1-1.1-0.2-1.6c-0.1-0.5-0.3-1-0.6-1.4s-0.7-0.7-1.1-1c-0.4-0.3-1-0.4-1.6-0.4
		c-0.6,0-1.1,0.1-1.6,0.4c-0.4,0.3-0.8,0.6-1.1,1s-0.5,0.9-0.6,1.4c-0.1,0.5-0.2,1.1-0.2,1.6c0,0.5,0.1,1.1,0.2,1.6
		c0.1,0.5,0.3,1,0.6,1.4s0.7,0.8,1.1,1C-162.9,448.1-162.4,448.3-161.8,448.3z"/>
	<path fill="#767777" d="M-153.2,433h2.7v17.1h-2.7V433z"/>
	<path fill="#767777" d="M-147.4,433h2.7v2.6h-2.7V433z M-147.4,437.7h2.7v12.4h-2.7V437.7z"/>
	<path fill="#767777" d="M-141.7,437.7h2.6v1.8l0,0c0.4-0.7,1-1.2,1.6-1.6c0.7-0.4,1.4-0.6,2.2-0.6c1.4,0,2.4,0.4,3.2,1.1
		c0.8,0.7,1.2,1.8,1.2,3.2v8.5h-2.7v-7.8c0-1-0.2-1.7-0.6-2.1c-0.4-0.4-1-0.7-1.8-0.7c-0.5,0-0.9,0.1-1.2,0.3
		c-0.4,0.2-0.7,0.4-0.9,0.7c-0.3,0.3-0.5,0.6-0.6,1s-0.2,0.8-0.2,1.3v7.3h-2.7V437.7z"/>
	<path fill="#767777" d="M-116.4,449.4c0,1.9-0.5,3.3-1.6,4.2s-2.6,1.4-4.5,1.4c-0.6,0-1.3-0.1-1.9-0.2c-0.6-0.1-1.2-0.3-1.7-0.6
		c-0.5-0.3-1-0.7-1.3-1.2c-0.4-0.5-0.6-1.1-0.6-1.8h2.7c0.1,0.4,0.2,0.7,0.4,0.9s0.4,0.4,0.7,0.6c0.3,0.1,0.6,0.2,0.9,0.3
		c0.3,0,0.7,0.1,1,0.1c1.1,0,1.9-0.3,2.4-0.8c0.5-0.5,0.8-1.3,0.8-2.4v-1.9h0c-0.4,0.7-0.9,1.2-1.6,1.6c-0.7,0.4-1.4,0.6-2.1,0.6
		c-1,0-1.8-0.2-2.5-0.5c-0.7-0.3-1.3-0.8-1.7-1.4c-0.5-0.6-0.8-1.3-1-2.1s-0.3-1.6-0.3-2.5c0-0.8,0.1-1.6,0.4-2.4
		c0.3-0.8,0.6-1.4,1.1-2s1.1-1,1.8-1.4c0.7-0.3,1.5-0.5,2.4-0.5c0.8,0,1.5,0.2,2.2,0.5c0.7,0.3,1.2,0.8,1.5,1.5h0v-1.7h2.7V449.4z
		 M-122.5,447.9c0.6,0,1.1-0.1,1.5-0.4c0.4-0.2,0.8-0.6,1-1c0.3-0.4,0.5-0.9,0.6-1.4c0.1-0.5,0.2-1,0.2-1.6c0-0.5-0.1-1-0.2-1.5
		s-0.3-0.9-0.6-1.3s-0.6-0.7-1-0.9c-0.4-0.2-0.9-0.3-1.5-0.3c-0.6,0-1.1,0.1-1.5,0.4c-0.4,0.3-0.8,0.6-1,1s-0.4,0.9-0.6,1.4
		c-0.1,0.5-0.2,1-0.2,1.5s0.1,1,0.2,1.5c0.1,0.5,0.3,0.9,0.6,1.3s0.6,0.7,1,0.9C-123.6,447.8-123.1,447.9-122.5,447.9z"/>
</g>
<path id="Type-something" fill="#28D18A" d="M39.3,441.5c0,7.9,6.4,14.3,14.3,14.3h17.2c7.9,0,14.3-6.4,14.3-14.3
	c0-7.9-6.4-14.3-14.3-14.3H53.6C45.7,427.2,39.3,433.6,39.3,441.5L39.3,441.5z M70.8,453c-6.3,0-11.5-5.1-11.5-11.4
	c0-6.3,5.1-11.4,11.5-11.4c6.3,0,11.5,5.1,11.5,11.4C82.3,447.8,77.1,453,70.8,453L70.8,453z"/>
<path id="Type-something_1_" fill="#9B9B9B" d="M85.1,542.1c0-7.9-6.4-14.3-14.3-14.3H53.6c-7.9,0-14.3,6.4-14.3,14.3
	s6.4,14.3,14.3,14.3h17.2C78.7,556.4,85.1,550,85.1,542.1L85.1,542.1z M53.6,530.6c6.3,0,11.5,5.1,11.5,11.4s-5.1,11.4-11.5,11.4
	s-11.5-5.1-11.5-11.4S47.3,530.6,53.6,530.6L53.6,530.6z"/>
<path id="Type-something_2_" fill="#28D18A" d="M39.3,643.4c0,7.9,6.4,14.3,14.3,14.3h17.2c7.9,0,14.3-6.4,14.3-14.3
	c0-7.9-6.4-14.3-14.3-14.3H53.6C45.7,629,39.3,635.5,39.3,643.4L39.3,643.4z M70.8,654.8c-6.3,0-11.5-5.1-11.5-11.4
	c0-6.3,5.1-11.4,11.5-11.4c6.3,0,11.5,5.1,11.5,11.4C82.3,649.7,77.1,654.8,70.8,654.8L70.8,654.8z"/>
</svg>
