<?xml version="1.0" encoding="utf-8"?>
<!-- Generator: Adobe Illustrator 18.1.1, SVG Export Plug-In . SVG Version: 6.00 Build 0)  -->
<svg version="1.1" id="Calque_2" xmlns="http://www.w3.org/2000/svg" xmlns:xlink="http://www.w3.org/1999/xlink" x="0px" y="0px"
	 width="640.7px" height="323.3px" viewBox="-422.2 378.5 640.7 323.3" enable-background="new -422.2 378.5 640.7 323.3"
	 xml:space="preserve">
<path opacity="0.13" fill="none" stroke="#28D18A" stroke-width="12.9873" stroke-linecap="round" stroke-linejoin="round" stroke-miterlimit="10" stroke-dasharray="0,37.6306" d="
	M-237.5,595.4c-4.3-13.3-6.4-27.8-6.4-42.8c0-64.2,43.3-118.6,102.3-135.3"/>
<path opacity="0.13" fill="none" stroke="#28D18A" stroke-width="12.9873" stroke-linecap="round" stroke-linejoin="round" stroke-miterlimit="10" stroke-dasharray="0,37.6306" d="
	M-35.8,676.8c-19.7,10.7-42.4,16.7-66.4,16.7c-24.8,0-48.4-6.4-68.5-17.6"/>
<path opacity="0.13" fill="none" stroke="#28D18A" stroke-width="12.9873" stroke-linecap="round" stroke-linejoin="round" stroke-miterlimit="10" stroke-dasharray="0,37.6306" d="
	M-60.2,418.6c57,18,98.1,71.5,98.1,134c0,15-2.1,29.1-6.4,42.8"/>
<title>echo-dot</title>
<path fill="none" stroke="#28D18A" stroke-width="3.8962" stroke-linecap="round" stroke-linejoin="round" d="M12,413.5l-9.2,1.2
	 M-28.6,390.8l-1.2-9.2 M-8,396.3l5.7-7.4"/>
<path fill="#FFFFFF" stroke="#969696" stroke-width="2.5975" stroke-linecap="round" stroke-linejoin="round" d="M-11.7,415.2
	c-0.1-6.7-5.6-12.1-12.3-12.1l-154.6,0.2c-6.7,0.1-12,5.5-12.1,12.2v95.2c0,0,5.8-14.7,14.7-14.7l152.1-0.3
	c6.7-0.1,12-5.5,12.1-12.2v-68.4L-11.7,415.2L-11.7,415.2z"/>
<path fill="none" stroke="#28D18A" stroke-width="3.8962" stroke-linecap="round" stroke-linejoin="round" d="M165.1,551.8l-9.2,1.2
	 M124.4,529l-1.2-9.2 M145.1,534.5l5.7-7.4"/>
<path fill="#FFFFFF" stroke="#969696" stroke-width="2.5975" stroke-linecap="round" stroke-linejoin="round" d="M141.4,553.5
	c-0.1-6.7-5.6-12.1-12.3-12.1l-154.6,0.2c-6.7,0.1-12,5.5-12.1,12.2V649c0,0,5.8-14.7,14.7-14.7l152.1-0.3c6.7-0.1,12-5.5,12.1-12.2
	v-68.4L141.4,553.5L141.4,553.5z"/>
<path fill="none" stroke="#28D18A" stroke-width="3.8962" stroke-linecap="round" stroke-linejoin="round" d="M-358.8,597.4
	l-9.2-1.2 M-326.2,564.1l-1.2,9.2 M-353.7,571.5l5.7,7.4"/>
<path fill="#FFFFFF" stroke="#969696" stroke-width="2.5975" stroke-linecap="round" stroke-linejoin="round" d="M-344.4,597.8
	l0.1,0v68.4c0,6.7,5.4,12.1,12.1,12.2l152.1,0.3c8.9,0,14.7,14.7,14.7,14.7v-95.2c0-6.7-5.4-12.1-12.1-12.2l-154.6-0.2
	C-338.8,585.7-344.3,591.1-344.4,597.8L-344.4,597.8z"/>
<g>
	<path fill="#969696" d="M-156.9,467.7c-0.4,0.4-0.4,1,0,1.4c0.4,0.4,1,0.4,1.4,0c0.4-0.4,0.4-1,0-1.4
		C-155.8,467.3-156.5,467.3-156.9,467.7"/>
	<path fill="#969696" d="M-156.9,463.7c-0.4,0.4-0.4,1,0,1.4c0.4,0.4,1,0.4,1.4,0c0.4-0.4,0.4-1,0-1.4
		C-155.8,463.3-156.5,463.3-156.9,463.7"/>
	<path fill="#969696" d="M-156.7,432.7c0.3-0.5,0.5-0.7,0.6-0.7c0,0,0.3,0.1,0.6,0.7c0.3,0.5,0.4,1.1,0.4,1.4c0,0.6-0.5,1-1,1
		c-0.6,0-1-0.5-1-1C-157.2,433.8-157,433.2-156.7,432.7 M-156.2,437.1c1.7,0,3-1.4,3-3c0-0.7-0.3-1.7-0.7-2.4
		c-0.6-1-1.4-1.6-2.3-1.6c-0.9,0-1.7,0.6-2.3,1.6c-0.5,0.8-0.7,1.7-0.7,2.4C-159.2,435.8-157.8,437.1-156.2,437.1"/>
	<path fill="#969696" d="M-135,471.5h-4v-4h-10.1v4h-3v-8.7l0.3,0.3c0.2,0.2,0.4,0.2,0.7,0.2c0.3,0,0.6-0.1,0.8-0.3l3.3-3.7
		c1.4,1,3.3,1.8,4.8,2.4c0.3,0.1,0.6,0.2,0.9,0.4c0.8,0.4,1.9,0.9,3.8,1.4l0.1,0c1.4,0.5,2.4,1.8,2.4,3.3V471.5z M-147.1,469.4h6.1
		v2h-6.1V469.4z M-158.2,471.5V461l1.9-1.6c0,0,0.1,0,0.1,0c0,0,0.1,0,0.1,0l1.9,1.6v10.4H-158.2z M-167.8,471.5v-4.4
		c2.4-0.7,4.3-2.3,5.5-4.4l0.3,0.4c0.2,0.2,0.5,0.3,0.8,0.3c0.2,0,0.5-0.1,0.7-0.2l0.3-0.3v8.7H-167.8z M-170.8,471.5v-4.1
		c0.2,0,0.3,0,0.5,0c0.2,0,0.3,0,0.5,0v4.1H-170.8z M-177.3,471.5v-4.6c0-0.7,0.2-1.4,0.6-2c1.1,1,2.4,1.8,3.8,2.2v4.4H-177.3z
		 M-163.3,459.3c-0.5,3.4-3.4,6.1-7,6.1c-3.6,0-6.5-2.6-7-6.1H-163.3z M-145.2,444.2c-0.3,3-1.7,6.2-4.1,8.9
		c-1.2,1.3-2.5,2.4-3.8,3.2c-1.2,0.7-2.3,1.1-3.1,1.1c-0.8,0-1.9-0.4-3.1-1.1c-1.3-0.8-2.6-1.9-3.8-3.2c-2.4-2.7-3.8-5.9-4.1-8.9
		H-145.2z M-166.7,435c0.6-1.4,1.4-2.6,2.5-3.6c1.1-1.1,2.3-1.9,3.6-2.5c1.4-0.6,2.9-0.9,4.4-0.9c1.5,0,3,0.3,4.4,0.9
		c1.4,0.6,2.6,1.4,3.6,2.5c1.1,1.1,1.9,2.3,2.5,3.6c0.6,1.4,0.9,2.9,0.9,4.4v1.1c-2.2-1.2-5.8-2.4-11.4-2.4c-5.6,0-9.2,1.2-11.4,2.4
		v-1.1C-167.6,437.9-167.3,436.4-166.7,435 M-166.4,442.2c1.1-0.6,2.3-1,3.7-1.3c1.9-0.4,4.1-0.7,6.5-0.7c2.4,0,4.6,0.2,6.5,0.7
		c1.4,0.3,2.7,0.8,3.7,1.3H-166.4z M-161.1,460.9l-0.4-0.4c0.2-0.7,0.3-1.4,0.3-2.2c0-0.6-0.5-1-1-1h-1.9l0.3-2.2
		c1.6,1.7,3.4,3,5.1,3.7L-161.1,460.9z M-148.1,457.5l-3,3.4l-2.4-2.1c1.7-0.7,3.5-2,5.1-3.7L-148.1,457.5z M-136.8,461.6l-0.2,0
		c-2.5-0.7-3.4-1.3-4.5-1.7c-2.7-1-4-1.8-4.7-2.4l-0.6-4.3c1.9-2.5,3.3-5.6,3.5-8.9h1.1c0.6,0,0.8-0.4,0.5-0.9c0,0-0.3-0.6-1.2-1.3
		v-2.5c0-7.1-5.6-12.9-12.4-13.4c0,0,0,0,0,0c0-0.6-0.5-1-1-1c-0.6,0-1,0.5-1,1c0,0,0,0,0,0c-6.8,0.5-12.4,6.3-12.4,13.4l0,2.5
		c-0.9,0.8-1.2,1.3-1.2,1.3c-0.3,0.5,0,0.9,0.5,0.9h1.1c0.3,3.2,1.6,6.4,3.5,8.9l-0.6,4.2h-12.2c-0.6,0-1,0.5-1,1
		c0,1.8,0.5,3.5,1.4,4.9c-0.9,1-1.4,2.3-1.4,3.6v6.6h6.5h5.1h7.6h8.1h3h10.1h6v-6.6C-133,464.5-134.5,462.3-136.8,461.6"/>
</g>
<g>
	<path fill="#969696" d="M-2.6,607.7c-0.4,0.4-0.4,1.1,0,1.5c0.4,0.4,1,0.4,1.4,0c0.4-0.4,0.4-1.1,0-1.5
		C-1.6,607.3-2.2,607.3-2.6,607.7"/>
	<path fill="#969696" d="M-2.6,603.6c-0.4,0.4-0.4,1.1,0,1.5c0.4,0.4,1,0.4,1.4,0c0.4-0.4,0.4-1.1,0-1.5
		C-1.6,603.2-2.2,603.2-2.6,603.6"/>
	<path fill="#969696" d="M18.2,611.5H2v-8.8l0.3,0.3c0.2,0.2,0.4,0.2,0.6,0.2c0.3,0,0.5-0.1,0.7-0.3l3.2-3.8
		c1.3,1.1,3.1,1.9,4.6,2.5c0.3,0.1,0.5,0.2,0.8,0.4c0.8,0.4,1.8,0.9,3.6,1.4l0.1,0c1.4,0.5,2.3,1.9,2.3,3.4V611.5z M-3.8,611.5
		v-10.6l1.8-1.7c0,0,0.1,0,0.1,0c0,0,0.1,0,0.1,0l1.8,1.7v10.6H-3.8z M-21.9,611.5v-4.7c0-1.5,0.9-2.9,2.3-3.4l0.1,0
		c1.8-0.5,2.8-1,3.6-1.4c0.3-0.2,0.6-0.3,0.8-0.4c1.4-0.6,3.3-1.4,4.6-2.5l3.2,3.8c0.2,0.2,0.4,0.3,0.7,0.3c0.2,0,0.4-0.1,0.6-0.2
		l0.3-0.3v8.8H-21.9z M8.5,583.8c-0.3,3.1-1.6,6.3-3.9,9.1c-1.1,1.3-2.3,2.5-3.6,3.3c-1.1,0.7-2.1,1.1-2.9,1.1
		c-0.8,0-1.8-0.4-2.9-1.1c-1.2-0.8-2.5-1.9-3.6-3.3c-2.2-2.7-3.6-6-3.9-9.1H8.5z M-11.8,574.4c0.6-1.4,1.3-2.6,2.3-3.7
		c1-1.1,2.2-1.9,3.5-2.5c1.3-0.6,2.7-0.9,4.2-0.9c1.4,0,2.8,0.3,4.2,0.9c1.3,0.6,2.4,1.4,3.5,2.5c1,1.1,1.8,2.3,2.3,3.7
		c0.6,1.4,0.9,3,0.9,4.5v1.1c-2.1-1.2-5.5-2.4-10.8-2.4c-5.3,0-8.7,1.2-10.8,2.4v-1.1C-12.7,577.4-12.4,575.8-11.8,574.4
		 M-11.6,581.7c1-0.6,2.2-1,3.5-1.4c1.8-0.5,3.9-0.7,6.2-0.7c2.3,0,4.4,0.2,6.2,0.7c1.3,0.3,2.5,0.8,3.5,1.4H-11.6z M-6.6,600.8
		l-2.9-3.5l0.3-2.4c1.5,1.7,3.3,3,4.9,3.7L-6.6,600.8z M5.7,597.3l-2.9,3.5l-2.3-2.1c1.6-0.7,3.3-2,4.9-3.7L5.7,597.3z M16.4,601.5
		l-0.2-0.1c-2.4-0.7-3.2-1.3-4.2-1.8c-2.5-1-3.8-1.9-4.4-2.5l-0.5-4.4c1.8-2.6,3.1-5.7,3.3-9.1h1c0.5,0,0.8-0.4,0.5-0.9
		c0,0-0.3-0.6-1.1-1.4v-2.5c0-7.2-5.3-13.1-11.8-13.6c0,0,0,0,0,0c0-0.6-0.4-1-1-1c-0.5,0-1,0.5-1,1c0,0,0,0,0,0
		c-6.5,0.5-11.8,6.4-11.8,13.6l0,2.5c-0.8,0.8-1.1,1.4-1.1,1.4c-0.2,0.5,0,0.9,0.5,0.9h1c0.2,3.3,1.6,6.5,3.3,9.1l-0.5,4.4
		c-0.6,0.6-1.9,1.4-4.4,2.5c-1.1,0.4-1.9,1.1-4.2,1.8l-0.2,0.1c-2.2,0.8-3.6,2.9-3.6,5.4v6.8h18.1H2h18.1v-6.8
		C20.1,604.4,18.6,602.2,16.4,601.5"/>
	<path fill="#969696" d="M-3.8,573.5h2l-0.9,1.5c-0.3,0.5-0.2,1.1,0.3,1.4c0.2,0.1,0.3,0.2,0.5,0.2c0.3,0,0.6-0.2,0.8-0.5l1.9-3.1
		c0.2-0.3,0.2-0.7,0.1-1.1c-0.2-0.3-0.5-0.5-0.8-0.5h-2l0.9-1.5c0.3-0.5,0.2-1.1-0.3-1.4c-0.4-0.3-1-0.2-1.3,0.3l-1.9,3.1
		c-0.2,0.3-0.2,0.7-0.1,1.1C-4.5,573.3-4.1,573.5-3.8,573.5"/>
</g>
<path fill="#28D18A" d="M-319.3,619.2l1.2,3.8c0.1,0.3,0.4,0.5,0.6,0.5h4c0.4,0,0.7,0.3,0.7,0.7c0,0.2-0.1,0.4-0.3,0.5l-3.3,2.4
	c-0.2,0.2-0.3,0.5-0.2,0.8l1.2,3.8c0.1,0.4-0.1,0.7-0.5,0.9c-0.2,0.1-0.4,0-0.6-0.1l-3.3-2.4c-0.2-0.2-0.6-0.2-0.8,0l-3.2,2.4
	c-0.3,0.2-0.7,0.1-1-0.2c-0.1-0.2-0.2-0.4-0.1-0.6l1.2-3.8c0.1-0.3,0-0.6-0.2-0.8l-3.3-2.4c-0.3-0.2-0.4-0.7-0.1-1
	c0.1-0.2,0.3-0.3,0.5-0.3h4c0.3,0,0.6-0.2,0.6-0.5l1.2-3.8c0.1-0.4,0.5-0.5,0.9-0.4C-319.5,618.9-319.3,619-319.3,619.2
	L-319.3,619.2z M-302.5,619.2l1.2,3.8c0.1,0.3,0.4,0.5,0.6,0.5h4c0.4,0,0.7,0.3,0.7,0.7c0,0.2-0.1,0.4-0.3,0.5l-3.3,2.4
	c-0.2,0.2-0.3,0.5-0.2,0.8l1.2,3.8c0.1,0.4-0.1,0.7-0.5,0.9c-0.2,0.1-0.4,0-0.6-0.1l-3.3-2.4c-0.2-0.2-0.6-0.2-0.8,0l-3.3,2.4
	c-0.3,0.2-0.7,0.1-1-0.2c-0.1-0.2-0.2-0.4-0.1-0.6l1.2-3.8c0.1-0.3,0-0.6-0.2-0.8l-3.3-2.4c-0.3-0.2-0.4-0.7-0.1-1
	c0.1-0.2,0.3-0.3,0.5-0.3h4c0.3,0,0.6-0.2,0.6-0.5l1.2-3.8c0.1-0.4,0.5-0.6,0.9-0.4C-302.7,618.8-302.5,619-302.5,619.2
	L-302.5,619.2z M-285.6,619.2l1.2,3.8c0.1,0.3,0.4,0.5,0.6,0.5h4c0.4,0,0.7,0.3,0.7,0.7c0,0.2-0.1,0.4-0.3,0.5l-3.3,2.4
	c-0.2,0.2-0.3,0.5-0.2,0.8l1.2,3.8c0.1,0.4-0.1,0.7-0.5,0.9c-0.2,0.1-0.4,0-0.6-0.1l-3.3-2.4c-0.2-0.2-0.6-0.2-0.8,0l-3.3,2.4
	c-0.3,0.2-0.7,0.1-1-0.2c-0.1-0.2-0.2-0.4-0.1-0.6l1.2-3.8c0.1-0.3,0-0.6-0.2-0.8l-3.3-2.4c-0.3-0.2-0.4-0.7-0.1-1
	c0.1-0.2,0.3-0.3,0.5-0.3h4c0.3,0,0.6-0.2,0.6-0.5l1.2-3.8c0.1-0.4,0.4-0.6,0.8-0.5C-285.9,618.7-285.7,618.9-285.6,619.2
	L-285.6,619.2z M-268.9,619.2l1.2,3.8c0.1,0.3,0.4,0.5,0.6,0.5h4c0.4,0,0.7,0.3,0.7,0.7c0,0.2-0.1,0.4-0.3,0.5l-3.3,2.4
	c-0.2,0.2-0.3,0.5-0.2,0.8l1.2,3.8c0.1,0.4-0.1,0.7-0.5,0.9c-0.2,0.1-0.4,0-0.6-0.1l-3.3-2.4c-0.2-0.2-0.6-0.2-0.8,0l-3.3,2.4
	c-0.3,0.2-0.7,0.1-1-0.2c-0.1-0.2-0.2-0.4-0.1-0.6l1.2-3.8c0.1-0.3,0-0.6-0.2-0.8l-3.3-2.4c-0.3-0.2-0.4-0.7-0.1-1
	c0.1-0.2,0.3-0.3,0.5-0.3h4c0.3,0,0.6-0.2,0.6-0.5l1.2-3.8c0.1-0.4,0.5-0.6,0.9-0.4C-269.1,618.8-269,619-268.9,619.2z
	 M-252.1,619.2l1.2,3.8c0.1,0.3,0.4,0.5,0.6,0.5h4c0.4,0,0.7,0.3,0.7,0.7c0,0.2-0.1,0.4-0.3,0.5l-3.3,2.4c-0.2,0.2-0.3,0.5-0.2,0.8
	l1.2,3.8c0.1,0.4-0.1,0.7-0.5,0.9c-0.2,0.1-0.4,0-0.6-0.1l-3.3-2.4c-0.2-0.2-0.6-0.2-0.8,0l-3.3,2.4c-0.3,0.2-0.7,0.1-1-0.2
	c-0.1-0.2-0.2-0.4-0.1-0.6l1.2-3.8c0.1-0.3,0-0.6-0.2-0.8l-3.3-2.4c-0.3-0.2-0.4-0.7-0.1-1c0.1-0.2,0.3-0.3,0.5-0.3h4
	c0.3,0,0.6-0.2,0.6-0.5l1.2-3.8c0.1-0.4,0.5-0.6,0.9-0.4C-252.3,618.8-252.2,619-252.1,619.2L-252.1,619.2z"/>
<g>
	<g transform="translate(37 145)">
		
			<ellipse fill="#C8C8C8" stroke="#969696" stroke-width="2.3852" stroke-linecap="round" stroke-linejoin="round" cx="-237.4" cy="473.5" rx="9.3" ry="9.5"/>
		<path fill="#C8C8C8" stroke="#969696" stroke-width="2.3852" stroke-linecap="round" stroke-linejoin="round" d="M-237.4,501.9
			c6.2,0,12.1-2.5,16.4-6.9c-2.9-9.1-12.5-14.1-21.6-11.2c-5.3,1.7-9.5,5.9-11.2,11.2C-249.5,499.4-243.6,501.9-237.4,501.9z"/>
	</g>
	
		<ellipse fill="none" stroke="#C8C8C8" stroke-width="2.3852" stroke-linecap="round" stroke-linejoin="round" cx="-200.4" cy="623.3" rx="23.2" ry="23.6"/>
</g>
<g>
	<path fill="#767777" d="M-122.1,442.9h2l5,8h0v-8h1.8v10.9h-2l-5-8h0v8h-1.8V442.9z"/>
	<path fill="#767777" d="M-109.8,450.3c0,0.3,0,0.6,0.1,0.9c0.1,0.3,0.2,0.5,0.4,0.8c0.2,0.2,0.4,0.4,0.7,0.5
		c0.3,0.1,0.6,0.2,0.9,0.2c0.5,0,0.9-0.1,1.2-0.3c0.3-0.2,0.5-0.5,0.7-1h1.7c-0.1,0.4-0.2,0.8-0.5,1.1c-0.2,0.3-0.5,0.6-0.8,0.8
		c-0.3,0.2-0.7,0.4-1.1,0.5s-0.8,0.2-1.2,0.2c-0.6,0-1.2-0.1-1.7-0.3c-0.5-0.2-0.9-0.5-1.2-0.9c-0.3-0.4-0.6-0.8-0.7-1.3
		c-0.2-0.5-0.3-1.1-0.3-1.7c0-0.6,0.1-1.1,0.3-1.6c0.2-0.5,0.4-0.9,0.8-1.3c0.3-0.4,0.7-0.7,1.2-0.9c0.5-0.2,1-0.3,1.6-0.3
		c0.6,0,1.2,0.1,1.7,0.4c0.5,0.3,0.9,0.6,1.2,1c0.3,0.4,0.6,0.9,0.7,1.5c0.1,0.6,0.2,1.1,0.1,1.7H-109.8z M-105.8,449.1
		c0-0.3-0.1-0.5-0.2-0.8c-0.1-0.3-0.2-0.5-0.4-0.7c-0.2-0.2-0.4-0.3-0.6-0.5c-0.2-0.1-0.5-0.2-0.8-0.2c-0.3,0-0.6,0.1-0.8,0.2
		s-0.5,0.3-0.6,0.4c-0.2,0.2-0.3,0.4-0.4,0.7s-0.2,0.5-0.2,0.8H-105.8z"/>
	<path fill="#767777" d="M-103.4,445.9h1.9l1.5,5.9h0l1.5-5.9h1.8l1.4,5.9h0l1.6-5.9h1.8l-2.5,7.9h-1.8l-1.5-5.9h0l-1.5,5.9h-1.8
		L-103.4,445.9z"/>
	<path fill="#767777" d="M-86.3,442.9h5.2c1.2,0,2.1,0.3,2.7,0.8c0.6,0.5,0.9,1.2,0.9,2.2c0,0.5-0.1,1-0.2,1.3
		c-0.2,0.3-0.3,0.6-0.5,0.8s-0.4,0.4-0.6,0.5c-0.2,0.1-0.3,0.2-0.4,0.2v0c0.2,0,0.3,0.1,0.5,0.2c0.2,0.1,0.4,0.2,0.5,0.4
		c0.2,0.2,0.3,0.4,0.4,0.7c0.1,0.3,0.2,0.6,0.2,1.1c0,0.6,0,1.2,0.1,1.8c0.1,0.5,0.2,0.9,0.5,1.1h-2.1c-0.1-0.2-0.2-0.5-0.3-0.8
		c0-0.3,0-0.6,0-0.8c0-0.5,0-0.9-0.1-1.3c-0.1-0.4-0.2-0.7-0.3-0.9c-0.2-0.2-0.4-0.4-0.7-0.5c-0.3-0.1-0.6-0.2-1.1-0.2h-2.8v4.5
		h-1.9V442.9z M-84.4,447.8h3.1c0.6,0,1.1-0.1,1.4-0.4c0.3-0.3,0.5-0.7,0.5-1.3c0-0.3-0.1-0.6-0.2-0.8c-0.1-0.2-0.2-0.4-0.4-0.5
		s-0.4-0.2-0.6-0.2c-0.2,0-0.5-0.1-0.7-0.1h-3.1V447.8z"/>
	<path fill="#767777" d="M-74.4,450.3c0,0.3,0,0.6,0.1,0.9c0.1,0.3,0.2,0.5,0.4,0.8c0.2,0.2,0.4,0.4,0.7,0.5
		c0.3,0.1,0.6,0.2,0.9,0.2c0.5,0,0.9-0.1,1.2-0.3c0.3-0.2,0.5-0.5,0.7-1h1.7c-0.1,0.4-0.2,0.8-0.5,1.1c-0.2,0.3-0.5,0.6-0.8,0.8
		c-0.3,0.2-0.7,0.4-1.1,0.5s-0.8,0.2-1.2,0.2c-0.6,0-1.2-0.1-1.7-0.3s-0.9-0.5-1.2-0.9c-0.3-0.4-0.6-0.8-0.7-1.3
		c-0.2-0.5-0.3-1.1-0.3-1.7c0-0.6,0.1-1.1,0.3-1.6c0.2-0.5,0.4-0.9,0.8-1.3c0.3-0.4,0.7-0.7,1.2-0.9c0.5-0.2,1-0.3,1.6-0.3
		c0.6,0,1.2,0.1,1.7,0.4s0.9,0.6,1.2,1c0.3,0.4,0.6,0.9,0.7,1.5c0.1,0.6,0.2,1.1,0.1,1.7H-74.4z M-70.3,449.1c0-0.3-0.1-0.5-0.2-0.8
		s-0.2-0.5-0.4-0.7c-0.2-0.2-0.4-0.3-0.6-0.5s-0.5-0.2-0.8-0.2c-0.3,0-0.6,0.1-0.8,0.2s-0.5,0.3-0.6,0.4c-0.2,0.2-0.3,0.4-0.4,0.7
		c-0.1,0.3-0.2,0.5-0.2,0.8H-70.3z"/>
	<path fill="#767777" d="M-59.8,456.7h-1.7v-3.9h0c-0.1,0.2-0.3,0.4-0.5,0.6c-0.2,0.2-0.4,0.3-0.6,0.4c-0.2,0.1-0.5,0.2-0.7,0.2
		s-0.5,0.1-0.8,0.1c-0.6,0-1.1-0.1-1.5-0.3c-0.4-0.2-0.8-0.5-1.1-0.9s-0.5-0.8-0.6-1.3s-0.2-1-0.2-1.5c0-0.6,0.1-1.1,0.2-1.6
		c0.2-0.5,0.4-1,0.7-1.3c0.3-0.4,0.7-0.7,1.2-0.9c0.5-0.2,1-0.3,1.6-0.3c0.5,0,1,0.1,1.4,0.3s0.8,0.5,1,1h0v-1.1h1.7V456.7z
		 M-65.9,449.8c0,0.3,0,0.7,0.1,1c0.1,0.3,0.2,0.6,0.4,0.9c0.2,0.3,0.4,0.5,0.7,0.6s0.6,0.2,1,0.2c0.8,0,1.3-0.3,1.7-0.8
		c0.4-0.5,0.5-1.2,0.5-2c0-0.9-0.2-1.5-0.6-2s-0.9-0.8-1.7-0.8c-0.4,0-0.7,0.1-0.9,0.2s-0.5,0.4-0.7,0.6c-0.2,0.3-0.3,0.6-0.4,0.9
		S-65.9,449.5-65.9,449.8z"/>
	<path fill="#767777" d="M-51,453.8h-1.7v-1.1h0c-0.2,0.4-0.5,0.7-1,1s-0.9,0.4-1.3,0.4c-1,0-1.8-0.3-2.3-0.8
		c-0.5-0.5-0.7-1.3-0.7-2.3v-5h1.7v4.8c0,0.7,0.1,1.2,0.4,1.5s0.6,0.4,1.1,0.4c0.4,0,0.7-0.1,0.9-0.2c0.2-0.1,0.4-0.3,0.6-0.5
		c0.2-0.2,0.3-0.4,0.3-0.7s0.1-0.6,0.1-0.9v-4.6h1.7V453.8z"/>
	<path fill="#767777" d="M-47.8,450.3c0,0.3,0,0.6,0.1,0.9c0.1,0.3,0.2,0.5,0.4,0.8c0.2,0.2,0.4,0.4,0.7,0.5
		c0.3,0.1,0.6,0.2,0.9,0.2c0.5,0,0.9-0.1,1.2-0.3c0.3-0.2,0.5-0.5,0.7-1h1.7c-0.1,0.4-0.2,0.8-0.5,1.1c-0.2,0.3-0.5,0.6-0.8,0.8
		c-0.3,0.2-0.7,0.4-1.1,0.5s-0.8,0.2-1.2,0.2c-0.6,0-1.2-0.1-1.7-0.3s-0.9-0.5-1.2-0.9c-0.3-0.4-0.6-0.8-0.7-1.3
		c-0.2-0.5-0.3-1.1-0.3-1.7c0-0.6,0.1-1.1,0.3-1.6c0.2-0.5,0.4-0.9,0.8-1.3c0.3-0.4,0.7-0.7,1.2-0.9c0.5-0.2,1-0.3,1.6-0.3
		c0.6,0,1.2,0.1,1.7,0.4s0.9,0.6,1.2,1c0.3,0.4,0.6,0.9,0.7,1.5c0.1,0.6,0.2,1.1,0.1,1.7H-47.8z M-43.7,449.1c0-0.3-0.1-0.5-0.2-0.8
		s-0.2-0.5-0.4-0.7c-0.2-0.2-0.4-0.3-0.6-0.5s-0.5-0.2-0.8-0.2c-0.3,0-0.6,0.1-0.8,0.2s-0.5,0.3-0.6,0.4c-0.2,0.2-0.3,0.4-0.4,0.7
		c-0.1,0.3-0.2,0.5-0.2,0.8H-43.7z"/>
	<path fill="#767777" d="M-39.3,451.2c0.1,0.5,0.2,0.9,0.6,1.1c0.3,0.2,0.7,0.3,1.2,0.3c0.2,0,0.3,0,0.6,0s0.4-0.1,0.6-0.1
		c0.2-0.1,0.3-0.2,0.5-0.3s0.2-0.3,0.2-0.5c0-0.2-0.1-0.4-0.2-0.6c-0.2-0.1-0.3-0.3-0.6-0.3c-0.2-0.1-0.5-0.2-0.8-0.2
		c-0.3-0.1-0.6-0.1-0.9-0.2c-0.3-0.1-0.6-0.2-0.9-0.3c-0.3-0.1-0.6-0.2-0.8-0.4c-0.2-0.2-0.4-0.4-0.6-0.7c-0.1-0.3-0.2-0.6-0.2-1
		c0-0.4,0.1-0.8,0.3-1.1c0.2-0.3,0.5-0.5,0.8-0.7s0.7-0.3,1.1-0.4s0.8-0.1,1.1-0.1c0.4,0,0.8,0,1.2,0.1c0.4,0.1,0.7,0.2,1,0.4
		c0.3,0.2,0.6,0.4,0.7,0.8c0.2,0.3,0.3,0.7,0.4,1.1h-1.8c-0.1-0.4-0.3-0.7-0.6-0.8c-0.3-0.1-0.6-0.2-1-0.2c-0.1,0-0.3,0-0.4,0
		c-0.2,0-0.3,0.1-0.5,0.1c-0.1,0.1-0.3,0.1-0.4,0.2s-0.2,0.2-0.2,0.4c0,0.2,0.1,0.4,0.2,0.5c0.1,0.1,0.3,0.2,0.6,0.3
		c0.2,0.1,0.5,0.2,0.8,0.2c0.3,0.1,0.6,0.1,0.9,0.2c0.3,0.1,0.6,0.2,0.9,0.3c0.3,0.1,0.6,0.2,0.8,0.4c0.2,0.2,0.4,0.4,0.6,0.7
		c0.1,0.3,0.2,0.6,0.2,1c0,0.5-0.1,0.9-0.3,1.2c-0.2,0.3-0.5,0.6-0.8,0.8s-0.7,0.4-1.1,0.4c-0.4,0.1-0.8,0.1-1.2,0.1
		c-0.5,0-1-0.1-1.4-0.2c-0.4-0.1-0.8-0.3-1.1-0.5s-0.6-0.5-0.7-0.9s-0.3-0.7-0.3-1.2H-39.3z"/>
	<path fill="#767777" d="M-33.5,445.9h1.3v-2.4h1.7v2.4h1.6v1.3h-1.6v4.2c0,0.2,0,0.3,0,0.5s0.1,0.2,0.1,0.3
		c0.1,0.1,0.1,0.2,0.3,0.2s0.3,0.1,0.5,0.1c0.1,0,0.2,0,0.4,0c0.1,0,0.2,0,0.4-0.1v1.3c-0.2,0-0.4,0-0.6,0.1s-0.4,0-0.6,0
		c-0.5,0-0.8,0-1.1-0.1c-0.3-0.1-0.5-0.2-0.7-0.4c-0.2-0.2-0.3-0.4-0.3-0.6c-0.1-0.3-0.1-0.5-0.1-0.9v-4.7h-1.3V445.9z"/>
</g>
<g>
	<path fill="#767777" d="M39.6,585.2c-0.3,0.1-0.5,0.3-0.7,0.5s-0.2,0.5-0.2,0.8h0.9v2.1h-1.9v-2.1c0-0.3,0.1-0.6,0.2-0.8
		c0.1-0.2,0.2-0.5,0.4-0.7c0.2-0.2,0.4-0.3,0.6-0.5s0.5-0.2,0.7-0.3V585.2z M42.6,585.2c-0.3,0.1-0.5,0.3-0.7,0.5s-0.2,0.5-0.2,0.8
		h0.9v2.1h-1.9v-2.1c0-0.3,0.1-0.6,0.2-0.8s0.2-0.5,0.4-0.7c0.2-0.2,0.4-0.3,0.6-0.5s0.5-0.2,0.7-0.3V585.2z"/>
	<path fill="#767777" d="M47.6,584.3h2l4.2,10.9h-2l-1-2.9h-4.4l-1,2.9h-2L47.6,584.3z M47,590.9h3.3l-1.6-4.7h0L47,590.9z"/>
	<path fill="#767777" d="M54.7,584.3h1.7v10.9h-1.7V584.3z"/>
	<path fill="#767777" d="M58.4,584.3h1.7v10.9h-1.7V584.3z"/>
	<path fill="#767777" d="M66.5,584.3h4.5c0.8,0,1.6,0.1,2.2,0.4c0.6,0.3,1.1,0.7,1.5,1.2c0.4,0.5,0.7,1.1,0.9,1.7
		c0.2,0.7,0.3,1.4,0.3,2.1c0,0.8-0.1,1.5-0.3,2.1c-0.2,0.7-0.5,1.2-0.9,1.7s-0.9,0.9-1.5,1.2c-0.6,0.3-1.3,0.4-2.2,0.4h-4.5V584.3z
		 M68.5,593.6h1.9c0.7,0,1.4-0.1,1.8-0.3c0.5-0.2,0.8-0.5,1.1-0.8c0.3-0.4,0.5-0.8,0.6-1.2c0.1-0.5,0.1-1,0.1-1.5s0-1.1-0.1-1.5
		s-0.3-0.9-0.6-1.2s-0.6-0.6-1.1-0.8c-0.5-0.2-1.1-0.3-1.8-0.3h-1.9V593.6z"/>
	<path fill="#767777" d="M81,595.4c-0.6,0-1.2-0.1-1.7-0.3c-0.5-0.2-0.9-0.5-1.3-0.9s-0.6-0.8-0.8-1.3s-0.3-1.1-0.3-1.7
		c0-0.6,0.1-1.2,0.3-1.7s0.4-0.9,0.8-1.3s0.8-0.7,1.3-0.9c0.5-0.2,1.1-0.3,1.7-0.3c0.6,0,1.2,0.1,1.7,0.3c0.5,0.2,0.9,0.5,1.3,0.9
		s0.6,0.8,0.8,1.3s0.3,1.1,0.3,1.7c0,0.6-0.1,1.2-0.3,1.7s-0.4,0.9-0.8,1.3s-0.8,0.7-1.3,0.9C82.2,595.3,81.6,595.4,81,595.4z
		 M81,594c0.4,0,0.7-0.1,1-0.2c0.3-0.2,0.5-0.4,0.7-0.6s0.3-0.6,0.4-0.9c0.1-0.3,0.1-0.7,0.1-1c0-0.3,0-0.7-0.1-1
		c-0.1-0.3-0.2-0.6-0.4-0.9c-0.2-0.3-0.4-0.5-0.7-0.6c-0.3-0.2-0.6-0.2-1-0.2c-0.4,0-0.7,0.1-1,0.2c-0.3,0.2-0.5,0.4-0.7,0.6
		c-0.2,0.3-0.3,0.6-0.4,0.9c-0.1,0.3-0.1,0.7-0.1,1c0,0.3,0,0.7,0.1,1c0.1,0.3,0.2,0.6,0.4,0.9s0.4,0.5,0.7,0.6
		C80.2,594,80.6,594,81,594z"/>
	<path fill="#767777" d="M86.4,587.3h1.7v1.2l0,0c0.3-0.4,0.6-0.8,1-1c0.4-0.2,0.9-0.4,1.4-0.4c0.9,0,1.6,0.2,2.1,0.7
		c0.5,0.4,0.7,1.1,0.7,2v5.4h-1.7v-5c0-0.6-0.2-1.1-0.4-1.4c-0.2-0.3-0.6-0.4-1.1-0.4c-0.3,0-0.6,0.1-0.8,0.2
		c-0.2,0.1-0.4,0.3-0.6,0.4c-0.2,0.2-0.3,0.4-0.4,0.7s-0.1,0.5-0.1,0.8v4.7h-1.7V587.3z"/>
	<path fill="#767777" d="M96.6,591.7c0,0.3,0,0.6,0.1,0.9c0.1,0.3,0.2,0.5,0.4,0.8c0.2,0.2,0.4,0.4,0.7,0.5c0.3,0.1,0.6,0.2,0.9,0.2
		c0.5,0,0.9-0.1,1.2-0.3c0.3-0.2,0.5-0.5,0.7-1h1.7c-0.1,0.4-0.2,0.8-0.5,1.1c-0.2,0.3-0.5,0.6-0.8,0.8c-0.3,0.2-0.7,0.4-1.1,0.5
		s-0.8,0.2-1.2,0.2c-0.6,0-1.2-0.1-1.7-0.3s-0.9-0.5-1.2-0.9c-0.3-0.4-0.6-0.8-0.7-1.3c-0.2-0.5-0.3-1.1-0.3-1.7
		c0-0.6,0.1-1.1,0.3-1.6c0.2-0.5,0.4-0.9,0.8-1.3c0.3-0.4,0.7-0.7,1.2-0.9c0.5-0.2,1-0.3,1.6-0.3c0.6,0,1.2,0.1,1.7,0.4
		s0.9,0.6,1.2,1c0.3,0.4,0.6,0.9,0.7,1.5c0.1,0.6,0.2,1.1,0.1,1.7H96.6z M100.6,590.5c0-0.3-0.1-0.5-0.2-0.8s-0.2-0.5-0.4-0.7
		c-0.2-0.2-0.4-0.3-0.6-0.5s-0.5-0.2-0.8-0.2c-0.3,0-0.6,0.1-0.8,0.2s-0.5,0.3-0.6,0.4c-0.2,0.2-0.3,0.4-0.4,0.7
		c-0.1,0.3-0.2,0.5-0.2,0.8H100.6z"/>
	<path fill="#767777" d="M103.9,593.3h2v1.9h-2V593.3z M104,584.3h1.9v3.2l-0.5,4.7h-0.9l-0.5-4.7V584.3z"/>
	<path fill="#767777" d="M108,587.7c0.3-0.1,0.6-0.3,0.7-0.5c0.2-0.2,0.2-0.5,0.2-0.8H108v-2.1h1.9v2.1c0,0.3-0.1,0.6-0.2,0.8
		c-0.1,0.2-0.2,0.5-0.4,0.6c-0.2,0.2-0.4,0.4-0.6,0.5s-0.5,0.2-0.7,0.3V587.7z M111,587.7c0.3-0.1,0.6-0.3,0.7-0.5
		c0.2-0.2,0.2-0.5,0.2-0.8H111v-2.1h1.9v2.1c0,0.3-0.1,0.6-0.2,0.8c-0.1,0.2-0.2,0.5-0.4,0.6c-0.2,0.2-0.4,0.4-0.6,0.5
		s-0.5,0.2-0.7,0.3V587.7z"/>
</g>
<g>
	<path fill="#767777" d="M-328.4,656.1c-0.3,0.1-0.5,0.3-0.7,0.5c-0.2,0.2-0.2,0.5-0.2,0.8h0.9v2.1h-1.9v-2.1c0-0.3,0.1-0.6,0.2-0.8
		s0.2-0.5,0.4-0.7c0.2-0.2,0.4-0.3,0.6-0.5s0.5-0.2,0.7-0.3V656.1z M-325.3,656.1c-0.3,0.1-0.5,0.3-0.7,0.5
		c-0.2,0.2-0.2,0.5-0.2,0.8h0.9v2.1h-1.9v-2.1c0-0.3,0.1-0.6,0.2-0.8s0.2-0.5,0.4-0.7c0.2-0.2,0.4-0.3,0.6-0.5s0.5-0.2,0.7-0.3
		V656.1z"/>
	<path fill="#767777" d="M-322,662.5c0,0.4,0.1,0.8,0.2,1.1c0.1,0.3,0.3,0.5,0.6,0.7c0.3,0.2,0.5,0.3,0.9,0.4
		c0.3,0.1,0.7,0.1,1.1,0.1c0.4,0,0.8,0,1.1-0.1c0.3-0.1,0.5-0.2,0.7-0.4c0.2-0.2,0.3-0.3,0.4-0.5c0.1-0.2,0.1-0.4,0.1-0.6
		c0-0.4-0.1-0.7-0.3-0.9c-0.2-0.2-0.4-0.3-0.6-0.4c-0.4-0.1-0.8-0.3-1.4-0.4c-0.5-0.1-1.1-0.3-1.9-0.5c-0.5-0.1-0.9-0.3-1.2-0.5
		c-0.3-0.2-0.6-0.4-0.7-0.7c-0.2-0.2-0.3-0.5-0.4-0.8s-0.1-0.6-0.1-0.8c0-0.6,0.1-1,0.3-1.4c0.2-0.4,0.5-0.7,0.9-1
		c0.4-0.3,0.8-0.5,1.3-0.6c0.5-0.1,1-0.2,1.5-0.2c0.6,0,1.1,0.1,1.6,0.2c0.5,0.1,0.9,0.4,1.3,0.7c0.4,0.3,0.7,0.7,0.9,1.1
		c0.2,0.4,0.3,0.9,0.3,1.5h-1.9c-0.1-0.7-0.3-1.2-0.7-1.5c-0.4-0.3-1-0.4-1.6-0.4c-0.2,0-0.5,0-0.7,0.1c-0.2,0-0.4,0.1-0.6,0.2
		c-0.2,0.1-0.4,0.3-0.5,0.4s-0.2,0.4-0.2,0.7c0,0.4,0.1,0.7,0.4,0.9c0.2,0.2,0.6,0.4,0.9,0.5c0,0,0.2,0.1,0.5,0.1
		c0.3,0.1,0.6,0.2,0.9,0.3s0.7,0.2,1,0.3c0.3,0.1,0.6,0.2,0.7,0.2c0.4,0.1,0.7,0.3,0.9,0.5c0.3,0.2,0.5,0.4,0.7,0.7
		c0.2,0.3,0.3,0.5,0.4,0.8c0.1,0.3,0.1,0.6,0.1,0.9c0,0.6-0.1,1.1-0.4,1.6s-0.6,0.8-1,1.1s-0.9,0.5-1.4,0.6
		c-0.5,0.1-1.1,0.2-1.6,0.2c-0.6,0-1.2-0.1-1.8-0.2c-0.6-0.2-1-0.4-1.4-0.7c-0.4-0.3-0.7-0.7-1-1.2c-0.2-0.5-0.4-1.1-0.4-1.8H-322z"
		/>
	<path fill="#767777" d="M-312.2,662.6c0,0.3,0,0.6,0.1,0.9c0.1,0.3,0.2,0.5,0.4,0.8c0.2,0.2,0.4,0.4,0.7,0.5
		c0.3,0.1,0.6,0.2,0.9,0.2c0.5,0,0.9-0.1,1.2-0.3c0.3-0.2,0.5-0.5,0.7-1h1.7c-0.1,0.4-0.2,0.8-0.5,1.1c-0.2,0.3-0.5,0.6-0.8,0.8
		c-0.3,0.2-0.7,0.4-1.1,0.5c-0.4,0.1-0.8,0.2-1.2,0.2c-0.6,0-1.2-0.1-1.7-0.3c-0.5-0.2-0.9-0.5-1.2-0.9c-0.3-0.4-0.6-0.8-0.7-1.3
		c-0.2-0.5-0.3-1.1-0.3-1.7c0-0.6,0.1-1.1,0.3-1.6c0.2-0.5,0.4-0.9,0.8-1.3c0.3-0.4,0.7-0.7,1.2-0.9c0.5-0.2,1-0.3,1.6-0.3
		c0.6,0,1.2,0.1,1.7,0.4s0.9,0.6,1.2,1c0.3,0.4,0.6,0.9,0.7,1.5c0.1,0.6,0.2,1.1,0.1,1.7H-312.2z M-308.2,661.5
		c0-0.3-0.1-0.5-0.2-0.8c-0.1-0.3-0.2-0.5-0.4-0.7c-0.2-0.2-0.4-0.3-0.6-0.5s-0.5-0.2-0.8-0.2c-0.3,0-0.6,0.1-0.8,0.2
		c-0.2,0.1-0.5,0.3-0.6,0.4c-0.2,0.2-0.3,0.4-0.4,0.7c-0.1,0.3-0.2,0.5-0.2,0.8H-308.2z"/>
	<path fill="#767777" d="M-305.1,658.2h1.6v1.5h0c0.1-0.2,0.2-0.4,0.3-0.6c0.1-0.2,0.3-0.4,0.5-0.6c0.2-0.2,0.4-0.3,0.7-0.4
		c0.3-0.1,0.5-0.2,0.8-0.2c0.2,0,0.3,0,0.4,0c0.1,0,0.2,0,0.2,0v1.7c-0.1,0-0.2,0-0.4-0.1c-0.1,0-0.3,0-0.4,0
		c-0.3,0-0.6,0.1-0.8,0.2c-0.3,0.1-0.5,0.3-0.7,0.5s-0.3,0.5-0.5,0.8c-0.1,0.3-0.2,0.7-0.2,1.2v3.8h-1.7V658.2z"/>
	<path fill="#767777" d="M-300.5,658.2h1.9l2,6.1h0l1.9-6.1h1.8l-2.8,7.9h-2L-300.5,658.2z"/>
	<path fill="#767777" d="M-291.7,655.2h1.7v1.7h-1.7V655.2z M-291.7,658.2h1.7v7.9h-1.7V658.2z"/>
	<path fill="#767777" d="M-282.7,660.9c-0.1-0.5-0.3-0.9-0.6-1.1s-0.7-0.4-1.2-0.4c-0.2,0-0.5,0-0.7,0.1c-0.3,0.1-0.5,0.2-0.7,0.4
		c-0.2,0.2-0.4,0.5-0.5,0.9c-0.1,0.4-0.2,0.9-0.2,1.5c0,0.3,0,0.7,0.1,1c0.1,0.3,0.2,0.6,0.4,0.9c0.2,0.3,0.4,0.5,0.7,0.6
		c0.3,0.2,0.6,0.2,1,0.2c0.5,0,0.9-0.2,1.3-0.5c0.3-0.3,0.5-0.8,0.6-1.3h1.7c-0.2,1-0.6,1.8-1.2,2.4c-0.6,0.5-1.4,0.8-2.5,0.8
		c-0.6,0-1.2-0.1-1.6-0.3c-0.5-0.2-0.9-0.5-1.2-0.9c-0.3-0.4-0.6-0.8-0.7-1.3c-0.2-0.5-0.3-1-0.3-1.6c0-0.6,0.1-1.1,0.2-1.7
		s0.4-1,0.7-1.4c0.3-0.4,0.7-0.7,1.2-0.9c0.5-0.2,1.1-0.3,1.7-0.3c0.5,0,0.9,0.1,1.3,0.2s0.8,0.3,1.1,0.5c0.3,0.2,0.6,0.5,0.8,0.9
		c0.2,0.4,0.3,0.8,0.4,1.3H-282.7z"/>
	<path fill="#767777" d="M-278.2,662.6c0,0.3,0,0.6,0.1,0.9c0.1,0.3,0.2,0.5,0.4,0.8c0.2,0.2,0.4,0.4,0.7,0.5
		c0.3,0.1,0.6,0.2,0.9,0.2c0.5,0,0.9-0.1,1.2-0.3c0.3-0.2,0.5-0.5,0.7-1h1.7c-0.1,0.4-0.2,0.8-0.5,1.1c-0.2,0.3-0.5,0.6-0.8,0.8
		c-0.3,0.2-0.7,0.4-1.1,0.5c-0.4,0.1-0.8,0.2-1.2,0.2c-0.6,0-1.2-0.1-1.7-0.3c-0.5-0.2-0.9-0.5-1.2-0.9c-0.3-0.4-0.6-0.8-0.7-1.3
		c-0.2-0.5-0.3-1.1-0.3-1.7c0-0.6,0.1-1.1,0.3-1.6c0.2-0.5,0.4-0.9,0.8-1.3c0.3-0.4,0.7-0.7,1.2-0.9c0.5-0.2,1-0.3,1.6-0.3
		c0.6,0,1.2,0.1,1.7,0.4s0.9,0.6,1.2,1c0.3,0.4,0.6,0.9,0.7,1.5c0.1,0.6,0.2,1.1,0.1,1.7H-278.2z M-274.1,661.5
		c0-0.3-0.1-0.5-0.2-0.8c-0.1-0.3-0.2-0.5-0.4-0.7c-0.2-0.2-0.4-0.3-0.6-0.5s-0.5-0.2-0.8-0.2c-0.3,0-0.6,0.1-0.8,0.2
		c-0.2,0.1-0.5,0.3-0.6,0.4c-0.2,0.2-0.3,0.4-0.4,0.7c-0.1,0.3-0.2,0.5-0.2,0.8H-274.1z"/>
	<path fill="#767777" d="M-267.5,658.2h1.9l1.5,5.9h0l1.5-5.9h1.8l1.4,5.9h0l1.6-5.9h1.8l-2.5,7.9h-1.8l-1.5-5.9h0l-1.5,5.9h-1.8
		L-267.5,658.2z"/>
	<path fill="#767777" d="M-248.3,664.4c0,0.2,0,0.4,0.1,0.5c0.1,0.1,0.2,0.1,0.3,0.1c0.1,0,0.1,0,0.2,0s0.2,0,0.2,0v1.2
		c-0.1,0-0.1,0-0.2,0.1c-0.1,0-0.2,0-0.3,0.1c-0.1,0-0.2,0-0.3,0c-0.1,0-0.2,0-0.3,0c-0.4,0-0.7-0.1-0.9-0.2
		c-0.2-0.1-0.4-0.4-0.5-0.8c-0.3,0.3-0.8,0.6-1.3,0.7c-0.5,0.2-1,0.2-1.5,0.2c-0.4,0-0.7,0-1-0.1c-0.3-0.1-0.6-0.2-0.9-0.4
		c-0.2-0.2-0.4-0.4-0.6-0.7c-0.1-0.3-0.2-0.6-0.2-1c0-0.5,0.1-0.9,0.3-1.2c0.2-0.3,0.4-0.5,0.7-0.7c0.3-0.2,0.6-0.3,1-0.4
		c0.4-0.1,0.7-0.1,1.1-0.2c0.3-0.1,0.6-0.1,0.9-0.1c0.3,0,0.5-0.1,0.8-0.1c0.2-0.1,0.4-0.2,0.5-0.3c0.1-0.1,0.2-0.3,0.2-0.6
		c0-0.2-0.1-0.4-0.2-0.6s-0.2-0.3-0.4-0.3c-0.2-0.1-0.3-0.1-0.5-0.2s-0.4,0-0.6,0c-0.5,0-0.9,0.1-1.2,0.3s-0.5,0.5-0.5,0.9h-1.7
		c0-0.5,0.2-0.9,0.4-1.3c0.2-0.3,0.5-0.6,0.8-0.8s0.7-0.3,1.1-0.4c0.4-0.1,0.8-0.1,1.3-0.1c0.4,0,0.8,0,1.1,0.1
		c0.4,0.1,0.7,0.2,1,0.4s0.5,0.4,0.7,0.7c0.2,0.3,0.3,0.6,0.3,1.1V664.4z M-250,662.2c-0.3,0.2-0.6,0.3-1,0.3
		c-0.4,0-0.8,0.1-1.2,0.2c-0.2,0-0.4,0.1-0.5,0.1c-0.2,0.1-0.3,0.1-0.5,0.2c-0.1,0.1-0.2,0.2-0.3,0.4c-0.1,0.2-0.1,0.3-0.1,0.6
		c0,0.2,0.1,0.4,0.2,0.5s0.2,0.2,0.4,0.3s0.3,0.1,0.5,0.2c0.2,0,0.4,0,0.5,0c0.2,0,0.4,0,0.6-0.1c0.2-0.1,0.4-0.1,0.6-0.3
		c0.2-0.1,0.4-0.3,0.5-0.5s0.2-0.4,0.2-0.7V662.2z"/>
	<path fill="#767777" d="M-245.1,663.6c0.1,0.5,0.2,0.9,0.6,1.1s0.7,0.3,1.2,0.3c0.2,0,0.3,0,0.6,0c0.2,0,0.4-0.1,0.6-0.1
		c0.2-0.1,0.3-0.2,0.5-0.3s0.2-0.3,0.2-0.5c0-0.2-0.1-0.4-0.2-0.6c-0.2-0.1-0.3-0.3-0.6-0.3c-0.2-0.1-0.5-0.2-0.8-0.2
		c-0.3-0.1-0.6-0.1-0.9-0.2c-0.3-0.1-0.6-0.2-0.9-0.3c-0.3-0.1-0.6-0.2-0.8-0.4c-0.2-0.2-0.4-0.4-0.6-0.7c-0.1-0.3-0.2-0.6-0.2-1
		c0-0.4,0.1-0.8,0.3-1.1c0.2-0.3,0.5-0.5,0.8-0.7s0.7-0.3,1.1-0.4s0.8-0.1,1.1-0.1c0.4,0,0.8,0,1.2,0.1c0.4,0.1,0.7,0.2,1,0.4
		c0.3,0.2,0.6,0.4,0.7,0.8c0.2,0.3,0.3,0.7,0.4,1.1h-1.8c-0.1-0.4-0.3-0.7-0.6-0.8s-0.6-0.2-1-0.2c-0.1,0-0.3,0-0.4,0
		c-0.2,0-0.3,0.1-0.5,0.1c-0.1,0.1-0.3,0.1-0.4,0.2s-0.2,0.2-0.2,0.4c0,0.2,0.1,0.4,0.2,0.5c0.1,0.1,0.3,0.2,0.6,0.3
		c0.2,0.1,0.5,0.2,0.8,0.2c0.3,0.1,0.6,0.1,0.9,0.2c0.3,0.1,0.6,0.2,0.9,0.3c0.3,0.1,0.6,0.2,0.8,0.4c0.2,0.2,0.4,0.4,0.6,0.7
		c0.1,0.3,0.2,0.6,0.2,1c0,0.5-0.1,0.9-0.3,1.2c-0.2,0.3-0.5,0.6-0.8,0.8s-0.7,0.4-1.1,0.4c-0.4,0.1-0.8,0.1-1.2,0.1
		c-0.5,0-1-0.1-1.4-0.2c-0.4-0.1-0.8-0.3-1.1-0.5s-0.6-0.5-0.7-0.9s-0.3-0.7-0.3-1.2H-245.1z"/>
	<path fill="#767777" d="M-226.9,665.7c0,1.2-0.3,2.1-1,2.7c-0.7,0.6-1.6,0.9-2.9,0.9c-0.4,0-0.8,0-1.2-0.1
		c-0.4-0.1-0.8-0.2-1.1-0.4c-0.3-0.2-0.6-0.4-0.8-0.8c-0.2-0.3-0.4-0.7-0.4-1.2h1.7c0.1,0.2,0.1,0.4,0.3,0.6
		c0.1,0.2,0.3,0.3,0.4,0.4c0.2,0.1,0.4,0.1,0.6,0.2s0.4,0,0.6,0c0.7,0,1.2-0.2,1.5-0.5c0.3-0.3,0.5-0.8,0.5-1.5v-1.2h0
		c-0.2,0.4-0.6,0.8-1,1c-0.4,0.2-0.9,0.4-1.4,0.4c-0.6,0-1.2-0.1-1.6-0.3c-0.4-0.2-0.8-0.5-1.1-0.9s-0.5-0.8-0.6-1.3
		c-0.1-0.5-0.2-1-0.2-1.6c0-0.5,0.1-1,0.2-1.5s0.4-0.9,0.7-1.3c0.3-0.4,0.7-0.7,1.1-0.9c0.4-0.2,0.9-0.3,1.5-0.3
		c0.5,0,1,0.1,1.4,0.3c0.4,0.2,0.7,0.5,1,1h0v-1.1h1.7V665.7z M-230.8,664.7c0.4,0,0.7-0.1,1-0.2s0.5-0.4,0.7-0.6
		c0.2-0.3,0.3-0.6,0.4-0.9c0.1-0.3,0.1-0.7,0.1-1c0-0.3,0-0.7-0.1-1c-0.1-0.3-0.2-0.6-0.4-0.8c-0.2-0.2-0.4-0.4-0.7-0.6
		c-0.3-0.1-0.6-0.2-1-0.2c-0.4,0-0.7,0.1-1,0.2s-0.5,0.4-0.6,0.6c-0.2,0.3-0.3,0.6-0.4,0.9c-0.1,0.3-0.1,0.7-0.1,1
		c0,0.3,0,0.6,0.1,1c0.1,0.3,0.2,0.6,0.4,0.8c0.2,0.2,0.4,0.4,0.6,0.6C-231.4,664.7-231.1,664.7-230.8,664.7z"/>
	<path fill="#767777" d="M-225.1,658.2h1.6v1.5h0c0.1-0.2,0.2-0.4,0.3-0.6c0.1-0.2,0.3-0.4,0.5-0.6c0.2-0.2,0.4-0.3,0.7-0.4
		c0.3-0.1,0.5-0.2,0.8-0.2c0.2,0,0.3,0,0.4,0c0.1,0,0.2,0,0.2,0v1.7c-0.1,0-0.2,0-0.4-0.1c-0.1,0-0.3,0-0.4,0
		c-0.3,0-0.6,0.1-0.8,0.2c-0.3,0.1-0.5,0.3-0.7,0.5s-0.3,0.5-0.5,0.8c-0.1,0.3-0.2,0.7-0.2,1.2v3.8h-1.7V658.2z"/>
	<path fill="#767777" d="M-218.7,662.6c0,0.3,0,0.6,0.1,0.9c0.1,0.3,0.2,0.5,0.4,0.8c0.2,0.2,0.4,0.4,0.7,0.5
		c0.3,0.1,0.6,0.2,0.9,0.2c0.5,0,0.9-0.1,1.2-0.3c0.3-0.2,0.5-0.5,0.7-1h1.7c-0.1,0.4-0.2,0.8-0.5,1.1c-0.2,0.3-0.5,0.6-0.8,0.8
		c-0.3,0.2-0.7,0.4-1.1,0.5c-0.4,0.1-0.8,0.2-1.2,0.2c-0.6,0-1.2-0.1-1.7-0.3c-0.5-0.2-0.9-0.5-1.2-0.9c-0.3-0.4-0.6-0.8-0.7-1.3
		c-0.2-0.5-0.3-1.1-0.3-1.7c0-0.6,0.1-1.1,0.3-1.6c0.2-0.5,0.4-0.9,0.8-1.3c0.3-0.4,0.7-0.7,1.2-0.9c0.5-0.2,1-0.3,1.6-0.3
		c0.6,0,1.2,0.1,1.7,0.4s0.9,0.6,1.2,1c0.3,0.4,0.6,0.9,0.7,1.5c0.1,0.6,0.2,1.1,0.1,1.7H-218.7z M-214.6,661.5
		c0-0.3-0.1-0.5-0.2-0.8c-0.1-0.3-0.2-0.5-0.4-0.7c-0.2-0.2-0.4-0.3-0.6-0.5s-0.5-0.2-0.8-0.2c-0.3,0-0.6,0.1-0.8,0.2
		c-0.2,0.1-0.5,0.3-0.6,0.4c-0.2,0.2-0.3,0.4-0.4,0.7c-0.1,0.3-0.2,0.5-0.2,0.8H-214.6z"/>
	<path fill="#767777" d="M-204.9,664.4c0,0.2,0,0.4,0.1,0.5c0.1,0.1,0.2,0.1,0.3,0.1c0.1,0,0.1,0,0.2,0s0.2,0,0.2,0v1.2
		c-0.1,0-0.1,0-0.2,0.1c-0.1,0-0.2,0-0.3,0.1c-0.1,0-0.2,0-0.3,0c-0.1,0-0.2,0-0.3,0c-0.4,0-0.7-0.1-0.9-0.2
		c-0.2-0.1-0.4-0.4-0.5-0.8c-0.3,0.3-0.8,0.6-1.3,0.7c-0.5,0.2-1,0.2-1.5,0.2c-0.4,0-0.7,0-1-0.1c-0.3-0.1-0.6-0.2-0.9-0.4
		c-0.2-0.2-0.4-0.4-0.6-0.7c-0.1-0.3-0.2-0.6-0.2-1c0-0.5,0.1-0.9,0.3-1.2c0.2-0.3,0.4-0.5,0.7-0.7c0.3-0.2,0.6-0.3,1-0.4
		c0.4-0.1,0.7-0.1,1.1-0.2c0.3-0.1,0.6-0.1,0.9-0.1c0.3,0,0.5-0.1,0.8-0.1c0.2-0.1,0.4-0.2,0.5-0.3c0.1-0.1,0.2-0.3,0.2-0.6
		c0-0.2-0.1-0.4-0.2-0.6s-0.2-0.3-0.4-0.3c-0.2-0.1-0.3-0.1-0.5-0.2s-0.4,0-0.6,0c-0.5,0-0.9,0.1-1.2,0.3s-0.5,0.5-0.5,0.9h-1.7
		c0-0.5,0.2-0.9,0.4-1.3c0.2-0.3,0.5-0.6,0.8-0.8s0.7-0.3,1.1-0.4c0.4-0.1,0.8-0.1,1.3-0.1c0.4,0,0.8,0,1.1,0.1
		c0.4,0.1,0.7,0.2,1,0.4s0.5,0.4,0.7,0.7c0.2,0.3,0.3,0.6,0.3,1.1V664.4z M-206.6,662.2c-0.3,0.2-0.6,0.3-1,0.3
		c-0.4,0-0.8,0.1-1.2,0.2c-0.2,0-0.4,0.1-0.5,0.1c-0.2,0.1-0.3,0.1-0.5,0.2c-0.1,0.1-0.2,0.2-0.3,0.4c-0.1,0.2-0.1,0.3-0.1,0.6
		c0,0.2,0.1,0.4,0.2,0.5s0.2,0.2,0.4,0.3s0.3,0.1,0.5,0.2c0.2,0,0.4,0,0.5,0c0.2,0,0.4,0,0.6-0.1c0.2-0.1,0.4-0.1,0.6-0.3
		c0.2-0.1,0.4-0.3,0.5-0.5s0.2-0.4,0.2-0.7V662.2z"/>
	<path fill="#767777" d="M-203.8,658.2h1.3v-2.4h1.7v2.4h1.6v1.3h-1.6v4.2c0,0.2,0,0.3,0,0.5s0.1,0.2,0.1,0.3s0.1,0.2,0.3,0.2
		s0.3,0.1,0.5,0.1c0.1,0,0.2,0,0.4,0c0.1,0,0.2,0,0.4-0.1v1.3c-0.2,0-0.4,0-0.6,0.1s-0.4,0-0.6,0c-0.5,0-0.8,0-1.1-0.1
		c-0.3-0.1-0.5-0.2-0.7-0.4c-0.2-0.2-0.3-0.4-0.3-0.6c-0.1-0.3-0.1-0.5-0.1-0.9v-4.7h-1.3V658.2z"/>
	<path fill="#767777" d="M-197.7,664.2h2v1.9h-2V664.2z M-197.7,655.2h1.9v3.2l-0.5,4.7h-0.9l-0.5-4.7V655.2z"/>
	<path fill="#767777" d="M-193.7,658.6c0.3-0.1,0.6-0.3,0.7-0.5c0.2-0.2,0.2-0.5,0.2-0.8h-0.9v-2.1h1.9v2.1c0,0.3-0.1,0.6-0.2,0.8
		c-0.1,0.2-0.2,0.5-0.4,0.6s-0.4,0.4-0.6,0.5s-0.5,0.2-0.7,0.3V658.6z M-190.6,658.6c0.3-0.1,0.6-0.3,0.7-0.5
		c0.2-0.2,0.2-0.5,0.2-0.8h-0.9v-2.1h1.9v2.1c0,0.3-0.1,0.6-0.2,0.8c-0.1,0.2-0.2,0.5-0.4,0.6s-0.4,0.4-0.6,0.5s-0.5,0.2-0.7,0.3
		V658.6z"/>
</g>
</svg>
