<?xml version="1.0" encoding="utf-8"?>
<!-- Generator: Adobe Illustrator 18.1.1, SVG Export Plug-In . SVG Version: 6.00 Build 0)  -->
<svg version="1.1" id="Calque_2" xmlns="http://www.w3.org/2000/svg" xmlns:xlink="http://www.w3.org/1999/xlink" x="0px" y="0px"
	 width="640.7px" height="323.3px" viewBox="-422.2 378.5 640.7 323.3" enable-background="new -422.2 378.5 640.7 323.3"
	 xml:space="preserve">
<title>echo-dot</title>
<path fill="#FFFFFF" stroke="#C8C8C8" stroke-width="2.4901" stroke-linecap="round" stroke-linejoin="round" d="M-334.9,678.5
	c0,9.8,8,17.8,17.8,17.8h436.2c9.8,0,17.8-8,17.8-17.8l0,0V439.4h-471.8V678.5z M-203.7,439.4v256.8 M23.1,439.4v256.8"/>
<g transform="translate(257 93)">
	
		<ellipse fill="#BFF7DC" stroke="#28D18A" stroke-width="2.4901" stroke-linecap="round" stroke-linejoin="round" cx="-178" cy="390.2" rx="13.7" ry="14"/>
	<path fill="#BFF7DC" stroke="#28D18A" stroke-width="2.4901" stroke-linecap="round" stroke-linejoin="round" d="M-178,432.1
		c9.1,0,17.9-3.7,24.3-10.2c-4.3-13.4-18.5-20.8-31.9-16.5c-7.9,2.5-14,8.7-16.5,16.5C-195.7,428.4-187,432.1-178,432.1z"/>
</g>
<ellipse fill="none" stroke="#28D18A" stroke-width="2.4901" stroke-linecap="round" stroke-linejoin="round" cx="79" cy="490.2" rx="34.3" ry="34.9"/>
<path fill="#BFF7DC" stroke="#28D18A" stroke-width="2.4901" stroke-linecap="round" stroke-linejoin="round" d="M-120.5,466.5h105
	c4.9,0,8.8,4,8.8,8.8l0,0v5.8c0,4.9-4,8.8-8.8,8.8l0,0h-113.8v-14.6C-129.4,470.4-125.4,466.5-120.5,466.5L-120.5,466.5z"/>
<circle fill="#BFF7DC" stroke="#28D18A" stroke-width="2.4901" stroke-linecap="round" stroke-linejoin="round" cx="-156.7" cy="478.2" r="13.9"/>
<path fill="#BFF7DC" stroke="#28D18A" stroke-width="2.4901" stroke-linecap="round" stroke-linejoin="round" d="M-120.5,596.8h105
	c4.9,0,8.8,4,8.8,8.8l0,0v5.7c0,4.9-4,8.8-8.8,8.8l0,0h-113.8v-14.6C-129.4,600.7-125.4,596.8-120.5,596.8z"/>
<circle fill="#BFF7DC" stroke="#28D18A" stroke-width="2.4901" stroke-linecap="round" stroke-linejoin="round" cx="-156.7" cy="608.5" r="13.9"/>
<path fill="#C8C8C8" stroke="#969696" stroke-width="2.4901" stroke-linecap="round" stroke-linejoin="round" d="M-47.9,557.6
	h-113.8c-4.9,0-8.8-4-8.8-8.8l0,0v-5.8c0-4.9,4-8.8,8.8-8.8l0,0h105c4.9,0,8.8,4,8.8,8.8l0,0L-47.9,557.6L-47.9,557.6z"/>
<circle fill="#C8C8C8" stroke="#969696" stroke-width="2.4901" stroke-linecap="round" stroke-linejoin="round" cx="-20.6" cy="545.8" r="13.9"/>
<g transform="translate(37 82)">
	
		<ellipse fill="#C8C8C8" stroke="#969696" stroke-width="2.4901" stroke-linecap="round" stroke-linejoin="round" cx="-337.1" cy="385.9" rx="6.3" ry="6.5"/>
	<path fill="#C8C8C8" stroke="#969696" stroke-width="2.4901" stroke-linecap="round" stroke-linejoin="round" d="M-337.1,405.3
		c4.2,0,8.3-1.7,11.2-4.7c-2-6.2-8.6-9.6-14.8-7.7c-3.6,1.2-6.5,4-7.7,7.7C-345.3,403.6-341.3,405.3-337.1,405.3z"/>
</g>
<ellipse fill="none" stroke="#C8C8C8" stroke-width="2.4901" stroke-linecap="round" stroke-linejoin="round" cx="-300.1" cy="471.2" rx="15.9" ry="16.1"/>
<path fill="none" stroke="#C8C8C8" stroke-width="2.4901" stroke-linecap="round" stroke-linejoin="round" d="M-276.8,466.4h53.9"/>
<path fill="none" stroke="#969696" stroke-width="2.4901" stroke-linecap="round" stroke-linejoin="round" d="M-276.8,475.9h36.4"/>
<g transform="translate(37 114)">
	
		<ellipse fill="#C8C8C8" stroke="#969696" stroke-width="2.4901" stroke-linecap="round" stroke-linejoin="round" cx="-337.1" cy="406.1" rx="6.3" ry="6.5"/>
	<path fill="#C8C8C8" stroke="#969696" stroke-width="2.4901" stroke-linecap="round" stroke-linejoin="round" d="M-337.1,425.4
		c4.2,0,8.2-1.7,11.2-4.7c-2-6.2-8.6-9.6-14.8-7.7c-3.6,1.2-6.5,4-7.7,7.7C-345.3,423.7-341.3,425.4-337.1,425.4z"/>
</g>
<ellipse fill="none" stroke="#C8C8C8" stroke-width="2.4901" stroke-linecap="round" stroke-linejoin="round" cx="-300.1" cy="523.3" rx="15.9" ry="16.1"/>
<path fill="none" stroke="#C8C8C8" stroke-width="2.4901" stroke-linecap="round" stroke-linejoin="round" d="M-276.8,518.5h53.9
	 M-276.8,528.1h36.4"/>
<g transform="translate(37 145)">
	
		<ellipse fill="#C8C8C8" stroke="#969696" stroke-width="2.4901" stroke-linecap="round" stroke-linejoin="round" cx="-337.1" cy="427.2" rx="6.3" ry="6.5"/>
	<path fill="#C8C8C8" stroke="#969696" stroke-width="2.4901" stroke-linecap="round" stroke-linejoin="round" d="M-337.1,446.6
		c4.2,0,8.3-1.7,11.2-4.7c-2-6.2-8.6-9.6-14.8-7.7c-3.6,1.2-6.5,4-7.7,7.7C-345.3,444.9-341.3,446.6-337.1,446.6z"/>
</g>
<ellipse fill="none" stroke="#C8C8C8" stroke-width="2.4901" stroke-linecap="round" stroke-linejoin="round" cx="-300.1" cy="575.4" rx="15.9" ry="16.1"/>
<path fill="none" stroke="#C8C8C8" stroke-width="2.4901" stroke-linecap="round" stroke-linejoin="round" d="M-276.8,570.7h53.9"/>
<path fill="none" stroke="#969696" stroke-width="2.4901" stroke-linecap="round" stroke-linejoin="round" d="M-276.8,580.2h36.4"/>
<circle fill="#FFFFFF" cx="102.4" cy="520.8" r="8"/>
<circle fill="#FFFFFF" stroke="#C8C8C8" stroke-width="2.4901" stroke-linecap="round" stroke-linejoin="round" cx="102.4" cy="520.8" r="5"/>
<path fill="#C8C8C8" stroke="#969696" stroke-width="2.4901" stroke-linecap="round" stroke-linejoin="round" d="M-334.9,439.4
	v-39.3c0-8.1,6.6-14.7,14.7-14.7h442.4c8.1,0,14.7,6.6,14.7,14.7v39.3H-334.9z"/>
<path fill="#969696" d="M-301.9,420.1c-4.3,0-7.7-3.5-7.7-7.7c0-4.3,3.5-7.7,7.7-7.7c4.3,0,7.7,3.5,7.7,7.7
	C-294.2,416.6-297.7,420.1-301.9,420.1z M-273.2,420.1c-4.3,0-7.7-3.5-7.7-7.7c0-4.3,3.5-7.7,7.7-7.7s7.7,3.5,7.7,7.7
	C-265.5,416.6-268.9,420.1-273.2,420.1z M-244.5,420.1c-4.3,0-7.7-3.5-7.7-7.7c0-4.3,3.5-7.7,7.7-7.7c4.3,0,7.7,3.5,7.7,7.7
	C-236.8,416.6-240.2,420.1-244.5,420.1z"/>
</svg>
