<?xml version="1.0" encoding="utf-8"?>
<!-- Generator: Adobe Illustrator 18.1.1, SVG Export Plug-In . SVG Version: 6.00 Build 0)  -->
<svg version="1.1" id="Calque_2" xmlns="http://www.w3.org/2000/svg" xmlns:xlink="http://www.w3.org/1999/xlink" x="0px" y="0px"
	 width="640.7px" height="323.3px" viewBox="-422.2 378.5 640.7 323.3" enable-background="new -422.2 378.5 640.7 323.3"
	 xml:space="preserve">
<path fill="none" stroke="#C8C8C8" stroke-width="4" stroke-miterlimit="10" d="M79,696.8h-379c-9.9,0-18-8.1-18-18v-278
	c0-9.9,8.1-18,18-18H79c9.9,0,18,8.1,18,18v278C97,688.7,88.9,696.8,79,696.8z"/>
<title>echo-dot</title>
<rect x="-289.7" y="487.4" fill="#F5F5F5" width="351.7" height="43.5"/>
<path fill="#969696" d="M-265,501.6c-3-3.1-7.9-3.2-11-0.2c-3.1,3-3.2,7.9-0.2,11c2.6,2.7,6.8,3.2,9.9,1.1l5.6,5.8
	c0.1,0.2,0.4,0.2,0.5,0c0,0,0,0,0,0l1.4-1.3c0.2-0.1,0.2-0.4,0-0.5l0,0l-5.6-5.8C-262.1,508.5-262.4,504.3-265,501.6z M-266.7,511
	c-2.2,2.1-5.7,2.1-7.8-0.2c-2.1-2.2-2.1-5.7,0.2-7.8c2.2-2.1,5.7-2.1,7.8,0.2C-264.5,505.4-264.5,508.9-266.7,511L-266.7,511z"/>
<g>
	<path fill="#767777" d="M-285.6,403.1h6.2c1.2,0,2.2,0.2,3,0.6c0.8,0.4,1.5,0.9,2.1,1.6s0.9,1.5,1.2,2.4c0.3,0.9,0.4,1.9,0.4,2.9
		s-0.1,2-0.4,2.9s-0.7,1.7-1.2,2.4s-1.2,1.2-2.1,1.6c-0.8,0.4-1.8,0.6-3,0.6h-6.2V403.1z M-282.9,416h2.6c1,0,1.9-0.1,2.5-0.4
		c0.7-0.3,1.2-0.7,1.5-1.1c0.4-0.5,0.6-1.1,0.8-1.7c0.1-0.7,0.2-1.4,0.2-2.1c0-0.8-0.1-1.5-0.2-2.1c-0.1-0.7-0.4-1.2-0.8-1.7
		c-0.4-0.5-0.9-0.9-1.5-1.1s-1.5-0.4-2.5-0.4h-2.6V416z"/>
	<path fill="#767777" d="M-270.6,403.1h2.4v2.3h-2.4V403.1z M-270.6,407.2h2.4v10.9h-2.4V407.2z"/>
	<path fill="#767777" d="M-263.8,414.6c0.1,0.7,0.3,1.2,0.8,1.5s1,0.4,1.7,0.4c0.2,0,0.5,0,0.8-0.1c0.3,0,0.6-0.1,0.8-0.2
		s0.5-0.2,0.6-0.4c0.2-0.2,0.2-0.4,0.2-0.7s-0.1-0.6-0.3-0.8c-0.2-0.2-0.5-0.4-0.8-0.5c-0.3-0.1-0.7-0.2-1.1-0.3
		c-0.4-0.1-0.9-0.2-1.3-0.3c-0.4-0.1-0.9-0.2-1.3-0.4c-0.4-0.1-0.8-0.3-1.1-0.6c-0.3-0.2-0.6-0.5-0.8-0.9c-0.2-0.4-0.3-0.8-0.3-1.4
		c0-0.6,0.1-1.1,0.4-1.5s0.7-0.7,1.1-1s0.9-0.4,1.5-0.5c0.5-0.1,1.1-0.1,1.5-0.1c0.6,0,1.1,0.1,1.6,0.2c0.5,0.1,1,0.3,1.4,0.6
		c0.4,0.3,0.8,0.6,1,1c0.3,0.4,0.4,0.9,0.5,1.5h-2.5c-0.1-0.6-0.4-1-0.8-1.2c-0.4-0.2-0.9-0.3-1.4-0.3c-0.2,0-0.4,0-0.6,0
		s-0.4,0.1-0.7,0.2c-0.2,0.1-0.4,0.2-0.5,0.3c-0.1,0.1-0.2,0.3-0.2,0.6c0,0.3,0.1,0.5,0.3,0.7c0.2,0.2,0.5,0.3,0.8,0.5
		c0.3,0.1,0.7,0.2,1.1,0.3c0.4,0.1,0.9,0.2,1.3,0.3c0.4,0.1,0.9,0.2,1.3,0.4s0.8,0.3,1.1,0.6c0.3,0.2,0.6,0.5,0.8,0.9
		s0.3,0.8,0.3,1.3c0,0.6-0.1,1.2-0.4,1.6c-0.3,0.5-0.7,0.8-1.1,1.1c-0.5,0.3-1,0.5-1.6,0.6c-0.6,0.1-1.1,0.2-1.7,0.2
		c-0.7,0-1.3-0.1-1.9-0.2c-0.6-0.2-1.1-0.4-1.5-0.7c-0.4-0.3-0.8-0.7-1-1.2c-0.2-0.5-0.4-1-0.4-1.7H-263.8z"/>
	<path fill="#767777" d="M-254.6,407.2h2.3v1.5h0c0.3-0.6,0.8-1.1,1.4-1.4c0.6-0.3,1.3-0.4,2-0.4c0.9,0,1.6,0.2,2.2,0.5
		c0.6,0.3,1.2,0.7,1.6,1.2c0.4,0.5,0.7,1.1,0.9,1.8c0.2,0.7,0.3,1.5,0.3,2.3c0,0.7-0.1,1.4-0.3,2.1c-0.2,0.7-0.5,1.3-0.9,1.8
		s-0.9,0.9-1.5,1.3c-0.6,0.3-1.3,0.5-2.1,0.5c-0.4,0-0.7,0-1.1-0.1c-0.4-0.1-0.7-0.2-1-0.3c-0.3-0.1-0.6-0.3-0.9-0.5
		c-0.3-0.2-0.5-0.5-0.7-0.8h0v5.4h-2.4V407.2z M-246.2,412.7c0-0.5-0.1-1-0.2-1.4s-0.3-0.9-0.6-1.2s-0.6-0.6-0.9-0.9
		s-0.8-0.3-1.3-0.3c-1,0-1.8,0.4-2.3,1.1s-0.8,1.6-0.8,2.8c0,0.5,0.1,1.1,0.2,1.5c0.1,0.5,0.3,0.9,0.6,1.2c0.3,0.3,0.6,0.6,1,0.8
		c0.4,0.2,0.8,0.3,1.3,0.3c0.5,0,1-0.1,1.4-0.3c0.4-0.2,0.7-0.5,0.9-0.9c0.2-0.4,0.4-0.8,0.5-1.2
		C-246.3,413.6-246.2,413.2-246.2,412.7z"/>
	<path fill="#767777" d="M-232.6,415.7c0,0.3,0,0.5,0.1,0.6c0.1,0.1,0.2,0.2,0.5,0.2c0.1,0,0.2,0,0.3,0c0.1,0,0.2,0,0.3,0v1.7
		c-0.1,0-0.2,0.1-0.3,0.1s-0.3,0.1-0.4,0.1s-0.3,0-0.4,0.1c-0.1,0-0.3,0-0.4,0c-0.5,0-0.9-0.1-1.2-0.3c-0.3-0.2-0.5-0.5-0.6-1
		c-0.5,0.5-1.1,0.8-1.8,1c-0.7,0.2-1.4,0.3-2,0.3c-0.5,0-1-0.1-1.4-0.2c-0.5-0.1-0.8-0.3-1.2-0.6c-0.3-0.3-0.6-0.6-0.8-1
		c-0.2-0.4-0.3-0.9-0.3-1.4c0-0.7,0.1-1.2,0.4-1.6c0.2-0.4,0.6-0.8,1-1c0.4-0.2,0.9-0.4,1.3-0.5c0.5-0.1,1-0.2,1.5-0.2
		c0.4-0.1,0.9-0.1,1.2-0.2s0.7-0.1,1-0.2c0.3-0.1,0.5-0.2,0.7-0.4s0.3-0.4,0.3-0.8c0-0.3-0.1-0.6-0.2-0.8c-0.1-0.2-0.3-0.3-0.5-0.5
		c-0.2-0.1-0.5-0.2-0.7-0.2c-0.3,0-0.5-0.1-0.8-0.1c-0.7,0-1.2,0.1-1.7,0.4c-0.4,0.3-0.7,0.7-0.7,1.3h-2.4c0-0.7,0.2-1.3,0.5-1.8
		c0.3-0.5,0.7-0.8,1.1-1.1c0.5-0.3,1-0.5,1.5-0.6c0.6-0.1,1.2-0.2,1.8-0.2c0.5,0,1.1,0.1,1.6,0.2c0.5,0.1,1,0.3,1.4,0.5s0.7,0.6,1,1
		s0.4,0.9,0.4,1.5V415.7z M-235,412.7c-0.4,0.2-0.8,0.4-1.3,0.4c-0.5,0-1.1,0.1-1.6,0.2c-0.3,0-0.5,0.1-0.7,0.2
		c-0.2,0.1-0.4,0.2-0.6,0.3c-0.2,0.1-0.3,0.3-0.4,0.5c-0.1,0.2-0.2,0.5-0.2,0.8c0,0.3,0.1,0.5,0.2,0.7c0.2,0.2,0.3,0.3,0.6,0.4
		c0.2,0.1,0.5,0.2,0.7,0.2s0.5,0.1,0.7,0.1c0.3,0,0.6,0,0.9-0.1c0.3-0.1,0.6-0.2,0.9-0.4c0.3-0.2,0.5-0.4,0.7-0.6
		c0.2-0.3,0.3-0.6,0.3-1V412.7z"/>
	<path fill="#767777" d="M-231.1,407.2h1.8V404h2.4v3.3h2.2v1.8h-2.2v5.8c0,0.3,0,0.5,0,0.7s0.1,0.3,0.1,0.5s0.2,0.2,0.3,0.3
		c0.2,0.1,0.4,0.1,0.6,0.1c0.2,0,0.3,0,0.5,0c0.2,0,0.3,0,0.5-0.1v1.9c-0.3,0-0.5,0.1-0.8,0.1c-0.3,0-0.5,0-0.8,0
		c-0.6,0-1.1-0.1-1.5-0.2c-0.4-0.1-0.7-0.3-0.9-0.5c-0.2-0.2-0.4-0.5-0.4-0.9c-0.1-0.4-0.1-0.8-0.1-1.2V409h-1.8V407.2z"/>
	<path fill="#767777" d="M-215.7,410.9c-0.1-0.7-0.4-1.2-0.8-1.5c-0.4-0.3-1-0.5-1.7-0.5c-0.3,0-0.6,0.1-1,0.2
		c-0.4,0.1-0.7,0.3-1,0.6c-0.3,0.3-0.5,0.7-0.7,1.2c-0.2,0.5-0.3,1.2-0.3,2c0,0.5,0.1,0.9,0.2,1.3c0.1,0.5,0.3,0.9,0.5,1.2
		s0.5,0.6,0.9,0.9c0.4,0.2,0.8,0.3,1.3,0.3c0.7,0,1.3-0.2,1.7-0.7c0.5-0.4,0.7-1,0.9-1.8h2.4c-0.2,1.4-0.8,2.5-1.6,3.3
		c-0.9,0.8-2,1.1-3.4,1.1c-0.9,0-1.6-0.1-2.3-0.4c-0.7-0.3-1.2-0.7-1.7-1.2s-0.8-1.1-1-1.8s-0.3-1.4-0.3-2.2c0-0.8,0.1-1.6,0.3-2.3
		c0.2-0.7,0.6-1.3,1-1.9c0.4-0.5,1-0.9,1.7-1.2c0.7-0.3,1.5-0.5,2.4-0.5c0.6,0,1.2,0.1,1.8,0.2c0.6,0.2,1.1,0.4,1.5,0.7
		s0.8,0.7,1.1,1.2c0.3,0.5,0.4,1.1,0.5,1.8H-215.7z"/>
	<path fill="#767777" d="M-211.3,403.1h2.4v5.6h0c0.3-0.5,0.7-0.9,1.3-1.2c0.6-0.3,1.2-0.5,2-0.5c1.2,0,2.1,0.3,2.8,0.9
		c0.7,0.6,1,1.5,1,2.8v7.5h-2.4v-6.9c0-0.9-0.2-1.5-0.5-1.9s-0.9-0.6-1.6-0.6c-0.4,0-0.8,0.1-1.1,0.2s-0.6,0.4-0.8,0.6
		c-0.2,0.3-0.4,0.6-0.5,0.9s-0.2,0.7-0.2,1.1v6.4h-2.4V403.1z"/>
	<path fill="#767777" d="M-194.4,407.2h1.8V404h2.4v3.3h2.2v1.8h-2.2v5.8c0,0.3,0,0.5,0,0.7s0.1,0.3,0.1,0.5s0.2,0.2,0.3,0.3
		c0.2,0.1,0.4,0.1,0.6,0.1c0.2,0,0.3,0,0.5,0c0.2,0,0.3,0,0.5-0.1v1.9c-0.3,0-0.5,0.1-0.8,0.1c-0.3,0-0.5,0-0.8,0
		c-0.6,0-1.1-0.1-1.5-0.2c-0.4-0.1-0.7-0.3-0.9-0.5c-0.2-0.2-0.4-0.5-0.4-0.9c-0.1-0.4-0.1-0.8-0.1-1.2V409h-1.8V407.2z"/>
	<path fill="#767777" d="M-181.3,418.4c-0.9,0-1.6-0.1-2.3-0.4c-0.7-0.3-1.3-0.7-1.7-1.2c-0.5-0.5-0.8-1.1-1.1-1.8s-0.4-1.5-0.4-2.3
		c0-0.8,0.1-1.6,0.4-2.3c0.2-0.7,0.6-1.3,1.1-1.8c0.5-0.5,1-0.9,1.7-1.2c0.7-0.3,1.5-0.4,2.3-0.4c0.9,0,1.6,0.1,2.3,0.4
		c0.7,0.3,1.3,0.7,1.7,1.2c0.5,0.5,0.8,1.1,1.1,1.8c0.2,0.7,0.4,1.5,0.4,2.3c0,0.8-0.1,1.6-0.4,2.3c-0.2,0.7-0.6,1.3-1.1,1.8
		c-0.5,0.5-1,0.9-1.7,1.2S-180.4,418.4-181.3,418.4z M-181.3,416.5c0.5,0,1-0.1,1.4-0.3c0.4-0.2,0.7-0.5,1-0.9s0.4-0.8,0.6-1.2
		c0.1-0.5,0.2-0.9,0.2-1.4c0-0.5-0.1-0.9-0.2-1.4c-0.1-0.5-0.3-0.9-0.6-1.2c-0.3-0.4-0.6-0.7-1-0.9c-0.4-0.2-0.9-0.3-1.4-0.3
		c-0.5,0-1,0.1-1.4,0.3c-0.4,0.2-0.7,0.5-1,0.9c-0.3,0.4-0.4,0.8-0.6,1.2c-0.1,0.5-0.2,0.9-0.2,1.4c0,0.5,0.1,0.9,0.2,1.4
		c0.1,0.5,0.3,0.9,0.6,1.2s0.6,0.7,1,0.9C-182.3,416.4-181.9,416.5-181.3,416.5z"/>
	<path fill="#767777" d="M-173.6,407.5h2.9v2.8h-2.9V407.5z M-173.6,415.3h2.9v2.8h-2.9V415.3z"/>
</g>
<g>
	<path fill="#767777" d="M-241.1,511.7c0,0.5,0.1,0.9,0.2,1.2c0.2,0.3,0.4,0.6,0.7,0.8c0.3,0.2,0.6,0.4,1,0.5
		c0.4,0.1,0.8,0.1,1.2,0.1c0.5,0,0.9-0.1,1.2-0.2c0.3-0.1,0.6-0.2,0.8-0.4c0.2-0.2,0.4-0.4,0.4-0.6c0.1-0.2,0.1-0.4,0.1-0.7
		c0-0.5-0.1-0.8-0.3-1c-0.2-0.2-0.4-0.4-0.7-0.5c-0.4-0.2-0.9-0.3-1.5-0.5c-0.6-0.1-1.3-0.3-2.1-0.6c-0.5-0.1-1-0.3-1.3-0.5
		c-0.3-0.2-0.6-0.5-0.8-0.7s-0.4-0.6-0.4-0.9c-0.1-0.3-0.1-0.6-0.1-0.9c0-0.6,0.1-1.2,0.4-1.6c0.3-0.5,0.6-0.8,1-1.1
		c0.4-0.3,0.9-0.5,1.4-0.7s1.1-0.2,1.6-0.2c0.6,0,1.2,0.1,1.8,0.2c0.6,0.2,1.1,0.4,1.5,0.7s0.8,0.7,1,1.2s0.4,1,0.4,1.7h-2.1
		c-0.1-0.8-0.3-1.3-0.8-1.7c-0.5-0.3-1.1-0.5-1.8-0.5c-0.3,0-0.5,0-0.8,0.1s-0.5,0.1-0.7,0.3c-0.2,0.1-0.4,0.3-0.5,0.5
		s-0.2,0.5-0.2,0.8c0,0.4,0.1,0.8,0.4,1c0.3,0.2,0.6,0.4,1.1,0.6c0,0,0.2,0.1,0.5,0.1c0.3,0.1,0.7,0.2,1.1,0.3
		c0.4,0.1,0.8,0.2,1.1,0.3c0.4,0.1,0.6,0.2,0.8,0.2c0.4,0.1,0.7,0.3,1,0.5c0.3,0.2,0.5,0.5,0.7,0.7c0.2,0.3,0.3,0.6,0.4,0.9
		c0.1,0.3,0.1,0.6,0.1,1c0,0.7-0.1,1.3-0.4,1.8c-0.3,0.5-0.6,0.9-1.1,1.2c-0.5,0.3-1,0.5-1.6,0.7c-0.6,0.1-1.2,0.2-1.8,0.2
		c-0.7,0-1.4-0.1-2-0.3s-1.2-0.4-1.6-0.8c-0.5-0.4-0.8-0.8-1.1-1.4c-0.3-0.6-0.4-1.2-0.4-2H-241.1z"/>
	<path fill="#767777" d="M-230.2,511.8c0,0.3,0,0.7,0.1,1c0.1,0.3,0.2,0.6,0.4,0.8c0.2,0.2,0.4,0.4,0.7,0.6c0.3,0.1,0.7,0.2,1.1,0.2
		c0.6,0,1-0.1,1.4-0.4c0.3-0.2,0.6-0.6,0.8-1.1h1.9c-0.1,0.5-0.3,0.9-0.5,1.3c-0.3,0.4-0.6,0.7-0.9,1c-0.4,0.3-0.8,0.5-1.2,0.6
		c-0.4,0.1-0.9,0.2-1.4,0.2c-0.7,0-1.3-0.1-1.9-0.3s-1-0.5-1.4-1s-0.7-0.9-0.8-1.5c-0.2-0.6-0.3-1.2-0.3-1.9c0-0.6,0.1-1.2,0.3-1.8
		c0.2-0.6,0.5-1.1,0.9-1.5c0.4-0.4,0.8-0.8,1.3-1c0.5-0.3,1.1-0.4,1.8-0.4c0.7,0,1.3,0.1,1.9,0.4c0.6,0.3,1,0.7,1.4,1.2
		c0.4,0.5,0.6,1,0.8,1.7c0.2,0.6,0.2,1.3,0.1,1.9H-230.2z M-225.6,510.6c0-0.3-0.1-0.6-0.2-0.9c-0.1-0.3-0.3-0.5-0.4-0.7
		c-0.2-0.2-0.4-0.4-0.7-0.5c-0.3-0.1-0.6-0.2-0.9-0.2c-0.3,0-0.7,0.1-0.9,0.2s-0.5,0.3-0.7,0.5c-0.2,0.2-0.4,0.5-0.5,0.7
		s-0.2,0.6-0.2,0.9H-225.6z"/>
	<path fill="#767777" d="M-214.7,513.8c0,0.2,0,0.4,0.1,0.5c0.1,0.1,0.2,0.2,0.4,0.2c0.1,0,0.1,0,0.2,0c0.1,0,0.2,0,0.3,0v1.4
		c-0.1,0-0.2,0-0.3,0.1c-0.1,0-0.2,0.1-0.3,0.1c-0.1,0-0.2,0-0.3,0.1c-0.1,0-0.2,0-0.3,0c-0.4,0-0.7-0.1-1-0.2s-0.4-0.4-0.5-0.8
		c-0.4,0.4-0.9,0.7-1.4,0.8c-0.6,0.2-1.1,0.3-1.6,0.3c-0.4,0-0.8-0.1-1.1-0.2c-0.4-0.1-0.7-0.3-1-0.5c-0.3-0.2-0.5-0.5-0.7-0.8
		c-0.2-0.3-0.2-0.7-0.2-1.1c0-0.5,0.1-1,0.3-1.3c0.2-0.3,0.5-0.6,0.8-0.8c0.3-0.2,0.7-0.3,1.1-0.4s0.8-0.2,1.2-0.2
		c0.4-0.1,0.7-0.1,1-0.1c0.3,0,0.6-0.1,0.8-0.1c0.2-0.1,0.4-0.2,0.6-0.3c0.1-0.1,0.2-0.4,0.2-0.6c0-0.3-0.1-0.5-0.2-0.6
		s-0.3-0.3-0.4-0.4c-0.2-0.1-0.4-0.1-0.6-0.2c-0.2,0-0.4,0-0.6,0c-0.5,0-1,0.1-1.4,0.3c-0.4,0.2-0.6,0.6-0.6,1.1h-2
		c0-0.6,0.2-1,0.4-1.4c0.2-0.4,0.5-0.7,0.9-0.9c0.4-0.2,0.8-0.4,1.3-0.5s0.9-0.1,1.4-0.1c0.4,0,0.9,0,1.3,0.1
		c0.4,0.1,0.8,0.2,1.1,0.4c0.3,0.2,0.6,0.5,0.8,0.8c0.2,0.3,0.3,0.7,0.3,1.2V513.8z M-216.7,511.3c-0.3,0.2-0.7,0.3-1.1,0.4
		c-0.4,0-0.9,0.1-1.3,0.2c-0.2,0-0.4,0.1-0.6,0.1c-0.2,0.1-0.4,0.1-0.5,0.3c-0.1,0.1-0.3,0.3-0.4,0.4c-0.1,0.2-0.1,0.4-0.1,0.6
		c0,0.2,0.1,0.4,0.2,0.5s0.3,0.3,0.5,0.4s0.4,0.1,0.6,0.2c0.2,0,0.4,0.1,0.6,0.1c0.2,0,0.5,0,0.7-0.1c0.3-0.1,0.5-0.2,0.7-0.3
		c0.2-0.1,0.4-0.3,0.6-0.5s0.2-0.5,0.2-0.8V511.3z"/>
	<path fill="#767777" d="M-212.6,506.9h1.8v1.7h0c0.1-0.2,0.2-0.5,0.3-0.7c0.2-0.2,0.4-0.4,0.6-0.6s0.5-0.3,0.8-0.5
		c0.3-0.1,0.6-0.2,0.9-0.2c0.2,0,0.4,0,0.5,0c0.1,0,0.2,0,0.3,0v1.9c-0.1,0-0.3,0-0.4-0.1c-0.1,0-0.3,0-0.4,0
		c-0.3,0-0.6,0.1-0.9,0.2c-0.3,0.1-0.5,0.3-0.8,0.6c-0.2,0.3-0.4,0.6-0.5,1c-0.1,0.4-0.2,0.8-0.2,1.3v4.2h-2V506.9z"/>
	<path fill="#767777" d="M-200.9,509.9c-0.1-0.5-0.3-1-0.7-1.2c-0.4-0.3-0.8-0.4-1.4-0.4c-0.3,0-0.5,0-0.8,0.1
		c-0.3,0.1-0.5,0.2-0.8,0.5c-0.2,0.2-0.4,0.6-0.6,1c-0.2,0.4-0.2,1-0.2,1.6c0,0.4,0,0.7,0.1,1.1c0.1,0.4,0.2,0.7,0.4,1
		c0.2,0.3,0.4,0.5,0.7,0.7s0.7,0.3,1.1,0.3c0.6,0,1-0.2,1.4-0.5s0.6-0.9,0.7-1.5h2c-0.2,1.2-0.6,2-1.3,2.7c-0.7,0.6-1.6,0.9-2.8,0.9
		c-0.7,0-1.3-0.1-1.8-0.4s-1-0.6-1.3-1c-0.4-0.4-0.6-0.9-0.8-1.4c-0.2-0.6-0.3-1.2-0.3-1.8c0-0.7,0.1-1.3,0.3-1.9
		c0.2-0.6,0.5-1.1,0.8-1.5c0.4-0.4,0.8-0.8,1.4-1c0.5-0.2,1.2-0.4,1.9-0.4c0.5,0,1,0.1,1.5,0.2c0.5,0.1,0.9,0.3,1.2,0.6
		c0.4,0.3,0.7,0.6,0.9,1c0.2,0.4,0.4,0.9,0.4,1.4H-200.9z"/>
	<path fill="#767777" d="M-197.4,503.5h2v4.5h0c0.2-0.4,0.6-0.7,1.1-1s1-0.4,1.6-0.4c1,0,1.7,0.3,2.3,0.8c0.6,0.5,0.8,1.3,0.8,2.3
		v6.1h-2v-5.6c0-0.7-0.2-1.2-0.4-1.5s-0.7-0.5-1.3-0.5c-0.3,0-0.6,0.1-0.9,0.2c-0.3,0.1-0.5,0.3-0.7,0.5c-0.2,0.2-0.3,0.5-0.4,0.7
		c-0.1,0.3-0.2,0.6-0.2,0.9v5.2h-2V503.5z"/>
</g>
<g>
	<path fill="#767777" d="M-241.1,462c0,0.5,0.1,0.9,0.2,1.2c0.2,0.3,0.4,0.6,0.7,0.8c0.3,0.2,0.6,0.4,1,0.5c0.4,0.1,0.8,0.1,1.2,0.1
		c0.5,0,0.9-0.1,1.2-0.2c0.3-0.1,0.6-0.2,0.8-0.4c0.2-0.2,0.4-0.4,0.4-0.6c0.1-0.2,0.1-0.4,0.1-0.7c0-0.5-0.1-0.8-0.3-1
		c-0.2-0.2-0.4-0.4-0.7-0.5c-0.4-0.2-0.9-0.3-1.5-0.5c-0.6-0.1-1.3-0.3-2.1-0.6c-0.5-0.1-1-0.3-1.3-0.5c-0.3-0.2-0.6-0.5-0.8-0.7
		s-0.4-0.6-0.4-0.9c-0.1-0.3-0.1-0.6-0.1-0.9c0-0.6,0.1-1.2,0.4-1.6c0.3-0.5,0.6-0.8,1-1.1c0.4-0.3,0.9-0.5,1.4-0.7s1.1-0.2,1.6-0.2
		c0.6,0,1.2,0.1,1.8,0.2c0.6,0.2,1.1,0.4,1.5,0.7s0.8,0.7,1,1.2s0.4,1,0.4,1.7h-2.1c-0.1-0.8-0.3-1.3-0.8-1.7
		c-0.5-0.3-1.1-0.5-1.8-0.5c-0.3,0-0.5,0-0.8,0.1s-0.5,0.1-0.7,0.3c-0.2,0.1-0.4,0.3-0.5,0.5s-0.2,0.5-0.2,0.8c0,0.4,0.1,0.8,0.4,1
		c0.3,0.2,0.6,0.4,1.1,0.6c0,0,0.2,0.1,0.5,0.1c0.3,0.1,0.7,0.2,1.1,0.3c0.4,0.1,0.8,0.2,1.1,0.3c0.4,0.1,0.6,0.2,0.8,0.2
		c0.4,0.1,0.7,0.3,1,0.5c0.3,0.2,0.5,0.5,0.7,0.7c0.2,0.3,0.3,0.6,0.4,0.9c0.1,0.3,0.1,0.6,0.1,1c0,0.7-0.1,1.3-0.4,1.8
		c-0.3,0.5-0.6,0.9-1.1,1.2c-0.5,0.3-1,0.5-1.6,0.7c-0.6,0.1-1.2,0.2-1.8,0.2c-0.7,0-1.4-0.1-2-0.3s-1.2-0.4-1.6-0.8
		c-0.5-0.4-0.8-0.8-1.1-1.4c-0.3-0.6-0.4-1.2-0.4-2H-241.1z"/>
	<path fill="#767777" d="M-230.2,462.1c0,0.3,0,0.7,0.1,1c0.1,0.3,0.2,0.6,0.4,0.8c0.2,0.2,0.4,0.4,0.7,0.6c0.3,0.1,0.7,0.2,1.1,0.2
		c0.6,0,1-0.1,1.4-0.4c0.3-0.2,0.6-0.6,0.8-1.1h1.9c-0.1,0.5-0.3,0.9-0.5,1.3c-0.3,0.4-0.6,0.7-0.9,1c-0.4,0.3-0.8,0.5-1.2,0.6
		c-0.4,0.1-0.9,0.2-1.4,0.2c-0.7,0-1.3-0.1-1.9-0.3s-1-0.5-1.4-1s-0.7-0.9-0.8-1.5c-0.2-0.6-0.3-1.2-0.3-1.9c0-0.6,0.1-1.2,0.3-1.8
		c0.2-0.6,0.5-1.1,0.9-1.5c0.4-0.4,0.8-0.8,1.3-1c0.5-0.3,1.1-0.4,1.8-0.4c0.7,0,1.3,0.1,1.9,0.4c0.6,0.3,1,0.7,1.4,1.2
		c0.4,0.5,0.6,1,0.8,1.7c0.2,0.6,0.2,1.3,0.1,1.9H-230.2z M-225.6,460.9c0-0.3-0.1-0.6-0.2-0.9c-0.1-0.3-0.3-0.5-0.4-0.7
		c-0.2-0.2-0.4-0.4-0.7-0.5c-0.3-0.1-0.6-0.2-0.9-0.2c-0.3,0-0.7,0.1-0.9,0.2s-0.5,0.3-0.7,0.5c-0.2,0.2-0.4,0.5-0.5,0.7
		s-0.2,0.6-0.2,0.9H-225.6z"/>
	<path fill="#767777" d="M-222.1,453.8h2v12.2h-2V453.8z"/>
	<path fill="#767777" d="M-216.5,462.1c0,0.3,0,0.7,0.1,1c0.1,0.3,0.2,0.6,0.4,0.8c0.2,0.2,0.4,0.4,0.7,0.6c0.3,0.1,0.7,0.2,1.1,0.2
		c0.6,0,1-0.1,1.4-0.4c0.3-0.2,0.6-0.6,0.8-1.1h1.9c-0.1,0.5-0.3,0.9-0.5,1.3c-0.3,0.4-0.6,0.7-0.9,1c-0.4,0.3-0.8,0.5-1.2,0.6
		c-0.4,0.1-0.9,0.2-1.4,0.2c-0.7,0-1.3-0.1-1.9-0.3s-1-0.5-1.4-1s-0.7-0.9-0.8-1.5c-0.2-0.6-0.3-1.2-0.3-1.9c0-0.6,0.1-1.2,0.3-1.8
		c0.2-0.6,0.5-1.1,0.9-1.5c0.4-0.4,0.8-0.8,1.3-1c0.5-0.3,1.1-0.4,1.8-0.4c0.7,0,1.3,0.1,1.9,0.4c0.6,0.3,1,0.7,1.4,1.2
		c0.4,0.5,0.6,1,0.8,1.7c0.2,0.6,0.2,1.3,0.1,1.9H-216.5z M-211.9,460.9c0-0.3-0.1-0.6-0.2-0.9c-0.1-0.3-0.3-0.5-0.4-0.7
		c-0.2-0.2-0.4-0.4-0.7-0.5c-0.3-0.1-0.6-0.2-0.9-0.2c-0.3,0-0.7,0.1-0.9,0.2s-0.5,0.3-0.7,0.5c-0.2,0.2-0.4,0.5-0.5,0.7
		s-0.2,0.6-0.2,0.9H-211.9z"/>
	<path fill="#767777" d="M-202.5,460.2c-0.1-0.5-0.3-1-0.7-1.2c-0.4-0.3-0.8-0.4-1.4-0.4c-0.3,0-0.5,0-0.8,0.1
		c-0.3,0.1-0.5,0.2-0.8,0.5c-0.2,0.2-0.4,0.6-0.6,1c-0.2,0.4-0.2,1-0.2,1.6c0,0.4,0,0.7,0.1,1.1c0.1,0.4,0.2,0.7,0.4,1
		c0.2,0.3,0.4,0.5,0.7,0.7s0.7,0.3,1.1,0.3c0.6,0,1-0.2,1.4-0.5s0.6-0.9,0.7-1.5h2c-0.2,1.2-0.6,2-1.3,2.7c-0.7,0.6-1.6,0.9-2.8,0.9
		c-0.7,0-1.3-0.1-1.8-0.4s-1-0.6-1.3-1c-0.4-0.4-0.6-0.9-0.8-1.4c-0.2-0.6-0.3-1.2-0.3-1.8c0-0.7,0.1-1.3,0.3-1.9
		c0.2-0.6,0.5-1.1,0.8-1.5c0.4-0.4,0.8-0.8,1.4-1c0.5-0.2,1.2-0.4,1.9-0.4c0.5,0,1,0.1,1.5,0.2c0.5,0.1,0.9,0.3,1.2,0.6
		c0.4,0.3,0.7,0.6,0.9,1c0.2,0.4,0.4,0.9,0.4,1.4H-202.5z"/>
	<path fill="#767777" d="M-199.8,457.2h1.5v-2.7h2v2.7h1.8v1.5h-1.8v4.7c0,0.2,0,0.4,0,0.5c0,0.1,0.1,0.3,0.1,0.4
		c0.1,0.1,0.2,0.2,0.3,0.2s0.3,0.1,0.5,0.1c0.1,0,0.3,0,0.4,0s0.3,0,0.4-0.1v1.5c-0.2,0-0.4,0-0.6,0.1c-0.2,0-0.4,0-0.6,0
		c-0.5,0-0.9,0-1.2-0.1c-0.3-0.1-0.6-0.2-0.7-0.4c-0.2-0.2-0.3-0.4-0.4-0.7c-0.1-0.3-0.1-0.6-0.1-1v-5.2h-1.5V457.2z"/>
	<path fill="#767777" d="M-184.9,453.8h2.3l4.7,12.2h-2.3l-1.1-3.2h-4.9l-1.1,3.2h-2.2L-184.9,453.8z M-185.7,461.2h3.7l-1.8-5.3
		h-0.1L-185.7,461.2z"/>
	<path fill="#767777" d="M-177,453.8h2v12.2h-2V453.8z"/>
	<path fill="#767777" d="M-172.8,453.8h2v12.2h-2V453.8z"/>
</g>
<g>
	<path fill="#767777" d="M-239.3,555.9h2.3l4.7,12.2h-2.3l-1.1-3.2h-4.9l-1.1,3.2h-2.2L-239.3,555.9z M-240,563.2h3.7l-1.8-5.3h-0.1
		L-240,563.2z"/>
	<path fill="#767777" d="M-231.1,555.9h6c1.1,0,2,0.3,2.6,0.8c0.7,0.5,1,1.3,1,2.3c0,0.6-0.2,1.1-0.5,1.6c-0.3,0.4-0.7,0.8-1.3,1v0
		c0.8,0.2,1.3,0.5,1.7,1.1c0.4,0.6,0.6,1.2,0.6,2.1c0,0.5-0.1,0.9-0.3,1.3c-0.2,0.4-0.4,0.8-0.8,1.1c-0.4,0.3-0.8,0.5-1.4,0.7
		c-0.6,0.2-1.3,0.3-2,0.3h-5.6V555.9z M-228.9,561h3.5c0.5,0,0.9-0.1,1.3-0.4c0.3-0.3,0.5-0.7,0.5-1.3c0-0.6-0.2-1.1-0.5-1.3
		c-0.3-0.3-0.8-0.4-1.3-0.4h-3.5V561z M-228.9,566.4h3.8c0.7,0,1.2-0.2,1.5-0.5c0.4-0.3,0.5-0.8,0.5-1.4c0-0.6-0.2-1.1-0.5-1.4
		c-0.4-0.3-0.9-0.5-1.5-0.5h-3.8V566.4z"/>
	<path fill="#767777" d="M-210.7,559.8c-0.1-0.4-0.2-0.7-0.4-1c-0.2-0.3-0.4-0.6-0.6-0.8c-0.3-0.2-0.5-0.4-0.9-0.5s-0.7-0.2-1.2-0.2
		c-0.7,0-1.2,0.1-1.7,0.4c-0.5,0.3-0.9,0.6-1.2,1.1c-0.3,0.4-0.5,0.9-0.7,1.5s-0.2,1.1-0.2,1.7c0,0.6,0.1,1.2,0.2,1.7
		s0.4,1.1,0.7,1.5c0.3,0.4,0.7,0.8,1.2,1.1c0.5,0.3,1,0.4,1.7,0.4c0.5,0,0.9-0.1,1.3-0.2c0.4-0.2,0.7-0.4,0.9-0.7
		c0.3-0.3,0.5-0.6,0.6-1c0.1-0.4,0.2-0.8,0.3-1.3h2.1c0,0.7-0.2,1.4-0.5,2c-0.3,0.6-0.6,1.1-1.1,1.6c-0.5,0.4-1,0.8-1.6,1
		c-0.6,0.2-1.3,0.4-2,0.4c-0.9,0-1.7-0.2-2.5-0.5c-0.7-0.3-1.3-0.8-1.8-1.4c-0.5-0.6-0.9-1.3-1.2-2c-0.3-0.8-0.4-1.6-0.4-2.5
		c0-0.9,0.1-1.7,0.4-2.5c0.3-0.8,0.7-1.5,1.2-2c0.5-0.6,1.1-1,1.8-1.4s1.5-0.5,2.5-0.5c0.7,0,1.3,0.1,1.9,0.3
		c0.6,0.2,1.1,0.5,1.6,0.8c0.5,0.4,0.8,0.8,1.1,1.3s0.5,1.1,0.5,1.8H-210.7z"/>
	<path fill="#767777" d="M-201.9,555.9h5.4c0.9,0,1.6,0.1,2.1,0.4c0.5,0.3,1,0.6,1.3,0.9c0.3,0.4,0.5,0.8,0.6,1.2s0.2,0.9,0.2,1.2
		c0,0.4-0.1,0.8-0.2,1.2c-0.1,0.4-0.3,0.8-0.6,1.2c-0.3,0.4-0.7,0.7-1.3,0.9c-0.5,0.2-1.3,0.4-2.1,0.4h-3.3v4.7h-2.1V555.9z
		 M-199.7,561.7h3.1c0.2,0,0.5,0,0.7-0.1c0.3-0.1,0.5-0.2,0.7-0.3c0.2-0.2,0.4-0.4,0.5-0.6c0.1-0.3,0.2-0.6,0.2-1
		c0-0.4-0.1-0.7-0.2-1c-0.1-0.3-0.3-0.5-0.5-0.6s-0.4-0.3-0.7-0.3c-0.3-0.1-0.5-0.1-0.8-0.1h-3.2V561.7z"/>
	<path fill="#767777" d="M-190.6,555.9h2v12.2h-2V555.9z"/>
	<path fill="#767777" d="M-178.8,568.1h-1.9v-1.2h0c-0.2,0.4-0.6,0.8-1.1,1.1s-1,0.4-1.4,0.4c-1.2,0-2-0.3-2.5-0.9s-0.8-1.4-0.8-2.6
		v-5.6h2v5.4c0,0.8,0.1,1.3,0.4,1.6c0.3,0.3,0.7,0.5,1.3,0.5c0.4,0,0.8-0.1,1-0.2s0.5-0.3,0.7-0.5s0.3-0.5,0.4-0.8
		c0.1-0.3,0.1-0.6,0.1-1v-5.1h2V568.1z"/>
	<path fill="#767777" d="M-176.7,559.2h1.9v1.2h0.1c0.1-0.2,0.3-0.4,0.5-0.6c0.2-0.2,0.4-0.3,0.6-0.5c0.2-0.1,0.5-0.2,0.7-0.3
		c0.3-0.1,0.6-0.1,0.9-0.1c0.5,0,1,0.1,1.5,0.4c0.5,0.2,0.8,0.6,1,1.1c0.3-0.5,0.7-0.8,1.1-1.1c0.4-0.3,1-0.4,1.6-0.4
		c0.9,0,1.7,0.2,2.2,0.7s0.8,1.2,0.8,2.3v6.1h-2v-5.2c0-0.4,0-0.7,0-1c0-0.3-0.1-0.5-0.2-0.8c-0.1-0.2-0.3-0.4-0.5-0.5
		c-0.2-0.1-0.5-0.2-0.9-0.2c-0.7,0-1.1,0.2-1.4,0.6c-0.3,0.4-0.4,1-0.4,1.8v5.2h-2v-5.7c0-0.6-0.1-1.1-0.3-1.4s-0.6-0.5-1.2-0.5
		c-0.3,0-0.5,0.1-0.7,0.2s-0.4,0.3-0.6,0.4s-0.3,0.4-0.4,0.7c-0.1,0.3-0.2,0.6-0.2,1v5.3h-2V559.2z"/>
	<path fill="#767777" d="M-161.7,555.9h2v4.5h0c0.1-0.2,0.3-0.4,0.5-0.6c0.2-0.2,0.4-0.3,0.6-0.4s0.5-0.2,0.7-0.3s0.5-0.1,0.8-0.1
		c0.7,0,1.3,0.1,1.8,0.4s1,0.6,1.3,1c0.3,0.4,0.6,0.9,0.8,1.5c0.2,0.6,0.3,1.2,0.3,1.8c0,0.6-0.1,1.2-0.2,1.7
		c-0.2,0.6-0.4,1.1-0.7,1.5c-0.3,0.4-0.7,0.8-1.2,1c-0.5,0.3-1,0.4-1.7,0.4c-0.3,0-0.6,0-0.9-0.1c-0.3,0-0.6-0.1-0.9-0.2
		s-0.5-0.3-0.7-0.4c-0.2-0.2-0.4-0.4-0.6-0.7h0v1.2h-1.9V555.9z M-154.9,563.7c0-0.4-0.1-0.8-0.2-1.2c-0.1-0.4-0.3-0.7-0.5-1
		c-0.2-0.3-0.5-0.5-0.8-0.7c-0.3-0.2-0.7-0.3-1.1-0.3c-0.8,0-1.4,0.3-1.9,0.9c-0.4,0.6-0.6,1.3-0.6,2.3c0,0.4,0.1,0.9,0.2,1.2
		c0.1,0.4,0.3,0.7,0.5,1s0.5,0.5,0.8,0.7c0.3,0.2,0.7,0.2,1.1,0.2c0.4,0,0.8-0.1,1.1-0.3c0.3-0.2,0.6-0.4,0.8-0.7
		c0.2-0.3,0.3-0.6,0.4-1C-155,564.5-154.9,564.1-154.9,563.7z"/>
	<path fill="#767777" d="M-151.3,555.9h2v1.9h-2V555.9z M-151.3,559.2h2v8.9h-2V559.2z"/>
	<path fill="#767777" d="M-147.2,559.2h1.9v1.3l0,0c0.3-0.5,0.7-0.9,1.2-1.2c0.5-0.3,1-0.4,1.6-0.4c1,0,1.7,0.3,2.3,0.8
		c0.6,0.5,0.8,1.3,0.8,2.3v6.1h-2v-5.6c0-0.7-0.2-1.2-0.4-1.5s-0.7-0.5-1.3-0.5c-0.3,0-0.6,0.1-0.9,0.2c-0.3,0.1-0.5,0.3-0.7,0.5
		c-0.2,0.2-0.3,0.5-0.4,0.7c-0.1,0.3-0.2,0.6-0.2,0.9v5.2h-2V559.2z"/>
	<path fill="#767777" d="M-129.1,567.7c0,1.3-0.4,2.3-1.1,3c-0.7,0.7-1.8,1-3.2,1c-0.4,0-0.9,0-1.3-0.1s-0.9-0.2-1.2-0.5
		c-0.4-0.2-0.7-0.5-0.9-0.9s-0.4-0.8-0.4-1.3h2c0.1,0.3,0.2,0.5,0.3,0.7s0.3,0.3,0.5,0.4c0.2,0.1,0.4,0.2,0.6,0.2c0.2,0,0.5,0,0.7,0
		c0.8,0,1.4-0.2,1.7-0.6c0.4-0.4,0.5-1,0.5-1.7v-1.4h0c-0.3,0.5-0.6,0.9-1.1,1.1c-0.5,0.3-1,0.4-1.5,0.4c-0.7,0-1.3-0.1-1.8-0.4
		c-0.5-0.2-0.9-0.6-1.2-1c-0.3-0.4-0.6-0.9-0.7-1.5s-0.2-1.2-0.2-1.8c0-0.6,0.1-1.2,0.3-1.7c0.2-0.5,0.4-1,0.8-1.4
		c0.3-0.4,0.8-0.7,1.3-1c0.5-0.2,1.1-0.4,1.7-0.4c0.6,0,1.1,0.1,1.5,0.4s0.8,0.6,1.1,1.1h0v-1.2h2V567.7z M-133.5,566.6
		c0.4,0,0.8-0.1,1.1-0.3c0.3-0.2,0.5-0.4,0.7-0.7c0.2-0.3,0.3-0.6,0.4-1c0.1-0.4,0.1-0.7,0.1-1.1c0-0.4,0-0.7-0.1-1.1
		c-0.1-0.4-0.2-0.7-0.4-0.9c-0.2-0.3-0.4-0.5-0.7-0.7c-0.3-0.2-0.7-0.2-1.1-0.2c-0.4,0-0.8,0.1-1.1,0.3c-0.3,0.2-0.5,0.4-0.7,0.7
		c-0.2,0.3-0.3,0.6-0.4,1c-0.1,0.4-0.1,0.7-0.1,1.1s0,0.7,0.1,1.1c0.1,0.3,0.2,0.7,0.4,0.9s0.4,0.5,0.7,0.7
		C-134.2,566.5-133.9,566.6-133.5,566.6z"/>
</g>
<path fill="none" stroke="#28D18A" stroke-width="2.3262" stroke-miterlimit="10" d="M-267.5,473.7h-9.4c-4.6,0-8.4-3.8-8.4-8.4
	v-9.4c0-4.6,3.8-8.4,8.4-8.4h9.4c4.6,0,8.4,3.8,8.4,8.4v9.4C-259.2,469.9-262.9,473.7-267.5,473.7z"/>
<path fill="#28D18A" stroke="#28D18A" stroke-width="2.3262" stroke-miterlimit="10" d="M-267.5,574.5h-9.4c-4.6,0-8.4-3.8-8.4-8.4
	v-9.4c0-4.6,3.8-8.4,8.4-8.4h9.4c4.6,0,8.4,3.8,8.4,8.4v9.4C-259.2,570.8-262.9,574.5-267.5,574.5z"/>
<g>
	<path fill="#767777" d="M-243.6,608.2h2.6l2.8,4.3l2.9-4.3h2.4l-4,5.9l4.3,6.3h-2.6l-3.1-4.7l-3.1,4.7h-2.5l4.3-6.3L-243.6,608.2z"
		/>
	<path fill="#767777" d="M-228.2,615.7l-4.6-7.4h2.5l3.2,5.5l3.2-5.5h2.4l-4.6,7.4v4.8h-2.1V615.7z"/>
	<path fill="#767777" d="M-220.7,608.2h9.3v1.6l-7.1,8.8h7.3v1.9h-10v-1.8l7.1-8.6h-6.6V608.2z"/>
	<path fill="#767777" d="M-204.7,608.2h5.4c0.9,0,1.6,0.1,2.1,0.4c0.5,0.3,1,0.6,1.3,0.9c0.3,0.4,0.5,0.8,0.6,1.2s0.2,0.9,0.2,1.2
		c0,0.4-0.1,0.8-0.2,1.2c-0.1,0.4-0.3,0.8-0.6,1.2c-0.3,0.4-0.7,0.7-1.3,0.9c-0.5,0.2-1.3,0.4-2.1,0.4h-3.3v4.7h-2.1V608.2z
		 M-202.6,614h3.1c0.2,0,0.5,0,0.7-0.1c0.3-0.1,0.5-0.2,0.7-0.3c0.2-0.2,0.4-0.4,0.5-0.6c0.1-0.3,0.2-0.6,0.2-1c0-0.4-0.1-0.7-0.2-1
		c-0.1-0.3-0.3-0.5-0.5-0.6s-0.4-0.3-0.7-0.3c-0.3-0.1-0.5-0.1-0.8-0.1h-3.2V614z"/>
	<path fill="#767777" d="M-193.5,608.2h2v12.2h-2V608.2z"/>
	<path fill="#767777" d="M-181.6,620.5h-1.9v-1.2h0c-0.2,0.4-0.6,0.8-1.1,1.1s-1,0.4-1.4,0.4c-1.2,0-2-0.3-2.5-0.9s-0.8-1.4-0.8-2.6
		v-5.6h2v5.4c0,0.8,0.1,1.3,0.4,1.6c0.3,0.3,0.7,0.5,1.3,0.5c0.4,0,0.8-0.1,1-0.2s0.5-0.3,0.7-0.5s0.3-0.5,0.4-0.8
		c0.1-0.3,0.1-0.6,0.1-1v-5.1h2V620.5z"/>
	<path fill="#767777" d="M-179.6,611.6h1.9v1.2h0.1c0.1-0.2,0.3-0.4,0.5-0.6c0.2-0.2,0.4-0.3,0.6-0.5c0.2-0.1,0.5-0.2,0.7-0.3
		c0.3-0.1,0.6-0.1,0.9-0.1c0.5,0,1,0.1,1.5,0.4c0.5,0.2,0.8,0.6,1,1.1c0.3-0.5,0.7-0.8,1.1-1.1c0.4-0.3,1-0.4,1.6-0.4
		c0.9,0,1.7,0.2,2.2,0.7s0.8,1.2,0.8,2.3v6.1h-2v-5.2c0-0.4,0-0.7,0-1c0-0.3-0.1-0.5-0.2-0.8c-0.1-0.2-0.3-0.4-0.5-0.5
		c-0.2-0.1-0.5-0.2-0.9-0.2c-0.7,0-1.1,0.2-1.4,0.6c-0.3,0.4-0.4,1-0.4,1.8v5.2h-2v-5.7c0-0.6-0.1-1.1-0.3-1.4s-0.6-0.5-1.2-0.5
		c-0.3,0-0.5,0.1-0.7,0.2s-0.4,0.3-0.6,0.4s-0.3,0.4-0.4,0.7c-0.1,0.3-0.2,0.6-0.2,1v5.3h-2V611.6z"/>
	<path fill="#767777" d="M-164.6,608.2h2v4.5h0c0.1-0.2,0.3-0.4,0.5-0.6c0.2-0.2,0.4-0.3,0.6-0.4s0.5-0.2,0.7-0.3s0.5-0.1,0.8-0.1
		c0.7,0,1.3,0.1,1.8,0.4s1,0.6,1.3,1c0.3,0.4,0.6,0.9,0.8,1.5c0.2,0.6,0.3,1.2,0.3,1.8c0,0.6-0.1,1.2-0.2,1.7
		c-0.2,0.6-0.4,1.1-0.7,1.5c-0.3,0.4-0.7,0.8-1.2,1c-0.5,0.3-1,0.4-1.7,0.4c-0.3,0-0.6,0-0.9-0.1c-0.3,0-0.6-0.1-0.9-0.2
		s-0.5-0.3-0.7-0.4c-0.2-0.2-0.4-0.4-0.6-0.7h0v1.2h-1.9V608.2z M-157.8,616.1c0-0.4-0.1-0.8-0.2-1.2c-0.1-0.4-0.3-0.7-0.5-1
		c-0.2-0.3-0.5-0.5-0.8-0.7c-0.3-0.2-0.7-0.3-1.1-0.3c-0.8,0-1.4,0.3-1.9,0.9c-0.4,0.6-0.6,1.3-0.6,2.3c0,0.4,0.1,0.9,0.2,1.2
		c0.1,0.4,0.3,0.7,0.5,1s0.5,0.5,0.8,0.7c0.3,0.2,0.7,0.2,1.1,0.2c0.4,0,0.8-0.1,1.1-0.3c0.3-0.2,0.6-0.4,0.8-0.7
		c0.2-0.3,0.3-0.6,0.4-1C-157.8,616.8-157.8,616.5-157.8,616.1z"/>
	<path fill="#767777" d="M-154.1,608.2h2v1.9h-2V608.2z M-154.1,611.6h2v8.9h-2V611.6z"/>
	<path fill="#767777" d="M-150,611.6h1.9v1.3l0,0c0.3-0.5,0.7-0.9,1.2-1.2c0.5-0.3,1-0.4,1.6-0.4c1,0,1.7,0.3,2.3,0.8
		c0.6,0.5,0.8,1.3,0.8,2.3v6.1h-2v-5.6c0-0.7-0.2-1.2-0.4-1.5s-0.7-0.5-1.3-0.5c-0.3,0-0.6,0.1-0.9,0.2c-0.3,0.1-0.5,0.3-0.7,0.5
		c-0.2,0.2-0.3,0.5-0.4,0.7c-0.1,0.3-0.2,0.6-0.2,0.9v5.2h-2V611.6z"/>
	<path fill="#767777" d="M-132,620c0,1.3-0.4,2.3-1.1,3c-0.7,0.7-1.8,1-3.2,1c-0.4,0-0.9,0-1.3-0.1s-0.9-0.2-1.2-0.5
		c-0.4-0.2-0.7-0.5-0.9-0.9s-0.4-0.8-0.4-1.3h2c0.1,0.3,0.2,0.5,0.3,0.7s0.3,0.3,0.5,0.4c0.2,0.1,0.4,0.2,0.6,0.2c0.2,0,0.5,0,0.7,0
		c0.8,0,1.4-0.2,1.7-0.6c0.4-0.4,0.5-1,0.5-1.7v-1.4h0c-0.3,0.5-0.6,0.9-1.1,1.1c-0.5,0.3-1,0.4-1.5,0.4c-0.7,0-1.3-0.1-1.8-0.4
		c-0.5-0.2-0.9-0.6-1.2-1c-0.3-0.4-0.6-0.9-0.7-1.5s-0.2-1.2-0.2-1.8c0-0.6,0.1-1.2,0.3-1.7c0.2-0.5,0.4-1,0.8-1.4
		c0.3-0.4,0.8-0.7,1.3-1c0.5-0.2,1.1-0.4,1.7-0.4c0.6,0,1.1,0.1,1.5,0.4s0.8,0.6,1.1,1.1h0v-1.2h2V620z M-136.3,618.9
		c0.4,0,0.8-0.1,1.1-0.3c0.3-0.2,0.5-0.4,0.7-0.7c0.2-0.3,0.3-0.6,0.4-1c0.1-0.4,0.1-0.7,0.1-1.1c0-0.4,0-0.7-0.1-1.1
		c-0.1-0.4-0.2-0.7-0.4-0.9c-0.2-0.3-0.4-0.5-0.7-0.7c-0.3-0.2-0.7-0.2-1.1-0.2c-0.4,0-0.8,0.1-1.1,0.3c-0.3,0.2-0.5,0.4-0.7,0.7
		c-0.2,0.3-0.3,0.6-0.4,1c-0.1,0.4-0.1,0.7-0.1,1.1s0,0.7,0.1,1.1c0.1,0.3,0.2,0.7,0.4,0.9s0.4,0.5,0.7,0.7
		C-137.1,618.9-136.7,618.9-136.3,618.9z"/>
</g>
<path fill="none" stroke="#28D18A" stroke-width="2.3262" stroke-miterlimit="10" d="M-267.5,626.9h-9.4c-4.6,0-8.4-3.8-8.4-8.4
	v-9.4c0-4.6,3.8-8.4,8.4-8.4h9.4c4.6,0,8.4,3.8,8.4,8.4v9.4C-259.2,623.1-262.9,626.9-267.5,626.9z"/>
<g>
	<path fill="#767777" d="M-235,672.9h-8.2c0-1,0.3-1.9,0.7-2.6s1.1-1.4,1.9-1.9c0.4-0.3,0.8-0.6,1.2-0.8c0.4-0.3,0.8-0.6,1.2-0.9
		c0.4-0.3,0.6-0.6,0.9-1c0.2-0.4,0.3-0.8,0.4-1.2c0-0.2,0-0.4-0.1-0.7c-0.1-0.2-0.2-0.5-0.3-0.7c-0.1-0.2-0.4-0.4-0.6-0.5
		c-0.3-0.1-0.6-0.2-1-0.2c-0.4,0-0.7,0.1-1,0.2s-0.5,0.4-0.6,0.6c-0.2,0.3-0.3,0.6-0.3,1c-0.1,0.4-0.1,0.8-0.1,1.2h-2
		c0-0.7,0.1-1.3,0.3-1.8s0.4-1.1,0.8-1.5c0.4-0.4,0.8-0.7,1.3-1s1.1-0.4,1.8-0.4c0.7,0,1.3,0.1,1.8,0.4c0.5,0.2,0.9,0.5,1.2,0.9
		c0.3,0.4,0.5,0.8,0.6,1.2c0.1,0.4,0.2,0.8,0.2,1.2c0,0.5-0.1,0.9-0.2,1.3s-0.3,0.7-0.6,1.1c-0.3,0.3-0.5,0.6-0.9,0.9
		s-0.7,0.5-1,0.8c-0.3,0.2-0.7,0.5-1,0.7c-0.3,0.2-0.7,0.4-1,0.7c-0.3,0.2-0.5,0.4-0.8,0.7s-0.4,0.5-0.4,0.7h5.8V672.9z"/>
	<path fill="#767777" d="M-225.3,670h-1.5v2.8h-1.9V670h-5.1v-1.9l5.1-7.2h1.9v7.6h1.5V670z M-232.4,668.5h3.6v-5.3h0L-232.4,668.5z
		"/>
	<path fill="#767777" d="M-218.7,660.6h2.1v4.9h5.6v-4.9h2.1v12.2h-2.1v-5.5h-5.6v5.5h-2.1V660.6z"/>
	<path fill="#767777" d="M-202.5,673.1c-0.7,0-1.3-0.1-1.9-0.4c-0.6-0.2-1-0.6-1.4-1c-0.4-0.4-0.7-0.9-0.9-1.5s-0.3-1.2-0.3-1.9
		c0-0.7,0.1-1.3,0.3-1.9c0.2-0.6,0.5-1.1,0.9-1.5c0.4-0.4,0.9-0.7,1.4-1c0.6-0.2,1.2-0.4,1.9-0.4s1.3,0.1,1.9,0.4s1,0.6,1.4,1
		c0.4,0.4,0.7,0.9,0.9,1.5c0.2,0.6,0.3,1.2,0.3,1.9c0,0.7-0.1,1.3-0.3,1.9s-0.5,1.1-0.9,1.5c-0.4,0.4-0.9,0.7-1.4,1
		S-201.8,673.1-202.5,673.1z M-202.5,671.6c0.4,0,0.8-0.1,1.1-0.3c0.3-0.2,0.6-0.4,0.8-0.7c0.2-0.3,0.4-0.6,0.5-1
		c0.1-0.4,0.1-0.8,0.1-1.1c0-0.4,0-0.8-0.1-1.1c-0.1-0.4-0.2-0.7-0.5-1c-0.2-0.3-0.5-0.5-0.8-0.7c-0.3-0.2-0.7-0.3-1.1-0.3
		s-0.8,0.1-1.1,0.3c-0.3,0.2-0.6,0.4-0.8,0.7c-0.2,0.3-0.4,0.6-0.5,1c-0.1,0.4-0.1,0.8-0.1,1.1c0,0.4,0,0.8,0.1,1.1
		c0.1,0.4,0.2,0.7,0.5,1c0.2,0.3,0.5,0.5,0.8,0.7C-203.3,671.5-202.9,671.6-202.5,671.6z"/>
	<path fill="#767777" d="M-188.6,672.9h-1.9v-1.2h0c-0.2,0.4-0.6,0.8-1.1,1.1s-1,0.4-1.4,0.4c-1.2,0-2-0.3-2.5-0.9s-0.8-1.4-0.8-2.6
		V664h2v5.4c0,0.8,0.1,1.3,0.4,1.6c0.3,0.3,0.7,0.5,1.3,0.5c0.4,0,0.8-0.1,1-0.2s0.5-0.3,0.7-0.5s0.3-0.5,0.4-0.8
		c0.1-0.3,0.1-0.6,0.1-1V664h2V672.9z"/>
	<path fill="#767777" d="M-186.6,664h1.8v1.7h0c0.1-0.2,0.2-0.5,0.3-0.7c0.2-0.2,0.4-0.4,0.6-0.6s0.5-0.3,0.8-0.5
		c0.3-0.1,0.6-0.2,0.9-0.2c0.2,0,0.4,0,0.5,0c0.1,0,0.2,0,0.3,0v1.9c-0.1,0-0.3,0-0.4-0.1c-0.1,0-0.3,0-0.4,0
		c-0.3,0-0.6,0.1-0.9,0.2c-0.3,0.1-0.5,0.3-0.8,0.6c-0.2,0.3-0.4,0.6-0.5,1c-0.1,0.4-0.2,0.8-0.2,1.3v4.2h-2V664z"/>
	<path fill="#767777" d="M-175.5,660.6h5.4c0.9,0,1.6,0.1,2.1,0.4c0.5,0.3,1,0.6,1.3,0.9c0.3,0.4,0.5,0.8,0.6,1.2s0.2,0.9,0.2,1.2
		c0,0.4-0.1,0.8-0.2,1.2c-0.1,0.4-0.3,0.8-0.6,1.2c-0.3,0.4-0.7,0.7-1.3,0.9c-0.5,0.2-1.3,0.4-2.1,0.4h-3.3v4.7h-2.1V660.6z
		 M-173.3,666.4h3.1c0.2,0,0.5,0,0.7-0.1c0.3-0.1,0.5-0.2,0.7-0.3c0.2-0.2,0.4-0.4,0.5-0.6c0.1-0.3,0.2-0.6,0.2-1
		c0-0.4-0.1-0.7-0.2-1c-0.1-0.3-0.3-0.5-0.5-0.6s-0.4-0.3-0.7-0.3c-0.3-0.1-0.5-0.1-0.8-0.1h-3.2V666.4z"/>
	<path fill="#767777" d="M-164.3,660.6h2v12.2h-2V660.6z"/>
	<path fill="#767777" d="M-152.4,672.9h-1.9v-1.2h0c-0.2,0.4-0.6,0.8-1.1,1.1s-1,0.4-1.4,0.4c-1.2,0-2-0.3-2.5-0.9s-0.8-1.4-0.8-2.6
		V664h2v5.4c0,0.8,0.1,1.3,0.4,1.6c0.3,0.3,0.7,0.5,1.3,0.5c0.4,0,0.8-0.1,1-0.2s0.5-0.3,0.7-0.5s0.3-0.5,0.4-0.8
		c0.1-0.3,0.1-0.6,0.1-1V664h2V672.9z"/>
	<path fill="#767777" d="M-150.3,664h1.9v1.2h0.1c0.1-0.2,0.3-0.4,0.5-0.6c0.2-0.2,0.4-0.3,0.6-0.5c0.2-0.1,0.5-0.2,0.7-0.3
		c0.3-0.1,0.6-0.1,0.9-0.1c0.5,0,1,0.1,1.5,0.4c0.5,0.2,0.8,0.6,1,1.1c0.3-0.5,0.7-0.8,1.1-1.1c0.4-0.3,1-0.4,1.6-0.4
		c0.9,0,1.7,0.2,2.2,0.7s0.8,1.2,0.8,2.3v6.1h-2v-5.2c0-0.4,0-0.7,0-1c0-0.3-0.1-0.5-0.2-0.8c-0.1-0.2-0.3-0.4-0.5-0.5
		c-0.2-0.1-0.5-0.2-0.9-0.2c-0.7,0-1.1,0.2-1.4,0.6c-0.3,0.4-0.4,1-0.4,1.8v5.2h-2v-5.7c0-0.6-0.1-1.1-0.3-1.4s-0.6-0.5-1.2-0.5
		c-0.3,0-0.5,0.1-0.7,0.2s-0.4,0.3-0.6,0.4s-0.3,0.4-0.4,0.7c-0.1,0.3-0.2,0.6-0.2,1v5.3h-2V664z"/>
	<path fill="#767777" d="M-135.4,660.6h2v4.5h0c0.1-0.2,0.3-0.4,0.5-0.6c0.2-0.2,0.4-0.3,0.6-0.4s0.5-0.2,0.7-0.3s0.5-0.1,0.8-0.1
		c0.7,0,1.3,0.1,1.8,0.4s1,0.6,1.3,1c0.3,0.4,0.6,0.9,0.8,1.5c0.2,0.6,0.3,1.2,0.3,1.8c0,0.6-0.1,1.2-0.2,1.7
		c-0.2,0.6-0.4,1.1-0.7,1.5c-0.3,0.4-0.7,0.8-1.2,1c-0.5,0.3-1,0.4-1.7,0.4c-0.3,0-0.6,0-0.9-0.1c-0.3,0-0.6-0.1-0.9-0.2
		s-0.5-0.3-0.7-0.4c-0.2-0.2-0.4-0.4-0.6-0.7h0v1.2h-1.9V660.6z M-128.5,668.4c0-0.4-0.1-0.8-0.2-1.2c-0.1-0.4-0.3-0.7-0.5-1
		c-0.2-0.3-0.5-0.5-0.8-0.7c-0.3-0.2-0.7-0.3-1.1-0.3c-0.8,0-1.4,0.3-1.9,0.9c-0.4,0.6-0.6,1.3-0.6,2.3c0,0.4,0.1,0.9,0.2,1.2
		c0.1,0.4,0.3,0.7,0.5,1s0.5,0.5,0.8,0.7c0.3,0.2,0.7,0.2,1.1,0.2c0.4,0,0.8-0.1,1.1-0.3c0.3-0.2,0.6-0.4,0.8-0.7
		c0.2-0.3,0.3-0.6,0.4-1C-128.6,669.2-128.5,668.8-128.5,668.4z"/>
	<path fill="#767777" d="M-124.9,660.6h2v1.9h-2V660.6z M-124.9,664h2v8.9h-2V664z"/>
	<path fill="#767777" d="M-120.8,664h1.9v1.3l0,0c0.3-0.5,0.7-0.9,1.2-1.2c0.5-0.3,1-0.4,1.6-0.4c1,0,1.7,0.3,2.3,0.8
		c0.6,0.5,0.8,1.3,0.8,2.3v6.1h-2v-5.6c0-0.7-0.2-1.2-0.4-1.5s-0.7-0.5-1.3-0.5c-0.3,0-0.6,0.1-0.9,0.2c-0.3,0.1-0.5,0.3-0.7,0.5
		c-0.2,0.2-0.3,0.5-0.4,0.7c-0.1,0.3-0.2,0.6-0.2,0.9v5.2h-2V664z"/>
	<path fill="#767777" d="M-102.8,672.4c0,1.3-0.4,2.3-1.1,3c-0.8,0.7-1.8,1-3.2,1c-0.4,0-0.9,0-1.3-0.1c-0.5-0.1-0.9-0.2-1.2-0.5
		c-0.4-0.2-0.7-0.5-0.9-0.9s-0.4-0.8-0.4-1.3h2c0.1,0.3,0.2,0.5,0.3,0.7c0.1,0.2,0.3,0.3,0.5,0.4c0.2,0.1,0.4,0.2,0.6,0.2
		c0.2,0,0.5,0,0.7,0c0.8,0,1.4-0.2,1.7-0.6c0.4-0.4,0.5-1,0.5-1.7v-1.4h0c-0.3,0.5-0.6,0.9-1.1,1.1s-1,0.4-1.5,0.4
		c-0.7,0-1.3-0.1-1.8-0.4c-0.5-0.2-0.9-0.6-1.2-1c-0.3-0.4-0.6-0.9-0.7-1.5s-0.2-1.2-0.2-1.8c0-0.6,0.1-1.2,0.3-1.7
		c0.2-0.5,0.4-1,0.8-1.4c0.3-0.4,0.8-0.7,1.3-1s1.1-0.4,1.7-0.4c0.6,0,1.1,0.1,1.5,0.4s0.8,0.6,1.1,1.1h0V664h2V672.4z
		 M-107.1,671.3c0.4,0,0.8-0.1,1.1-0.3c0.3-0.2,0.5-0.4,0.7-0.7c0.2-0.3,0.3-0.6,0.4-1c0.1-0.4,0.1-0.7,0.1-1.1c0-0.4,0-0.7-0.1-1.1
		c-0.1-0.4-0.2-0.7-0.4-0.9s-0.4-0.5-0.7-0.7c-0.3-0.2-0.7-0.2-1.1-0.2c-0.4,0-0.8,0.1-1.1,0.3c-0.3,0.2-0.5,0.4-0.7,0.7
		s-0.3,0.6-0.4,1c-0.1,0.4-0.1,0.7-0.1,1.1s0,0.7,0.1,1.1c0.1,0.3,0.2,0.7,0.4,0.9s0.4,0.5,0.7,0.7
		C-107.9,671.2-107.5,671.3-107.1,671.3z"/>
</g>
<path fill="#28D18A" stroke="#28D18A" stroke-width="2.3262" stroke-miterlimit="10" d="M-267.5,679.3h-9.4c-4.6,0-8.4-3.8-8.4-8.4
	v-9.4c0-4.6,3.8-8.4,8.4-8.4h9.4c4.6,0,8.4,3.8,8.4,8.4v9.4C-259.2,675.5-262.9,679.3-267.5,679.3z"/>
<path fill="#FFFFFF" d="M-274.2,569.7l12.5-12.5c0.4-0.4,0.4-1.1,0-1.5c0,0,0,0,0,0l-1.5-1.5c-0.4-0.4-1.1-0.4-1.5,0c0,0,0,0,0,0
	l-10.2,10.2l-4.8-4.8c-0.4-0.4-1.1-0.4-1.5,0l-1.5,1.6c-0.4,0.4-0.4,1.1,0,1.5l7.1,7.1C-275.3,570.1-274.6,570.1-274.2,569.7
	C-274.2,569.7-274.2,569.7-274.2,569.7L-274.2,569.7z"/>
<path fill="#FFFFFF" d="M-274.2,675l12.5-12.5c0.4-0.4,0.4-1.1,0-1.5c0,0,0,0,0,0l-1.5-1.5c-0.4-0.4-1.1-0.4-1.5,0c0,0,0,0,0,0
	l-10.2,10.2l-4.8-4.8c-0.4-0.4-1.1-0.4-1.5,0l-1.5,1.6c-0.4,0.4-0.4,1.1,0,1.5l7.1,7.1C-275.3,675.4-274.6,675.4-274.2,675
	C-274.2,675-274.2,675-274.2,675L-274.2,675z"/>
<polyline fill="none" stroke="#969696" stroke-width="1.4895" stroke-miterlimit="10" points="38.5,406.4 50.2,418.1 62,406.4 "/>
</svg>
