<?xml version="1.0" encoding="utf-8"?>
<!-- Generator: Adobe Illustrator 18.1.1, SVG Export Plug-In . SVG Version: 6.00 Build 0)  -->
<svg version="1.1" id="Calque_2" xmlns="http://www.w3.org/2000/svg" xmlns:xlink="http://www.w3.org/1999/xlink" x="0px" y="0px"
	 viewBox="-422.2 378.5 640.7 323.3" enable-background="new -422.2 378.5 640.7 323.3" xml:space="preserve">
<polygon fill="#FFFFFF" points="214.3,701.8 53,701.8 -102.9,701.8 -258.7,701.8 -417.9,701.8 -417.9,677.6 -416.7,662 
	-392.4,639.8 -352.8,605.4 -258.5,605.5 -102.9,606.9 52.9,605.4 158.2,605.4 190.1,638.3 213.6,663.3 214.3,677.8 "/>
<path opacity="0.19" fill="#646464" d="M110.9,701.8h96.8h6.6v-5.8v-22.5v-4.7c0.7-2.4,0.1-5.1-1.6-6.8l-50.8-53.5
	c-1.3-1.3-3.1-3.2-4.9-3.2h-509.8c-1.7,0-3.3,1.6-4.6,2.7l-58.4,52.9c-1.7,1.5-2.2,4.3-2,6.6v-0.2v6.2v22.5v5.8h6.6h101.9
	 M-352.8,612.3h509.8l50.8,55.1h-619L-352.8,612.3z M-295.6,701.8H97.1 M207.4,694.9h-620.1v-20.7h1.4h618.7V694.9z"/>
<title>echo-dot</title>
<g>
	<path fill="#FFFFFF" stroke="#646464" stroke-width="3.3255" stroke-miterlimit="10" d="M-150.7,398.2c0-7.8,22.6-14.1,50.4-14.1
		s50.4,6.3,50.4,14.1v234.5c0,7.8-22.6,14.1-50.4,14.1s-50.4-6.3-50.4-14.1L-150.7,398.2L-150.7,398.2z"/>
	<path fill="#FFFFFF" stroke="#646464" stroke-width="3.3255" stroke-miterlimit="10" d="M-150.7,399.5c0-7.8,22.6-14.1,50.4-14.1
		s50.4,6.3,50.4,14.1v14.1c0,7.8-22.6,14.1-50.4,14.1s-50.4-6.3-50.4-14.1L-150.7,399.5L-150.7,399.5z"/>
	<linearGradient id="SVGID_1_" gradientUnits="userSpaceOnUse" x1="-150.6793" y1="398.2268" x2="-49.7934" y2="398.2268">
		<stop  offset="0" style="stop-color:#4982FF"/>
		<stop  offset="0.13" style="stop-color:#2C9CCD"/>
		<stop  offset="0.24" style="stop-color:#2FBBBE"/>
		<stop  offset="0.34" style="stop-color:#32D1B4"/>
		<stop  offset="0.44" style="stop-color:#33DEAD"/>
		<stop  offset="0.53" style="stop-color:#34E3AB"/>
		<stop  offset="0.6" style="stop-color:#33D9B0"/>
		<stop  offset="0.72" style="stop-color:#30BFBC"/>
		<stop  offset="0.88" style="stop-color:#4982FF"/>
		<stop  offset="1" style="stop-color:#4982FF"/>
	</linearGradient>
	<ellipse fill="url(#SVGID_1_)" cx="-100.2" cy="398.2" rx="50.4" ry="14.1"/>
	<ellipse fill="#FFFFFF" cx="-100.2" cy="398.1" rx="47.4" ry="11.8"/>
	<ellipse fill="#34E3AB" cx="-120.2" cy="397.3" rx="9.3" ry="2.4"/>
	<ellipse fill="#34E3AB" cx="-80.3" cy="397.3" rx="9.3" ry="2.4"/>
	<g>
		<defs>
			<path id="SVGID_2_" d="M-150.3,382.8v249.7c0,7.8,22.4,14.1,50.2,14.1s50.2-6.3,50.2-14.1V382.8"/>
		</defs>
		<clipPath id="SVGID_3_">
			<use xlink:href="#SVGID_2_"  overflow="visible"/>
		</clipPath>
		<g opacity="0.25" clip-path="url(#SVGID_3_)">
			<path fill="#C8C8C8" d="M-44.9,496.6c0.6-0.9,1.7-1.2,2.6-0.6c0,0,0.1,0,0.1,0.1c0.9,0.5,1.3,1.7,0.8,2.6c0,0,0,0.1-0.1,0.1
				c-0.5,0.9-1.7,1.2-2.6,0.7c0,0-0.1-0.1-0.1-0.1c-0.9-0.5-1.3-1.7-0.8-2.6C-44.9,496.8-44.9,496.7-44.9,496.6L-44.9,496.6z
				 M-47.6,499.4c0.9-0.6,2-0.4,2.7,0.4c0,0,0,0.1,0.1,0.1c0.7,0.8,0.6,2.1-0.2,2.7c0,0-0.1,0.1-0.1,0.1c-0.8,0.6-2,0.5-2.7-0.3
				c0,0-0.1-0.1-0.1-0.1c-0.7-0.8-0.6-2,0.2-2.7C-47.7,499.5-47.7,499.4-47.6,499.4L-47.6,499.4z M-51.9,501.8c1-0.4,2.1,0,2.5,0.9
				c0,0,0,0.1,0,0.1c0.5,0.9,0.2,2.1-0.8,2.6c0,0-0.1,0-0.1,0.1c-0.9,0.5-2.1,0.1-2.5-0.9c0-0.1,0-0.1-0.1-0.2
				c-0.5-0.9-0.2-2.1,0.7-2.6C-52,501.9-51.9,501.8-51.9,501.8L-51.9,501.8z M-56.9,503.8c1-0.4,2.1,0.2,2.4,1.2
				c0,0.1,0,0.1,0.1,0.2c0.4,1-0.1,2.1-1.1,2.5c0,0-0.1,0-0.1,0c-1,0.4-2.1-0.2-2.4-1.1c0-0.1,0-0.1-0.1-0.2c-0.4-1,0.1-2.1,1-2.5
				C-57,503.8-57,503.8-56.9,503.8L-56.9,503.8z M-62.3,505.4c1-0.3,2.1,0.4,2.3,1.4c0,0,0,0.1,0,0.1c0.3,1-0.2,2.1-1.2,2.5
				c0,0-0.1,0-0.1,0c-1,0.3-2.1-0.3-2.3-1.3c0-0.1,0-0.1,0-0.2c-0.3-1,0.2-2.1,1.2-2.4C-62.5,505.4-62.4,505.4-62.3,505.4
				L-62.3,505.4z M-67.9,506.6c1-0.2,2,0.5,2.2,1.5c0,0,0,0.1,0,0.1c0.3,1-0.4,2.1-1.4,2.4c0,0-0.1,0-0.1,0c-1,0.2-2-0.4-2.3-1.5
				c0-0.1,0-0.1,0-0.2c-0.3-1,0.3-2.1,1.4-2.4C-68.1,506.6-68,506.6-67.9,506.6L-67.9,506.6z M-73.7,507.6c1-0.2,2,0.6,2.2,1.6
				c0,0,0,0.1,0,0.1c0.2,1.1-0.5,2.1-1.5,2.3c0,0-0.1,0-0.1,0c-1,0.2-2-0.5-2.2-1.6c0-0.1,0-0.1,0-0.2c-0.2-1,0.4-2.1,1.5-2.3
				C-73.8,507.6-73.8,507.6-73.7,507.6L-73.7,507.6z M-79.5,508.4c1.1-0.1,2,0.7,2.1,1.7c0,0,0,0.1,0,0.1c0.2,1.1-0.5,2.1-1.6,2.2
				c0,0-0.1,0-0.1,0c-1,0.1-2-0.6-2.1-1.7c0-0.1,0-0.1,0-0.2c-0.2-1,0.5-2.1,1.6-2.2C-79.7,508.4-79.6,508.4-79.5,508.4L-79.5,508.4
				z M-85.4,508.9c1.1-0.1,2,0.7,2,1.8c0,0,0,0.1,0,0.1c0.1,1.1-0.6,2-1.7,2.2c0,0-0.1,0-0.1,0c-1,0.1-2-0.7-2.1-1.7
				c0-0.1,0-0.1,0-0.2c-0.1-1.1,0.6-2,1.6-2.2C-85.5,508.9-85.5,508.9-85.4,508.9L-85.4,508.9z M-91.3,509.3c1.1,0,1.9,0.8,2,1.8
				c0,0,0,0.1,0,0.1c0.1,1.1-0.7,2-1.7,2.1c0,0-0.1,0-0.1,0c-1,0.1-1.9-0.7-2-1.8c0-0.1,0-0.1,0-0.2c-0.1-1.1,0.6-2,1.7-2.1
				C-91.4,509.3-91.4,509.3-91.3,509.3L-91.3,509.3z M-97.2,509.4c1.1,0,1.9,0.8,1.9,1.9c0,0,0,0.1,0,0.1c0.1,1.1-0.7,2-1.8,2.1
				c0,0-0.1,0-0.1,0c-1.1,0-1.9-0.8-2-1.8c0-0.1,0-0.1,0-0.2c-0.1-1.1,0.7-2,1.8-2.1C-97.4,509.4-97.3,509.4-97.2,509.4L-97.2,509.4
				z M-103.1,509.4c1.1,0,1.9,0.9,1.9,2c0,0,0,0.1,0,0.1c0,1.1-0.8,2-1.9,2c0,0-0.1,0-0.1,0c-1.1,0-1.9-0.9-1.9-1.9
				c0-0.1,0-0.1,0-0.2c-0.1-1.1,0.8-2,1.8-2C-103.3,509.4-103.2,509.4-103.1,509.4L-103.1,509.4z M-109,509.3c1.1,0.1,1.9,1,1.8,2
				c0,0,0,0.1,0,0.1c0,1.1-0.8,2-1.9,2c0,0-0.1,0-0.1,0c-1.1,0-1.9-0.9-1.8-2c0-0.1,0-0.1,0-0.2c0-1.1,0.8-1.9,1.9-2
				C-109.2,509.2-109.1,509.2-109,509.3L-109,509.3z M-115,508.9c1.1,0.1,1.8,1,1.7,2.1c0,0,0,0.1,0,0.1c0,1.1-0.9,1.9-2,1.9
				c0,0-0.1,0-0.1,0c-1-0.1-1.8-1-1.8-2c0-0.1,0-0.1,0-0.2c0-1.1,0.9-1.9,2-1.9C-115.1,508.9-115,508.9-115,508.9L-115,508.9z
				 M-120.8,508.4c1,0.1,1.8,1.1,1.7,2.1c0,0,0,0.1,0,0.1c-0.1,1.1-1,1.9-2,1.8c0,0-0.1,0-0.1,0c-1-0.1-1.8-1.1-1.7-2.1
				c0-0.1,0-0.1,0-0.2c0-1.1,0.9-1.9,2-1.8C-120.9,508.3-120.9,508.3-120.8,508.4L-120.8,508.4z M-126.6,507.6
				c1,0.2,1.8,1.1,1.6,2.2c0,0,0,0.1,0,0.1c-0.1,1.1-1,1.9-2.1,1.8c0,0-0.1,0-0.1,0c-1-0.1-1.8-1.1-1.6-2.1c0-0.1,0-0.1,0-0.2
				c0.1-1.1,1-1.9,2.1-1.8C-126.8,507.6-126.7,507.6-126.6,507.6L-126.6,507.6z M-132.4,506.6c1,0.2,1.7,1.2,1.5,2.3
				c0,0,0,0.1,0,0.1c-0.1,1.1-1.1,1.8-2.2,1.7c0,0-0.1,0-0.1,0c-1-0.2-1.7-1.2-1.5-2.2c0-0.1,0-0.1,0-0.2c0.1-1.1,1.1-1.8,2.1-1.7
				C-132.5,506.6-132.5,506.6-132.4,506.6L-132.4,506.6z M-138,505.4c1,0.3,1.6,1.3,1.4,2.3c0,0.1,0,0.1-0.1,0.2
				c-0.2,1.1-1.2,1.7-2.3,1.5c0,0-0.1,0-0.1,0c-1-0.2-1.7-1.3-1.4-2.3c0-0.1,0-0.1,0.1-0.2c0.2-1,1.2-1.7,2.2-1.5
				C-138.2,505.3-138.1,505.4-138,505.4L-138,505.4z M-143.5,503.8c1,0.3,1.5,1.4,1.2,2.4c0,0,0,0.1,0,0.1c-0.3,1-1.4,1.6-2.4,1.4
				c0,0-0.1,0-0.1,0c-1-0.3-1.6-1.4-1.2-2.4c0-0.1,0-0.1,0.1-0.2c0.3-1,1.3-1.6,2.4-1.4C-143.6,503.7-143.5,503.8-143.5,503.8
				L-143.5,503.8z M-148.5,501.8c0.9,0.5,1.3,1.6,0.9,2.6c0,0,0,0.1,0,0.1c-0.4,1-1.5,1.5-2.5,1.1c0,0-0.1,0-0.1,0
				c-1-0.4-1.4-1.6-1-2.5c0-0.1,0-0.1,0.1-0.2c0.4-1,1.5-1.5,2.5-1.1C-148.7,501.7-148.6,501.8-148.5,501.8L-148.5,501.8z
				 M-152.8,499.3c0.9,0.6,1,1.8,0.4,2.7c0,0,0,0.1-0.1,0.1c-0.6,0.9-1.8,1.2-2.7,0.6c0,0-0.1,0-0.1-0.1c-0.9-0.6-1.1-1.8-0.5-2.7
				c0,0,0.1-0.1,0.1-0.1c0.6-0.9,1.8-1.2,2.7-0.6C-152.9,499.2-152.9,499.3-152.8,499.3L-152.8,499.3z M-155.6,496.5
				c0.6,0.9,0.3,2.1-0.6,2.6c0,0-0.1,0-0.1,0.1c-0.9,0.6-2.1,0.5-2.7-0.4c0,0,0-0.1-0.1-0.1c-0.6-0.9-0.4-2.1,0.5-2.6
				c0,0,0.1-0.1,0.2-0.1c0.8-0.6,2.1-0.5,2.7,0.4C-155.6,496.4-155.6,496.4-155.6,496.5L-155.6,496.5z M-44.9,508.9
				c0.6-0.9,1.7-1.2,2.6-0.6c0,0,0.1,0,0.1,0.1c0.9,0.5,1.3,1.7,0.8,2.6c0,0,0,0.1-0.1,0.1c-0.5,0.9-1.7,1.2-2.6,0.7
				c0,0-0.1-0.1-0.1-0.1c-0.9-0.5-1.3-1.7-0.8-2.6C-44.9,509-44.9,509-44.9,508.9L-44.9,508.9z M-47.6,511.6c0.9-0.6,2-0.4,2.7,0.4
				c0,0,0,0.1,0.1,0.1c0.7,0.8,0.6,2.1-0.2,2.7c0,0-0.1,0.1-0.1,0.1c-0.8,0.6-2,0.5-2.7-0.3c0,0-0.1-0.1-0.1-0.1
				c-0.7-0.8-0.6-2,0.2-2.7C-47.7,511.7-47.7,511.7-47.6,511.6L-47.6,511.6z M-51.9,514c1-0.4,2.1,0,2.5,0.9c0,0,0,0.1,0,0.1
				c0.5,0.9,0.2,2.1-0.8,2.6c0,0-0.1,0-0.1,0.1c-0.9,0.5-2.1,0.1-2.5-0.9c0-0.1,0-0.1-0.1-0.2c-0.5-0.9-0.2-2.1,0.7-2.6
				C-52,514.1-51.9,514.1-51.9,514L-51.9,514z M-56.9,516c1-0.4,2.1,0.2,2.4,1.2c0,0.1,0,0.1,0.1,0.2c0.4,1-0.1,2.1-1.1,2.5
				c0,0-0.1,0-0.1,0c-1,0.4-2.1-0.2-2.4-1.1c0-0.1,0-0.1-0.1-0.2c-0.4-1,0.1-2.1,1-2.5C-57,516.1-57,516.1-56.9,516L-56.9,516z
				 M-62.3,517.6c1-0.3,2.1,0.4,2.3,1.4c0,0,0,0.1,0,0.1c0.3,1-0.2,2.1-1.2,2.5c0,0-0.1,0-0.1,0c-1,0.3-2.1-0.3-2.3-1.3
				c0-0.1,0-0.1,0-0.2c-0.3-1,0.2-2.1,1.2-2.4C-62.5,517.7-62.4,517.6-62.3,517.6L-62.3,517.6z M-67.9,518.9c1-0.2,2,0.5,2.2,1.5
				c0,0,0,0.1,0,0.1c0.3,1-0.4,2.1-1.4,2.4c0,0-0.1,0-0.1,0c-1,0.2-2-0.4-2.3-1.5c0-0.1,0-0.1,0-0.2c-0.3-1,0.3-2.1,1.4-2.4
				C-68.1,518.9-68,518.9-67.9,518.9L-67.9,518.9z M-73.7,519.9c1-0.2,2,0.6,2.2,1.6c0,0,0,0.1,0,0.1c0.2,1.1-0.5,2.1-1.5,2.3
				c0,0-0.1,0-0.1,0c-1,0.2-2-0.5-2.2-1.6c0-0.1,0-0.1,0-0.2c-0.2-1,0.4-2.1,1.5-2.3C-73.8,519.9-73.8,519.9-73.7,519.9L-73.7,519.9
				z M-79.5,520.6c1.1-0.1,2,0.7,2.1,1.7c0,0,0,0.1,0,0.1c0.2,1.1-0.5,2.1-1.6,2.2c0,0-0.1,0-0.1,0c-1,0.1-2-0.6-2.1-1.7
				c0-0.1,0-0.1,0-0.2c-0.2-1,0.5-2.1,1.6-2.2C-79.7,520.6-79.6,520.6-79.5,520.6L-79.5,520.6z M-85.4,521.2c1.1-0.1,2,0.7,2,1.8
				c0,0,0,0.1,0,0.1c0.1,1.1-0.6,2-1.7,2.2c0,0-0.1,0-0.1,0c-1,0.1-2-0.7-2.1-1.7c0-0.1,0-0.1,0-0.2c-0.1-1.1,0.6-2,1.6-2.2
				C-85.5,521.2-85.5,521.2-85.4,521.2L-85.4,521.2z M-91.3,521.5c1.1,0,1.9,0.8,2,1.8c0,0,0,0.1,0,0.1c0.1,1.1-0.7,2-1.7,2.1
				c0,0-0.1,0-0.1,0c-1,0.1-1.9-0.7-2-1.8c0-0.1,0-0.1,0-0.2c-0.1-1.1,0.6-2,1.7-2.1C-91.4,521.5-91.4,521.5-91.3,521.5L-91.3,521.5
				z M-97.2,521.7c1.1,0,1.9,0.8,1.9,1.9c0,0,0,0.1,0,0.1c0.1,1.1-0.7,2-1.8,2.1c0,0-0.1,0-0.1,0c-1.1,0-1.9-0.8-2-1.8
				c0-0.1,0-0.1,0-0.2c-0.1-1.1,0.7-2,1.8-2.1C-97.4,521.7-97.3,521.7-97.2,521.7L-97.2,521.7z M-103.1,521.7c1.1,0,1.9,0.9,1.9,2
				c0,0,0,0.1,0,0.1c0,1.1-0.8,2-1.9,2c0,0-0.1,0-0.1,0c-1.1,0-1.9-0.9-1.9-1.9c0-0.1,0-0.1,0-0.2c-0.1-1.1,0.8-2,1.8-2
				C-103.3,521.7-103.2,521.7-103.1,521.7L-103.1,521.7z M-109,521.5c1.1,0.1,1.9,1,1.8,2c0,0,0,0.1,0,0.1c0,1.1-0.8,2-1.9,2
				c0,0-0.1,0-0.1,0c-1.1,0-1.9-0.9-1.8-2c0-0.1,0-0.1,0-0.2c0-1.1,0.8-1.9,1.9-2C-109.2,521.5-109.1,521.5-109,521.5L-109,521.5z
				 M-115,521.2c1.1,0.1,1.8,1,1.7,2.1c0,0,0,0.1,0,0.1c0,1.1-0.9,1.9-2,1.9c0,0-0.1,0-0.1,0c-1-0.1-1.8-1-1.8-2c0-0.1,0-0.1,0-0.2
				c0-1.1,0.9-1.9,1.9-1.9C-115.1,521.1-115,521.1-115,521.2L-115,521.2z M-120.8,520.6c1,0.1,1.8,1.1,1.7,2.1c0,0,0,0.1,0,0.1
				c-0.1,1.1-1,1.9-2,1.8c0,0-0.1,0-0.1,0c-1-0.1-1.8-1.1-1.7-2.1c0-0.1,0-0.1,0-0.2c0-1.1,0.9-1.9,2-1.8
				C-120.9,520.6-120.9,520.6-120.8,520.6L-120.8,520.6z M-126.6,519.9c1,0.2,1.8,1.1,1.6,2.2c0,0,0,0.1,0,0.1
				c-0.1,1.1-1,1.9-2.1,1.8c0,0-0.1,0-0.1,0c-1-0.1-1.8-1.1-1.6-2.1c0-0.1,0-0.1,0-0.2c0.1-1.1,1-1.9,2.1-1.8
				C-126.8,519.8-126.7,519.8-126.6,519.9L-126.6,519.9z M-132.4,518.9c1,0.2,1.7,1.2,1.5,2.3c0,0,0,0.1,0,0.1
				c-0.1,1.1-1.1,1.8-2.2,1.7c0,0-0.1,0-0.1,0c-1-0.2-1.7-1.2-1.5-2.2c0-0.1,0-0.1,0-0.2c0.1-1.1,1.1-1.8,2.1-1.7
				C-132.5,518.8-132.5,518.9-132.4,518.9L-132.4,518.9z M-138,517.6c1,0.3,1.6,1.3,1.4,2.3c0,0.1,0,0.1-0.1,0.2
				c-0.2,1.1-1.2,1.7-2.3,1.5c0,0-0.1,0-0.1,0c-1-0.2-1.7-1.3-1.4-2.3c0-0.1,0-0.1,0.1-0.2c0.2-1,1.2-1.7,2.2-1.5
				C-138.2,517.6-138.1,517.6-138,517.6L-138,517.6z M-143.5,516c1,0.3,1.5,1.4,1.2,2.4c0,0,0,0.1,0,0.1c-0.3,1-1.4,1.6-2.4,1.4
				c0,0-0.1,0-0.1,0c-1-0.3-1.6-1.4-1.2-2.4c0-0.1,0-0.1,0.1-0.2c0.3-1,1.3-1.6,2.4-1.4C-143.6,516-143.5,516-143.5,516L-143.5,516z
				 M-148.5,514c0.9,0.5,1.3,1.6,0.9,2.6c0,0,0,0.1,0,0.1c-0.4,1-1.5,1.5-2.5,1.1c0,0-0.1,0-0.1,0c-1-0.4-1.4-1.6-1-2.5
				c0-0.1,0-0.1,0.1-0.2c0.4-1,1.5-1.5,2.5-1.1C-148.7,514-148.6,514-148.5,514L-148.5,514z M-152.8,511.6c0.9,0.6,1,1.8,0.4,2.7
				c0,0,0,0.1-0.1,0.1c-0.6,0.9-1.8,1.2-2.7,0.6c0,0-0.1,0-0.1-0.1c-0.9-0.6-1.1-1.8-0.5-2.7c0,0,0.1-0.1,0.1-0.1
				c0.6-0.9,1.8-1.2,2.7-0.6C-152.9,511.5-152.9,511.5-152.8,511.6L-152.8,511.6z M-155.6,508.8c0.6,0.9,0.3,2.1-0.6,2.6
				c0,0-0.1,0-0.1,0.1c-0.9,0.6-2.1,0.5-2.7-0.4c0,0,0-0.1-0.1-0.1c-0.6-0.9-0.4-2.1,0.5-2.6c0,0,0.1-0.1,0.1-0.1
				c0.8-0.6,2.1-0.5,2.7,0.4C-155.6,508.7-155.6,508.7-155.6,508.8L-155.6,508.8z M-44.9,515c0.6-0.9,1.7-1.2,2.6-0.6
				c0,0,0.1,0,0.1,0.1c0.9,0.5,1.3,1.7,0.8,2.6c0,0,0,0.1-0.1,0.1c-0.5,0.9-1.7,1.2-2.6,0.7c0,0-0.1-0.1-0.1-0.1
				c-0.9-0.5-1.3-1.7-0.8-2.6C-45,515.1-44.9,515.1-44.9,515L-44.9,515z M-47.6,517.7c0.9-0.6,2-0.4,2.7,0.4c0,0,0,0.1,0.1,0.1
				c0.7,0.8,0.6,2.1-0.2,2.7c0,0-0.1,0.1-0.1,0.1c-0.8,0.6-2,0.5-2.7-0.3c0,0-0.1-0.1-0.1-0.1c-0.7-0.8-0.6-2,0.2-2.7
				C-47.7,517.8-47.7,517.8-47.6,517.7L-47.6,517.7z M-51.9,520.2c1-0.4,2.1,0,2.5,0.9c0,0,0,0.1,0,0.1c0.5,0.9,0.2,2.1-0.8,2.6
				c0,0-0.1,0-0.1,0.1c-0.9,0.5-2.1,0.1-2.5-0.9c0-0.1,0-0.1-0.1-0.2c-0.5-0.9-0.2-2.1,0.7-2.6C-52,520.2-51.9,520.2-51.9,520.2
				L-51.9,520.2z M-56.9,522.2c1-0.4,2.1,0.2,2.4,1.2c0,0.1,0,0.1,0.1,0.2c0.4,1-0.1,2.1-1.1,2.5c0,0-0.1,0-0.1,0
				c-1,0.4-2.1-0.2-2.4-1.1c0-0.1,0-0.1-0.1-0.2c-0.4-1,0.1-2.1,1-2.5C-57,522.3-57,522.2-56.9,522.2L-56.9,522.2z M-62.3,523.7
				c1-0.3,2.1,0.4,2.3,1.4c0,0,0,0.1,0,0.1c0.3,1-0.2,2.1-1.2,2.5c0,0-0.1,0-0.1,0c-1,0.3-2.1-0.3-2.3-1.3c0-0.1,0-0.1,0-0.2
				c-0.3-1,0.2-2.1,1.2-2.4C-62.5,523.8-62.4,523.8-62.3,523.7L-62.3,523.7z M-67.9,525c1-0.2,2,0.5,2.2,1.5c0,0,0,0.1,0,0.1
				c0.3,1-0.4,2.1-1.4,2.4c0,0-0.1,0-0.1,0c-1,0.2-2-0.4-2.3-1.5c0-0.1,0-0.1,0-0.2c-0.3-1,0.3-2.1,1.4-2.4
				C-68.1,525-68,525-67.9,525L-67.9,525z M-73.7,526c1-0.2,2,0.6,2.2,1.6c0,0,0,0.1,0,0.1c0.2,1.1-0.5,2.1-1.5,2.3c0,0-0.1,0-0.1,0
				c-1,0.2-2-0.5-2.2-1.6c0-0.1,0-0.1,0-0.2c-0.2-1,0.4-2.1,1.5-2.3C-73.8,526-73.8,526-73.7,526L-73.7,526z M-79.5,526.7
				c1.1-0.1,2,0.7,2.1,1.7c0,0,0,0.1,0,0.1c0.2,1.1-0.5,2.1-1.6,2.2c0,0-0.1,0-0.1,0c-1,0.1-2-0.6-2.1-1.7c0-0.1,0-0.1,0-0.2
				c-0.2-1,0.5-2.1,1.6-2.2C-79.7,526.8-79.6,526.7-79.5,526.7L-79.5,526.7z M-85.4,527.3c1.1-0.1,2,0.7,2,1.8c0,0,0,0.1,0,0.1
				c0.1,1.1-0.6,2-1.7,2.2c0,0-0.1,0-0.1,0c-1,0.1-2-0.7-2.1-1.7c0-0.1,0-0.1,0-0.2c-0.1-1.1,0.6-2,1.6-2.2
				C-85.5,527.3-85.5,527.3-85.4,527.3L-85.4,527.3z M-91.3,527.6c1.1,0,1.9,0.8,2,1.8c0,0,0,0.1,0,0.1c0.1,1.1-0.7,2-1.7,2.1
				c0,0-0.1,0-0.1,0c-1,0.1-1.9-0.7-2-1.8c0-0.1,0-0.1,0-0.2c-0.1-1.1,0.6-2,1.7-2.1C-91.4,527.6-91.4,527.6-91.3,527.6L-91.3,527.6
				z M-97.2,527.8c1.1,0,1.9,0.8,1.9,1.9c0,0,0,0.1,0,0.1c0.1,1.1-0.7,2-1.8,2.1c0,0-0.1,0-0.1,0c-1.1,0-1.9-0.8-2-1.8
				c0-0.1,0-0.1,0-0.2c-0.1-1.1,0.7-2,1.8-2.1C-97.3,527.8-97.3,527.8-97.2,527.8L-97.2,527.8z M-103.1,527.8c1.1,0,1.9,0.9,1.9,2
				c0,0,0,0.1,0,0.1c0,1.1-0.8,2-1.9,2c0,0-0.1,0-0.1,0c-1.1,0-1.9-0.9-1.9-1.9c0-0.1,0-0.1,0-0.2c-0.1-1.1,0.8-2,1.8-2
				C-103.3,527.8-103.2,527.8-103.1,527.8L-103.1,527.8z M-109,527.6c1.1,0.1,1.9,0.9,1.8,2c0,0,0,0.1,0,0.1c0,1.1-0.8,2-1.9,2
				c0,0-0.1,0-0.1,0c-1.1,0-1.9-0.9-1.8-2c0-0.1,0-0.1,0-0.2c0-1.1,0.8-1.9,1.9-2C-109.2,527.6-109.1,527.6-109,527.6L-109,527.6z
				 M-115,527.3c1.1,0.1,1.8,1,1.7,2.1c0,0,0,0.1,0,0.1c0,1.1-0.9,1.9-2,1.9c0,0-0.1,0-0.1,0c-1-0.1-1.8-1-1.8-2c0,0,0-0.1,0-0.1
				c0-1.1,0.9-1.9,1.9-1.9C-115.1,527.3-115,527.3-115,527.3L-115,527.3z M-120.8,526.7c1,0.1,1.8,1.1,1.7,2.1c0,0,0,0.1,0,0.1
				c-0.1,1.1-1,1.9-2,1.8c0,0-0.1,0-0.1,0c-1-0.1-1.8-1.1-1.7-2.1c0-0.1,0-0.1,0-0.2c0-1.1,0.9-1.9,2-1.8
				C-120.9,526.7-120.9,526.7-120.8,526.7L-120.8,526.7z M-126.6,526c1,0.2,1.8,1.1,1.6,2.2c0,0,0,0.1,0,0.1c-0.1,1.1-1,1.9-2.1,1.8
				c0,0-0.1,0-0.1,0c-1-0.1-1.8-1.1-1.6-2.1c0-0.1,0-0.1,0-0.2c0.1-1.1,1-1.9,2.1-1.8C-126.8,526-126.7,526-126.6,526L-126.6,526z
				 M-132.4,525c1,0.2,1.7,1.2,1.5,2.3c0,0,0,0.1,0,0.1c-0.1,1.1-1.1,1.8-2.2,1.7c0,0-0.1,0-0.1,0c-1-0.2-1.7-1.2-1.5-2.2
				c0-0.1,0-0.1,0-0.2c0.1-1.1,1.1-1.8,2.1-1.7C-132.5,525-132.5,525-132.4,525L-132.4,525z M-138,523.7c1,0.3,1.6,1.3,1.4,2.3
				c0,0.1,0,0.1-0.1,0.2c-0.2,1.1-1.2,1.7-2.3,1.5c0,0-0.1,0-0.1,0c-1-0.2-1.7-1.3-1.4-2.3c0-0.1,0-0.1,0.1-0.2
				c0.2-1,1.2-1.7,2.2-1.5C-138.2,523.7-138.1,523.7-138,523.7L-138,523.7z M-143.5,522.2c1,0.3,1.5,1.4,1.2,2.4c0,0,0,0.1,0,0.1
				c-0.3,1-1.4,1.6-2.4,1.4c0,0-0.1,0-0.1,0c-1-0.3-1.6-1.4-1.2-2.4c0-0.1,0-0.1,0.1-0.2c0.3-1,1.3-1.6,2.4-1.4
				C-143.6,522.2-143.5,522.2-143.5,522.2L-143.5,522.2z M-148.5,520.2c0.9,0.5,1.3,1.6,0.9,2.6c0,0,0,0.1,0,0.1
				c-0.4,1-1.5,1.5-2.5,1.1c0,0-0.1,0-0.1,0c-0.9-0.5-1.3-1.6-0.9-2.5c0,0,0-0.1,0.1-0.1c0.4-1,1.5-1.5,2.5-1.1
				C-148.6,520.1-148.6,520.1-148.5,520.2L-148.5,520.2z M-152.8,517.7c0.9,0.6,1,1.8,0.4,2.7c0,0,0,0.1-0.1,0.1
				c-0.6,0.9-1.8,1.2-2.7,0.6c0,0-0.1,0-0.1-0.1c-0.9-0.6-1.1-1.8-0.5-2.7c0,0,0.1-0.1,0.1-0.1c0.6-0.9,1.8-1.2,2.7-0.6
				C-152.9,517.6-152.9,517.6-152.8,517.7L-152.8,517.7z M-155.6,514.9c0.6,0.9,0.3,2.1-0.6,2.6c0,0-0.1,0-0.1,0.1
				c-0.9,0.6-2.1,0.5-2.7-0.4c0,0,0-0.1-0.1-0.1c-0.6-0.9-0.4-2.1,0.5-2.6c0,0,0.1-0.1,0.1-0.1c0.8-0.6,2.1-0.5,2.7,0.4
				C-155.6,514.8-155.6,514.8-155.6,514.9L-155.6,514.9z M-44.9,502.8c0.6-0.9,1.7-1.2,2.6-0.6c0,0,0.1,0,0.1,0.1
				c0.9,0.5,1.3,1.7,0.8,2.6c0,0,0,0.1-0.1,0.1c-0.5,0.9-1.7,1.2-2.6,0.7c0,0-0.1-0.1-0.1-0.1c-0.9-0.5-1.3-1.7-0.8-2.6
				C-44.9,502.9-44.9,502.8-44.9,502.8L-44.9,502.8z M-47.6,505.5c0.9-0.6,2-0.4,2.7,0.4c0,0,0,0.1,0.1,0.1c0.7,0.8,0.6,2.1-0.2,2.7
				c0,0-0.1,0.1-0.1,0.1c-0.8,0.6-2,0.5-2.7-0.3c0,0-0.1-0.1-0.1-0.1c-0.7-0.8-0.6-2,0.2-2.7C-47.7,505.6-47.7,505.6-47.6,505.5
				L-47.6,505.5z M-51.9,507.9c1-0.4,2.1,0,2.5,0.9c0,0,0,0.1,0,0.1c0.5,0.9,0.2,2.1-0.8,2.6c0,0-0.1,0-0.1,0.1
				c-0.9,0.5-2.1,0.1-2.5-0.9c0-0.1,0-0.1-0.1-0.2c-0.5-0.9-0.2-2.1,0.7-2.6C-52,508-51.9,508-51.9,507.9L-51.9,507.9z M-56.9,509.9
				c1-0.4,2.1,0.2,2.4,1.2c0,0.1,0,0.1,0.1,0.2c0.4,1-0.1,2.1-1.1,2.5c0,0-0.1,0-0.1,0c-1,0.4-2.1-0.2-2.4-1.1c0-0.1,0-0.1-0.1-0.2
				c-0.4-1,0.1-2.1,1-2.5C-57,510-57,509.9-56.9,509.9L-56.9,509.9z M-62.3,511.5c1-0.3,2.1,0.4,2.3,1.4c0,0,0,0.1,0,0.1
				c0.3,1-0.2,2.1-1.2,2.5c0,0-0.1,0-0.1,0c-1,0.3-2.1-0.3-2.3-1.3c0-0.1,0-0.1,0-0.2c-0.3-1,0.2-2.1,1.2-2.4
				C-62.5,511.5-62.4,511.5-62.3,511.5L-62.3,511.5z M-67.9,512.7c1-0.2,2,0.5,2.2,1.5c0,0,0,0.1,0,0.1c0.3,1-0.4,2.1-1.4,2.4
				c0,0-0.1,0-0.1,0c-1,0.2-2-0.4-2.3-1.5c0-0.1,0-0.1,0-0.2c-0.3-1,0.3-2.1,1.4-2.4C-68.1,512.8-68,512.8-67.9,512.7L-67.9,512.7z
				 M-73.7,513.7c1-0.2,2,0.6,2.2,1.6c0,0,0,0.1,0,0.1c0.2,1.1-0.5,2.1-1.5,2.3c0,0-0.1,0-0.1,0c-1,0.2-2-0.5-2.2-1.6
				c0-0.1,0-0.1,0-0.2c-0.2-1,0.4-2.1,1.5-2.3C-73.8,513.7-73.8,513.7-73.7,513.7L-73.7,513.7z M-79.5,514.5c1.1-0.1,2,0.7,2.1,1.7
				c0,0,0,0.1,0,0.1c0.2,1.1-0.5,2.1-1.6,2.2c0,0-0.1,0-0.1,0c-1,0.1-2-0.6-2.1-1.7c0-0.1,0-0.1,0-0.2c-0.2-1,0.5-2.1,1.6-2.2
				C-79.7,514.5-79.6,514.5-79.5,514.5L-79.5,514.5z M-85.4,515c1.1-0.1,2,0.7,2,1.8c0,0,0,0.1,0,0.1c0.1,1.1-0.6,2-1.7,2.2
				c0,0-0.1,0-0.1,0c-1,0.1-2-0.7-2.1-1.7c0-0.1,0-0.1,0-0.2c-0.1-1.1,0.6-2,1.6-2.2C-85.5,515-85.5,515-85.4,515L-85.4,515z
				 M-91.3,515.4c1.1,0,1.9,0.8,2,1.8c0,0,0,0.1,0,0.1c0.1,1.1-0.7,2-1.7,2.1c0,0-0.1,0-0.1,0c-1,0.1-1.9-0.7-2-1.8
				c0-0.1,0-0.1,0-0.2c-0.1-1.1,0.7-2,1.7-2.1C-91.4,515.4-91.4,515.4-91.3,515.4z M-97.2,515.6c1.1,0,1.9,0.8,1.9,1.9
				c0,0,0,0.1,0,0.1c0.1,1.1-0.7,2-1.8,2.1c0,0-0.1,0-0.1,0c-1.1,0-1.9-0.8-2-1.8c0-0.1,0-0.1,0-0.2c-0.1-1.1,0.7-2,1.8-2.1
				C-97.4,515.6-97.3,515.6-97.2,515.6L-97.2,515.6z M-103.1,515.6c1.1,0,1.9,0.9,1.9,2c0,0,0,0.1,0,0.1c0,1.1-0.8,2-1.9,2
				c0,0-0.1,0-0.1,0c-1.1,0-1.9-0.9-1.9-1.9c0-0.1,0-0.1,0-0.2c-0.1-1.1,0.8-2,1.8-2C-103.3,515.5-103.2,515.5-103.1,515.6
				L-103.1,515.6z M-109,515.4c1.1,0.1,1.9,0.9,1.8,2c0,0,0,0.1,0,0.1c0,1.1-0.8,2-1.9,2c0,0-0.1,0-0.1,0c-1.1,0-1.9-0.9-1.8-2
				c0-0.1,0-0.1,0-0.2c0-1.1,0.8-1.9,1.9-2C-109.2,515.4-109.1,515.4-109,515.4L-109,515.4z M-115,515c1.1,0.1,1.8,1,1.7,2.1
				c0,0,0,0.1,0,0.1c0,1.1-0.9,1.9-2,1.9c0,0-0.1,0-0.1,0c-1-0.1-1.8-1-1.8-2c0-0.1,0-0.1,0-0.2c0-1.1,0.9-1.9,1.9-1.9
				C-115.1,515-115,515-115,515L-115,515z M-120.8,514.5c1,0.1,1.8,1.1,1.7,2.1c0,0,0,0.1,0,0.1c-0.1,1.1-1,1.9-2,1.8
				c0,0-0.1,0-0.1,0c-1-0.1-1.8-1.1-1.7-2.1c0-0.1,0-0.1,0-0.2c0-1.1,0.9-1.9,2-1.8C-120.9,514.5-120.9,514.5-120.8,514.5
				L-120.8,514.5z M-126.6,513.7c1,0.2,1.8,1.1,1.6,2.2c0,0,0,0.1,0,0.1c-0.1,1.1-1,1.9-2.1,1.8c0,0-0.1,0-0.1,0
				c-1-0.1-1.8-1.1-1.6-2.1c0-0.1,0-0.1,0-0.2c0.1-1.1,1-1.9,2.1-1.8C-126.8,513.7-126.7,513.7-126.6,513.7L-126.6,513.7z
				 M-132.4,512.7c1,0.2,1.7,1.2,1.5,2.3c0,0,0,0.1,0,0.1c-0.1,1.1-1.1,1.8-2.2,1.7c0,0-0.1,0-0.1,0c-1-0.2-1.7-1.2-1.5-2.2
				c0-0.1,0-0.1,0-0.2c0.1-1.1,1.1-1.8,2.1-1.7C-132.5,512.7-132.5,512.7-132.4,512.7L-132.4,512.7z M-138,511.5
				c1,0.3,1.6,1.3,1.4,2.3c0,0.1,0,0.1-0.1,0.2c-0.2,1.1-1.2,1.7-2.3,1.5c0,0-0.1,0-0.1,0c-1-0.2-1.7-1.3-1.4-2.3
				c0-0.1,0-0.1,0.1-0.2c0.2-1,1.2-1.7,2.2-1.5C-138.2,511.5-138.1,511.5-138,511.5L-138,511.5z M-143.5,509.9
				c1,0.3,1.5,1.4,1.2,2.4c0,0,0,0.1,0,0.1c-0.3,1-1.4,1.6-2.4,1.4c0,0-0.1,0-0.1,0c-1-0.3-1.6-1.4-1.2-2.4c0-0.1,0-0.1,0.1-0.2
				c0.3-1,1.3-1.6,2.4-1.4C-143.6,509.9-143.5,509.9-143.5,509.9L-143.5,509.9z M-148.5,507.9c0.9,0.5,1.3,1.6,0.9,2.6
				c0,0,0,0.1,0,0.1c-0.4,1-1.5,1.5-2.5,1.1c0,0-0.1,0-0.1,0c-1-0.4-1.4-1.6-1-2.5c0-0.1,0-0.1,0.1-0.2c0.4-1,1.5-1.5,2.5-1.1
				C-148.7,507.9-148.6,507.9-148.5,507.9L-148.5,507.9z M-152.8,505.4c0.9,0.6,1,1.8,0.4,2.7c0,0,0,0.1-0.1,0.1
				c-0.6,0.9-1.8,1.2-2.7,0.6c0,0-0.1,0-0.1-0.1c-0.9-0.6-1.1-1.8-0.5-2.7c0,0,0.1-0.1,0.1-0.1c0.6-0.9,1.8-1.2,2.7-0.6
				C-152.9,505.4-152.9,505.4-152.8,505.4L-152.8,505.4z M-155.6,502.6c0.6,0.9,0.3,2.1-0.6,2.6c0,0-0.1,0-0.1,0.1
				c-0.9,0.6-2.1,0.5-2.7-0.4c0,0,0-0.1-0.1-0.1c-0.6-0.9-0.4-2.1,0.5-2.6c0,0,0.1-0.1,0.1-0.1c0.8-0.6,2.1-0.5,2.7,0.4
				C-155.6,502.5-155.6,502.6-155.6,502.6L-155.6,502.6z M-44.9,521.1c0.6-0.9,1.7-1.2,2.6-0.6c0,0,0.1,0,0.1,0.1
				c0.9,0.5,1.3,1.7,0.8,2.6c0,0,0,0.1-0.1,0.1c-0.5,0.9-1.7,1.2-2.6,0.7c0,0-0.1-0.1-0.1-0.1c-0.9-0.5-1.3-1.7-0.8-2.6
				C-44.9,521.3-44.9,521.2-44.9,521.1L-44.9,521.1z M-47.6,523.9c0.9-0.6,2-0.4,2.7,0.4c0,0,0,0.1,0.1,0.1c0.7,0.8,0.6,2.1-0.2,2.7
				c0,0-0.1,0.1-0.1,0.1c-0.8,0.6-2,0.5-2.7-0.3c0,0-0.1-0.1-0.1-0.1c-0.7-0.8-0.6-2,0.2-2.7C-47.7,524-47.7,523.9-47.6,523.9
				L-47.6,523.9z M-51.9,526.3c1-0.4,2.1,0,2.5,0.9c0,0,0,0.1,0,0.1c0.5,0.9,0.2,2.1-0.8,2.6c0,0-0.1,0-0.1,0.1
				c-0.9,0.5-2.1,0.1-2.5-0.9c0-0.1,0-0.1-0.1-0.2c-0.5-0.9-0.2-2.1,0.7-2.6C-52,526.4-51.9,526.3-51.9,526.3L-51.9,526.3z
				 M-56.9,528.3c1-0.4,2.1,0.2,2.4,1.2c0,0.1,0,0.1,0.1,0.2c0.4,1-0.1,2.1-1.1,2.5c0,0-0.1,0-0.1,0c-1,0.4-2.1-0.2-2.4-1.1
				c0-0.1,0-0.1-0.1-0.2c-0.4-1,0.1-2.1,1-2.5C-57,528.3-57,528.3-56.9,528.3L-56.9,528.3z M-62.3,529.9c1-0.3,2.1,0.4,2.3,1.4
				c0,0,0,0.1,0,0.1c0.3,1-0.2,2.1-1.2,2.5c0,0-0.1,0-0.1,0c-1,0.3-2.1-0.3-2.3-1.3c0-0.1,0-0.1,0-0.2c-0.3-1,0.2-2.1,1.2-2.4
				C-62.5,529.9-62.4,529.9-62.3,529.9L-62.3,529.9z M-67.9,531.1c1-0.2,2,0.5,2.2,1.5c0,0,0,0.1,0,0.1c0.3,1-0.4,2.1-1.4,2.4
				c0,0-0.1,0-0.1,0c-1,0.2-2-0.4-2.3-1.5c0-0.1,0-0.1,0-0.2c-0.3-1,0.3-2.1,1.4-2.4C-68.1,531.1-68,531.1-67.9,531.1L-67.9,531.1z
				 M-73.7,532.1c1-0.2,2,0.6,2.2,1.6c0,0,0,0.1,0,0.1c0.2,1.1-0.5,2.1-1.5,2.3c0,0-0.1,0-0.1,0c-1,0.2-2-0.5-2.2-1.6
				c0-0.1,0-0.1,0-0.2c-0.2-1,0.4-2.1,1.5-2.3C-73.8,532.1-73.8,532.1-73.7,532.1L-73.7,532.1z M-79.5,532.9c1.1-0.1,2,0.7,2.1,1.7
				c0,0,0,0.1,0,0.1c0.2,1.1-0.5,2.1-1.6,2.2c0,0-0.1,0-0.1,0c-1,0.1-2-0.6-2.1-1.7c0-0.1,0-0.1,0-0.2c-0.2-1,0.5-2.1,1.6-2.2
				C-79.7,532.9-79.6,532.9-79.5,532.9L-79.5,532.9z M-85.4,533.4c1.1-0.1,2,0.7,2,1.8c0,0,0,0.1,0,0.1c0.1,1.1-0.6,2-1.7,2.2
				c0,0-0.1,0-0.1,0c-1,0.1-2-0.7-2.1-1.7c0-0.1,0-0.1,0-0.2c-0.1-1.1,0.6-2,1.6-2.2C-85.5,533.4-85.5,533.4-85.4,533.4L-85.4,533.4
				z M-91.3,533.8c1.1,0,1.9,0.8,2,1.8c0,0,0,0.1,0,0.1c0.1,1.1-0.7,2-1.7,2.1c0,0-0.1,0-0.1,0c-1,0.1-1.9-0.7-2-1.8
				c0-0.1,0-0.1,0-0.2c-0.1-1.1,0.7-2,1.7-2.1C-91.4,533.8-91.4,533.8-91.3,533.8z M-97.2,533.9c1.1,0,1.9,0.8,1.9,1.9
				c0,0,0,0.1,0,0.1c0.1,1.1-0.7,2-1.8,2.1c0,0-0.1,0-0.1,0c-1.1,0-1.9-0.8-2-1.8c0-0.1,0-0.1,0-0.2c-0.1-1.1,0.7-2,1.8-2.1
				C-97.4,533.9-97.3,533.9-97.2,533.9L-97.2,533.9z M-103.1,533.9c1.1,0,1.9,0.9,1.9,2c0,0,0,0.1,0,0.1c0,1.1-0.8,2-1.9,2
				c0,0-0.1,0-0.1,0c-1.1,0-1.9-0.9-1.9-1.9c0-0.1,0-0.1,0-0.2c-0.1-1.1,0.8-2,1.8-2C-103.3,533.9-103.2,533.9-103.1,533.9
				L-103.1,533.9z M-109,533.8c1.1,0.1,1.9,0.9,1.8,2c0,0,0,0.1,0,0.1c0,1.1-0.8,2-1.9,2c0,0-0.1,0-0.1,0c-1.1,0-1.9-0.9-1.8-2
				c0-0.1,0-0.1,0-0.2c0-1.1,0.8-1.9,1.9-2C-109.2,533.8-109.1,533.8-109,533.8L-109,533.8z M-115,533.4c1.1,0.1,1.8,1,1.7,2.1
				c0,0,0,0.1,0,0.1c0,1.1-0.9,1.9-2,1.9c0,0-0.1,0-0.1,0c-1-0.1-1.8-1-1.8-2c0-0.1,0-0.1,0-0.2c0-1.1,0.9-1.9,1.9-1.9
				C-115.1,533.4-115,533.4-115,533.4L-115,533.4z M-120.8,532.9c1,0.1,1.8,1.1,1.7,2.1c0,0,0,0.1,0,0.1c-0.1,1.1-1,1.9-2,1.8
				c0,0-0.1,0-0.1,0c-1-0.1-1.8-1.1-1.7-2.1c0-0.1,0-0.1,0-0.2c0-1.1,0.9-1.9,2-1.8C-120.9,532.8-120.9,532.8-120.8,532.9
				L-120.8,532.9z M-126.6,532.1c1,0.2,1.8,1.1,1.6,2.2c0,0,0,0.1,0,0.1c-0.1,1.1-1,1.9-2.1,1.8c0,0-0.1,0-0.1,0
				c-1-0.1-1.8-1.1-1.6-2.1c0-0.1,0-0.1,0-0.2c0.1-1.1,1-1.9,2.1-1.8C-126.8,532.1-126.7,532.1-126.6,532.1L-126.6,532.1z
				 M-132.4,531.1c1,0.2,1.7,1.2,1.5,2.3c0,0,0,0.1,0,0.1c-0.1,1.1-1.1,1.8-2.2,1.7c0,0-0.1,0-0.1,0c-1-0.2-1.7-1.2-1.5-2.2
				c0-0.1,0-0.1,0-0.2c0.1-1.1,1.1-1.8,2.1-1.7C-132.5,531.1-132.5,531.1-132.4,531.1L-132.4,531.1z M-138,529.9
				c1,0.3,1.6,1.3,1.4,2.3c0,0.1,0,0.1-0.1,0.2c-0.2,1.1-1.2,1.7-2.3,1.5c0,0-0.1,0-0.1,0c-1-0.2-1.7-1.3-1.4-2.3
				c0-0.1,0-0.1,0.1-0.2c0.2-1,1.2-1.7,2.2-1.5C-138.2,529.8-138.1,529.9-138,529.9L-138,529.9z M-143.5,528.3
				c1,0.3,1.5,1.4,1.2,2.4c0,0,0,0.1,0,0.1c-0.3,1-1.4,1.6-2.4,1.4c0,0-0.1,0-0.1,0c-1-0.3-1.6-1.4-1.2-2.4c0-0.1,0-0.1,0.1-0.2
				c0.3-1,1.3-1.6,2.4-1.4C-143.6,528.2-143.5,528.3-143.5,528.3L-143.5,528.3z M-148.5,526.3c0.9,0.5,1.3,1.6,0.9,2.6
				c0,0,0,0.1,0,0.1c-0.4,1-1.5,1.5-2.5,1.1c0,0-0.1,0-0.1,0c-1-0.4-1.4-1.6-1-2.5c0-0.1,0-0.1,0.1-0.2c0.4-1,1.5-1.5,2.5-1.1
				C-148.7,526.2-148.6,526.3-148.5,526.3L-148.5,526.3z M-152.8,523.8c0.9,0.6,1,1.8,0.4,2.7c0,0,0,0.1-0.1,0.1
				c-0.6,0.9-1.8,1.2-2.7,0.6c0,0-0.1,0-0.1-0.1c-0.9-0.6-1.1-1.8-0.5-2.7c0,0,0.1-0.1,0.1-0.1c0.6-0.9,1.8-1.2,2.7-0.6
				C-152.9,523.7-152.9,523.8-152.8,523.8L-152.8,523.8z M-155.6,521c0.6,0.9,0.3,2.1-0.6,2.6c0,0-0.1,0-0.1,0.1
				c-0.9,0.6-2.1,0.5-2.7-0.4c0,0,0-0.1-0.1-0.1c-0.6-0.9-0.4-2.1,0.5-2.6c0,0,0.1-0.1,0.1-0.1c0.8-0.6,2.1-0.5,2.7,0.4
				C-155.6,520.9-155.6,521-155.6,521L-155.6,521z M-44.9,533.4c0.6-0.9,1.7-1.2,2.6-0.6c0,0,0.1,0,0.1,0.1c0.9,0.5,1.3,1.7,0.8,2.6
				c0,0,0,0.1-0.1,0.1c-0.5,0.9-1.7,1.2-2.6,0.7c0,0-0.1-0.1-0.1-0.1c-0.9-0.5-1.3-1.7-0.8-2.6C-44.9,533.5-44.9,533.5-44.9,533.4
				L-44.9,533.4z M-47.6,536.1c0.9-0.6,2-0.4,2.7,0.4c0,0,0,0.1,0.1,0.1c0.7,0.8,0.6,2.1-0.2,2.7c0,0-0.1,0.1-0.1,0.1
				c-0.8,0.6-2,0.5-2.7-0.3c0,0-0.1-0.1-0.1-0.1c-0.7-0.8-0.6-2,0.2-2.7C-47.7,536.2-47.7,536.2-47.6,536.1L-47.6,536.1z
				 M-51.9,538.5c1-0.4,2.1,0,2.5,0.9c0,0,0,0.1,0,0.1c0.5,0.9,0.2,2.1-0.8,2.6c0,0-0.1,0-0.1,0.1c-0.9,0.5-2.1,0.1-2.5-0.9
				c0-0.1,0-0.1-0.1-0.2c-0.5-0.9-0.2-2.1,0.7-2.6C-52,538.6-51.9,538.6-51.9,538.5L-51.9,538.5z M-56.9,540.5
				c1-0.4,2.1,0.2,2.4,1.2c0,0.1,0,0.1,0.1,0.2c0.4,1-0.1,2.1-1.1,2.5c0,0-0.1,0-0.1,0c-1,0.4-2.1-0.2-2.4-1.1c0-0.1,0-0.1-0.1-0.2
				c-0.4-1,0.1-2.1,1-2.5C-57,540.6-57,540.6-56.9,540.5L-56.9,540.5z M-62.3,542.2c1-0.3,2.1,0.4,2.3,1.4c0,0,0,0.1,0,0.1
				c0.3,1-0.2,2.1-1.2,2.5c0,0-0.1,0-0.1,0c-1,0.3-2.1-0.3-2.3-1.3c0-0.1,0-0.1,0-0.2c-0.3-1,0.2-2.1,1.2-2.4
				C-62.5,542.2-62.4,542.2-62.3,542.2L-62.3,542.2z M-67.9,543.4c1-0.2,2,0.5,2.2,1.5c0,0,0,0.1,0,0.1c0.3,1-0.4,2.1-1.4,2.4
				c0,0-0.1,0-0.1,0c-1,0.2-2-0.4-2.3-1.5c0-0.1,0-0.1,0-0.2c-0.3-1,0.3-2.1,1.4-2.4C-68.1,543.4-68,543.4-67.9,543.4L-67.9,543.4z
				 M-73.7,544.4c1-0.2,2,0.6,2.2,1.6c0,0,0,0.1,0,0.1c0.2,1.1-0.5,2.1-1.5,2.3c0,0-0.1,0-0.1,0c-1,0.2-2-0.5-2.2-1.6
				c0-0.1,0-0.1,0-0.2c-0.2-1,0.4-2.1,1.5-2.3C-73.8,544.4-73.8,544.4-73.7,544.4L-73.7,544.4z M-79.5,545.1c1.1-0.1,2,0.7,2.1,1.7
				c0,0,0,0.1,0,0.1c0.2,1.1-0.5,2.1-1.6,2.2c0,0-0.1,0-0.1,0c-1,0.1-2-0.6-2.1-1.7c0-0.1,0-0.1,0-0.2c-0.2-1,0.5-2.1,1.6-2.2
				C-79.7,545.1-79.6,545.1-79.5,545.1L-79.5,545.1z M-85.4,545.7c1.1-0.1,2,0.7,2,1.8c0,0,0,0.1,0,0.1c0.1,1.1-0.6,2-1.7,2.2
				c0,0-0.1,0-0.1,0c-1,0.1-2-0.7-2.1-1.7c0-0.1,0-0.1,0-0.2c-0.1-1.1,0.6-2,1.6-2.2C-85.5,545.7-85.5,545.7-85.4,545.7L-85.4,545.7
				z M-91.3,546c1.1,0,1.9,0.8,2,1.8c0,0,0,0.1,0,0.1c0.1,1.1-0.7,2-1.7,2.1c0,0-0.1,0-0.1,0c-1,0.1-1.9-0.7-2-1.8
				c0-0.1,0-0.1,0-0.2c-0.1-1.1,0.6-2,1.7-2.1C-91.4,546-91.4,546-91.3,546L-91.3,546z M-97.2,546.2c1.1,0,1.9,0.8,1.9,1.9
				c0,0,0,0.1,0,0.1c0.1,1.1-0.7,2-1.8,2.1c0,0-0.1,0-0.1,0c-1.1,0-1.9-0.8-2-1.8c0-0.1,0-0.1,0-0.2c-0.1-1.1,0.7-2,1.8-2.1
				C-97.4,546.2-97.3,546.2-97.2,546.2L-97.2,546.2z M-103.1,546.2c1.1,0,1.9,0.9,1.9,2c0,0,0,0.1,0,0.1c0,1.1-0.8,2-1.9,2
				c0,0-0.1,0-0.1,0c-1.1,0-1.9-0.9-1.9-1.9c0-0.1,0-0.1,0-0.2c-0.1-1.1,0.8-2,1.8-2C-103.3,546.2-103.2,546.2-103.1,546.2
				L-103.1,546.2z M-109,546c1.1,0.1,1.9,0.9,1.8,2c0,0,0,0.1,0,0.1c0,1.1-0.8,2-1.9,2c0,0-0.1,0-0.1,0c-1.1,0-1.9-0.9-1.8-2
				c0-0.1,0-0.1,0-0.2c0-1.1,0.8-1.9,1.9-2C-109.2,546-109.1,546-109,546L-109,546z M-115,545.7c1.1,0.1,1.8,1,1.7,2.1
				c0,0,0,0.1,0,0.1c0,1.1-0.9,1.9-2,1.9c0,0-0.1,0-0.1,0c-1-0.1-1.8-1-1.8-2c0,0,0-0.1,0-0.1c0-1.1,0.9-1.9,1.9-1.9
				C-115.1,545.6-115,545.7-115,545.7L-115,545.7z M-120.8,545.1c1,0.1,1.8,1.1,1.7,2.1c0,0,0,0.1,0,0.1c-0.1,1.1-1,1.9-2,1.8
				c0,0-0.1,0-0.1,0c-1-0.1-1.8-1.1-1.7-2.1c0-0.1,0-0.1,0-0.2c0-1.1,0.9-1.9,2-1.8C-120.9,545.1-120.9,545.1-120.8,545.1
				L-120.8,545.1z M-126.6,544.4c1,0.2,1.8,1.1,1.6,2.2c0,0,0,0.1,0,0.1c-0.1,1.1-1,1.9-2.1,1.8c0,0-0.1,0-0.1,0
				c-1-0.1-1.8-1.1-1.6-2.1c0-0.1,0-0.1,0-0.2c0.1-1.1,1-1.9,2.1-1.8C-126.8,544.4-126.7,544.4-126.6,544.4L-126.6,544.4z
				 M-132.4,543.4c1,0.2,1.7,1.2,1.5,2.3c0,0,0,0.1,0,0.1c-0.1,1.1-1.1,1.8-2.2,1.7c0,0-0.1,0-0.1,0c-1-0.2-1.7-1.2-1.5-2.2
				c0-0.1,0-0.1,0-0.2c0.1-1.1,1.1-1.8,2.1-1.7C-132.5,543.3-132.5,543.4-132.4,543.4L-132.4,543.4z M-138,542.2
				c1,0.3,1.6,1.3,1.4,2.3c0,0.1,0,0.1-0.1,0.2c-0.2,1.1-1.2,1.7-2.3,1.5c0,0-0.1,0-0.1,0c-1-0.2-1.7-1.3-1.4-2.3
				c0-0.1,0-0.1,0.1-0.2c0.2-1,1.2-1.7,2.2-1.5C-138.2,542.1-138.1,542.1-138,542.2L-138,542.2z M-143.5,540.5
				c1,0.3,1.5,1.4,1.2,2.4c0,0,0,0.1,0,0.1c-0.3,1-1.4,1.6-2.4,1.4c0,0-0.1,0-0.1,0c-1-0.3-1.6-1.4-1.2-2.4c0-0.1,0-0.1,0.1-0.2
				c0.3-1,1.3-1.6,2.4-1.4C-143.6,540.5-143.5,540.5-143.5,540.5L-143.5,540.5z M-148.5,538.5c0.9,0.5,1.3,1.6,0.9,2.6
				c0,0,0,0.1,0,0.1c-0.4,1-1.5,1.5-2.5,1.1c0,0-0.1,0-0.1,0c-0.9-0.5-1.4-1.6-0.9-2.5c0,0,0-0.1,0.1-0.1c0.4-1,1.5-1.5,2.5-1.1
				C-148.6,538.5-148.6,538.5-148.5,538.5L-148.5,538.5z M-152.8,536.1c0.9,0.6,1,1.8,0.4,2.7c0,0,0,0.1-0.1,0.1
				c-0.6,0.9-1.8,1.2-2.7,0.6c0,0-0.1,0-0.1-0.1c-0.9-0.6-1.1-1.8-0.5-2.7c0,0,0.1-0.1,0.1-0.1c0.6-0.9,1.8-1.2,2.7-0.6
				C-152.9,536-152.9,536-152.8,536.1L-152.8,536.1z M-155.6,533.3c0.6,0.9,0.3,2.1-0.6,2.6c0,0-0.1,0-0.1,0.1
				c-0.9,0.6-2.1,0.5-2.7-0.4c0,0,0-0.1-0.1-0.1c-0.6-0.9-0.4-2.1,0.5-2.6c0,0,0.1-0.1,0.1-0.1c0.8-0.6,2.1-0.5,2.7,0.4
				C-155.6,533.2-155.6,533.2-155.6,533.3L-155.6,533.3z M-44.9,539.5c0.6-0.9,1.7-1.2,2.6-0.6c0,0,0.1,0,0.1,0.1
				c0.9,0.5,1.3,1.7,0.8,2.6c0,0,0,0.1-0.1,0.1c-0.5,0.9-1.7,1.2-2.6,0.7c0,0-0.1-0.1-0.1-0.1c-0.9-0.5-1.3-1.7-0.8-2.6
				C-44.9,539.6-44.9,539.6-44.9,539.5L-44.9,539.5z M-47.6,542.2c0.9-0.6,2-0.4,2.7,0.4c0,0,0,0.1,0.1,0.1c0.7,0.8,0.6,2.1-0.2,2.7
				c0,0-0.1,0.1-0.1,0.1c-0.8,0.6-2,0.5-2.7-0.3c0,0-0.1-0.1-0.1-0.1c-0.7-0.8-0.6-2,0.2-2.7C-47.7,542.3-47.7,542.3-47.6,542.2
				L-47.6,542.2z M-51.9,544.7c1-0.4,2.1,0,2.5,0.9c0,0,0,0.1,0,0.1c0.5,0.9,0.2,2.1-0.8,2.6c0,0-0.1,0-0.1,0.1
				c-0.9,0.5-2.1,0.1-2.5-0.9c0-0.1,0-0.1-0.1-0.2c-0.5-0.9-0.2-2.1,0.7-2.6C-52,544.7-51.9,544.7-51.9,544.7L-51.9,544.7z
				 M-56.9,546.7c1-0.4,2.1,0.2,2.4,1.2c0,0.1,0,0.1,0.1,0.2c0.4,1-0.1,2.1-1.1,2.5c0,0-0.1,0-0.1,0c-1,0.4-2.1-0.2-2.4-1.1
				c0-0.1,0-0.1-0.1-0.2c-0.4-1,0.1-2.1,1-2.5C-57,546.7-57,546.7-56.9,546.7L-56.9,546.7z M-62.3,548.3c1-0.3,2.1,0.4,2.3,1.4
				c0,0,0,0.1,0,0.1c0.3,1-0.2,2.1-1.2,2.5c0,0-0.1,0-0.1,0c-1,0.3-2.1-0.3-2.3-1.3c0-0.1,0-0.1,0-0.2c-0.3-1,0.2-2.1,1.2-2.4
				C-62.5,548.3-62.4,548.3-62.3,548.3L-62.3,548.3z M-67.9,549.5c1-0.2,2,0.5,2.2,1.5c0,0,0,0.1,0,0.1c0.3,1-0.4,2.1-1.4,2.4
				c0,0-0.1,0-0.1,0c-1,0.2-2-0.4-2.3-1.5c0-0.1,0-0.1,0-0.2c-0.3-1,0.3-2.1,1.4-2.4C-68.1,549.5-68,549.5-67.9,549.5L-67.9,549.5z
				 M-73.7,550.5c1-0.2,2,0.6,2.2,1.6c0,0,0,0.1,0,0.1c0.2,1.1-0.5,2.1-1.5,2.3c0,0-0.1,0-0.1,0c-1,0.2-2-0.5-2.2-1.6
				c0-0.1,0-0.1,0-0.2c-0.2-1,0.4-2.1,1.5-2.3C-73.8,550.5-73.8,550.5-73.7,550.5L-73.7,550.5z M-79.5,551.2c1.1-0.1,2,0.7,2.1,1.7
				c0,0,0,0.1,0,0.1c0.2,1.1-0.5,2.1-1.6,2.2c0,0-0.1,0-0.1,0c-1,0.1-2-0.6-2.1-1.7c0-0.1,0-0.1,0-0.2c-0.2-1,0.5-2.1,1.6-2.2
				C-79.7,551.3-79.6,551.2-79.5,551.2L-79.5,551.2z M-85.4,551.8c1.1-0.1,2,0.7,2,1.8c0,0,0,0.1,0,0.1c0.1,1.1-0.6,2-1.7,2.2
				c0,0-0.1,0-0.1,0c-1,0.1-2-0.7-2.1-1.7c0-0.1,0-0.1,0-0.2c-0.1-1.1,0.6-2,1.6-2.2C-85.5,551.8-85.5,551.8-85.4,551.8L-85.4,551.8
				z M-91.3,552.1c1.1,0,1.9,0.8,2,1.8c0,0,0,0.1,0,0.1c0.1,1.1-0.7,2-1.7,2.1c0,0-0.1,0-0.1,0c-1,0.1-1.9-0.7-2-1.8
				c0-0.1,0-0.1,0-0.2c-0.1-1.1,0.6-2,1.7-2.1C-91.4,552.1-91.4,552.1-91.3,552.1z M-97.2,552.3c1.1,0,1.9,0.8,1.9,1.9
				c0,0,0,0.1,0,0.1c0.1,1.1-0.7,2-1.8,2.1c0,0-0.1,0-0.1,0c-1.1,0-1.9-0.8-2-1.8c0-0.1,0-0.1,0-0.2c-0.1-1.1,0.7-2,1.8-2.1
				C-97.3,552.3-97.3,552.3-97.2,552.3L-97.2,552.3z M-103.1,552.3c1.1,0,1.9,0.9,1.9,2c0,0,0,0.1,0,0.1c0,1.1-0.8,2-1.9,2
				c0,0-0.1,0-0.1,0c-1.1,0-1.9-0.9-1.9-1.9c0-0.1,0-0.1,0-0.2c-0.1-1.1,0.8-2,1.8-2C-103.3,552.3-103.2,552.3-103.1,552.3
				L-103.1,552.3z M-109,552.1c1.1,0.1,1.9,1,1.8,2c0,0,0,0.1,0,0.1c0,1.1-0.8,2-1.9,2c0,0-0.1,0-0.1,0c-1.1,0-1.9-0.9-1.8-2
				c0-0.1,0-0.1,0-0.2c0-1.1,0.8-1.9,1.9-2C-109.2,552.1-109.1,552.1-109,552.1L-109,552.1z M-115,551.8c1.1,0.1,1.8,1,1.7,2.1
				c0,0,0,0.1,0,0.1c0,1.1-0.9,1.9-2,1.9c0,0-0.1,0-0.1,0c-1-0.1-1.8-1-1.8-2c0-0.1,0-0.1,0-0.2c0-1.1,0.9-1.9,1.9-1.9
				C-115.1,551.8-115,551.8-115,551.8L-115,551.8z M-120.8,551.2c1,0.1,1.8,1.1,1.7,2.1c0,0,0,0.1,0,0.1c-0.1,1.1-1,1.9-2,1.8
				c0,0-0.1,0-0.1,0c-1-0.1-1.8-1.1-1.7-2.1c0-0.1,0-0.1,0-0.2c0-1.1,0.9-1.9,2-1.8C-120.9,551.2-120.9,551.2-120.8,551.2
				L-120.8,551.2z M-126.6,550.5c1,0.2,1.8,1.1,1.6,2.2c0,0,0,0.1,0,0.1c-0.1,1.1-1,1.9-2.1,1.8c0,0-0.1,0-0.1,0
				c-1-0.1-1.8-1.1-1.6-2.1c0-0.1,0-0.1,0-0.2c0.1-1.1,1-1.9,2.1-1.8C-126.8,550.5-126.7,550.5-126.6,550.5L-126.6,550.5z
				 M-132.4,549.5c1,0.2,1.7,1.2,1.5,2.3c0,0,0,0.1,0,0.1c-0.1,1.1-1.1,1.8-2.2,1.7c0,0-0.1,0-0.1,0c-1-0.2-1.7-1.2-1.5-2.2
				c0-0.1,0-0.1,0-0.2c0.1-1.1,1.1-1.8,2.1-1.7C-132.5,549.5-132.5,549.5-132.4,549.5L-132.4,549.5z M-138,548.3
				c1,0.3,1.6,1.3,1.4,2.3c0,0.1,0,0.1-0.1,0.2c-0.2,1.1-1.2,1.7-2.3,1.5c0,0-0.1,0-0.1,0c-1-0.2-1.7-1.3-1.4-2.3
				c0-0.1,0-0.1,0.1-0.2c0.2-1,1.2-1.7,2.2-1.5C-138.2,548.2-138.1,548.2-138,548.3L-138,548.3z M-143.5,546.7
				c1,0.3,1.5,1.4,1.2,2.4c0,0,0,0.1,0,0.1c-0.3,1-1.4,1.6-2.4,1.4c0,0-0.1,0-0.1,0c-1-0.3-1.6-1.4-1.2-2.4c0-0.1,0-0.1,0.1-0.2
				c0.3-1,1.3-1.6,2.4-1.4C-143.6,546.6-143.5,546.6-143.5,546.7L-143.5,546.7z M-148.5,544.7c0.9,0.5,1.3,1.6,0.9,2.6
				c0,0,0,0.1,0,0.1c-0.4,1-1.5,1.5-2.5,1.1c0,0-0.1,0-0.1,0c-1-0.4-1.4-1.6-1-2.5c0-0.1,0-0.1,0.1-0.2c0.4-1,1.5-1.5,2.5-1.1
				C-148.7,544.6-148.6,544.6-148.5,544.7L-148.5,544.7z M-152.8,542.2c0.9,0.6,1,1.8,0.4,2.7c0,0,0,0.1-0.1,0.1
				c-0.6,0.9-1.8,1.2-2.7,0.6c0,0-0.1,0-0.1-0.1c-0.9-0.6-1.1-1.8-0.5-2.7c0,0,0.1-0.1,0.1-0.1c0.5-0.9,1.7-1.2,2.6-0.7
				C-152.9,542.1-152.9,542.1-152.8,542.2L-152.8,542.2z M-155.6,539.4c0.6,0.9,0.3,2.1-0.6,2.6c0,0-0.1,0-0.1,0.1
				c-0.9,0.6-2.1,0.5-2.7-0.4c0,0,0-0.1-0.1-0.1c-0.6-0.9-0.4-2.1,0.5-2.6c0,0,0.1-0.1,0.1-0.1c0.8-0.6,2.1-0.5,2.7,0.4
				C-155.6,539.3-155.6,539.3-155.6,539.4L-155.6,539.4z M-44.9,527.3c0.6-0.9,1.7-1.2,2.6-0.6c0,0,0.1,0,0.1,0.1
				c0.9,0.5,1.3,1.7,0.8,2.6c0,0,0,0.1-0.1,0.1c-0.5,0.9-1.7,1.2-2.6,0.7c0,0-0.1-0.1-0.1-0.1c-0.9-0.5-1.3-1.7-0.8-2.6
				C-44.9,527.4-44.9,527.3-44.9,527.3L-44.9,527.3z M-47.6,530c0.9-0.6,2-0.4,2.7,0.4c0,0,0,0.1,0.1,0.1c0.7,0.8,0.6,2.1-0.2,2.7
				c0,0-0.1,0.1-0.1,0.1c-0.8,0.6-2,0.5-2.7-0.3c0,0-0.1-0.1-0.1-0.1c-0.7-0.8-0.6-2,0.2-2.7C-47.7,530.1-47.7,530.1-47.6,530
				L-47.6,530z M-51.9,532.4c1-0.4,2.1,0,2.5,0.9c0,0,0,0.1,0,0.1c0.5,0.9,0.2,2.1-0.8,2.6c0,0-0.1,0-0.1,0.1
				c-0.9,0.5-2.1,0.1-2.5-0.9c0-0.1,0-0.1-0.1-0.2c-0.5-0.9-0.2-2.1,0.7-2.6C-52,532.5-51.9,532.5-51.9,532.4L-51.9,532.4z
				 M-56.9,534.4c1-0.4,2.1,0.2,2.4,1.2c0,0.1,0,0.1,0.1,0.2c0.4,1-0.1,2.1-1.1,2.5c0,0-0.1,0-0.1,0c-1,0.4-2.1-0.2-2.4-1.1
				c0-0.1,0-0.1-0.1-0.2c-0.4-1,0.1-2.1,1-2.5C-57,534.5-57,534.4-56.9,534.4L-56.9,534.4z M-62.3,536c1-0.3,2.1,0.4,2.3,1.4
				c0,0,0,0.1,0,0.1c0.3,1-0.2,2.1-1.2,2.5c0,0-0.1,0-0.1,0c-1,0.3-2.1-0.3-2.3-1.3c0-0.1,0-0.1,0-0.2c-0.3-1,0.2-2.1,1.2-2.4
				C-62.5,536-62.4,536-62.3,536L-62.3,536z M-67.9,537.3c1-0.2,2,0.5,2.2,1.5c0,0,0,0.1,0,0.1c0.3,1-0.3,2.1-1.4,2.4
				c0,0-0.1,0-0.1,0c-1,0.2-2-0.4-2.3-1.5c0-0.1,0-0.1,0-0.2c-0.3-1,0.3-2.1,1.4-2.4C-68.1,537.3-68,537.3-67.9,537.3L-67.9,537.3z
				 M-73.7,538.2c1-0.2,2,0.6,2.2,1.6c0,0,0,0.1,0,0.1c0.2,1.1-0.5,2.1-1.5,2.3c0,0-0.1,0-0.1,0c-1,0.2-2-0.5-2.2-1.6
				c0-0.1,0-0.1,0-0.2c-0.2-1,0.4-2.1,1.5-2.3C-73.8,538.2-73.8,538.2-73.7,538.2L-73.7,538.2z M-79.5,539c1.1-0.1,2,0.7,2.1,1.7
				c0,0,0,0.1,0,0.1c0.2,1.1-0.5,2.1-1.6,2.2c0,0-0.1,0-0.1,0c-1,0.1-2-0.6-2.1-1.7c0-0.1,0-0.1,0-0.2c-0.2-1,0.5-2.1,1.6-2.2
				C-79.7,539-79.6,539-79.5,539L-79.5,539z M-85.4,539.5c1.1-0.1,2,0.7,2,1.8c0,0,0,0.1,0,0.1c0.1,1.1-0.6,2-1.7,2.2
				c0,0-0.1,0-0.1,0c-1,0.1-2-0.7-2.1-1.7c0-0.1,0-0.1,0-0.2c-0.1-1.1,0.6-2,1.6-2.2C-85.5,539.6-85.5,539.5-85.4,539.5L-85.4,539.5
				z M-91.3,539.9c1.1,0,1.9,0.8,2,1.8c0,0,0,0.1,0,0.1c0.1,1.1-0.7,2-1.7,2.1c0,0-0.1,0-0.1,0c-1,0.1-1.9-0.7-2-1.8
				c0-0.1,0-0.1,0-0.2c-0.1-1.1,0.6-2,1.7-2.1C-91.4,539.9-91.4,539.9-91.3,539.9L-91.3,539.9z M-97.2,540.1c1.1,0,1.9,0.8,1.9,1.9
				c0,0,0,0.1,0,0.1c0.1,1.1-0.7,2-1.8,2.1c0,0-0.1,0-0.1,0c-1.1,0-1.9-0.8-2-1.8c0-0.1,0-0.1,0-0.2c-0.1-1.1,0.7-2,1.8-2.1
				C-97.3,540.1-97.3,540.1-97.2,540.1L-97.2,540.1z M-103.1,540.1c1.1,0,1.9,0.9,1.9,2c0,0,0,0.1,0,0.1c0,1.1-0.8,2-1.9,2
				c0,0-0.1,0-0.1,0c-1.1,0-1.9-0.9-1.9-1.9c0-0.1,0-0.1,0-0.2c-0.1-1.1,0.8-2,1.8-2C-103.3,540.1-103.2,540.1-103.1,540.1
				L-103.1,540.1z M-109,539.9c1.1,0.1,1.9,0.9,1.8,2c0,0,0,0.1,0,0.1c0,1.1-0.8,2-1.9,2c0,0-0.1,0-0.1,0c-1.1,0-1.9-0.9-1.8-2
				c0-0.1,0-0.1,0-0.2c0-1.1,0.8-1.9,1.9-2C-109.2,539.9-109.1,539.9-109,539.9L-109,539.9z M-115,539.5c1.1,0.1,1.8,1,1.7,2.1
				c0,0,0,0.1,0,0.1c0,1.1-0.9,1.9-2,1.9c0,0-0.1,0-0.1,0c-1-0.1-1.8-1-1.8-2c0-0.1,0-0.1,0-0.2c0-1.1,0.9-1.9,1.9-1.9
				C-115.1,539.5-115,539.5-115,539.5L-115,539.5z M-120.8,539c1,0.1,1.8,1.1,1.7,2.1c0,0,0,0.1,0,0.1c-0.1,1.1-1,1.9-2,1.8
				c0,0-0.1,0-0.1,0c-1-0.1-1.8-1.1-1.7-2.1c0-0.1,0-0.1,0-0.2c0-1.1,0.9-1.9,2-1.8C-120.9,539-120.9,539-120.8,539L-120.8,539z
				 M-126.6,538.2c1,0.2,1.8,1.1,1.6,2.2c0,0,0,0.1,0,0.1c-0.1,1.1-1,1.9-2.1,1.8c0,0-0.1,0-0.1,0c-1-0.1-1.8-1.1-1.6-2.1
				c0-0.1,0-0.1,0-0.2c0.1-1.1,1-1.9,2.1-1.8C-126.8,538.2-126.7,538.2-126.6,538.2L-126.6,538.2z M-132.4,537.3
				c1,0.2,1.7,1.2,1.5,2.3c0,0,0,0.1,0,0.1c-0.1,1.1-1.1,1.8-2.2,1.7c0,0-0.1,0-0.1,0c-1-0.2-1.7-1.2-1.5-2.2c0-0.1,0-0.1,0-0.2
				c0.1-1.1,1.1-1.8,2.1-1.7C-132.5,537.2-132.5,537.2-132.4,537.3L-132.4,537.3z M-138,536c1,0.3,1.6,1.3,1.4,2.3
				c0,0.1,0,0.1-0.1,0.2c-0.2,1.1-1.2,1.7-2.3,1.5c0,0-0.1,0-0.1,0c-1-0.2-1.7-1.3-1.4-2.3c0-0.1,0-0.1,0.1-0.2
				c0.2-1,1.2-1.7,2.2-1.5C-138.2,536-138.1,536-138,536L-138,536z M-143.5,534.4c1,0.3,1.5,1.4,1.2,2.4c0,0,0,0.1,0,0.1
				c-0.3,1-1.4,1.6-2.4,1.4c0,0-0.1,0-0.1,0c-1-0.3-1.6-1.4-1.2-2.4c0-0.1,0-0.1,0.1-0.2c0.3-1,1.3-1.6,2.4-1.4
				C-143.6,534.4-143.5,534.4-143.5,534.4L-143.5,534.4z M-148.5,532.4c0.9,0.5,1.3,1.6,0.9,2.6c0,0,0,0.1,0,0.1
				c-0.4,1-1.5,1.5-2.5,1.1c0,0-0.1,0-0.1,0c-1-0.4-1.4-1.6-1-2.5c0-0.1,0-0.1,0.1-0.2c0.4-1,1.5-1.5,2.5-1.1
				C-148.7,532.4-148.6,532.4-148.5,532.4L-148.5,532.4z M-152.8,530c0.9,0.6,1,1.8,0.4,2.7c0,0,0,0.1-0.1,0.1
				c-0.6,0.9-1.8,1.2-2.7,0.6c0,0-0.1,0-0.1-0.1c-0.9-0.6-1.1-1.8-0.5-2.7c0,0,0.1-0.1,0.1-0.1c0.6-0.9,1.8-1.2,2.7-0.6
				C-152.9,529.9-152.9,529.9-152.8,530L-152.8,530z M-155.6,527.2c0.6,0.9,0.3,2.1-0.6,2.6c0,0-0.1,0-0.1,0.1
				c-0.9,0.6-2.1,0.5-2.7-0.4c0,0,0-0.1-0.1-0.1c-0.6-0.9-0.4-2.1,0.5-2.6c0,0,0.1-0.1,0.1-0.1c0.8-0.6,2.1-0.5,2.7,0.4
				C-155.6,527.1-155.6,527.1-155.6,527.2L-155.6,527.2z M-44.9,545.7c0.6-0.9,1.7-1.2,2.6-0.6c0,0,0.1,0,0.1,0.1
				c0.9,0.5,1.3,1.7,0.8,2.6c0,0,0,0.1-0.1,0.1c-0.5,0.9-1.7,1.2-2.6,0.7c0,0-0.1-0.1-0.1-0.1c-0.9-0.5-1.3-1.7-0.8-2.6
				C-44.9,545.8-44.9,545.7-44.9,545.7L-44.9,545.7z M-47.6,548.4c0.9-0.6,2-0.4,2.7,0.4c0,0,0,0.1,0.1,0.1c0.7,0.8,0.6,2.1-0.2,2.7
				c0,0-0.1,0.1-0.1,0.1c-0.8,0.6-2,0.5-2.7-0.3c0,0-0.1-0.1-0.1-0.1c-0.7-0.8-0.6-2,0.2-2.7C-47.7,548.5-47.7,548.4-47.6,548.4
				L-47.6,548.4z M-51.9,550.8c1-0.4,2.1,0,2.5,0.9c0,0,0,0.1,0,0.1c0.5,0.9,0.2,2.1-0.8,2.6c0,0-0.1,0-0.1,0.1
				c-0.9,0.5-2.1,0.1-2.5-0.9c0-0.1,0-0.1-0.1-0.2c-0.5-0.9-0.2-2.1,0.7-2.6C-52,550.9-51.9,550.8-51.9,550.8L-51.9,550.8z
				 M-56.9,552.8c1-0.4,2.1,0.2,2.4,1.2c0,0.1,0,0.1,0.1,0.2c0.4,1-0.1,2.1-1.1,2.5c0,0-0.1,0-0.1,0c-1,0.4-2.1-0.2-2.4-1.1
				c0-0.1,0-0.1-0.1-0.2c-0.4-1,0.1-2.1,1-2.5C-57,552.8-57,552.8-56.9,552.8L-56.9,552.8z M-62.3,554.4c1-0.3,2.1,0.4,2.3,1.4
				c0,0,0,0.1,0,0.1c0.3,1-0.2,2.1-1.2,2.5c0,0-0.1,0-0.1,0c-1,0.3-2.1-0.3-2.3-1.3c0-0.1,0-0.1,0-0.2c-0.3-1,0.2-2.1,1.2-2.4
				C-62.5,554.4-62.4,554.4-62.3,554.4L-62.3,554.4z M-67.9,555.6c1-0.2,2,0.5,2.2,1.5c0,0,0,0.1,0,0.1c0.3,1-0.4,2.1-1.4,2.4
				c0,0-0.1,0-0.1,0c-1,0.2-2-0.4-2.3-1.5c0-0.1,0-0.1,0-0.2c-0.3-1,0.3-2.1,1.4-2.4C-68.1,555.6-68,555.6-67.9,555.6L-67.9,555.6z
				 M-73.7,556.6c1-0.2,2,0.6,2.2,1.6c0,0,0,0.1,0,0.1c0.2,1.1-0.5,2.1-1.5,2.3c0,0-0.1,0-0.1,0c-1,0.2-2-0.5-2.2-1.6
				c0-0.1,0-0.1,0-0.2c-0.2-1,0.4-2.1,1.5-2.3C-73.8,556.6-73.8,556.6-73.7,556.6L-73.7,556.6z M-79.5,557.4c1.1-0.1,2,0.7,2.1,1.7
				c0,0,0,0.1,0,0.1c0.2,1.1-0.5,2.1-1.6,2.2c0,0-0.1,0-0.1,0c-1,0.1-2-0.6-2.1-1.7c0-0.1,0-0.1,0-0.2c-0.2-1,0.5-2.1,1.6-2.2
				C-79.7,557.4-79.6,557.4-79.5,557.4L-79.5,557.4z M-85.4,557.9c1.1-0.1,2,0.7,2,1.8c0,0,0,0.1,0,0.1c0.1,1.1-0.6,2-1.7,2.2
				c0,0-0.1,0-0.1,0c-1,0.1-2-0.7-2.1-1.7c0-0.1,0-0.1,0-0.2c-0.1-1.1,0.6-2,1.6-2.2C-85.5,557.9-85.5,557.9-85.4,557.9L-85.4,557.9
				z M-91.3,558.3c1.1,0,1.9,0.8,2,1.8c0,0,0,0.1,0,0.1c0.1,1.1-0.7,2-1.7,2.1c0,0-0.1,0-0.1,0c-1,0.1-1.9-0.7-2-1.8
				c0-0.1,0-0.1,0-0.2c-0.1-1.1,0.6-2,1.7-2.1C-91.4,558.3-91.4,558.3-91.3,558.3L-91.3,558.3z M-97.2,558.4c1.1,0,1.9,0.8,1.9,1.9
				c0,0,0,0.1,0,0.1c0.1,1.1-0.7,2-1.8,2.1c0,0-0.1,0-0.1,0c-1.1,0-1.9-0.8-2-1.8c0-0.1,0-0.1,0-0.2c-0.1-1.1,0.7-2,1.8-2.1
				C-97.3,558.4-97.3,558.4-97.2,558.4L-97.2,558.4z M-103.1,558.4c1.1,0,1.9,0.9,1.9,2c0,0,0,0.1,0,0.1c0,1.1-0.8,2-1.9,2
				c0,0-0.1,0-0.1,0c-1.1,0-1.9-0.9-1.9-1.9c0-0.1,0-0.1,0-0.2c-0.1-1.1,0.8-2,1.8-2C-103.3,558.4-103.2,558.4-103.1,558.4
				L-103.1,558.4z M-109,558.3c1.1,0.1,1.9,0.9,1.8,2c0,0,0,0.1,0,0.1c0,1.1-0.8,2-1.9,2c0,0-0.1,0-0.1,0c-1.1,0-1.9-0.9-1.8-2
				c0-0.1,0-0.1,0-0.2c0-1.1,0.8-1.9,1.9-2C-109.2,558.3-109.1,558.3-109,558.3L-109,558.3z M-115,558c1.1,0.1,1.8,1,1.7,2.1
				c0,0,0,0.1,0,0.1c0,1.1-0.9,1.9-2,1.9c0,0-0.1,0-0.1,0c-1-0.1-1.8-1-1.8-2c0-0.1,0-0.1,0-0.2c0-1.1,0.9-1.9,1.9-1.9
				C-115.1,557.9-115,557.9-115,558L-115,558z M-120.8,557.4c1,0.1,1.8,1.1,1.7,2.1c0,0,0,0.1,0,0.1c-0.1,1.1-1,1.9-2,1.8
				c0,0-0.1,0-0.1,0c-1-0.1-1.8-1.1-1.7-2.1c0-0.1,0-0.1,0-0.2c0-1.1,0.9-1.9,2-1.8C-120.9,557.4-120.9,557.4-120.8,557.4
				L-120.8,557.4z M-126.6,556.6c1,0.2,1.8,1.1,1.6,2.2c0,0,0,0.1,0,0.1c-0.1,1.1-1,1.9-2.1,1.8c0,0-0.1,0-0.1,0
				c-1-0.1-1.8-1.1-1.6-2.1c0-0.1,0-0.1,0-0.2c0.1-1.1,1-1.9,2.1-1.8C-126.8,556.6-126.7,556.6-126.6,556.6L-126.6,556.6z
				 M-132.4,555.6c1,0.2,1.7,1.2,1.5,2.3c0,0,0,0.1,0,0.1c-0.1,1.1-1.1,1.8-2.2,1.7c0,0-0.1,0-0.1,0c-1-0.2-1.7-1.2-1.5-2.2
				c0-0.1,0-0.1,0-0.2c0.1-1.1,1.1-1.8,2.1-1.7C-132.5,555.6-132.5,555.6-132.4,555.6L-132.4,555.6z M-138,554.4
				c1,0.3,1.6,1.3,1.4,2.3c0,0.1,0,0.1-0.1,0.2c-0.2,1.1-1.2,1.7-2.3,1.5c0,0-0.1,0-0.1,0c-1-0.2-1.7-1.3-1.4-2.3
				c0-0.1,0-0.1,0.1-0.2c0.2-1,1.2-1.7,2.2-1.5C-138.2,554.4-138.1,554.4-138,554.4L-138,554.4z M-143.5,552.8
				c1,0.3,1.5,1.4,1.2,2.4c0,0,0,0.1,0,0.1c-0.3,1-1.4,1.6-2.4,1.4c0,0-0.1,0-0.1,0c-1-0.3-1.6-1.4-1.2-2.4c0-0.1,0-0.1,0.1-0.2
				c0.3-1,1.3-1.6,2.4-1.4C-143.6,552.7-143.5,552.8-143.5,552.8L-143.5,552.8z M-148.5,550.8c0.9,0.5,1.3,1.6,0.9,2.6
				c0,0,0,0.1,0,0.1c-0.4,1-1.5,1.5-2.5,1.1c0,0-0.1,0-0.1,0c-1-0.4-1.4-1.6-1-2.5c0-0.1,0-0.1,0.1-0.2c0.4-1,1.5-1.5,2.5-1.1
				C-148.7,550.7-148.6,550.8-148.5,550.8L-148.5,550.8z M-152.8,548.3c0.9,0.6,1,1.8,0.4,2.7c0,0,0,0.1-0.1,0.1
				c-0.6,0.9-1.8,1.2-2.7,0.6c0,0-0.1,0-0.1-0.1c-0.9-0.6-1.1-1.8-0.5-2.7c0,0,0.1-0.1,0.1-0.1c0.6-0.9,1.8-1.2,2.7-0.6
				C-152.9,548.2-152.9,548.3-152.8,548.3L-152.8,548.3z M-155.6,545.5c0.6,0.9,0.3,2.1-0.6,2.6c0,0-0.1,0-0.1,0.1
				c-0.9,0.6-2.1,0.5-2.7-0.4c0,0,0-0.1-0.1-0.1c-0.6-0.9-0.4-2.1,0.5-2.6c0,0,0.1-0.1,0.2-0.1c0.8-0.6,2.1-0.5,2.7,0.4
				C-155.6,545.4-155.6,545.5-155.6,545.5L-155.6,545.5z M-44.9,557.9c0.6-0.9,1.7-1.2,2.6-0.6c0,0,0.1,0,0.1,0.1
				c0.9,0.5,1.3,1.7,0.8,2.6c0,0,0,0.1-0.1,0.1c-0.5,0.9-1.7,1.2-2.6,0.7c0,0-0.1-0.1-0.1-0.1c-0.9-0.5-1.3-1.7-0.8-2.6
				C-44.9,558-44.9,558-44.9,557.9L-44.9,557.9z M-47.6,560.6c0.9-0.6,2-0.4,2.7,0.4c0,0,0,0.1,0.1,0.1c0.7,0.8,0.6,2.1-0.2,2.7
				c0,0-0.1,0.1-0.1,0.1c-0.8,0.6-2,0.5-2.7-0.3c0,0-0.1-0.1-0.1-0.1c-0.7-0.8-0.6-2,0.2-2.7C-47.7,560.7-47.7,560.7-47.6,560.6
				L-47.6,560.6z M-51.9,563.1c1-0.4,2.1,0,2.5,0.9c0,0,0,0.1,0,0.1c0.5,0.9,0.2,2.1-0.8,2.6c0,0-0.1,0-0.1,0.1
				c-0.9,0.5-2.1,0.1-2.5-0.9c0-0.1,0-0.1-0.1-0.2c-0.5-0.9-0.2-2.1,0.7-2.6C-52,563.1-51.9,563.1-51.9,563.1L-51.9,563.1z
				 M-56.9,565c1-0.4,2.1,0.2,2.4,1.2c0,0.1,0,0.1,0.1,0.2c0.4,1-0.1,2.1-1.1,2.5c0,0-0.1,0-0.1,0c-1,0.4-2.1-0.2-2.4-1.1
				c0-0.1,0-0.1-0.1-0.2c-0.4-1,0.1-2.1,1-2.5C-57,565.1-57,565.1-56.9,565L-56.9,565z M-62.3,566.6c1-0.3,2.1,0.4,2.3,1.4
				c0,0,0,0.1,0,0.1c0.3,1-0.2,2.1-1.2,2.5c0,0-0.1,0-0.1,0c-1,0.3-2.1-0.3-2.3-1.3c0-0.1,0-0.1,0-0.2c-0.3-1,0.2-2.1,1.2-2.4
				C-62.5,566.7-62.4,566.6-62.3,566.6L-62.3,566.6z M-67.9,567.9c1-0.2,2,0.5,2.2,1.5c0,0,0,0.1,0,0.1c0.3,1-0.4,2.1-1.4,2.4
				c0,0-0.1,0-0.1,0c-1,0.2-2-0.4-2.3-1.5c0-0.1,0-0.1,0-0.2c-0.3-1,0.3-2.1,1.4-2.4C-68.1,567.9-68,567.9-67.9,567.9L-67.9,567.9z
				 M-73.7,568.9c1-0.2,2,0.6,2.2,1.6c0,0,0,0.1,0,0.1c0.2,1.1-0.5,2.1-1.5,2.3c0,0-0.1,0-0.1,0c-1,0.2-2-0.5-2.2-1.6
				c0-0.1,0-0.1,0-0.2c-0.2-1,0.4-2.1,1.5-2.3C-73.8,568.9-73.8,568.9-73.7,568.9L-73.7,568.9z M-79.5,569.6c1.1-0.1,2,0.7,2.1,1.7
				c0,0,0,0.1,0,0.1c0.2,1.1-0.5,2.1-1.6,2.2c0,0-0.1,0-0.1,0c-1,0.1-2-0.6-2.1-1.7c0-0.1,0-0.1,0-0.2c-0.2-1,0.5-2.1,1.6-2.2
				C-79.7,569.6-79.6,569.6-79.5,569.6L-79.5,569.6z M-85.4,570.2c1.1-0.1,2,0.7,2,1.8c0,0,0,0.1,0,0.1c0.1,1.1-0.6,2-1.7,2.2
				c0,0-0.1,0-0.1,0c-1,0.1-2-0.7-2.1-1.7c0-0.1,0-0.1,0-0.2c-0.1-1.1,0.6-2,1.6-2.2C-85.5,570.2-85.5,570.2-85.4,570.2L-85.4,570.2
				z M-91.3,570.5c1.1,0,1.9,0.8,2,1.8c0,0,0,0.1,0,0.1c0.1,1.1-0.7,2-1.7,2.1c0,0-0.1,0-0.1,0c-1,0.1-1.9-0.7-2-1.8
				c0-0.1,0-0.1,0-0.2c-0.1-1.1,0.6-2,1.7-2.1C-91.4,570.5-91.4,570.5-91.3,570.5L-91.3,570.5z M-97.2,570.7c1.1,0,1.9,0.8,1.9,1.9
				c0,0,0,0.1,0,0.1c0.1,1.1-0.7,2-1.8,2.1c0,0-0.1,0-0.1,0c-1.1,0-1.9-0.8-2-1.8c0-0.1,0-0.1,0-0.2c-0.1-1.1,0.7-2,1.8-2.1
				C-97.3,570.7-97.3,570.7-97.2,570.7L-97.2,570.7z M-103.1,570.7c1.1,0,1.9,0.9,1.9,2c0,0,0,0.1,0,0.1c0,1.1-0.8,2-1.9,2
				c0,0-0.1,0-0.1,0c-1.1,0-1.9-0.9-1.9-1.9c0-0.1,0-0.1,0-0.2c-0.1-1.1,0.8-2,1.8-2C-103.3,570.7-103.2,570.7-103.1,570.7
				L-103.1,570.7z M-109,570.5c1.1,0.1,1.9,0.9,1.8,2c0,0,0,0.1,0,0.1c0,1.1-0.8,2-1.9,2c0,0-0.1,0-0.1,0c-1.1,0-1.9-0.9-1.8-2
				c0-0.1,0-0.1,0-0.2c0-1.1,0.8-1.9,1.9-2C-109.2,570.5-109.1,570.5-109,570.5L-109,570.5z M-115,570.2c1.1,0.1,1.8,1,1.7,2.1
				c0,0,0,0.1,0,0.1c0,1.1-0.9,1.9-2,1.9c0,0-0.1,0-0.1,0c-1-0.1-1.8-1-1.8-2c0,0,0-0.1,0-0.1c0-1.1,0.9-1.9,1.9-1.9
				C-115.1,570.2-115,570.2-115,570.2L-115,570.2z M-120.8,569.6c1,0.1,1.8,1.1,1.7,2.1c0,0,0,0.1,0,0.1c-0.1,1.1-1,1.9-2,1.8
				c0,0-0.1,0-0.1,0c-1-0.1-1.8-1.1-1.7-2.1c0-0.1,0-0.1,0-0.2c0-1.1,0.9-1.9,2-1.8C-120.9,569.6-120.9,569.6-120.8,569.6
				L-120.8,569.6z M-126.6,568.9c1,0.2,1.8,1.1,1.6,2.2c0,0,0,0.1,0,0.1c-0.1,1.1-1,1.9-2.1,1.8c0,0-0.1,0-0.1,0
				c-1-0.1-1.8-1.1-1.6-2.1c0-0.1,0-0.1,0-0.2c0.1-1.1,1-1.9,2.1-1.8C-126.8,568.9-126.7,568.9-126.6,568.9L-126.6,568.9z
				 M-132.4,567.9c1,0.2,1.7,1.2,1.5,2.3c0,0,0,0.1,0,0.1c-0.1,1.1-1.1,1.8-2.2,1.7c0,0-0.1,0-0.1,0c-1-0.2-1.7-1.2-1.5-2.2
				c0-0.1,0-0.1,0-0.2c0.1-1.1,1.1-1.8,2.1-1.7C-132.5,567.9-132.5,567.9-132.4,567.9L-132.4,567.9z M-138,566.6
				c1,0.3,1.6,1.3,1.4,2.3c0,0.1,0,0.1-0.1,0.2c-0.2,1.1-1.2,1.7-2.3,1.5c0,0-0.1,0-0.1,0c-1-0.2-1.7-1.3-1.4-2.3
				c0-0.1,0-0.1,0.1-0.2c0.2-1,1.2-1.7,2.2-1.5C-138.2,566.6-138.1,566.6-138,566.6L-138,566.6z M-143.5,565c1,0.3,1.5,1.4,1.2,2.4
				c0,0,0,0.1,0,0.1c-0.3,1-1.4,1.6-2.4,1.4c0,0-0.1,0-0.1,0c-1-0.3-1.6-1.4-1.2-2.4c0-0.1,0-0.1,0.1-0.2c0.3-1,1.3-1.6,2.4-1.4
				C-143.6,565-143.5,565-143.5,565L-143.5,565z M-148.5,563c0.9,0.5,1.3,1.6,0.9,2.6c0,0,0,0.1,0,0.1c-0.4,1-1.5,1.5-2.5,1.1
				c0,0-0.1,0-0.1,0c-1-0.4-1.4-1.6-1-2.5c0-0.1,0-0.1,0.1-0.2c0.4-1,1.5-1.5,2.5-1.1C-148.7,563-148.6,563-148.5,563L-148.5,563z
				 M-152.8,560.6c0.9,0.6,1,1.8,0.4,2.7c0,0,0,0.1-0.1,0.1c-0.6,0.9-1.8,1.2-2.7,0.6c0,0-0.1,0-0.1-0.1c-0.9-0.6-1.1-1.8-0.5-2.7
				c0,0,0.1-0.1,0.1-0.1c0.6-0.9,1.8-1.2,2.7-0.6C-152.9,560.5-152.9,560.5-152.8,560.6L-152.8,560.6z M-155.6,557.8
				c0.6,0.9,0.3,2.1-0.6,2.6c0,0-0.1,0-0.1,0.1c-0.9,0.6-2.1,0.5-2.7-0.4c0,0,0-0.1-0.1-0.1c-0.6-0.9-0.4-2.1,0.5-2.6
				c0,0,0.1-0.1,0.1-0.1c0.8-0.6,2.1-0.5,2.7,0.4C-155.6,557.7-155.6,557.7-155.6,557.8L-155.6,557.8z M-44.9,564
				c0.6-0.9,1.7-1.2,2.6-0.6c0,0,0.1,0,0.1,0.1c0.9,0.5,1.3,1.7,0.8,2.6c0,0,0,0.1-0.1,0.1c-0.5,0.9-1.7,1.2-2.6,0.7
				c0,0-0.1-0.1-0.1-0.1c-0.9-0.5-1.3-1.7-0.8-2.6C-44.9,564.1-44.9,564.1-44.9,564L-44.9,564z M-47.6,566.8c0.9-0.6,2-0.4,2.7,0.4
				c0,0,0,0.1,0.1,0.1c0.7,0.8,0.6,2.1-0.2,2.7c0,0-0.1,0.1-0.1,0.1c-0.8,0.6-2,0.5-2.7-0.3c0,0-0.1-0.1-0.1-0.1
				c-0.7-0.8-0.6-2,0.2-2.7C-47.7,566.8-47.7,566.8-47.6,566.8L-47.6,566.8z M-51.9,569.2c1-0.4,2.1,0,2.5,0.9c0,0,0,0.1,0,0.1
				c0.5,0.9,0.2,2.1-0.8,2.6c0,0-0.1,0-0.1,0.1c-0.9,0.5-2.1,0.1-2.5-0.9c0-0.1,0-0.1-0.1-0.2c-0.5-0.9-0.2-2.1,0.7-2.6
				C-52,569.2-51.9,569.2-51.9,569.2L-51.9,569.2z M-56.9,571.2c1-0.4,2.1,0.2,2.4,1.2c0,0.1,0,0.1,0.1,0.2c0.4,1-0.1,2.1-1.1,2.5
				c0,0-0.1,0-0.1,0c-1,0.4-2.1-0.2-2.4-1.1c0-0.1,0-0.1-0.1-0.2c-0.4-1,0.1-2.1,1-2.5C-57,571.2-57,571.2-56.9,571.2L-56.9,571.2z
				 M-62.3,572.8c1-0.3,2.1,0.4,2.3,1.4c0,0,0,0.1,0,0.1c0.3,1-0.2,2.1-1.2,2.5c0,0-0.1,0-0.1,0c-1,0.3-2.1-0.3-2.3-1.3
				c0-0.1,0-0.1,0-0.2c-0.3-1,0.2-2.1,1.2-2.4C-62.5,572.8-62.4,572.8-62.3,572.8L-62.3,572.8z M-67.9,574c1-0.2,2,0.5,2.2,1.5
				c0,0,0,0.1,0,0.1c0.3,1-0.4,2.1-1.4,2.4c0,0-0.1,0-0.1,0c-1,0.2-2-0.4-2.3-1.5c0-0.1,0-0.1,0-0.2c-0.3-1,0.3-2.1,1.4-2.4
				C-68.1,574-68,574-67.9,574L-67.9,574z M-73.7,575c1-0.2,2,0.6,2.2,1.6c0,0,0,0.1,0,0.1c0.2,1.1-0.5,2.1-1.5,2.3c0,0-0.1,0-0.1,0
				c-1,0.2-2-0.5-2.2-1.6c0-0.1,0-0.1,0-0.2c-0.2-1,0.4-2.1,1.5-2.3C-73.8,575-73.8,575-73.7,575L-73.7,575z M-79.5,575.7
				c1.1-0.1,2,0.7,2.1,1.7c0,0,0,0.1,0,0.1c0.2,1.1-0.5,2.1-1.6,2.2c0,0-0.1,0-0.1,0c-1,0.1-2-0.6-2.1-1.7c0-0.1,0-0.1,0-0.2
				c-0.2-1,0.5-2.1,1.6-2.2C-79.7,575.8-79.6,575.8-79.5,575.7L-79.5,575.7z M-85.4,576.3c1.1-0.1,2,0.7,2,1.8c0,0,0,0.1,0,0.1
				c0.1,1.1-0.6,2-1.7,2.2c0,0-0.1,0-0.1,0c-1,0.1-2-0.7-2.1-1.7c0-0.1,0-0.1,0-0.2c-0.1-1.1,0.6-2,1.6-2.2
				C-85.5,576.3-85.5,576.3-85.4,576.3L-85.4,576.3z M-91.3,576.6c1.1,0,1.9,0.8,2,1.8c0,0,0,0.1,0,0.1c0.1,1.1-0.7,2-1.7,2.1
				c0,0-0.1,0-0.1,0c-1,0.1-1.9-0.7-2-1.8c0-0.1,0-0.1,0-0.2c-0.1-1.1,0.6-2,1.7-2.1C-91.4,576.6-91.4,576.6-91.3,576.6L-91.3,576.6
				z M-97.2,576.8c1.1,0,1.9,0.8,1.9,1.9c0,0,0,0.1,0,0.1c0.1,1.1-0.7,2-1.8,2.1c0,0-0.1,0-0.1,0c-1.1,0-1.9-0.8-2-1.8
				c0-0.1,0-0.1,0-0.2c-0.1-1.1,0.7-2,1.8-2.1C-97.4,576.8-97.3,576.8-97.2,576.8L-97.2,576.8z M-103.1,576.8c1.1,0,1.9,0.9,1.9,2
				c0,0,0,0.1,0,0.1c0,1.1-0.8,2-1.9,2c0,0-0.1,0-0.1,0c-1.1,0-1.9-0.9-1.9-1.9c0-0.1,0-0.1,0-0.2c-0.1-1.1,0.8-2,1.8-2
				C-103.3,576.8-103.2,576.8-103.1,576.8L-103.1,576.8z M-109,576.6c1.1,0.1,1.9,1,1.8,2c0,0,0,0.1,0,0.1c0,1.1-0.8,2-1.9,2
				c0,0-0.1,0-0.1,0c-1.1,0-1.9-0.9-1.8-2c0-0.1,0-0.1,0-0.2c0-1.1,0.8-1.9,1.9-2C-109.2,576.6-109.1,576.6-109,576.6L-109,576.6z
				 M-115,576.3c1.1,0.1,1.8,1,1.7,2.1c0,0,0,0.1,0,0.1c0,1.1-0.9,1.9-2,1.9c0,0-0.1,0-0.1,0c-1-0.1-1.8-1-1.8-2c0-0.1,0-0.1,0-0.2
				c0-1.1,0.9-1.9,1.9-1.9C-115.1,576.3-115,576.3-115,576.3L-115,576.3z M-120.8,575.7c1,0.1,1.8,1.1,1.7,2.1c0,0,0,0.1,0,0.1
				c-0.1,1.1-1,1.9-2,1.8c0,0-0.1,0-0.1,0c-1-0.1-1.8-1.1-1.7-2.1c0-0.1,0-0.1,0-0.2c0-1.1,0.9-1.9,2-1.8
				C-120.9,575.7-120.9,575.7-120.8,575.7L-120.8,575.7z M-126.6,575c1,0.2,1.8,1.1,1.6,2.2c0,0,0,0.1,0,0.1c-0.1,1.1-1,1.9-2.1,1.8
				c0,0-0.1,0-0.1,0c-1-0.1-1.8-1.1-1.6-2.1c0-0.1,0-0.1,0-0.2c0.1-1.1,1-1.9,2.1-1.8C-126.8,575-126.7,575-126.6,575L-126.6,575z
				 M-132.4,574c1,0.2,1.7,1.2,1.5,2.3c0,0,0,0.1,0,0.1c-0.1,1.1-1.1,1.8-2.2,1.7c0,0-0.1,0-0.1,0c-1-0.2-1.7-1.2-1.5-2.2
				c0-0.1,0-0.1,0-0.2c0.1-1.1,1.1-1.8,2.1-1.7C-132.5,574-132.5,574-132.4,574L-132.4,574z M-138,572.8c1,0.3,1.6,1.3,1.4,2.3
				c0,0.1,0,0.1-0.1,0.2c-0.2,1.1-1.2,1.7-2.3,1.5c0,0-0.1,0-0.1,0c-1-0.2-1.7-1.3-1.4-2.3c0-0.1,0-0.1,0.1-0.2
				c0.2-1,1.2-1.7,2.2-1.5C-138.2,572.7-138.1,572.7-138,572.8L-138,572.8z M-143.5,571.2c1,0.3,1.5,1.4,1.2,2.4c0,0,0,0.1,0,0.1
				c-0.3,1-1.4,1.6-2.4,1.4c0,0-0.1,0-0.1,0c-1-0.3-1.6-1.4-1.2-2.4c0-0.1,0-0.1,0.1-0.2c0.3-1,1.3-1.6,2.4-1.4
				C-143.6,571.1-143.5,571.1-143.5,571.2L-143.5,571.2z M-148.5,569.2c0.9,0.5,1.3,1.6,0.9,2.6c0,0,0,0.1,0,0.1
				c-0.4,1-1.5,1.5-2.5,1.1c0,0-0.1,0-0.1-0.1c-1-0.4-1.4-1.6-1-2.5c0-0.1,0-0.1,0.1-0.2c0.4-1,1.5-1.5,2.5-1.1
				C-148.7,569.2-148.6,569.2-148.5,569.2L-148.5,569.2z M-152.8,566.7c0.9,0.6,1,1.8,0.4,2.7c0,0,0,0.1-0.1,0.1
				c-0.6,0.9-1.8,1.2-2.7,0.6c0,0-0.1,0-0.1-0.1c-0.9-0.6-1.1-1.8-0.5-2.7c0,0,0.1-0.1,0.1-0.1c0.6-0.9,1.8-1.2,2.7-0.6
				C-152.9,566.6-152.9,566.6-152.8,566.7L-152.8,566.7z M-155.6,563.9c0.6,0.9,0.3,2.1-0.6,2.6c0,0-0.1,0-0.1,0.1
				c-0.9,0.6-2.1,0.5-2.7-0.4c0,0,0-0.1-0.1-0.1c-0.6-0.9-0.4-2.1,0.5-2.6c0,0,0.1-0.1,0.1-0.1c0.8-0.6,2.1-0.5,2.7,0.4
				C-155.6,563.8-155.6,563.8-155.6,563.9L-155.6,563.9z M-44.9,551.8c0.6-0.9,1.7-1.2,2.6-0.6c0,0,0.1,0,0.1,0.1
				c0.9,0.5,1.3,1.7,0.8,2.6c0,0,0,0.1-0.1,0.1c-0.5,0.9-1.7,1.2-2.6,0.7c0,0-0.1-0.1-0.1-0.1c-0.9-0.5-1.3-1.7-0.8-2.6
				C-44.9,551.9-44.9,551.8-44.9,551.8L-44.9,551.8z M-47.6,554.5c0.9-0.6,2-0.4,2.7,0.4c0,0,0,0.1,0.1,0.1c0.7,0.8,0.6,2.1-0.2,2.7
				c0,0-0.1,0.1-0.1,0.1c-0.8,0.6-2,0.5-2.7-0.3c0,0-0.1-0.1-0.1-0.1c-0.7-0.8-0.6-2,0.2-2.7C-47.7,554.6-47.7,554.6-47.6,554.5
				L-47.6,554.5z M-51.9,556.9c1-0.4,2.1,0,2.5,0.9c0,0,0,0.1,0,0.1c0.5,0.9,0.2,2.1-0.8,2.6c0,0-0.1,0-0.1,0.1
				c-0.9,0.5-2.1,0.1-2.5-0.9c0-0.1,0-0.1-0.1-0.2c-0.5-0.9-0.2-2.1,0.7-2.6C-52,557-51.9,557-51.9,556.9L-51.9,556.9z M-56.9,558.9
				c1-0.4,2.1,0.2,2.4,1.2c0,0.1,0,0.1,0.1,0.2c0.4,1-0.1,2.1-1.1,2.5c0,0-0.1,0-0.1,0c-1,0.4-2.1-0.2-2.4-1.1c0-0.1,0-0.1-0.1-0.2
				c-0.4-1,0.1-2.1,1-2.5C-57,559-57,559-56.9,558.9L-56.9,558.9z M-62.3,560.5c1-0.3,2.1,0.4,2.3,1.4c0,0,0,0.1,0,0.1
				c0.3,1-0.2,2.1-1.2,2.5c0,0-0.1,0-0.1,0c-1,0.3-2.1-0.3-2.3-1.3c0-0.1,0-0.1,0-0.2c-0.3-1,0.2-2.1,1.2-2.4
				C-62.5,560.5-62.4,560.5-62.3,560.5L-62.3,560.5z M-67.9,561.8c1-0.2,2,0.5,2.2,1.5c0,0,0,0.1,0,0.1c0.3,1-0.4,2.1-1.4,2.4
				c0,0-0.1,0-0.1,0c-1,0.2-2-0.4-2.3-1.5c0-0.1,0-0.1,0-0.2c-0.3-1,0.3-2.1,1.4-2.4C-68.1,561.8-68,561.8-67.9,561.8L-67.9,561.8z
				 M-73.7,562.7c1-0.2,2,0.6,2.2,1.6c0,0,0,0.1,0,0.1c0.2,1.1-0.5,2.1-1.5,2.3c0,0-0.1,0-0.1,0c-1,0.2-2-0.5-2.2-1.6
				c0-0.1,0-0.1,0-0.2c-0.2-1,0.4-2.1,1.5-2.3C-73.8,562.8-73.8,562.7-73.7,562.7L-73.7,562.7z M-79.5,563.5c1.1-0.1,2,0.7,2.1,1.7
				c0,0,0,0.1,0,0.1c0.2,1.1-0.5,2.1-1.6,2.2c0,0-0.1,0-0.1,0c-1,0.1-2-0.6-2.1-1.7c0-0.1,0-0.1,0-0.2c-0.2-1,0.5-2,1.6-2.2
				C-79.6,563.5-79.6,563.5-79.5,563.5L-79.5,563.5z M-85.4,564c1.1-0.1,2,0.7,2,1.8c0,0,0,0.1,0,0.1c0.1,1.1-0.6,2-1.7,2.2
				c0,0-0.1,0-0.1,0c-1,0.1-2-0.7-2.1-1.7c0-0.1,0-0.1,0-0.2c-0.1-1.1,0.6-2,1.6-2.2C-85.5,564.1-85.5,564.1-85.4,564L-85.4,564z
				 M-91.3,564.4c1.1,0,1.9,0.8,2,1.8c0,0,0,0.1,0,0.1c0.1,1.1-0.7,2-1.7,2.1c0,0-0.1,0-0.1,0c-1,0.1-1.9-0.7-2-1.8
				c0-0.1,0-0.1,0-0.2c-0.1-1.1,0.6-2,1.7-2.1C-91.4,564.4-91.4,564.4-91.3,564.4L-91.3,564.4z M-97.2,564.6c1.1,0,1.9,0.8,1.9,1.9
				c0,0,0,0.1,0,0.1c0.1,1.1-0.7,2-1.8,2.1c0,0-0.1,0-0.1,0c-1.1,0-1.9-0.8-2-1.8c0-0.1,0-0.1,0-0.2c-0.1-1.1,0.7-2,1.8-2.1
				C-97.3,564.6-97.3,564.6-97.2,564.6L-97.2,564.6z M-103.1,564.6c1.1,0,1.9,0.9,1.9,2c0,0,0,0.1,0,0.1c0,1.1-0.8,2-1.9,2
				c0,0-0.1,0-0.1,0c-1.1,0-1.9-0.9-1.9-1.9c0-0.1,0-0.1,0-0.2c-0.1-1.1,0.8-2,1.8-2C-103.3,564.6-103.2,564.6-103.1,564.6
				L-103.1,564.6z M-109,564.4c1.1,0.1,1.9,1,1.8,2c0,0,0,0.1,0,0.1c0,1.1-0.8,2-1.9,2c0,0-0.1,0-0.1,0c-1.1,0-1.9-0.9-1.8-2
				c0-0.1,0-0.1,0-0.2c0-1.1,0.8-1.9,1.9-2C-109.2,564.4-109.1,564.4-109,564.4L-109,564.4z M-115,564c1.1,0.1,1.8,1,1.7,2.1
				c0,0,0,0.1,0,0.1c0,1.1-0.9,1.9-2,1.9c0,0-0.1,0-0.1,0c-1-0.1-1.8-1-1.8-2c0-0.1,0-0.1,0-0.2c0-1.1,0.9-1.9,1.9-1.9
				C-115.1,564-115,564-115,564L-115,564z M-120.8,563.5c1,0.1,1.8,1.1,1.7,2.1c0,0,0,0.1,0,0.1c-0.1,1.1-1,1.9-2,1.8
				c0,0-0.1,0-0.1,0c-1-0.1-1.8-1.1-1.7-2.1c0-0.1,0-0.1,0-0.2c0-1.1,0.9-1.9,2-1.8C-120.9,563.5-120.9,563.5-120.8,563.5
				L-120.8,563.5z M-126.6,562.7c1,0.2,1.8,1.1,1.6,2.2c0,0,0,0.1,0,0.1c-0.1,1.1-1,1.9-2.1,1.8c0,0-0.1,0-0.1,0
				c-1-0.1-1.8-1.1-1.6-2.1c0-0.1,0-0.1,0-0.2c0.1-1.1,1-1.9,2.1-1.8C-126.8,562.7-126.7,562.7-126.6,562.7L-126.6,562.7z
				 M-132.4,561.8c1,0.2,1.7,1.2,1.5,2.3c0,0,0,0.1,0,0.1c-0.1,1.1-1.1,1.8-2.2,1.7c0,0-0.1,0-0.1,0c-1-0.2-1.7-1.2-1.5-2.2
				c0-0.1,0-0.1,0-0.2c0.1-1.1,1.1-1.8,2.1-1.7C-132.5,561.7-132.5,561.7-132.4,561.8L-132.4,561.8z M-138,560.5
				c1,0.3,1.6,1.3,1.4,2.3c0,0.1,0,0.1-0.1,0.2c-0.2,1.1-1.2,1.7-2.3,1.5c0,0-0.1,0-0.1,0c-1-0.2-1.7-1.3-1.4-2.3
				c0-0.1,0-0.1,0.1-0.2c0.2-1,1.2-1.7,2.2-1.5C-138.2,560.5-138.1,560.5-138,560.5L-138,560.5z M-143.5,558.9
				c1,0.3,1.5,1.4,1.2,2.4c0,0,0,0.1,0,0.1c-0.3,1-1.4,1.6-2.4,1.4c0,0-0.1,0-0.1,0c-1-0.3-1.6-1.4-1.2-2.4c0-0.1,0-0.1,0.1-0.2
				c0.3-1,1.3-1.6,2.4-1.4C-143.6,558.9-143.5,558.9-143.5,558.9L-143.5,558.9z M-148.5,556.9c0.9,0.5,1.3,1.6,0.9,2.6
				c0,0,0,0.1,0,0.1c-0.4,1-1.5,1.5-2.5,1.1c0,0-0.1,0-0.1,0c-0.9-0.5-1.4-1.6-0.9-2.5c0,0,0-0.1,0.1-0.1c0.4-1,1.5-1.5,2.5-1.1
				C-148.6,556.9-148.6,556.9-148.5,556.9L-148.5,556.9z M-152.8,554.5c0.9,0.6,1,1.8,0.4,2.7c0,0,0,0.1-0.1,0.1
				c-0.6,0.9-1.8,1.2-2.7,0.6c0,0-0.1,0-0.1-0.1c-0.9-0.6-1.1-1.8-0.5-2.7c0,0,0.1-0.1,0.1-0.1c0.6-0.9,1.8-1.2,2.7-0.6
				C-152.9,554.4-152.9,554.4-152.8,554.5L-152.8,554.5z M-155.6,551.7c0.6,0.9,0.3,2.1-0.6,2.6c0,0-0.1,0-0.1,0.1
				c-0.9,0.6-2.1,0.5-2.7-0.4c0,0,0-0.1-0.1-0.1c-0.6-0.9-0.4-2.1,0.5-2.6c0,0,0.1-0.1,0.1-0.1c0.8-0.6,2.1-0.5,2.7,0.4
				C-155.6,551.5-155.6,551.6-155.6,551.7L-155.6,551.7z M-44.9,570.2c0.6-0.9,1.7-1.2,2.6-0.6c0,0,0.1,0,0.1,0.1
				c0.9,0.5,1.3,1.7,0.8,2.6c0,0,0,0.1-0.1,0.1c-0.5,0.9-1.7,1.2-2.6,0.7c0,0-0.1-0.1-0.1-0.1c-0.9-0.5-1.3-1.7-0.8-2.6
				C-44.9,570.3-44.9,570.2-44.9,570.2L-44.9,570.2z M-47.6,572.9c0.9-0.6,2-0.4,2.7,0.4c0,0,0,0.1,0.1,0.1c0.7,0.8,0.6,2.1-0.2,2.7
				c0,0-0.1,0.1-0.1,0.1c-0.8,0.6-2,0.5-2.7-0.3c0,0-0.1-0.1-0.1-0.1c-0.7-0.8-0.6-2,0.2-2.7C-47.7,573-47.7,573-47.6,572.9
				L-47.6,572.9z M-51.9,575.3c1-0.4,2.1,0,2.5,0.9c0,0,0,0.1,0,0.1c0.5,0.9,0.2,2.1-0.8,2.6c0,0-0.1,0-0.1,0.1
				c-0.9,0.5-2.1,0.1-2.5-0.9c0-0.1,0-0.1-0.1-0.2c-0.5-0.9-0.2-2.1,0.7-2.6C-52,575.4-51.9,575.3-51.9,575.3L-51.9,575.3z
				 M-56.9,577.3c1-0.4,2.1,0.2,2.4,1.2c0,0.1,0,0.1,0.1,0.2c0.4,1-0.1,2.1-1.1,2.5c0,0-0.1,0-0.1,0c-1,0.4-2.1-0.2-2.4-1.1
				c0-0.1,0-0.1-0.1-0.2c-0.4-1,0.1-2.1,1-2.5C-57,577.3-57,577.3-56.9,577.3L-56.9,577.3z M-62.3,578.9c1-0.3,2.1,0.4,2.3,1.4
				c0,0,0,0.1,0,0.1c0.3,1-0.2,2.1-1.2,2.5c0,0-0.1,0-0.1,0c-1,0.3-2.1-0.3-2.3-1.3c0-0.1,0-0.1,0-0.2c-0.3-1,0.2-2.1,1.2-2.4
				C-62.5,578.9-62.4,578.9-62.3,578.9L-62.3,578.9z M-67.9,580.1c1-0.2,2,0.5,2.2,1.5c0,0,0,0.1,0,0.1c0.3,1-0.4,2.1-1.4,2.4
				c0,0-0.1,0-0.1,0c-1,0.2-2-0.4-2.3-1.5c0-0.1,0-0.1,0-0.2c-0.3-1,0.3-2.1,1.4-2.4C-68.1,580.1-68,580.1-67.9,580.1L-67.9,580.1z
				 M-73.7,581.1c1-0.2,2,0.6,2.2,1.6c0,0,0,0.1,0,0.1c0.2,1.1-0.5,2.1-1.5,2.3c0,0-0.1,0-0.1,0c-1,0.2-2-0.5-2.2-1.6
				c0-0.1,0-0.1,0-0.2c-0.2-1,0.4-2.1,1.5-2.3C-73.8,581.1-73.8,581.1-73.7,581.1L-73.7,581.1z M-79.5,581.9c1.1-0.1,2,0.7,2.1,1.7
				c0,0,0,0.1,0,0.1c0.2,1.1-0.5,2.1-1.6,2.2c0,0-0.1,0-0.1,0c-1,0.1-2-0.6-2.1-1.7c0-0.1,0-0.1,0-0.2c-0.2-1,0.5-2.1,1.6-2.2
				C-79.7,581.9-79.6,581.9-79.5,581.9L-79.5,581.9z M-85.4,582.4c1.1-0.1,2,0.7,2,1.8c0,0,0,0.1,0,0.1c0.1,1.1-0.6,2-1.7,2.2
				c0,0-0.1,0-0.1,0c-1,0.1-2-0.7-2.1-1.7c0-0.1,0-0.1,0-0.2c-0.1-1.1,0.6-2,1.6-2.2C-85.5,582.4-85.5,582.4-85.4,582.4L-85.4,582.4
				z M-91.3,582.8c1.1,0,1.9,0.8,2,1.8c0,0,0,0.1,0,0.1c0.1,1.1-0.7,2-1.7,2.1c0,0-0.1,0-0.1,0c-1,0.1-1.9-0.7-2-1.8
				c0-0.1,0-0.1,0-0.2c-0.1-1.1,0.6-2,1.7-2.1C-91.4,582.8-91.4,582.8-91.3,582.8L-91.3,582.8z M-97.2,582.9c1.1,0,1.9,0.8,1.9,1.9
				c0,0,0,0.1,0,0.1c0.1,1.1-0.7,2-1.8,2.1c0,0-0.1,0-0.1,0c-1.1,0-1.9-0.8-2-1.8c0-0.1,0-0.1,0-0.2c-0.1-1.1,0.7-2,1.8-2.1
				C-97.3,583-97.3,583-97.2,582.9L-97.2,582.9z M-103.1,582.9c1.1,0,1.9,0.9,1.9,2c0,0,0,0.1,0,0.1c0,1.1-0.8,2-1.9,2
				c0,0-0.1,0-0.1,0c-1.1,0-1.9-0.9-1.9-1.9c0-0.1,0-0.1,0-0.2c-0.1-1.1,0.8-2,1.8-2C-103.3,582.9-103.2,582.9-103.1,582.9
				L-103.1,582.9z M-109,582.8c1.1,0.1,1.9,0.9,1.8,2c0,0,0,0.1,0,0.1c0,1.1-0.8,2-1.9,2c0,0-0.1,0-0.1,0c-1.1,0-1.9-0.9-1.8-2
				c0-0.1,0-0.1,0-0.2c0-1.1,0.8-1.9,1.9-2C-109.2,582.8-109.1,582.8-109,582.8L-109,582.8z M-115,582.4c1.1,0.1,1.8,1,1.7,2.1
				c0,0,0,0.1,0,0.1c0,1.1-0.9,1.9-2,1.9c0,0-0.1,0-0.1,0c-1-0.1-1.8-1-1.8-2c0-0.1,0-0.1,0-0.2c0-1.1,0.9-1.9,1.9-1.9
				C-115.1,582.4-115,582.4-115,582.4L-115,582.4z M-120.8,581.9c1,0.1,1.8,1.1,1.7,2.1c0,0,0,0.1,0,0.1c-0.1,1.1-1,1.9-2,1.8
				c0,0-0.1,0-0.1,0c-1-0.1-1.8-1.1-1.7-2.1c0-0.1,0-0.1,0-0.2c0-1.1,0.9-1.9,2-1.8C-120.9,581.9-120.9,581.9-120.8,581.9
				L-120.8,581.9z M-126.6,581.1c1,0.2,1.8,1.1,1.6,2.2c0,0,0,0.1,0,0.1c-0.1,1.1-1,1.9-2.1,1.8c0,0-0.1,0-0.1,0
				c-1-0.1-1.8-1.1-1.6-2.1c0-0.1,0-0.1,0-0.2c0.1-1.1,1-1.9,2.1-1.8C-126.8,581.1-126.7,581.1-126.6,581.1L-126.6,581.1z
				 M-132.4,580.1c1,0.2,1.7,1.2,1.5,2.3c0,0,0,0.1,0,0.1c-0.1,1.1-1.1,1.8-2.2,1.7c0,0-0.1,0-0.1,0c-1-0.2-1.7-1.2-1.5-2.2
				c0-0.1,0-0.1,0-0.2c0.1-1.1,1.1-1.8,2.1-1.7C-132.5,580.1-132.5,580.1-132.4,580.1L-132.4,580.1z M-138,578.9
				c1,0.3,1.6,1.3,1.4,2.3c0,0.1,0,0.1-0.1,0.2c-0.2,1.1-1.2,1.7-2.3,1.5c0,0-0.1,0-0.1,0c-1-0.2-1.7-1.3-1.4-2.3
				c0-0.1,0-0.1,0.1-0.2c0.2-1,1.2-1.7,2.2-1.5C-138.2,578.9-138.1,578.9-138,578.9L-138,578.9z M-143.5,577.3
				c1,0.3,1.5,1.4,1.2,2.4c0,0,0,0.1,0,0.1c-0.3,1-1.4,1.6-2.4,1.4c0,0-0.1,0-0.1,0c-1-0.3-1.6-1.4-1.2-2.4c0-0.1,0-0.1,0.1-0.2
				c0.3-1,1.3-1.6,2.4-1.4C-143.6,577.2-143.5,577.3-143.5,577.3L-143.5,577.3z M-148.5,575.3c0.9,0.5,1.3,1.6,0.9,2.6
				c0,0,0,0.1,0,0.1c-0.4,1-1.5,1.5-2.5,1.1c0,0-0.1,0-0.1,0c-1-0.4-1.4-1.6-1-2.5c0-0.1,0-0.1,0.1-0.2c0.4-1,1.5-1.5,2.5-1.1
				C-148.7,575.2-148.6,575.3-148.5,575.3L-148.5,575.3z M-152.8,572.8c0.9,0.6,1,1.8,0.4,2.7c0,0,0,0.1-0.1,0.1
				c-0.6,0.9-1.8,1.2-2.7,0.6c0,0-0.1,0-0.1-0.1c-0.9-0.6-1.1-1.8-0.5-2.7c0,0,0.1-0.1,0.1-0.1c0.6-0.9,1.8-1.2,2.7-0.6
				C-152.9,572.7-152.9,572.8-152.8,572.8L-152.8,572.8z M-155.6,570c0.6,0.9,0.3,2.1-0.6,2.6c0,0-0.1,0-0.1,0.1
				c-0.9,0.6-2.1,0.5-2.7-0.4c0,0,0-0.1-0.1-0.1c-0.6-0.9-0.4-2.1,0.5-2.6c0,0,0.1-0.1,0.1-0.1c0.8-0.6,2.1-0.5,2.7,0.4
				C-155.6,569.9-155.6,570-155.6,570L-155.6,570z M-44.9,582.4c0.6-0.9,1.7-1.2,2.6-0.6c0,0,0.1,0,0.1,0.1c0.9,0.5,1.3,1.7,0.8,2.6
				c0,0,0,0.1-0.1,0.1c-0.5,0.9-1.7,1.2-2.6,0.7c0,0-0.1-0.1-0.1-0.1c-0.9-0.5-1.3-1.7-0.8-2.6C-44.9,582.5-44.9,582.5-44.9,582.4
				L-44.9,582.4z M-47.6,585.1c0.9-0.6,2-0.4,2.7,0.4c0,0,0,0.1,0.1,0.1c0.7,0.8,0.6,2.1-0.2,2.7c0,0-0.1,0.1-0.1,0.1
				c-0.8,0.6-2,0.5-2.7-0.3c0,0-0.1-0.1-0.1-0.1c-0.7-0.8-0.6-2,0.2-2.7C-47.7,585.2-47.7,585.2-47.6,585.1L-47.6,585.1z
				 M-51.9,587.6c1-0.4,2.1,0,2.5,0.9c0,0,0,0.1,0,0.1c0.5,0.9,0.2,2.1-0.8,2.6c0,0-0.1,0-0.1,0.1c-0.9,0.5-2.1,0.1-2.5-0.9
				c0-0.1,0-0.1-0.1-0.2c-0.5-0.9-0.2-2.1,0.7-2.6C-52,587.6-51.9,587.6-51.9,587.6L-51.9,587.6z M-56.9,589.5
				c1-0.4,2.1,0.2,2.4,1.2c0,0.1,0,0.1,0.1,0.2c0.4,1-0.1,2.1-1.1,2.5c0,0-0.1,0-0.1,0c-1,0.4-2.1-0.2-2.4-1.1c0-0.1,0-0.1-0.1-0.2
				c-0.4-1,0.1-2.1,1-2.5C-57,589.6-57,589.6-56.9,589.5L-56.9,589.5z M-62.3,591.1c1-0.3,2.1,0.4,2.3,1.4c0,0,0,0.1,0,0.1
				c0.3,1-0.2,2.1-1.2,2.5c0,0-0.1,0-0.1,0c-1,0.3-2.1-0.3-2.3-1.3c0-0.1,0-0.1,0-0.2c-0.3-1,0.2-2.1,1.2-2.4
				C-62.5,591.2-62.4,591.2-62.3,591.1L-62.3,591.1z M-67.9,592.4c1-0.2,2,0.5,2.2,1.5c0,0,0,0.1,0,0.1c0.3,1-0.4,2.1-1.4,2.4
				c0,0-0.1,0-0.1,0c-1,0.2-2-0.4-2.3-1.5c0-0.1,0-0.1,0-0.2c-0.3-1,0.3-2.1,1.4-2.4C-68.1,592.4-68,592.4-67.9,592.4L-67.9,592.4z
				 M-73.7,593.4c1-0.2,2,0.6,2.2,1.6c0,0,0,0.1,0,0.1c0.2,1.1-0.5,2.1-1.5,2.3c0,0-0.1,0-0.1,0c-1,0.2-2-0.5-2.2-1.6
				c0-0.1,0-0.1,0-0.2c-0.2-1,0.4-2.1,1.5-2.3C-73.8,593.4-73.8,593.4-73.7,593.4L-73.7,593.4z M-79.5,594.1c1.1-0.1,2,0.7,2.1,1.7
				c0,0,0,0.1,0,0.1c0.2,1.1-0.5,2.1-1.6,2.2c0,0-0.1,0-0.1,0c-1,0.1-2-0.6-2.1-1.7c0-0.1,0-0.1,0-0.2c-0.2-1,0.5-2.1,1.6-2.2
				C-79.7,594.1-79.6,594.1-79.5,594.1L-79.5,594.1z M-85.4,594.7c1.1-0.1,2,0.7,2,1.8c0,0,0,0.1,0,0.1c0.1,1.1-0.6,2-1.7,2.2
				c0,0-0.1,0-0.1,0c-1,0.1-2-0.7-2.1-1.7c0-0.1,0-0.1,0-0.2c-0.1-1.1,0.6-2,1.6-2.2C-85.5,594.7-85.5,594.7-85.4,594.7L-85.4,594.7
				z M-91.3,595c1.1,0,1.9,0.8,2,1.8c0,0,0,0.1,0,0.1c0.1,1.1-0.7,2-1.7,2.1c0,0-0.1,0-0.1,0c-1,0.1-1.9-0.7-2-1.8
				c0-0.1,0-0.1,0-0.2c-0.1-1.1,0.6-2,1.7-2.1C-91.4,595-91.4,595-91.3,595L-91.3,595z M-97.2,595.2c1.1,0,1.9,0.8,1.9,1.9
				c0,0,0,0.1,0,0.1c0.1,1.1-0.7,2-1.8,2.1c0,0-0.1,0-0.1,0c-1.1,0-1.9-0.8-2-1.8c0-0.1,0-0.1,0-0.2c-0.1-1.1,0.7-2,1.8-2.1
				C-97.4,595.2-97.3,595.2-97.2,595.2L-97.2,595.2z M-103.1,595.2c1.1,0,1.9,0.9,1.9,2c0,0,0,0.1,0,0.1c0,1.1-0.8,2-1.9,2
				c0,0-0.1,0-0.1,0c-1.1,0-1.9-0.9-1.9-1.9c0-0.1,0-0.1,0-0.2c-0.1-1.1,0.8-2,1.8-2C-103.3,595.2-103.2,595.2-103.1,595.2
				L-103.1,595.2z M-109,595c1.1,0.1,1.9,0.9,1.8,2c0,0,0,0.1,0,0.1c0,1.1-0.8,2-1.9,2c0,0-0.1,0-0.1,0c-1.1,0-1.9-0.9-1.8-2
				c0-0.1,0-0.1,0-0.2c0-1.1,0.8-1.9,1.9-2C-109.2,595-109.1,595-109,595L-109,595z M-115,594.7c1.1,0.1,1.8,1,1.7,2.1
				c0,0,0,0.1,0,0.1c0,1.1-0.9,1.9-2,1.9c0,0-0.1,0-0.1,0c-1-0.1-1.8-1-1.8-2c0-0.1,0-0.1,0-0.2c0-1.1,0.9-1.9,1.9-1.9
				C-115.1,594.7-115,594.7-115,594.7L-115,594.7z M-120.8,594.1c1,0.1,1.8,1.1,1.7,2.1c0,0,0,0.1,0,0.1c-0.1,1.1-1,1.9-2,1.8
				c0,0-0.1,0-0.1,0c-1-0.1-1.8-1.1-1.7-2.1c0-0.1,0-0.1,0-0.2c0-1.1,0.9-1.9,2-1.8C-120.9,594.1-120.9,594.1-120.8,594.1
				L-120.8,594.1z M-126.6,593.4c1,0.2,1.8,1.1,1.6,2.2c0,0,0,0.1,0,0.1c-0.1,1.1-1,1.9-2.1,1.8c0,0-0.1,0-0.1,0
				c-1-0.1-1.8-1.1-1.6-2.1c0-0.1,0-0.1,0-0.2c0.1-1.1,1-1.9,2.1-1.8C-126.8,593.4-126.7,593.4-126.6,593.4L-126.6,593.4z
				 M-132.4,592.4c1,0.2,1.7,1.2,1.5,2.3c0,0,0,0.1,0,0.1c-0.1,1.1-1.1,1.8-2.2,1.7c0,0-0.1,0-0.1,0c-1-0.2-1.7-1.2-1.5-2.2
				c0-0.1,0-0.1,0-0.2c0.1-1.1,1.1-1.8,2.1-1.7C-132.5,592.4-132.5,592.4-132.4,592.4L-132.4,592.4z M-138,591.1
				c1,0.3,1.6,1.3,1.4,2.3c0,0.1,0,0.1-0.1,0.2c-0.2,1.1-1.2,1.7-2.3,1.5c0,0-0.1,0-0.1,0c-1-0.2-1.7-1.3-1.4-2.3
				c0-0.1,0-0.1,0.1-0.2c0.2-1,1.2-1.7,2.2-1.5C-138.2,591.1-138.1,591.1-138,591.1L-138,591.1z M-143.5,589.5
				c1,0.3,1.5,1.4,1.2,2.4c0,0,0,0.1,0,0.1c-0.3,1-1.4,1.6-2.4,1.4c0,0-0.1,0-0.1,0c-1-0.3-1.6-1.4-1.2-2.4c0-0.1,0-0.1,0.1-0.2
				c0.3-1,1.3-1.6,2.4-1.4C-143.6,589.5-143.5,589.5-143.5,589.5L-143.5,589.5z M-148.5,587.6c0.9,0.5,1.3,1.6,0.9,2.6
				c0,0,0,0.1,0,0.1c-0.4,1-1.5,1.5-2.5,1.1c0,0-0.1,0-0.1,0c-1-0.4-1.4-1.6-1-2.5c0-0.1,0-0.1,0.1-0.2c0.4-1,1.5-1.5,2.5-1.1
				C-148.7,587.5-148.6,587.5-148.5,587.6L-148.5,587.6z M-152.8,585.1c0.9,0.6,1,1.8,0.4,2.7c0,0,0,0.1-0.1,0.1
				c-0.6,0.9-1.8,1.2-2.7,0.6c0,0-0.1,0-0.1-0.1c-0.9-0.6-1.1-1.8-0.5-2.7c0,0,0.1-0.1,0.1-0.1c0.6-0.9,1.8-1.2,2.7-0.6
				C-152.9,585-152.9,585-152.8,585.1L-152.8,585.1z M-155.6,582.3c0.6,0.9,0.3,2.1-0.6,2.6c0,0-0.1,0-0.1,0.1
				c-0.9,0.6-2.1,0.5-2.7-0.4c0,0,0-0.1-0.1-0.1c-0.6-0.9-0.4-2.1,0.5-2.6c0,0,0.1-0.1,0.1-0.1c0.8-0.6,2.1-0.5,2.7,0.4
				C-155.6,582.2-155.6,582.2-155.6,582.3L-155.6,582.3z M-44.9,588.5c0.6-0.9,1.7-1.2,2.6-0.6c0,0,0.1,0,0.1,0.1
				c0.9,0.5,1.3,1.7,0.8,2.6c0,0,0,0.1-0.1,0.1c-0.5,0.9-1.7,1.2-2.6,0.7c0,0-0.1-0.1-0.1-0.1c-0.9-0.5-1.3-1.7-0.8-2.6
				C-44.9,588.6-44.9,588.6-44.9,588.5L-44.9,588.5z M-47.6,591.3c0.9-0.6,2-0.4,2.7,0.4c0,0,0,0.1,0.1,0.1c0.7,0.8,0.6,2.1-0.2,2.7
				c0,0-0.1,0.1-0.1,0.1c-0.8,0.6-2,0.5-2.7-0.3c0,0-0.1-0.1-0.1-0.1c-0.7-0.8-0.6-2,0.2-2.7C-47.7,591.3-47.7,591.3-47.6,591.3
				L-47.6,591.3z M-51.9,593.7c1-0.4,2.1,0,2.5,0.9c0,0,0,0.1,0,0.1c0.5,0.9,0.2,2.1-0.8,2.6c0,0-0.1,0-0.1,0.1
				c-0.9,0.5-2.1,0.1-2.5-0.9c0-0.1,0-0.1-0.1-0.2c-0.5-0.9-0.2-2.1,0.7-2.6C-52,593.8-51.9,593.7-51.9,593.7L-51.9,593.7z
				 M-56.9,595.7c1-0.4,2.1,0.2,2.4,1.2c0,0.1,0,0.1,0.1,0.2c0.4,1-0.1,2.1-1.1,2.5c0,0-0.1,0-0.1,0c-1,0.4-2.1-0.2-2.4-1.1
				c0-0.1,0-0.1-0.1-0.2c-0.4-1,0.1-2.1,1-2.5C-57,595.7-57,595.7-56.9,595.7L-56.9,595.7z M-62.3,597.3c1-0.3,2.1,0.4,2.3,1.4
				c0,0,0,0.1,0,0.1c0.3,1-0.2,2.1-1.2,2.5c0,0-0.1,0-0.1,0c-1,0.3-2.1-0.3-2.3-1.3c0-0.1,0-0.1,0-0.2c-0.3-1,0.2-2.1,1.2-2.4
				C-62.5,597.3-62.4,597.3-62.3,597.3L-62.3,597.3z M-67.9,598.5c1-0.2,2,0.5,2.2,1.5c0,0,0,0.1,0,0.1c0.3,1-0.4,2.1-1.4,2.4
				c0,0-0.1,0-0.1,0c-1,0.2-2-0.4-2.3-1.5c0-0.1,0-0.1,0-0.2c-0.3-1,0.3-2.1,1.4-2.4C-68.1,598.5-68,598.5-67.9,598.5L-67.9,598.5z
				 M-73.7,599.5c1-0.2,2,0.6,2.2,1.6c0,0,0,0.1,0,0.1c0.2,1.1-0.5,2.1-1.5,2.3c0,0-0.1,0-0.1,0c-1,0.2-2-0.5-2.2-1.6
				c0-0.1,0-0.1,0-0.2c-0.2-1,0.4-2.1,1.5-2.3C-73.8,599.5-73.8,599.5-73.7,599.5L-73.7,599.5z M-79.5,600.2c1.1-0.1,2,0.7,2.1,1.7
				c0,0,0,0.1,0,0.1c0.2,1.1-0.5,2.1-1.6,2.2c0,0-0.1,0-0.1,0c-1,0.1-2-0.6-2.1-1.7c0-0.1,0-0.1,0-0.2c-0.2-1,0.5-2.1,1.6-2.2
				C-79.7,600.3-79.6,600.3-79.5,600.2L-79.5,600.2z M-85.4,600.8c1.1-0.1,2,0.7,2,1.8c0,0,0,0.1,0,0.1c0.1,1.1-0.6,2-1.7,2.2
				c0,0-0.1,0-0.1,0c-1,0.1-2-0.7-2.1-1.7c0-0.1,0-0.1,0-0.2c-0.1-1.1,0.6-2,1.6-2.2C-85.5,600.8-85.5,600.8-85.4,600.8L-85.4,600.8
				z M-91.3,601.2c1.1,0,1.9,0.8,2,1.8c0,0,0,0.1,0,0.1c0.1,1.1-0.7,2-1.7,2.1c0,0-0.1,0-0.1,0c-1,0.1-1.9-0.7-2-1.8
				c0-0.1,0-0.1,0-0.2c-0.1-1.1,0.7-2,1.7-2.1C-91.4,601.2-91.4,601.2-91.3,601.2z M-97.2,601.3c1.1,0,1.9,0.8,1.9,1.9
				c0,0,0,0.1,0,0.1c0.1,1.1-0.7,2-1.8,2.1c0,0-0.1,0-0.1,0c-1.1,0-1.9-0.8-2-1.8c0-0.1,0-0.1,0-0.2c-0.1-1.1,0.7-2,1.8-2.1
				C-97.4,601.3-97.3,601.3-97.2,601.3L-97.2,601.3z M-103.1,601.3c1.1,0,1.9,0.9,1.9,2c0,0,0,0.1,0,0.1c0,1.1-0.8,2-1.9,2
				c0,0-0.1,0-0.1,0c-1.1,0-1.9-0.9-1.9-1.9c0-0.1,0-0.1,0-0.2c-0.1-1.1,0.8-2,1.8-2C-103.3,601.3-103.2,601.3-103.1,601.3
				L-103.1,601.3z M-109,601.2c1.1,0.1,1.9,1,1.8,2c0,0,0,0.1,0,0.1c0,1.1-0.8,2-1.9,2c0,0-0.1,0-0.1,0c-1.1,0-1.9-0.9-1.8-2
				c0-0.1,0-0.1,0-0.2c0-1.1,0.8-1.9,1.9-2C-109.2,601.2-109.1,601.2-109,601.2L-109,601.2z M-115,600.8c1.1,0.1,1.8,1,1.7,2.1
				c0,0,0,0.1,0,0.1c0,1.1-0.9,1.9-2,1.9c0,0-0.1,0-0.1,0c-1-0.1-1.8-1-1.8-2c0-0.1,0-0.1,0-0.2c0-1.1,0.9-1.9,1.9-1.9
				C-115.1,600.8-115,600.8-115,600.8L-115,600.8z M-120.8,600.2c1,0.1,1.8,1.1,1.7,2.1c0,0,0,0.1,0,0.1c-0.1,1.1-1,1.9-2,1.8
				c0,0-0.1,0-0.1,0c-1-0.1-1.8-1.1-1.7-2.1c0-0.1,0-0.1,0-0.2c0-1.1,0.9-1.9,2-1.8C-120.9,600.2-120.9,600.2-120.8,600.2
				L-120.8,600.2z M-126.6,599.5c1,0.2,1.8,1.1,1.6,2.2c0,0,0,0.1,0,0.1c-0.1,1.1-1,1.9-2.1,1.8c0,0-0.1,0-0.1,0
				c-1-0.1-1.8-1.1-1.6-2.1c0-0.1,0-0.1,0-0.2c0.1-1.1,1-1.9,2.1-1.8C-126.8,599.5-126.7,599.5-126.6,599.5L-126.6,599.5z
				 M-132.4,598.5c1,0.2,1.7,1.2,1.5,2.3c0,0,0,0.1,0,0.1c-0.1,1.1-1.1,1.8-2.2,1.7c0,0-0.1,0-0.1,0c-1-0.2-1.7-1.2-1.5-2.2
				c0-0.1,0-0.1,0-0.2c0.1-1.1,1.1-1.8,2.1-1.7C-132.5,598.5-132.5,598.5-132.4,598.5L-132.4,598.5z M-138,597.3
				c1,0.3,1.6,1.3,1.4,2.3c0,0.1,0,0.1-0.1,0.2c-0.2,1.1-1.2,1.7-2.3,1.5c0,0-0.1,0-0.1,0c-1-0.2-1.7-1.3-1.4-2.3
				c0-0.1,0-0.1,0.1-0.2c0.2-1,1.2-1.7,2.2-1.5C-138.2,597.2-138.1,597.2-138,597.3L-138,597.3z M-143.5,595.7
				c1,0.3,1.5,1.4,1.2,2.4c0,0,0,0.1,0,0.1c-0.3,1-1.4,1.6-2.4,1.4c0,0-0.1,0-0.1,0c-1-0.3-1.6-1.4-1.2-2.4c0-0.1,0-0.1,0.1-0.2
				c0.3-1,1.3-1.6,2.4-1.4C-143.6,595.6-143.5,595.6-143.5,595.7L-143.5,595.7z M-148.5,593.7c0.9,0.5,1.3,1.6,0.9,2.6
				c0,0,0,0.1,0,0.1c-0.4,1-1.5,1.5-2.5,1.1c0,0-0.1,0-0.1,0c-1-0.4-1.4-1.6-1-2.5c0-0.1,0-0.1,0.1-0.2c0.4-1,1.5-1.5,2.5-1.1
				C-148.7,593.6-148.6,593.7-148.5,593.7L-148.5,593.7z M-152.8,591.2c0.9,0.6,1,1.8,0.4,2.7c0,0,0,0.1-0.1,0.1
				c-0.6,0.9-1.8,1.2-2.7,0.6c0,0-0.1,0-0.1-0.1c-0.9-0.6-1.1-1.8-0.5-2.7c0,0,0.1-0.1,0.1-0.1c0.6-0.9,1.8-1.2,2.7-0.6
				C-152.9,591.1-152.9,591.2-152.8,591.2z M-155.6,588.4c0.6,0.9,0.3,2.1-0.6,2.6c0,0-0.1,0-0.1,0.1c-0.9,0.6-2.1,0.5-2.7-0.4
				c0,0,0-0.1-0.1-0.1c-0.6-0.9-0.4-2.1,0.5-2.6c0,0,0.1-0.1,0.1-0.1c0.8-0.6,2.1-0.5,2.7,0.4C-155.6,588.3-155.6,588.3-155.6,588.4
				L-155.6,588.4z M-44.9,576.2c0.6-0.9,1.7-1.2,2.6-0.6c0,0,0.1,0,0.1,0.1c0.9,0.5,1.3,1.7,0.8,2.6c0,0,0,0.1-0.1,0.1
				c-0.5,0.9-1.7,1.2-2.6,0.7c0,0-0.1-0.1-0.1-0.1c-0.9-0.5-1.3-1.7-0.8-2.6C-44.9,576.4-44.9,576.3-44.9,576.2L-44.9,576.2z
				 M-47.6,579c0.9-0.6,2-0.4,2.7,0.4c0,0,0,0.1,0.1,0.1c0.7,0.8,0.6,2.1-0.2,2.7c0,0-0.1,0.1-0.1,0.1c-0.8,0.6-2,0.5-2.7-0.3
				c0,0-0.1-0.1-0.1-0.1c-0.7-0.8-0.6-2,0.2-2.7C-47.7,579.1-47.7,579.1-47.6,579L-47.6,579z M-51.9,581.4c1-0.4,2.1,0,2.5,0.9
				c0,0,0,0.1,0,0.1c0.5,0.9,0.2,2.1-0.8,2.6c0,0-0.1,0-0.1,0.1c-0.9,0.5-2.1,0.1-2.5-0.9c0-0.1,0-0.1-0.1-0.2
				c-0.5-0.9-0.2-2.1,0.7-2.6C-52,581.5-51.9,581.5-51.9,581.4L-51.9,581.4z M-56.9,583.4c1-0.4,2.1,0.2,2.4,1.2
				c0,0.1,0,0.1,0.1,0.2c0.4,1-0.1,2.1-1.1,2.5c0,0-0.1,0-0.1,0c-1,0.4-2.1-0.2-2.4-1.1c0-0.1,0-0.1-0.1-0.2c-0.4-1,0.1-2.1,1-2.5
				C-57,583.5-57,583.5-56.9,583.4L-56.9,583.4z M-62.3,585c1-0.3,2.1,0.4,2.3,1.4c0,0,0,0.1,0,0.1c0.3,1-0.2,2.1-1.2,2.5
				c0,0-0.1,0-0.1,0c-1,0.3-2.1-0.3-2.3-1.3c0-0.1,0-0.1,0-0.2c-0.3-1,0.2-2.1,1.2-2.4C-62.5,585-62.4,585-62.3,585L-62.3,585z
				 M-67.9,586.2c1-0.2,2,0.5,2.2,1.5c0,0,0,0.1,0,0.1c0.3,1-0.3,2.1-1.4,2.4c0,0-0.1,0-0.1,0c-1,0.2-2-0.4-2.3-1.5
				c0-0.1,0-0.1,0-0.2c-0.3-1,0.3-2.1,1.4-2.4C-68.1,586.3-68,586.2-67.9,586.2L-67.9,586.2z M-73.7,587.2c1-0.2,2,0.6,2.2,1.6
				c0,0,0,0.1,0,0.1c0.2,1.1-0.5,2.1-1.5,2.3c0,0-0.1,0-0.1,0c-1,0.2-2-0.5-2.2-1.6c0-0.1,0-0.1,0-0.2c-0.2-1,0.4-2.1,1.5-2.3
				C-73.8,587.3-73.8,587.3-73.7,587.2L-73.7,587.2z M-79.5,588c1.1-0.1,2,0.7,2.1,1.7c0,0,0,0.1,0,0.1c0.2,1.1-0.5,2.1-1.6,2.2
				c0,0-0.1,0-0.1,0c-1,0.1-2-0.6-2.1-1.7c0-0.1,0-0.1,0-0.2c-0.2-1,0.5-2.1,1.6-2.2C-79.7,588-79.6,588-79.5,588L-79.5,588z
				 M-85.4,588.5c1.1-0.1,2,0.7,2,1.8c0,0,0,0.1,0,0.1c0.1,1.1-0.6,2-1.7,2.2c0,0-0.1,0-0.1,0c-1,0.1-2-0.7-2.1-1.7
				c0-0.1,0-0.1,0-0.2c-0.1-1.1,0.6-2,1.6-2.2C-85.5,588.5-85.5,588.5-85.4,588.5L-85.4,588.5z M-91.3,588.9c1.1,0,1.9,0.8,2,1.8
				c0,0,0,0.1,0,0.1c0.1,1.1-0.7,2-1.7,2.1c0,0-0.1,0-0.1,0c-1,0.1-1.9-0.7-2-1.8c0-0.1,0-0.1,0-0.2c-0.1-1.1,0.6-2,1.7-2.1
				C-91.4,588.9-91.4,588.9-91.3,588.9L-91.3,588.9z M-97.2,589.1c1.1,0,1.9,0.8,1.9,1.9c0,0,0,0.1,0,0.1c0.1,1.1-0.7,2-1.8,2.1
				c0,0-0.1,0-0.1,0c-1.1,0-1.9-0.8-2-1.8c0-0.1,0-0.1,0-0.2c-0.1-1.1,0.7-2,1.8-2.1C-97.4,589.1-97.3,589.1-97.2,589.1L-97.2,589.1
				z M-103.1,589.1c1.1,0,1.9,0.9,1.9,2c0,0,0,0.1,0,0.1c0,1.1-0.8,2-1.9,2c0,0-0.1,0-0.1,0c-1.1,0-1.9-0.9-1.9-1.9
				c0-0.1,0-0.1,0-0.2c-0.1-1.1,0.8-2,1.8-2C-103.3,589.1-103.2,589.1-103.1,589.1L-103.1,589.1z M-109,588.9c1.1,0.1,1.9,1,1.8,2
				c0,0,0,0.1,0,0.1c0,1.1-0.8,2-1.9,2c0,0-0.1,0-0.1,0c-1.1,0-1.9-0.9-1.8-2c0-0.1,0-0.1,0-0.2c0-1.1,0.8-1.9,1.9-2
				C-109.2,588.9-109.1,588.9-109,588.9L-109,588.9z M-115,588.5c1.1,0.1,1.8,1,1.7,2.1c0,0,0,0.1,0,0.1c0,1.1-0.9,1.9-2,1.9
				c0,0-0.1,0-0.1,0c-1-0.1-1.8-1-1.8-2c0-0.1,0-0.1,0-0.2c0-1.1,0.9-1.9,1.9-1.9C-115.1,588.5-115,588.5-115,588.5L-115,588.5z
				 M-120.8,588c1,0.1,1.8,1.1,1.7,2.1c0,0,0,0.1,0,0.1c-0.1,1.1-1,1.9-2,1.8c0,0-0.1,0-0.1,0c-1-0.1-1.8-1.1-1.7-2.1
				c0-0.1,0-0.1,0-0.2c0-1.1,0.9-1.9,2-1.8C-120.9,588-120.9,588-120.8,588L-120.8,588z M-126.6,587.2c1,0.2,1.8,1.1,1.6,2.2
				c0,0,0,0.1,0,0.1c-0.1,1.1-1,1.9-2.1,1.8c0,0-0.1,0-0.1,0c-1-0.1-1.8-1.1-1.6-2.1c0-0.1,0-0.1,0-0.2c0.1-1.1,1-1.9,2.1-1.8
				C-126.8,587.2-126.7,587.2-126.6,587.2L-126.6,587.2z M-132.4,586.2c1,0.2,1.7,1.2,1.5,2.3c0,0,0,0.1,0,0.1
				c-0.1,1.1-1.1,1.8-2.2,1.7c0,0-0.1,0-0.1,0c-1-0.2-1.7-1.2-1.5-2.2c0-0.1,0-0.1,0-0.2c0.1-1.1,1.1-1.8,2.1-1.7
				C-132.5,586.2-132.5,586.2-132.4,586.2L-132.4,586.2z M-138,585c1,0.3,1.6,1.3,1.4,2.3c0,0.1,0,0.1-0.1,0.2
				c-0.2,1.1-1.2,1.7-2.3,1.5c0,0-0.1,0-0.1,0c-1-0.2-1.7-1.3-1.4-2.3c0-0.1,0-0.1,0.1-0.2c0.2-1,1.2-1.7,2.2-1.5
				C-138.2,585-138.1,585-138,585L-138,585z M-143.5,583.4c1,0.3,1.5,1.4,1.2,2.4c0,0,0,0.1,0,0.1c-0.3,1-1.4,1.6-2.4,1.4
				c0,0-0.1,0-0.1,0c-1-0.3-1.6-1.4-1.2-2.4c0-0.1,0-0.1,0.1-0.2c0.3-1,1.3-1.6,2.4-1.4C-143.6,583.4-143.5,583.4-143.5,583.4
				L-143.5,583.4z M-148.5,581.4c0.9,0.5,1.3,1.6,0.9,2.6c0,0,0,0.1,0,0.1c-0.4,1-1.5,1.5-2.5,1.1c0,0-0.1,0-0.1,0
				c-1-0.4-1.4-1.6-1-2.5c0-0.1,0-0.1,0.1-0.2c0.4-1,1.5-1.5,2.5-1.1C-148.7,581.4-148.6,581.4-148.5,581.4L-148.5,581.4z
				 M-152.8,579c0.9,0.6,1,1.8,0.4,2.7c0,0,0,0.1-0.1,0.1c-0.6,0.9-1.8,1.2-2.7,0.6c0,0-0.1,0-0.1-0.1c-0.9-0.6-1.1-1.8-0.5-2.7
				c0,0,0.1-0.1,0.1-0.1c0.6-0.9,1.8-1.2,2.7-0.6C-152.9,578.9-152.9,578.9-152.8,579L-152.8,579z M-155.6,576.2
				c0.6,0.9,0.3,2.1-0.6,2.6c0,0-0.1,0-0.1,0.1c-0.9,0.6-2.1,0.5-2.7-0.4c0,0,0-0.1-0.1-0.1c-0.6-0.9-0.4-2.1,0.5-2.6
				c0,0,0.1-0.1,0.1-0.1c0.8-0.6,2.1-0.5,2.7,0.4C-155.6,576.1-155.6,576.1-155.6,576.2L-155.6,576.2z M-44.9,600.8
				c0.6-0.9,1.7-1.2,2.6-0.6c0,0,0.1,0,0.1,0.1c0.9,0.5,1.3,1.7,0.8,2.6c0,0,0,0.1-0.1,0.1c-0.5,0.9-1.7,1.2-2.6,0.7
				c0,0-0.1-0.1-0.1-0.1c-0.9-0.5-1.3-1.7-0.8-2.6C-44.9,600.9-44.9,600.9-44.9,600.8L-44.9,600.8z M-47.6,603.5
				c0.9-0.6,2-0.4,2.7,0.4c0,0,0,0.1,0.1,0.1c0.7,0.8,0.6,2.1-0.2,2.7c0,0-0.1,0.1-0.1,0.1c-0.8,0.6-2,0.5-2.7-0.3
				c0,0-0.1-0.1-0.1-0.1c-0.7-0.8-0.6-2,0.2-2.7C-47.7,603.6-47.7,603.6-47.6,603.5L-47.6,603.5z M-51.9,605.9c1-0.4,2.1,0,2.5,0.9
				c0,0,0,0.1,0,0.1c0.5,0.9,0.2,2.1-0.8,2.6c0,0-0.1,0-0.1,0.1c-0.9,0.5-2.1,0.1-2.5-0.9c0-0.1,0-0.1-0.1-0.2
				c-0.5-0.9-0.2-2.1,0.7-2.6C-52,606-51.9,606-51.9,605.9L-51.9,605.9z M-56.9,607.9c1-0.4,2.1,0.2,2.4,1.2c0,0.1,0,0.1,0.1,0.2
				c0.4,1-0.1,2.1-1.1,2.5c0,0-0.1,0-0.1,0c-1,0.4-2.1-0.2-2.4-1.1c0-0.1,0-0.1-0.1-0.2c-0.4-1,0.1-2.1,1-2.5
				C-57,608-57,608-56.9,607.9L-56.9,607.9z M-62.3,609.5c1-0.3,2.1,0.4,2.3,1.4c0,0,0,0.1,0,0.1c0.3,1-0.2,2.1-1.2,2.5
				c0,0-0.1,0-0.1,0c-1,0.3-2.1-0.3-2.3-1.3c0-0.1,0-0.1,0-0.2c-0.3-1,0.2-2.1,1.2-2.4C-62.5,609.5-62.4,609.5-62.3,609.5
				L-62.3,609.5z M-67.9,610.8c1-0.2,2,0.5,2.2,1.5c0,0,0,0.1,0,0.1c0.3,1-0.4,2.1-1.4,2.4c0,0-0.1,0-0.1,0c-1,0.2-2-0.4-2.3-1.5
				c0-0.1,0-0.1,0-0.2c-0.3-1,0.3-2.1,1.4-2.4C-68.1,610.8-68,610.8-67.9,610.8L-67.9,610.8z M-73.7,611.7c1-0.2,2,0.6,2.2,1.6
				c0,0,0,0.1,0,0.1c0.2,1.1-0.5,2.1-1.5,2.3c0,0-0.1,0-0.1,0c-1,0.2-2-0.5-2.2-1.6c0-0.1,0-0.1,0-0.2c-0.2-1,0.4-2.1,1.5-2.3
				C-73.8,611.8-73.8,611.8-73.7,611.7L-73.7,611.7z M-79.5,612.5c1.1-0.1,2,0.7,2.1,1.7c0,0,0,0.1,0,0.1c0.2,1.1-0.5,2.1-1.6,2.2
				c0,0-0.1,0-0.1,0c-1,0.1-2-0.6-2.1-1.7c0-0.1,0-0.1,0-0.2c-0.2-1,0.5-2.1,1.6-2.2C-79.7,612.5-79.6,612.5-79.5,612.5L-79.5,612.5
				z M-85.4,613c1.1-0.1,2,0.7,2,1.8c0,0,0,0.1,0,0.1c0.1,1.1-0.6,2-1.7,2.2c0,0-0.1,0-0.1,0c-1,0.1-2-0.7-2.1-1.7
				c0-0.1,0-0.1,0-0.2c-0.1-1.1,0.6-2,1.6-2.2C-85.5,613.1-85.5,613-85.4,613L-85.4,613z M-91.3,613.4c1.1,0,1.9,0.8,2,1.8
				c0,0,0,0.1,0,0.1c0.1,1.1-0.7,2-1.7,2.1c0,0-0.1,0-0.1,0c-1,0.1-1.9-0.7-2-1.8c0-0.1,0-0.1,0-0.2c-0.1-1.1,0.6-2,1.7-2.1
				C-91.4,613.4-91.4,613.4-91.3,613.4L-91.3,613.4z M-97.2,613.6c1.1,0,1.9,0.8,1.9,1.9c0,0,0,0.1,0,0.1c0.1,1.1-0.7,2-1.8,2.1
				c0,0-0.1,0-0.1,0c-1.1,0-1.9-0.8-2-1.8c0-0.1,0-0.1,0-0.2c-0.1-1.1,0.7-2,1.8-2.1C-97.4,613.6-97.3,613.6-97.2,613.6L-97.2,613.6
				z M-103.1,613.6c1.1,0,1.9,0.9,1.9,2c0,0,0,0.1,0,0.1c0,1.1-0.8,2-1.9,2c0,0-0.1,0-0.1,0c-1.1,0-1.9-0.9-1.9-1.9
				c0-0.1,0-0.1,0-0.2c-0.1-1.1,0.8-2,1.8-2C-103.3,613.6-103.2,613.6-103.1,613.6L-103.1,613.6z M-109,613.4c1.1,0.1,1.9,1,1.8,2
				c0,0,0,0.1,0,0.1c0,1.1-0.8,2-1.9,2c0,0-0.1,0-0.1,0c-1.1,0-1.9-0.9-1.8-2c0-0.1,0-0.1,0-0.2c0-1.1,0.8-1.9,1.9-2
				C-109.2,613.4-109.1,613.4-109,613.4L-109,613.4z M-115,613c1.1,0.1,1.8,1,1.7,2.1c0,0,0,0.1,0,0.1c0,1.1-0.9,1.9-2,1.9
				c0,0-0.1,0-0.1,0c-1-0.1-1.8-1-1.8-2c0-0.1,0-0.1,0-0.2c0-1.1,0.9-1.9,1.9-1.9C-115.1,613-115,613-115,613L-115,613z
				 M-120.8,612.5c1,0.1,1.8,1.1,1.7,2.1c0,0,0,0.1,0,0.1c-0.1,1.1-1,1.9-2,1.8c0,0-0.1,0-0.1,0c-1-0.1-1.8-1.1-1.7-2.1
				c0-0.1,0-0.1,0-0.2c0-1.1,0.9-1.9,2-1.8C-120.9,612.5-120.9,612.5-120.8,612.5L-120.8,612.5z M-126.6,611.8
				c1,0.2,1.8,1.1,1.6,2.2c0,0,0,0.1,0,0.1c-0.1,1.1-1,1.9-2.1,1.8c0,0-0.1,0-0.1,0c-1-0.1-1.8-1.1-1.6-2.1c0-0.1,0-0.1,0-0.2
				c0.1-1.1,1-1.9,2.1-1.8C-126.8,611.7-126.7,611.7-126.6,611.8L-126.6,611.8z M-132.4,610.8c1,0.2,1.7,1.2,1.5,2.3
				c0,0,0,0.1,0,0.1c-0.1,1.1-1.1,1.8-2.2,1.7c0,0-0.1,0-0.1,0c-1-0.2-1.7-1.2-1.5-2.2c0-0.1,0-0.1,0-0.2c0.1-1.1,1.1-1.8,2.1-1.7
				C-132.5,610.7-132.5,610.7-132.4,610.8L-132.4,610.8z M-138,609.5c1,0.3,1.6,1.3,1.4,2.3c0,0.1,0,0.1-0.1,0.2
				c-0.2,1.1-1.2,1.7-2.3,1.5c0,0-0.1,0-0.1,0c-1-0.2-1.7-1.3-1.4-2.3c0-0.1,0-0.1,0.1-0.2c0.2-1,1.2-1.7,2.2-1.5
				C-138.2,609.5-138.1,609.5-138,609.5L-138,609.5z M-143.5,607.9c1,0.3,1.5,1.4,1.2,2.4c0,0,0,0.1,0,0.1c-0.3,1-1.4,1.6-2.4,1.4
				c0,0-0.1,0-0.1,0c-1-0.3-1.6-1.4-1.2-2.4c0-0.1,0-0.1,0.1-0.2c0.3-1,1.3-1.6,2.4-1.4C-143.6,607.9-143.5,607.9-143.5,607.9
				L-143.5,607.9z M-148.5,605.9c0.9,0.5,1.3,1.6,0.9,2.6c0,0,0,0.1,0,0.1c-0.4,1-1.5,1.5-2.5,1.1c0,0-0.1,0-0.1,0
				c-0.9-0.5-1.3-1.6-0.9-2.5c0,0,0-0.1,0-0.1c0.4-1,1.5-1.5,2.5-1.1C-148.6,605.9-148.6,605.9-148.5,605.9L-148.5,605.9z
				 M-152.8,603.5c0.9,0.6,1,1.8,0.4,2.7c0,0,0,0.1-0.1,0.1c-0.6,0.9-1.8,1.2-2.7,0.6c0,0-0.1,0-0.1-0.1c-0.9-0.6-1.1-1.8-0.5-2.7
				c0,0,0.1-0.1,0.1-0.1c0.6-0.9,1.8-1.2,2.7-0.6C-152.9,603.4-152.9,603.4-152.8,603.5L-152.8,603.5z M-155.6,600.7
				c0.6,0.9,0.3,2.1-0.6,2.6c0,0-0.1,0-0.1,0.1c-0.9,0.6-2.1,0.5-2.7-0.4c0,0,0-0.1-0.1-0.1c-0.6-0.9-0.4-2.1,0.5-2.6
				c0,0,0.1-0.1,0.2-0.1c0.8-0.6,2.1-0.5,2.7,0.4C-155.6,600.5-155.6,600.6-155.6,600.7L-155.6,600.7z M-44.9,594.7
				c0.6-0.9,1.7-1.2,2.6-0.6c0,0,0.1,0,0.1,0.1c0.9,0.5,1.3,1.7,0.8,2.6c0,0,0,0.1-0.1,0.1c-0.5,0.9-1.7,1.2-2.6,0.7
				c0,0-0.1-0.1-0.1-0.1c-0.9-0.5-1.3-1.7-0.8-2.6C-44.9,594.8-44.9,594.7-44.9,594.7L-44.9,594.7z M-47.6,597.4
				c0.9-0.6,2-0.4,2.7,0.4c0,0,0,0.1,0.1,0.1c0.7,0.8,0.6,2.1-0.2,2.7c0,0-0.1,0.1-0.1,0.1c-0.8,0.6-2,0.5-2.7-0.3
				c0,0-0.1-0.1-0.1-0.1c-0.7-0.8-0.6-2,0.2-2.7C-47.7,597.5-47.7,597.4-47.6,597.4L-47.6,597.4z M-51.9,599.8c1-0.4,2.1,0,2.5,0.9
				c0,0,0,0.1,0,0.1c0.5,0.9,0.2,2.1-0.8,2.6c0,0-0.1,0-0.1,0.1c-0.9,0.5-2.1,0.1-2.5-0.9c0-0.1,0-0.1-0.1-0.2
				c-0.5-0.9-0.2-2.1,0.7-2.6C-52,599.9-51.9,599.9-51.9,599.8L-51.9,599.8z M-56.9,601.8c1-0.4,2.1,0.2,2.4,1.2
				c0,0.1,0,0.1,0.1,0.2c0.4,1-0.1,2.1-1.1,2.5c0,0-0.1,0-0.1,0c-1,0.4-2.1-0.2-2.4-1.1c0-0.1,0-0.1-0.1-0.2c-0.4-1,0.1-2.1,1-2.5
				C-57,601.9-57,601.8-56.9,601.8L-56.9,601.8z M-62.3,603.4c1-0.3,2.1,0.4,2.3,1.4c0,0,0,0.1,0,0.1c0.3,1-0.2,2.1-1.2,2.5
				c0,0-0.1,0-0.1,0c-1,0.3-2.1-0.3-2.3-1.3c0-0.1,0-0.1,0-0.2c-0.3-1,0.2-2.1,1.2-2.4C-62.5,603.4-62.4,603.4-62.3,603.4
				L-62.3,603.4z M-67.9,604.6c1-0.2,2,0.5,2.2,1.5c0,0,0,0.1,0,0.1c0.3,1-0.4,2.1-1.4,2.4c0,0,0,0-0.1,0c-1,0.2-2-0.4-2.3-1.5
				c0-0.1,0-0.1,0-0.2c-0.3-1,0.3-2.1,1.4-2.4C-68.1,604.6-68,604.6-67.9,604.6L-67.9,604.6z M-73.7,605.6c1-0.2,2,0.6,2.2,1.6
				c0,0,0,0.1,0,0.1c0.2,1.1-0.5,2.1-1.5,2.3c0,0-0.1,0-0.1,0c-1,0.2-2-0.5-2.2-1.6c0-0.1,0-0.1,0-0.2c-0.2-1,0.4-2.1,1.5-2.3
				C-73.8,605.6-73.8,605.6-73.7,605.6L-73.7,605.6z M-79.5,606.4c1.1-0.1,2,0.7,2.1,1.7c0,0,0,0.1,0,0.1c0.2,1.1-0.5,2.1-1.6,2.2
				c0,0-0.1,0-0.1,0c-1,0.1-2-0.6-2.1-1.7c0-0.1,0-0.1,0-0.2c-0.2-1,0.5-2.1,1.6-2.2C-79.7,606.4-79.6,606.4-79.5,606.4L-79.5,606.4
				z M-85.4,606.9c1.1-0.1,2,0.7,2,1.8c0,0,0,0.1,0,0.1c0.1,1.1-0.6,2-1.7,2.2c0,0-0.1,0-0.1,0c-1,0.1-2-0.7-2.1-1.7
				c0-0.1,0-0.1,0-0.2c-0.1-1.1,0.6-2,1.6-2.2C-85.5,606.9-85.5,606.9-85.4,606.9L-85.4,606.9z M-91.3,607.3c1.1,0,1.9,0.8,2,1.8
				c0,0,0,0.1,0,0.1c0.1,1.1-0.7,2-1.7,2.1c0,0-0.1,0-0.1,0c-1,0.1-1.9-0.7-2-1.8c0-0.1,0-0.1,0-0.2c-0.1-1.1,0.6-2,1.7-2.1
				C-91.4,607.3-91.4,607.3-91.3,607.3L-91.3,607.3z M-97.2,607.4c1.1,0,1.9,0.8,1.9,1.9c0,0,0,0.1,0,0.1c0.1,1.1-0.7,2-1.8,2.1
				c0,0-0.1,0-0.1,0c-1.1,0-1.9-0.8-2-1.8c0-0.1,0-0.1,0-0.2c-0.1-1.1,0.7-2,1.8-2.1C-97.4,607.5-97.3,607.4-97.2,607.4L-97.2,607.4
				z M-103.1,607.4c1.1,0,1.9,0.9,1.9,2c0,0,0,0.1,0,0.1c0,1.1-0.8,2-1.9,2c0,0-0.1,0-0.1,0c-1.1,0-1.9-0.9-1.9-1.9
				c0-0.1,0-0.1,0-0.2c-0.1-1.1,0.8-2,1.8-2C-103.3,607.4-103.2,607.4-103.1,607.4L-103.1,607.4z M-109,607.3c1.1,0.1,1.9,0.9,1.8,2
				c0,0,0,0.1,0,0.1c0,1.1-0.8,2-1.9,2c0,0-0.1,0-0.1,0c-1.1,0-1.9-0.9-1.8-2c0-0.1,0-0.1,0-0.2c0-1.1,0.8-1.9,1.9-2
				C-109.2,607.3-109.1,607.3-109,607.3L-109,607.3z M-115,606.9c1.1,0.1,1.8,1,1.7,2.1c0,0,0,0.1,0,0.1c0,1.1-0.9,1.9-2,1.9
				c0,0-0.1,0-0.1,0c-1-0.1-1.8-1-1.8-2c0-0.1,0-0.1,0-0.2c0-1.1,0.9-1.9,1.9-1.9C-115.1,606.9-115,606.9-115,606.9L-115,606.9z
				 M-120.8,606.4c1,0.1,1.8,1.1,1.7,2.1c0,0,0,0.1,0,0.1c-0.1,1.1-1,1.9-2,1.8c0,0-0.1,0-0.1,0c-1-0.1-1.8-1.1-1.7-2.1
				c0-0.1,0-0.1,0-0.2c0-1.1,0.9-1.9,2-1.8C-120.9,606.4-120.9,606.4-120.8,606.4L-120.8,606.4z M-126.6,605.6
				c1,0.2,1.8,1.1,1.6,2.2c0,0,0,0.1,0,0.1c-0.1,1.1-1,1.9-2.1,1.8c0,0-0.1,0-0.1,0c-1-0.1-1.8-1.1-1.6-2.1c0-0.1,0-0.1,0-0.2
				c0.1-1.1,1-1.9,2.1-1.8C-126.8,605.6-126.7,605.6-126.6,605.6L-126.6,605.6z M-132.4,604.6c1,0.2,1.7,1.2,1.5,2.3
				c0,0,0,0.1,0,0.1c-0.1,1.1-1.1,1.8-2.2,1.7c0,0-0.1,0-0.1,0c-1-0.2-1.7-1.2-1.5-2.2c0-0.1,0-0.1,0-0.2c0.1-1.1,1.1-1.8,2.1-1.7
				C-132.5,604.6-132.5,604.6-132.4,604.6L-132.4,604.6z M-138,603.4c1,0.3,1.6,1.3,1.4,2.3c0,0.1,0,0.1-0.1,0.2
				c-0.2,1.1-1.2,1.7-2.3,1.5c0,0-0.1,0-0.1,0c-1-0.2-1.7-1.3-1.4-2.3c0-0.1,0-0.1,0.1-0.2c0.2-1,1.2-1.7,2.2-1.5
				C-138.2,603.4-138.1,603.4-138,603.4L-138,603.4z M-143.5,601.8c1,0.3,1.5,1.4,1.2,2.4c0,0,0,0.1,0,0.1c-0.3,1-1.4,1.6-2.4,1.4
				c0,0-0.1,0-0.1,0c-1-0.3-1.6-1.4-1.2-2.4c0-0.1,0-0.1,0.1-0.2c0.3-1,1.3-1.6,2.4-1.4C-143.6,601.8-143.5,601.8-143.5,601.8
				L-143.5,601.8z M-148.5,599.8c0.9,0.5,1.3,1.6,0.9,2.6c0,0,0,0.1,0,0.1c-0.4,1-1.5,1.5-2.5,1.1c0,0-0.1,0-0.1,0
				c-1-0.4-1.4-1.6-1-2.5c0-0.1,0-0.1,0.1-0.2c0.4-1,1.5-1.5,2.5-1.1C-148.7,599.7-148.6,599.8-148.5,599.8L-148.5,599.8z
				 M-152.8,597.3c0.9,0.6,1,1.8,0.4,2.7c0,0,0,0.1-0.1,0.1c-0.6,0.9-1.8,1.2-2.7,0.6c0,0-0.1,0-0.1-0.1c-0.9-0.6-1.1-1.8-0.5-2.7
				c0,0,0.1-0.1,0.1-0.1c0.6-0.9,1.8-1.2,2.7-0.6C-152.9,597.2-152.9,597.3-152.8,597.3L-152.8,597.3z M-155.6,594.5
				c0.6,0.9,0.3,2.1-0.6,2.6c0,0-0.1,0-0.1,0.1c-0.9,0.6-2.1,0.5-2.7-0.4c0,0,0-0.1-0.1-0.1c-0.6-0.9-0.4-2.1,0.5-2.6
				c0,0,0.1-0.1,0.1-0.1c0.8-0.6,2.1-0.5,2.7,0.4C-155.6,594.4-155.6,594.5-155.6,594.5L-155.6,594.5z"/>
		</g>
	</g>
</g>
<g>
	<path fill="#FFFFFF" stroke="#646464" stroke-width="3.152" stroke-miterlimit="10" d="M-245.3,574.7c2.5-31.7,7.2-76.6,7.2-76.6
		l1.1-14c1.1-7.4,23.1-10.2,49.2-6.4s46.3,13,45.2,20.4c0,0,4.7,44.7,7.2,76.4c-12.1,4.6-33.5,7.6-55.3,7.6
		C-212.1,582.1-233.1,579.2-245.3,574.7L-245.3,574.7z"/>
	<path fill="#C8C8C8" stroke="#646464" stroke-width="3.152" stroke-miterlimit="10" d="M-143.3,631.5c-0.7,1-1.3,2-2,2.8
		c-5.4,6.7-8.4,7.6-8.4,7.6c-8.6,3-21.8,5-36.7,5c-14.7,0-27.8-1.9-36.4-4.9c0,0-3-1-8.4-7.7c-0.7-0.8-1.3-1.7-1.9-2.6
		c12,3,29.5,4.9,46.6,4.9C-173.2,636.5-155.3,634.6-143.3,631.5L-143.3,631.5z"/>
	<path fill="#FFFFFF" stroke="#646464" stroke-width="3.152" stroke-miterlimit="10" d="M-245.3,574.7c12.2,4.5,33.2,7.4,54.6,7.4
		c21.8,0,43.2-3,55.3-7.6c1.1,14.2,1.8,25.7,1.4,29.4c-1.1,10.5-4.8,20.7-9.3,27.6c-12,3.2-29.9,5.1-47.4,5.1
		c-17.1,0-34.6-1.9-46.6-4.9c-4.6-6.9-8.3-17.1-9.4-27.7C-247,600.2-246.4,588.7-245.3,574.7z"/>
	
		<ellipse transform="matrix(-0.9892 -0.1464 0.1464 -0.9892 -449.4225 949.0721)" fill="#FFFFFF" stroke="#646464" stroke-width="3.152" stroke-miterlimit="10" cx="-189.8" cy="491.1" rx="47.7" ry="13.5"/>
	
		<ellipse transform="matrix(-0.9956 -9.323949e-02 9.323949e-02 -0.9956 -401.4209 961.0835)" fill="#34E3AB" cx="-178.3" cy="489.9" rx="3.5" ry="0.9"/>
	
		<ellipse transform="matrix(-0.9956 -9.323949e-02 9.323949e-02 -0.9956 -440.9431 958.1927)" fill="#1D71B8" cx="-198.1" cy="489.4" rx="3.5" ry="0.9"/>
	
		<ellipse transform="matrix(-0.9342 -0.3567 0.3567 -0.9342 -544.5784 871.1736)" fill="#1EBDCF" cx="-192" cy="485.8" rx="2.7" ry="1.1"/>
	
		<ellipse transform="matrix(-0.9564 -0.292 0.292 -0.9564 -504.6841 911.8478)" fill="#A8E3E5" cx="-184.3" cy="493.6" rx="2.8" ry="1.1"/>
</g>
<g>
	<path fill="#C8C8C8" d="M28.6,514.7c0,0.4-0.3,0.7-0.7,0.7H19c-0.4,0-0.7-0.3-0.7-0.7v-12.4c0-0.4,0.3-0.7,0.7-0.7h8.9
		c0.4,0,0.7,0.3,0.7,0.7V514.7z"/>
</g>
<path fill="#FFFFFF" stroke="#646464" stroke-width="3.152" stroke-miterlimit="10" d="M27.2,634.6c0,6.7-5.5,12.2-12.2,12.2h-62.1
	c-6.7,0-12.2-5.5-12.2-12.2V476.8c0-6.7,5.5-12.2,12.2-12.2H15c6.7,0,12.2,5.5,12.2,12.2V634.6z"/>
<g>
	<path fill="none" stroke="#646464" stroke-width="2" stroke-miterlimit="10" d="M21,619.3c0,0.4-0.3,0.7-0.7,0.7h-73.7
		c-0.4,0-0.7-0.3-0.7-0.7V486.7c0-0.4,0.3-0.7,0.7-0.7h73.7c0.4,0,0.7,0.3,0.7,0.7V619.3z"/>
</g>
<circle fill="#C8C8C8" cx="-30.7" cy="474.5" r="1.6"/>
<circle fill="#C8C8C8" cx="-16.2" cy="633.3" r="7.1"/>
<circle fill="#FFFFFF" cx="-16.2" cy="633.3" r="5.9"/>
<path fill="#C8C8C8" d="M-10,474.3c0,0.4-0.3,0.7-0.7,0.7h-12.6c-0.4,0-0.7-0.3-0.7-0.7v-0.6c0-0.4,0.3-0.7,0.7-0.7h12.6
	c0.4,0,0.7,0.3,0.7,0.7V474.3z"/>
<g>
	<g transform="translate(0,-952.36218)">
		<path fill="#969696" d="M-292.8,1579.7c-0.4-0.7-1.4-1.7-2.9-2.6c-1.5-2.6-4.1-5-7.3-6.9l0,0c-3.3-1.9-6.8-2.8-9.9-2.7
			c-3,0.1-5.7,1.2-7,3.5c-0.8,1.3-0.9,2.9-0.6,4.4l-18,5.3c-0.2,0.1-0.4,0.2-0.6,0.5l-2.2,3.5c-0.3,0.5-0.2,1.1,0.3,1.4l4.4,2.9
			c0,0,0.1,0,0.1,0c0,0,0,0,0,0c0,0,0.1,0,0.1,0c0,0,0.1,0,0.1,0c0,0,0.1,0,0.1,0c0.1,0,0.2,0,0.3,0c0,0,0.1,0,0.1,0c0,0,0,0,0.1,0
			c0,0,0.1,0,0.1,0l4.5-1.4c0,0,0,0,0,0l0.1,0c0.2,0,0.4-0.1,0.6-0.3c0,0,0,0,0,0c0,0,0,0,0,0c0,0,0,0,0,0c0,0,0-0.1,0-0.1
			c0-0.1,0.1-0.2,0.1-0.2l1-2.1l1.9,0.3c0.3,0.1,0.7-0.1,0.9-0.3l1-1.1l2.8,1.2c0,0,0,0,0.1,0c0.1,0,0.2,0.1,0.3,0.1c0,0,0,0,0.1,0
			c0,0,0,0,0,0c0,0,0.1,0,0.1,0c0,0,0,0,0,0c0,0,0,0,0.1,0c0,0,0,0,0,0c0,0,0.1,0,0.1,0c0.1,0,0.2-0.1,0.3-0.1l6-1.8
			c1.1,0.9,2.3,1.8,3.6,2.6c3.3,1.9,6.8,2.8,9.9,2.8c3-0.1,5.7-1.2,7-3.5c0.6-1.1,0.8-2.4,0.7-3.7c2.2,3.9,1,8.2-1.9,11
			 M-304,1572.1c1.8,1,3.3,2.2,4.5,3.5c-0.7-0.1-1.4-0.2-2.1-0.2c-0.7-0.9-1.6-1.7-2.8-2.4c-1.3-0.7-2.7-1.1-3.9-1.2
			c-1.2,0-2.5,0.4-3.1,1.4c-0.6,1.1-0.3,2.4,0.4,3.4c0.7,1,1.7,2,3,2.8s2.7,1.1,3.9,1.2c1.2,0,2.5-0.4,3.1-1.5
			c0.3-0.5,0.4-1.1,0.3-1.7c1.1,0.1,2.1,0.4,3,0.9c0.2,0.1,0.3,0.2,0.5,0.3c1.1,2.1,1.3,4,0.5,5.5c-0.8,1.5-2.7,2.4-5.3,2.4
			c-2.6,0.1-5.8-0.8-8.8-2.5c-1.4-0.8-2.6-1.7-3.7-2.7c0,0,0,0,0,0c0,0,0,0,0,0c-0.1,0-0.1-0.1-0.2-0.1c-0.1,0-0.1-0.1-0.2-0.1
			c0,0-0.1,0-0.2,0c0,0,0,0-0.1,0c0,0,0,0-0.1,0c0,0,0,0,0,0c0,0,0,0-0.1,0c0,0,0,0-0.1,0c0,0,0,0,0,0c0,0,0,0-0.1,0c0,0,0,0,0,0
			c0,0,0,0,0,0c0,0,0,0-0.1,0l-6.4,1.9l-3.1-1.3c-0.4-0.2-0.9-0.1-1.2,0.3l-1.1,1.2l-2.1-0.4c-0.5-0.1-0.9,0.1-1.1,0.6l-1.2,2.5
			l-4,1.2l-3.2-2.1l1.4-2.3l18.6-5.5c0.5-0.2,0.9-0.7,0.7-1.3c0,0,0,0,0,0c-0.5-1.5-0.4-2.8,0.2-3.8c0.8-1.5,2.7-2.4,5.3-2.4
			S-307.1,1570.3-304,1572.1L-304,1572.1z M-305.4,1574.8c0.6,0.3,1,0.7,1.4,1c-0.3,0.1-0.7,0.2-1,0.4c-0.5,0.2-0.8,0.8-0.5,1.4
			c0.2,0.5,0.8,0.8,1.4,0.5c0,0,0,0,0,0c0.5-0.2,0.9-0.4,1.4-0.5c0,0.2,0,0.4,0,0.5c-0.1,0.2-0.5,0.4-1.3,0.4
			c-0.8,0-1.9-0.3-2.9-0.9c-1.1-0.6-1.9-1.4-2.3-2.1c-0.4-0.7-0.4-1.1-0.3-1.3c0.1-0.2,0.5-0.4,1.3-0.4S-306.4,1574.2-305.4,1574.8z
			"/>
	</g>
	<ellipse fill="#FFFFFF" cx="-302.6" cy="631.7" rx="13.6" ry="7.8"/>
	<g transform="translate(0,-952.36218)">
		<path fill="#969696" d="M-292.9,1577.8c-2.6-1.5-6-2.4-9.7-2.4l0,0c-3.8,0-7.3,0.9-9.9,2.5c-2.6,1.5-4.4,3.8-4.4,6.5
			c0,1.5,0.6,2.9,1.7,4.2l-13.1,13.5c-0.2,0.2-0.3,0.4-0.3,0.7l-0.2,4.1c0,0.6,0.4,1,1,1.1l5.3,0.3c0,0,0.1,0,0.1,0c0,0,0,0,0,0
			c0,0,0.1,0,0.1,0c0,0,0.1,0,0.1,0c0,0,0.1,0,0.1,0c0.1,0,0.2-0.1,0.3-0.1c0,0,0.1-0.1,0.1-0.1c0,0,0,0,0,0c0,0,0.1-0.1,0.1-0.1
			l3.3-3.4c0,0,0,0,0,0l0,0c0.2-0.1,0.3-0.3,0.4-0.6c0,0,0,0,0,0c0,0,0,0,0,0c0,0,0,0,0-0.1c0,0,0-0.1,0-0.1c0-0.1,0-0.2,0-0.3
			l-0.1-2.3l1.8-0.6c0.3-0.1,0.6-0.4,0.7-0.7l0.3-1.5l3-0.4c0,0,0,0,0.1,0c0.1,0,0.2,0,0.3-0.1c0,0,0,0,0,0c0,0,0,0,0,0
			c0,0,0.1,0,0.1,0c0,0,0,0,0,0c0,0,0,0,0.1,0c0,0,0,0,0,0c0,0,0,0,0.1,0c0.1-0.1,0.2-0.2,0.2-0.2l4.4-4.5c1.4,0.3,2.9,0.4,4.4,0.4
			c3.8,0,7.3-0.9,9.9-2.5c2.6-1.5,4.4-3.8,4.4-6.5c0-1.3-0.4-2.5-1.2-3.6 M-302.6,1577.5c2,0,4,0.3,5.7,0.8
			c-0.6,0.2-1.3,0.5-1.9,0.9c-1-0.5-2.3-0.7-3.6-0.7c-1.5,0-2.9,0.3-4,0.9c-1.1,0.6-2,1.5-2,2.8c0,1.3,0.9,2.2,2,2.8
			c1.1,0.6,2.5,0.9,4,0.9s2.9-0.3,4-0.9c1.1-0.6,2-1.5,2-2.8c0-0.6-0.2-1.1-0.6-1.6c1-0.5,2-0.7,3-0.7c0.2,0,0.4,0,0.6,0
			c2,1.3,3.1,2.9,3.1,4.5c0,1.7-1.2,3.4-3.4,4.7c-2.2,1.3-5.4,2.2-8.9,2.2c-1.6,0-3.1-0.2-4.5-0.5c0,0,0,0,0,0c0,0,0,0-0.1,0
			c-0.1,0-0.1,0-0.2,0c-0.1,0-0.1,0-0.2,0c0,0-0.1,0-0.1,0c0,0,0,0,0,0c0,0,0,0,0,0c0,0,0,0,0,0c0,0,0,0,0,0c0,0,0,0,0,0
			c0,0,0,0,0,0c0,0,0,0,0,0c0,0,0,0,0,0c0,0,0,0,0,0c0,0,0,0,0,0.1l-4.6,4.8l-3.4,0.4c-0.4,0.1-0.8,0.4-0.9,0.8l-0.4,1.6l-2,0.7
			c-0.4,0.2-0.7,0.6-0.7,1l0.2,2.8l-2.9,3l-3.8-0.2l0.1-2.7l13.5-14c0.4-0.4,0.4-1.1,0-1.5c0,0,0,0,0,0c-1.1-1.1-1.7-2.2-1.7-3.4
			c0-1.7,1.2-3.4,3.4-4.7S-306.1,1577.5-302.6,1577.5L-302.6,1577.5z M-302.5,1580.5c0.6,0,1.2,0.1,1.7,0.2
			c-0.2,0.3-0.5,0.5-0.7,0.8c-0.3,0.5-0.3,1.1,0.2,1.5s1.1,0.3,1.5-0.2c0,0,0,0,0,0c0.3-0.4,0.6-0.8,1-1.1c0.2,0.2,0.2,0.3,0.2,0.4
			c0,0.2-0.2,0.6-0.9,1s-1.8,0.7-3,0.7s-2.3-0.3-3-0.7c-0.7-0.4-0.9-0.8-0.9-1c0-0.2,0.2-0.6,0.9-1
			C-304.8,1580.8-303.7,1580.5-302.5,1580.5z"/>
	</g>
</g>
<polygon fill="#FFFFFF" points="95.7,610.8 95.7,576.7 99.4,569.6 109,566.1 116.5,569.1 120.9,576.1 120.9,583.5 120.9,603.1 
	120.9,610.8 "/>
<g>
	<polygon fill="#FFFFFF" points="87.5,611.9 131.1,611.9 126.1,646 91.7,646 	"/>
	<g>
		<path fill="#C8C8C8" d="M94,609.2h-9.8l5.9,39.3h37.9l5.9-39.3h-9.9v0.1 M100.4,609.3h-2.1 M119.5,609.2h-14.7 M124.2,643.8H93.7
			l-3.2-21H116c1.2,0,2.2-1.1,2.2-2.4s-1-2.4-2.2-2.4H89.7l-0.6-3.9H102c0.2,0,0.4,0.1,0.4,0.1c0.2,0,0.4,0,0.4-0.1h25.5
			L124.2,643.8z"/>
	</g>
	<g>
		<path fill="#969696" d="M123.9,609.2L123.9,609.2v-29.7c0-4-1.3-7.7-3.6-10.5l1-1.1c0.9-1,0.9-2.5,0-3.4c-0.9-1-2.3-1-3.1,0
			L117,566c-1.8-1.2-3.8-2-6-2.3V560c0-1.3-1-2.4-2.2-2.4c-1.2,0-2.2,1.1-2.2,2.4v3.7c-2.1,0.3-4,1.1-5.8,2.2l-1.1-1.2
			c-0.9-1-2.3-1-3.1,0c-0.9,1-0.9,2.5,0,3.4l0.9,1c-2.3,2.8-3.6,6.4-3.6,10.5v29.7 M98.4,579.5c0-6.1,4.6-11.1,10.2-11.1h0.9
			c5.6,0,10.2,5,10.2,11.1v29.7h-14.7v-23.8c0-2,0-8.2,1.7-9.7c1-0.9,1.1-2.3,0.4-3.4c-0.8-1.1-2.1-1.2-3.1-0.4
			c-3,2.6-3.3,8-3.3,13.4v23.9h-2.1V579.5z"/>
		<path fill="#C8C8C8" d="M112.6,603.1c1.2,0,2.2-1.1,2.2-2.4v-12.2c0-1.3-1-2.4-2.2-2.4s-2.2,1.1-2.2,2.4v12.2
			C110.4,602,111.3,603.1,112.6,603.1z"/>
	</g>
</g>
<g>
	<path fill="#34E3AB" d="M-12.5,522.6c0-0.7,0.5-1.2,1.2-1.2h8.5c0.7,0,1.2,0.5,1.2,1.2c0,0.7-0.5,1.2-1.2,1.2h-8.5
		C-11.9,523.8-12.5,523.3-12.5,522.6z M5.2,526.9h-16.4c-0.7,0-1.2,0.5-1.2,1.2c0,0.7,0.5,1.2,1.2,1.2H5.2c0.7,0,1.2-0.5,1.2-1.2
		C6.4,527.4,5.8,526.9,5.2,526.9z M13.1,517.3v16c0,1.8-1.5,3.2-3.2,3.2H8L0,545.3c-0.2,0.2-0.5,0.4-0.9,0.4c-0.1,0-0.3,0-0.4-0.1
		c-0.5-0.2-0.8-0.6-0.8-1.2v-7.9h-13.2c-1.8,0-3.2-1.5-3.2-3.2v-16.1c0-1.8,1.5-3.2,3.2-3.2H9.8C11.7,514.1,13.1,515.5,13.1,517.3z
		 M10.7,517.3c0-0.4-0.4-0.8-0.8-0.8h-25.2c-0.4,0-0.8,0.4-0.8,0.8v16c0,0.4,0.4,0.8,0.8,0.8h14.4c0.7,0,1.2,0.5,1.2,1.2v5.9
		l6.1-6.8c0.2-0.2,0.5-0.4,0.9-0.4h2.5c0.4,0,0.8-0.4,0.8-0.8L10.7,517.3L10.7,517.3z"/>
</g>
<g>
	<path fill="#34E3AB" d="M-19.3,553.4h-8.5c-0.7,0-1.2-0.5-1.2-1.2c0-0.7,0.5-1.2,1.2-1.2h8.5c0.7,0,1.2,0.5,1.2,1.2
		C-18.1,552.8-18.7,553.4-19.3,553.4z M-36.9,557.6c0,0.7,0.5,1.2,1.2,1.2h16.4c0.7,0,1.2-0.5,1.2-1.2s-0.5-1.2-1.2-1.2h-16.4
		C-36.4,556.4-36.9,557-36.9,557.6z M-40.4,543.6h25.2c1.8,0,3.2,1.5,3.2,3.2v16.1c0,1.8-1.5,3.2-3.2,3.2h-13.2v7.9
		c0,0.5-0.3,1-0.8,1.2c-0.1,0.1-0.3,0.1-0.4,0.1c-0.4,0-0.7-0.2-0.9-0.4l-7.9-8.7h-1.9c-1.8,0-3.2-1.5-3.2-3.2v-16
		C-43.7,545.1-42.2,543.6-40.4,543.6z M-41.2,546.9v16c0,0.4,0.4,0.8,0.8,0.8h2.5c0.4,0,0.7,0.2,0.9,0.4l6.1,6.8v-5.9
		c0-0.7,0.5-1.2,1.2-1.2h14.4c0.4,0,0.8-0.4,0.8-0.8v-16c0-0.4-0.4-0.8-0.8-0.8h-25.2C-40.9,546.1-41.3,546.4-41.2,546.9
		L-41.2,546.9z"/>
</g>
</svg>
