<?xml version="1.0" encoding="utf-8"?>
<!-- Generator: Adobe Illustrator 18.1.1, SVG Export Plug-In . SVG Version: 6.00 Build 0)  -->
<svg version="1.1" id="Calque_2" xmlns="http://www.w3.org/2000/svg" xmlns:xlink="http://www.w3.org/1999/xlink" x="0px" y="0px"
	 width="640.7px" height="323.3px" viewBox="-422.2 378.5 640.7 323.3" enable-background="new -422.2 378.5 640.7 323.3"
	 xml:space="preserve">
<path opacity="0.13" fill="#28D18A" d="M179.2,697.8h-561c-19.8,0-36-16.2-36-36v-244c0-19.8,16.2-36,36-36h561
	c19.8,0,36,16.2,36,36v244C215.2,681.6,199,697.8,179.2,697.8z"/>
<title>echo-dot</title>
<g>
	<path fill="#767777" d="M-234.1,422.2h14.6v2.7h-5.7v15.3h-3.2v-15.3h-5.7V422.2z"/>
	<path fill="#767777" d="M-217.8,422.2h2.9v6.7h0.1c0.4-0.6,0.9-1.1,1.6-1.5c0.7-0.4,1.5-0.6,2.3-0.6c1.4,0,2.6,0.4,3.4,1.1
		c0.8,0.7,1.2,1.9,1.2,3.3v9h-2.9V432c0-1-0.3-1.8-0.7-2.2s-1-0.7-1.9-0.7c-0.5,0-0.9,0.1-1.3,0.3c-0.4,0.2-0.7,0.4-1,0.7
		c-0.3,0.3-0.5,0.7-0.6,1.1c-0.2,0.4-0.2,0.9-0.2,1.3v7.7h-2.9V422.2z"/>
	<path fill="#767777" d="M-201.1,434.5c0,0.5,0.1,1,0.2,1.5s0.4,0.9,0.6,1.2c0.3,0.4,0.6,0.6,1.1,0.8s1,0.3,1.6,0.3
		c0.8,0,1.5-0.2,2-0.5c0.5-0.4,0.9-0.9,1.1-1.6h2.7c-0.2,0.7-0.4,1.3-0.8,1.9c-0.4,0.6-0.8,1-1.3,1.4s-1.1,0.7-1.8,0.9
		c-0.6,0.2-1.3,0.3-2,0.3c-1,0-1.9-0.2-2.7-0.5s-1.5-0.8-2-1.4s-1-1.3-1.2-2.2c-0.3-0.8-0.4-1.8-0.4-2.8c0-0.9,0.1-1.8,0.4-2.6
		c0.3-0.8,0.7-1.6,1.3-2.2c0.5-0.6,1.2-1.1,2-1.5c0.8-0.4,1.7-0.6,2.6-0.6c1,0,1.9,0.2,2.8,0.6c0.8,0.4,1.5,1,2,1.7s0.9,1.5,1.2,2.4
		s0.3,1.9,0.2,2.8H-201.1z M-194.4,432.6c0-0.5-0.1-0.9-0.3-1.3s-0.4-0.8-0.7-1.1s-0.6-0.6-1-0.8c-0.4-0.2-0.8-0.3-1.3-0.3
		c-0.5,0-1,0.1-1.4,0.3s-0.8,0.4-1.1,0.7c-0.3,0.3-0.5,0.7-0.7,1.1c-0.2,0.4-0.3,0.9-0.3,1.4H-194.4z"/>
	<path fill="#767777" d="M-166.1,440.3h-2l-0.5-2.1c-0.8,1-1.7,1.6-2.5,2c-0.8,0.4-1.8,0.6-2.9,0.6c-1.3,0-2.6-0.2-3.6-0.7
		c-1.1-0.5-2-1.2-2.7-2c-0.7-0.9-1.3-1.9-1.7-3s-0.6-2.4-0.6-3.7c0-1.3,0.2-2.5,0.6-3.6c0.4-1.1,1-2.1,1.7-3c0.7-0.9,1.6-1.5,2.7-2
		c1.1-0.5,2.3-0.8,3.6-0.8c1,0,1.9,0.1,2.8,0.4c0.9,0.3,1.7,0.6,2.4,1.2s1.3,1.2,1.7,1.9c0.5,0.8,0.7,1.7,0.9,2.7h-3.1
		c-0.1-0.6-0.3-1.1-0.5-1.6s-0.6-0.8-1-1.1c-0.4-0.3-0.9-0.5-1.4-0.7s-1.1-0.2-1.6-0.2c-1,0-1.8,0.2-2.5,0.6
		c-0.7,0.4-1.3,0.9-1.7,1.6s-0.8,1.4-1,2.2c-0.2,0.8-0.3,1.7-0.3,2.5c0,0.9,0.1,1.7,0.3,2.5s0.5,1.6,1,2.2c0.4,0.6,1,1.2,1.7,1.6
		c0.7,0.4,1.5,0.6,2.5,0.6c0.8,0,1.5-0.1,2.1-0.3c0.6-0.2,1.1-0.6,1.6-1c0.4-0.4,0.8-1,1-1.6c0.2-0.6,0.3-1.3,0.4-2.1h-4.8v-2.4h7.7
		V440.3z"/>
	<path fill="#767777" d="M-163.1,427.2h2.7v2.5h0.1c0.1-0.4,0.2-0.7,0.5-1s0.5-0.6,0.9-0.9c0.3-0.3,0.7-0.5,1.1-0.7
		c0.4-0.2,0.9-0.3,1.3-0.3c0.3,0,0.6,0,0.7,0s0.3,0,0.4,0.1v2.8c-0.2,0-0.4-0.1-0.6-0.1c-0.2,0-0.4,0-0.6,0c-0.5,0-0.9,0.1-1.4,0.3
		c-0.4,0.2-0.8,0.5-1.1,0.9s-0.6,0.8-0.8,1.4c-0.2,0.6-0.3,1.2-0.3,1.9v6.2h-2.9V427.2z"/>
	<path fill="#767777" d="M-143.2,437.3c0,0.4,0,0.6,0.1,0.8c0.1,0.2,0.3,0.2,0.5,0.2c0.1,0,0.2,0,0.3,0s0.3,0,0.4-0.1v2
		c-0.1,0-0.2,0.1-0.4,0.1c-0.2,0-0.3,0.1-0.5,0.1c-0.2,0-0.3,0.1-0.5,0.1c-0.2,0-0.3,0-0.4,0c-0.6,0-1.1-0.1-1.5-0.4
		c-0.4-0.2-0.6-0.6-0.8-1.2c-0.6,0.6-1.3,1-2.1,1.2c-0.8,0.3-1.6,0.4-2.4,0.4c-0.6,0-1.2-0.1-1.7-0.2c-0.5-0.2-1-0.4-1.4-0.7
		s-0.7-0.7-1-1.2c-0.2-0.5-0.4-1-0.4-1.7c0-0.8,0.1-1.5,0.4-2c0.3-0.5,0.7-0.9,1.2-1.2s1-0.5,1.6-0.6c0.6-0.1,1.2-0.2,1.8-0.3
		c0.5-0.1,1-0.2,1.5-0.2s0.9-0.1,1.2-0.2c0.4-0.1,0.6-0.3,0.9-0.5c0.2-0.2,0.3-0.5,0.3-0.9c0-0.4-0.1-0.7-0.3-0.9
		c-0.2-0.2-0.4-0.4-0.7-0.5c-0.3-0.1-0.6-0.2-0.9-0.3c-0.3,0-0.6-0.1-0.9-0.1c-0.8,0-1.5,0.2-2,0.5c-0.5,0.3-0.8,0.9-0.9,1.6h-2.9
		c0.1-0.8,0.3-1.5,0.6-2.1c0.4-0.6,0.8-1,1.4-1.3c0.5-0.3,1.2-0.6,1.9-0.7c0.7-0.1,1.4-0.2,2.1-0.2c0.6,0,1.3,0.1,1.9,0.2
		s1.2,0.4,1.7,0.7c0.5,0.3,0.9,0.7,1.2,1.2c0.3,0.5,0.5,1.1,0.5,1.8V437.3z M-146.1,433.7c-0.4,0.3-1,0.5-1.6,0.5
		c-0.6,0.1-1.3,0.1-1.9,0.3c-0.3,0.1-0.6,0.1-0.9,0.2c-0.3,0.1-0.5,0.2-0.8,0.4c-0.2,0.2-0.4,0.4-0.5,0.6c-0.1,0.3-0.2,0.6-0.2,0.9
		c0,0.3,0.1,0.6,0.3,0.8c0.2,0.2,0.4,0.4,0.7,0.5c0.3,0.1,0.5,0.2,0.9,0.3c0.3,0.1,0.6,0.1,0.8,0.1c0.3,0,0.7,0,1-0.1s0.7-0.2,1-0.4
		s0.6-0.5,0.8-0.8s0.3-0.7,0.3-1.1V433.7z"/>
	<path fill="#767777" d="M-140.1,427.2h2.7v1.9l0.1,0.1c0.4-0.7,1-1.3,1.7-1.7c0.7-0.4,1.5-0.6,2.3-0.6c1.4,0,2.6,0.4,3.4,1.1
		c0.8,0.7,1.2,1.9,1.2,3.3v9h-2.9V432c0-1-0.3-1.8-0.7-2.2c-0.4-0.5-1-0.7-1.9-0.7c-0.5,0-0.9,0.1-1.3,0.3s-0.7,0.4-1,0.7
		c-0.3,0.3-0.5,0.7-0.6,1.1c-0.2,0.4-0.2,0.9-0.2,1.3v7.7h-2.9V427.2z"/>
	<path fill="#767777" d="M-113.3,440.3h-2.7v-1.8h-0.1c-0.4,0.8-1,1.3-1.7,1.6c-0.7,0.3-1.5,0.5-2.3,0.5c-1,0-1.9-0.2-2.7-0.5
		c-0.8-0.4-1.4-0.9-1.9-1.5c-0.5-0.6-0.9-1.4-1.1-2.2c-0.3-0.8-0.4-1.8-0.4-2.7c0-1.2,0.2-2.2,0.5-3.1c0.3-0.9,0.7-1.6,1.3-2.1
		s1.1-1,1.8-1.2c0.7-0.3,1.4-0.4,2.1-0.4c0.4,0,0.8,0,1.2,0.1c0.4,0.1,0.8,0.2,1.2,0.4c0.4,0.2,0.7,0.4,1.1,0.6
		c0.3,0.3,0.6,0.6,0.8,0.9h0.1v-6.7h2.9V440.3z M-123.4,433.9c0,0.6,0.1,1.1,0.2,1.6c0.1,0.5,0.4,1,0.7,1.4c0.3,0.4,0.7,0.8,1.1,1
		c0.5,0.3,1,0.4,1.6,0.4c0.6,0,1.2-0.1,1.7-0.4c0.5-0.3,0.8-0.6,1.1-1.1c0.3-0.4,0.5-0.9,0.7-1.5c0.1-0.5,0.2-1.1,0.2-1.7
		c0-1.4-0.3-2.6-1-3.4s-1.5-1.2-2.6-1.2c-0.7,0-1.2,0.1-1.7,0.4c-0.5,0.3-0.8,0.6-1.1,1.1c-0.3,0.4-0.5,1-0.6,1.5
		C-123.3,432.7-123.4,433.3-123.4,433.9z"/>
	<path fill="#767777" d="M-102.8,422.2h8.6c2,0,3.5,0.4,4.5,1.3c1,0.9,1.5,2.1,1.5,3.6c0,0.9-0.1,1.6-0.4,2.1
		c-0.3,0.6-0.5,1-0.9,1.4c-0.3,0.3-0.7,0.6-1,0.7c-0.3,0.2-0.6,0.3-0.7,0.3v0.1c0.3,0,0.6,0.1,0.9,0.3c0.3,0.1,0.6,0.4,0.9,0.6
		c0.3,0.3,0.5,0.7,0.7,1.1c0.2,0.5,0.3,1.1,0.3,1.8c0,1.1,0.1,2,0.2,2.9s0.4,1.5,0.7,1.9h-3.4c-0.2-0.4-0.4-0.8-0.4-1.3
		s-0.1-0.9-0.1-1.4c0-0.8,0-1.5-0.2-2.1c-0.1-0.6-0.3-1.1-0.6-1.5s-0.6-0.7-1.1-0.9c-0.5-0.2-1.1-0.3-1.8-0.3h-4.6v7.4h-3.2V422.2z
		 M-99.6,430.4h5.2c1,0,1.8-0.2,2.3-0.7c0.5-0.5,0.8-1.2,0.8-2.2c0-0.6-0.1-1-0.3-1.4c-0.2-0.4-0.4-0.6-0.7-0.8s-0.6-0.3-1-0.4
		c-0.4-0.1-0.8-0.1-1.2-0.1h-5.1V430.4z"/>
	<path fill="#767777" d="M-83.2,434.5c0,0.5,0.1,1,0.2,1.5c0.1,0.5,0.4,0.9,0.6,1.2c0.3,0.4,0.6,0.6,1.1,0.8c0.4,0.2,1,0.3,1.6,0.3
		c0.8,0,1.5-0.2,2-0.5s0.9-0.9,1.1-1.6h2.7c-0.2,0.7-0.4,1.3-0.8,1.9c-0.4,0.6-0.8,1-1.3,1.4c-0.5,0.4-1.1,0.7-1.8,0.9
		s-1.3,0.3-2,0.3c-1,0-1.9-0.2-2.7-0.5s-1.5-0.8-2-1.4c-0.5-0.6-1-1.3-1.2-2.2c-0.3-0.8-0.4-1.8-0.4-2.8c0-0.9,0.1-1.8,0.4-2.6
		s0.7-1.6,1.3-2.2c0.5-0.6,1.2-1.1,2-1.5c0.8-0.4,1.7-0.6,2.6-0.6c1,0,1.9,0.2,2.8,0.6c0.8,0.4,1.5,1,2,1.7s0.9,1.5,1.2,2.4
		s0.3,1.9,0.2,2.8H-83.2z M-76.4,432.6c0-0.5-0.1-0.9-0.3-1.3c-0.2-0.4-0.4-0.8-0.7-1.1c-0.3-0.3-0.6-0.6-1-0.8s-0.8-0.3-1.3-0.3
		c-0.5,0-1,0.1-1.4,0.3c-0.4,0.2-0.8,0.4-1.1,0.7s-0.5,0.7-0.7,1.1c-0.2,0.4-0.3,0.9-0.3,1.4H-76.4z"/>
	<path fill="#767777" d="M-69.2,436.1c0.1,0.8,0.4,1.4,1,1.8s1.2,0.5,2,0.5c0.3,0,0.6,0,0.9-0.1c0.3,0,0.7-0.1,1-0.2
		c0.3-0.1,0.6-0.3,0.7-0.5c0.2-0.2,0.3-0.5,0.3-0.9c0-0.4-0.2-0.7-0.4-0.9c-0.3-0.2-0.6-0.4-1-0.6c-0.4-0.1-0.8-0.3-1.4-0.4
		c-0.5-0.1-1-0.2-1.5-0.3c-0.5-0.1-1.1-0.3-1.6-0.4c-0.5-0.2-0.9-0.4-1.3-0.7c-0.4-0.3-0.7-0.7-0.9-1.1c-0.2-0.4-0.4-1-0.4-1.7
		c0-0.7,0.2-1.3,0.5-1.8c0.3-0.5,0.8-0.9,1.3-1.2c0.5-0.3,1.1-0.5,1.8-0.6c0.6-0.1,1.3-0.2,1.9-0.2c0.7,0,1.3,0.1,1.9,0.2
		c0.6,0.1,1.2,0.4,1.7,0.7c0.5,0.3,0.9,0.7,1.2,1.3c0.3,0.5,0.5,1.1,0.6,1.9h-3c-0.1-0.7-0.5-1.2-0.9-1.4c-0.5-0.2-1.1-0.4-1.7-0.4
		c-0.2,0-0.4,0-0.7,0.1c-0.3,0-0.5,0.1-0.8,0.2c-0.2,0.1-0.5,0.2-0.6,0.4c-0.2,0.2-0.3,0.4-0.3,0.7c0,0.4,0.1,0.6,0.4,0.9
		s0.6,0.4,1,0.5c0.4,0.1,0.8,0.3,1.4,0.4c0.5,0.1,1,0.2,1.6,0.3c0.5,0.1,1,0.3,1.5,0.4c0.5,0.2,1,0.4,1.4,0.7c0.4,0.3,0.7,0.6,1,1.1
		s0.4,1,0.4,1.6c0,0.8-0.2,1.4-0.5,2s-0.8,1-1.4,1.3s-1.2,0.6-1.9,0.7c-0.7,0.2-1.4,0.2-2,0.2c-0.8,0-1.6-0.1-2.3-0.3
		c-0.7-0.2-1.3-0.5-1.8-0.8s-0.9-0.9-1.2-1.4c-0.3-0.6-0.5-1.2-0.5-2H-69.2z"/>
	<path fill="#767777" d="M-58.2,422.2h2.9v2.7h-2.9V422.2z M-58.2,427.2h2.9v13.1h-2.9V427.2z"/>
	<path fill="#767777" d="M-39.9,440.3h-2.7v-1.8h-0.1c-0.4,0.8-1,1.3-1.7,1.6c-0.7,0.3-1.5,0.5-2.3,0.5c-1,0-1.9-0.2-2.7-0.5
		c-0.8-0.4-1.4-0.9-1.9-1.5c-0.5-0.6-0.9-1.4-1.1-2.2c-0.3-0.8-0.4-1.8-0.4-2.7c0-1.2,0.2-2.2,0.5-3.1c0.3-0.9,0.7-1.6,1.3-2.1
		s1.1-1,1.8-1.2c0.7-0.3,1.4-0.4,2.1-0.4c0.4,0,0.8,0,1.2,0.1c0.4,0.1,0.8,0.2,1.2,0.4c0.4,0.2,0.7,0.4,1.1,0.6
		c0.3,0.3,0.6,0.6,0.8,0.9h0.1v-6.7h2.9V440.3z M-49.9,433.9c0,0.6,0.1,1.1,0.2,1.6c0.1,0.5,0.4,1,0.7,1.4c0.3,0.4,0.7,0.8,1.1,1
		c0.5,0.3,1,0.4,1.6,0.4c0.6,0,1.2-0.1,1.7-0.4c0.5-0.3,0.8-0.6,1.1-1.1c0.3-0.4,0.5-0.9,0.7-1.5c0.1-0.5,0.2-1.1,0.2-1.7
		c0-1.4-0.3-2.6-1-3.4s-1.5-1.2-2.6-1.2c-0.7,0-1.2,0.1-1.7,0.4c-0.5,0.3-0.8,0.6-1.1,1.1c-0.3,0.4-0.5,1-0.6,1.5
		C-49.8,432.7-49.9,433.3-49.9,433.9z"/>
	<path fill="#767777" d="M-34.5,434.5c0,0.5,0.1,1,0.2,1.5c0.1,0.5,0.4,0.9,0.6,1.2c0.3,0.4,0.6,0.6,1.1,0.8c0.4,0.2,1,0.3,1.6,0.3
		c0.8,0,1.5-0.2,2-0.5s0.9-0.9,1.1-1.6h2.7c-0.2,0.7-0.4,1.3-0.8,1.9c-0.4,0.6-0.8,1-1.3,1.4c-0.5,0.4-1.1,0.7-1.8,0.9
		s-1.3,0.3-2,0.3c-1,0-1.9-0.2-2.7-0.5s-1.5-0.8-2-1.4c-0.5-0.6-1-1.3-1.2-2.2c-0.3-0.8-0.4-1.8-0.4-2.8c0-0.9,0.1-1.8,0.4-2.6
		s0.7-1.6,1.3-2.2c0.5-0.6,1.2-1.1,2-1.5c0.8-0.4,1.7-0.6,2.6-0.6c1,0,1.9,0.2,2.8,0.6c0.8,0.4,1.5,1,2,1.7s0.9,1.5,1.2,2.4
		s0.3,1.9,0.2,2.8H-34.5z M-27.8,432.6c0-0.5-0.1-0.9-0.3-1.3c-0.2-0.4-0.4-0.8-0.7-1.1c-0.3-0.3-0.6-0.6-1-0.8s-0.8-0.3-1.3-0.3
		c-0.5,0-1,0.1-1.4,0.3c-0.4,0.2-0.8,0.4-1.1,0.7s-0.5,0.7-0.7,1.1c-0.2,0.4-0.3,0.9-0.3,1.4H-27.8z"/>
	<path fill="#767777" d="M-22.7,427.2h2.7v1.9l0.1,0.1c0.4-0.7,1-1.3,1.7-1.7c0.7-0.4,1.5-0.6,2.3-0.6c1.4,0,2.6,0.4,3.4,1.1
		c0.8,0.7,1.2,1.9,1.2,3.3v9h-2.9V432c0-1-0.3-1.8-0.7-2.2c-0.4-0.5-1-0.7-1.9-0.7c-0.5,0-0.9,0.1-1.3,0.3s-0.7,0.4-1,0.7
		c-0.3,0.3-0.5,0.7-0.6,1.1c-0.2,0.4-0.2,0.9-0.2,1.3v7.7h-2.9V427.2z"/>
	<path fill="#767777" d="M0.6,431.6c-0.1-0.8-0.4-1.4-1-1.8c-0.5-0.4-1.2-0.6-2-0.6c-0.4,0-0.8,0.1-1.2,0.2
		c-0.4,0.1-0.8,0.4-1.2,0.7c-0.4,0.3-0.6,0.8-0.9,1.4c-0.2,0.6-0.4,1.4-0.4,2.4c0,0.5,0.1,1.1,0.2,1.6c0.1,0.5,0.3,1,0.6,1.4
		c0.3,0.4,0.6,0.8,1.1,1c0.4,0.3,1,0.4,1.6,0.4c0.8,0,1.5-0.3,2.1-0.8c0.5-0.5,0.9-1.3,1-2.2h2.9c-0.3,1.7-0.9,3-1.9,3.9
		c-1,0.9-2.4,1.4-4.1,1.4c-1,0-1.9-0.2-2.7-0.5c-0.8-0.3-1.4-0.8-2-1.4c-0.5-0.6-0.9-1.3-1.2-2.1c-0.3-0.8-0.4-1.7-0.4-2.7
		c0-1,0.1-1.9,0.4-2.8c0.3-0.9,0.7-1.6,1.2-2.2c0.5-0.6,1.2-1.1,2-1.5c0.8-0.4,1.7-0.5,2.8-0.5c0.8,0,1.5,0.1,2.2,0.3
		c0.7,0.2,1.3,0.5,1.8,0.9c0.5,0.4,1,0.9,1.3,1.5c0.3,0.6,0.5,1.3,0.6,2.1H0.6z"/>
	<path fill="#767777" d="M8.1,434.5c0,0.5,0.1,1,0.2,1.5c0.1,0.5,0.4,0.9,0.6,1.2c0.3,0.4,0.6,0.6,1.1,0.8c0.4,0.2,1,0.3,1.6,0.3
		c0.8,0,1.5-0.2,2-0.5s0.9-0.9,1.1-1.6h2.7c-0.2,0.7-0.4,1.3-0.8,1.9c-0.4,0.6-0.8,1-1.3,1.4c-0.5,0.4-1.1,0.7-1.8,0.9
		s-1.3,0.3-2,0.3c-1,0-1.9-0.2-2.7-0.5s-1.5-0.8-2-1.4c-0.5-0.6-1-1.3-1.2-2.2c-0.3-0.8-0.4-1.8-0.4-2.8c0-0.9,0.1-1.8,0.4-2.6
		s0.7-1.6,1.3-2.2c0.5-0.6,1.2-1.1,2-1.5c0.8-0.4,1.7-0.6,2.6-0.6c1,0,1.9,0.2,2.8,0.6c0.8,0.4,1.5,1,2,1.7s0.9,1.5,1.2,2.4
		s0.3,1.9,0.2,2.8H8.1z M14.8,432.6c0-0.5-0.1-0.9-0.3-1.3c-0.2-0.4-0.4-0.8-0.7-1.1c-0.3-0.3-0.6-0.6-1-0.8s-0.8-0.3-1.3-0.3
		c-0.5,0-1,0.1-1.4,0.3c-0.4,0.2-0.8,0.4-1.1,0.7s-0.5,0.7-0.7,1.1c-0.2,0.4-0.3,0.9-0.3,1.4H14.8z"/>
	<path fill="#767777" d="M22.1,436.1c0.1,0.8,0.4,1.4,1,1.8s1.2,0.5,2,0.5c0.3,0,0.6,0,0.9-0.1c0.3,0,0.7-0.1,1-0.2
		c0.3-0.1,0.6-0.3,0.7-0.5c0.2-0.2,0.3-0.5,0.3-0.9c0-0.4-0.2-0.7-0.4-0.9c-0.3-0.2-0.6-0.4-1-0.6c-0.4-0.1-0.8-0.3-1.4-0.4
		c-0.5-0.1-1-0.2-1.5-0.3c-0.5-0.1-1.1-0.3-1.6-0.4c-0.5-0.2-0.9-0.4-1.3-0.7c-0.4-0.3-0.7-0.7-0.9-1.1c-0.2-0.4-0.4-1-0.4-1.7
		c0-0.7,0.2-1.3,0.5-1.8c0.3-0.5,0.8-0.9,1.3-1.2c0.5-0.3,1.1-0.5,1.8-0.6c0.6-0.1,1.3-0.2,1.9-0.2c0.7,0,1.3,0.1,1.9,0.2
		c0.6,0.1,1.2,0.4,1.7,0.7c0.5,0.3,0.9,0.7,1.2,1.3c0.3,0.5,0.5,1.1,0.6,1.9h-3c-0.1-0.7-0.5-1.2-0.9-1.4c-0.5-0.2-1.1-0.4-1.7-0.4
		c-0.2,0-0.4,0-0.7,0.1c-0.3,0-0.5,0.1-0.8,0.2c-0.2,0.1-0.5,0.2-0.6,0.4c-0.2,0.2-0.3,0.4-0.3,0.7c0,0.4,0.1,0.6,0.4,0.9
		s0.6,0.4,1,0.5c0.4,0.1,0.8,0.3,1.4,0.4c0.5,0.1,1,0.2,1.6,0.3c0.5,0.1,1,0.3,1.5,0.4c0.5,0.2,1,0.4,1.4,0.7c0.4,0.3,0.7,0.6,1,1.1
		s0.4,1,0.4,1.6c0,0.8-0.2,1.4-0.5,2s-0.8,1-1.4,1.3s-1.2,0.6-1.9,0.7c-0.7,0.2-1.4,0.2-2,0.2c-0.8,0-1.6-0.1-2.3-0.3
		c-0.7-0.2-1.3-0.5-1.8-0.8s-0.9-0.9-1.2-1.4c-0.3-0.6-0.5-1.2-0.5-2H22.1z"/>
</g>
<linearGradient id="SVGID_1_" gradientUnits="userSpaceOnUse" x1="-101.9968" y1="238.8472" x2="-101.9968" y2="323.4959" gradientTransform="matrix(1 0 0 -1 0 794.172)">
	<stop  offset="0" style="stop-color:#808080;stop-opacity:0.25"/>
	<stop  offset="0.54" style="stop-color:#808080;stop-opacity:0.12"/>
	<stop  offset="1" style="stop-color:#808080;stop-opacity:0.1"/>
</linearGradient>
<rect x="-387" y="470.7" fill="url(#SVGID_1_)" width="570" height="84.6"/>
<rect x="-383.7" y="473.4" fill="#FFFFFF" width="562.5" height="77.4"/>
<rect x="-218" y="486.4" fill="#F5F5F5" width="377" height="51.5"/>
<g>
	<path fill="#767777" d="M-367.7,504.9h2.6V520h-2.6V504.9z"/>
	<path fill="#767777" d="M-363.3,509.1h1.8v-0.9c0-0.7,0.1-1.2,0.3-1.7c0.2-0.4,0.4-0.8,0.7-1c0.3-0.2,0.6-0.4,1-0.5
		s0.7-0.1,1.1-0.1c0.8,0,1.3,0,1.7,0.1v1.9c-0.2,0-0.3-0.1-0.5-0.1s-0.4,0-0.6,0c-0.3,0-0.6,0.1-0.8,0.2c-0.2,0.2-0.3,0.5-0.3,0.9
		v1.1h2v1.8h-2v9.1h-2.4v-9.1h-1.8V509.1z"/>
	<path fill="#767777" d="M-350.8,509.1h1.8v-3.3h2.4v3.3h2.2v1.8h-2.2v5.8c0,0.3,0,0.5,0,0.7s0.1,0.3,0.1,0.5s0.2,0.2,0.3,0.3
		c0.2,0.1,0.4,0.1,0.6,0.1c0.2,0,0.3,0,0.5,0c0.2,0,0.3,0,0.5-0.1v1.9c-0.3,0-0.5,0.1-0.8,0.1c-0.3,0-0.5,0-0.8,0
		c-0.6,0-1.1-0.1-1.5-0.2c-0.4-0.1-0.7-0.3-0.9-0.5c-0.2-0.2-0.4-0.5-0.4-0.9c-0.1-0.4-0.1-0.8-0.1-1.2v-6.4h-1.8V509.1z"/>
	<path fill="#767777" d="M-340.8,515.1c0,0.4,0.1,0.8,0.2,1.2c0.1,0.4,0.3,0.7,0.5,1c0.2,0.3,0.5,0.5,0.9,0.7
		c0.4,0.2,0.8,0.3,1.3,0.3c0.7,0,1.3-0.2,1.7-0.5s0.7-0.8,1-1.4h2.3c-0.1,0.6-0.3,1.1-0.7,1.6c-0.3,0.5-0.7,0.9-1.1,1.2
		s-0.9,0.6-1.5,0.7s-1.1,0.2-1.7,0.2c-0.9,0-1.6-0.1-2.3-0.4c-0.7-0.3-1.2-0.7-1.7-1.2c-0.5-0.5-0.8-1.1-1-1.8
		c-0.2-0.7-0.3-1.5-0.3-2.3c0-0.8,0.1-1.5,0.4-2.2c0.2-0.7,0.6-1.3,1.1-1.8c0.5-0.5,1-0.9,1.7-1.3s1.4-0.5,2.2-0.5
		c0.9,0,1.6,0.2,2.3,0.5c0.7,0.4,1.2,0.8,1.7,1.4c0.4,0.6,0.8,1.3,1,2c0.2,0.8,0.3,1.6,0.2,2.4H-340.8z M-335.2,513.6
		c0-0.4-0.1-0.7-0.2-1.1c-0.1-0.4-0.3-0.7-0.5-0.9c-0.2-0.3-0.5-0.5-0.8-0.6c-0.3-0.2-0.7-0.2-1.1-0.2c-0.4,0-0.8,0.1-1.1,0.2
		c-0.3,0.1-0.6,0.4-0.9,0.6c-0.2,0.3-0.4,0.6-0.6,0.9s-0.2,0.7-0.2,1.1H-335.2z"/>
	<path fill="#767777" d="M-330.9,509.1h2.3v1.6l0,0c0.4-0.6,0.8-1.1,1.4-1.4s1.2-0.5,2-0.5c1.2,0,2.1,0.3,2.8,0.9
		c0.7,0.6,1,1.5,1,2.8v7.5h-2.4v-6.9c0-0.9-0.2-1.5-0.5-1.9s-0.9-0.6-1.6-0.6c-0.4,0-0.8,0.1-1.1,0.2s-0.6,0.4-0.8,0.6
		c-0.2,0.3-0.4,0.6-0.5,0.9s-0.2,0.7-0.2,1.1v6.4h-2.4V509.1z"/>
	<path fill="#767777" d="M-309.7,517.5c0,0.3,0,0.5,0.1,0.6c0.1,0.1,0.2,0.2,0.5,0.2c0.1,0,0.2,0,0.3,0c0.1,0,0.2,0,0.3,0v1.7
		c-0.1,0-0.2,0.1-0.3,0.1s-0.3,0.1-0.4,0.1s-0.3,0-0.4,0.1c-0.1,0-0.3,0-0.4,0c-0.5,0-0.9-0.1-1.2-0.3c-0.3-0.2-0.5-0.5-0.6-1
		c-0.5,0.5-1.1,0.8-1.8,1c-0.7,0.2-1.4,0.3-2,0.3c-0.5,0-1-0.1-1.4-0.2c-0.5-0.1-0.8-0.3-1.2-0.6c-0.3-0.3-0.6-0.6-0.8-1
		c-0.2-0.4-0.3-0.9-0.3-1.4c0-0.7,0.1-1.2,0.4-1.6c0.2-0.4,0.6-0.8,1-1c0.4-0.2,0.9-0.4,1.3-0.5c0.5-0.1,1-0.2,1.5-0.2
		c0.4-0.1,0.9-0.1,1.2-0.2s0.7-0.1,1-0.2c0.3-0.1,0.5-0.2,0.7-0.4s0.3-0.4,0.3-0.8c0-0.3-0.1-0.6-0.2-0.8c-0.1-0.2-0.3-0.3-0.5-0.5
		c-0.2-0.1-0.5-0.2-0.7-0.2c-0.3,0-0.5-0.1-0.8-0.1c-0.7,0-1.2,0.1-1.7,0.4c-0.4,0.3-0.7,0.7-0.7,1.3h-2.4c0-0.7,0.2-1.3,0.5-1.8
		c0.3-0.5,0.7-0.8,1.1-1.1c0.5-0.3,1-0.5,1.5-0.6c0.6-0.1,1.2-0.2,1.8-0.2c0.5,0,1.1,0.1,1.6,0.2c0.5,0.1,1,0.3,1.4,0.5s0.7,0.6,1,1
		s0.4,0.9,0.4,1.5V517.5z M-312.1,514.5c-0.4,0.2-0.8,0.4-1.3,0.4c-0.5,0-1.1,0.1-1.6,0.2c-0.3,0-0.5,0.1-0.7,0.2
		c-0.2,0.1-0.4,0.2-0.6,0.3c-0.2,0.1-0.3,0.3-0.4,0.5c-0.1,0.2-0.2,0.5-0.2,0.8c0,0.3,0.1,0.5,0.2,0.7c0.2,0.2,0.3,0.3,0.6,0.4
		c0.2,0.1,0.5,0.2,0.7,0.2s0.5,0.1,0.7,0.1c0.3,0,0.6,0,0.9-0.1c0.3-0.1,0.6-0.2,0.9-0.4c0.3-0.2,0.5-0.4,0.7-0.6
		c0.2-0.3,0.3-0.6,0.3-1V514.5z"/>
	<path fill="#767777" d="M-307.1,509.1h2.3v1.6l0,0c0.4-0.6,0.8-1.1,1.4-1.4s1.2-0.5,2-0.5c1.2,0,2.1,0.3,2.8,0.9
		c0.7,0.6,1,1.5,1,2.8v7.5h-2.4v-6.9c0-0.9-0.2-1.5-0.5-1.9s-0.9-0.6-1.6-0.6c-0.4,0-0.8,0.1-1.1,0.2s-0.6,0.4-0.8,0.6
		c-0.2,0.3-0.4,0.6-0.5,0.9s-0.2,0.7-0.2,1.1v6.4h-2.4V509.1z"/>
	<path fill="#767777" d="M-296.1,509.1h1.8v-3.3h2.4v3.3h2.2v1.8h-2.2v5.8c0,0.3,0,0.5,0,0.7s0.1,0.3,0.1,0.5s0.2,0.2,0.3,0.3
		c0.2,0.1,0.4,0.1,0.6,0.1c0.2,0,0.3,0,0.5,0c0.2,0,0.3,0,0.5-0.1v1.9c-0.3,0-0.5,0.1-0.8,0.1c-0.3,0-0.5,0-0.8,0
		c-0.6,0-1.1-0.1-1.5-0.2c-0.4-0.1-0.7-0.3-0.9-0.5c-0.2-0.2-0.4-0.5-0.4-0.9c-0.1-0.4-0.1-0.8-0.1-1.2v-6.4h-1.8V509.1z"/>
	<path fill="#767777" d="M-280.3,516.5c0.1,0.7,0.3,1.2,0.8,1.5s1,0.4,1.7,0.4c0.2,0,0.5,0,0.8-0.1c0.3,0,0.6-0.1,0.8-0.2
		s0.5-0.2,0.6-0.4c0.2-0.2,0.2-0.4,0.2-0.7s-0.1-0.6-0.3-0.8c-0.2-0.2-0.5-0.4-0.8-0.5c-0.3-0.1-0.7-0.2-1.1-0.3
		c-0.4-0.1-0.9-0.2-1.3-0.3c-0.4-0.1-0.9-0.2-1.3-0.4c-0.4-0.1-0.8-0.3-1.1-0.6c-0.3-0.2-0.6-0.5-0.8-0.9c-0.2-0.4-0.3-0.8-0.3-1.4
		c0-0.6,0.1-1.1,0.4-1.5s0.7-0.7,1.1-1s0.9-0.4,1.5-0.5c0.5-0.1,1.1-0.1,1.5-0.1c0.6,0,1.1,0.1,1.6,0.2c0.5,0.1,1,0.3,1.4,0.6
		c0.4,0.3,0.8,0.6,1,1c0.3,0.4,0.4,0.9,0.5,1.5h-2.5c-0.1-0.6-0.4-1-0.8-1.2c-0.4-0.2-0.9-0.3-1.4-0.3c-0.2,0-0.4,0-0.6,0
		s-0.4,0.1-0.7,0.2c-0.2,0.1-0.4,0.2-0.5,0.3c-0.1,0.1-0.2,0.3-0.2,0.6c0,0.3,0.1,0.5,0.3,0.7c0.2,0.2,0.5,0.3,0.8,0.5
		c0.3,0.1,0.7,0.2,1.1,0.3c0.4,0.1,0.9,0.2,1.3,0.3c0.4,0.1,0.9,0.2,1.3,0.4s0.8,0.3,1.1,0.6c0.3,0.2,0.6,0.5,0.8,0.9
		s0.3,0.8,0.3,1.3c0,0.6-0.1,1.2-0.4,1.6c-0.3,0.5-0.7,0.8-1.1,1.1c-0.5,0.3-1,0.5-1.6,0.6c-0.6,0.1-1.1,0.2-1.7,0.2
		c-0.7,0-1.3-0.1-1.9-0.2c-0.6-0.2-1.1-0.4-1.5-0.7c-0.4-0.3-0.8-0.7-1-1.2c-0.2-0.5-0.4-1-0.4-1.7H-280.3z"/>
	<path fill="#767777" d="M-262.1,517.5c0,0.3,0,0.5,0.1,0.6c0.1,0.1,0.2,0.2,0.5,0.2c0.1,0,0.2,0,0.3,0c0.1,0,0.2,0,0.3,0v1.7
		c-0.1,0-0.2,0.1-0.3,0.1s-0.3,0.1-0.4,0.1s-0.3,0-0.4,0.1c-0.1,0-0.3,0-0.4,0c-0.5,0-0.9-0.1-1.2-0.3c-0.3-0.2-0.5-0.5-0.6-1
		c-0.5,0.5-1.1,0.8-1.8,1c-0.7,0.2-1.4,0.3-2,0.3c-0.5,0-1-0.1-1.4-0.2c-0.5-0.1-0.8-0.3-1.2-0.6c-0.3-0.3-0.6-0.6-0.8-1
		c-0.2-0.4-0.3-0.9-0.3-1.4c0-0.7,0.1-1.2,0.4-1.6c0.2-0.4,0.6-0.8,1-1c0.4-0.2,0.9-0.4,1.3-0.5c0.5-0.1,1-0.2,1.5-0.2
		c0.4-0.1,0.9-0.1,1.2-0.2s0.7-0.1,1-0.2c0.3-0.1,0.5-0.2,0.7-0.4s0.3-0.4,0.3-0.8c0-0.3-0.1-0.6-0.2-0.8c-0.1-0.2-0.3-0.3-0.5-0.5
		c-0.2-0.1-0.5-0.2-0.7-0.2c-0.3,0-0.5-0.1-0.8-0.1c-0.7,0-1.2,0.1-1.7,0.4c-0.4,0.3-0.7,0.7-0.7,1.3h-2.4c0-0.7,0.2-1.3,0.5-1.8
		c0.3-0.5,0.7-0.8,1.1-1.1c0.5-0.3,1-0.5,1.5-0.6c0.6-0.1,1.2-0.2,1.8-0.2c0.5,0,1.1,0.1,1.6,0.2c0.5,0.1,1,0.3,1.4,0.5s0.7,0.6,1,1
		s0.4,0.9,0.4,1.5V517.5z M-264.5,514.5c-0.4,0.2-0.8,0.4-1.3,0.4c-0.5,0-1.1,0.1-1.6,0.2c-0.3,0-0.5,0.1-0.7,0.2
		c-0.2,0.1-0.4,0.2-0.6,0.3c-0.2,0.1-0.3,0.3-0.4,0.5c-0.1,0.2-0.2,0.5-0.2,0.8c0,0.3,0.1,0.5,0.2,0.7c0.2,0.2,0.3,0.3,0.6,0.4
		c0.2,0.1,0.5,0.2,0.7,0.2s0.5,0.1,0.7,0.1c0.3,0,0.6,0,0.9-0.1c0.3-0.1,0.6-0.2,0.9-0.4c0.3-0.2,0.5-0.4,0.7-0.6
		c0.2-0.3,0.3-0.6,0.3-1V514.5z"/>
	<path fill="#767777" d="M-260.7,509.1h2.6l2.8,8.1h0l2.8-8.1h2.5l-4.2,11.5c-0.2,0.5-0.4,1-0.6,1.4s-0.4,0.8-0.7,1.2
		s-0.6,0.6-1,0.8c-0.4,0.2-0.9,0.3-1.6,0.3c-0.6,0-1.1,0-1.7-0.1v-2c0.2,0,0.4,0.1,0.6,0.1c0.2,0,0.4,0.1,0.6,0.1
		c0.3,0,0.5,0,0.7-0.1c0.2-0.1,0.3-0.2,0.5-0.3c0.1-0.1,0.2-0.3,0.3-0.5s0.2-0.4,0.2-0.6l0.3-0.8L-260.7,509.1z"/>
	<path fill="#767777" d="M-246.7,516.5c0.1,0.7,0.3,1.2,0.8,1.5s1,0.4,1.7,0.4c0.2,0,0.5,0,0.8-0.1c0.3,0,0.6-0.1,0.8-0.2
		s0.5-0.2,0.6-0.4c0.2-0.2,0.2-0.4,0.2-0.7s-0.1-0.6-0.3-0.8c-0.2-0.2-0.5-0.4-0.8-0.5c-0.3-0.1-0.7-0.2-1.1-0.3
		c-0.4-0.1-0.9-0.2-1.3-0.3c-0.4-0.1-0.9-0.2-1.3-0.4c-0.4-0.1-0.8-0.3-1.1-0.6c-0.3-0.2-0.6-0.5-0.8-0.9c-0.2-0.4-0.3-0.8-0.3-1.4
		c0-0.6,0.1-1.1,0.4-1.5s0.7-0.7,1.1-1s0.9-0.4,1.5-0.5c0.5-0.1,1.1-0.1,1.5-0.1c0.6,0,1.1,0.1,1.6,0.2c0.5,0.1,1,0.3,1.4,0.6
		c0.4,0.3,0.8,0.6,1,1c0.3,0.4,0.4,0.9,0.5,1.5h-2.5c-0.1-0.6-0.4-1-0.8-1.2c-0.4-0.2-0.9-0.3-1.4-0.3c-0.2,0-0.4,0-0.6,0
		s-0.4,0.1-0.7,0.2c-0.2,0.1-0.4,0.2-0.5,0.3c-0.1,0.1-0.2,0.3-0.2,0.6c0,0.3,0.1,0.5,0.3,0.7c0.2,0.2,0.5,0.3,0.8,0.5
		c0.3,0.1,0.7,0.2,1.1,0.3c0.4,0.1,0.9,0.2,1.3,0.3c0.4,0.1,0.9,0.2,1.3,0.4s0.8,0.3,1.1,0.6c0.3,0.2,0.6,0.5,0.8,0.9
		s0.3,0.8,0.3,1.3c0,0.6-0.1,1.2-0.4,1.6c-0.3,0.5-0.7,0.8-1.1,1.1c-0.5,0.3-1,0.5-1.6,0.6c-0.6,0.1-1.1,0.2-1.7,0.2
		c-0.7,0-1.3-0.1-1.9-0.2c-0.6-0.2-1.1-0.4-1.5-0.7c-0.4-0.3-0.8-0.7-1-1.2c-0.2-0.5-0.4-1-0.4-1.7H-246.7z"/>
	<path fill="#767777" d="M-237.4,509.3h2.9v2.8h-2.9V509.3z M-237.4,517.1h2.9v2.8h-2.9V517.1z"/>
</g>
<g>
	<path fill="#767777" d="M-206.2,504.9h2.7l2.7,11.5h0l3-11.5h2.7l3,11.5h0l2.8-11.5h2.7l-4.2,15.1h-2.7l-3-11.5h0l-3.1,11.5h-2.7
		L-206.2,504.9z"/>
	<path fill="#767777" d="M-185.1,504.9h2.4v5.6h0c0.3-0.5,0.7-0.9,1.3-1.2c0.6-0.3,1.2-0.5,2-0.5c1.2,0,2.1,0.3,2.8,0.9
		c0.7,0.6,1,1.5,1,2.8v7.5h-2.4v-6.9c0-0.9-0.2-1.5-0.5-1.9s-0.9-0.6-1.6-0.6c-0.4,0-0.8,0.1-1.1,0.2s-0.6,0.4-0.8,0.6
		c-0.2,0.3-0.4,0.6-0.5,0.9s-0.2,0.7-0.2,1.1v6.4h-2.4V504.9z"/>
	<path fill="#767777" d="M-163.9,517.5c0,0.3,0,0.5,0.1,0.6c0.1,0.1,0.2,0.2,0.5,0.2c0.1,0,0.2,0,0.3,0c0.1,0,0.2,0,0.3,0v1.7
		c-0.1,0-0.2,0.1-0.3,0.1s-0.3,0.1-0.4,0.1s-0.3,0-0.4,0.1c-0.1,0-0.3,0-0.4,0c-0.5,0-0.9-0.1-1.2-0.3c-0.3-0.2-0.5-0.5-0.6-1
		c-0.5,0.5-1.1,0.8-1.8,1c-0.7,0.2-1.4,0.3-2,0.3c-0.5,0-1-0.1-1.4-0.2c-0.5-0.1-0.8-0.3-1.2-0.6c-0.3-0.3-0.6-0.6-0.8-1
		c-0.2-0.4-0.3-0.9-0.3-1.4c0-0.7,0.1-1.2,0.4-1.6c0.2-0.4,0.6-0.8,1-1c0.4-0.2,0.9-0.4,1.3-0.5c0.5-0.1,1-0.2,1.5-0.2
		c0.4-0.1,0.9-0.1,1.2-0.2s0.7-0.1,1-0.2c0.3-0.1,0.5-0.2,0.7-0.4s0.3-0.4,0.3-0.8c0-0.3-0.1-0.6-0.2-0.8c-0.1-0.2-0.3-0.3-0.5-0.5
		c-0.2-0.1-0.5-0.2-0.7-0.2c-0.3,0-0.5-0.1-0.8-0.1c-0.7,0-1.2,0.1-1.7,0.4c-0.4,0.3-0.7,0.7-0.7,1.3h-2.4c0-0.7,0.2-1.3,0.5-1.8
		c0.3-0.5,0.7-0.8,1.1-1.1c0.5-0.3,1-0.5,1.5-0.6c0.6-0.1,1.2-0.2,1.8-0.2c0.5,0,1.1,0.1,1.6,0.2c0.5,0.1,1,0.3,1.4,0.5s0.7,0.6,1,1
		s0.4,0.9,0.4,1.5V517.5z M-166.3,514.5c-0.4,0.2-0.8,0.4-1.3,0.4c-0.5,0-1.1,0.1-1.6,0.2c-0.3,0-0.5,0.1-0.7,0.2
		c-0.2,0.1-0.4,0.2-0.6,0.3c-0.2,0.1-0.3,0.3-0.4,0.5c-0.1,0.2-0.2,0.5-0.2,0.8c0,0.3,0.1,0.5,0.2,0.7c0.2,0.2,0.3,0.3,0.6,0.4
		c0.2,0.1,0.5,0.2,0.7,0.2s0.5,0.1,0.7,0.1c0.3,0,0.6,0,0.9-0.1c0.3-0.1,0.6-0.2,0.9-0.4c0.3-0.2,0.5-0.4,0.7-0.6
		c0.2-0.3,0.3-0.6,0.3-1V514.5z"/>
	<path fill="#767777" d="M-162.4,509.1h1.8v-3.3h2.4v3.3h2.2v1.8h-2.2v5.8c0,0.3,0,0.5,0,0.7s0.1,0.3,0.1,0.5s0.2,0.2,0.3,0.3
		c0.2,0.1,0.4,0.1,0.6,0.1c0.2,0,0.3,0,0.5,0c0.2,0,0.3,0,0.5-0.1v1.9c-0.3,0-0.5,0.1-0.8,0.1c-0.3,0-0.5,0-0.8,0
		c-0.6,0-1.1-0.1-1.5-0.2c-0.4-0.1-0.7-0.3-0.9-0.5c-0.2-0.2-0.4-0.5-0.4-0.9c-0.1-0.4-0.1-0.8-0.1-1.2v-6.4h-1.8V509.1z"/>
	<path fill="#767777" d="M-153.9,509.6c0.5-0.1,0.8-0.3,1-0.6c0.2-0.4,0.3-0.8,0.3-1.2h-1.3v-2.8h2.6v2.8c0,0.8-0.2,1.5-0.7,2.1
		c-0.5,0.6-1.1,0.9-1.9,1V509.6z"/>
	<path fill="#767777" d="M-148.2,516.5c0.1,0.7,0.3,1.2,0.8,1.5s1,0.4,1.7,0.4c0.2,0,0.5,0,0.8-0.1c0.3,0,0.6-0.1,0.8-0.2
		s0.5-0.2,0.6-0.4c0.2-0.2,0.2-0.4,0.2-0.7s-0.1-0.6-0.3-0.8c-0.2-0.2-0.5-0.4-0.8-0.5c-0.3-0.1-0.7-0.2-1.1-0.3
		c-0.4-0.1-0.9-0.2-1.3-0.3c-0.4-0.1-0.9-0.2-1.3-0.4c-0.4-0.1-0.8-0.3-1.1-0.6c-0.3-0.2-0.6-0.5-0.8-0.9c-0.2-0.4-0.3-0.8-0.3-1.4
		c0-0.6,0.1-1.1,0.4-1.5s0.7-0.7,1.1-1s0.9-0.4,1.5-0.5c0.5-0.1,1.1-0.1,1.5-0.1c0.6,0,1.1,0.1,1.6,0.2c0.5,0.1,1,0.3,1.4,0.6
		c0.4,0.3,0.8,0.6,1,1c0.3,0.4,0.4,0.9,0.5,1.5h-2.5c-0.1-0.6-0.4-1-0.8-1.2c-0.4-0.2-0.9-0.3-1.4-0.3c-0.2,0-0.4,0-0.6,0
		s-0.4,0.1-0.7,0.2c-0.2,0.1-0.4,0.2-0.5,0.3c-0.1,0.1-0.2,0.3-0.2,0.6c0,0.3,0.1,0.5,0.3,0.7c0.2,0.2,0.5,0.3,0.8,0.5
		c0.3,0.1,0.7,0.2,1.1,0.3c0.4,0.1,0.9,0.2,1.3,0.3c0.4,0.1,0.9,0.2,1.3,0.4s0.8,0.3,1.1,0.6c0.3,0.2,0.6,0.5,0.8,0.9
		s0.3,0.8,0.3,1.3c0,0.6-0.1,1.2-0.4,1.6c-0.3,0.5-0.7,0.8-1.1,1.1c-0.5,0.3-1,0.5-1.6,0.6c-0.6,0.1-1.1,0.2-1.7,0.2
		c-0.7,0-1.3-0.1-1.9-0.2c-0.6-0.2-1.1-0.4-1.5-0.7c-0.4-0.3-0.8-0.7-1-1.2c-0.2-0.5-0.4-1-0.4-1.7H-148.2z"/>
	<path fill="#767777" d="M-134.3,509.1h1.8v-3.3h2.4v3.3h2.2v1.8h-2.2v5.8c0,0.3,0,0.5,0,0.7s0.1,0.3,0.1,0.5s0.2,0.2,0.3,0.3
		c0.2,0.1,0.4,0.1,0.6,0.1c0.2,0,0.3,0,0.5,0c0.2,0,0.3,0,0.5-0.1v1.9c-0.3,0-0.5,0.1-0.8,0.1c-0.3,0-0.5,0-0.8,0
		c-0.6,0-1.1-0.1-1.5-0.2c-0.4-0.1-0.7-0.3-0.9-0.5c-0.2-0.2-0.4-0.5-0.4-0.9c-0.1-0.4-0.1-0.8-0.1-1.2v-6.4h-1.8V509.1z"/>
	<path fill="#767777" d="M-126.2,504.9h2.4v5.6h0c0.3-0.5,0.7-0.9,1.3-1.2c0.6-0.3,1.2-0.5,2-0.5c1.2,0,2.1,0.3,2.8,0.9
		c0.7,0.6,1,1.5,1,2.8v7.5h-2.4v-6.9c0-0.9-0.2-1.5-0.5-1.9s-0.9-0.6-1.6-0.6c-0.4,0-0.8,0.1-1.1,0.2s-0.6,0.4-0.8,0.6
		c-0.2,0.3-0.4,0.6-0.5,0.9s-0.2,0.7-0.2,1.1v6.4h-2.4V504.9z"/>
	<path fill="#767777" d="M-112.2,515.1c0,0.4,0.1,0.8,0.2,1.2c0.1,0.4,0.3,0.7,0.5,1c0.2,0.3,0.5,0.5,0.9,0.7
		c0.4,0.2,0.8,0.3,1.3,0.3c0.7,0,1.3-0.2,1.7-0.5s0.7-0.8,1-1.4h2.3c-0.1,0.6-0.3,1.1-0.7,1.6c-0.3,0.5-0.7,0.9-1.1,1.2
		s-0.9,0.6-1.5,0.7s-1.1,0.2-1.7,0.2c-0.9,0-1.6-0.1-2.3-0.4c-0.7-0.3-1.2-0.7-1.7-1.2c-0.5-0.5-0.8-1.1-1-1.8
		c-0.2-0.7-0.3-1.5-0.3-2.3c0-0.8,0.1-1.5,0.4-2.2c0.2-0.7,0.6-1.3,1.1-1.8c0.5-0.5,1-0.9,1.7-1.3s1.4-0.5,2.2-0.5
		c0.9,0,1.6,0.2,2.3,0.5c0.7,0.4,1.2,0.8,1.7,1.4c0.4,0.6,0.8,1.3,1,2c0.2,0.8,0.3,1.6,0.2,2.4H-112.2z M-106.6,513.6
		c0-0.4-0.1-0.7-0.2-1.1c-0.1-0.4-0.3-0.7-0.5-0.9c-0.2-0.3-0.5-0.5-0.8-0.6c-0.3-0.2-0.7-0.2-1.1-0.2c-0.4,0-0.8,0.1-1.1,0.2
		c-0.3,0.1-0.6,0.4-0.9,0.6c-0.2,0.3-0.4,0.6-0.6,0.9s-0.2,0.7-0.2,1.1H-106.6z"/>
	<path fill="#767777" d="M-87.4,517.5c0,0.3,0,0.5,0.1,0.6c0.1,0.1,0.2,0.2,0.5,0.2c0.1,0,0.2,0,0.3,0s0.2,0,0.3,0v1.7
		c-0.1,0-0.2,0.1-0.3,0.1s-0.3,0.1-0.4,0.1s-0.3,0-0.4,0.1c-0.1,0-0.3,0-0.4,0c-0.5,0-0.9-0.1-1.2-0.3c-0.3-0.2-0.5-0.5-0.6-1
		c-0.5,0.5-1.1,0.8-1.8,1s-1.4,0.3-2,0.3c-0.5,0-1-0.1-1.4-0.2c-0.5-0.1-0.8-0.3-1.2-0.6c-0.3-0.3-0.6-0.6-0.8-1s-0.3-0.9-0.3-1.4
		c0-0.7,0.1-1.2,0.4-1.6s0.6-0.8,1-1c0.4-0.2,0.9-0.4,1.3-0.5s1-0.2,1.5-0.2c0.4-0.1,0.9-0.1,1.2-0.2s0.7-0.1,1-0.2
		c0.3-0.1,0.5-0.2,0.7-0.4s0.3-0.4,0.3-0.8c0-0.3-0.1-0.6-0.2-0.8c-0.1-0.2-0.3-0.3-0.5-0.5c-0.2-0.1-0.5-0.2-0.7-0.2
		c-0.3,0-0.5-0.1-0.8-0.1c-0.7,0-1.2,0.1-1.7,0.4c-0.4,0.3-0.7,0.7-0.7,1.3h-2.4c0-0.7,0.2-1.3,0.5-1.8c0.3-0.5,0.7-0.8,1.1-1.1
		c0.5-0.3,1-0.5,1.5-0.6c0.6-0.1,1.2-0.2,1.8-0.2c0.5,0,1.1,0.1,1.6,0.2c0.5,0.1,1,0.3,1.4,0.5c0.4,0.3,0.7,0.6,1,1s0.4,0.9,0.4,1.5
		V517.5z M-89.8,514.5c-0.4,0.2-0.8,0.4-1.3,0.4c-0.5,0-1.1,0.1-1.6,0.2c-0.3,0-0.5,0.1-0.7,0.2s-0.5,0.2-0.6,0.3
		c-0.2,0.1-0.3,0.3-0.4,0.5c-0.1,0.2-0.2,0.5-0.2,0.8c0,0.3,0.1,0.5,0.2,0.7s0.3,0.3,0.6,0.4c0.2,0.1,0.5,0.2,0.7,0.2
		c0.3,0,0.5,0.1,0.7,0.1c0.3,0,0.6,0,0.9-0.1s0.6-0.2,0.9-0.4s0.5-0.4,0.7-0.6c0.2-0.3,0.3-0.6,0.3-1V514.5z"/>
	<path fill="#767777" d="M-77.4,512.7c-0.1-0.7-0.4-1.2-0.8-1.5s-1-0.5-1.7-0.5c-0.3,0-0.6,0.1-1,0.2c-0.4,0.1-0.7,0.3-1,0.6
		c-0.3,0.3-0.5,0.7-0.7,1.2c-0.2,0.5-0.3,1.2-0.3,2c0,0.5,0.1,0.9,0.2,1.3c0.1,0.5,0.3,0.9,0.5,1.2c0.2,0.4,0.5,0.6,0.9,0.9
		c0.4,0.2,0.8,0.3,1.3,0.3c0.7,0,1.3-0.2,1.7-0.7c0.5-0.4,0.7-1,0.9-1.8h2.4c-0.2,1.4-0.8,2.5-1.6,3.3s-2,1.1-3.4,1.1
		c-0.9,0-1.6-0.1-2.3-0.4c-0.7-0.3-1.2-0.7-1.7-1.2c-0.4-0.5-0.8-1.1-1-1.8c-0.2-0.7-0.3-1.4-0.3-2.2c0-0.8,0.1-1.6,0.3-2.3
		c0.2-0.7,0.6-1.3,1-1.9c0.4-0.5,1-0.9,1.7-1.2c0.7-0.3,1.5-0.5,2.4-0.5c0.6,0,1.2,0.1,1.8,0.2c0.6,0.2,1.1,0.4,1.5,0.7
		c0.4,0.3,0.8,0.7,1.1,1.2c0.3,0.5,0.4,1.1,0.5,1.8H-77.4z"/>
	<path fill="#767777" d="M-65.7,512.7c-0.1-0.7-0.4-1.2-0.8-1.5s-1-0.5-1.7-0.5c-0.3,0-0.6,0.1-1,0.2c-0.4,0.1-0.7,0.3-1,0.6
		c-0.3,0.3-0.5,0.7-0.7,1.2c-0.2,0.5-0.3,1.2-0.3,2c0,0.5,0.1,0.9,0.2,1.3c0.1,0.5,0.3,0.9,0.5,1.2c0.2,0.4,0.5,0.6,0.9,0.9
		c0.4,0.2,0.8,0.3,1.3,0.3c0.7,0,1.3-0.2,1.7-0.7c0.5-0.4,0.7-1,0.9-1.8h2.4c-0.2,1.4-0.8,2.5-1.6,3.3s-2,1.1-3.4,1.1
		c-0.9,0-1.6-0.1-2.3-0.4c-0.7-0.3-1.2-0.7-1.7-1.2c-0.4-0.5-0.8-1.1-1-1.8c-0.2-0.7-0.3-1.4-0.3-2.2c0-0.8,0.1-1.6,0.3-2.3
		c0.2-0.7,0.6-1.3,1-1.9c0.4-0.5,1-0.9,1.7-1.2c0.7-0.3,1.5-0.5,2.4-0.5c0.6,0,1.2,0.1,1.8,0.2c0.6,0.2,1.1,0.4,1.5,0.7
		c0.4,0.3,0.8,0.7,1.1,1.2c0.3,0.5,0.4,1.1,0.5,1.8H-65.7z"/>
	<path fill="#767777" d="M-59.4,515.1c0,0.4,0.1,0.8,0.2,1.2s0.3,0.7,0.5,1c0.2,0.3,0.5,0.5,0.9,0.7s0.8,0.3,1.3,0.3
		c0.7,0,1.3-0.2,1.7-0.5s0.7-0.8,1-1.4h2.3c-0.1,0.6-0.3,1.1-0.7,1.6c-0.3,0.5-0.7,0.9-1.1,1.2s-0.9,0.6-1.5,0.7s-1.1,0.2-1.7,0.2
		c-0.9,0-1.6-0.1-2.3-0.4c-0.7-0.3-1.2-0.7-1.7-1.2c-0.5-0.5-0.8-1.1-1-1.8c-0.2-0.7-0.3-1.5-0.3-2.3c0-0.8,0.1-1.5,0.4-2.2
		c0.2-0.7,0.6-1.3,1.1-1.8c0.5-0.5,1-0.9,1.7-1.3s1.4-0.5,2.2-0.5c0.9,0,1.6,0.2,2.3,0.5s1.2,0.8,1.7,1.4c0.5,0.6,0.8,1.3,1,2
		c0.2,0.8,0.3,1.6,0.2,2.4H-59.4z M-53.8,513.6c0-0.4-0.1-0.7-0.2-1.1c-0.1-0.4-0.3-0.7-0.5-0.9c-0.2-0.3-0.5-0.5-0.8-0.6
		c-0.3-0.2-0.7-0.2-1.1-0.2c-0.4,0-0.8,0.1-1.1,0.2s-0.6,0.4-0.9,0.6s-0.4,0.6-0.6,0.9s-0.2,0.7-0.2,1.1H-53.8z"/>
	<path fill="#767777" d="M-47.8,516.5c0.1,0.7,0.3,1.2,0.8,1.5s1,0.4,1.7,0.4c0.2,0,0.5,0,0.8-0.1c0.3,0,0.6-0.1,0.8-0.2
		s0.5-0.2,0.6-0.4c0.2-0.2,0.2-0.4,0.2-0.7c0-0.3-0.1-0.6-0.3-0.8c-0.2-0.2-0.5-0.4-0.8-0.5c-0.3-0.1-0.7-0.2-1.1-0.3
		c-0.4-0.1-0.9-0.2-1.3-0.3c-0.4-0.1-0.9-0.2-1.3-0.4c-0.4-0.1-0.8-0.3-1.1-0.6s-0.6-0.5-0.8-0.9c-0.2-0.4-0.3-0.8-0.3-1.4
		c0-0.6,0.1-1.1,0.4-1.5s0.7-0.7,1.1-1c0.4-0.2,0.9-0.4,1.5-0.5s1.1-0.1,1.5-0.1c0.6,0,1.1,0.1,1.6,0.2c0.5,0.1,1,0.3,1.4,0.6
		c0.4,0.3,0.8,0.6,1,1s0.4,0.9,0.5,1.5h-2.5c-0.1-0.6-0.4-1-0.8-1.2c-0.4-0.2-0.9-0.3-1.4-0.3c-0.2,0-0.4,0-0.6,0
		c-0.2,0-0.5,0.1-0.7,0.2c-0.2,0.1-0.4,0.2-0.5,0.3c-0.1,0.1-0.2,0.3-0.2,0.6c0,0.3,0.1,0.5,0.3,0.7c0.2,0.2,0.5,0.3,0.8,0.5
		s0.7,0.2,1.1,0.3c0.4,0.1,0.9,0.2,1.3,0.3c0.4,0.1,0.9,0.2,1.3,0.4s0.8,0.3,1.1,0.6c0.3,0.2,0.6,0.5,0.8,0.9
		c0.2,0.4,0.3,0.8,0.3,1.3c0,0.6-0.1,1.2-0.4,1.6c-0.3,0.5-0.7,0.8-1.1,1.1c-0.5,0.3-1,0.5-1.6,0.6s-1.1,0.2-1.7,0.2
		c-0.7,0-1.3-0.1-1.9-0.2s-1.1-0.4-1.5-0.7c-0.4-0.3-0.8-0.7-1-1.2c-0.2-0.5-0.4-1-0.4-1.7H-47.8z"/>
	<path fill="#767777" d="M-36.8,516.5c0.1,0.7,0.3,1.2,0.8,1.5s1,0.4,1.7,0.4c0.2,0,0.5,0,0.8-0.1c0.3,0,0.6-0.1,0.8-0.2
		s0.5-0.2,0.6-0.4c0.2-0.2,0.2-0.4,0.2-0.7c0-0.3-0.1-0.6-0.3-0.8c-0.2-0.2-0.5-0.4-0.8-0.5c-0.3-0.1-0.7-0.2-1.1-0.3
		c-0.4-0.1-0.9-0.2-1.3-0.3c-0.4-0.1-0.9-0.2-1.3-0.4c-0.4-0.1-0.8-0.3-1.1-0.6s-0.6-0.5-0.8-0.9c-0.2-0.4-0.3-0.8-0.3-1.4
		c0-0.6,0.1-1.1,0.4-1.5s0.7-0.7,1.1-1c0.4-0.2,0.9-0.4,1.5-0.5s1.1-0.1,1.5-0.1c0.6,0,1.1,0.1,1.6,0.2c0.5,0.1,1,0.3,1.4,0.6
		c0.4,0.3,0.8,0.6,1,1s0.4,0.9,0.5,1.5h-2.5c-0.1-0.6-0.4-1-0.8-1.2c-0.4-0.2-0.9-0.3-1.4-0.3c-0.2,0-0.4,0-0.6,0
		c-0.2,0-0.5,0.1-0.7,0.2c-0.2,0.1-0.4,0.2-0.5,0.3c-0.1,0.1-0.2,0.3-0.2,0.6c0,0.3,0.1,0.5,0.3,0.7c0.2,0.2,0.5,0.3,0.8,0.5
		s0.7,0.2,1.1,0.3c0.4,0.1,0.9,0.2,1.3,0.3c0.4,0.1,0.9,0.2,1.3,0.4c0.4,0.1,0.8,0.3,1.1,0.6c0.3,0.2,0.6,0.5,0.8,0.9
		c0.2,0.4,0.3,0.8,0.3,1.3c0,0.6-0.1,1.2-0.4,1.6c-0.3,0.5-0.7,0.8-1.1,1.1c-0.5,0.3-1,0.5-1.6,0.6s-1.1,0.2-1.7,0.2
		c-0.7,0-1.3-0.1-1.9-0.2s-1.1-0.4-1.5-0.7c-0.4-0.3-0.8-0.7-1-1.2c-0.2-0.5-0.4-1-0.4-1.7H-36.8z"/>
	<path fill="#767777" d="M-14.5,512.7c-0.1-0.7-0.4-1.2-0.8-1.5s-1-0.5-1.7-0.5c-0.3,0-0.6,0.1-1,0.2c-0.4,0.1-0.7,0.3-1,0.6
		c-0.3,0.3-0.5,0.7-0.7,1.2c-0.2,0.5-0.3,1.2-0.3,2c0,0.5,0.1,0.9,0.2,1.3c0.1,0.5,0.3,0.9,0.5,1.2c0.2,0.4,0.5,0.6,0.9,0.9
		c0.4,0.2,0.8,0.3,1.3,0.3c0.7,0,1.3-0.2,1.7-0.7c0.5-0.4,0.7-1,0.9-1.8h2.4c-0.2,1.4-0.8,2.5-1.6,3.3s-2,1.1-3.4,1.1
		c-0.9,0-1.6-0.1-2.3-0.4c-0.7-0.3-1.2-0.7-1.7-1.2c-0.4-0.5-0.8-1.1-1-1.8c-0.2-0.7-0.3-1.4-0.3-2.2c0-0.8,0.1-1.6,0.3-2.3
		c0.2-0.7,0.6-1.3,1-1.9c0.4-0.5,1-0.9,1.7-1.2c0.7-0.3,1.5-0.5,2.4-0.5c0.6,0,1.2,0.1,1.8,0.2c0.6,0.2,1.1,0.4,1.5,0.7
		c0.4,0.3,0.8,0.7,1.1,1.2c0.3,0.5,0.4,1.1,0.5,1.8H-14.5z"/>
	<path fill="#767777" d="M-5.1,520.3c-0.9,0-1.6-0.1-2.3-0.4s-1.3-0.7-1.7-1.2c-0.5-0.5-0.8-1.1-1.1-1.8s-0.4-1.5-0.4-2.3
		c0-0.8,0.1-1.6,0.4-2.3c0.2-0.7,0.6-1.3,1.1-1.8c0.5-0.5,1-0.9,1.7-1.2c0.7-0.3,1.5-0.4,2.3-0.4c0.9,0,1.6,0.1,2.3,0.4
		c0.7,0.3,1.3,0.7,1.7,1.2c0.5,0.5,0.8,1.1,1.1,1.8c0.2,0.7,0.4,1.5,0.4,2.3c0,0.8-0.1,1.6-0.4,2.3c-0.2,0.7-0.6,1.3-1.1,1.8
		c-0.5,0.5-1,0.9-1.7,1.2S-4.2,520.3-5.1,520.3z M-5.1,518.4c0.5,0,1-0.1,1.4-0.3c0.4-0.2,0.7-0.5,1-0.9s0.4-0.8,0.6-1.2
		c0.1-0.5,0.2-0.9,0.2-1.4c0-0.5-0.1-0.9-0.2-1.4c-0.1-0.5-0.3-0.9-0.6-1.2c-0.3-0.4-0.6-0.7-1-0.9c-0.4-0.2-0.9-0.3-1.4-0.3
		s-1,0.1-1.4,0.3c-0.4,0.2-0.7,0.5-1,0.9c-0.3,0.4-0.4,0.8-0.6,1.2c-0.1,0.5-0.2,0.9-0.2,1.4c0,0.5,0.1,0.9,0.2,1.4
		c0.1,0.5,0.3,0.9,0.6,1.2s0.6,0.7,1,0.9C-6.1,518.3-5.7,518.4-5.1,518.4z"/>
	<path fill="#767777" d="M12.7,520h-2.3v-1.5h0c-0.3,0.6-0.8,1.1-1.4,1.4c-0.6,0.3-1.3,0.4-2,0.4c-0.9,0-1.6-0.2-2.2-0.5
		c-0.6-0.3-1.2-0.7-1.6-1.2c-0.4-0.5-0.7-1.1-0.9-1.8s-0.3-1.5-0.3-2.3c0-1,0.1-1.8,0.4-2.6s0.6-1.3,1.1-1.8c0.4-0.5,0.9-0.8,1.5-1
		c0.6-0.2,1.1-0.3,1.7-0.3c0.3,0,0.7,0,1,0.1c0.4,0.1,0.7,0.2,1,0.3s0.6,0.3,0.9,0.5c0.3,0.2,0.5,0.5,0.7,0.8h0v-5.6h2.4V520z
		 M4.3,514.6c0,0.5,0.1,0.9,0.2,1.4s0.3,0.9,0.5,1.2c0.2,0.4,0.6,0.6,0.9,0.8c0.4,0.2,0.8,0.3,1.3,0.3c0.5,0,1-0.1,1.4-0.3
		c0.4-0.2,0.7-0.5,0.9-0.9s0.4-0.8,0.5-1.2s0.2-0.9,0.2-1.4c0-1.2-0.3-2.2-0.8-2.8c-0.5-0.7-1.3-1-2.2-1c-0.6,0-1,0.1-1.4,0.3
		c-0.4,0.2-0.7,0.5-0.9,0.9c-0.2,0.4-0.4,0.8-0.5,1.3C4.3,513.7,4.3,514.1,4.3,514.6z"/>
	<path fill="#767777" d="M17.1,515.1c0,0.4,0.1,0.8,0.2,1.2c0.1,0.4,0.3,0.7,0.5,1s0.5,0.5,0.9,0.7c0.4,0.2,0.8,0.3,1.3,0.3
		c0.7,0,1.3-0.2,1.7-0.5c0.4-0.3,0.7-0.8,1-1.4H25c-0.1,0.6-0.3,1.1-0.7,1.6c-0.3,0.5-0.7,0.9-1.1,1.2s-0.9,0.6-1.5,0.7
		c-0.5,0.2-1.1,0.2-1.7,0.2c-0.9,0-1.6-0.1-2.3-0.4c-0.7-0.3-1.2-0.7-1.7-1.2c-0.5-0.5-0.8-1.1-1-1.8c-0.2-0.7-0.3-1.5-0.3-2.3
		c0-0.8,0.1-1.5,0.4-2.2c0.2-0.7,0.6-1.3,1.1-1.8c0.5-0.5,1-0.9,1.7-1.3s1.4-0.5,2.2-0.5c0.9,0,1.6,0.2,2.3,0.5s1.2,0.8,1.7,1.4
		c0.5,0.6,0.8,1.3,1,2c0.2,0.8,0.3,1.6,0.2,2.4H17.1z M22.8,513.6c0-0.4-0.1-0.7-0.2-1.1c-0.1-0.4-0.3-0.7-0.5-0.9
		c-0.2-0.3-0.5-0.5-0.8-0.6c-0.3-0.2-0.7-0.2-1.1-0.2c-0.4,0-0.8,0.1-1.1,0.2c-0.3,0.1-0.6,0.4-0.9,0.6s-0.4,0.6-0.6,0.9
		c-0.1,0.4-0.2,0.7-0.2,1.1H22.8z"/>
	<path fill="#767777" d="M31.8,509.1h1.8v-3.3H36v3.3h2.2v1.8H36v5.8c0,0.3,0,0.5,0,0.7c0,0.2,0.1,0.3,0.1,0.5
		c0.1,0.1,0.2,0.2,0.3,0.3c0.2,0.1,0.4,0.1,0.6,0.1c0.2,0,0.3,0,0.5,0s0.3,0,0.5-0.1v1.9c-0.3,0-0.5,0.1-0.8,0.1c-0.3,0-0.5,0-0.8,0
		c-0.6,0-1.1-0.1-1.5-0.2c-0.4-0.1-0.7-0.3-0.9-0.5c-0.2-0.2-0.4-0.5-0.4-0.9s-0.1-0.8-0.1-1.2v-6.4h-1.8V509.1z"/>
	<path fill="#767777" d="M44.9,520.3c-0.9,0-1.6-0.1-2.3-0.4s-1.3-0.7-1.7-1.2s-0.8-1.1-1.1-1.8s-0.4-1.5-0.4-2.3
		c0-0.8,0.1-1.6,0.4-2.3c0.2-0.7,0.6-1.3,1.1-1.8s1-0.9,1.7-1.2c0.7-0.3,1.5-0.4,2.3-0.4c0.9,0,1.6,0.1,2.3,0.4
		c0.7,0.3,1.3,0.7,1.7,1.2s0.8,1.1,1.1,1.8c0.2,0.7,0.4,1.5,0.4,2.3c0,0.8-0.1,1.6-0.4,2.3s-0.6,1.3-1.1,1.8s-1,0.9-1.7,1.2
		C46.5,520.1,45.7,520.3,44.9,520.3z M44.9,518.4c0.5,0,1-0.1,1.4-0.3c0.4-0.2,0.7-0.5,1-0.9s0.4-0.8,0.6-1.2s0.2-0.9,0.2-1.4
		c0-0.5-0.1-0.9-0.2-1.4s-0.3-0.9-0.6-1.2c-0.3-0.4-0.6-0.7-1-0.9c-0.4-0.2-0.9-0.3-1.4-0.3s-1,0.1-1.4,0.3c-0.4,0.2-0.7,0.5-1,0.9
		c-0.3,0.4-0.4,0.8-0.6,1.2s-0.2,0.9-0.2,1.4c0,0.5,0.1,0.9,0.2,1.4s0.3,0.9,0.6,1.2c0.3,0.4,0.6,0.7,1,0.9
		C43.9,518.3,44.3,518.4,44.9,518.4z"/>
	<path fill="#767777" d="M57.1,509.1H59v-3.3h2.4v3.3h2.2v1.8h-2.2v5.8c0,0.3,0,0.5,0,0.7c0,0.2,0.1,0.3,0.1,0.5
		c0.1,0.1,0.2,0.2,0.3,0.3c0.2,0.1,0.4,0.1,0.6,0.1c0.2,0,0.3,0,0.5,0s0.3,0,0.5-0.1v1.9c-0.3,0-0.5,0.1-0.8,0.1c-0.3,0-0.5,0-0.8,0
		c-0.6,0-1.1-0.1-1.5-0.2c-0.4-0.1-0.7-0.3-0.9-0.5c-0.2-0.2-0.4-0.5-0.4-0.9s-0.1-0.8-0.1-1.2v-6.4h-1.8V509.1z"/>
	<path fill="#767777" d="M65.3,504.9h2.4v5.6h0c0.3-0.5,0.7-0.9,1.3-1.2c0.6-0.3,1.2-0.5,2-0.5c1.2,0,2.1,0.3,2.8,0.9s1,1.5,1,2.8
		v7.5h-2.4v-6.9c0-0.9-0.2-1.5-0.5-1.9c-0.3-0.4-0.9-0.6-1.6-0.6c-0.4,0-0.8,0.1-1.1,0.2s-0.6,0.4-0.8,0.6s-0.4,0.6-0.5,0.9
		c-0.1,0.4-0.2,0.7-0.2,1.1v6.4h-2.4V504.9z"/>
	<path fill="#767777" d="M79.2,515.1c0,0.4,0.1,0.8,0.2,1.2c0.1,0.4,0.3,0.7,0.5,1s0.5,0.5,0.9,0.7c0.4,0.2,0.8,0.3,1.3,0.3
		c0.7,0,1.3-0.2,1.7-0.5c0.4-0.3,0.7-0.8,1-1.4h2.3c-0.1,0.6-0.3,1.1-0.7,1.6c-0.3,0.5-0.7,0.9-1.1,1.2s-0.9,0.6-1.5,0.7
		c-0.5,0.2-1.1,0.2-1.7,0.2c-0.9,0-1.6-0.1-2.3-0.4c-0.7-0.3-1.2-0.7-1.7-1.2c-0.5-0.5-0.8-1.1-1-1.8c-0.2-0.7-0.3-1.5-0.3-2.3
		c0-0.8,0.1-1.5,0.4-2.2c0.2-0.7,0.6-1.3,1.1-1.8c0.5-0.5,1-0.9,1.7-1.3s1.4-0.5,2.2-0.5c0.9,0,1.6,0.2,2.3,0.5s1.2,0.8,1.7,1.4
		c0.5,0.6,0.8,1.3,1,2c0.2,0.8,0.3,1.6,0.2,2.4H79.2z M84.9,513.6c0-0.4-0.1-0.7-0.2-1.1c-0.1-0.4-0.3-0.7-0.5-0.9
		c-0.2-0.3-0.5-0.5-0.8-0.6c-0.3-0.2-0.7-0.2-1.1-0.2c-0.4,0-0.8,0.1-1.1,0.2c-0.3,0.1-0.6,0.4-0.9,0.6s-0.4,0.6-0.6,0.9
		c-0.1,0.4-0.2,0.7-0.2,1.1H84.9z"/>
	<path fill="#767777" d="M95,509.1h2.3v1.5h0c0.3-0.6,0.8-1.1,1.4-1.4c0.6-0.3,1.3-0.4,2-0.4c0.9,0,1.6,0.2,2.2,0.5
		c0.6,0.3,1.2,0.7,1.6,1.2s0.7,1.1,0.9,1.8c0.2,0.7,0.3,1.5,0.3,2.3c0,0.7-0.1,1.4-0.3,2.1c-0.2,0.7-0.5,1.3-0.9,1.8
		c-0.4,0.5-0.9,0.9-1.5,1.3c-0.6,0.3-1.3,0.5-2.1,0.5c-0.4,0-0.7,0-1.1-0.1c-0.4-0.1-0.7-0.2-1-0.3s-0.6-0.3-0.9-0.5
		c-0.3-0.2-0.5-0.5-0.7-0.8h0v5.4H95V509.1z M103.4,514.5c0-0.5-0.1-1-0.2-1.4c-0.1-0.5-0.3-0.9-0.6-1.2c-0.3-0.4-0.6-0.6-0.9-0.9
		s-0.8-0.3-1.3-0.3c-1,0-1.8,0.4-2.3,1.1c-0.5,0.7-0.8,1.6-0.8,2.8c0,0.5,0.1,1.1,0.2,1.5c0.1,0.5,0.3,0.9,0.6,1.2
		c0.3,0.3,0.6,0.6,1,0.8c0.4,0.2,0.8,0.3,1.3,0.3c0.5,0,1-0.1,1.4-0.3c0.4-0.2,0.7-0.5,0.9-0.9c0.2-0.4,0.4-0.8,0.5-1.2
		C103.4,515.5,103.4,515,103.4,514.5z"/>
	<path fill="#767777" d="M112.8,520.3c-0.9,0-1.6-0.1-2.3-0.4s-1.3-0.7-1.7-1.2s-0.8-1.1-1.1-1.8s-0.4-1.5-0.4-2.3
		c0-0.8,0.1-1.6,0.4-2.3c0.2-0.7,0.6-1.3,1.1-1.8s1-0.9,1.7-1.2c0.7-0.3,1.5-0.4,2.3-0.4c0.9,0,1.6,0.1,2.3,0.4
		c0.7,0.3,1.3,0.7,1.7,1.2s0.8,1.1,1.1,1.8c0.2,0.7,0.4,1.5,0.4,2.3c0,0.8-0.1,1.6-0.4,2.3s-0.6,1.3-1.1,1.8s-1,0.9-1.7,1.2
		C114.5,520.1,113.7,520.3,112.8,520.3z M112.8,518.4c0.5,0,1-0.1,1.4-0.3c0.4-0.2,0.7-0.5,1-0.9s0.4-0.8,0.6-1.2s0.2-0.9,0.2-1.4
		c0-0.5-0.1-0.9-0.2-1.4s-0.3-0.9-0.6-1.2c-0.3-0.4-0.6-0.7-1-0.9c-0.4-0.2-0.9-0.3-1.4-0.3s-1,0.1-1.4,0.3c-0.4,0.2-0.7,0.5-1,0.9
		c-0.3,0.4-0.4,0.8-0.6,1.2s-0.2,0.9-0.2,1.4c0,0.5,0.1,0.9,0.2,1.4s0.3,0.9,0.6,1.2c0.3,0.4,0.6,0.7,1,0.9
		C111.8,518.3,112.3,518.4,112.8,518.4z"/>
	<path fill="#767777" d="M125.3,520.3c-0.9,0-1.6-0.1-2.3-0.4s-1.3-0.7-1.7-1.2s-0.8-1.1-1.1-1.8s-0.4-1.5-0.4-2.3
		c0-0.8,0.1-1.6,0.4-2.3c0.2-0.7,0.6-1.3,1.1-1.8s1-0.9,1.7-1.2c0.7-0.3,1.5-0.4,2.3-0.4c0.9,0,1.6,0.1,2.3,0.4
		c0.7,0.3,1.3,0.7,1.7,1.2s0.8,1.1,1.1,1.8c0.2,0.7,0.4,1.5,0.4,2.3c0,0.8-0.1,1.6-0.4,2.3s-0.6,1.3-1.1,1.8s-1,0.9-1.7,1.2
		C127,520.1,126.2,520.3,125.3,520.3z M125.3,518.4c0.5,0,1-0.1,1.4-0.3c0.4-0.2,0.7-0.5,1-0.9s0.4-0.8,0.6-1.2s0.2-0.9,0.2-1.4
		c0-0.5-0.1-0.9-0.2-1.4s-0.3-0.9-0.6-1.2c-0.3-0.4-0.6-0.7-1-0.9c-0.4-0.2-0.9-0.3-1.4-0.3s-1,0.1-1.4,0.3c-0.4,0.2-0.7,0.5-1,0.9
		c-0.3,0.4-0.4,0.8-0.6,1.2s-0.2,0.9-0.2,1.4c0,0.5,0.1,0.9,0.2,1.4s0.3,0.9,0.6,1.2c0.3,0.4,0.6,0.7,1,0.9
		C124.3,518.3,124.8,518.4,125.3,518.4z"/>
	<path fill="#767777" d="M132.9,504.9h2.4V520h-2.4V504.9z"/>
	<path fill="#767777" d="M137.7,509.7c0-0.8,0.1-1.5,0.3-2.1c0.2-0.6,0.6-1.2,1-1.6c0.4-0.5,1-0.8,1.6-1c0.6-0.2,1.3-0.4,2.1-0.4
		c0.6,0,1.2,0.1,1.8,0.3s1,0.5,1.5,0.8c0.4,0.4,0.7,0.8,1,1.3s0.4,1.1,0.4,1.8c0,0.5-0.1,0.9-0.2,1.3s-0.2,0.7-0.4,0.9
		c-0.2,0.3-0.4,0.5-0.6,0.7s-0.5,0.4-0.7,0.6c-0.3,0.2-0.5,0.4-0.7,0.7c-0.2,0.2-0.4,0.4-0.6,0.7c-0.2,0.3-0.3,0.6-0.4,0.9
		s-0.1,0.8-0.1,1.3h-2.3c0-0.6,0-1.1,0.1-1.6s0.2-0.8,0.3-1.1c0.1-0.3,0.3-0.6,0.5-0.9s0.4-0.5,0.7-0.7c0.2-0.2,0.4-0.4,0.6-0.5
		c0.2-0.2,0.4-0.4,0.5-0.6c0.2-0.2,0.3-0.4,0.4-0.7c0.1-0.3,0.1-0.6,0.1-0.9c0-0.4-0.1-0.8-0.2-1.1c-0.1-0.3-0.3-0.5-0.5-0.7
		c-0.2-0.2-0.4-0.3-0.7-0.4c-0.2-0.1-0.5-0.1-0.6-0.1c-0.9,0-1.5,0.3-1.9,0.9c-0.4,0.6-0.6,1.3-0.6,2.3H137.7z M141,517.3h2.8v2.6
		H141V517.3z"/>
</g>
<linearGradient id="SVGID_2_" gradientUnits="userSpaceOnUse" x1="-101.9968" y1="121.9446" x2="-101.9968" y2="206.5932" gradientTransform="matrix(1 0 0 -1 0 794.172)">
	<stop  offset="0" style="stop-color:#808080;stop-opacity:0.25"/>
	<stop  offset="0.54" style="stop-color:#808080;stop-opacity:0.12"/>
	<stop  offset="1" style="stop-color:#808080;stop-opacity:0.1"/>
</linearGradient>
<rect x="-387" y="587.6" fill="url(#SVGID_2_)" width="570" height="84.6"/>
<rect x="-383.7" y="590.4" fill="#FFFFFF" width="562.5" height="77.4"/>
<rect x="-218" y="603.3" fill="#F5F5F5" width="377" height="51.5"/>
<g>
	<path fill="#767777" d="M-340.6,621.8h12.2v2.3h-4.8v12.8h-2.6v-12.8h-4.8V621.8z"/>
	<path fill="#767777" d="M-327,621.8h2.4v5.6h0c0.3-0.5,0.7-0.9,1.3-1.2c0.6-0.3,1.2-0.5,2-0.5c1.2,0,2.1,0.3,2.8,0.9
		c0.7,0.6,1,1.5,1,2.8v7.5h-2.4V630c0-0.9-0.2-1.5-0.5-1.9s-0.9-0.6-1.6-0.6c-0.4,0-0.8,0.1-1.1,0.2s-0.6,0.4-0.8,0.6
		c-0.2,0.3-0.4,0.6-0.5,0.9s-0.2,0.7-0.2,1.1v6.4h-2.4V621.8z"/>
	<path fill="#767777" d="M-313.1,632c0,0.4,0.1,0.8,0.2,1.2c0.1,0.4,0.3,0.7,0.5,1c0.2,0.3,0.5,0.5,0.9,0.7c0.4,0.2,0.8,0.3,1.3,0.3
		c0.7,0,1.3-0.2,1.7-0.5s0.7-0.8,1-1.4h2.3c-0.1,0.6-0.3,1.1-0.7,1.6c-0.3,0.5-0.7,0.9-1.1,1.2s-0.9,0.6-1.5,0.7s-1.1,0.2-1.7,0.2
		c-0.9,0-1.6-0.1-2.3-0.4c-0.7-0.3-1.2-0.7-1.7-1.2c-0.5-0.5-0.8-1.1-1-1.8c-0.2-0.7-0.3-1.5-0.3-2.3c0-0.8,0.1-1.5,0.4-2.2
		c0.2-0.7,0.6-1.3,1.1-1.8c0.5-0.5,1-0.9,1.7-1.3s1.4-0.5,2.2-0.5c0.9,0,1.6,0.2,2.3,0.5c0.7,0.4,1.2,0.8,1.7,1.4
		c0.4,0.6,0.8,1.3,1,2c0.2,0.8,0.3,1.6,0.2,2.4H-313.1z M-307.5,630.5c0-0.4-0.1-0.7-0.2-1.1c-0.1-0.4-0.3-0.7-0.5-0.9
		c-0.2-0.3-0.5-0.5-0.8-0.6c-0.3-0.2-0.7-0.2-1.1-0.2c-0.4,0-0.8,0.1-1.1,0.2c-0.3,0.1-0.6,0.4-0.9,0.6c-0.2,0.3-0.4,0.6-0.6,0.9
		s-0.2,0.7-0.2,1.1H-307.5z"/>
	<path fill="#767777" d="M-303.2,626h2.3v1.6l0,0c0.4-0.6,0.8-1.1,1.4-1.4s1.2-0.5,2-0.5c1.2,0,2.1,0.3,2.8,0.9c0.7,0.6,1,1.5,1,2.8
		v7.5h-2.4V630c0-0.9-0.2-1.5-0.5-1.9s-0.9-0.6-1.6-0.6c-0.4,0-0.8,0.1-1.1,0.2s-0.6,0.4-0.8,0.6c-0.2,0.3-0.4,0.6-0.5,0.9
		s-0.2,0.7-0.2,1.1v6.4h-2.4V626z"/>
	<path fill="#767777" d="M-285.2,626h2.3v2.1h0c0.1-0.3,0.2-0.6,0.4-0.9c0.2-0.3,0.4-0.5,0.7-0.8c0.3-0.2,0.6-0.4,1-0.6
		s0.7-0.2,1.1-0.2c0.3,0,0.5,0,0.6,0c0.1,0,0.2,0,0.3,0v2.3c-0.2,0-0.3-0.1-0.5-0.1c-0.2,0-0.3,0-0.5,0c-0.4,0-0.8,0.1-1.1,0.2
		c-0.4,0.2-0.7,0.4-0.9,0.7c-0.3,0.3-0.5,0.7-0.6,1.2c-0.2,0.5-0.2,1-0.2,1.6v5.2h-2.4V626z"/>
	<path fill="#767777" d="M-276.3,632c0,0.4,0.1,0.8,0.2,1.2c0.1,0.4,0.3,0.7,0.5,1c0.2,0.3,0.5,0.5,0.9,0.7c0.4,0.2,0.8,0.3,1.3,0.3
		c0.7,0,1.3-0.2,1.7-0.5s0.7-0.8,1-1.4h2.3c-0.1,0.6-0.3,1.1-0.7,1.6c-0.3,0.5-0.7,0.9-1.1,1.2s-0.9,0.6-1.5,0.7s-1.1,0.2-1.7,0.2
		c-0.9,0-1.6-0.1-2.3-0.4c-0.7-0.3-1.2-0.7-1.7-1.2c-0.5-0.5-0.8-1.1-1-1.8c-0.2-0.7-0.3-1.5-0.3-2.3c0-0.8,0.1-1.5,0.4-2.2
		c0.2-0.7,0.6-1.3,1.1-1.8c0.5-0.5,1-0.9,1.7-1.3s1.4-0.5,2.2-0.5c0.9,0,1.6,0.2,2.3,0.5c0.7,0.4,1.2,0.8,1.7,1.4
		c0.4,0.6,0.8,1.3,1,2c0.2,0.8,0.3,1.6,0.2,2.4H-276.3z M-270.7,630.5c0-0.4-0.1-0.7-0.2-1.1c-0.1-0.4-0.3-0.7-0.5-0.9
		c-0.2-0.3-0.5-0.5-0.8-0.6c-0.3-0.2-0.7-0.2-1.1-0.2c-0.4,0-0.8,0.1-1.1,0.2c-0.3,0.1-0.6,0.4-0.9,0.6c-0.2,0.3-0.4,0.6-0.6,0.9
		s-0.2,0.7-0.2,1.1H-270.7z"/>
	<path fill="#767777" d="M-266.4,626h2.3v1.5h0c0.3-0.6,0.8-1.1,1.4-1.4c0.6-0.3,1.3-0.4,2-0.4c0.9,0,1.6,0.2,2.2,0.5
		c0.6,0.3,1.2,0.7,1.6,1.2c0.4,0.5,0.7,1.1,0.9,1.8c0.2,0.7,0.3,1.5,0.3,2.3c0,0.7-0.1,1.4-0.3,2.1c-0.2,0.7-0.5,1.3-0.9,1.8
		s-0.9,0.9-1.5,1.3c-0.6,0.3-1.3,0.5-2.1,0.5c-0.4,0-0.7,0-1.1-0.1c-0.4-0.1-0.7-0.2-1-0.3c-0.3-0.1-0.6-0.3-0.9-0.5
		c-0.3-0.2-0.5-0.5-0.7-0.8h0v5.4h-2.4V626z M-258,631.4c0-0.5-0.1-1-0.2-1.4s-0.3-0.9-0.6-1.2s-0.6-0.6-0.9-0.9s-0.8-0.3-1.3-0.3
		c-1,0-1.8,0.4-2.3,1.1s-0.8,1.6-0.8,2.8c0,0.5,0.1,1.1,0.2,1.5c0.1,0.5,0.3,0.9,0.6,1.2c0.3,0.3,0.6,0.6,1,0.8
		c0.4,0.2,0.8,0.3,1.3,0.3c0.5,0,1-0.1,1.4-0.3c0.4-0.2,0.7-0.5,0.9-0.9c0.2-0.4,0.4-0.8,0.5-1.2C-258.1,632.4-258,631.9-258,631.4z
		"/>
	<path fill="#767777" d="M-253.5,621.8h2.4v15.1h-2.4V621.8z"/>
	<path fill="#767777" d="M-249.7,626h2.6l2.8,8.1h0l2.8-8.1h2.5l-4.2,11.5c-0.2,0.5-0.4,1-0.6,1.4s-0.4,0.8-0.7,1.2s-0.6,0.6-1,0.8
		c-0.4,0.2-0.9,0.3-1.6,0.3c-0.6,0-1.1,0-1.7-0.1v-2c0.2,0,0.4,0.1,0.6,0.1c0.2,0,0.4,0.1,0.6,0.1c0.3,0,0.5,0,0.7-0.1
		c0.2-0.1,0.3-0.2,0.5-0.3c0.1-0.1,0.2-0.3,0.3-0.5s0.2-0.4,0.2-0.6l0.3-0.8L-249.7,626z"/>
	<path fill="#767777" d="M-237.4,626.2h2.9v2.8h-2.9V626.2z M-237.4,634h2.9v2.8h-2.9V634z"/>
</g>
<g>
	<path fill="#767777" d="M-204.8,621.8h2.6v6h6.9v-6h2.6v15.1h-2.6v-6.8h-6.9v6.8h-2.6V621.8z"/>
	<path fill="#767777" d="M-189.8,621.8h2.4v2.3h-2.4V621.8z M-189.8,626h2.4v10.9h-2.4V626z"/>
	<path fill="#767777" d="M-168.5,637l-10.7-4.7v-1.5l10.7-4.7v2.2l-7.9,3.4l7.9,3.4V637z"/>
	<path fill="#767777" d="M-166.2,626h2.3v1.6l0,0c0.4-0.6,0.8-1.1,1.4-1.4s1.2-0.5,2-0.5c1.2,0,2.1,0.3,2.8,0.9c0.7,0.6,1,1.5,1,2.8
		v7.5h-2.4V630c0-0.9-0.2-1.5-0.5-1.9s-0.9-0.6-1.6-0.6c-0.4,0-0.8,0.1-1.1,0.2s-0.6,0.4-0.8,0.6c-0.2,0.3-0.4,0.6-0.5,0.9
		s-0.2,0.7-0.2,1.1v6.4h-2.4V626z"/>
	<path fill="#767777" d="M-145,634.5c0,0.3,0,0.5,0.1,0.6c0.1,0.1,0.2,0.2,0.5,0.2c0.1,0,0.2,0,0.3,0c0.1,0,0.2,0,0.3,0v1.7
		c-0.1,0-0.2,0.1-0.3,0.1s-0.3,0.1-0.4,0.1s-0.3,0-0.4,0.1c-0.1,0-0.3,0-0.4,0c-0.5,0-0.9-0.1-1.2-0.3c-0.3-0.2-0.5-0.5-0.6-1
		c-0.5,0.5-1.1,0.8-1.8,1c-0.7,0.2-1.4,0.3-2,0.3c-0.5,0-1-0.1-1.4-0.2c-0.5-0.1-0.8-0.3-1.2-0.6c-0.3-0.3-0.6-0.6-0.8-1
		c-0.2-0.4-0.3-0.9-0.3-1.4c0-0.7,0.1-1.2,0.4-1.6c0.2-0.4,0.6-0.8,1-1c0.4-0.2,0.9-0.4,1.3-0.5c0.5-0.1,1-0.2,1.5-0.2
		c0.4-0.1,0.9-0.1,1.2-0.2s0.7-0.1,1-0.2c0.3-0.1,0.5-0.2,0.7-0.4s0.3-0.4,0.3-0.8c0-0.3-0.1-0.6-0.2-0.8c-0.1-0.2-0.3-0.3-0.5-0.5
		c-0.2-0.1-0.5-0.2-0.7-0.2c-0.3,0-0.5-0.1-0.8-0.1c-0.7,0-1.2,0.1-1.7,0.4c-0.4,0.3-0.7,0.7-0.7,1.3h-2.4c0-0.7,0.2-1.3,0.5-1.8
		c0.3-0.5,0.7-0.8,1.1-1.1c0.5-0.3,1-0.5,1.5-0.6c0.6-0.1,1.2-0.2,1.8-0.2c0.5,0,1.1,0.1,1.6,0.2c0.5,0.1,1,0.3,1.4,0.5s0.7,0.6,1,1
		s0.4,0.9,0.4,1.5V634.5z M-147.4,631.4c-0.4,0.2-0.8,0.4-1.3,0.4c-0.5,0-1.1,0.1-1.6,0.2c-0.3,0-0.5,0.1-0.7,0.2
		c-0.2,0.1-0.4,0.2-0.6,0.3c-0.2,0.1-0.3,0.3-0.4,0.5c-0.1,0.2-0.2,0.5-0.2,0.8c0,0.3,0.1,0.5,0.2,0.7c0.2,0.2,0.3,0.3,0.6,0.4
		c0.2,0.1,0.5,0.2,0.7,0.2s0.5,0.1,0.7,0.1c0.3,0,0.6,0,0.9-0.1c0.3-0.1,0.6-0.2,0.9-0.4c0.3-0.2,0.5-0.4,0.7-0.6
		c0.2-0.3,0.3-0.6,0.3-1V631.4z"/>
	<path fill="#767777" d="M-142.4,626h2.3v1.5h0.1c0.2-0.3,0.4-0.5,0.6-0.7c0.2-0.2,0.4-0.4,0.7-0.6s0.6-0.3,0.9-0.4
		c0.3-0.1,0.7-0.1,1.2-0.1c0.7,0,1.3,0.1,1.8,0.4s1,0.8,1.2,1.4c0.4-0.6,0.9-1,1.4-1.3c0.5-0.3,1.2-0.5,2-0.5c1.2,0,2,0.3,2.7,0.8
		c0.6,0.6,1,1.5,1,2.8v7.5h-2.4v-6.4c0-0.4,0-0.8,0-1.2c0-0.4-0.1-0.7-0.2-0.9c-0.1-0.3-0.3-0.5-0.6-0.6s-0.6-0.2-1.1-0.2
		c-0.8,0-1.4,0.3-1.8,0.8c-0.4,0.5-0.5,1.2-0.5,2.2v6.4h-2.4v-7c0-0.8-0.1-1.3-0.4-1.7c-0.3-0.4-0.8-0.6-1.5-0.6
		c-0.3,0-0.6,0.1-0.9,0.2c-0.3,0.1-0.5,0.3-0.8,0.5c-0.2,0.2-0.4,0.5-0.5,0.9c-0.1,0.4-0.2,0.8-0.2,1.2v6.5h-2.4V626z"/>
	<path fill="#767777" d="M-122.2,632c0,0.4,0.1,0.8,0.2,1.2c0.1,0.4,0.3,0.7,0.5,1c0.2,0.3,0.5,0.5,0.9,0.7c0.4,0.2,0.8,0.3,1.3,0.3
		c0.7,0,1.3-0.2,1.7-0.5s0.7-0.8,1-1.4h2.3c-0.1,0.6-0.3,1.1-0.7,1.6c-0.3,0.5-0.7,0.9-1.1,1.2s-0.9,0.6-1.5,0.7s-1.1,0.2-1.7,0.2
		c-0.9,0-1.6-0.1-2.3-0.4c-0.7-0.3-1.2-0.7-1.7-1.2c-0.5-0.5-0.8-1.1-1-1.8c-0.2-0.7-0.3-1.5-0.3-2.3c0-0.8,0.1-1.5,0.4-2.2
		c0.2-0.7,0.6-1.3,1.1-1.8c0.5-0.5,1-0.9,1.7-1.3s1.4-0.5,2.2-0.5c0.9,0,1.6,0.2,2.3,0.5c0.7,0.4,1.2,0.8,1.7,1.4
		c0.4,0.6,0.8,1.3,1,2c0.2,0.8,0.3,1.6,0.2,2.4H-122.2z M-116.6,630.5c0-0.4-0.1-0.7-0.2-1.1c-0.1-0.4-0.3-0.7-0.5-0.9
		c-0.2-0.3-0.5-0.5-0.8-0.6c-0.3-0.2-0.7-0.2-1.1-0.2c-0.4,0-0.8,0.1-1.1,0.2c-0.3,0.1-0.6,0.4-0.9,0.6c-0.2,0.3-0.4,0.6-0.6,0.9
		s-0.2,0.7-0.2,1.1H-116.6z"/>
	<path fill="#767777" d="M-104.7,631.5l-7.9-3.4V626l10.7,4.7v1.5l-10.7,4.7v-2.2L-104.7,631.5z"/>
	<path fill="#767777" d="M-99.5,634h2.9v2.8c0,0.9-0.3,1.6-0.8,2.2c-0.5,0.6-1.2,1-2,1.1v-1.3c0.5-0.1,0.8-0.4,1-0.8
		c0.2-0.4,0.3-0.8,0.3-1.3h-1.5V634z"/>
	<path fill="#767777" d="M-89.1,626h1.8v-3.3h2.4v3.3h2.2v1.8h-2.2v5.8c0,0.3,0,0.5,0,0.7c0,0.2,0.1,0.3,0.1,0.5s0.2,0.2,0.3,0.3
		c0.2,0.1,0.4,0.1,0.6,0.1c0.2,0,0.3,0,0.5,0s0.3,0,0.5-0.1v1.9c-0.3,0-0.5,0.1-0.8,0.1c-0.3,0-0.5,0-0.8,0c-0.6,0-1.1-0.1-1.5-0.2
		c-0.4-0.1-0.7-0.3-0.9-0.5c-0.2-0.2-0.4-0.5-0.4-0.9s-0.1-0.8-0.1-1.2v-6.4h-1.8V626z"/>
	<path fill="#767777" d="M-80.9,621.8h2.4v5.6h0c0.3-0.5,0.7-0.9,1.3-1.2c0.6-0.3,1.2-0.5,2-0.5c1.2,0,2.1,0.3,2.8,0.9
		c0.7,0.6,1,1.5,1,2.8v7.5h-2.4V630c0-0.9-0.2-1.5-0.5-1.9c-0.3-0.4-0.9-0.6-1.6-0.6c-0.4,0-0.8,0.1-1.1,0.2s-0.6,0.4-0.8,0.6
		s-0.4,0.6-0.5,0.9c-0.1,0.4-0.2,0.7-0.2,1.1v6.4h-2.4V621.8z"/>
	<path fill="#767777" d="M-67,632c0,0.4,0.1,0.8,0.2,1.2c0.1,0.4,0.3,0.7,0.5,1s0.5,0.5,0.9,0.7c0.4,0.2,0.8,0.3,1.3,0.3
		c0.7,0,1.3-0.2,1.7-0.5s0.7-0.8,1-1.4h2.3c-0.1,0.6-0.3,1.1-0.7,1.6c-0.3,0.5-0.7,0.9-1.1,1.2s-0.9,0.6-1.5,0.7s-1.1,0.2-1.7,0.2
		c-0.9,0-1.6-0.1-2.3-0.4c-0.7-0.3-1.2-0.7-1.7-1.2c-0.5-0.5-0.8-1.1-1-1.8c-0.2-0.7-0.3-1.5-0.3-2.3c0-0.8,0.1-1.5,0.4-2.2
		c0.2-0.7,0.6-1.3,1.1-1.8c0.5-0.5,1-0.9,1.7-1.3s1.4-0.5,2.2-0.5c0.9,0,1.6,0.2,2.3,0.5c0.7,0.4,1.2,0.8,1.7,1.4
		c0.4,0.6,0.8,1.3,1,2c0.2,0.8,0.3,1.6,0.2,2.4H-67z M-61.4,630.5c0-0.4-0.1-0.7-0.2-1.1c-0.1-0.4-0.3-0.7-0.5-0.9
		c-0.2-0.3-0.5-0.5-0.8-0.6c-0.3-0.2-0.7-0.2-1.1-0.2c-0.4,0-0.8,0.1-1.1,0.2c-0.3,0.1-0.6,0.4-0.9,0.6c-0.2,0.3-0.4,0.6-0.6,0.9
		s-0.2,0.7-0.2,1.1H-61.4z"/>
	<path fill="#767777" d="M-42.1,634.5c0,0.3,0,0.5,0.1,0.6c0.1,0.1,0.2,0.2,0.5,0.2c0.1,0,0.2,0,0.3,0s0.2,0,0.3,0v1.7
		c-0.1,0-0.2,0.1-0.3,0.1s-0.3,0.1-0.4,0.1s-0.3,0-0.4,0.1c-0.1,0-0.3,0-0.4,0c-0.5,0-0.9-0.1-1.2-0.3c-0.3-0.2-0.5-0.5-0.6-1
		c-0.5,0.5-1.1,0.8-1.8,1s-1.4,0.3-2,0.3c-0.5,0-1-0.1-1.4-0.2c-0.5-0.1-0.8-0.3-1.2-0.6c-0.3-0.3-0.6-0.6-0.8-1s-0.3-0.9-0.3-1.4
		c0-0.7,0.1-1.2,0.4-1.6s0.6-0.8,1-1c0.4-0.2,0.9-0.4,1.3-0.5s1-0.2,1.5-0.2c0.4-0.1,0.9-0.1,1.2-0.2s0.7-0.1,1-0.2
		c0.3-0.1,0.5-0.2,0.7-0.4s0.3-0.4,0.3-0.8c0-0.3-0.1-0.6-0.2-0.8c-0.1-0.2-0.3-0.3-0.5-0.5c-0.2-0.1-0.5-0.2-0.7-0.2
		c-0.3,0-0.5-0.1-0.8-0.1c-0.7,0-1.2,0.1-1.7,0.4c-0.4,0.3-0.7,0.7-0.7,1.3h-2.4c0-0.7,0.2-1.3,0.5-1.8c0.3-0.5,0.7-0.8,1.1-1.1
		c0.5-0.3,1-0.5,1.5-0.6c0.6-0.1,1.2-0.2,1.8-0.2c0.5,0,1.1,0.1,1.6,0.2c0.5,0.1,1,0.3,1.4,0.5c0.4,0.3,0.7,0.6,1,1s0.4,0.9,0.4,1.5
		V634.5z M-44.5,631.4c-0.4,0.2-0.8,0.4-1.3,0.4c-0.5,0-1.1,0.1-1.6,0.2c-0.3,0-0.5,0.1-0.7,0.2s-0.5,0.2-0.6,0.3
		c-0.2,0.1-0.3,0.3-0.4,0.5c-0.1,0.2-0.2,0.5-0.2,0.8c0,0.3,0.1,0.5,0.2,0.7s0.3,0.3,0.6,0.4c0.2,0.1,0.5,0.2,0.7,0.2
		c0.3,0,0.5,0.1,0.7,0.1c0.3,0,0.6,0,0.9-0.1s0.6-0.2,0.9-0.4s0.5-0.4,0.7-0.6c0.2-0.3,0.3-0.6,0.3-1V631.4z"/>
	<path fill="#767777" d="M-32.2,629.6c-0.1-0.7-0.4-1.2-0.8-1.5s-1-0.5-1.7-0.5c-0.3,0-0.6,0.1-1,0.2c-0.4,0.1-0.7,0.3-1,0.6
		c-0.3,0.3-0.5,0.7-0.7,1.2c-0.2,0.5-0.3,1.2-0.3,2c0,0.5,0.1,0.9,0.2,1.3c0.1,0.5,0.3,0.9,0.5,1.2c0.2,0.4,0.5,0.6,0.9,0.9
		c0.4,0.2,0.8,0.3,1.3,0.3c0.7,0,1.3-0.2,1.7-0.7c0.5-0.4,0.7-1,0.9-1.8h2.4c-0.2,1.4-0.8,2.5-1.6,3.3c-0.9,0.8-2,1.1-3.4,1.1
		c-0.9,0-1.6-0.1-2.3-0.4c-0.7-0.3-1.2-0.7-1.7-1.2c-0.4-0.5-0.8-1.1-1-1.8c-0.2-0.7-0.3-1.4-0.3-2.2c0-0.8,0.1-1.6,0.3-2.3
		c0.2-0.7,0.6-1.3,1-1.9c0.4-0.5,1-0.9,1.7-1.2c0.7-0.3,1.5-0.5,2.4-0.5c0.6,0,1.2,0.1,1.8,0.2c0.6,0.2,1.1,0.4,1.5,0.7
		c0.4,0.3,0.8,0.7,1.1,1.2c0.3,0.5,0.4,1.1,0.5,1.8H-32.2z"/>
	<path fill="#767777" d="M-20.4,629.6c-0.1-0.7-0.4-1.2-0.8-1.5s-1-0.5-1.7-0.5c-0.3,0-0.6,0.1-1,0.2c-0.4,0.1-0.7,0.3-1,0.6
		c-0.3,0.3-0.5,0.7-0.7,1.2c-0.2,0.5-0.3,1.2-0.3,2c0,0.5,0.1,0.9,0.2,1.3c0.1,0.5,0.3,0.9,0.5,1.2c0.2,0.4,0.5,0.6,0.9,0.9
		c0.4,0.2,0.8,0.3,1.3,0.3c0.7,0,1.3-0.2,1.7-0.7c0.5-0.4,0.7-1,0.9-1.8h2.4c-0.2,1.4-0.8,2.5-1.6,3.3s-2,1.1-3.4,1.1
		c-0.9,0-1.6-0.1-2.3-0.4c-0.7-0.3-1.2-0.7-1.7-1.2c-0.4-0.5-0.8-1.1-1-1.8c-0.2-0.7-0.3-1.4-0.3-2.2c0-0.8,0.1-1.6,0.3-2.3
		c0.2-0.7,0.6-1.3,1-1.9c0.4-0.5,1-0.9,1.7-1.2c0.7-0.3,1.5-0.5,2.4-0.5c0.6,0,1.2,0.1,1.8,0.2c0.6,0.2,1.1,0.4,1.5,0.7
		c0.4,0.3,0.8,0.7,1.1,1.2c0.3,0.5,0.4,1.1,0.5,1.8H-20.4z"/>
	<path fill="#767777" d="M-14.2,632c0,0.4,0.1,0.8,0.2,1.2s0.3,0.7,0.5,1c0.2,0.3,0.5,0.5,0.9,0.7s0.8,0.3,1.3,0.3
		c0.7,0,1.3-0.2,1.7-0.5s0.7-0.8,1-1.4h2.3c-0.1,0.6-0.3,1.1-0.7,1.6c-0.3,0.5-0.7,0.9-1.1,1.2s-0.9,0.6-1.5,0.7s-1.1,0.2-1.7,0.2
		c-0.9,0-1.6-0.1-2.3-0.4c-0.7-0.3-1.2-0.7-1.7-1.2c-0.5-0.5-0.8-1.1-1-1.8c-0.2-0.7-0.3-1.5-0.3-2.3c0-0.8,0.1-1.5,0.4-2.2
		c0.2-0.7,0.6-1.3,1.1-1.8c0.5-0.5,1-0.9,1.7-1.3s1.4-0.5,2.2-0.5c0.9,0,1.6,0.2,2.3,0.5s1.2,0.8,1.7,1.4c0.5,0.6,0.8,1.3,1,2
		c0.2,0.8,0.3,1.6,0.2,2.4H-14.2z M-8.6,630.5c0-0.4-0.1-0.7-0.2-1.1c-0.1-0.4-0.3-0.7-0.5-0.9c-0.2-0.3-0.5-0.5-0.8-0.6
		c-0.3-0.2-0.7-0.2-1.1-0.2c-0.4,0-0.8,0.1-1.1,0.2s-0.6,0.4-0.9,0.6s-0.4,0.6-0.6,0.9s-0.2,0.7-0.2,1.1H-8.6z"/>
	<path fill="#767777" d="M-2.5,633.4c0.1,0.7,0.3,1.2,0.8,1.5s1,0.4,1.7,0.4c0.2,0,0.5,0,0.8-0.1s0.6-0.1,0.8-0.2s0.5-0.2,0.6-0.4
		c0.2-0.2,0.2-0.4,0.2-0.7c0-0.3-0.1-0.6-0.3-0.8c-0.2-0.2-0.5-0.4-0.8-0.5s-0.7-0.2-1.1-0.3c-0.4-0.1-0.9-0.2-1.3-0.3
		c-0.5-0.1-0.9-0.2-1.3-0.4c-0.4-0.1-0.8-0.3-1.1-0.6c-0.3-0.2-0.6-0.5-0.8-0.9c-0.2-0.4-0.3-0.8-0.3-1.4c0-0.6,0.1-1.1,0.4-1.5
		s0.7-0.7,1.1-1c0.4-0.2,0.9-0.4,1.5-0.5c0.5-0.1,1.1-0.1,1.5-0.1c0.6,0,1.1,0.1,1.6,0.2c0.5,0.1,1,0.3,1.4,0.6c0.4,0.3,0.8,0.6,1,1
		c0.3,0.4,0.4,0.9,0.5,1.5H1.9c-0.1-0.6-0.4-1-0.8-1.2c-0.4-0.2-0.9-0.3-1.4-0.3c-0.2,0-0.4,0-0.6,0c-0.2,0-0.4,0.1-0.7,0.2
		s-0.4,0.2-0.5,0.3c-0.1,0.1-0.2,0.3-0.2,0.6c0,0.3,0.1,0.5,0.3,0.7c0.2,0.2,0.5,0.3,0.8,0.5c0.3,0.1,0.7,0.2,1.1,0.3
		c0.4,0.1,0.9,0.2,1.3,0.3c0.4,0.1,0.9,0.2,1.3,0.4s0.8,0.3,1.1,0.6c0.3,0.2,0.6,0.5,0.8,0.9c0.2,0.4,0.3,0.8,0.3,1.3
		c0,0.6-0.1,1.2-0.4,1.6c-0.3,0.5-0.7,0.8-1.1,1.1s-1,0.5-1.6,0.6c-0.6,0.1-1.1,0.2-1.7,0.2c-0.7,0-1.3-0.1-1.9-0.2
		c-0.6-0.2-1.1-0.4-1.5-0.7c-0.4-0.3-0.8-0.7-1-1.2c-0.2-0.5-0.4-1-0.4-1.7H-2.5z"/>
	<path fill="#767777" d="M8.4,633.4c0.1,0.7,0.3,1.2,0.8,1.5s1,0.4,1.7,0.4c0.2,0,0.5,0,0.8-0.1c0.3,0,0.6-0.1,0.8-0.2
		s0.5-0.2,0.6-0.4c0.2-0.2,0.2-0.4,0.2-0.7c0-0.3-0.1-0.6-0.3-0.8c-0.2-0.2-0.5-0.4-0.8-0.5c-0.3-0.1-0.7-0.2-1.1-0.3
		c-0.4-0.1-0.9-0.2-1.3-0.3c-0.4-0.1-0.9-0.2-1.3-0.4c-0.4-0.1-0.8-0.3-1.1-0.6s-0.6-0.5-0.8-0.9c-0.2-0.4-0.3-0.8-0.3-1.4
		c0-0.6,0.1-1.1,0.4-1.5s0.7-0.7,1.1-1c0.4-0.2,0.9-0.4,1.5-0.5s1.1-0.1,1.5-0.1c0.6,0,1.1,0.1,1.6,0.2c0.5,0.1,1,0.3,1.4,0.6
		c0.4,0.3,0.8,0.6,1,1s0.4,0.9,0.5,1.5h-2.5c-0.1-0.6-0.4-1-0.8-1.2c-0.4-0.2-0.9-0.3-1.4-0.3c-0.2,0-0.4,0-0.6,0
		c-0.2,0-0.5,0.1-0.7,0.2c-0.2,0.1-0.4,0.2-0.5,0.3c-0.1,0.1-0.2,0.3-0.2,0.6c0,0.3,0.1,0.5,0.3,0.7c0.2,0.2,0.5,0.3,0.8,0.5
		s0.7,0.2,1.1,0.3c0.4,0.1,0.9,0.2,1.3,0.3c0.4,0.1,0.9,0.2,1.3,0.4s0.8,0.3,1.1,0.6c0.3,0.2,0.6,0.5,0.8,0.9
		c0.2,0.4,0.3,0.8,0.3,1.3c0,0.6-0.1,1.2-0.4,1.6c-0.3,0.5-0.7,0.8-1.1,1.1c-0.5,0.3-1,0.5-1.6,0.6s-1.1,0.2-1.7,0.2
		c-0.7,0-1.3-0.1-1.9-0.2s-1.1-0.4-1.5-0.7c-0.4-0.3-0.8-0.7-1-1.2c-0.2-0.5-0.4-1-0.4-1.7H8.4z"/>
	<path fill="#767777" d="M30.7,629.6c-0.1-0.7-0.4-1.2-0.8-1.5c-0.4-0.3-1-0.5-1.7-0.5c-0.3,0-0.6,0.1-1,0.2s-0.7,0.3-1,0.6
		c-0.3,0.3-0.5,0.7-0.7,1.2c-0.2,0.5-0.3,1.2-0.3,2c0,0.5,0.1,0.9,0.2,1.3c0.1,0.5,0.3,0.9,0.5,1.2c0.2,0.4,0.5,0.6,0.9,0.9
		c0.4,0.2,0.8,0.3,1.3,0.3c0.7,0,1.3-0.2,1.7-0.7c0.5-0.4,0.7-1,0.9-1.8h2.4c-0.2,1.4-0.8,2.5-1.6,3.3c-0.9,0.8-2,1.1-3.4,1.1
		c-0.9,0-1.6-0.1-2.3-0.4s-1.2-0.7-1.7-1.2s-0.8-1.1-1-1.8c-0.2-0.7-0.3-1.4-0.3-2.2c0-0.8,0.1-1.6,0.3-2.3s0.6-1.3,1-1.9
		c0.4-0.5,1-0.9,1.7-1.2c0.7-0.3,1.5-0.5,2.4-0.5c0.6,0,1.2,0.1,1.8,0.2c0.6,0.2,1.1,0.4,1.5,0.7c0.4,0.3,0.8,0.7,1.1,1.2
		c0.3,0.5,0.5,1.1,0.5,1.8H30.7z"/>
	<path fill="#767777" d="M40.1,637.2c-0.9,0-1.6-0.1-2.3-0.4s-1.3-0.7-1.7-1.2s-0.8-1.1-1.1-1.8s-0.4-1.5-0.4-2.3
		c0-0.8,0.1-1.6,0.4-2.3c0.2-0.7,0.6-1.3,1.1-1.8s1-0.9,1.7-1.2c0.7-0.3,1.5-0.4,2.3-0.4c0.9,0,1.6,0.1,2.3,0.4
		c0.7,0.3,1.3,0.7,1.7,1.2s0.8,1.1,1.1,1.8c0.2,0.7,0.4,1.5,0.4,2.3c0,0.8-0.1,1.6-0.4,2.3s-0.6,1.3-1.1,1.8s-1,0.9-1.7,1.2
		C41.8,637,41,637.2,40.1,637.2z M40.1,635.3c0.5,0,1-0.1,1.4-0.3c0.4-0.2,0.7-0.5,1-0.9s0.4-0.8,0.6-1.2s0.2-0.9,0.2-1.4
		c0-0.5-0.1-0.9-0.2-1.4s-0.3-0.9-0.6-1.2c-0.3-0.4-0.6-0.7-1-0.9c-0.4-0.2-0.9-0.3-1.4-0.3s-1,0.1-1.4,0.3c-0.4,0.2-0.7,0.5-1,0.9
		c-0.3,0.4-0.4,0.8-0.6,1.2S37,631,37,631.4c0,0.5,0.1,0.9,0.2,1.4s0.3,0.9,0.6,1.2c0.3,0.4,0.6,0.7,1,0.9
		C39.1,635.2,39.6,635.3,40.1,635.3z"/>
	<path fill="#767777" d="M57.9,636.9h-2.3v-1.5h0c-0.3,0.6-0.8,1.1-1.4,1.4c-0.6,0.3-1.3,0.4-2,0.4c-0.9,0-1.6-0.2-2.2-0.5
		s-1.2-0.7-1.6-1.2c-0.4-0.5-0.7-1.1-0.9-1.8s-0.3-1.5-0.3-2.3c0-1,0.1-1.8,0.4-2.6c0.3-0.7,0.6-1.3,1.1-1.8c0.4-0.5,0.9-0.8,1.5-1
		c0.6-0.2,1.1-0.3,1.7-0.3c0.3,0,0.7,0,1,0.1s0.7,0.2,1,0.3c0.3,0.1,0.6,0.3,0.9,0.5c0.3,0.2,0.5,0.5,0.7,0.8h0v-5.6h2.4V636.9z
		 M49.5,631.5c0,0.5,0.1,0.9,0.2,1.4c0.1,0.5,0.3,0.9,0.5,1.2c0.2,0.4,0.6,0.6,0.9,0.8s0.8,0.3,1.3,0.3c0.5,0,1-0.1,1.4-0.3
		c0.4-0.2,0.7-0.5,0.9-0.9c0.2-0.4,0.4-0.8,0.5-1.2s0.2-0.9,0.2-1.4c0-1.2-0.3-2.2-0.8-2.8s-1.3-1-2.2-1c-0.6,0-1,0.1-1.4,0.3
		c-0.4,0.2-0.7,0.5-0.9,0.9c-0.2,0.4-0.4,0.8-0.5,1.3C49.5,630.6,49.5,631,49.5,631.5z"/>
	<path fill="#767777" d="M62.4,632c0,0.4,0.1,0.8,0.2,1.2c0.1,0.4,0.3,0.7,0.5,1s0.5,0.5,0.9,0.7c0.4,0.2,0.8,0.3,1.3,0.3
		c0.7,0,1.3-0.2,1.7-0.5c0.4-0.3,0.7-0.8,1-1.4h2.3c-0.1,0.6-0.3,1.1-0.7,1.6c-0.3,0.5-0.7,0.9-1.1,1.2s-0.9,0.6-1.5,0.7
		c-0.5,0.2-1.1,0.2-1.7,0.2c-0.9,0-1.6-0.1-2.3-0.4c-0.7-0.3-1.2-0.7-1.7-1.2c-0.5-0.5-0.8-1.1-1-1.8c-0.2-0.7-0.3-1.5-0.3-2.3
		c0-0.8,0.1-1.5,0.4-2.2c0.2-0.7,0.6-1.3,1.1-1.8c0.5-0.5,1-0.9,1.7-1.3s1.4-0.5,2.2-0.5c0.9,0,1.6,0.2,2.3,0.5s1.2,0.8,1.7,1.4
		c0.5,0.6,0.8,1.3,1,2c0.2,0.8,0.3,1.6,0.2,2.4H62.4z M68,630.5c0-0.4-0.1-0.7-0.2-1.1c-0.1-0.4-0.3-0.7-0.5-0.9
		c-0.2-0.3-0.5-0.5-0.8-0.6c-0.3-0.2-0.7-0.2-1.1-0.2c-0.4,0-0.8,0.1-1.1,0.2c-0.3,0.1-0.6,0.4-0.9,0.6s-0.4,0.6-0.6,0.9
		c-0.1,0.4-0.2,0.7-0.2,1.1H68z"/>
	<path fill="#767777" d="M78.1,621.8h2.4v2.3h-2.4V621.8z M78.1,626h2.4v10.9h-2.4V626z"/>
	<path fill="#767777" d="M85,633.4c0.1,0.7,0.3,1.2,0.8,1.5s1,0.4,1.7,0.4c0.2,0,0.5,0,0.8-0.1s0.6-0.1,0.8-0.2s0.5-0.2,0.6-0.4
		c0.2-0.2,0.2-0.4,0.2-0.7c0-0.3-0.1-0.6-0.3-0.8c-0.2-0.2-0.5-0.4-0.8-0.5s-0.7-0.2-1.1-0.3c-0.4-0.1-0.9-0.2-1.3-0.3
		c-0.5-0.1-0.9-0.2-1.3-0.4c-0.4-0.1-0.8-0.3-1.1-0.6s-0.6-0.5-0.8-0.9c-0.2-0.4-0.3-0.8-0.3-1.4c0-0.6,0.1-1.1,0.4-1.5
		s0.7-0.7,1.1-1c0.4-0.2,0.9-0.4,1.5-0.5s1.1-0.1,1.5-0.1c0.6,0,1.1,0.1,1.6,0.2c0.5,0.1,1,0.3,1.4,0.6c0.4,0.3,0.8,0.6,1,1
		s0.4,0.9,0.5,1.5h-2.5c-0.1-0.6-0.4-1-0.8-1.2c-0.4-0.2-0.9-0.3-1.4-0.3c-0.2,0-0.4,0-0.6,0c-0.2,0-0.5,0.1-0.7,0.2
		c-0.2,0.1-0.4,0.2-0.5,0.3c-0.1,0.1-0.2,0.3-0.2,0.6c0,0.3,0.1,0.5,0.3,0.7c0.2,0.2,0.5,0.3,0.8,0.5c0.3,0.1,0.7,0.2,1.1,0.3
		c0.4,0.1,0.9,0.2,1.3,0.3c0.4,0.1,0.9,0.2,1.3,0.4c0.4,0.1,0.8,0.3,1.1,0.6c0.3,0.2,0.6,0.5,0.8,0.9s0.3,0.8,0.3,1.3
		c0,0.6-0.1,1.2-0.4,1.6c-0.3,0.5-0.7,0.8-1.1,1.1s-1,0.5-1.6,0.6s-1.1,0.2-1.7,0.2c-0.7,0-1.3-0.1-1.9-0.2
		c-0.6-0.2-1.1-0.4-1.5-0.7c-0.4-0.3-0.8-0.7-1-1.2c-0.2-0.5-0.4-1-0.4-1.7H85z"/>
	<path fill="#767777" d="M101.3,622.1h7.6v2.2h-5.8l-0.8,3.8l0,0c0.3-0.4,0.7-0.6,1.2-0.8c0.5-0.2,1-0.3,1.5-0.3
		c0.7,0,1.4,0.1,2,0.4s1.1,0.6,1.5,1c0.4,0.4,0.7,1,0.9,1.6c0.2,0.6,0.3,1.3,0.3,2c0,0.6-0.1,1.2-0.3,1.8c-0.2,0.6-0.5,1.2-0.9,1.7
		c-0.4,0.5-0.9,0.9-1.6,1.3s-1.4,0.5-2.3,0.5c-0.7,0-1.4-0.1-2-0.3c-0.6-0.2-1.1-0.5-1.6-0.9c-0.5-0.4-0.8-0.8-1.1-1.4
		c-0.3-0.6-0.4-1.2-0.5-2h2.4c0.1,0.8,0.3,1.4,0.8,1.8s1.1,0.6,1.9,0.6c0.5,0,0.9-0.1,1.3-0.3c0.4-0.2,0.6-0.4,0.9-0.7
		c0.2-0.3,0.4-0.6,0.5-1c0.1-0.4,0.1-0.8,0.1-1.3c0-0.4-0.1-0.8-0.2-1.2c-0.1-0.4-0.3-0.7-0.5-1c-0.2-0.3-0.5-0.5-0.9-0.7
		c-0.4-0.2-0.8-0.3-1.3-0.3c-0.5,0-1,0.1-1.4,0.3c-0.4,0.2-0.8,0.5-1,1.1h-2.4L101.3,622.1z"/>
	<path fill="#767777" d="M121.3,636.9h-10.1c0-1.2,0.3-2.3,0.9-3.2c0.6-0.9,1.4-1.7,2.4-2.4c0.5-0.4,1-0.7,1.5-1
		c0.5-0.3,1-0.7,1.4-1.1c0.4-0.4,0.8-0.8,1.1-1.2c0.3-0.4,0.4-1,0.4-1.5c0-0.3,0-0.6-0.1-0.9c-0.1-0.3-0.2-0.6-0.4-0.8
		s-0.4-0.5-0.8-0.7c-0.3-0.2-0.7-0.3-1.3-0.3c-0.5,0-0.9,0.1-1.2,0.3s-0.6,0.5-0.8,0.8s-0.3,0.7-0.4,1.2c-0.1,0.5-0.1,0.9-0.2,1.5
		h-2.4c0-0.8,0.1-1.6,0.3-2.3c0.2-0.7,0.5-1.3,1-1.8s1-0.9,1.6-1.2c0.6-0.3,1.4-0.4,2.2-0.4c0.9,0,1.7,0.1,2.3,0.4
		c0.6,0.3,1.1,0.7,1.5,1.1c0.4,0.5,0.6,0.9,0.8,1.5s0.2,1,0.2,1.5c0,0.6-0.1,1.1-0.3,1.6c-0.2,0.5-0.4,0.9-0.7,1.3s-0.7,0.8-1.1,1.1
		c-0.4,0.3-0.8,0.7-1.2,0.9c-0.4,0.3-0.8,0.6-1.3,0.8c-0.4,0.3-0.8,0.5-1.2,0.8c-0.4,0.3-0.7,0.5-0.9,0.8c-0.3,0.3-0.5,0.6-0.5,0.9
		h7.2V636.9z"/>
	<path fill="#767777" d="M133.1,636.9H123c0-1.2,0.3-2.3,0.9-3.2c0.6-0.9,1.4-1.7,2.4-2.4c0.5-0.4,1-0.7,1.5-1
		c0.5-0.3,1-0.7,1.4-1.1c0.4-0.4,0.8-0.8,1.1-1.2c0.3-0.4,0.4-1,0.4-1.5c0-0.3,0-0.6-0.1-0.9c-0.1-0.3-0.2-0.6-0.4-0.8
		s-0.4-0.5-0.8-0.7c-0.3-0.2-0.7-0.3-1.3-0.3c-0.5,0-0.9,0.1-1.2,0.3s-0.6,0.5-0.8,0.8s-0.3,0.7-0.4,1.2c-0.1,0.5-0.1,0.9-0.2,1.5
		h-2.4c0-0.8,0.1-1.6,0.3-2.3c0.2-0.7,0.5-1.3,1-1.8s1-0.9,1.6-1.2c0.6-0.3,1.4-0.4,2.2-0.4c0.9,0,1.7,0.1,2.3,0.4
		c0.6,0.3,1.1,0.7,1.5,1.1c0.4,0.5,0.6,0.9,0.8,1.5s0.2,1,0.2,1.5c0,0.6-0.1,1.1-0.3,1.6c-0.2,0.5-0.4,0.9-0.7,1.3s-0.7,0.8-1.1,1.1
		c-0.4,0.3-0.8,0.7-1.2,0.9c-0.4,0.3-0.8,0.6-1.3,0.8c-0.4,0.3-0.8,0.5-1.2,0.8c-0.4,0.3-0.7,0.5-0.9,0.8c-0.3,0.3-0.5,0.6-0.5,0.9
		h7.2V636.9z"/>
	<path fill="#767777" d="M136.5,622.1h7.6v2.2h-5.8l-0.8,3.8l0,0c0.3-0.4,0.7-0.6,1.2-0.8c0.5-0.2,1-0.3,1.5-0.3
		c0.7,0,1.4,0.1,2,0.4s1.1,0.6,1.5,1c0.4,0.4,0.7,1,0.9,1.6c0.2,0.6,0.3,1.3,0.3,2c0,0.6-0.1,1.2-0.3,1.8c-0.2,0.6-0.5,1.2-0.9,1.7
		c-0.4,0.5-0.9,0.9-1.6,1.3s-1.4,0.5-2.3,0.5c-0.7,0-1.4-0.1-2-0.3c-0.6-0.2-1.1-0.5-1.6-0.9c-0.5-0.4-0.8-0.8-1.1-1.4
		c-0.3-0.6-0.4-1.2-0.5-2h2.4c0.1,0.8,0.3,1.4,0.8,1.8s1.1,0.6,1.9,0.6c0.5,0,0.9-0.1,1.3-0.3c0.4-0.2,0.6-0.4,0.9-0.7
		c0.2-0.3,0.4-0.6,0.5-1c0.1-0.4,0.1-0.8,0.1-1.3c0-0.4-0.1-0.8-0.2-1.2c-0.1-0.4-0.3-0.7-0.5-1c-0.2-0.3-0.5-0.5-0.9-0.7
		c-0.4-0.2-0.8-0.3-1.3-0.3c-0.5,0-1,0.1-1.4,0.3c-0.4,0.2-0.8,0.5-1,1.1h-2.4L136.5,622.1z"/>
</g>
</svg>
