<?xml version="1.0" encoding="utf-8"?>
<!-- Generator: Adobe Illustrator 18.1.1, SVG Export Plug-In . SVG Version: 6.00 Build 0)  -->
<svg version="1.1" id="Calque_2" xmlns="http://www.w3.org/2000/svg" xmlns:xlink="http://www.w3.org/1999/xlink" x="0px" y="0px"
	 viewBox="-422.2 378.5 640.7 323.3" enable-background="new -422.2 378.5 640.7 323.3" xml:space="preserve">
<title>echo-dot</title>
<polygon fill="#FFFFFF" stroke="#C8C8C8" stroke-width="2" stroke-linejoin="round" stroke-miterlimit="10" points="-322,694.9 
	-66.8,386.8 188.2,694.8 "/>
<text transform="matrix(1 0 0 1 -241.7864 418.5605)"><tspan x="0" y="0" font-family="'HelveticaNeue-Bold'" font-size="20.0979">Your Agents</tspan><tspan x="118.4" y="0" font-family="'HelveticaNeue'" font-size="20.0979"> </tspan><tspan x="124" y="0" fill="#28D18A" font-family="'HelveticaNeue-Bold'" font-size="20.0979">&gt;</tspan></text>
<text transform="matrix(1 0 0 1 -380.8596 662.9246)"><tspan x="0" y="0" font-family="'HelveticaNeue-Bold'" font-size="20.0979">Jack</tspan><tspan x="45.8" y="0" font-family="'HelveticaNeue'" font-size="20.0979"> </tspan><tspan x="51.4" y="0" fill="#28D18A" font-family="'HelveticaNeue-Bold'" font-size="20.0979">&gt;</tspan></text>
<circle fill="#28D18A" cx="-65.7" cy="411.4" r="4.6"/>
<circle fill="#28D18A" cx="-79.7" cy="428.9" r="4.6"/>
<circle fill="#28D18A" cx="-53.3" cy="438.1" r="4.6"/>
<circle fill="#28D18A" cx="-99.3" cy="521.3" r="4.6"/>
<circle fill="#28D18A" cx="-29.6" cy="583.5" r="4.6"/>
<circle fill="#28D18A" cx="-88.1" cy="674.6" r="4.6"/>
<circle fill="#28D18A" cx="-58.9" cy="643.6" r="4.6"/>
<circle fill="#28D18A" cx="-40.5" cy="674.6" r="4.6"/>
<circle fill="#28D18A" cx="-12.1" cy="651.4" r="4.6"/>
<circle fill="#28D18A" cx="7" cy="672.6" r="4.6"/>
<circle fill="#28D18A" cx="40.1" cy="656" r="4.6"/>
<circle fill="#28D18A" cx="78.2" cy="629.7" r="4.6"/>
<circle fill="#28D18A" cx="102.1" cy="672.6" r="4.6"/>
<circle fill="#28D18A" cx="149.7" cy="677.3" r="4.6"/>
<circle fill="#28D18A" cx="125.9" cy="660.7" r="4.6"/>
<circle fill="#28D18A" cx="54.6" cy="677.3" r="4.6"/>
<circle fill="#28D18A" cx="-135.6" cy="677.3" r="4.6"/>
<circle fill="#28D18A" cx="-116.5" cy="658.3" r="4.6"/>
<circle fill="#28D18A" cx="-168.7" cy="658.3" r="4.6"/>
<circle fill="#28D18A" cx="-206.9" cy="674.6" r="4.6"/>
<circle fill="#28D18A" cx="-188.1" cy="634.3" r="4.6"/>
<circle fill="#28D18A" cx="-230.7" cy="658.3" r="4.6"/>
<circle fill="#28D18A" cx="-278.3" cy="677.3" r="4.6"/>
<circle fill="#28D18A" cx="-254.5" cy="674.6" r="4.6"/>
</svg>
