<?xml version="1.0" encoding="utf-8"?>
<!-- Generator: Adobe Illustrator 23.0.4, SVG Export Plug-In . SVG Version: 6.00 Build 0)  -->
<svg version="1.1" id="Layer_1" xmlns="http://www.w3.org/2000/svg" xmlns:xlink="http://www.w3.org/1999/xlink" x="0px" y="0px"
	 width="141px" height="31.5px" viewBox="0 0 141 31.5" style="enable-background:new 0 0 141 31.5;" xml:space="preserve">
<style type="text/css">
	.st0{fill:#231F20;}
	.st1{fill:#231F20;stroke:#231F20;stroke-width:0.2157;stroke-miterlimit:10;}
</style>
<g>
	<path class="st0" d="M11.6,19.1H7.3L0.6,1.4h4.8L9.5,14h0.1l4.1-12.6h4.7L11.6,19.1z"/>
	<path class="st0" d="M31.9,12.8c0,1-0.2,1.9-0.6,2.8c-0.4,0.8-0.9,1.5-1.5,2.1c-0.6,0.6-1.4,1-2.2,1.3c-0.8,0.3-1.7,0.5-2.7,0.5
		c-0.9,0-1.8-0.2-2.7-0.5s-1.6-0.8-2.2-1.3c-0.6-0.6-1.1-1.3-1.5-2.1c-0.4-0.8-0.6-1.8-0.6-2.8s0.2-1.9,0.6-2.8
		c0.4-0.8,0.9-1.5,1.5-2.1c0.6-0.6,1.4-1,2.2-1.3c0.8-0.3,1.7-0.5,2.7-0.5s1.8,0.2,2.7,0.5C28.4,7,29.2,7.4,29.8,8
		c0.6,0.6,1.1,1.3,1.5,2.1C31.7,10.9,31.9,11.8,31.9,12.8z M27.9,12.8c0-0.4-0.1-0.8-0.2-1.2c-0.1-0.4-0.3-0.7-0.6-1
		c-0.3-0.3-0.6-0.5-0.9-0.7c-0.4-0.2-0.8-0.3-1.3-0.3S24,9.7,23.6,9.9c-0.4,0.2-0.7,0.4-0.9,0.7c-0.2,0.3-0.4,0.6-0.6,1
		s-0.2,0.8-0.2,1.2s0.1,0.8,0.2,1.2c0.1,0.4,0.3,0.7,0.6,1s0.6,0.6,0.9,0.7c0.4,0.2,0.8,0.3,1.3,0.3s0.9-0.1,1.3-0.3
		c0.4-0.2,0.7-0.4,0.9-0.7c0.3-0.3,0.4-0.7,0.6-1C27.8,13.6,27.9,13.2,27.9,12.8z"/>
	<path class="st0" d="M39,2.6c0,0.3-0.1,0.6-0.2,0.9c-0.1,0.3-0.3,0.5-0.5,0.7s-0.5,0.4-0.8,0.5s-0.6,0.2-0.9,0.2
		c-0.7,0-1.2-0.2-1.7-0.7s-0.7-1-0.7-1.6c0-0.3,0.1-0.6,0.2-0.9c0.1-0.3,0.3-0.5,0.5-0.7s0.5-0.4,0.8-0.5s0.6-0.2,0.9-0.2
		c0.3,0,0.6,0.1,0.9,0.2c0.3,0.2,0.6,0.3,0.8,0.5s0.4,0.4,0.5,0.7S39,2.3,39,2.6z M34.5,19.1V6.6h4.1v12.5H34.5z"/>
	<path class="st0" d="M50.5,10.7c-0.2-0.3-0.6-0.5-1-0.7s-0.8-0.3-1.2-0.3s-0.8,0.1-1.2,0.3s-0.7,0.4-0.9,0.7s-0.4,0.6-0.6,1
		c-0.1,0.4-0.2,0.8-0.2,1.2s0.1,0.8,0.2,1.2c0.1,0.4,0.3,0.7,0.6,1s0.6,0.5,0.9,0.7c0.4,0.2,0.8,0.3,1.2,0.3s0.8-0.1,1.2-0.2
		s0.7-0.4,1-0.7l2.3,2.8c-0.5,0.5-1.2,0.9-2,1.2s-1.7,0.4-2.6,0.4c-1,0-1.9-0.2-2.8-0.5c-0.9-0.3-1.6-0.7-2.2-1.3
		c-0.6-0.6-1.1-1.3-1.5-2.1c-0.4-0.8-0.5-1.7-0.5-2.8c0-1,0.2-1.9,0.5-2.8c0.4-0.8,0.9-1.5,1.5-2.1s1.4-1,2.2-1.3s1.8-0.5,2.7-0.5
		c0.5,0,0.9,0,1.3,0.1c0.4,0.1,0.9,0.2,1.3,0.3s0.8,0.3,1.1,0.5s0.6,0.4,0.9,0.7L50.5,10.7z"/>
	<path class="st0" d="M66.9,13c0,0.2,0,0.3,0,0.5s0,0.3,0,0.5h-9.1c0,0.4,0.1,0.7,0.3,1s0.4,0.5,0.7,0.7s0.6,0.4,0.9,0.5
		s0.7,0.2,1.1,0.2c0.7,0,1.2-0.1,1.7-0.4c0.5-0.2,0.8-0.6,1.1-0.9l2.9,1.8c-0.6,0.9-1.4,1.5-2.3,2c-1,0.5-2.1,0.7-3.4,0.7
		c-0.9,0-1.8-0.1-2.7-0.4c-0.8-0.3-1.6-0.7-2.2-1.3s-1.1-1.3-1.5-2.1C54,15,53.9,14,53.9,13s0.2-1.9,0.5-2.8
		c0.4-0.8,0.8-1.5,1.4-2.1c0.6-0.6,1.3-1,2.1-1.3s1.7-0.5,2.7-0.5c0.9,0,1.8,0.2,2.5,0.5s1.4,0.8,2,1.3c0.6,0.6,1,1.3,1.3,2.1
		S66.9,12,66.9,13z M63.1,11.4c0-0.7-0.2-1.2-0.6-1.7c-0.4-0.5-1-0.7-1.8-0.7c-0.4,0-0.8,0.1-1.1,0.2c-0.3,0.1-0.6,0.3-0.9,0.5
		c-0.3,0.2-0.5,0.5-0.6,0.8c-0.2,0.3-0.2,0.6-0.3,0.9H63.1z"/>
	<path class="st0" d="M77.3,5v14.1H73V5h-5V1.4h14.3V5H77.3z"/>
	<path class="st0" d="M94.9,12.8c0,1-0.2,1.9-0.6,2.8c-0.4,0.8-0.9,1.5-1.5,2.1s-1.4,1-2.2,1.3s-1.7,0.5-2.7,0.5
		c-0.9,0-1.8-0.2-2.7-0.5s-1.6-0.8-2.2-1.3c-0.6-0.6-1.1-1.3-1.5-2.1c-0.4-0.8-0.6-1.8-0.6-2.8s0.2-1.9,0.6-2.8c0.5-0.8,1-1.5,1.6-2
		c0.6-0.6,1.4-1,2.2-1.3S87,6.2,88,6.2s1.8,0.2,2.7,0.5s1.6,0.7,2.2,1.3s1.1,1.3,1.5,2.1C94.7,10.9,94.9,11.8,94.9,12.8z M91,12.8
		c0-0.4-0.1-0.8-0.2-1.2s-0.3-0.7-0.6-1c-0.3-0.3-0.6-0.5-0.9-0.7S88.5,9.6,88,9.6s-0.9,0.1-1.3,0.3s-0.7,0.4-0.9,0.7
		c-0.2,0.3-0.4,0.6-0.6,1C85.1,12,85,12.4,85,12.8s0.1,0.8,0.2,1.2s0.3,0.7,0.6,1c0.3,0.3,0.6,0.6,0.9,0.7c0.4,0.2,0.8,0.3,1.3,0.3
		s0.9-0.1,1.3-0.3s0.7-0.4,0.9-0.7c0.3-0.3,0.4-0.7,0.6-1C90.9,13.6,91,13.2,91,12.8z"/>
	<path class="st0" d="M105.8,19.1v-1.7h-0.1c-0.2,0.3-0.3,0.6-0.6,0.8c-0.2,0.3-0.5,0.5-0.9,0.7c-0.3,0.2-0.7,0.3-1.1,0.5
		s-0.8,0.2-1.2,0.2c-0.8,0-1.5-0.2-2.1-0.5s-1-0.7-1.4-1.2s-0.6-1-0.8-1.6c-0.2-0.6-0.2-1.2-0.2-1.9V6.6h4.1v6.8c0,0.4,0,0.7,0.1,1
		c0,0.3,0.1,0.6,0.3,0.9c0.1,0.3,0.3,0.4,0.6,0.6c0.2,0.1,0.5,0.2,0.9,0.2c0.7,0,1.3-0.3,1.6-0.8c0.4-0.5,0.6-1.2,0.6-1.9V6.6h4.1
		v12.5H105.8z"/>
	<path class="st0" d="M121.1,10c-0.2-0.1-0.4-0.1-0.5-0.1s-0.3,0-0.5,0c-0.6,0-1,0.1-1.4,0.3s-0.7,0.4-0.9,0.7
		c-0.2,0.3-0.4,0.6-0.5,0.9c-0.1,0.3-0.2,0.6-0.2,0.9v6.4H113V6.6h4v1.8h0.1c0.3-0.6,0.8-1.2,1.4-1.6s1.3-0.6,2-0.6
		c0.2,0,0.3,0,0.5,0s0.3,0,0.4,0.1L121.1,10z"/>
</g>
<g>
	<g>
		<path class="st0" d="M34.3,22.7v2.9l0,0c0-0.1,0.1-0.1,0.1-0.3c0.1-0.1,0.1-0.1,0.3-0.3c0.1,0,0.3-0.1,0.4-0.1s0.3,0,0.5,0
			s0.5,0,0.8,0.1c0.3,0.1,0.4,0.3,0.7,0.4c0.1,0.1,0.3,0.4,0.4,0.7s0.1,0.5,0.1,0.8s0,0.5-0.1,0.8s-0.3,0.5-0.4,0.7
			s-0.4,0.4-0.7,0.5s-0.5,0.1-0.8,0.1c-0.3,0-0.5,0-0.8-0.1c-0.3-0.1-0.4-0.3-0.7-0.5l0,0v0.8h-0.9v-6.6H34.3z M36.7,27.2
			c0-0.1,0-0.3-0.1-0.5c0-0.1-0.1-0.3-0.3-0.4C36.2,26.2,36,26,35.9,26c-0.1-0.1-0.3-0.1-0.5-0.1c-0.1,0-0.4,0-0.5,0.1
			c-0.1,0.1-0.3,0.1-0.4,0.3c-0.1,0.1-0.1,0.3-0.3,0.4c0,0.1-0.1,0.3-0.1,0.5c0,0.1,0,0.3,0.1,0.5c0,0.1,0.1,0.3,0.3,0.4
			c0.1,0.1,0.3,0.3,0.4,0.3c0.1,0.1,0.3,0.1,0.5,0.1s0.4,0,0.5-0.1c0.1-0.1,0.3-0.1,0.4-0.3s0.1-0.3,0.3-0.4
			C36.7,27.5,36.7,27.4,36.7,27.2z"/>
		<path class="st0" d="M38.2,25.1h1.2l1.2,3.1l0,0l1.1-3.1h1.1l-2,5.1c-0.1,0.1-0.1,0.4-0.3,0.5c-0.1,0.1-0.1,0.3-0.3,0.4
			c-0.1,0.1-0.3,0.1-0.4,0.3c-0.1,0-0.4,0.1-0.5,0.1c-0.1,0-0.1,0-0.3,0c-0.1,0-0.1,0-0.3,0l0.1-0.9c0.1,0,0.1,0,0.3,0h0.1
			c0.1,0,0.3,0,0.3,0s0.1,0,0.1-0.1c0,0,0.1-0.1,0.1-0.3s0.1-0.1,0.1-0.3l0.3-0.5L38.2,25.1z"/>
	</g>
	<g>
		<path class="st1" d="M46.9,28.8l0.8-0.8c0.4,0.4,0.8,0.7,1.3,0.7c0.7,0,1.1-0.4,1.1-1.2v-3.3h-2v-0.9h3.3v4.1
			c0,1.5-0.8,2.3-2.4,2.3C48.1,29.8,47.3,29.4,46.9,28.8z"/>
		<path class="st1" d="M62.5,28.2H59l-0.7,1.5H57l3.1-6.3h1.3l3.1,6.3h-1.3L62.5,28.2z M62.1,27.2l-1.3-2.8l-1.3,2.8H62.1z"/>
		<path class="st1" d="M70.3,26.6c0-1.9,1.6-3.2,3.7-3.2c1.2,0,2.1,0.4,2.8,1.1L76,25.1c-0.5-0.5-1.2-0.8-1.9-0.8
			c-1.5,0-2.5,0.9-2.5,2.3c0,1.3,1.1,2.3,2.5,2.3c0.7,0,1.3-0.3,1.9-0.8l0.8,0.7c-0.7,0.7-1.6,1.1-2.8,1.1
			C71.9,29.8,70.3,28.4,70.3,26.6z"/>
		<path class="st1" d="M84.7,27L83.6,28v1.6h-1.3v-6.3h1.3v3.2l3.5-3.2h1.5l-2.9,2.8l3.1,3.5h-1.5L84.7,27z"/>
	</g>
</g>
</svg>
