<?xml version="1.0" encoding="utf-8"?>
<!-- Generator: Adobe Illustrator 18.1.1, SVG Export Plug-In . SVG Version: 6.00 Build 0)  -->
<svg version="1.1" id="Layer_1" xmlns="http://www.w3.org/2000/svg" xmlns:xlink="http://www.w3.org/1999/xlink" x="0px" y="0px"
	 viewBox="0 0 1623.5 531.7" enable-background="new 0 0 1623.5 531.7" xml:space="preserve">
<path fill="#FFFFFF" d="M1156.9,441.2c-1.1,0-2-0.9-2-2v-2.4h-2.4c-1.1,0-2-0.9-2-2s0.9-2,2-2h2.4v-2.4c0-1.1,0.9-2,2-2
	c1.1,0,2,0.9,2,2v2.4h2.4c1.1,0,2,0.9,2,2s-0.9,2-2,2h-2.4v2.4C1158.9,440.3,1158,441.2,1156.9,441.2z"/>
<g>
	<polygon fill="#FFFFFF" stroke="#C8C8C8" stroke-width="5.3682" stroke-miterlimit="10" points="1322.2,338.9 1322.2,328.3 
		1275.4,328.3 1275.4,338.9 1255.4,338.9 1255.4,528.2 1342.2,528.2 1342.2,338.9 	"/>
	<g>
		<g>
			<rect x="1278.1" y="363.5" fill="#FFFFFF" width="4.2" height="4.9"/>
			<polygon opacity="0.51" fill="#C8C8C8" points="1284.9,360.8 1275.4,360.8 1275.4,371.1 1284.9,371.1 1284.9,360.8 			"/>
		</g>
		<g>
			<rect x="1296.7" y="363.5" fill="#FFFFFF" width="4.2" height="4.9"/>
			<polygon opacity="0.51" fill="#C8C8C8" points="1303.5,360.8 1294,360.8 1294,371.1 1303.5,371.1 1303.5,360.8 			"/>
		</g>
		<g>
			<rect x="1315.3" y="363.5" fill="#FFFFFF" width="4.2" height="4.9"/>
			<polygon opacity="0.51" fill="#C8C8C8" points="1322.2,360.8 1312.6,360.8 1312.6,371.1 1322.2,371.1 1322.2,360.8 			"/>
		</g>
		<g>
			<rect x="1278.1" y="382.3" fill="#FFFFFF" width="4.2" height="4.9"/>
			<polygon opacity="0.51" fill="#C8C8C8" points="1284.9,379.6 1275.4,379.6 1275.4,389.9 1284.9,389.9 1284.9,379.6 			"/>
		</g>
		<g>
			<rect x="1296.7" y="382.3" fill="#FFFFFF" width="4.2" height="4.9"/>
			<polygon opacity="0.51" fill="#C8C8C8" points="1303.5,379.6 1294,379.6 1294,389.9 1303.5,389.9 1303.5,379.6 			"/>
		</g>
		<g>
			<rect x="1315.3" y="382.3" fill="#FFFFFF" width="4.2" height="4.9"/>
			<polygon opacity="0.51" fill="#C8C8C8" points="1322.2,379.6 1312.6,379.6 1312.6,389.9 1322.2,389.9 1322.2,379.6 			"/>
		</g>
		<g>
			<rect x="1278.1" y="401.1" fill="#FFFFFF" width="4.2" height="4.9"/>
			<polygon opacity="0.51" fill="#C8C8C8" points="1284.9,398.4 1275.4,398.4 1275.4,408.7 1284.9,408.7 1284.9,398.4 			"/>
		</g>
		<g>
			<rect x="1296.7" y="401.1" fill="#FFFFFF" width="4.2" height="4.9"/>
			<polygon opacity="0.51" fill="#C8C8C8" points="1303.5,398.4 1294,398.4 1294,408.7 1303.5,408.7 1303.5,398.4 			"/>
		</g>
		<g>
			<rect x="1315.3" y="401.1" fill="#FFFFFF" width="4.2" height="4.9"/>
			<polygon opacity="0.51" fill="#C8C8C8" points="1322.2,398.4 1312.6,398.4 1312.6,408.7 1322.2,408.7 1322.2,398.4 			"/>
		</g>
		<g>
			<rect x="1278.1" y="419.9" fill="#FFFFFF" width="4.2" height="4.9"/>
			<polygon opacity="0.51" fill="#C8C8C8" points="1284.9,417.2 1275.4,417.2 1275.4,427.5 1284.9,427.5 1284.9,417.2 			"/>
		</g>
		<g>
			<rect x="1296.7" y="419.9" fill="#FFFFFF" width="4.2" height="4.9"/>
			<polygon opacity="0.51" fill="#C8C8C8" points="1303.5,417.2 1294,417.2 1294,427.5 1303.5,427.5 1303.5,417.2 			"/>
		</g>
		<g>
			<rect x="1315.3" y="419.9" fill="#FFFFFF" width="4.2" height="4.9"/>
			<polygon opacity="0.51" fill="#C8C8C8" points="1322.2,417.2 1312.6,417.2 1312.6,427.5 1322.2,427.5 1322.2,417.2 			"/>
		</g>
		<g>
			<rect x="1278.1" y="438.7" fill="#FFFFFF" width="4.2" height="4.9"/>
			<polygon opacity="0.51" fill="#C8C8C8" points="1284.9,436 1275.4,436 1275.4,446.3 1284.9,446.3 1284.9,436 			"/>
		</g>
		<g>
			<rect x="1296.7" y="438.7" fill="#FFFFFF" width="4.2" height="4.9"/>
			<polygon opacity="0.51" fill="#C8C8C8" points="1303.5,436 1294,436 1294,446.3 1303.5,446.3 1303.5,436 			"/>
		</g>
		<g>
			<rect x="1315.3" y="438.7" fill="#FFFFFF" width="4.2" height="4.9"/>
			<polygon opacity="0.51" fill="#C8C8C8" points="1322.2,436 1312.6,436 1312.6,446.3 1322.2,446.3 1322.2,436 			"/>
		</g>
		<g>
			<rect x="1278.1" y="457.5" fill="#FFFFFF" width="4.2" height="4.9"/>
			<polygon opacity="0.51" fill="#C8C8C8" points="1284.9,454.8 1275.4,454.8 1275.4,465.1 1284.9,465.1 1284.9,454.8 			"/>
		</g>
		<g>
			<rect x="1296.7" y="457.5" fill="#FFFFFF" width="4.2" height="4.9"/>
			<polygon opacity="0.51" fill="#C8C8C8" points="1303.5,454.8 1294,454.8 1294,465.1 1303.5,465.1 1303.5,454.8 			"/>
		</g>
		<g>
			<rect x="1315.3" y="457.5" fill="#FFFFFF" width="4.2" height="4.9"/>
			<polygon opacity="0.51" fill="#C8C8C8" points="1322.2,454.8 1312.6,454.8 1312.6,465.1 1322.2,465.1 1322.2,454.8 			"/>
		</g>
	</g>
</g>
<g>
	<polygon fill="#FFFFFF" stroke="#C8C8C8" stroke-width="5.0949" stroke-miterlimit="10" points="1972.6,157.2 1972.6,137.1 
		1959.9,137.1 1959.9,118.5 1950.5,118.5 1950.5,103 1944.4,103 1944.4,86.3 1930.9,86.3 1930.9,51.1 1926.8,51.1 1926.8,86.3 
		1913.2,86.3 1913.2,103 1907.2,103 1907.2,118.5 1897.8,118.5 1897.8,137.1 1885.1,137.1 1885.1,157.2 1871.9,157.2 1871.9,530.3 
		1985.8,530.3 1985.8,157.2 	"/>
	<g>
		<g>
			<rect x="1898.6" y="160.6" fill="#FFFFFF" width="2.4" height="224.5"/>
			<polygon opacity="0.51" fill="#C8C8C8" points="1903.6,158 1896,158 1896,387.6 1903.6,387.6 1903.6,158 			"/>
		</g>
		<g>
			<rect x="1917.9" y="160.6" fill="#FFFFFF" width="2.4" height="224.5"/>
			<polygon opacity="0.51" fill="#C8C8C8" points="1922.9,158 1915.4,158 1915.4,387.6 1922.9,387.6 1922.9,158 			"/>
		</g>
		<g>
			<rect x="1937.3" y="160.6" fill="#FFFFFF" width="2.4" height="224.5"/>
			<polygon opacity="0.51" fill="#C8C8C8" points="1942.3,158 1934.7,158 1934.7,387.6 1942.3,387.6 1942.3,158 			"/>
		</g>
		<g>
			<rect x="1956.6" y="160.6" fill="#FFFFFF" width="2.4" height="224.5"/>
			<polygon opacity="0.51" fill="#C8C8C8" points="1961.6,158 1954.1,158 1954.1,387.6 1961.6,387.6 1961.6,158 			"/>
		</g>
	</g>
</g>
<g>
	<polygon fill="#FFFFFF" stroke="#C8C8C8" stroke-width="5.3682" stroke-miterlimit="10" points="1981.4,306.4 1981.4,284.3 
		1962.2,284.3 1962.2,270.3 1939.6,270.3 1939.6,284.3 1920.4,284.3 1920.4,306.4 1911.1,306.4 1911.1,529.8 1990.6,529.8 
		1990.6,306.4 	"/>
	<g>
		<g>
			<rect x="1929.2" y="319.1" fill="#FFFFFF" width="3.6" height="4.4"/>
			<polygon opacity="0.51" fill="#C8C8C8" points="1935.4,316.4 1926.5,316.4 1926.5,326.2 1935.4,326.2 1935.4,316.4 			"/>
		</g>
		<g>
			<rect x="1949.1" y="319.1" fill="#FFFFFF" width="3.6" height="4.4"/>
			<polygon opacity="0.51" fill="#C8C8C8" points="1955.3,316.4 1946.4,316.4 1946.4,326.2 1955.3,326.2 1955.3,316.4 			"/>
		</g>
		<g>
			<rect x="1969" y="319.1" fill="#FFFFFF" width="3.6" height="4.4"/>
			<polygon opacity="0.51" fill="#C8C8C8" points="1975.2,316.4 1966.3,316.4 1966.3,326.2 1975.2,326.2 1975.2,316.4 			"/>
		</g>
		<g>
			<rect x="1929.2" y="336.9" fill="#FFFFFF" width="3.6" height="4.4"/>
			<polygon opacity="0.51" fill="#C8C8C8" points="1935.4,334.2 1926.5,334.2 1926.5,344 1935.4,344 1935.4,334.2 			"/>
		</g>
		<g>
			<rect x="1949.1" y="336.9" fill="#FFFFFF" width="3.6" height="4.4"/>
			<polygon opacity="0.51" fill="#C8C8C8" points="1955.3,334.2 1946.4,334.2 1946.4,344 1955.3,344 1955.3,334.2 			"/>
		</g>
		<g>
			<rect x="1969" y="336.9" fill="#FFFFFF" width="3.6" height="4.4"/>
			<polygon opacity="0.51" fill="#C8C8C8" points="1975.2,334.2 1966.3,334.2 1966.3,344 1975.2,344 1975.2,334.2 			"/>
		</g>
		<g>
			<rect x="1929.2" y="354.7" fill="#FFFFFF" width="3.6" height="4.4"/>
			<polygon opacity="0.51" fill="#C8C8C8" points="1935.4,352.1 1926.5,352.1 1926.5,361.8 1935.4,361.8 1935.4,352.1 			"/>
		</g>
		<g>
			<rect x="1949.1" y="354.7" fill="#FFFFFF" width="3.6" height="4.4"/>
			<polygon opacity="0.51" fill="#C8C8C8" points="1955.3,352.1 1946.4,352.1 1946.4,361.8 1955.3,361.8 1955.3,352.1 			"/>
		</g>
		<g>
			<rect x="1969" y="354.7" fill="#FFFFFF" width="3.6" height="4.4"/>
			<polygon opacity="0.51" fill="#C8C8C8" points="1975.2,352.1 1966.3,352.1 1966.3,361.8 1975.2,361.8 1975.2,352.1 			"/>
		</g>
		<g>
			<rect x="1929.2" y="372.6" fill="#FFFFFF" width="3.6" height="4.4"/>
			<polygon opacity="0.51" fill="#C8C8C8" points="1935.4,369.9 1926.5,369.9 1926.5,379.7 1935.4,379.7 1935.4,369.9 			"/>
		</g>
		<g>
			<rect x="1949.1" y="372.6" fill="#FFFFFF" width="3.6" height="4.4"/>
			<polygon opacity="0.51" fill="#C8C8C8" points="1955.3,369.9 1946.4,369.9 1946.4,379.7 1955.3,379.7 1955.3,369.9 			"/>
		</g>
		<g>
			<rect x="1969" y="372.6" fill="#FFFFFF" width="3.6" height="4.4"/>
			<polygon opacity="0.51" fill="#C8C8C8" points="1975.2,369.9 1966.3,369.9 1966.3,379.7 1975.2,379.7 1975.2,369.9 			"/>
		</g>
		<g>
			<rect x="1929.2" y="390.4" fill="#FFFFFF" width="3.6" height="4.4"/>
			<polygon opacity="0.51" fill="#C8C8C8" points="1935.4,387.7 1926.5,387.7 1926.5,397.5 1935.4,397.5 1935.4,387.7 			"/>
		</g>
		<g>
			<rect x="1949.1" y="390.4" fill="#FFFFFF" width="3.6" height="4.4"/>
			<polygon opacity="0.51" fill="#C8C8C8" points="1955.3,387.7 1946.4,387.7 1946.4,397.5 1955.3,397.5 1955.3,387.7 			"/>
		</g>
		<g>
			<rect x="1969" y="390.4" fill="#FFFFFF" width="3.6" height="4.4"/>
			<polygon opacity="0.51" fill="#C8C8C8" points="1975.2,387.7 1966.3,387.7 1966.3,397.5 1975.2,397.5 1975.2,387.7 			"/>
		</g>
		<g>
			<rect x="1929.2" y="408.2" fill="#FFFFFF" width="3.6" height="4.4"/>
			<polygon opacity="0.51" fill="#C8C8C8" points="1935.4,405.5 1926.5,405.5 1926.5,415.3 1935.4,415.3 1935.4,405.5 			"/>
		</g>
		<g>
			<rect x="1949.1" y="408.2" fill="#FFFFFF" width="3.6" height="4.4"/>
			<polygon opacity="0.51" fill="#C8C8C8" points="1955.3,405.5 1946.4,405.5 1946.4,415.3 1955.3,415.3 1955.3,405.5 			"/>
		</g>
		<g>
			<rect x="1969" y="408.2" fill="#FFFFFF" width="3.6" height="4.4"/>
			<polygon opacity="0.51" fill="#C8C8C8" points="1975.2,405.5 1966.3,405.5 1966.3,415.3 1975.2,415.3 1975.2,405.5 			"/>
		</g>
		<g>
			<rect x="1929.2" y="426.1" fill="#FFFFFF" width="3.6" height="4.4"/>
			<polygon opacity="0.51" fill="#C8C8C8" points="1935.4,423.4 1926.5,423.4 1926.5,433.1 1935.4,433.1 1935.4,423.4 			"/>
		</g>
		<g>
			<rect x="1949.1" y="426.1" fill="#FFFFFF" width="3.6" height="4.4"/>
			<polygon opacity="0.51" fill="#C8C8C8" points="1955.3,423.4 1946.4,423.4 1946.4,433.1 1955.3,433.1 1955.3,423.4 			"/>
		</g>
		<g>
			<rect x="1969" y="426.1" fill="#FFFFFF" width="3.6" height="4.4"/>
			<polygon opacity="0.51" fill="#C8C8C8" points="1975.2,423.4 1966.3,423.4 1966.3,433.1 1975.2,433.1 1975.2,423.4 			"/>
		</g>
		<g>
			<rect x="1929.2" y="443.9" fill="#FFFFFF" width="3.6" height="4.4"/>
			<polygon opacity="0.51" fill="#C8C8C8" points="1935.4,441.2 1926.5,441.2 1926.5,451 1935.4,451 1935.4,441.2 			"/>
		</g>
		<g>
			<rect x="1949.1" y="443.9" fill="#FFFFFF" width="3.6" height="4.4"/>
			<polygon opacity="0.51" fill="#C8C8C8" points="1955.3,441.2 1946.4,441.2 1946.4,451 1955.3,451 1955.3,441.2 			"/>
		</g>
		<g>
			<rect x="1969" y="443.9" fill="#FFFFFF" width="3.6" height="4.4"/>
			<polygon opacity="0.51" fill="#C8C8C8" points="1975.2,441.2 1966.3,441.2 1966.3,451 1975.2,451 1975.2,441.2 			"/>
		</g>
		<g>
			<rect x="1929.2" y="461.7" fill="#FFFFFF" width="3.6" height="4.4"/>
			<polygon opacity="0.51" fill="#C8C8C8" points="1935.4,459 1926.5,459 1926.5,468.8 1935.4,468.8 1935.4,459 			"/>
		</g>
		<g>
			<rect x="1949.1" y="461.7" fill="#FFFFFF" width="3.6" height="4.4"/>
			<polygon opacity="0.51" fill="#C8C8C8" points="1955.3,459 1946.4,459 1946.4,468.8 1955.3,468.8 1955.3,459 			"/>
		</g>
		<g>
			<rect x="1969" y="461.7" fill="#FFFFFF" width="3.6" height="4.4"/>
			<polygon opacity="0.51" fill="#C8C8C8" points="1975.2,459 1966.3,459 1966.3,468.8 1975.2,468.8 1975.2,459 			"/>
		</g>
		<g>
			<rect x="1929.2" y="479.5" fill="#FFFFFF" width="3.6" height="4.4"/>
			<polygon opacity="0.51" fill="#C8C8C8" points="1935.4,476.9 1926.5,476.9 1926.5,486.6 1935.4,486.6 1935.4,476.9 			"/>
		</g>
		<g>
			<rect x="1949.1" y="479.5" fill="#FFFFFF" width="3.6" height="4.4"/>
			<polygon opacity="0.51" fill="#C8C8C8" points="1955.3,476.9 1946.4,476.9 1946.4,486.6 1955.3,486.6 1955.3,476.9 			"/>
		</g>
		<g>
			<rect x="1969" y="479.5" fill="#FFFFFF" width="3.6" height="4.4"/>
			<polygon opacity="0.51" fill="#C8C8C8" points="1975.2,476.9 1966.3,476.9 1966.3,486.6 1975.2,486.6 1975.2,476.9 			"/>
		</g>
	</g>
</g>
<g>
	<g>
		<polygon fill="#FFFFFF" stroke="#C8C8C8" stroke-width="5.3682" stroke-miterlimit="10" points="1746.9,529.9 1695.3,529.9 
			1695.3,214.9 1746.9,247.5 		"/>
		<g>
			<g>
				<rect x="1707.2" y="265.4" fill="#FFFFFF" width="29.1" height="2"/>
				<polygon opacity="0.51" fill="#C8C8C8" points="1739,262.7 1704.5,262.7 1704.5,270.1 1739,270.1 1739,262.7 				"/>
			</g>
			<g>
				<rect x="1707.2" y="283.7" fill="#FFFFFF" width="29.1" height="2"/>
				<polygon opacity="0.51" fill="#C8C8C8" points="1739,281 1704.5,281 1704.5,288.3 1739,288.3 1739,281 				"/>
			</g>
			<g>
				<rect x="1707.2" y="301.9" fill="#FFFFFF" width="29.1" height="2"/>
				<polygon opacity="0.51" fill="#C8C8C8" points="1739,299.2 1704.5,299.2 1704.5,306.6 1739,306.6 1739,299.2 				"/>
			</g>
			<g>
				<rect x="1707.2" y="320.2" fill="#FFFFFF" width="29.1" height="2"/>
				<polygon opacity="0.51" fill="#C8C8C8" points="1739,317.5 1704.5,317.5 1704.5,324.9 1739,324.9 1739,317.5 				"/>
			</g>
			<g>
				<rect x="1707.2" y="338.5" fill="#FFFFFF" width="29.1" height="2"/>
				<polygon opacity="0.51" fill="#C8C8C8" points="1739,335.8 1704.5,335.8 1704.5,343.1 1739,343.1 1739,335.8 				"/>
			</g>
			<g>
				<rect x="1707.2" y="356.7" fill="#FFFFFF" width="29.1" height="2"/>
				<polygon opacity="0.51" fill="#C8C8C8" points="1739,354 1704.5,354 1704.5,361.4 1739,361.4 1739,354 				"/>
			</g>
		</g>
		<g>
			<g>
				<rect x="1707.2" y="373.8" fill="#FFFFFF" width="29.1" height="2"/>
				<polygon opacity="0.51" fill="#C8C8C8" points="1739,371.1 1704.5,371.1 1704.5,378.4 1739,378.4 1739,371.1 				"/>
			</g>
			<g>
				<rect x="1707.2" y="392" fill="#FFFFFF" width="29.1" height="2"/>
				<polygon opacity="0.51" fill="#C8C8C8" points="1739,389.4 1704.5,389.4 1704.5,396.7 1739,396.7 1739,389.4 				"/>
			</g>
			<g>
				<rect x="1707.2" y="410.3" fill="#FFFFFF" width="29.1" height="2"/>
				<polygon opacity="0.51" fill="#C8C8C8" points="1739,407.6 1704.5,407.6 1704.5,415 1739,415 1739,407.6 				"/>
			</g>
			<g>
				<rect x="1707.2" y="428.6" fill="#FFFFFF" width="29.1" height="2"/>
				<polygon opacity="0.51" fill="#C8C8C8" points="1739,425.9 1704.5,425.9 1704.5,433.3 1739,433.3 1739,425.9 				"/>
			</g>
			<g>
				<rect x="1707.2" y="446.9" fill="#FFFFFF" width="29.1" height="2"/>
				<polygon opacity="0.51" fill="#C8C8C8" points="1739,444.2 1704.5,444.2 1704.5,451.5 1739,451.5 1739,444.2 				"/>
			</g>
			<g>
				<rect x="1707.2" y="465.1" fill="#FFFFFF" width="29.1" height="2"/>
				<polygon opacity="0.51" fill="#C8C8C8" points="1739,462.4 1704.5,462.4 1704.5,469.8 1739,469.8 1739,462.4 				"/>
			</g>
		</g>
	</g>
	<polygon fill="#FFFFFF" stroke="#C8C8C8" stroke-width="5.3682" stroke-miterlimit="10" points="1732.1,529.9 1779.6,529.9 
		1779.6,275.4 1732.1,303.7 	"/>
</g>
<g>
	<g>
		<polygon fill="#FFFFFF" stroke="#C8C8C8" stroke-width="5.0949" stroke-miterlimit="10" points="1593.9,312.7 1593.9,284.2 
			1588.1,284.2 1588.1,272.3 1583.8,272.3 1583.8,268.8 1574.5,268.8 1574.5,272.3 1571.5,272.3 1571.5,268.8 1562.2,268.8 
			1562.2,272.3 1560,272.3 1560,268.8 1550.2,268.8 1550.2,272.3 1546.4,272.3 1546.4,284.2 1531.7,284.2 1531.7,272.3 
			1520.5,272.3 1520.5,246.7 1516.8,246.7 1516.8,272.3 1508,272.3 1508,246.7 1504.3,246.7 1504.3,272.3 1490,272.3 1490,284.2 
			1482.7,284.2 1482.7,312.7 1462.2,312.7 1462.2,528.7 1612.6,528.7 1612.6,312.7 		"/>
	</g>
	<g>
		<g>
			<rect x="1485.4" y="340.3" fill="#FFFFFF" width="46" height="2.9"/>
			<polygon opacity="0.51" fill="#C8C8C8" points="1533.9,337.7 1482.8,337.7 1482.8,345.7 1533.9,345.7 1533.9,337.7 			"/>
		</g>
		<g>
			<rect x="1544.9" y="340.3" fill="#FFFFFF" width="46" height="2.9"/>
			<polygon opacity="0.51" fill="#C8C8C8" points="1593.5,337.7 1542.4,337.7 1542.4,345.7 1593.5,345.7 1593.5,337.7 			"/>
		</g>
		<g>
			<rect x="1485.4" y="361.3" fill="#FFFFFF" width="46" height="2.9"/>
			<polygon opacity="0.51" fill="#C8C8C8" points="1533.9,358.8 1482.8,358.8 1482.8,366.8 1533.9,366.8 1533.9,358.8 			"/>
		</g>
		<g>
			<rect x="1544.9" y="361.3" fill="#FFFFFF" width="46" height="2.9"/>
			<polygon opacity="0.51" fill="#C8C8C8" points="1593.5,358.8 1542.4,358.8 1542.4,366.8 1593.5,366.8 1593.5,358.8 			"/>
		</g>
		<g>
			<rect x="1485.4" y="382.3" fill="#FFFFFF" width="46" height="2.9"/>
			<polygon opacity="0.51" fill="#C8C8C8" points="1533.9,379.8 1482.8,379.8 1482.8,387.8 1533.9,387.8 1533.9,379.8 			"/>
		</g>
		<g>
			<rect x="1544.9" y="382.3" fill="#FFFFFF" width="46" height="2.9"/>
			<polygon opacity="0.51" fill="#C8C8C8" points="1593.5,379.8 1542.4,379.8 1542.4,387.8 1593.5,387.8 1593.5,379.8 			"/>
		</g>
		<g>
			<rect x="1485.4" y="403.4" fill="#FFFFFF" width="46" height="2.9"/>
			<polygon opacity="0.51" fill="#C8C8C8" points="1533.9,400.8 1482.8,400.8 1482.8,408.8 1533.9,408.8 1533.9,400.8 			"/>
		</g>
		<g>
			<rect x="1544.9" y="403.4" fill="#FFFFFF" width="46" height="2.9"/>
			<polygon opacity="0.51" fill="#C8C8C8" points="1593.5,400.8 1542.4,400.8 1542.4,408.8 1593.5,408.8 1593.5,400.8 			"/>
		</g>
		<g>
			<rect x="1485.4" y="424.4" fill="#FFFFFF" width="46" height="2.9"/>
			<polygon opacity="0.51" fill="#C8C8C8" points="1533.9,421.9 1482.8,421.9 1482.8,429.9 1533.9,429.9 1533.9,421.9 			"/>
		</g>
		<g>
			<rect x="1544.9" y="424.4" fill="#FFFFFF" width="46" height="2.9"/>
			<polygon opacity="0.51" fill="#C8C8C8" points="1593.5,421.9 1542.4,421.9 1542.4,429.9 1593.5,429.9 1593.5,421.9 			"/>
		</g>
		<g>
			<rect x="1485.4" y="445.4" fill="#FFFFFF" width="46" height="2.9"/>
			<polygon opacity="0.51" fill="#C8C8C8" points="1533.9,442.9 1482.8,442.9 1482.8,450.9 1533.9,450.9 1533.9,442.9 			"/>
		</g>
		<g>
			<rect x="1544.9" y="445.4" fill="#FFFFFF" width="46" height="2.9"/>
			<polygon opacity="0.51" fill="#C8C8C8" points="1593.5,442.9 1542.4,442.9 1542.4,450.9 1593.5,450.9 1593.5,442.9 			"/>
		</g>
		<g>
			<rect x="1485.4" y="466.4" fill="#FFFFFF" width="46" height="2.9"/>
			<polygon opacity="0.51" fill="#C8C8C8" points="1533.9,463.9 1482.8,463.9 1482.8,471.9 1533.9,471.9 1533.9,463.9 			"/>
		</g>
		<g>
			<rect x="1544.9" y="466.4" fill="#FFFFFF" width="46" height="2.9"/>
			<polygon opacity="0.51" fill="#C8C8C8" points="1593.5,463.9 1542.4,463.9 1542.4,471.9 1593.5,471.9 1593.5,463.9 			"/>
		</g>
	</g>
</g>
<g>
	<polygon fill="#FFFFFF" stroke="#C8C8C8" stroke-width="5.0949" stroke-miterlimit="10" points="2039.3,381 1958.8,381 
		1958.8,396.3 1963.9,396.3 1963.9,529.3 2035.4,529.3 2035.4,396.3 2039.3,396.3 	"/>
	<g>
		<g>
			<rect x="1981.6" y="406.4" fill="#FFFFFF" width="3.5" height="3.5"/>
			<polygon opacity="0.51" fill="#C8C8C8" points="1987.6,403.9 1979.1,403.9 1979.1,412.5 1987.6,412.5 1987.6,403.9 			"/>
		</g>
		<g>
			<rect x="1998.4" y="406.4" fill="#FFFFFF" width="3.5" height="3.5"/>
			<polygon opacity="0.51" fill="#C8C8C8" points="2004.5,403.9 1995.9,403.9 1995.9,412.5 2004.5,412.5 2004.5,403.9 			"/>
		</g>
		<g>
			<rect x="2015.2" y="406.4" fill="#FFFFFF" width="3.5" height="3.5"/>
			<polygon opacity="0.51" fill="#C8C8C8" points="2021.3,403.9 2012.7,403.9 2012.7,412.5 2021.3,412.5 2021.3,403.9 			"/>
		</g>
		<g>
			<rect x="1981.6" y="422.2" fill="#FFFFFF" width="3.5" height="3.5"/>
			<polygon opacity="0.51" fill="#C8C8C8" points="1987.6,419.6 1979.1,419.6 1979.1,428.2 1987.6,428.2 1987.6,419.6 			"/>
		</g>
		<g>
			<rect x="1998.4" y="422.2" fill="#FFFFFF" width="3.5" height="3.5"/>
			<polygon opacity="0.51" fill="#C8C8C8" points="2004.5,419.6 1995.9,419.6 1995.9,428.2 2004.5,428.2 2004.5,419.6 			"/>
		</g>
		<g>
			<rect x="2015.2" y="422.2" fill="#FFFFFF" width="3.5" height="3.5"/>
			<polygon opacity="0.51" fill="#C8C8C8" points="2021.3,419.6 2012.7,419.6 2012.7,428.2 2021.3,428.2 2021.3,419.6 			"/>
		</g>
		<g>
			<rect x="1981.6" y="437.9" fill="#FFFFFF" width="3.5" height="3.5"/>
			<polygon opacity="0.51" fill="#C8C8C8" points="1987.6,435.4 1979.1,435.4 1979.1,444 1987.6,444 1987.6,435.4 			"/>
		</g>
		<g>
			<rect x="1998.4" y="437.9" fill="#FFFFFF" width="3.5" height="3.5"/>
			<polygon opacity="0.51" fill="#C8C8C8" points="2004.5,435.4 1995.9,435.4 1995.9,444 2004.5,444 2004.5,435.4 			"/>
		</g>
		<g>
			<rect x="2015.2" y="437.9" fill="#FFFFFF" width="3.5" height="3.5"/>
			<polygon opacity="0.51" fill="#C8C8C8" points="2021.3,435.4 2012.7,435.4 2012.7,444 2021.3,444 2021.3,435.4 			"/>
		</g>
		<g>
			<rect x="1981.6" y="453.7" fill="#FFFFFF" width="3.5" height="3.5"/>
			<polygon opacity="0.51" fill="#C8C8C8" points="1987.6,451.1 1979.1,451.1 1979.1,459.7 1987.6,459.7 1987.6,451.1 			"/>
		</g>
		<g>
			<rect x="1998.4" y="453.7" fill="#FFFFFF" width="3.5" height="3.5"/>
			<polygon opacity="0.51" fill="#C8C8C8" points="2004.5,451.1 1995.9,451.1 1995.9,459.7 2004.5,459.7 2004.5,451.1 			"/>
		</g>
		<g>
			<rect x="2015.2" y="453.7" fill="#FFFFFF" width="3.5" height="3.5"/>
			<polygon opacity="0.51" fill="#C8C8C8" points="2021.3,451.1 2012.7,451.1 2012.7,459.7 2021.3,459.7 2021.3,451.1 			"/>
		</g>
		<g>
			<rect x="1981.6" y="469.4" fill="#FFFFFF" width="3.5" height="3.5"/>
			<polygon opacity="0.51" fill="#C8C8C8" points="1987.6,466.9 1979.1,466.9 1979.1,475.5 1987.6,475.5 1987.6,466.9 			"/>
		</g>
		<g>
			<rect x="1998.4" y="469.4" fill="#FFFFFF" width="3.5" height="3.5"/>
			<polygon opacity="0.51" fill="#C8C8C8" points="2004.5,466.9 1995.9,466.9 1995.9,475.5 2004.5,475.5 2004.5,466.9 			"/>
		</g>
		<g>
			<rect x="2015.2" y="469.4" fill="#FFFFFF" width="3.5" height="3.5"/>
			<polygon opacity="0.51" fill="#C8C8C8" points="2021.3,466.9 2012.7,466.9 2012.7,475.5 2021.3,475.5 2021.3,466.9 			"/>
		</g>
		<g>
			<rect x="1981.6" y="485.2" fill="#FFFFFF" width="3.5" height="3.5"/>
			<polygon opacity="0.51" fill="#C8C8C8" points="1987.6,482.6 1979.1,482.6 1979.1,491.2 1987.6,491.2 1987.6,482.6 			"/>
		</g>
		<g>
			<rect x="1998.4" y="485.2" fill="#FFFFFF" width="3.5" height="3.5"/>
			<polygon opacity="0.51" fill="#C8C8C8" points="2004.5,482.6 1995.9,482.6 1995.9,491.2 2004.5,491.2 2004.5,482.6 			"/>
		</g>
		<g>
			<rect x="2015.2" y="485.2" fill="#FFFFFF" width="3.5" height="3.5"/>
			<polygon opacity="0.51" fill="#C8C8C8" points="2021.3,482.6 2012.7,482.6 2012.7,491.2 2021.3,491.2 2021.3,482.6 			"/>
		</g>
	</g>
</g>
<g>
	<polygon fill="#FFFFFF" stroke="#C8C8C8" stroke-width="5.7127" stroke-miterlimit="10" points="1013.9,465.2 1013.9,447.4 
		1006.4,447.4 1006.4,462 979.2,450.4 925.5,475.2 925.5,528.2 1037.2,528.2 1037.2,475.2 	"/>
	
		<rect x="973.5" y="490.1" fill="#FFFFFF" stroke="#C8C8C8" stroke-width="5.7127" stroke-miterlimit="10" width="15.8" height="25.2"/>
	
		<rect x="998.9" y="490.1" fill="#FFFFFF" stroke="#C8C8C8" stroke-width="5.7127" stroke-miterlimit="10" width="25.6" height="25.2"/>
	
		<rect x="938.2" y="490.1" fill="#FFFFFF" stroke="#C8C8C8" stroke-width="5.7127" stroke-miterlimit="10" width="25.6" height="25.2"/>
</g>
<g>
	<polygon fill="#FFFFFF" stroke="#C8C8C8" stroke-width="5.3682" stroke-miterlimit="10" points="1509.2,464.7 1509.2,451.4 
		1444.3,451.4 1444.3,464.7 1374.4,464.7 1374.4,478.4 1385.1,478.4 1385.1,529.5 1568.4,529.5 1568.4,478.4 1579.1,478.4 
		1579.1,464.7 	"/>
	<g>
		<g>
			<rect x="1409.7" y="496.7" fill="#FFFFFF" width="11.4" height="21"/>
			<path opacity="0.51" fill="#C8C8C8" d="M1418.4,499.4v15.7h-6v-15.7H1418.4 M1423.7,494.1H1407v26.4h16.7V494.1L1423.7,494.1z"/>
		</g>
		<g>
			<rect x="1430.6" y="496.7" fill="#FFFFFF" width="11.3" height="21"/>
			<path opacity="0.51" fill="#C8C8C8" d="M1439.2,499.4v15.7h-6v-15.7H1439.2 M1444.6,494.1h-16.7v26.4h16.7V494.1L1444.6,494.1z"
				/>
		</g>
	</g>
	<g>
		<g>
			<rect x="1513" y="496.7" fill="#FFFFFF" width="11.4" height="21"/>
			<path opacity="0.51" fill="#C8C8C8" d="M1521.7,499.4v15.7h-6v-15.7H1521.7 M1527.1,494.1h-16.7v26.4h16.7V494.1L1527.1,494.1z"
				/>
		</g>
		<g>
			<rect x="1533.9" y="496.7" fill="#FFFFFF" width="11.4" height="21"/>
			<path opacity="0.51" fill="#C8C8C8" d="M1542.6,499.4v15.7h-6v-15.7H1542.6 M1548,494.1h-16.7v26.4h16.7V494.1L1548,494.1z"/>
		</g>
	</g>
	<g>
		<g>
			<rect x="1461.6" y="496.7" fill="#FFFFFF" width="11.2" height="21"/>
			<path opacity="0.51" fill="#C8C8C8" d="M1470.1,499.4v15.7h-5.8v-15.7H1470.1 M1475.4,494.1h-16.5v26.4h16.5V494.1L1475.4,494.1z
				"/>
		</g>
		<g>
			<rect x="1482.2" y="496.7" fill="#FFFFFF" width="11.2" height="21"/>
			<path opacity="0.51" fill="#C8C8C8" d="M1490.7,499.4v15.7h-5.8v-15.7H1490.7 M1496.1,494.1h-16.5v26.4h16.5V494.1L1496.1,494.1z
				"/>
		</g>
	</g>
</g>
<g>
	<polygon fill="#FFFFFF" stroke="#C8C8C8" stroke-width="5.0949" stroke-miterlimit="10" points="1257.4,408.5 1257.4,388.6 
		1235.9,388.6 1235.9,380.8 1231.2,380.8 1231.2,388.6 1211.1,388.6 1211.1,408.5 1181,408.5 1181,388.6 1158.9,388.6 1158.9,380.8 
		1154.1,380.8 1154.1,388.6 1133.7,388.6 1133.7,408.5 1106.8,408.5 1106.8,527.2 1285.4,527.6 1285.4,408.5 	"/>
	<g>
		<g>
			
				<rect x="1134.3" y="424.3" fill="#FFFFFF" stroke="#C8C8C8" stroke-width="5.0949" stroke-miterlimit="10" width="15.8" height="12.2"/>
			
				<rect x="1165.2" y="424.3" fill="#FFFFFF" stroke="#C8C8C8" stroke-width="5.0949" stroke-miterlimit="10" width="15.8" height="12.2"/>
			
				<rect x="1134.3" y="446.6" fill="#FFFFFF" stroke="#C8C8C8" stroke-width="5.0949" stroke-miterlimit="10" width="15.8" height="12.2"/>
			
				<rect x="1165.2" y="446.6" fill="#FFFFFF" stroke="#C8C8C8" stroke-width="5.0949" stroke-miterlimit="10" width="15.8" height="12.2"/>
			
				<rect x="1134.3" y="469" fill="#FFFFFF" stroke="#C8C8C8" stroke-width="5.0949" stroke-miterlimit="10" width="15.8" height="12.2"/>
			
				<rect x="1165.2" y="469" fill="#FFFFFF" stroke="#C8C8C8" stroke-width="5.0949" stroke-miterlimit="10" width="15.8" height="12.2"/>
			
				<rect x="1134.3" y="491.3" fill="#FFFFFF" stroke="#C8C8C8" stroke-width="5.0949" stroke-miterlimit="10" width="15.8" height="12.2"/>
			
				<rect x="1165.2" y="491.3" fill="#FFFFFF" stroke="#C8C8C8" stroke-width="5.0949" stroke-miterlimit="10" width="15.8" height="12.2"/>
		</g>
		<g>
			
				<rect x="1211.1" y="424.3" fill="#FFFFFF" stroke="#C8C8C8" stroke-width="5.0949" stroke-miterlimit="10" width="15.8" height="12.2"/>
			
				<rect x="1241.9" y="424.3" fill="#FFFFFF" stroke="#C8C8C8" stroke-width="5.0949" stroke-miterlimit="10" width="15.8" height="12.2"/>
			
				<rect x="1211.1" y="446.6" fill="#FFFFFF" stroke="#C8C8C8" stroke-width="5.0949" stroke-miterlimit="10" width="15.8" height="12.2"/>
			
				<rect x="1241.9" y="446.6" fill="#FFFFFF" stroke="#C8C8C8" stroke-width="5.0949" stroke-miterlimit="10" width="15.8" height="12.2"/>
			
				<rect x="1211.1" y="469" fill="#FFFFFF" stroke="#C8C8C8" stroke-width="5.0949" stroke-miterlimit="10" width="15.8" height="12.2"/>
			
				<rect x="1241.9" y="469" fill="#FFFFFF" stroke="#C8C8C8" stroke-width="5.0949" stroke-miterlimit="10" width="15.8" height="12.2"/>
			
				<rect x="1211.1" y="491.3" fill="#FFFFFF" stroke="#C8C8C8" stroke-width="5.0949" stroke-miterlimit="10" width="15.8" height="12.2"/>
			
				<rect x="1241.9" y="491.3" fill="#FFFFFF" stroke="#C8C8C8" stroke-width="5.0949" stroke-miterlimit="10" width="15.8" height="12.2"/>
		</g>
	</g>
</g>
<g>
	<path fill="#FFFFFF" stroke="#B1F2D9" stroke-width="5.3682" stroke-miterlimit="10" d="M1098.5,491.4c0-5.6-3.3-10.5-8.1-12.8
		c-4.6-20.2-33.4-20.4-38.2-0.2c-5.6,2.5-8.4,7.6-8.4,12.8c-0.1,12.9,12,20.4,27,20.4C1086.5,511.6,1098.4,504.7,1098.5,491.4z"/>
	
		<line fill="#FFFFFF" stroke="#B1F2D9" stroke-width="5.3682" stroke-linecap="round" stroke-miterlimit="10" x1="1071.2" y1="484.6" x2="1071.2" y2="530.5"/>
	
		<line fill="#FFFFFF" stroke="#B1F2D9" stroke-width="5.3682" stroke-linecap="round" stroke-miterlimit="10" x1="1059.4" y1="498.4" x2="1070.4" y2="504.8"/>
	
		<line fill="#FFFFFF" stroke="#B1F2D9" stroke-width="5.3682" stroke-linecap="round" stroke-miterlimit="10" x1="1072.2" y1="498.2" x2="1082.2" y2="490.1"/>
</g>
<g>
	<path fill="#FFFFFF" stroke="#B1F2D9" stroke-width="5.3682" stroke-miterlimit="10" d="M1311,488c0-5.6-3.3-10.5-8.1-12.8
		c-4.6-20.2-33.4-20.4-38.2-0.2c-5.6,2.5-8.4,7.6-8.4,12.8c-0.1,12.9,12,20.4,27,20.4C1299,508.2,1310.9,501.2,1311,488z"/>
	
		<line fill="#FFFFFF" stroke="#B1F2D9" stroke-width="5.3682" stroke-linecap="round" stroke-miterlimit="10" x1="1283.7" y1="481.2" x2="1283.7" y2="527.1"/>
	
		<line fill="#FFFFFF" stroke="#B1F2D9" stroke-width="5.3682" stroke-linecap="round" stroke-miterlimit="10" x1="1271.9" y1="495" x2="1282.9" y2="501.4"/>
	
		<line fill="#FFFFFF" stroke="#B1F2D9" stroke-width="5.3682" stroke-linecap="round" stroke-miterlimit="10" x1="1284.7" y1="494.8" x2="1294.7" y2="486.7"/>
</g>
<g>
	<path fill="#FFFFFF" stroke="#B1F2D9" stroke-width="5.3682" stroke-miterlimit="10" d="M1360.5,502.6c0-3.8-2.2-7-5.4-8.5
		c-3.1-13.5-22.3-13.6-25.6-0.2c-3.8,1.7-5.6,5.1-5.7,8.6c0,8.6,8,13.6,18.1,13.7C1352.5,516.2,1360.5,511.5,1360.5,502.6z"/>
	
		<line fill="#FFFFFF" stroke="#B1F2D9" stroke-width="5.3682" stroke-linecap="round" stroke-miterlimit="10" x1="1342.2" y1="496.4" x2="1342.2" y2="527.1"/>
	
		<line fill="#FFFFFF" stroke="#B1F2D9" stroke-width="5.3682" stroke-linecap="round" stroke-miterlimit="10" x1="1334.4" y1="505.6" x2="1341.7" y2="509.9"/>
	
		<line fill="#FFFFFF" stroke="#B1F2D9" stroke-width="5.3682" stroke-linecap="round" stroke-miterlimit="10" x1="1342.9" y1="505.5" x2="1349.6" y2="500"/>
</g>
<path fill="#FFFFFF" stroke="#B1F2D9" stroke-width="5.3682" stroke-miterlimit="10" d="M1980.1,528.2c0-0.1,0-2.5,0-2.6
	c0-3.8-3.1-6.9-6.9-6.9c-0.1,0-0.2,0-0.4,0c-1.6-4.2-5.6-7.2-10.3-7.2c-1.4,0-2.8,0.3-4,0.8c-2-2-4.8-3.3-7.8-3.3
	c-4.8,0-8.9,3.2-10.5,7.7c0,0,0,0-0.1,0c-3.9,0-7.1,3.2-7.1,7.1c0,0.7,0.1,3.7,0.3,4.3H1980.1z"/>
<path fill="#FFFFFF" stroke="#B1F2D9" stroke-width="5.3682" stroke-miterlimit="10" d="M1166,527.1c0-0.1,0-0.2,0-0.4
	c0-5.6-4.5-10.1-10.1-10.1c-0.2,0-0.3,0-0.5,0.1c-2.3-6.1-8.2-10.5-15.1-10.5c-2.1,0-4,0.4-5.9,1.1c-3-3-7-4.8-11.4-4.8
	c-7.1,0-13.1,4.7-15.3,11.2c0,0-0.1,0-0.1,0c-5.8,0-10.5,4.7-10.5,10.5c0,1,0.2,2,0.5,2.9H1166z"/>
<g>
	<path fill="#FFFFFF" stroke="#B1F2D9" stroke-width="5.3682" stroke-miterlimit="10" d="M1902.6,484.3c0,12.8-7.2,21.7-16,21.7
		s-16-8.9-16-21.7c0-12.8,7.2-44.8,16-44.8S1902.6,471.4,1902.6,484.3z"/>
	
		<line fill="#FFFFFF" stroke="#B1F2D9" stroke-width="5.3682" stroke-linecap="round" stroke-linejoin="round" stroke-miterlimit="10" x1="1886.4" y1="467.1" x2="1886.4" y2="527.1"/>
</g>
<path fill="#FFFFFF" d="M413.5,441.2c1.1,0,2-0.9,2-2v-2.4h2.4c1.1,0,2-0.9,2-2s-0.9-2-2-2h-2.4v-2.4c0-1.1-0.9-2-2-2s-2,0.9-2,2
	v2.4h-2.4c-1.1,0-2,0.9-2,2s0.9,2,2,2h2.4v2.4C411.6,440.3,412.5,441.2,413.5,441.2z"/>
<g>
	<polygon fill="#FFFFFF" stroke="#C8C8C8" stroke-width="5.0949" stroke-miterlimit="10" points="-115.7,205.5 -97.2,205.5 
		-97.2,182.5 -85,182.5 -85,159 -63.6,96.8 -42.2,159 -42.2,182.5 -31,182.5 -31,205.5 -12.2,205.5 -12.2,532.5 -115.7,532.5 	"/>
	<g>
		<g>
			<rect x="-40.5" y="221" fill="#FFFFFF" width="0.5" height="236"/>
			<polygon opacity="0.51" fill="#C8C8C8" points="-43,218.4 -37.4,218.4 -37.4,459.5 -43,459.5 -43,218.4 			"/>
		</g>
		<g>
			<rect x="-56.3" y="221" fill="#FFFFFF" width="0.5" height="236"/>
			<polygon opacity="0.51" fill="#C8C8C8" points="-58.8,218.4 -53.3,218.4 -53.3,459.5 -58.8,459.5 -58.8,218.4 			"/>
		</g>
		<g>
			<rect x="-72.1" y="221" fill="#FFFFFF" width="0.5" height="236"/>
			<polygon opacity="0.51" fill="#C8C8C8" points="-74.6,218.4 -69.1,218.4 -69.1,459.5 -74.6,459.5 -74.6,218.4 			"/>
		</g>
		<g>
			<rect x="-87.9" y="221" fill="#FFFFFF" width="0.5" height="236"/>
			<polygon opacity="0.51" fill="#C8C8C8" points="-90.5,218.4 -84.9,218.4 -84.9,459.5 -90.5,459.5 -90.5,218.4 			"/>
		</g>
	</g>
</g>
<polygon fill="#FFFFFF" stroke="#C8C8C8" stroke-width="5.0949" stroke-miterlimit="10" points="-254.8,260 -254.8,226.6 
	-226.5,216.4 -226.5,190.6 -222.3,190.6 -222.3,214.9 -195.4,205.3 -195.4,238.6 -183.9,234.5 -183.9,463.8 -265.4,463.8 
	-265.4,263.8 "/>
<g>
	<polygon fill="#FFFFFF" stroke="#C8C8C8" stroke-width="5.3682" stroke-miterlimit="10" points="427.2,338.9 427.2,328.3 
		474,328.3 474,338.9 494,338.9 494,528.2 407.2,528.2 407.2,338.9 	"/>
	<g>
		<g>
			<rect x="467.1" y="363.5" fill="#FFFFFF" width="4.2" height="4.9"/>
			<polygon opacity="0.51" fill="#C8C8C8" points="464.5,360.8 474,360.8 474,371.1 464.5,371.1 464.5,360.8 			"/>
		</g>
		<g>
			<rect x="448.5" y="363.5" fill="#FFFFFF" width="4.2" height="4.9"/>
			<polygon opacity="0.51" fill="#C8C8C8" points="445.8,360.8 455.3,360.8 455.3,371.1 445.8,371.1 445.8,360.8 			"/>
		</g>
		<g>
			<rect x="429.9" y="363.5" fill="#FFFFFF" width="4.2" height="4.9"/>
			<polygon opacity="0.51" fill="#C8C8C8" points="427.2,360.8 436.7,360.8 436.7,371.1 427.2,371.1 427.2,360.8 			"/>
		</g>
		<g>
			<rect x="467.1" y="382.3" fill="#FFFFFF" width="4.2" height="4.9"/>
			<polygon opacity="0.51" fill="#C8C8C8" points="464.5,379.6 474,379.6 474,389.9 464.5,389.9 464.5,379.6 			"/>
		</g>
		<g>
			<rect x="448.5" y="382.3" fill="#FFFFFF" width="4.2" height="4.9"/>
			<polygon opacity="0.51" fill="#C8C8C8" points="445.8,379.6 455.3,379.6 455.3,389.9 445.8,389.9 445.8,379.6 			"/>
		</g>
		<g>
			<rect x="429.9" y="382.3" fill="#FFFFFF" width="4.2" height="4.9"/>
			<polygon opacity="0.51" fill="#C8C8C8" points="427.2,379.6 436.7,379.6 436.7,389.9 427.2,389.9 427.2,379.6 			"/>
		</g>
		<g>
			<rect x="467.1" y="401.1" fill="#FFFFFF" width="4.2" height="4.9"/>
			<polygon opacity="0.51" fill="#C8C8C8" points="464.5,398.4 474,398.4 474,408.7 464.5,408.7 464.5,398.4 			"/>
		</g>
		<g>
			<rect x="448.5" y="401.1" fill="#FFFFFF" width="4.2" height="4.9"/>
			<polygon opacity="0.51" fill="#C8C8C8" points="445.8,398.4 455.3,398.4 455.3,408.7 445.8,408.7 445.8,398.4 			"/>
		</g>
		<g>
			<rect x="429.9" y="401.1" fill="#FFFFFF" width="4.2" height="4.9"/>
			<polygon opacity="0.51" fill="#C8C8C8" points="427.2,398.4 436.7,398.4 436.7,408.7 427.2,408.7 427.2,398.4 			"/>
		</g>
		<g>
			<rect x="467.1" y="419.9" fill="#FFFFFF" width="4.2" height="4.9"/>
			<polygon opacity="0.51" fill="#C8C8C8" points="464.5,417.2 474,417.2 474,427.5 464.5,427.5 464.5,417.2 			"/>
		</g>
		<g>
			<rect x="448.5" y="419.9" fill="#FFFFFF" width="4.2" height="4.9"/>
			<polygon opacity="0.51" fill="#C8C8C8" points="445.8,417.2 455.3,417.2 455.3,427.5 445.8,427.5 445.8,417.2 			"/>
		</g>
		<g>
			<rect x="429.9" y="419.9" fill="#FFFFFF" width="4.2" height="4.9"/>
			<polygon opacity="0.51" fill="#C8C8C8" points="427.2,417.2 436.7,417.2 436.7,427.5 427.2,427.5 427.2,417.2 			"/>
		</g>
		<g>
			<rect x="467.1" y="438.7" fill="#FFFFFF" width="4.2" height="4.9"/>
			<polygon opacity="0.51" fill="#C8C8C8" points="464.5,436 474,436 474,446.3 464.5,446.3 464.5,436 			"/>
		</g>
		<g>
			<rect x="448.5" y="438.7" fill="#FFFFFF" width="4.2" height="4.9"/>
			<polygon opacity="0.51" fill="#C8C8C8" points="445.8,436 455.3,436 455.3,446.3 445.8,446.3 445.8,436 			"/>
		</g>
		<g>
			<rect x="429.9" y="438.7" fill="#FFFFFF" width="4.2" height="4.9"/>
			<polygon opacity="0.51" fill="#C8C8C8" points="427.2,436 436.7,436 436.7,446.3 427.2,446.3 427.2,436 			"/>
		</g>
		<g>
			<rect x="467.1" y="457.5" fill="#FFFFFF" width="4.2" height="4.9"/>
			<polygon opacity="0.51" fill="#C8C8C8" points="464.5,454.8 474,454.8 474,465.1 464.5,465.1 464.5,454.8 			"/>
		</g>
		<g>
			<rect x="448.5" y="457.5" fill="#FFFFFF" width="4.2" height="4.9"/>
			<polygon opacity="0.51" fill="#C8C8C8" points="445.8,454.8 455.3,454.8 455.3,465.1 445.8,465.1 445.8,454.8 			"/>
		</g>
		<g>
			<rect x="429.9" y="457.5" fill="#FFFFFF" width="4.2" height="4.9"/>
			<polygon opacity="0.51" fill="#C8C8C8" points="427.2,454.8 436.7,454.8 436.7,465.1 427.2,465.1 427.2,454.8 			"/>
		</g>
	</g>
</g>
<g>
	<polygon fill="#FFFFFF" stroke="#C8C8C8" stroke-width="5.0949" stroke-miterlimit="10" points="144.2,326.9 144.2,308.7 
		162.4,308.7 162.4,297.2 172.6,297.2 172.6,283.8 177.2,283.8 177.2,297.2 185.7,297.2 185.7,283.8 190.3,283.8 190.3,297.2 
		198.6,297.2 198.6,308.7 216.8,308.7 216.8,326.9 227.7,326.9 227.7,529.1 133.3,529.1 133.3,326.9 	"/>
	<g>
		
			<rect x="153.7" y="336.7" fill="#FFFFFF" stroke="#C8C8C8" stroke-width="5.0949" stroke-miterlimit="10" width="53.6" height="8.4"/>
		
			<rect x="153.7" y="358.7" fill="#FFFFFF" stroke="#C8C8C8" stroke-width="5.0949" stroke-miterlimit="10" width="53.6" height="8.4"/>
		
			<rect x="153.7" y="380.6" fill="#FFFFFF" stroke="#C8C8C8" stroke-width="5.0949" stroke-miterlimit="10" width="53.6" height="8.4"/>
		
			<rect x="153.7" y="402.6" fill="#FFFFFF" stroke="#C8C8C8" stroke-width="5.0949" stroke-miterlimit="10" width="53.6" height="8.4"/>
		
			<rect x="153.7" y="424.5" fill="#FFFFFF" stroke="#C8C8C8" stroke-width="5.0949" stroke-miterlimit="10" width="53.6" height="8.4"/>
		
			<rect x="153.7" y="446.5" fill="#FFFFFF" stroke="#C8C8C8" stroke-width="5.0949" stroke-miterlimit="10" width="53.6" height="8.4"/>
		
			<rect x="153.7" y="468.5" fill="#FFFFFF" stroke="#C8C8C8" stroke-width="5.0949" stroke-miterlimit="10" width="53.6" height="8.4"/>
		
			<rect x="153.7" y="490.4" fill="#FFFFFF" stroke="#C8C8C8" stroke-width="5.0949" stroke-miterlimit="10" width="53.6" height="8.4"/>
	</g>
</g>
<g>
	<polygon fill="#FFFFFF" stroke="#C8C8C8" stroke-width="5.0949" stroke-miterlimit="10" points="-402.1,157.2 -402.1,137.1 
		-389.4,137.1 -389.4,118.5 -380,118.5 -380,103 -374,103 -374,86.3 -360.4,86.3 -360.4,51.1 -356.3,51.1 -356.3,86.3 -342.8,86.3 
		-342.8,103 -336.7,103 -336.7,118.5 -327.3,118.5 -327.3,137.1 -314.6,137.1 -314.6,157.2 -301.4,157.2 -301.4,530.3 -415.3,530.3 
		-415.3,157.2 	"/>
	<g>
		<g>
			<rect x="-330.6" y="160.6" fill="#FFFFFF" width="2.4" height="224.5"/>
			<polygon opacity="0.51" fill="#C8C8C8" points="-333.1,158 -325.6,158 -325.6,387.6 -333.1,387.6 -333.1,158 			"/>
		</g>
		<g>
			<rect x="-349.9" y="160.6" fill="#FFFFFF" width="2.4" height="224.5"/>
			<polygon opacity="0.51" fill="#C8C8C8" points="-352.5,158 -344.9,158 -344.9,387.6 -352.5,387.6 -352.5,158 			"/>
		</g>
		<g>
			<rect x="-369.3" y="160.6" fill="#FFFFFF" width="2.4" height="224.5"/>
			<polygon opacity="0.51" fill="#C8C8C8" points="-371.8,158 -364.3,158 -364.3,387.6 -371.8,387.6 -371.8,158 			"/>
		</g>
		<g>
			<rect x="-388.6" y="160.6" fill="#FFFFFF" width="2.4" height="224.5"/>
			<polygon opacity="0.51" fill="#C8C8C8" points="-391.2,158 -383.6,158 -383.6,387.6 -391.2,387.6 -391.2,158 			"/>
		</g>
	</g>
</g>
<g>
	<polygon fill="#FFFFFF" stroke="#C8C8C8" stroke-width="5.3682" stroke-miterlimit="10" points="-411,306.4 -411,284.3 
		-391.8,284.3 -391.8,270.3 -369.1,270.3 -369.1,284.3 -349.9,284.3 -349.9,306.4 -340.7,306.4 -340.7,529.8 -420.2,529.8 
		-420.2,306.4 	"/>
	<g>
		<g>
			<rect x="-362.3" y="319.1" fill="#FFFFFF" width="3.6" height="4.4"/>
			<polygon opacity="0.51" fill="#C8C8C8" points="-365,316.4 -356,316.4 -356,326.2 -365,326.2 -365,316.4 			"/>
		</g>
		<g>
			<rect x="-382.2" y="319.1" fill="#FFFFFF" width="3.6" height="4.4"/>
			<polygon opacity="0.51" fill="#C8C8C8" points="-384.9,316.4 -375.9,316.4 -375.9,326.2 -384.9,326.2 -384.9,316.4 			"/>
		</g>
		<g>
			<rect x="-402.1" y="319.1" fill="#FFFFFF" width="3.6" height="4.4"/>
			<polygon opacity="0.51" fill="#C8C8C8" points="-404.8,316.4 -395.8,316.4 -395.8,326.2 -404.8,326.2 -404.8,316.4 			"/>
		</g>
		<g>
			<rect x="-362.3" y="336.9" fill="#FFFFFF" width="3.6" height="4.4"/>
			<polygon opacity="0.51" fill="#C8C8C8" points="-365,334.2 -356,334.2 -356,344 -365,344 -365,334.2 			"/>
		</g>
		<g>
			<rect x="-382.2" y="336.9" fill="#FFFFFF" width="3.6" height="4.4"/>
			<polygon opacity="0.51" fill="#C8C8C8" points="-384.9,334.2 -375.9,334.2 -375.9,344 -384.9,344 -384.9,334.2 			"/>
		</g>
		<g>
			<rect x="-402.1" y="336.9" fill="#FFFFFF" width="3.6" height="4.4"/>
			<polygon opacity="0.51" fill="#C8C8C8" points="-404.8,334.2 -395.8,334.2 -395.8,344 -404.8,344 -404.8,334.2 			"/>
		</g>
		<g>
			<rect x="-362.3" y="354.7" fill="#FFFFFF" width="3.6" height="4.4"/>
			<polygon opacity="0.51" fill="#C8C8C8" points="-365,352.1 -356,352.1 -356,361.8 -365,361.8 -365,352.1 			"/>
		</g>
		<g>
			<rect x="-382.2" y="354.7" fill="#FFFFFF" width="3.6" height="4.4"/>
			<polygon opacity="0.51" fill="#C8C8C8" points="-384.9,352.1 -375.9,352.1 -375.9,361.8 -384.9,361.8 -384.9,352.1 			"/>
		</g>
		<g>
			<rect x="-402.1" y="354.7" fill="#FFFFFF" width="3.6" height="4.4"/>
			<polygon opacity="0.51" fill="#C8C8C8" points="-404.8,352.1 -395.8,352.1 -395.8,361.8 -404.8,361.8 -404.8,352.1 			"/>
		</g>
		<g>
			<rect x="-362.3" y="372.6" fill="#FFFFFF" width="3.6" height="4.4"/>
			<polygon opacity="0.51" fill="#C8C8C8" points="-365,369.9 -356,369.9 -356,379.7 -365,379.7 -365,369.9 			"/>
		</g>
		<g>
			<rect x="-382.2" y="372.6" fill="#FFFFFF" width="3.6" height="4.4"/>
			<polygon opacity="0.51" fill="#C8C8C8" points="-384.9,369.9 -375.9,369.9 -375.9,379.7 -384.9,379.7 -384.9,369.9 			"/>
		</g>
		<g>
			<rect x="-402.1" y="372.6" fill="#FFFFFF" width="3.6" height="4.4"/>
			<polygon opacity="0.51" fill="#C8C8C8" points="-404.8,369.9 -395.8,369.9 -395.8,379.7 -404.8,379.7 -404.8,369.9 			"/>
		</g>
		<g>
			<rect x="-362.3" y="390.4" fill="#FFFFFF" width="3.6" height="4.4"/>
			<polygon opacity="0.51" fill="#C8C8C8" points="-365,387.7 -356,387.7 -356,397.5 -365,397.5 -365,387.7 			"/>
		</g>
		<g>
			<rect x="-382.2" y="390.4" fill="#FFFFFF" width="3.6" height="4.4"/>
			<polygon opacity="0.51" fill="#C8C8C8" points="-384.9,387.7 -375.9,387.7 -375.9,397.5 -384.9,397.5 -384.9,387.7 			"/>
		</g>
		<g>
			<rect x="-402.1" y="390.4" fill="#FFFFFF" width="3.6" height="4.4"/>
			<polygon opacity="0.51" fill="#C8C8C8" points="-404.8,387.7 -395.8,387.7 -395.8,397.5 -404.8,397.5 -404.8,387.7 			"/>
		</g>
		<g>
			<rect x="-362.3" y="408.2" fill="#FFFFFF" width="3.6" height="4.4"/>
			<polygon opacity="0.51" fill="#C8C8C8" points="-365,405.5 -356,405.5 -356,415.3 -365,415.3 -365,405.5 			"/>
		</g>
		<g>
			<rect x="-382.2" y="408.2" fill="#FFFFFF" width="3.6" height="4.4"/>
			<polygon opacity="0.51" fill="#C8C8C8" points="-384.9,405.5 -375.9,405.5 -375.9,415.3 -384.9,415.3 -384.9,405.5 			"/>
		</g>
		<g>
			<rect x="-402.1" y="408.2" fill="#FFFFFF" width="3.6" height="4.4"/>
			<polygon opacity="0.51" fill="#C8C8C8" points="-404.8,405.5 -395.8,405.5 -395.8,415.3 -404.8,415.3 -404.8,405.5 			"/>
		</g>
		<g>
			<rect x="-362.3" y="426.1" fill="#FFFFFF" width="3.6" height="4.4"/>
			<polygon opacity="0.51" fill="#C8C8C8" points="-365,423.4 -356,423.4 -356,433.1 -365,433.1 -365,423.4 			"/>
		</g>
		<g>
			<rect x="-382.2" y="426.1" fill="#FFFFFF" width="3.6" height="4.4"/>
			<polygon opacity="0.51" fill="#C8C8C8" points="-384.9,423.4 -375.9,423.4 -375.9,433.1 -384.9,433.1 -384.9,423.4 			"/>
		</g>
		<g>
			<rect x="-402.1" y="426.1" fill="#FFFFFF" width="3.6" height="4.4"/>
			<polygon opacity="0.51" fill="#C8C8C8" points="-404.8,423.4 -395.8,423.4 -395.8,433.1 -404.8,433.1 -404.8,423.4 			"/>
		</g>
		<g>
			<rect x="-362.3" y="443.9" fill="#FFFFFF" width="3.6" height="4.4"/>
			<polygon opacity="0.51" fill="#C8C8C8" points="-365,441.2 -356,441.2 -356,451 -365,451 -365,441.2 			"/>
		</g>
		<g>
			<rect x="-382.2" y="443.9" fill="#FFFFFF" width="3.6" height="4.4"/>
			<polygon opacity="0.51" fill="#C8C8C8" points="-384.9,441.2 -375.9,441.2 -375.9,451 -384.9,451 -384.9,441.2 			"/>
		</g>
		<g>
			<rect x="-402.1" y="443.9" fill="#FFFFFF" width="3.6" height="4.4"/>
			<polygon opacity="0.51" fill="#C8C8C8" points="-404.8,441.2 -395.8,441.2 -395.8,451 -404.8,451 -404.8,441.2 			"/>
		</g>
		<g>
			<rect x="-362.3" y="461.7" fill="#FFFFFF" width="3.6" height="4.4"/>
			<polygon opacity="0.51" fill="#C8C8C8" points="-365,459 -356,459 -356,468.8 -365,468.8 -365,459 			"/>
		</g>
		<g>
			<rect x="-382.2" y="461.7" fill="#FFFFFF" width="3.6" height="4.4"/>
			<polygon opacity="0.51" fill="#C8C8C8" points="-384.9,459 -375.9,459 -375.9,468.8 -384.9,468.8 -384.9,459 			"/>
		</g>
		<g>
			<rect x="-402.1" y="461.7" fill="#FFFFFF" width="3.6" height="4.4"/>
			<polygon opacity="0.51" fill="#C8C8C8" points="-404.8,459 -395.8,459 -395.8,468.8 -404.8,468.8 -404.8,459 			"/>
		</g>
		<g>
			<rect x="-362.3" y="479.5" fill="#FFFFFF" width="3.6" height="4.4"/>
			<polygon opacity="0.51" fill="#C8C8C8" points="-365,476.9 -356,476.9 -356,486.6 -365,486.6 -365,476.9 			"/>
		</g>
		<g>
			<rect x="-382.2" y="479.5" fill="#FFFFFF" width="3.6" height="4.4"/>
			<polygon opacity="0.51" fill="#C8C8C8" points="-384.9,476.9 -375.9,476.9 -375.9,486.6 -384.9,486.6 -384.9,476.9 			"/>
		</g>
		<g>
			<rect x="-402.1" y="479.5" fill="#FFFFFF" width="3.6" height="4.4"/>
			<polygon opacity="0.51" fill="#C8C8C8" points="-404.8,476.9 -395.8,476.9 -395.8,486.6 -404.8,486.6 -404.8,476.9 			"/>
		</g>
	</g>
</g>
<g>
	<polygon fill="#FFFFFF" stroke="#C8C8C8" stroke-width="5.0949" stroke-miterlimit="10" points="-107.7,365.8 -143.6,365.8 
		-143.6,343.7 -196,343.7 -196,365.8 -229.3,365.8 -229.3,343.7 -280.9,343.7 -280.6,365.8 -317.2,365.8 -317.2,530.2 -107.7,529.7 
			"/>
	<g>
		<g>
			<rect x="-159.2" y="382.1" fill="#FFFFFF" width="12.4" height="8.4"/>
			<path opacity="0.51" fill="#C8C8C8" d="M-156.7,384.6h7.3v3.3h-7.3V384.6 M-161.8,379.5V393h17.5v-13.5H-161.8L-161.8,379.5z"/>
		</g>
		<g>
			<rect x="-193.4" y="382.1" fill="#FFFFFF" width="12.4" height="8.4"/>
			<path opacity="0.51" fill="#C8C8C8" d="M-190.8,384.6h7.3v3.3h-7.3V384.6 M-195.9,379.5V393h17.5v-13.5H-195.9L-195.9,379.5z"/>
		</g>
		<g>
			<rect x="-159.2" y="406.8" fill="#FFFFFF" width="12.4" height="8.4"/>
			<path opacity="0.51" fill="#C8C8C8" d="M-156.7,409.4h7.3v3.3h-7.3V409.4 M-161.8,404.3v13.5h17.5v-13.5H-161.8L-161.8,404.3z"/>
		</g>
		<g>
			<rect x="-193.4" y="406.8" fill="#FFFFFF" width="12.4" height="8.4"/>
			<path opacity="0.51" fill="#C8C8C8" d="M-190.8,409.4h7.3v3.3h-7.3V409.4 M-195.9,404.3v13.5h17.5v-13.5H-195.9L-195.9,404.3z"/>
		</g>
		<g>
			<rect x="-159.2" y="431.6" fill="#FFFFFF" width="12.4" height="8.4"/>
			<path opacity="0.51" fill="#C8C8C8" d="M-156.7,434.1h7.3v3.3h-7.3V434.1 M-161.8,429v13.5h17.5V429H-161.8L-161.8,429z"/>
		</g>
		<g>
			<rect x="-193.4" y="431.6" fill="#FFFFFF" width="12.4" height="8.4"/>
			<path opacity="0.51" fill="#C8C8C8" d="M-190.8,434.1h7.3v3.3h-7.3V434.1 M-195.9,429v13.5h17.5V429H-195.9L-195.9,429z"/>
		</g>
		<g>
			<rect x="-159.2" y="456.3" fill="#FFFFFF" width="12.4" height="8.4"/>
			<path opacity="0.51" fill="#C8C8C8" d="M-156.7,458.9h7.3v3.3h-7.3V458.9 M-161.8,453.8v13.5h17.5v-13.5H-161.8L-161.8,453.8z"/>
		</g>
		<g>
			<rect x="-193.4" y="456.3" fill="#FFFFFF" width="12.4" height="8.4"/>
			<path opacity="0.51" fill="#C8C8C8" d="M-190.8,458.9h7.3v3.3h-7.3V458.9 M-195.9,453.8v13.5h17.5v-13.5H-195.9L-195.9,453.8z"/>
		</g>
		<g>
			<rect x="-159.2" y="481.1" fill="#FFFFFF" width="12.4" height="8.4"/>
			<path opacity="0.51" fill="#C8C8C8" d="M-156.7,483.6h7.3v3.3h-7.3V483.6 M-161.8,478.5V492h17.5v-13.5H-161.8L-161.8,478.5z"/>
		</g>
		<g>
			<rect x="-193.4" y="481.1" fill="#FFFFFF" width="12.4" height="8.4"/>
			<path opacity="0.51" fill="#C8C8C8" d="M-190.8,483.6h7.3v3.3h-7.3V483.6 M-195.9,478.5V492h17.5v-13.5H-195.9L-195.9,478.5z"/>
		</g>
		<g>
			<rect x="-159.2" y="505.8" fill="#FFFFFF" width="12.4" height="8.4"/>
			<path opacity="0.51" fill="#C8C8C8" d="M-156.7,508.3h7.3v3.3h-7.3V508.3 M-161.8,503.3v13.5h17.5v-13.5H-161.8L-161.8,503.3z"/>
		</g>
		<g>
			<rect x="-193.4" y="505.8" fill="#FFFFFF" width="12.4" height="8.4"/>
			<path opacity="0.51" fill="#C8C8C8" d="M-190.8,508.3h7.3v3.3h-7.3V508.3 M-195.9,503.3v13.5h17.5v-13.5H-195.9L-195.9,503.3z"/>
		</g>
	</g>
	<g>
		<g>
			<rect x="-244.2" y="382.1" fill="#FFFFFF" width="12.4" height="8.4"/>
			<path opacity="0.51" fill="#C8C8C8" d="M-241.7,384.6h7.3v3.3h-7.3V384.6 M-246.8,379.5V393h17.5v-13.5H-246.8L-246.8,379.5z"/>
		</g>
		<g>
			<rect x="-278.4" y="382.1" fill="#FFFFFF" width="12.4" height="8.4"/>
			<path opacity="0.51" fill="#C8C8C8" d="M-275.8,384.6h7.3v3.3h-7.3V384.6 M-280.9,379.5V393h17.5v-13.5H-280.9L-280.9,379.5z"/>
		</g>
		<g>
			<rect x="-244.2" y="406.8" fill="#FFFFFF" width="12.4" height="8.4"/>
			<path opacity="0.51" fill="#C8C8C8" d="M-241.7,409.4h7.3v3.3h-7.3V409.4 M-246.8,404.3v13.5h17.5v-13.5H-246.8L-246.8,404.3z"/>
		</g>
		<g>
			<rect x="-278.4" y="406.8" fill="#FFFFFF" width="12.4" height="8.4"/>
			<path opacity="0.51" fill="#C8C8C8" d="M-275.8,409.4h7.3v3.3h-7.3V409.4 M-280.9,404.3v13.5h17.5v-13.5H-280.9L-280.9,404.3z"/>
		</g>
		<g>
			<rect x="-244.2" y="431.6" fill="#FFFFFF" width="12.4" height="8.4"/>
			<path opacity="0.51" fill="#C8C8C8" d="M-241.7,434.1h7.3v3.3h-7.3V434.1 M-246.8,429v13.5h17.5V429H-246.8L-246.8,429z"/>
		</g>
		<g>
			<rect x="-278.4" y="431.6" fill="#FFFFFF" width="12.4" height="8.4"/>
			<path opacity="0.51" fill="#C8C8C8" d="M-275.8,434.1h7.3v3.3h-7.3V434.1 M-280.9,429v13.5h17.5V429H-280.9L-280.9,429z"/>
		</g>
		<g>
			<rect x="-244.2" y="456.3" fill="#FFFFFF" width="12.4" height="8.4"/>
			<path opacity="0.51" fill="#C8C8C8" d="M-241.7,458.9h7.3v3.3h-7.3V458.9 M-246.8,453.8v13.5h17.5v-13.5H-246.8L-246.8,453.8z"/>
		</g>
		<g>
			<rect x="-278.4" y="456.3" fill="#FFFFFF" width="12.4" height="8.4"/>
			<path opacity="0.51" fill="#C8C8C8" d="M-275.8,458.9h7.3v3.3h-7.3V458.9 M-280.9,453.8v13.5h17.5v-13.5H-280.9L-280.9,453.8z"/>
		</g>
		<g>
			<rect x="-244.2" y="481.1" fill="#FFFFFF" width="12.4" height="8.4"/>
			<path opacity="0.51" fill="#C8C8C8" d="M-241.7,483.6h7.3v3.3h-7.3V483.6 M-246.8,478.5V492h17.5v-13.5H-246.8L-246.8,478.5z"/>
		</g>
		<g>
			<rect x="-278.4" y="481.1" fill="#FFFFFF" width="12.4" height="8.4"/>
			<path opacity="0.51" fill="#C8C8C8" d="M-275.8,483.6h7.3v3.3h-7.3V483.6 M-280.9,478.5V492h17.5v-13.5H-280.9L-280.9,478.5z"/>
		</g>
		<g>
			<rect x="-244.2" y="505.8" fill="#FFFFFF" width="12.4" height="8.4"/>
			<path opacity="0.51" fill="#C8C8C8" d="M-241.7,508.3h7.3v3.3h-7.3V508.3 M-246.8,503.3v13.5h17.5v-13.5H-246.8L-246.8,503.3z"/>
		</g>
		<g>
			<rect x="-278.4" y="505.8" fill="#FFFFFF" width="12.4" height="8.4"/>
			<path opacity="0.51" fill="#C8C8C8" d="M-275.8,508.3h7.3v3.3h-7.3V508.3 M-280.9,503.3v13.5h17.5v-13.5H-280.9L-280.9,503.3z"/>
		</g>
	</g>
</g>
<g>
	<polygon fill="#FFFFFF" stroke="#C8C8C8" stroke-width="5.7127" stroke-miterlimit="10" points="556.6,465.2 556.6,447.4 
		564.1,447.4 564.1,462 591.2,450.4 644.9,475.2 644.9,528.2 533.3,528.2 533.3,475.2 	"/>
	
		<rect x="581.3" y="490.1" fill="#FFFFFF" stroke="#C8C8C8" stroke-width="5.7127" stroke-miterlimit="10" width="15.8" height="25.2"/>
	
		<rect x="546" y="490.1" fill="#FFFFFF" stroke="#C8C8C8" stroke-width="5.7127" stroke-miterlimit="10" width="25.6" height="25.2"/>
	
		<rect x="606.7" y="490.1" fill="#FFFFFF" stroke="#C8C8C8" stroke-width="5.7127" stroke-miterlimit="10" width="25.6" height="25.2"/>
</g>
<polygon fill="#FFFFFF" stroke="#C8C8C8" stroke-width="5.7127" stroke-miterlimit="10" points="287.8,465.2 287.8,447.4 
	295.3,447.4 295.3,462 322.4,450.4 376.2,475.2 376.2,528.2 264.5,528.2 264.5,475.2 "/>
<rect x="284.1" y="490.1" fill="#FFFFFF" stroke="#C8C8C8" stroke-width="5.7127" stroke-miterlimit="10" width="25.6" height="25.2"/>
<rect x="329.5" y="490.1" fill="#FFFFFF" stroke="#C8C8C8" stroke-width="5.7127" stroke-miterlimit="10" width="25.6" height="25.2"/>
<g>
	<polygon fill="#FFFFFF" stroke="#C8C8C8" stroke-width="5.7127" stroke-miterlimit="10" points="30.9,465.2 30.9,447.4 38.4,447.4 
		38.4,462 65.5,450.4 119.2,475.2 119.2,528.2 7.5,528.2 7.5,475.2 	"/>
	
		<rect x="55.5" y="490.1" fill="#FFFFFF" stroke="#C8C8C8" stroke-width="5.7127" stroke-miterlimit="10" width="15.8" height="25.2"/>
	
		<rect x="20.2" y="490.1" fill="#FFFFFF" stroke="#C8C8C8" stroke-width="5.7127" stroke-miterlimit="10" width="25.6" height="25.2"/>
	
		<rect x="80.9" y="490.1" fill="#FFFFFF" stroke="#C8C8C8" stroke-width="5.7127" stroke-miterlimit="10" width="25.6" height="25.2"/>
</g>
<polygon fill="#FFFFFF" stroke="#C8C8C8" stroke-width="5.7127" stroke-miterlimit="10" points="1626.2,465.2 1626.2,447.4 
	1633.7,447.4 1633.7,462 1660.8,450.4 1714.5,475.2 1714.5,528.2 1602.9,528.2 1602.9,475.2 "/>
<rect x="1621.7" y="490.1" fill="#FFFFFF" stroke="#C8C8C8" stroke-width="5.7127" stroke-miterlimit="10" width="25.6" height="25.2"/>
<rect x="1670.1" y="490.1" fill="#FFFFFF" stroke="#C8C8C8" stroke-width="5.7127" stroke-miterlimit="10" width="25.6" height="25.2"/>
<g>
	<polygon fill="#FFFFFF" stroke="#C8C8C8" stroke-width="5.7127" stroke-miterlimit="10" points="1770.3,465.2 1770.3,447.4 
		1777.8,447.4 1777.8,462 1804.9,450.4 1858.6,475.2 1858.6,528.2 1746.9,528.2 1746.9,475.2 	"/>
	
		<rect x="1794.9" y="490.1" fill="#FFFFFF" stroke="#C8C8C8" stroke-width="5.7127" stroke-miterlimit="10" width="15.8" height="25.2"/>
	
		<rect x="1759.6" y="490.1" fill="#FFFFFF" stroke="#C8C8C8" stroke-width="5.7127" stroke-miterlimit="10" width="25.6" height="25.2"/>
	
		<rect x="1820.3" y="490.1" fill="#FFFFFF" stroke="#C8C8C8" stroke-width="5.7127" stroke-miterlimit="10" width="25.6" height="25.2"/>
</g>
<g>
	<polygon fill="#FFFFFF" stroke="#C8C8C8" stroke-width="5.0949" stroke-miterlimit="10" points="-148.8,432.7 -148.8,419.8 
		-127,419.8 -127,398.8 -124.2,398.8 -124.2,419.8 -102.9,419.8 -102.9,432.7 -33.5,432.7 -33.5,449.2 -39,449.2 -39,529 -213,529 
		-213,449.2 -218.3,449.2 -218.3,432.7 	"/>
	<g>
		<g>
			<g>
				
					<rect x="-69.3" y="461.6" fill="none" stroke="#C8C8C8" stroke-width="5.0949" stroke-miterlimit="10" width="10.6" height="10.6"/>
				
					<rect x="-69.3" y="481" fill="none" stroke="#C8C8C8" stroke-width="5.0949" stroke-miterlimit="10" width="10.6" height="10.6"/>
				
					<rect x="-69.3" y="500.5" fill="none" stroke="#C8C8C8" stroke-width="5.0949" stroke-miterlimit="10" width="10.6" height="10.6"/>
			</g>
			<g>
				
					<rect x="-94" y="461.6" fill="none" stroke="#C8C8C8" stroke-width="5.0949" stroke-miterlimit="10" width="10.6" height="10.6"/>
				<rect x="-94" y="481" fill="none" stroke="#C8C8C8" stroke-width="5.0949" stroke-miterlimit="10" width="10.6" height="10.6"/>
				
					<rect x="-94" y="500.5" fill="none" stroke="#C8C8C8" stroke-width="5.0949" stroke-miterlimit="10" width="10.6" height="10.6"/>
			</g>
			<g>
				
					<rect x="-168.3" y="461.6" fill="none" stroke="#C8C8C8" stroke-width="5.0949" stroke-miterlimit="10" width="10.6" height="10.6"/>
				
					<rect x="-168.3" y="481" fill="none" stroke="#C8C8C8" stroke-width="5.0949" stroke-miterlimit="10" width="10.6" height="10.6"/>
				
					<rect x="-168.3" y="500.5" fill="none" stroke="#C8C8C8" stroke-width="5.0949" stroke-miterlimit="10" width="10.6" height="10.6"/>
			</g>
			<g>
				
					<rect x="-118.8" y="461.6" fill="none" stroke="#C8C8C8" stroke-width="5.0949" stroke-miterlimit="10" width="10.6" height="10.6"/>
				
					<rect x="-118.8" y="481" fill="none" stroke="#C8C8C8" stroke-width="5.0949" stroke-miterlimit="10" width="10.6" height="10.6"/>
				
					<rect x="-118.8" y="500.5" fill="none" stroke="#C8C8C8" stroke-width="5.0949" stroke-miterlimit="10" width="10.6" height="10.6"/>
			</g>
			<g>
				
					<rect x="-143.6" y="461.6" fill="none" stroke="#C8C8C8" stroke-width="5.0949" stroke-miterlimit="10" width="10.6" height="10.6"/>
				
					<rect x="-143.6" y="481" fill="none" stroke="#C8C8C8" stroke-width="5.0949" stroke-miterlimit="10" width="10.6" height="10.6"/>
				
					<rect x="-143.6" y="500.5" fill="none" stroke="#C8C8C8" stroke-width="5.0949" stroke-miterlimit="10" width="10.6" height="10.6"/>
			</g>
			<g>
				
					<rect x="-193.1" y="461.6" fill="none" stroke="#C8C8C8" stroke-width="5.0949" stroke-miterlimit="10" width="10.6" height="10.6"/>
				
					<rect x="-193.1" y="481" fill="none" stroke="#C8C8C8" stroke-width="5.0949" stroke-miterlimit="10" width="10.6" height="10.6"/>
				
					<rect x="-193.1" y="500.5" fill="none" stroke="#C8C8C8" stroke-width="5.0949" stroke-miterlimit="10" width="10.6" height="10.6"/>
			</g>
		</g>
	</g>
</g>
<path fill="#FFFFFF" stroke="#B1F2D9" stroke-width="5.0949" stroke-miterlimit="10" d="M-51.7,527.1c0-0.1,0-0.2,0-0.3
	c0-3.9,3.1-7,7-7c0.1,0,0.2,0,0.4,0c1.6-4.3,5.7-7.3,10.5-7.3c1.4,0,2.8,0.3,4.1,0.8c2-2.1,4.8-3.3,7.9-3.3c4.9,0,9.1,3.3,10.6,7.8
	c0,0,0,0,0.1,0c4,0,7.3,3.3,7.3,7.3c0,0.7-0.1,1.4-0.3,2H-51.7z"/>
<g>
	<path fill="#FFFFFF" stroke="#B1F2D9" stroke-width="5.3682" stroke-miterlimit="10" d="M472,491.4c0-5.6,3.3-10.5,8.1-12.8
		c4.6-20.2,33.4-20.4,38.2-0.2c5.6,2.5,8.4,7.6,8.4,12.8c0.1,12.9-12,20.4-27,20.4C484,511.6,472,504.7,472,491.4z"/>
	
		<line fill="#FFFFFF" stroke="#B1F2D9" stroke-width="5.3682" stroke-linecap="round" stroke-miterlimit="10" x1="499.3" y1="484.6" x2="499.3" y2="530.5"/>
	
		<line fill="#FFFFFF" stroke="#B1F2D9" stroke-width="5.3682" stroke-linecap="round" stroke-miterlimit="10" x1="511" y1="498.4" x2="500" y2="504.8"/>
	
		<line fill="#FFFFFF" stroke="#B1F2D9" stroke-width="5.3682" stroke-linecap="round" stroke-miterlimit="10" x1="498.2" y1="498.2" x2="488.3" y2="490.1"/>
</g>
<g>
	<path fill="#FFFFFF" stroke="#B1F2D9" stroke-width="5.3682" stroke-miterlimit="10" d="M199.4,488c0-5.6,3.3-10.5,8.1-12.8
		c4.6-20.2,33.4-20.4,38.2-0.2c5.6,2.5,8.4,7.6,8.4,12.8c0.1,12.9-12,20.4-27,20.4C211.4,508.2,199.4,501.2,199.4,488z"/>
	
		<line fill="#FFFFFF" stroke="#B1F2D9" stroke-width="5.3682" stroke-linecap="round" stroke-miterlimit="10" x1="226.7" y1="481.2" x2="226.7" y2="527.1"/>
	
		<line fill="#FFFFFF" stroke="#B1F2D9" stroke-width="5.3682" stroke-linecap="round" stroke-miterlimit="10" x1="238.4" y1="495" x2="227.4" y2="501.4"/>
	
		<line fill="#FFFFFF" stroke="#B1F2D9" stroke-width="5.3682" stroke-linecap="round" stroke-miterlimit="10" x1="225.6" y1="494.8" x2="215.7" y2="486.7"/>
</g>
<g>
	<path fill="#FFFFFF" stroke="#B1F2D9" stroke-width="5.3682" stroke-miterlimit="10" d="M131,502.6c0-3.8,2.2-7,5.4-8.5
		c3.1-13.5,22.3-13.6,25.6-0.2c3.8,1.7,5.6,5.1,5.7,8.6c0,8.6-8,13.6-18.1,13.7C139,516.2,131,511.5,131,502.6z"/>
	
		<line fill="#FFFFFF" stroke="#B1F2D9" stroke-width="5.3682" stroke-linecap="round" stroke-miterlimit="10" x1="149.3" y1="496.4" x2="149.3" y2="527.1"/>
	
		<line fill="#FFFFFF" stroke="#B1F2D9" stroke-width="5.3682" stroke-linecap="round" stroke-miterlimit="10" x1="157.1" y1="505.6" x2="149.7" y2="509.9"/>
	
		<line fill="#FFFFFF" stroke="#B1F2D9" stroke-width="5.3682" stroke-linecap="round" stroke-miterlimit="10" x1="148.6" y1="505.5" x2="141.9" y2="500"/>
</g>
<path fill="#FFFFFF" stroke="#B1F2D9" stroke-width="5.3682" stroke-miterlimit="10" d="M-409.7,528.2c0-0.1,0-2.5,0-2.6
	c0-3.8,3.1-6.9,6.9-6.9c0.1,0,0.2,0,0.4,0c1.6-4.2,5.6-7.2,10.3-7.2c1.4,0,2.8,0.3,4,0.8c2-2,4.8-3.3,7.8-3.3
	c4.8,0,8.9,3.2,10.5,7.7c0,0,0,0,0.1,0c3.9,0,7.1,3.2,7.1,7.1c0,0.7-0.1,3.7-0.3,4.3H-409.7z"/>
<path fill="#FFFFFF" stroke="#B1F2D9" stroke-width="5.3682" stroke-miterlimit="10" d="M386.1,527.1c0-0.1,0-0.2,0-0.4
	c0-5.6,4.5-10.1,10.1-10.1c0.2,0,0.3,0,0.5,0.1c2.3-6.1,8.2-10.5,15.1-10.5c2.1,0,4,0.4,5.9,1.1c3-3,7-4.8,11.4-4.8
	c7.1,0,13.1,4.7,15.3,11.2c0,0,0.1,0,0.1,0c5.8,0,10.5,4.7,10.5,10.5c0,1-0.2,2-0.5,2.9H386.1z"/>
<g>
	<path fill="#FFFFFF" stroke="#B1F2D9" stroke-width="5.3682" stroke-miterlimit="10" d="M-332.1,484.3c0,12.8,7.2,21.7,16,21.7
		c8.8,0,16-8.9,16-21.7c0-12.8-7.2-44.8-16-44.8C-324.9,439.5-332.1,471.4-332.1,484.3z"/>
	
		<line fill="#FFFFFF" stroke="#B1F2D9" stroke-width="5.3682" stroke-linecap="round" stroke-linejoin="round" stroke-miterlimit="10" x1="-316" y1="467.1" x2="-316" y2="527.1"/>
</g>
<g>
	<path fill="#FFFFFF" stroke="#B1F2D9" stroke-width="5.3682" stroke-miterlimit="10" d="M-364.3,492.6c0,10.1,5.6,17,12.5,17
		c6.9,0,12.5-7,12.5-17c0-10.1-5.6-35.1-12.5-35.1C-358.7,457.6-364.3,482.6-364.3,492.6z"/>
	
		<line fill="#FFFFFF" stroke="#B1F2D9" stroke-width="5.3682" stroke-linecap="round" stroke-linejoin="round" stroke-miterlimit="10" x1="-351.7" y1="479.2" x2="-351.7" y2="527.1"/>
</g>
<g>
	<g>
		<path fill="#34E3AB" d="M1546.3,153.6c0,5.9-3.9,7-5.3,15.1c-0.2,1.1-1.1,1.8-2.2,1.8h-3.4h-3.4c-1.1,0-2-0.8-2.2-1.8
			c-1.4-8.1-5.3-9.2-5.3-15.1c0-6,5-10.8,10.9-10.8C1541.4,142.8,1546.3,147.6,1546.3,153.6z M1540.2,173.2c0,0.6-0.4,1-1,1h-7.7
			c-0.6,0-1-0.4-1-1c0-0.6,0.4-1,1-1h7.7C1539.8,172.2,1540.2,172.6,1540.2,173.2z M1540.2,176.7c0,0.6-0.4,1-1,1h-7.7
			c-0.6,0-1-0.4-1-1c0-0.6,0.4-1,1-1h7.7C1539.8,175.7,1540.2,176.2,1540.2,176.7z M1532.4,179.3h6l-1.7,2h-2.7L1532.4,179.3z"/>
	</g>
	<g transform="translate(0,-952.36218)">
		<path fill="#34E3AB" stroke="#34E3AB" stroke-width="1.8331" stroke-miterlimit="10" d="M1535.4,1086.6c-10.4,0-19.8,3.1-26.7,8.2
			c-6.9,5.1-11.2,12.1-11.2,20c0,10,7,18.6,17.3,23.6v14.3c0,0.6,0.5,1.1,1.1,1.1c0.2,0,0.5-0.1,0.7-0.2l14.9-10.6h4
			c10.4,0,19.8-3.1,26.7-8.2c6.9-5.1,11.2-12.1,11.2-20c0-7.9-4.4-14.9-11.2-20C1555.2,1089.7,1545.8,1086.6,1535.4,1086.6z
			 M1535.4,1088.8c10,0,18.9,3,25.4,7.7c6.5,4.7,10.4,11.2,10.4,18.3c0,7.1-3.9,13.5-10.4,18.3s-15.4,7.7-25.4,7.7h-4.3
			c-0.2,0-0.5,0.1-0.6,0.2l-13.4,9.6v-12.9c0-0.4-0.3-0.8-0.6-1c-10.1-4.7-16.7-12.8-16.7-22c0-7.1,3.9-13.5,10.4-18.3
			C1516.5,1091.8,1525.5,1088.8,1535.4,1088.8z"/>
	</g>
</g>
<g>
	<g transform="translate(0,-952.36218)">
		<path fill="#34E3AB" stroke="#34E3AB" stroke-width="1.8331" stroke-miterlimit="10" d="M189.3,1136.7c-10.4,0-19.8,3.1-26.7,8.2
			c-6.9,5.1-11.2,12.1-11.2,20c0,10,7,18.6,17.3,23.6v14.3c0,0.6,0.5,1.1,1.1,1.1c0.2,0,0.5-0.1,0.7-0.2l14.9-10.6h4
			c10.4,0,19.8-3.1,26.7-8.2s11.2-12.1,11.2-20c0-7.9-4.4-14.9-11.2-20C209.1,1139.8,199.7,1136.7,189.3,1136.7z M189.3,1138.9
			c10,0,18.9,3,25.4,7.7c6.5,4.7,10.4,11.2,10.4,18.3c0,7.1-3.9,13.5-10.4,18.3s-15.4,7.7-25.4,7.7H185c-0.2,0-0.5,0.1-0.6,0.2
			l-13.4,9.6v-12.9c0-0.4-0.3-0.8-0.6-1c-10.1-4.7-16.7-12.8-16.7-22c0-7.1,3.9-13.5,10.4-18.3
			C170.4,1141.8,179.3,1138.9,189.3,1138.9z"/>
	</g>
	<path fill="#34E3AB" d="M203.5,216.8c2.9-2.4,4.3-5.8,4.3-9.2c0-0.6-0.7-0.9-1.2-0.6l-5.2,4.3c-0.2,0.1-0.4,0.2-0.6,0.2l-7.3-1.6
		c-0.3-0.1-0.6-0.4-0.6-0.7l-0.3-7.6c0-0.2,0.1-0.5,0.3-0.6l5.2-4.3c0.5-0.4,0.3-1.2-0.4-1.3c-3.4-0.5-7,0.3-9.9,2.7
		c-3.3,2.8-4.8,6.9-4.2,10.8c0,0.5-0.1,1-0.5,1.3L170,221.4c-0.3,0.3-0.4,0.8-0.1,1l6.6,7.9c0.3,0.3,0.8,0.4,1,0.1l13.2-11.1
		c0.3-0.3,0.9-0.4,1.4-0.3C195.9,220.2,200.3,219.5,203.5,216.8z"/>
</g>
<g>
	<g transform="translate(0,-952.36218)">
		<path fill="#34E3AB" stroke="#34E3AB" stroke-width="1.8331" stroke-miterlimit="10" d="M983.1,1305.8c-10.4,0-19.8,3.1-26.7,8.2
			c-6.9,5.1-11.2,12.1-11.2,20c0,10,7,18.6,17.3,23.6v14.3c0,0.6,0.5,1.1,1.1,1.1c0.2,0,0.5-0.1,0.7-0.2l14.9-10.6h4
			c10.4,0,19.8-3.1,26.7-8.2c6.9-5.1,11.2-12.1,11.2-20c0-7.9-4.4-14.9-11.2-20C1002.9,1308.9,993.5,1305.8,983.1,1305.8z
			 M983.1,1308c10,0,18.9,3,25.4,7.7c6.5,4.7,10.4,11.2,10.4,18.3c0,7.1-3.9,13.5-10.4,18.3c-6.5,4.7-15.4,7.7-25.4,7.7h-4.3
			c-0.2,0-0.5,0.1-0.6,0.2l-13.4,9.6v-12.9c0-0.4-0.3-0.8-0.6-1c-10.1-4.7-16.7-12.8-16.7-22c0-7.1,3.9-13.5,10.4-18.3
			C964.2,1310.9,973.1,1308,983.1,1308z"/>
	</g>
	<g>
		<path fill="#34E3AB" d="M991.1,396.2c-4.5,0-8.2-3.7-8.2-8.2c0-5.9,7.3-11.9,7.6-12.1l0.5-0.4l0.5,0.4c0.3,0.3,7.6,6.2,7.6,12.1
			C999.2,392.6,995.6,396.2,991.1,396.2z"/>
	</g>
	<g>
		<path fill="#34E3AB" d="M975.1,385.8c-4.5,0-8.2-3.7-8.2-8.2c0-5.9,7.3-11.9,7.6-12.1l0.5-0.4l0.5,0.4c0.3,0.3,7.6,6.2,7.6,12.1
			C983.2,382.2,979.6,385.8,975.1,385.8z"/>
	</g>
</g>
<path fill="#C8C8C8" stroke="#C8C8C8" stroke-width="6.1105" stroke-miterlimit="10" d="M-423.9,533.2h2433.3c3,0,5.4-0.9,5.4-2
	c0-1.1-2.4-2-5.4-2H-423.9c-3,0-5.4,0.9-5.4,2C-429.4,532.3-426.9,533.2-423.9,533.2z"/>
</svg>
