<?xml version="1.0" encoding="utf-8"?>
<!-- Generator: Adobe Illustrator 18.1.1, SVG Export Plug-In . SVG Version: 6.00 Build 0)  -->
<svg version="1.1" id="Layer_1" xmlns="http://www.w3.org/2000/svg" xmlns:xlink="http://www.w3.org/1999/xlink" x="0px" y="0px"
	 viewBox="0 0 800 238.5" enable-background="new 0 0 800 238.5" xml:space="preserve">
<path fill="#FFFFFF" d="M519.2,209.4c-0.4,0-0.7-0.3-0.7-0.7V208h-0.8c-0.4,0-0.7-0.3-0.7-0.7c0-0.4,0.3-0.7,0.7-0.7h0.8v-0.8
	c0-0.4,0.3-0.7,0.7-0.7c0.4,0,0.7,0.3,0.7,0.7v0.8h0.8c0.4,0,0.7,0.3,0.7,0.7c0,0.4-0.3,0.7-0.7,0.7h-0.8v0.8
	C519.8,209.1,519.6,209.4,519.2,209.4z"/>
<g>
	<polygon fill="#FFFFFF" stroke="#C8C8C8" stroke-width="1.7571" stroke-miterlimit="10" points="573.3,175.9 573.3,172.4 
		558,172.4 558,175.9 551.4,175.9 551.4,237.8 579.8,237.8 579.8,175.9 	"/>
	<g>
		<g>
			<rect x="558.9" y="183.9" fill="#FFFFFF" width="1.4" height="1.6"/>
			<polygon opacity="0.51" fill="#C8C8C8" points="561.1,183.1 558,183.1 558,186.4 561.1,186.4 561.1,183.1 			"/>
		</g>
		<g>
			<rect x="565" y="183.9" fill="#FFFFFF" width="1.4" height="1.6"/>
			<polygon opacity="0.51" fill="#C8C8C8" points="567.2,183.1 564.1,183.1 564.1,186.4 567.2,186.4 567.2,183.1 			"/>
		</g>
		<g>
			<rect x="571" y="183.9" fill="#FFFFFF" width="1.4" height="1.6"/>
			<polygon opacity="0.51" fill="#C8C8C8" points="573.3,183.1 570.2,183.1 570.2,186.4 573.3,186.4 573.3,183.1 			"/>
		</g>
		<g>
			<rect x="558.9" y="190.1" fill="#FFFFFF" width="1.4" height="1.6"/>
			<polygon opacity="0.51" fill="#C8C8C8" points="561.1,189.2 558,189.2 558,192.6 561.1,192.6 561.1,189.2 			"/>
		</g>
		<g>
			<rect x="565" y="190.1" fill="#FFFFFF" width="1.4" height="1.6"/>
			<polygon opacity="0.51" fill="#C8C8C8" points="567.2,189.2 564.1,189.2 564.1,192.6 567.2,192.6 567.2,189.2 			"/>
		</g>
		<g>
			<rect x="571" y="190.1" fill="#FFFFFF" width="1.4" height="1.6"/>
			<polygon opacity="0.51" fill="#C8C8C8" points="573.3,189.2 570.2,189.2 570.2,192.6 573.3,192.6 573.3,189.2 			"/>
		</g>
		<g>
			<rect x="558.9" y="196.2" fill="#FFFFFF" width="1.4" height="1.6"/>
			<polygon opacity="0.51" fill="#C8C8C8" points="561.1,195.4 558,195.4 558,198.7 561.1,198.7 561.1,195.4 			"/>
		</g>
		<g>
			<rect x="565" y="196.2" fill="#FFFFFF" width="1.4" height="1.6"/>
			<polygon opacity="0.51" fill="#C8C8C8" points="567.2,195.4 564.1,195.4 564.1,198.7 567.2,198.7 567.2,195.4 			"/>
		</g>
		<g>
			<rect x="571" y="196.2" fill="#FFFFFF" width="1.4" height="1.6"/>
			<polygon opacity="0.51" fill="#C8C8C8" points="573.3,195.4 570.2,195.4 570.2,198.7 573.3,198.7 573.3,195.4 			"/>
		</g>
		<g>
			<rect x="558.9" y="202.4" fill="#FFFFFF" width="1.4" height="1.6"/>
			<polygon opacity="0.51" fill="#C8C8C8" points="561.1,201.5 558,201.5 558,204.9 561.1,204.9 561.1,201.5 			"/>
		</g>
		<g>
			<rect x="565" y="202.4" fill="#FFFFFF" width="1.4" height="1.6"/>
			<polygon opacity="0.51" fill="#C8C8C8" points="567.2,201.5 564.1,201.5 564.1,204.9 567.2,204.9 567.2,201.5 			"/>
		</g>
		<g>
			<rect x="571" y="202.4" fill="#FFFFFF" width="1.4" height="1.6"/>
			<polygon opacity="0.51" fill="#C8C8C8" points="573.3,201.5 570.2,201.5 570.2,204.9 573.3,204.9 573.3,201.5 			"/>
		</g>
		<g>
			<rect x="558.9" y="208.6" fill="#FFFFFF" width="1.4" height="1.6"/>
			<polygon opacity="0.51" fill="#C8C8C8" points="561.1,207.7 558,207.7 558,211 561.1,211 561.1,207.7 			"/>
		</g>
		<g>
			<rect x="565" y="208.6" fill="#FFFFFF" width="1.4" height="1.6"/>
			<polygon opacity="0.51" fill="#C8C8C8" points="567.2,207.7 564.1,207.7 564.1,211 567.2,211 567.2,207.7 			"/>
		</g>
		<g>
			<rect x="571" y="208.6" fill="#FFFFFF" width="1.4" height="1.6"/>
			<polygon opacity="0.51" fill="#C8C8C8" points="573.3,207.7 570.2,207.7 570.2,211 573.3,211 573.3,207.7 			"/>
		</g>
		<g>
			<rect x="558.9" y="214.7" fill="#FFFFFF" width="1.4" height="1.6"/>
			<polygon opacity="0.51" fill="#C8C8C8" points="561.1,213.8 558,213.8 558,217.2 561.1,217.2 561.1,213.8 			"/>
		</g>
		<g>
			<rect x="565" y="214.7" fill="#FFFFFF" width="1.4" height="1.6"/>
			<polygon opacity="0.51" fill="#C8C8C8" points="567.2,213.8 564.1,213.8 564.1,217.2 567.2,217.2 567.2,213.8 			"/>
		</g>
		<g>
			<rect x="571" y="214.7" fill="#FFFFFF" width="1.4" height="1.6"/>
			<polygon opacity="0.51" fill="#C8C8C8" points="573.3,213.8 570.2,213.8 570.2,217.2 573.3,217.2 573.3,213.8 			"/>
		</g>
	</g>
</g>
<g>
	<polygon fill="#FFFFFF" stroke="#C8C8C8" stroke-width="1.6676" stroke-miterlimit="10" points="786.2,116.4 786.2,109.8 
		782,109.8 782,103.8 778.9,103.8 778.9,98.7 777,98.7 777,93.2 772.5,93.2 772.5,81.7 771.2,81.7 771.2,93.2 766.7,93.2 
		766.7,98.7 764.8,98.7 764.8,103.8 761.7,103.8 761.7,109.8 757.5,109.8 757.5,116.4 753.2,116.4 753.2,238.5 790.5,238.5 
		790.5,116.4 	"/>
	<g>
		<g>
			<rect x="762" y="117.5" fill="#FFFFFF" width="0.8" height="73.5"/>
			<polygon opacity="0.51" fill="#C8C8C8" points="763.6,116.7 761.1,116.7 761.1,191.8 763.6,191.8 763.6,116.7 			"/>
		</g>
		<g>
			<rect x="768.3" y="117.5" fill="#FFFFFF" width="0.8" height="73.5"/>
			<polygon opacity="0.51" fill="#C8C8C8" points="769.9,116.7 767.5,116.7 767.5,191.8 769.9,191.8 769.9,116.7 			"/>
		</g>
		<g>
			<rect x="774.6" y="117.5" fill="#FFFFFF" width="0.8" height="73.5"/>
			<polygon opacity="0.51" fill="#C8C8C8" points="776.3,116.7 773.8,116.7 773.8,191.8 776.3,191.8 776.3,116.7 			"/>
		</g>
		<g>
			<rect x="781" y="117.5" fill="#FFFFFF" width="0.8" height="73.5"/>
			<polygon opacity="0.51" fill="#C8C8C8" points="782.6,116.7 780.1,116.7 780.1,191.8 782.6,191.8 782.6,116.7 			"/>
		</g>
	</g>
</g>
<g>
	<polygon fill="#FFFFFF" stroke="#C8C8C8" stroke-width="1.7571" stroke-miterlimit="10" points="789.1,165.2 789.1,158 782.8,158 
		782.8,153.5 775.4,153.5 775.4,158 769.1,158 769.1,165.2 766.1,165.2 766.1,238.4 792.1,238.4 792.1,165.2 	"/>
	<g>
		<g>
			<rect x="772" y="169.4" fill="#FFFFFF" width="1.2" height="1.4"/>
			<polygon opacity="0.51" fill="#C8C8C8" points="774,168.5 771.1,168.5 771.1,171.7 774,171.7 774,168.5 			"/>
		</g>
		<g>
			<rect x="778.5" y="169.4" fill="#FFFFFF" width="1.2" height="1.4"/>
			<polygon opacity="0.51" fill="#C8C8C8" points="780.5,168.5 777.6,168.5 777.6,171.7 780.5,171.7 780.5,168.5 			"/>
		</g>
		<g>
			<rect x="785" y="169.4" fill="#FFFFFF" width="1.2" height="1.4"/>
			<polygon opacity="0.51" fill="#C8C8C8" points="787,168.5 784.1,168.5 784.1,171.7 787,171.7 787,168.5 			"/>
		</g>
		<g>
			<rect x="772" y="175.2" fill="#FFFFFF" width="1.2" height="1.4"/>
			<polygon opacity="0.51" fill="#C8C8C8" points="774,174.4 771.1,174.4 771.1,177.6 774,177.6 774,174.4 			"/>
		</g>
		<g>
			<rect x="778.5" y="175.2" fill="#FFFFFF" width="1.2" height="1.4"/>
			<polygon opacity="0.51" fill="#C8C8C8" points="780.5,174.4 777.6,174.4 777.6,177.6 780.5,177.6 780.5,174.4 			"/>
		</g>
		<g>
			<rect x="785" y="175.2" fill="#FFFFFF" width="1.2" height="1.4"/>
			<polygon opacity="0.51" fill="#C8C8C8" points="787,174.4 784.1,174.4 784.1,177.6 787,177.6 787,174.4 			"/>
		</g>
		<g>
			<rect x="772" y="181.1" fill="#FFFFFF" width="1.2" height="1.4"/>
			<polygon opacity="0.51" fill="#C8C8C8" points="774,180.2 771.1,180.2 771.1,183.4 774,183.4 774,180.2 			"/>
		</g>
		<g>
			<rect x="778.5" y="181.1" fill="#FFFFFF" width="1.2" height="1.4"/>
			<polygon opacity="0.51" fill="#C8C8C8" points="780.5,180.2 777.6,180.2 777.6,183.4 780.5,183.4 780.5,180.2 			"/>
		</g>
		<g>
			<rect x="785" y="181.1" fill="#FFFFFF" width="1.2" height="1.4"/>
			<polygon opacity="0.51" fill="#C8C8C8" points="787,180.2 784.1,180.2 784.1,183.4 787,183.4 787,180.2 			"/>
		</g>
		<g>
			<rect x="772" y="186.9" fill="#FFFFFF" width="1.2" height="1.4"/>
			<polygon opacity="0.51" fill="#C8C8C8" points="774,186 771.1,186 771.1,189.2 774,189.2 774,186 			"/>
		</g>
		<g>
			<rect x="778.5" y="186.9" fill="#FFFFFF" width="1.2" height="1.4"/>
			<polygon opacity="0.51" fill="#C8C8C8" points="780.5,186 777.6,186 777.6,189.2 780.5,189.2 780.5,186 			"/>
		</g>
		<g>
			<rect x="785" y="186.9" fill="#FFFFFF" width="1.2" height="1.4"/>
			<polygon opacity="0.51" fill="#C8C8C8" points="787,186 784.1,186 784.1,189.2 787,189.2 787,186 			"/>
		</g>
		<g>
			<rect x="772" y="192.7" fill="#FFFFFF" width="1.2" height="1.4"/>
			<polygon opacity="0.51" fill="#C8C8C8" points="774,191.9 771.1,191.9 771.1,195.1 774,195.1 774,191.9 			"/>
		</g>
		<g>
			<rect x="778.5" y="192.7" fill="#FFFFFF" width="1.2" height="1.4"/>
			<polygon opacity="0.51" fill="#C8C8C8" points="780.5,191.9 777.6,191.9 777.6,195.1 780.5,195.1 780.5,191.9 			"/>
		</g>
		<g>
			<rect x="785" y="192.7" fill="#FFFFFF" width="1.2" height="1.4"/>
			<polygon opacity="0.51" fill="#C8C8C8" points="787,191.9 784.1,191.9 784.1,195.1 787,195.1 787,191.9 			"/>
		</g>
		<g>
			<rect x="772" y="198.6" fill="#FFFFFF" width="1.2" height="1.4"/>
			<polygon opacity="0.51" fill="#C8C8C8" points="774,197.7 771.1,197.7 771.1,200.9 774,200.9 774,197.7 			"/>
		</g>
		<g>
			<rect x="778.5" y="198.6" fill="#FFFFFF" width="1.2" height="1.4"/>
			<polygon opacity="0.51" fill="#C8C8C8" points="780.5,197.7 777.6,197.7 777.6,200.9 780.5,200.9 780.5,197.7 			"/>
		</g>
		<g>
			<rect x="785" y="198.6" fill="#FFFFFF" width="1.2" height="1.4"/>
			<polygon opacity="0.51" fill="#C8C8C8" points="787,197.7 784.1,197.7 784.1,200.9 787,200.9 787,197.7 			"/>
		</g>
		<g>
			<rect x="772" y="204.4" fill="#FFFFFF" width="1.2" height="1.4"/>
			<polygon opacity="0.51" fill="#C8C8C8" points="774,203.5 771.1,203.5 771.1,206.7 774,206.7 774,203.5 			"/>
		</g>
		<g>
			<rect x="778.5" y="204.4" fill="#FFFFFF" width="1.2" height="1.4"/>
			<polygon opacity="0.51" fill="#C8C8C8" points="780.5,203.5 777.6,203.5 777.6,206.7 780.5,206.7 780.5,203.5 			"/>
		</g>
		<g>
			<rect x="785" y="204.4" fill="#FFFFFF" width="1.2" height="1.4"/>
			<polygon opacity="0.51" fill="#C8C8C8" points="787,203.5 784.1,203.5 784.1,206.7 787,206.7 787,203.5 			"/>
		</g>
		<g>
			<rect x="772" y="210.3" fill="#FFFFFF" width="1.2" height="1.4"/>
			<polygon opacity="0.51" fill="#C8C8C8" points="774,209.4 771.1,209.4 771.1,212.6 774,212.6 774,209.4 			"/>
		</g>
		<g>
			<rect x="778.5" y="210.3" fill="#FFFFFF" width="1.2" height="1.4"/>
			<polygon opacity="0.51" fill="#C8C8C8" points="780.5,209.4 777.6,209.4 777.6,212.6 780.5,212.6 780.5,209.4 			"/>
		</g>
		<g>
			<rect x="785" y="210.3" fill="#FFFFFF" width="1.2" height="1.4"/>
			<polygon opacity="0.51" fill="#C8C8C8" points="787,209.4 784.1,209.4 784.1,212.6 787,212.6 787,209.4 			"/>
		</g>
		<g>
			<rect x="772" y="216.1" fill="#FFFFFF" width="1.2" height="1.4"/>
			<polygon opacity="0.51" fill="#C8C8C8" points="774,215.2 771.1,215.2 771.1,218.4 774,218.4 774,215.2 			"/>
		</g>
		<g>
			<rect x="778.5" y="216.1" fill="#FFFFFF" width="1.2" height="1.4"/>
			<polygon opacity="0.51" fill="#C8C8C8" points="780.5,215.2 777.6,215.2 777.6,218.4 780.5,218.4 780.5,215.2 			"/>
		</g>
		<g>
			<rect x="785" y="216.1" fill="#FFFFFF" width="1.2" height="1.4"/>
			<polygon opacity="0.51" fill="#C8C8C8" points="787,215.2 784.1,215.2 784.1,218.4 787,218.4 787,215.2 			"/>
		</g>
		<g>
			<rect x="772" y="221.9" fill="#FFFFFF" width="1.2" height="1.4"/>
			<polygon opacity="0.51" fill="#C8C8C8" points="774,221 771.1,221 771.1,224.2 774,224.2 774,221 			"/>
		</g>
		<g>
			<rect x="778.5" y="221.9" fill="#FFFFFF" width="1.2" height="1.4"/>
			<polygon opacity="0.51" fill="#C8C8C8" points="780.5,221 777.6,221 777.6,224.2 780.5,224.2 780.5,221 			"/>
		</g>
		<g>
			<rect x="785" y="221.9" fill="#FFFFFF" width="1.2" height="1.4"/>
			<polygon opacity="0.51" fill="#C8C8C8" points="787,221 784.1,221 784.1,224.2 787,224.2 787,221 			"/>
		</g>
	</g>
</g>
<g>
	<g>
		<polygon fill="#FFFFFF" stroke="#C8C8C8" stroke-width="1.7571" stroke-miterlimit="10" points="712.3,238.4 695.4,238.4 
			695.4,135.3 712.3,146 		"/>
		<g>
			<g>
				<rect x="699.3" y="151.8" fill="#FFFFFF" width="9.5" height="0.7"/>
				<polygon opacity="0.51" fill="#C8C8C8" points="709.7,151 698.4,151 698.4,153.4 709.7,153.4 709.7,151 				"/>
			</g>
			<g>
				<rect x="699.3" y="157.8" fill="#FFFFFF" width="9.5" height="0.7"/>
				<polygon opacity="0.51" fill="#C8C8C8" points="709.7,156.9 698.4,156.9 698.4,159.3 709.7,159.3 709.7,156.9 				"/>
			</g>
			<g>
				<rect x="699.3" y="163.8" fill="#FFFFFF" width="9.5" height="0.7"/>
				<polygon opacity="0.51" fill="#C8C8C8" points="709.7,162.9 698.4,162.9 698.4,165.3 709.7,165.3 709.7,162.9 				"/>
			</g>
			<g>
				<rect x="699.3" y="169.8" fill="#FFFFFF" width="9.5" height="0.7"/>
				<polygon opacity="0.51" fill="#C8C8C8" points="709.7,168.9 698.4,168.9 698.4,171.3 709.7,171.3 709.7,168.9 				"/>
			</g>
			<g>
				<rect x="699.3" y="175.7" fill="#FFFFFF" width="9.5" height="0.7"/>
				<polygon opacity="0.51" fill="#C8C8C8" points="709.7,174.9 698.4,174.9 698.4,177.3 709.7,177.3 709.7,174.9 				"/>
			</g>
			<g>
				<rect x="699.3" y="181.7" fill="#FFFFFF" width="9.5" height="0.7"/>
				<polygon opacity="0.51" fill="#C8C8C8" points="709.7,180.8 698.4,180.8 698.4,183.3 709.7,183.3 709.7,180.8 				"/>
			</g>
		</g>
		<g>
			<g>
				<rect x="699.3" y="187.3" fill="#FFFFFF" width="9.5" height="0.7"/>
				<polygon opacity="0.51" fill="#C8C8C8" points="709.7,186.4 698.4,186.4 698.4,188.8 709.7,188.8 709.7,186.4 				"/>
			</g>
			<g>
				<rect x="699.3" y="193.3" fill="#FFFFFF" width="9.5" height="0.7"/>
				<polygon opacity="0.51" fill="#C8C8C8" points="709.7,192.4 698.4,192.4 698.4,194.8 709.7,194.8 709.7,192.4 				"/>
			</g>
			<g>
				<rect x="699.3" y="199.3" fill="#FFFFFF" width="9.5" height="0.7"/>
				<polygon opacity="0.51" fill="#C8C8C8" points="709.7,198.4 698.4,198.4 698.4,200.8 709.7,200.8 709.7,198.4 				"/>
			</g>
			<g>
				<rect x="699.3" y="205.2" fill="#FFFFFF" width="9.5" height="0.7"/>
				<polygon opacity="0.51" fill="#C8C8C8" points="709.7,204.4 698.4,204.4 698.4,206.8 709.7,206.8 709.7,204.4 				"/>
			</g>
			<g>
				<rect x="699.3" y="211.2" fill="#FFFFFF" width="9.5" height="0.7"/>
				<polygon opacity="0.51" fill="#C8C8C8" points="709.7,210.3 698.4,210.3 698.4,212.8 709.7,212.8 709.7,210.3 				"/>
			</g>
			<g>
				<rect x="699.3" y="217.2" fill="#FFFFFF" width="9.5" height="0.7"/>
				<polygon opacity="0.51" fill="#C8C8C8" points="709.7,216.3 698.4,216.3 698.4,218.7 709.7,218.7 709.7,216.3 				"/>
			</g>
		</g>
	</g>
	<polygon fill="#FFFFFF" stroke="#C8C8C8" stroke-width="1.7571" stroke-miterlimit="10" points="707.5,238.4 723,238.4 723,155.1 
		707.5,164.4 	"/>
</g>
<g>
	<g>
		<polygon fill="#FFFFFF" stroke="#C8C8C8" stroke-width="1.6676" stroke-miterlimit="10" points="662.2,167.3 662.2,158 660.3,158 
			660.3,154.1 658.9,154.1 658.9,152.9 655.9,152.9 655.9,154.1 654.9,154.1 654.9,152.9 651.9,152.9 651.9,154.1 651.1,154.1 
			651.1,152.9 647.9,152.9 647.9,154.1 646.7,154.1 646.7,158 641.9,158 641.9,154.1 638.2,154.1 638.2,145.7 637,145.7 637,154.1 
			634.1,154.1 634.1,145.7 632.9,145.7 632.9,154.1 628.2,154.1 628.2,158 625.8,158 625.8,167.3 619.1,167.3 619.1,238 668.3,238 
			668.3,167.3 		"/>
	</g>
	<g>
		<g>
			<rect x="626.7" y="176.3" fill="#FFFFFF" width="15" height="0.9"/>
			<polygon opacity="0.51" fill="#C8C8C8" points="642.6,175.5 625.9,175.5 625.9,178.1 642.6,178.1 642.6,175.5 			"/>
		</g>
		<g>
			<rect x="646.2" y="176.3" fill="#FFFFFF" width="15.1" height="0.9"/>
			<polygon opacity="0.51" fill="#C8C8C8" points="662.1,175.5 645.4,175.5 645.4,178.1 662.1,178.1 662.1,175.5 			"/>
		</g>
		<g>
			<rect x="626.7" y="183.2" fill="#FFFFFF" width="15" height="0.9"/>
			<polygon opacity="0.51" fill="#C8C8C8" points="642.6,182.4 625.9,182.4 625.9,185 642.6,185 642.6,182.4 			"/>
		</g>
		<g>
			<rect x="646.2" y="183.2" fill="#FFFFFF" width="15.1" height="0.9"/>
			<polygon opacity="0.51" fill="#C8C8C8" points="662.1,182.4 645.4,182.4 645.4,185 662.1,185 662.1,182.4 			"/>
		</g>
		<g>
			<rect x="626.7" y="190.1" fill="#FFFFFF" width="15" height="1"/>
			<polygon opacity="0.51" fill="#C8C8C8" points="642.6,189.3 625.9,189.3 625.9,191.9 642.6,191.9 642.6,189.3 			"/>
		</g>
		<g>
			<rect x="646.2" y="190.1" fill="#FFFFFF" width="15.1" height="1"/>
			<polygon opacity="0.51" fill="#C8C8C8" points="662.1,189.3 645.4,189.3 645.4,191.9 662.1,191.9 662.1,189.3 			"/>
		</g>
		<g>
			<rect x="626.7" y="197" fill="#FFFFFF" width="15" height="0.9"/>
			<polygon opacity="0.51" fill="#C8C8C8" points="642.6,196.2 625.9,196.2 625.9,198.8 642.6,198.8 642.6,196.2 			"/>
		</g>
		<g>
			<rect x="646.2" y="197" fill="#FFFFFF" width="15.1" height="0.9"/>
			<polygon opacity="0.51" fill="#C8C8C8" points="662.1,196.2 645.4,196.2 645.4,198.8 662.1,198.8 662.1,196.2 			"/>
		</g>
		<g>
			<rect x="626.7" y="203.9" fill="#FFFFFF" width="15" height="0.9"/>
			<polygon opacity="0.51" fill="#C8C8C8" points="642.6,203 625.9,203 625.9,205.7 642.6,205.7 642.6,203 			"/>
		</g>
		<g>
			<rect x="646.2" y="203.9" fill="#FFFFFF" width="15.1" height="0.9"/>
			<polygon opacity="0.51" fill="#C8C8C8" points="662.1,203 645.4,203 645.4,205.7 662.1,205.7 662.1,203 			"/>
		</g>
		<g>
			<rect x="626.7" y="210.8" fill="#FFFFFF" width="15" height="0.9"/>
			<polygon opacity="0.51" fill="#C8C8C8" points="642.6,209.9 625.9,209.9 625.9,212.5 642.6,212.5 642.6,209.9 			"/>
		</g>
		<g>
			<rect x="646.2" y="210.8" fill="#FFFFFF" width="15.1" height="0.9"/>
			<polygon opacity="0.51" fill="#C8C8C8" points="662.1,209.9 645.4,209.9 645.4,212.5 662.1,212.5 662.1,209.9 			"/>
		</g>
		<g>
			<rect x="626.7" y="217.6" fill="#FFFFFF" width="15" height="1"/>
			<polygon opacity="0.51" fill="#C8C8C8" points="642.6,216.8 625.9,216.8 625.9,219.4 642.6,219.4 642.6,216.8 			"/>
		</g>
		<g>
			<rect x="646.2" y="217.6" fill="#FFFFFF" width="15.1" height="1"/>
			<polygon opacity="0.51" fill="#C8C8C8" points="662.1,216.8 645.4,216.8 645.4,219.4 662.1,219.4 662.1,216.8 			"/>
		</g>
	</g>
</g>
<g>
	<polygon fill="#FFFFFF" stroke="#C8C8C8" stroke-width="1.6676" stroke-miterlimit="10" points="808,189.7 781.7,189.7 
		781.7,194.7 783.3,194.7 783.3,238.2 806.8,238.2 806.8,194.7 808,194.7 	"/>
	<g>
		<g>
			<rect x="789.1" y="198" fill="#FFFFFF" width="1.1" height="1.1"/>
			<polygon opacity="0.51" fill="#C8C8C8" points="791.1,197.2 788.3,197.2 788.3,200 791.1,200 791.1,197.2 			"/>
		</g>
		<g>
			<rect x="794.6" y="198" fill="#FFFFFF" width="1.1" height="1.1"/>
			<polygon opacity="0.51" fill="#C8C8C8" points="796.6,197.2 793.8,197.2 793.8,200 796.6,200 796.6,197.2 			"/>
		</g>
		<g>
			<rect x="800.1" y="198" fill="#FFFFFF" width="1.1" height="1.1"/>
			<polygon opacity="0.51" fill="#C8C8C8" points="802.1,197.2 799.3,197.2 799.3,200 802.1,200 802.1,197.2 			"/>
		</g>
		<g>
			<rect x="789.1" y="203.1" fill="#FFFFFF" width="1.1" height="1.1"/>
			<polygon opacity="0.51" fill="#C8C8C8" points="791.1,202.3 788.3,202.3 788.3,205.1 791.1,205.1 791.1,202.3 			"/>
		</g>
		<g>
			<rect x="794.6" y="203.1" fill="#FFFFFF" width="1.1" height="1.1"/>
			<polygon opacity="0.51" fill="#C8C8C8" points="796.6,202.3 793.8,202.3 793.8,205.1 796.6,205.1 796.6,202.3 			"/>
		</g>
		<g>
			<rect x="800.1" y="203.1" fill="#FFFFFF" width="1.1" height="1.1"/>
			<polygon opacity="0.51" fill="#C8C8C8" points="802.1,202.3 799.3,202.3 799.3,205.1 802.1,205.1 802.1,202.3 			"/>
		</g>
		<g>
			<rect x="789.1" y="208.3" fill="#FFFFFF" width="1.1" height="1.1"/>
			<polygon opacity="0.51" fill="#C8C8C8" points="791.1,207.5 788.3,207.5 788.3,210.3 791.1,210.3 791.1,207.5 			"/>
		</g>
		<g>
			<rect x="794.6" y="208.3" fill="#FFFFFF" width="1.1" height="1.1"/>
			<polygon opacity="0.51" fill="#C8C8C8" points="796.6,207.5 793.8,207.5 793.8,210.3 796.6,210.3 796.6,207.5 			"/>
		</g>
		<g>
			<rect x="800.1" y="208.3" fill="#FFFFFF" width="1.1" height="1.1"/>
			<polygon opacity="0.51" fill="#C8C8C8" points="802.1,207.5 799.3,207.5 799.3,210.3 802.1,210.3 802.1,207.5 			"/>
		</g>
		<g>
			<rect x="789.1" y="213.5" fill="#FFFFFF" width="1.1" height="1.1"/>
			<polygon opacity="0.51" fill="#C8C8C8" points="791.1,212.6 788.3,212.6 788.3,215.4 791.1,215.4 791.1,212.6 			"/>
		</g>
		<g>
			<rect x="794.6" y="213.5" fill="#FFFFFF" width="1.1" height="1.1"/>
			<polygon opacity="0.51" fill="#C8C8C8" points="796.6,212.6 793.8,212.6 793.8,215.4 796.6,215.4 796.6,212.6 			"/>
		</g>
		<g>
			<rect x="800.1" y="213.5" fill="#FFFFFF" width="1.1" height="1.1"/>
			<polygon opacity="0.51" fill="#C8C8C8" points="802.1,212.6 799.3,212.6 799.3,215.4 802.1,215.4 802.1,212.6 			"/>
		</g>
		<g>
			<rect x="789.1" y="218.6" fill="#FFFFFF" width="1.1" height="1.1"/>
			<polygon opacity="0.51" fill="#C8C8C8" points="791.1,217.8 788.3,217.8 788.3,220.6 791.1,220.6 791.1,217.8 			"/>
		</g>
		<g>
			<rect x="794.6" y="218.6" fill="#FFFFFF" width="1.1" height="1.1"/>
			<polygon opacity="0.51" fill="#C8C8C8" points="796.6,217.8 793.8,217.8 793.8,220.6 796.6,220.6 796.6,217.8 			"/>
		</g>
		<g>
			<rect x="800.1" y="218.6" fill="#FFFFFF" width="1.1" height="1.1"/>
			<polygon opacity="0.51" fill="#C8C8C8" points="802.1,217.8 799.3,217.8 799.3,220.6 802.1,220.6 802.1,217.8 			"/>
		</g>
		<g>
			<rect x="789.1" y="223.8" fill="#FFFFFF" width="1.1" height="1.1"/>
			<polygon opacity="0.51" fill="#C8C8C8" points="791.1,222.9 788.3,222.9 788.3,225.8 791.1,225.8 791.1,222.9 			"/>
		</g>
		<g>
			<rect x="794.6" y="223.8" fill="#FFFFFF" width="1.1" height="1.1"/>
			<polygon opacity="0.51" fill="#C8C8C8" points="796.6,222.9 793.8,222.9 793.8,225.8 796.6,225.8 796.6,222.9 			"/>
		</g>
		<g>
			<rect x="800.1" y="223.8" fill="#FFFFFF" width="1.1" height="1.1"/>
			<polygon opacity="0.51" fill="#C8C8C8" points="802.1,222.9 799.3,222.9 799.3,225.8 802.1,225.8 802.1,222.9 			"/>
		</g>
	</g>
</g>
<g>
	<polygon fill="#FFFFFF" stroke="#C8C8C8" stroke-width="1.8698" stroke-miterlimit="10" points="472.4,217.2 472.4,211.4 
		469.9,211.4 469.9,216.2 461,212.4 443.5,220.5 443.5,237.8 480,237.8 480,220.5 	"/>
	
		<rect x="459.2" y="225.4" fill="#FFFFFF" stroke="#C8C8C8" stroke-width="1.8698" stroke-miterlimit="10" width="5.2" height="8.2"/>
	
		<rect x="467.5" y="225.4" fill="#FFFFFF" stroke="#C8C8C8" stroke-width="1.8698" stroke-miterlimit="10" width="8.4" height="8.2"/>
	
		<rect x="447.6" y="225.4" fill="#FFFFFF" stroke="#C8C8C8" stroke-width="1.8698" stroke-miterlimit="10" width="8.4" height="8.2"/>
</g>
<g>
	<polygon fill="#FFFFFF" stroke="#C8C8C8" stroke-width="1.7571" stroke-miterlimit="10" points="634.5,217.1 634.5,212.7 
		613.3,212.7 613.3,217.1 590.4,217.1 590.4,221.6 593.9,221.6 593.9,238.3 653.9,238.3 653.9,221.6 657.4,221.6 657.4,217.1 	"/>
	<g>
		<g>
			<rect x="601.9" y="227.6" fill="#FFFFFF" width="3.7" height="6.9"/>
			<path opacity="0.51" fill="#C8C8C8" d="M604.8,228.4v5.1h-2v-5.1H604.8 M606.5,226.7h-5.5v8.6h5.5V226.7L606.5,226.7z"/>
		</g>
		<g>
			<rect x="608.8" y="227.6" fill="#FFFFFF" width="3.7" height="6.9"/>
			<path opacity="0.51" fill="#C8C8C8" d="M611.6,228.4v5.1h-2v-5.1H611.6 M613.4,226.7h-5.5v8.6h5.5V226.7L613.4,226.7z"/>
		</g>
	</g>
	<g>
		<g>
			<rect x="635.8" y="227.6" fill="#FFFFFF" width="3.7" height="6.9"/>
			<path opacity="0.51" fill="#C8C8C8" d="M638.6,228.4v5.1h-2v-5.1H638.6 M640.4,226.7h-5.5v8.6h5.5V226.7L640.4,226.7z"/>
		</g>
		<g>
			<rect x="642.6" y="227.6" fill="#FFFFFF" width="3.7" height="6.9"/>
			<path opacity="0.51" fill="#C8C8C8" d="M645.4,228.4v5.1h-2v-5.1H645.4 M647.2,226.7h-5.5v8.6h5.5V226.7L647.2,226.7z"/>
		</g>
	</g>
	<g>
		<g>
			<rect x="618.9" y="227.6" fill="#FFFFFF" width="3.7" height="6.9"/>
			<path opacity="0.51" fill="#C8C8C8" d="M621.7,228.4v5.1h-1.9v-5.1H621.7 M623.5,226.7H618v8.6h5.4V226.7L623.5,226.7z"/>
		</g>
		<g>
			<rect x="625.7" y="227.6" fill="#FFFFFF" width="3.7" height="6.9"/>
			<path opacity="0.51" fill="#C8C8C8" d="M628.4,228.4v5.1h-1.9v-5.1H628.4 M630.2,226.7h-5.4v8.6h5.4V226.7L630.2,226.7z"/>
		</g>
	</g>
</g>
<g>
	<polygon fill="#FFFFFF" stroke="#C8C8C8" stroke-width="1.6676" stroke-miterlimit="10" points="552.1,198.7 552.1,192.2 
		545.1,192.2 545.1,189.6 543.5,189.6 543.5,192.2 536.9,192.2 536.9,198.7 527.1,198.7 527.1,192.2 519.9,192.2 519.9,189.6 
		518.3,189.6 518.3,192.2 511.6,192.2 511.6,198.7 502.8,198.7 502.8,237.5 561.3,237.7 561.3,198.7 	"/>
	<g>
		<g>
			
				<rect x="511.8" y="203.8" fill="#FFFFFF" stroke="#C8C8C8" stroke-width="1.6676" stroke-miterlimit="10" width="5.2" height="4"/>
			
				<rect x="521.9" y="203.8" fill="#FFFFFF" stroke="#C8C8C8" stroke-width="1.6676" stroke-miterlimit="10" width="5.2" height="4"/>
			
				<rect x="511.8" y="211.2" fill="#FFFFFF" stroke="#C8C8C8" stroke-width="1.6676" stroke-miterlimit="10" width="5.2" height="4"/>
			
				<rect x="521.9" y="211.2" fill="#FFFFFF" stroke="#C8C8C8" stroke-width="1.6676" stroke-miterlimit="10" width="5.2" height="4"/>
			
				<rect x="511.8" y="218.5" fill="#FFFFFF" stroke="#C8C8C8" stroke-width="1.6676" stroke-miterlimit="10" width="5.2" height="4"/>
			
				<rect x="521.9" y="218.5" fill="#FFFFFF" stroke="#C8C8C8" stroke-width="1.6676" stroke-miterlimit="10" width="5.2" height="4"/>
			
				<rect x="511.8" y="225.8" fill="#FFFFFF" stroke="#C8C8C8" stroke-width="1.6676" stroke-miterlimit="10" width="5.2" height="4"/>
			
				<rect x="521.9" y="225.8" fill="#FFFFFF" stroke="#C8C8C8" stroke-width="1.6676" stroke-miterlimit="10" width="5.2" height="4"/>
		</g>
		<g>
			
				<rect x="536.9" y="203.8" fill="#FFFFFF" stroke="#C8C8C8" stroke-width="1.6676" stroke-miterlimit="10" width="5.2" height="4"/>
			<rect x="547" y="203.8" fill="#FFFFFF" stroke="#C8C8C8" stroke-width="1.6676" stroke-miterlimit="10" width="5.2" height="4"/>
			
				<rect x="536.9" y="211.2" fill="#FFFFFF" stroke="#C8C8C8" stroke-width="1.6676" stroke-miterlimit="10" width="5.2" height="4"/>
			<rect x="547" y="211.2" fill="#FFFFFF" stroke="#C8C8C8" stroke-width="1.6676" stroke-miterlimit="10" width="5.2" height="4"/>
			
				<rect x="536.9" y="218.5" fill="#FFFFFF" stroke="#C8C8C8" stroke-width="1.6676" stroke-miterlimit="10" width="5.2" height="4"/>
			<rect x="547" y="218.5" fill="#FFFFFF" stroke="#C8C8C8" stroke-width="1.6676" stroke-miterlimit="10" width="5.2" height="4"/>
			
				<rect x="536.9" y="225.8" fill="#FFFFFF" stroke="#C8C8C8" stroke-width="1.6676" stroke-miterlimit="10" width="5.2" height="4"/>
			<rect x="547" y="225.8" fill="#FFFFFF" stroke="#C8C8C8" stroke-width="1.6676" stroke-miterlimit="10" width="5.2" height="4"/>
		</g>
	</g>
</g>
<g>
	<path fill="#FFFFFF" stroke="#B1F2D9" stroke-width="1.7571" stroke-miterlimit="10" d="M500.1,225.8c0-1.8-1.1-3.4-2.7-4.2
		c-1.5-6.6-10.9-6.7-12.5-0.1c-1.8,0.8-2.8,2.5-2.8,4.2c0,4.2,3.9,6.7,8.8,6.7C496.1,232.4,500.1,230.1,500.1,225.8z"/>
	
		<line fill="#FFFFFF" stroke="#B1F2D9" stroke-width="1.7571" stroke-linecap="round" stroke-miterlimit="10" x1="491.1" y1="223.6" x2="491.1" y2="238.6"/>
	
		<line fill="#FFFFFF" stroke="#B1F2D9" stroke-width="1.7571" stroke-linecap="round" stroke-miterlimit="10" x1="487.3" y1="228.1" x2="490.9" y2="230.2"/>
	
		<line fill="#FFFFFF" stroke="#B1F2D9" stroke-width="1.7571" stroke-linecap="round" stroke-miterlimit="10" x1="491.5" y1="228" x2="494.7" y2="225.4"/>
</g>
<g>
	<path fill="#FFFFFF" stroke="#B1F2D9" stroke-width="1.7571" stroke-miterlimit="10" d="M569.6,224.7c0-1.8-1.1-3.4-2.7-4.2
		c-1.5-6.6-10.9-6.7-12.5-0.1c-1.8,0.8-2.8,2.5-2.8,4.2c0,4.2,3.9,6.7,8.8,6.7C565.7,231.3,569.6,229,569.6,224.7z"/>
	
		<line fill="#FFFFFF" stroke="#B1F2D9" stroke-width="1.7571" stroke-linecap="round" stroke-miterlimit="10" x1="560.7" y1="222.5" x2="560.7" y2="237.5"/>
	
		<line fill="#FFFFFF" stroke="#B1F2D9" stroke-width="1.7571" stroke-linecap="round" stroke-miterlimit="10" x1="556.9" y1="227" x2="560.5" y2="229.1"/>
	
		<line fill="#FFFFFF" stroke="#B1F2D9" stroke-width="1.7571" stroke-linecap="round" stroke-miterlimit="10" x1="561" y1="226.9" x2="564.3" y2="224.3"/>
</g>
<g>
	<path fill="#FFFFFF" stroke="#B1F2D9" stroke-width="1.7571" stroke-miterlimit="10" d="M585.8,229.5c0-1.2-0.7-2.3-1.8-2.8
		c-1-4.4-7.3-4.5-8.4-0.1c-1.2,0.5-1.8,1.7-1.8,2.8c0,2.8,2.6,4.5,5.9,4.5C583.2,233.9,585.8,232.4,585.8,229.5z"/>
	
		<line fill="#FFFFFF" stroke="#B1F2D9" stroke-width="1.7571" stroke-linecap="round" stroke-miterlimit="10" x1="579.8" y1="227.4" x2="579.8" y2="237.5"/>
	
		<line fill="#FFFFFF" stroke="#B1F2D9" stroke-width="1.7571" stroke-linecap="round" stroke-miterlimit="10" x1="577.3" y1="230.5" x2="579.7" y2="231.9"/>
	
		<line fill="#FFFFFF" stroke="#B1F2D9" stroke-width="1.7571" stroke-linecap="round" stroke-miterlimit="10" x1="580.1" y1="230.4" x2="582.3" y2="228.6"/>
</g>
<path fill="#FFFFFF" stroke="#B1F2D9" stroke-width="1.7571" stroke-miterlimit="10" d="M788.7,237.8c0,0,0-0.8,0-0.8
	c0-1.2-1-2.3-2.3-2.3c0,0-0.1,0-0.1,0c-0.5-1.4-1.8-2.4-3.4-2.4c-0.5,0-0.9,0.1-1.3,0.3c-0.7-0.7-1.6-1.1-2.5-1.1
	c-1.6,0-2.9,1-3.4,2.5c0,0,0,0,0,0c-1.3,0-2.3,1-2.3,2.3c0,0.2,0,1.2,0.1,1.4H788.7z"/>
<path fill="#FFFFFF" stroke="#B1F2D9" stroke-width="1.7571" stroke-miterlimit="10" d="M522.2,237.5c0,0,0-0.1,0-0.1
	c0-1.8-1.5-3.3-3.3-3.3c-0.1,0-0.1,0-0.2,0c-0.8-2-2.7-3.4-4.9-3.4c-0.7,0-1.3,0.1-1.9,0.4c-1-1-2.3-1.6-3.7-1.6
	c-2.3,0-4.3,1.5-5,3.7c0,0,0,0,0,0c-1.9,0-3.4,1.5-3.4,3.4c0,0.3,0.1,0.7,0.2,1H522.2z"/>
<g>
	<path fill="#FFFFFF" stroke="#B1F2D9" stroke-width="1.7571" stroke-miterlimit="10" d="M763.3,223.5c0,4.2-2.3,7.1-5.2,7.1
		c-2.9,0-5.2-2.9-5.2-7.1c0-4.2,2.3-14.7,5.2-14.7C760.9,208.8,763.3,219.3,763.3,223.5z"/>
	
		<line fill="#FFFFFF" stroke="#B1F2D9" stroke-width="1.7571" stroke-linecap="round" stroke-linejoin="round" stroke-miterlimit="10" x1="758" y1="217.8" x2="758" y2="237.5"/>
</g>
<path fill="#FFFFFF" d="M275.9,209.4c0.4,0,0.7-0.3,0.7-0.7V208h0.8c0.4,0,0.7-0.3,0.7-0.7c0-0.4-0.3-0.7-0.7-0.7h-0.8v-0.8
	c0-0.4-0.3-0.7-0.7-0.7s-0.7,0.3-0.7,0.7v0.8h-0.8c-0.4,0-0.7,0.3-0.7,0.7c0,0.4,0.3,0.7,0.7,0.7h0.8v0.8
	C275.2,209.1,275.5,209.4,275.9,209.4z"/>
<g>
	<polygon fill="#FFFFFF" stroke="#C8C8C8" stroke-width="1.6676" stroke-miterlimit="10" points="102.7,132.2 108.7,132.2 
		108.7,124.7 112.7,124.7 112.7,117 119.7,96.7 126.7,117 126.7,124.7 130.4,124.7 130.4,132.2 136.5,132.2 136.5,239.3 
		102.7,239.3 	"/>
	<g>
		<g>
			<rect x="127.3" y="137.3" fill="#FFFFFF" width="0.1" height="77.2"/>
			<polygon opacity="0.51" fill="#C8C8C8" points="126.5,136.5 128.3,136.5 128.3,215.4 126.5,215.4 126.5,136.5 			"/>
		</g>
		<g>
			<rect x="122.1" y="137.3" fill="#FFFFFF" width="0.1" height="77.2"/>
			<polygon opacity="0.51" fill="#C8C8C8" points="121.3,136.5 123.1,136.5 123.1,215.4 121.3,215.4 121.3,136.5 			"/>
		</g>
		<g>
			<rect x="116.9" y="137.3" fill="#FFFFFF" width="0.1" height="77.2"/>
			<polygon opacity="0.51" fill="#C8C8C8" points="116.1,136.5 117.9,136.5 117.9,215.4 116.1,215.4 116.1,136.5 			"/>
		</g>
		<g>
			<rect x="111.8" y="137.3" fill="#FFFFFF" width="0.1" height="77.2"/>
			<polygon opacity="0.51" fill="#C8C8C8" points="110.9,136.5 112.7,136.5 112.7,215.4 110.9,215.4 110.9,136.5 			"/>
		</g>
	</g>
</g>
<polygon fill="#FFFFFF" stroke="#C8C8C8" stroke-width="1.6676" stroke-miterlimit="10" points="57.1,150.1 57.1,139.1 66.4,135.8 
	66.4,127.4 67.8,127.4 67.8,135.3 76.6,132.2 76.6,143.1 80.3,141.7 80.3,216.8 53.7,216.8 53.7,151.3 "/>
<g>
	<polygon fill="#FFFFFF" stroke="#C8C8C8" stroke-width="1.7571" stroke-miterlimit="10" points="280.4,175.9 280.4,172.4 
		295.7,172.4 295.7,175.9 302.2,175.9 302.2,237.8 273.8,237.8 273.8,175.9 	"/>
	<g>
		<g>
			<rect x="293.4" y="183.9" fill="#FFFFFF" width="1.4" height="1.6"/>
			<polygon opacity="0.51" fill="#C8C8C8" points="292.6,183.1 295.7,183.1 295.7,186.4 292.6,186.4 292.6,183.1 			"/>
		</g>
		<g>
			<rect x="287.3" y="183.9" fill="#FFFFFF" width="1.4" height="1.6"/>
			<polygon opacity="0.51" fill="#C8C8C8" points="286.5,183.1 289.6,183.1 289.6,186.4 286.5,186.4 286.5,183.1 			"/>
		</g>
		<g>
			<rect x="281.2" y="183.9" fill="#FFFFFF" width="1.4" height="1.6"/>
			<polygon opacity="0.51" fill="#C8C8C8" points="280.4,183.1 283.5,183.1 283.5,186.4 280.4,186.4 280.4,183.1 			"/>
		</g>
		<g>
			<rect x="293.4" y="190.1" fill="#FFFFFF" width="1.4" height="1.6"/>
			<polygon opacity="0.51" fill="#C8C8C8" points="292.6,189.2 295.7,189.2 295.7,192.6 292.6,192.6 292.6,189.2 			"/>
		</g>
		<g>
			<rect x="287.3" y="190.1" fill="#FFFFFF" width="1.4" height="1.6"/>
			<polygon opacity="0.51" fill="#C8C8C8" points="286.5,189.2 289.6,189.2 289.6,192.6 286.5,192.6 286.5,189.2 			"/>
		</g>
		<g>
			<rect x="281.2" y="190.1" fill="#FFFFFF" width="1.4" height="1.6"/>
			<polygon opacity="0.51" fill="#C8C8C8" points="280.4,189.2 283.5,189.2 283.5,192.6 280.4,192.6 280.4,189.2 			"/>
		</g>
		<g>
			<rect x="293.4" y="196.2" fill="#FFFFFF" width="1.4" height="1.6"/>
			<polygon opacity="0.51" fill="#C8C8C8" points="292.6,195.4 295.7,195.4 295.7,198.7 292.6,198.7 292.6,195.4 			"/>
		</g>
		<g>
			<rect x="287.3" y="196.2" fill="#FFFFFF" width="1.4" height="1.6"/>
			<polygon opacity="0.51" fill="#C8C8C8" points="286.5,195.4 289.6,195.4 289.6,198.7 286.5,198.7 286.5,195.4 			"/>
		</g>
		<g>
			<rect x="281.2" y="196.2" fill="#FFFFFF" width="1.4" height="1.6"/>
			<polygon opacity="0.51" fill="#C8C8C8" points="280.4,195.4 283.5,195.4 283.5,198.7 280.4,198.7 280.4,195.4 			"/>
		</g>
		<g>
			<rect x="293.4" y="202.4" fill="#FFFFFF" width="1.4" height="1.6"/>
			<polygon opacity="0.51" fill="#C8C8C8" points="292.6,201.5 295.7,201.5 295.7,204.9 292.6,204.9 292.6,201.5 			"/>
		</g>
		<g>
			<rect x="287.3" y="202.4" fill="#FFFFFF" width="1.4" height="1.6"/>
			<polygon opacity="0.51" fill="#C8C8C8" points="286.5,201.5 289.6,201.5 289.6,204.9 286.5,204.9 286.5,201.5 			"/>
		</g>
		<g>
			<rect x="281.2" y="202.4" fill="#FFFFFF" width="1.4" height="1.6"/>
			<polygon opacity="0.51" fill="#C8C8C8" points="280.4,201.5 283.5,201.5 283.5,204.9 280.4,204.9 280.4,201.5 			"/>
		</g>
		<g>
			<rect x="293.4" y="208.6" fill="#FFFFFF" width="1.4" height="1.6"/>
			<polygon opacity="0.51" fill="#C8C8C8" points="292.6,207.7 295.7,207.7 295.7,211 292.6,211 292.6,207.7 			"/>
		</g>
		<g>
			<rect x="287.3" y="208.6" fill="#FFFFFF" width="1.4" height="1.6"/>
			<polygon opacity="0.51" fill="#C8C8C8" points="286.5,207.7 289.6,207.7 289.6,211 286.5,211 286.5,207.7 			"/>
		</g>
		<g>
			<rect x="281.2" y="208.6" fill="#FFFFFF" width="1.4" height="1.6"/>
			<polygon opacity="0.51" fill="#C8C8C8" points="280.4,207.7 283.5,207.7 283.5,211 280.4,211 280.4,207.7 			"/>
		</g>
		<g>
			<rect x="293.4" y="214.7" fill="#FFFFFF" width="1.4" height="1.6"/>
			<polygon opacity="0.51" fill="#C8C8C8" points="292.6,213.8 295.7,213.8 295.7,217.2 292.6,217.2 292.6,213.8 			"/>
		</g>
		<g>
			<rect x="287.3" y="214.7" fill="#FFFFFF" width="1.4" height="1.6"/>
			<polygon opacity="0.51" fill="#C8C8C8" points="286.5,213.8 289.6,213.8 289.6,217.2 286.5,217.2 286.5,213.8 			"/>
		</g>
		<g>
			<rect x="281.2" y="214.7" fill="#FFFFFF" width="1.4" height="1.6"/>
			<polygon opacity="0.51" fill="#C8C8C8" points="280.4,213.8 283.5,213.8 283.5,217.2 280.4,217.2 280.4,213.8 			"/>
		</g>
	</g>
</g>
<g>
	<polygon fill="#FFFFFF" stroke="#C8C8C8" stroke-width="1.6676" stroke-miterlimit="10" points="187.7,172 187.7,166 193.7,166 
		193.7,162.2 197,162.2 197,157.9 198.5,157.9 198.5,162.2 201.3,162.2 201.3,157.9 202.8,157.9 202.8,162.2 205.5,162.2 205.5,166 
		211.5,166 211.5,172 215.1,172 215.1,238.2 184.2,238.2 184.2,172 	"/>
	<g>
		
			<rect x="190.8" y="175.2" fill="#FFFFFF" stroke="#C8C8C8" stroke-width="1.6676" stroke-miterlimit="10" width="17.5" height="2.7"/>
		
			<rect x="190.8" y="182.4" fill="#FFFFFF" stroke="#C8C8C8" stroke-width="1.6676" stroke-miterlimit="10" width="17.5" height="2.7"/>
		
			<rect x="190.8" y="189.6" fill="#FFFFFF" stroke="#C8C8C8" stroke-width="1.6676" stroke-miterlimit="10" width="17.5" height="2.7"/>
		
			<rect x="190.8" y="196.7" fill="#FFFFFF" stroke="#C8C8C8" stroke-width="1.6676" stroke-miterlimit="10" width="17.5" height="2.7"/>
		
			<rect x="190.8" y="203.9" fill="#FFFFFF" stroke="#C8C8C8" stroke-width="1.6676" stroke-miterlimit="10" width="17.5" height="2.7"/>
		
			<rect x="190.8" y="211.1" fill="#FFFFFF" stroke="#C8C8C8" stroke-width="1.6676" stroke-miterlimit="10" width="17.5" height="2.7"/>
		
			<rect x="190.8" y="218.3" fill="#FFFFFF" stroke="#C8C8C8" stroke-width="1.6676" stroke-miterlimit="10" width="17.5" height="2.7"/>
		
			<rect x="190.8" y="225.5" fill="#FFFFFF" stroke="#C8C8C8" stroke-width="1.6676" stroke-miterlimit="10" width="17.5" height="2.7"/>
	</g>
</g>
<g>
	<polygon fill="#FFFFFF" stroke="#C8C8C8" stroke-width="1.6676" stroke-miterlimit="10" points="8.9,116.4 8.9,109.8 13.1,109.8 
		13.1,103.8 16.2,103.8 16.2,98.7 18.1,98.7 18.1,93.2 22.6,93.2 22.6,81.7 23.9,81.7 23.9,93.2 28.3,93.2 28.3,98.7 30.3,98.7 
		30.3,103.8 33.4,103.8 33.4,109.8 37.6,109.8 37.6,116.4 41.9,116.4 41.9,238.5 4.6,238.5 4.6,116.4 	"/>
	<g>
		<g>
			<rect x="32.3" y="117.5" fill="#FFFFFF" width="0.8" height="73.5"/>
			<polygon opacity="0.51" fill="#C8C8C8" points="31.5,116.7 34,116.7 34,191.8 31.5,191.8 31.5,116.7 			"/>
		</g>
		<g>
			<rect x="26" y="117.5" fill="#FFFFFF" width="0.8" height="73.5"/>
			<polygon opacity="0.51" fill="#C8C8C8" points="25.2,116.7 27.6,116.7 27.6,191.8 25.2,191.8 25.2,116.7 			"/>
		</g>
		<g>
			<rect x="19.7" y="117.5" fill="#FFFFFF" width="0.8" height="73.5"/>
			<polygon opacity="0.51" fill="#C8C8C8" points="18.8,116.7 21.3,116.7 21.3,191.8 18.8,191.8 18.8,116.7 			"/>
		</g>
		<g>
			<rect x="13.3" y="117.5" fill="#FFFFFF" width="0.8" height="73.5"/>
			<polygon opacity="0.51" fill="#C8C8C8" points="12.5,116.7 15,116.7 15,191.8 12.5,191.8 12.5,116.7 			"/>
		</g>
	</g>
</g>
<g>
	<polygon fill="#FFFFFF" stroke="#C8C8C8" stroke-width="1.7571" stroke-miterlimit="10" points="6,165.2 6,158 12.3,158 
		12.3,153.5 19.7,153.5 19.7,158 26,158 26,165.2 29,165.2 29,238.4 3,238.4 3,165.2 	"/>
	<g>
		<g>
			<rect x="22" y="169.4" fill="#FFFFFF" width="1.2" height="1.4"/>
			<polygon opacity="0.51" fill="#C8C8C8" points="21.1,168.5 24,168.5 24,171.7 21.1,171.7 21.1,168.5 			"/>
		</g>
		<g>
			<rect x="15.4" y="169.4" fill="#FFFFFF" width="1.2" height="1.4"/>
			<polygon opacity="0.51" fill="#C8C8C8" points="14.6,168.5 17.5,168.5 17.5,171.7 14.6,171.7 14.6,168.5 			"/>
		</g>
		<g>
			<rect x="8.9" y="169.4" fill="#FFFFFF" width="1.2" height="1.4"/>
			<polygon opacity="0.51" fill="#C8C8C8" points="8.1,168.5 11,168.5 11,171.7 8.1,171.7 8.1,168.5 			"/>
		</g>
		<g>
			<rect x="22" y="175.2" fill="#FFFFFF" width="1.2" height="1.4"/>
			<polygon opacity="0.51" fill="#C8C8C8" points="21.1,174.4 24,174.4 24,177.6 21.1,177.6 21.1,174.4 			"/>
		</g>
		<g>
			<rect x="15.4" y="175.2" fill="#FFFFFF" width="1.2" height="1.4"/>
			<polygon opacity="0.51" fill="#C8C8C8" points="14.6,174.4 17.5,174.4 17.5,177.6 14.6,177.6 14.6,174.4 			"/>
		</g>
		<g>
			<rect x="8.9" y="175.2" fill="#FFFFFF" width="1.2" height="1.4"/>
			<polygon opacity="0.51" fill="#C8C8C8" points="8.1,174.4 11,174.4 11,177.6 8.1,177.6 8.1,174.4 			"/>
		</g>
		<g>
			<rect x="22" y="181.1" fill="#FFFFFF" width="1.2" height="1.4"/>
			<polygon opacity="0.51" fill="#C8C8C8" points="21.1,180.2 24,180.2 24,183.4 21.1,183.4 21.1,180.2 			"/>
		</g>
		<g>
			<rect x="15.4" y="181.1" fill="#FFFFFF" width="1.2" height="1.4"/>
			<polygon opacity="0.51" fill="#C8C8C8" points="14.6,180.2 17.5,180.2 17.5,183.4 14.6,183.4 14.6,180.2 			"/>
		</g>
		<g>
			<rect x="8.9" y="181.1" fill="#FFFFFF" width="1.2" height="1.4"/>
			<polygon opacity="0.51" fill="#C8C8C8" points="8.1,180.2 11,180.2 11,183.4 8.1,183.4 8.1,180.2 			"/>
		</g>
		<g>
			<rect x="22" y="186.9" fill="#FFFFFF" width="1.2" height="1.4"/>
			<polygon opacity="0.51" fill="#C8C8C8" points="21.1,186 24,186 24,189.2 21.1,189.2 21.1,186 			"/>
		</g>
		<g>
			<rect x="15.4" y="186.9" fill="#FFFFFF" width="1.2" height="1.4"/>
			<polygon opacity="0.51" fill="#C8C8C8" points="14.6,186 17.5,186 17.5,189.2 14.6,189.2 14.6,186 			"/>
		</g>
		<g>
			<rect x="8.9" y="186.9" fill="#FFFFFF" width="1.2" height="1.4"/>
			<polygon opacity="0.51" fill="#C8C8C8" points="8.1,186 11,186 11,189.2 8.1,189.2 8.1,186 			"/>
		</g>
		<g>
			<rect x="22" y="192.7" fill="#FFFFFF" width="1.2" height="1.4"/>
			<polygon opacity="0.51" fill="#C8C8C8" points="21.1,191.9 24,191.9 24,195.1 21.1,195.1 21.1,191.9 			"/>
		</g>
		<g>
			<rect x="15.4" y="192.7" fill="#FFFFFF" width="1.2" height="1.4"/>
			<polygon opacity="0.51" fill="#C8C8C8" points="14.6,191.9 17.5,191.9 17.5,195.1 14.6,195.1 14.6,191.9 			"/>
		</g>
		<g>
			<rect x="8.9" y="192.7" fill="#FFFFFF" width="1.2" height="1.4"/>
			<polygon opacity="0.51" fill="#C8C8C8" points="8.1,191.9 11,191.9 11,195.1 8.1,195.1 8.1,191.9 			"/>
		</g>
		<g>
			<rect x="22" y="198.6" fill="#FFFFFF" width="1.2" height="1.4"/>
			<polygon opacity="0.51" fill="#C8C8C8" points="21.1,197.7 24,197.7 24,200.9 21.1,200.9 21.1,197.7 			"/>
		</g>
		<g>
			<rect x="15.4" y="198.6" fill="#FFFFFF" width="1.2" height="1.4"/>
			<polygon opacity="0.51" fill="#C8C8C8" points="14.6,197.7 17.5,197.7 17.5,200.9 14.6,200.9 14.6,197.7 			"/>
		</g>
		<g>
			<rect x="8.9" y="198.6" fill="#FFFFFF" width="1.2" height="1.4"/>
			<polygon opacity="0.51" fill="#C8C8C8" points="8.1,197.7 11,197.7 11,200.9 8.1,200.9 8.1,197.7 			"/>
		</g>
		<g>
			<rect x="22" y="204.4" fill="#FFFFFF" width="1.2" height="1.4"/>
			<polygon opacity="0.51" fill="#C8C8C8" points="21.1,203.5 24,203.5 24,206.7 21.1,206.7 21.1,203.5 			"/>
		</g>
		<g>
			<rect x="15.4" y="204.4" fill="#FFFFFF" width="1.2" height="1.4"/>
			<polygon opacity="0.51" fill="#C8C8C8" points="14.6,203.5 17.5,203.5 17.5,206.7 14.6,206.7 14.6,203.5 			"/>
		</g>
		<g>
			<rect x="8.9" y="204.4" fill="#FFFFFF" width="1.2" height="1.4"/>
			<polygon opacity="0.51" fill="#C8C8C8" points="8.1,203.5 11,203.5 11,206.7 8.1,206.7 8.1,203.5 			"/>
		</g>
		<g>
			<rect x="22" y="210.3" fill="#FFFFFF" width="1.2" height="1.4"/>
			<polygon opacity="0.51" fill="#C8C8C8" points="21.1,209.4 24,209.4 24,212.6 21.1,212.6 21.1,209.4 			"/>
		</g>
		<g>
			<rect x="15.4" y="210.3" fill="#FFFFFF" width="1.2" height="1.4"/>
			<polygon opacity="0.51" fill="#C8C8C8" points="14.6,209.4 17.5,209.4 17.5,212.6 14.6,212.6 14.6,209.4 			"/>
		</g>
		<g>
			<rect x="8.9" y="210.3" fill="#FFFFFF" width="1.2" height="1.4"/>
			<polygon opacity="0.51" fill="#C8C8C8" points="8.1,209.4 11,209.4 11,212.6 8.1,212.6 8.1,209.4 			"/>
		</g>
		<g>
			<rect x="22" y="216.1" fill="#FFFFFF" width="1.2" height="1.4"/>
			<polygon opacity="0.51" fill="#C8C8C8" points="21.1,215.2 24,215.2 24,218.4 21.1,218.4 21.1,215.2 			"/>
		</g>
		<g>
			<rect x="15.4" y="216.1" fill="#FFFFFF" width="1.2" height="1.4"/>
			<polygon opacity="0.51" fill="#C8C8C8" points="14.6,215.2 17.5,215.2 17.5,218.4 14.6,218.4 14.6,215.2 			"/>
		</g>
		<g>
			<rect x="8.9" y="216.1" fill="#FFFFFF" width="1.2" height="1.4"/>
			<polygon opacity="0.51" fill="#C8C8C8" points="8.1,215.2 11,215.2 11,218.4 8.1,218.4 8.1,215.2 			"/>
		</g>
		<g>
			<rect x="22" y="221.9" fill="#FFFFFF" width="1.2" height="1.4"/>
			<polygon opacity="0.51" fill="#C8C8C8" points="21.1,221 24,221 24,224.2 21.1,224.2 21.1,221 			"/>
		</g>
		<g>
			<rect x="15.4" y="221.9" fill="#FFFFFF" width="1.2" height="1.4"/>
			<polygon opacity="0.51" fill="#C8C8C8" points="14.6,221 17.5,221 17.5,224.2 14.6,224.2 14.6,221 			"/>
		</g>
		<g>
			<rect x="8.9" y="221.9" fill="#FFFFFF" width="1.2" height="1.4"/>
			<polygon opacity="0.51" fill="#C8C8C8" points="8.1,221 11,221 11,224.2 8.1,224.2 8.1,221 			"/>
		</g>
	</g>
</g>
<g>
	<polygon fill="#FFFFFF" stroke="#C8C8C8" stroke-width="1.6676" stroke-miterlimit="10" points="105.3,184.7 93.5,184.7 
		93.5,177.5 76.4,177.5 76.4,184.7 65.5,184.7 65.5,177.5 48.6,177.5 48.7,184.7 36.7,184.7 36.7,238.5 105.3,238.3 	"/>
	<g>
		<g>
			<rect x="88.4" y="190" fill="#FFFFFF" width="4" height="2.8"/>
			<path opacity="0.51" fill="#C8C8C8" d="M89.3,190.9h2.4v1.1h-2.4V190.9 M87.6,189.2v4.4h5.7v-4.4H87.6L87.6,189.2z"/>
		</g>
		<g>
			<rect x="77.2" y="190" fill="#FFFFFF" width="4" height="2.8"/>
			<path opacity="0.51" fill="#C8C8C8" d="M78.1,190.9h2.4v1.1h-2.4V190.9 M76.4,189.2v4.4h5.7v-4.4H76.4L76.4,189.2z"/>
		</g>
		<g>
			<rect x="88.4" y="198.1" fill="#FFFFFF" width="4" height="2.8"/>
			<path opacity="0.51" fill="#C8C8C8" d="M89.3,199h2.4v1.1h-2.4V199 M87.6,197.3v4.4h5.7v-4.4H87.6L87.6,197.3z"/>
		</g>
		<g>
			<rect x="77.2" y="198.1" fill="#FFFFFF" width="4" height="2.8"/>
			<path opacity="0.51" fill="#C8C8C8" d="M78.1,199h2.4v1.1h-2.4V199 M76.4,197.3v4.4h5.7v-4.4H76.4L76.4,197.3z"/>
		</g>
		<g>
			<rect x="88.4" y="206.2" fill="#FFFFFF" width="4" height="2.8"/>
			<path opacity="0.51" fill="#C8C8C8" d="M89.3,207.1h2.4v1.1h-2.4V207.1 M87.6,205.4v4.4h5.7v-4.4H87.6L87.6,205.4z"/>
		</g>
		<g>
			<rect x="77.2" y="206.2" fill="#FFFFFF" width="4" height="2.8"/>
			<path opacity="0.51" fill="#C8C8C8" d="M78.1,207.1h2.4v1.1h-2.4V207.1 M76.4,205.4v4.4h5.7v-4.4H76.4L76.4,205.4z"/>
		</g>
		<g>
			<rect x="88.4" y="214.3" fill="#FFFFFF" width="4" height="2.8"/>
			<path opacity="0.51" fill="#C8C8C8" d="M89.3,215.2h2.4v1.1h-2.4V215.2 M87.6,213.5v4.4h5.7v-4.4H87.6L87.6,213.5z"/>
		</g>
		<g>
			<rect x="77.2" y="214.3" fill="#FFFFFF" width="4" height="2.8"/>
			<path opacity="0.51" fill="#C8C8C8" d="M78.1,215.2h2.4v1.1h-2.4V215.2 M76.4,213.5v4.4h5.7v-4.4H76.4L76.4,213.5z"/>
		</g>
		<g>
			<rect x="88.4" y="222.4" fill="#FFFFFF" width="4" height="2.8"/>
			<path opacity="0.51" fill="#C8C8C8" d="M89.3,223.3h2.4v1.1h-2.4V223.3 M87.6,221.6v4.4h5.7v-4.4H87.6L87.6,221.6z"/>
		</g>
		<g>
			<rect x="77.2" y="222.4" fill="#FFFFFF" width="4" height="2.8"/>
			<path opacity="0.51" fill="#C8C8C8" d="M78.1,223.3h2.4v1.1h-2.4V223.3 M76.4,221.6v4.4h5.7v-4.4H76.4L76.4,221.6z"/>
		</g>
		<g>
			<rect x="88.4" y="230.5" fill="#FFFFFF" width="4" height="2.8"/>
			<path opacity="0.51" fill="#C8C8C8" d="M89.3,231.4h2.4v1.1h-2.4V231.4 M87.6,229.7v4.4h5.7v-4.4H87.6L87.6,229.7z"/>
		</g>
		<g>
			<rect x="77.2" y="230.5" fill="#FFFFFF" width="4" height="2.8"/>
			<path opacity="0.51" fill="#C8C8C8" d="M78.1,231.4h2.4v1.1h-2.4V231.4 M76.4,229.7v4.4h5.7v-4.4H76.4L76.4,229.7z"/>
		</g>
	</g>
	<g>
		<g>
			<rect x="60.6" y="190" fill="#FFFFFF" width="4" height="2.8"/>
			<path opacity="0.51" fill="#C8C8C8" d="M61.4,190.9h2.4v1.1h-2.4V190.9 M59.8,189.2v4.4h5.7v-4.4H59.8L59.8,189.2z"/>
		</g>
		<g>
			<rect x="49.4" y="190" fill="#FFFFFF" width="4" height="2.8"/>
			<path opacity="0.51" fill="#C8C8C8" d="M50.2,190.9h2.4v1.1h-2.4V190.9 M48.6,189.2v4.4h5.7v-4.4H48.6L48.6,189.2z"/>
		</g>
		<g>
			<rect x="60.6" y="198.1" fill="#FFFFFF" width="4" height="2.8"/>
			<path opacity="0.51" fill="#C8C8C8" d="M61.4,199h2.4v1.1h-2.4V199 M59.8,197.3v4.4h5.7v-4.4H59.8L59.8,197.3z"/>
		</g>
		<g>
			<rect x="49.4" y="198.1" fill="#FFFFFF" width="4" height="2.8"/>
			<path opacity="0.51" fill="#C8C8C8" d="M50.2,199h2.4v1.1h-2.4V199 M48.6,197.3v4.4h5.7v-4.4H48.6L48.6,197.3z"/>
		</g>
		<g>
			<rect x="60.6" y="206.2" fill="#FFFFFF" width="4" height="2.8"/>
			<path opacity="0.51" fill="#C8C8C8" d="M61.4,207.1h2.4v1.1h-2.4V207.1 M59.8,205.4v4.4h5.7v-4.4H59.8L59.8,205.4z"/>
		</g>
		<g>
			<rect x="49.4" y="206.2" fill="#FFFFFF" width="4" height="2.8"/>
			<path opacity="0.51" fill="#C8C8C8" d="M50.2,207.1h2.4v1.1h-2.4V207.1 M48.6,205.4v4.4h5.7v-4.4H48.6L48.6,205.4z"/>
		</g>
		<g>
			<rect x="60.6" y="214.3" fill="#FFFFFF" width="4" height="2.8"/>
			<path opacity="0.51" fill="#C8C8C8" d="M61.4,215.2h2.4v1.1h-2.4V215.2 M59.8,213.5v4.4h5.7v-4.4H59.8L59.8,213.5z"/>
		</g>
		<g>
			<rect x="49.4" y="214.3" fill="#FFFFFF" width="4" height="2.8"/>
			<path opacity="0.51" fill="#C8C8C8" d="M50.2,215.2h2.4v1.1h-2.4V215.2 M48.6,213.5v4.4h5.7v-4.4H48.6L48.6,213.5z"/>
		</g>
		<g>
			<rect x="60.6" y="222.4" fill="#FFFFFF" width="4" height="2.8"/>
			<path opacity="0.51" fill="#C8C8C8" d="M61.4,223.3h2.4v1.1h-2.4V223.3 M59.8,221.6v4.4h5.7v-4.4H59.8L59.8,221.6z"/>
		</g>
		<g>
			<rect x="49.4" y="222.4" fill="#FFFFFF" width="4" height="2.8"/>
			<path opacity="0.51" fill="#C8C8C8" d="M50.2,223.3h2.4v1.1h-2.4V223.3 M48.6,221.6v4.4h5.7v-4.4H48.6L48.6,221.6z"/>
		</g>
		<g>
			<rect x="60.6" y="230.5" fill="#FFFFFF" width="4" height="2.8"/>
			<path opacity="0.51" fill="#C8C8C8" d="M61.4,231.4h2.4v1.1h-2.4V231.4 M59.8,229.7v4.4h5.7v-4.4H59.8L59.8,229.7z"/>
		</g>
		<g>
			<rect x="49.4" y="230.5" fill="#FFFFFF" width="4" height="2.8"/>
			<path opacity="0.51" fill="#C8C8C8" d="M50.2,231.4h2.4v1.1h-2.4V231.4 M48.6,229.7v4.4h5.7v-4.4H48.6L48.6,229.7z"/>
		</g>
	</g>
</g>
<g>
	<polygon fill="#FFFFFF" stroke="#C8C8C8" stroke-width="1.8698" stroke-miterlimit="10" points="322.7,217.2 322.7,211.4 
		325.2,211.4 325.2,216.2 334,212.4 351.6,220.5 351.6,237.8 315.1,237.8 315.1,220.5 	"/>
	
		<rect x="330.8" y="225.4" fill="#FFFFFF" stroke="#C8C8C8" stroke-width="1.8698" stroke-miterlimit="10" width="5.2" height="8.2"/>
	
		<rect x="319.2" y="225.4" fill="#FFFFFF" stroke="#C8C8C8" stroke-width="1.8698" stroke-miterlimit="10" width="8.4" height="8.2"/>
	
		<rect x="339.1" y="225.4" fill="#FFFFFF" stroke="#C8C8C8" stroke-width="1.8698" stroke-miterlimit="10" width="8.4" height="8.2"/>
</g>
<polygon fill="#FFFFFF" stroke="#C8C8C8" stroke-width="1.8698" stroke-miterlimit="10" points="234.7,217.2 234.7,211.4 
	237.2,211.4 237.2,216.2 246.1,212.4 263.7,220.5 263.7,237.8 227.1,237.8 227.1,220.5 "/>
<rect x="233.5" y="225.4" fill="#FFFFFF" stroke="#C8C8C8" stroke-width="1.8698" stroke-miterlimit="10" width="8.4" height="8.2"/>
<rect x="248.4" y="225.4" fill="#FFFFFF" stroke="#C8C8C8" stroke-width="1.8698" stroke-miterlimit="10" width="8.4" height="8.2"/>
<g>
	<polygon fill="#FFFFFF" stroke="#C8C8C8" stroke-width="1.8698" stroke-miterlimit="10" points="150.6,217.2 150.6,211.4 
		153.1,211.4 153.1,216.2 162,212.4 179.6,220.5 179.6,237.8 143,237.8 143,220.5 	"/>
	
		<rect x="158.7" y="225.4" fill="#FFFFFF" stroke="#C8C8C8" stroke-width="1.8698" stroke-miterlimit="10" width="5.2" height="8.2"/>
	
		<rect x="147.2" y="225.4" fill="#FFFFFF" stroke="#C8C8C8" stroke-width="1.8698" stroke-miterlimit="10" width="8.4" height="8.2"/>
	<rect x="167" y="225.4" fill="#FFFFFF" stroke="#C8C8C8" stroke-width="1.8698" stroke-miterlimit="10" width="8.4" height="8.2"/>
</g>
<polygon fill="#FFFFFF" stroke="#C8C8C8" stroke-width="1.8698" stroke-miterlimit="10" points="672.8,217.2 672.8,211.4 
	675.3,211.4 675.3,216.2 684.1,212.4 701.7,220.5 701.7,237.8 665.2,237.8 665.2,220.5 "/>
<rect x="671.3" y="225.4" fill="#FFFFFF" stroke="#C8C8C8" stroke-width="1.8698" stroke-miterlimit="10" width="8.4" height="8.2"/>
<rect x="687.2" y="225.4" fill="#FFFFFF" stroke="#C8C8C8" stroke-width="1.8698" stroke-miterlimit="10" width="8.4" height="8.2"/>
<g>
	<polygon fill="#FFFFFF" stroke="#C8C8C8" stroke-width="1.8698" stroke-miterlimit="10" points="720,217.2 720,211.4 722.4,211.4 
		722.4,216.2 731.3,212.4 748.9,220.5 748.9,237.8 712.3,237.8 712.3,220.5 	"/>
	<rect x="728" y="225.4" fill="#FFFFFF" stroke="#C8C8C8" stroke-width="1.8698" stroke-miterlimit="10" width="5.2" height="8.2"/>
	
		<rect x="716.5" y="225.4" fill="#FFFFFF" stroke="#C8C8C8" stroke-width="1.8698" stroke-miterlimit="10" width="8.4" height="8.2"/>
	
		<rect x="736.3" y="225.4" fill="#FFFFFF" stroke="#C8C8C8" stroke-width="1.8698" stroke-miterlimit="10" width="8.4" height="8.2"/>
</g>
<g>
	<polygon fill="#FFFFFF" stroke="#C8C8C8" stroke-width="1.6676" stroke-miterlimit="10" points="91.8,206.6 91.8,202.4 99,202.4 
		99,195.5 99.9,195.5 99.9,202.4 106.8,202.4 106.8,206.6 129.6,206.6 129.6,212 127.8,212 127.8,238.1 70.8,238.1 70.8,212 
		69.1,212 69.1,206.6 	"/>
	<g>
		<g>
			<g>
				
					<rect x="117.9" y="216.1" fill="none" stroke="#C8C8C8" stroke-width="1.6676" stroke-miterlimit="10" width="3.5" height="3.5"/>
				
					<rect x="117.9" y="222.4" fill="none" stroke="#C8C8C8" stroke-width="1.6676" stroke-miterlimit="10" width="3.5" height="3.5"/>
				
					<rect x="117.9" y="228.8" fill="none" stroke="#C8C8C8" stroke-width="1.6676" stroke-miterlimit="10" width="3.5" height="3.5"/>
			</g>
			<g>
				
					<rect x="109.8" y="216.1" fill="none" stroke="#C8C8C8" stroke-width="1.6676" stroke-miterlimit="10" width="3.5" height="3.5"/>
				
					<rect x="109.8" y="222.4" fill="none" stroke="#C8C8C8" stroke-width="1.6676" stroke-miterlimit="10" width="3.5" height="3.5"/>
				
					<rect x="109.8" y="228.8" fill="none" stroke="#C8C8C8" stroke-width="1.6676" stroke-miterlimit="10" width="3.5" height="3.5"/>
			</g>
			<g>
				
					<rect x="85.4" y="216.1" fill="none" stroke="#C8C8C8" stroke-width="1.6676" stroke-miterlimit="10" width="3.5" height="3.5"/>
				
					<rect x="85.4" y="222.4" fill="none" stroke="#C8C8C8" stroke-width="1.6676" stroke-miterlimit="10" width="3.5" height="3.5"/>
				
					<rect x="85.4" y="228.8" fill="none" stroke="#C8C8C8" stroke-width="1.6676" stroke-miterlimit="10" width="3.5" height="3.5"/>
			</g>
			<g>
				
					<rect x="101.7" y="216.1" fill="none" stroke="#C8C8C8" stroke-width="1.6676" stroke-miterlimit="10" width="3.5" height="3.5"/>
				
					<rect x="101.7" y="222.4" fill="none" stroke="#C8C8C8" stroke-width="1.6676" stroke-miterlimit="10" width="3.5" height="3.5"/>
				
					<rect x="101.7" y="228.8" fill="none" stroke="#C8C8C8" stroke-width="1.6676" stroke-miterlimit="10" width="3.5" height="3.5"/>
			</g>
			<g>
				
					<rect x="93.5" y="216.1" fill="none" stroke="#C8C8C8" stroke-width="1.6676" stroke-miterlimit="10" width="3.5" height="3.5"/>
				
					<rect x="93.5" y="222.4" fill="none" stroke="#C8C8C8" stroke-width="1.6676" stroke-miterlimit="10" width="3.5" height="3.5"/>
				
					<rect x="93.5" y="228.8" fill="none" stroke="#C8C8C8" stroke-width="1.6676" stroke-miterlimit="10" width="3.5" height="3.5"/>
			</g>
			<g>
				
					<rect x="77.3" y="216.1" fill="none" stroke="#C8C8C8" stroke-width="1.6676" stroke-miterlimit="10" width="3.5" height="3.5"/>
				
					<rect x="77.3" y="222.4" fill="none" stroke="#C8C8C8" stroke-width="1.6676" stroke-miterlimit="10" width="3.5" height="3.5"/>
				
					<rect x="77.3" y="228.8" fill="none" stroke="#C8C8C8" stroke-width="1.6676" stroke-miterlimit="10" width="3.5" height="3.5"/>
			</g>
		</g>
	</g>
</g>
<path fill="#FFFFFF" stroke="#B1F2D9" stroke-width="1.6676" stroke-miterlimit="10" d="M123.6,237.5
	C123.6,237.5,123.6,237.4,123.6,237.5c0-1.4,1-2.4,2.3-2.4c0,0,0.1,0,0.1,0c0.5-1.4,1.9-2.4,3.4-2.4c0.5,0,0.9,0.1,1.3,0.3
	c0.7-0.7,1.6-1.1,2.6-1.1c1.6,0,3,1.1,3.5,2.5c0,0,0,0,0,0c1.3,0,2.4,1.1,2.4,2.4c0,0.2,0,0.5-0.1,0.7H123.6z"/>
<g>
	<path fill="#FFFFFF" stroke="#B1F2D9" stroke-width="1.7571" stroke-miterlimit="10" d="M295,225.8c0-1.8,1.1-3.4,2.7-4.2
		c1.5-6.6,10.9-6.7,12.5-0.1c1.8,0.8,2.8,2.5,2.8,4.2c0,4.2-3.9,6.7-8.8,6.7C298.9,232.4,295,230.1,295,225.8z"/>
	
		<line fill="#FFFFFF" stroke="#B1F2D9" stroke-width="1.7571" stroke-linecap="round" stroke-miterlimit="10" x1="304" y1="223.6" x2="304" y2="238.6"/>
	
		<line fill="#FFFFFF" stroke="#B1F2D9" stroke-width="1.7571" stroke-linecap="round" stroke-miterlimit="10" x1="307.8" y1="228.1" x2="304.2" y2="230.2"/>
	
		<line fill="#FFFFFF" stroke="#B1F2D9" stroke-width="1.7571" stroke-linecap="round" stroke-miterlimit="10" x1="303.6" y1="228" x2="300.4" y2="225.4"/>
</g>
<g>
	<path fill="#FFFFFF" stroke="#B1F2D9" stroke-width="1.7571" stroke-miterlimit="10" d="M205.8,224.7c0-1.8,1.1-3.4,2.7-4.2
		c1.5-6.6,10.9-6.7,12.5-0.1c1.8,0.8,2.8,2.5,2.8,4.2c0,4.2-3.9,6.7-8.8,6.7C209.7,231.3,205.8,229,205.8,224.7z"/>
	
		<line fill="#FFFFFF" stroke="#B1F2D9" stroke-width="1.7571" stroke-linecap="round" stroke-miterlimit="10" x1="214.7" y1="222.5" x2="214.7" y2="237.5"/>
	
		<line fill="#FFFFFF" stroke="#B1F2D9" stroke-width="1.7571" stroke-linecap="round" stroke-miterlimit="10" x1="218.6" y1="227" x2="215" y2="229.1"/>
	
		<line fill="#FFFFFF" stroke="#B1F2D9" stroke-width="1.7571" stroke-linecap="round" stroke-miterlimit="10" x1="214.4" y1="226.9" x2="211.1" y2="224.3"/>
</g>
<g>
	<path fill="#FFFFFF" stroke="#B1F2D9" stroke-width="1.7571" stroke-miterlimit="10" d="M183.4,229.5c0-1.2,0.7-2.3,1.8-2.8
		c1-4.4,7.3-4.5,8.4-0.1c1.2,0.5,1.8,1.7,1.8,2.8c0,2.8-2.6,4.5-5.9,4.5C186,233.9,183.4,232.4,183.4,229.5z"/>
	
		<line fill="#FFFFFF" stroke="#B1F2D9" stroke-width="1.7571" stroke-linecap="round" stroke-miterlimit="10" x1="189.4" y1="227.4" x2="189.4" y2="237.5"/>
	
		<line fill="#FFFFFF" stroke="#B1F2D9" stroke-width="1.7571" stroke-linecap="round" stroke-miterlimit="10" x1="192" y1="230.5" x2="189.5" y2="231.9"/>
	
		<line fill="#FFFFFF" stroke="#B1F2D9" stroke-width="1.7571" stroke-linecap="round" stroke-miterlimit="10" x1="189.2" y1="230.4" x2="187" y2="228.6"/>
</g>
<path fill="#FFFFFF" stroke="#B1F2D9" stroke-width="1.7571" stroke-miterlimit="10" d="M6.4,237.8c0,0,0-0.8,0-0.8
	c0-1.2,1-2.3,2.3-2.3c0,0,0.1,0,0.1,0c0.5-1.4,1.8-2.4,3.4-2.4c0.5,0,0.9,0.1,1.3,0.3c0.7-0.7,1.6-1.1,2.5-1.1c1.6,0,2.9,1,3.4,2.5
	c0,0,0,0,0,0c1.3,0,2.3,1,2.3,2.3c0,0.2,0,1.2-0.1,1.4H6.4z"/>
<path fill="#FFFFFF" stroke="#B1F2D9" stroke-width="1.7571" stroke-miterlimit="10" d="M266.9,237.5c0,0,0-0.1,0-0.1
	c0-1.8,1.5-3.3,3.3-3.3c0.1,0,0.1,0,0.2,0c0.8-2,2.7-3.4,4.9-3.4c0.7,0,1.3,0.1,1.9,0.4c1-1,2.3-1.6,3.7-1.6c2.3,0,4.3,1.5,5,3.7
	c0,0,0,0,0,0c1.9,0,3.4,1.5,3.4,3.4c0,0.3-0.1,0.7-0.2,1H266.9z"/>
<g>
	<path fill="#FFFFFF" stroke="#B1F2D9" stroke-width="1.7571" stroke-miterlimit="10" d="M31.8,223.5c0,4.2,2.3,7.1,5.2,7.1
		c2.9,0,5.2-2.9,5.2-7.1c0-4.2-2.3-14.7-5.2-14.7C34.2,208.8,31.8,219.3,31.8,223.5z"/>
	
		<line fill="#FFFFFF" stroke="#B1F2D9" stroke-width="1.7571" stroke-linecap="round" stroke-linejoin="round" stroke-miterlimit="10" x1="37.1" y1="217.8" x2="37.1" y2="237.5"/>
</g>
<g>
	<path fill="#FFFFFF" stroke="#B1F2D9" stroke-width="1.7571" stroke-miterlimit="10" d="M21.3,226.2c0,3.3,1.8,5.6,4.1,5.6
		c2.3,0,4.1-2.3,4.1-5.6s-1.8-11.5-4.1-11.5C23.1,214.7,21.3,222.9,21.3,226.2z"/>
	
		<line fill="#FFFFFF" stroke="#B1F2D9" stroke-width="1.7571" stroke-linecap="round" stroke-linejoin="round" stroke-miterlimit="10" x1="25.4" y1="221.8" x2="25.4" y2="237.5"/>
</g>
<g opacity="0.15">
	<g>
		<path fill="#646464" d="M617.7,55h-17c-0.8,0-1.4-0.6-1.4-1.4c0-0.8,0.6-1.4,1.4-1.4h17c0.8,0,1.4,0.6,1.4,1.4
			C619.1,54.4,618.5,55,617.7,55z"/>
		<path fill="#646464" d="M623.2,59.2H611c-0.8,0-1.4-0.6-1.4-1.4c0-0.8,0.6-1.4,1.4-1.4h12.2c0.8,0,1.4,0.6,1.4,1.4
			C624.6,58.6,624,59.2,623.2,59.2z"/>
	</g>
	<g>
		<path fill="#646464" d="M626.2,50.8h-31.1c-0.8,0-1.4-0.6-1.4-1.4c0-0.8,0.6-1.4,1.4-1.4h31.1c0.8,0,1.4,0.6,1.4,1.4
			C627.6,50.2,626.9,50.8,626.2,50.8z"/>
		<path fill="#646464" d="M617.7,55h-12.2c-0.8,0-1.4-0.6-1.4-1.4c0-0.8,0.6-1.4,1.4-1.4h12.2c0.8,0,1.4,0.6,1.4,1.4
			C619.1,54.4,618.5,55,617.7,55z"/>
	</g>
</g>
<g opacity="0.15">
	<path fill="#646464" d="M741.5,27.7h-32.3c-0.8,0-1.4-0.6-1.4-1.4c0-0.8,0.6-1.4,1.4-1.4h32.3c0.8,0,1.4,0.6,1.4,1.4
		C742.9,27.1,742.3,27.7,741.5,27.7z"/>
	<path fill="#646464" d="M752,33.7h-23.2c-0.8,0-1.4-0.6-1.4-1.4c0-0.8,0.6-1.4,1.4-1.4H752c0.8,0,1.4,0.6,1.4,1.4
		C753.5,33.1,752.8,33.7,752,33.7z"/>
</g>
<g opacity="0.15">
	<path fill="#646464" d="M160.6,61.5h16.9c0.8,0,1.4-0.6,1.4-1.4c0-0.8-0.6-1.4-1.4-1.4h-16.9c-0.8,0-1.4,0.6-1.4,1.4
		C159.2,60.8,159.8,61.5,160.6,61.5z"/>
	<path fill="#646464" d="M145.1,61.5h8c0.8,0,1.4-0.6,1.4-1.4c0-0.8-0.6-1.4-1.4-1.4h-8c-0.8,0-1.4,0.6-1.4,1.4
		C143.7,60.8,144.3,61.5,145.1,61.5z"/>
	<path fill="#646464" d="M150.3,67.6h17.8c0.8,0,1.4-0.6,1.4-1.4c0-0.8-0.6-1.4-1.4-1.4h-17.8c-0.8,0-1.4,0.6-1.4,1.4
		C148.9,67,149.5,67.6,150.3,67.6z"/>
</g>
<g opacity="0.15">
	<path fill="#646464" d="M33.9,38H65c0.8,0,1.4-0.6,1.4-1.4c0-0.8-0.6-1.4-1.4-1.4H33.9c-0.8,0-1.4,0.6-1.4,1.4
		C32.5,37.3,33.1,38,33.9,38z"/>
	<path fill="#646464" d="M42.5,44.8h17.8c0.8,0,1.4-0.6,1.4-1.4c0-0.8-0.6-1.4-1.4-1.4H42.5c-0.8,0-1.4,0.6-1.4,1.4
		C41.1,44.1,41.7,44.8,42.5,44.8z"/>
	<g>
		<path fill="#646464" d="M37.4,31.1h9.2c0.8,0,1.4-0.6,1.4-1.4c0-0.8-0.6-1.4-1.4-1.4h-9.2c-0.8,0-1.4,0.6-1.4,1.4
			C36,30.5,36.6,31.1,37.4,31.1z"/>
		<path fill="#646464" d="M54,31.1h4.7c0.8,0,1.4-0.6,1.4-1.4c0-0.8-0.6-1.4-1.4-1.4H54c-0.8,0-1.4,0.6-1.4,1.4
			C52.6,30.5,53.2,31.1,54,31.1z"/>
	</g>
</g>
<g>
	<g>
		<path fill="#34E3AB" d="M646.7,115.2c0,1.9-1.3,2.3-1.7,5c-0.1,0.3-0.3,0.6-0.7,0.6h-1.1H642c-0.4,0-0.7-0.3-0.7-0.6
			c-0.5-2.7-1.7-3-1.7-5c0-1.9,1.6-3.5,3.6-3.5C645,111.7,646.7,113.3,646.7,115.2z M644.7,121.6c0,0.2-0.1,0.3-0.3,0.3h-2.5
			c-0.2,0-0.3-0.1-0.3-0.3c0-0.2,0.1-0.3,0.3-0.3h2.5C644.5,121.3,644.7,121.5,644.7,121.6z M644.7,122.8c0,0.2-0.1,0.3-0.3,0.3
			h-2.5c-0.2,0-0.3-0.1-0.3-0.3c0-0.2,0.1-0.3,0.3-0.3h2.5C644.5,122.5,644.7,122.6,644.7,122.8z M642.1,123.6h2l-0.5,0.7h-0.9
			L642.1,123.6z"/>
	</g>
	<g transform="translate(0,-952.36218)">
		<path fill="#34E3AB" stroke="#34E3AB" stroke-width="0.6" stroke-miterlimit="10" d="M643.1,1061.3c-3.4,0-6.5,1-8.7,2.7
			c-2.3,1.7-3.7,4-3.7,6.5c0,3.3,2.3,6.1,5.7,7.7v4.7c0,0.2,0.2,0.4,0.4,0.4c0.1,0,0.2,0,0.2-0.1l4.9-3.5h1.3c3.4,0,6.5-1,8.7-2.7
			c2.3-1.7,3.7-4,3.7-6.5s-1.4-4.9-3.7-6.5C649.6,1062.3,646.5,1061.3,643.1,1061.3z M643.1,1062c3.3,0,6.2,1,8.3,2.5
			c2.1,1.6,3.4,3.7,3.4,6c0,2.3-1.3,4.4-3.4,6c-2.1,1.6-5.1,2.5-8.3,2.5h-1.4c-0.1,0-0.1,0-0.2,0.1l-4.4,3.1v-4.2
			c0-0.1-0.1-0.3-0.2-0.3c-3.3-1.5-5.5-4.2-5.5-7.2c0-2.3,1.3-4.4,3.4-6C636.9,1063,639.8,1062,643.1,1062z"/>
	</g>
</g>
<g>
	<g transform="translate(0,-952.36218)">
		<path fill="#34E3AB" stroke="#34E3AB" stroke-width="0.6" stroke-miterlimit="10" d="M202.5,1077.7c-3.4,0-6.5,1-8.7,2.7
			c-2.3,1.7-3.7,4-3.7,6.5c0,3.3,2.3,6.1,5.7,7.7v4.7c0,0.2,0.2,0.4,0.4,0.4c0.1,0,0.2,0,0.2-0.1l4.9-3.5h1.3c3.4,0,6.5-1,8.7-2.7
			s3.7-4,3.7-6.5s-1.4-4.9-3.7-6.5C209,1078.7,205.9,1077.7,202.5,1077.7z M202.5,1078.4c3.3,0,6.2,1,8.3,2.5s3.4,3.7,3.4,6
			s-1.3,4.4-3.4,6s-5.1,2.5-8.3,2.5h-1.4c-0.1,0-0.1,0-0.2,0.1l-4.4,3.1v-4.2c0-0.1-0.1-0.3-0.2-0.3c-3.3-1.5-5.5-4.2-5.5-7.2
			c0-2.3,1.3-4.4,3.4-6S199.2,1078.4,202.5,1078.4z"/>
	</g>
	<path fill="#34E3AB" d="M207.2,135.9c0.9-0.8,1.4-1.9,1.4-3c0-0.2-0.2-0.3-0.4-0.2l-1.7,1.4c-0.1,0-0.1,0.1-0.2,0.1l-2.4-0.5
		c-0.1,0-0.2-0.1-0.2-0.2l-0.1-2.5c0-0.1,0-0.2,0.1-0.2l1.7-1.4c0.2-0.1,0.1-0.4-0.1-0.4c-1.1-0.2-2.3,0.1-3.2,0.9
		c-1.1,0.9-1.6,2.3-1.4,3.5c0,0.2,0,0.3-0.2,0.4l-4.3,3.7c-0.1,0.1-0.1,0.2,0,0.3l2.2,2.6c0.1,0.1,0.2,0.1,0.3,0l4.3-3.6
		c0.1-0.1,0.3-0.1,0.4-0.1C204.7,137,206.1,136.8,207.2,135.9z"/>
</g>
<g>
	<g transform="translate(0,-952.36218)">
		<path fill="#34E3AB" stroke="#34E3AB" stroke-width="0.6" stroke-miterlimit="10" d="M462.3,1133c-3.4,0-6.5,1-8.7,2.7
			s-3.7,4-3.7,6.5c0,3.3,2.3,6.1,5.7,7.7v4.7c0,0.2,0.2,0.4,0.4,0.4c0.1,0,0.2,0,0.2-0.1l4.9-3.5h1.3c3.4,0,6.5-1,8.7-2.7
			c2.3-1.7,3.7-4,3.7-6.5s-1.4-4.9-3.7-6.5C468.8,1134,465.7,1133,462.3,1133z M462.3,1133.7c3.3,0,6.2,1,8.3,2.5
			c2.1,1.6,3.4,3.7,3.4,6c0,2.3-1.3,4.4-3.4,6s-5.1,2.5-8.3,2.5h-1.4c-0.1,0-0.1,0-0.2,0.1l-4.4,3.1v-4.2c0-0.1-0.1-0.3-0.2-0.3
			c-3.3-1.5-5.5-4.2-5.5-7.2c0-2.3,1.3-4.4,3.4-6C456.1,1134.7,459,1133.7,462.3,1133.7z"/>
	</g>
	<g>
		<path fill="#34E3AB" d="M464.9,194.7c-1.5,0-2.7-1.2-2.7-2.7c0-1.9,2.4-3.9,2.5-4l0.2-0.1l0.2,0.1c0.1,0.1,2.5,2,2.5,4
			C467.6,193.5,466.4,194.7,464.9,194.7z"/>
	</g>
	<g>
		<path fill="#34E3AB" d="M459.7,191.3c-1.5,0-2.7-1.2-2.7-2.7c0-1.9,2.4-3.9,2.5-4l0.2-0.1l0.2,0.1c0.1,0.1,2.5,2,2.5,4
			C462.4,190.1,461.2,191.3,459.7,191.3z"/>
	</g>
</g>
<path fill="#C8C8C8" stroke="#C8C8C8" stroke-width="2" stroke-miterlimit="10" d="M1.8,239.5h796.4c1,0,1.8-0.3,1.8-0.7
	c0-0.4-0.8-0.7-1.8-0.7H1.8c-1,0-1.8,0.3-1.8,0.7C0,239.2,0.8,239.5,1.8,239.5z"/>
</svg>
