<?xml version="1.0" encoding="utf-8"?>
<!-- Generator: Adobe Illustrator 18.1.1, SVG Export Plug-In . SVG Version: 6.00 Build 0)  -->
<svg version="1.1" id="Layer_1" xmlns="http://www.w3.org/2000/svg" xmlns:xlink="http://www.w3.org/1999/xlink" x="0px" y="0px"
	 viewBox="0 0 657.4 211.3" enable-background="new 0 0 657.4 211.3" xml:space="preserve">
<g>
	<path fill="#3E73B0" d="M269.7,54.6v25.2l6.7,7.4h-5.2c-0.7,0.7-1.5,0.7-1.5,1.5v40.8l6.7,1.5V93.2h7.4c0.7,0,0.7,0,0.7-0.7v-6.7
		l-9.6-11.1V39c0,0,0-0.7-0.7-0.7h-15.6c-0.7,0-0.7,0.7-1.5,1.5v14.8l-12.6-14.8H243l-40.8,46v5.9c0,1.5,0.7,1.5,1.5,1.5h6.7v34.9
		h6.7V88.7c-0.7-1.5-0.7-1.5-1.5-1.5h-5.2L243,49.4h0.7c5.9,6.7,11.9,13.4,17.1,20c0.7,0,1.5,0,2.2-0.7V43.5h6.7L269.7,54.6
		L269.7,54.6L269.7,54.6z M365.4,131V36.8c0-2.2,0-3,0.7-4.5c1.5-0.7,2.2-1.5,3.7-1.5h77.9c1.5,0.7,3,1.5,3.7,2.2
		c0.7,0.7,0.7,1.5,1.5,3v93.5l-5.9-0.7V36.1h-75.7v94.2L365.4,131z"/>
	<path fill="#3E73B0" d="M380.3,48.7h11.1c2.2,0.7,2.2,1.5,3,3v11.9h-5.2l0.7-10.4h-9.6L380.3,48.7L380.3,48.7z M401,48.7h11.9
		c1.5,0.7,2.2,1.5,2.2,3v11.9h-4.4V53.1H401L401,48.7L401,48.7z M423.3,48.7h11.1c2.2,0.7,2.2,1.5,3,3v11.9h-4.5V53.1h-9.6V48.7z
		 M380.3,74.7h11.1c2.2,0.7,2.2,0.7,3,3v11.9h-5.2l0.7-10.4h-9.6L380.3,74.7L380.3,74.7z M401,74.7h11.9c1.5,0.7,2.2,0.7,2.2,3v11.9
		h-4.4V79.1H401L401,74.7L401,74.7z M423.3,74.7h11.1c2.2,0.7,2.2,0.7,3,3v11.9h-4.5V79.1h-9.6V74.7z M380.3,99.1h11.1
		c2.2,0.7,2.2,1.5,3,3V114h-5.2l0.7-10.4h-9.6L380.3,99.1L380.3,99.1z M401,99.1h11.9c1.5,0.7,2.2,1.5,2.2,3V114h-4.4v-10.4H401
		L401,99.1L401,99.1z M423.3,99.1h11.1c2.2,0.7,2.2,1.5,3,3V114h-4.5v-10.4h-9.6V99.1z M246,90.2h11.1c2.2,0,3,0.7,3,3v11.9h-4.5
		V94.7H246V90.2z M224.5,90.2h11.1c2.2,0,2.2,0.7,3,3v34.1h-4.5V94.7h-9.6V90.2z M290.5,131.8V13.1c0.7-1.5,0.7-2.2,1.5-3.7
		c0.7-0.7,2.2-1.5,3-1.5h57.1c1.5,0,3,0.7,3.7,1.5c0.7,1.5,0.7,2.2,1.5,3.7v118.7l-5.9,0.7V13.1h-8.2v120.2h-3.7V13.1h-8.2v122.4h-3
		V13.1h-8.2v122.4h-3.7V13.1h-8.2v120.2h-3.7V13.1h-8.2v119.4L290.5,131.8L290.5,131.8z"/>
	<path fill="#3E73B0" d="M428.5,131.8c-11.9,0-26.7,1.5-35.6,3c-8.9,1.5-31.2,5.2-39.3,5.2c-8.2,0.7-17.8,1.5-23.7,1.5
		c-5.2,0-14.8-0.7-23-1.5c-8.2,0-30.4-3.7-39.3-5.2s-23.7-3-35.6-3c-12.6,0-26.7,3.7-26.7,3.7v6.7c0,0,16.3-5.2,26.7-5.2
		c9.6,0,27.4,2.2,34.1,3c5.9,0.7,23,3.7,39.3,5.2c11.9,1.5,22.3,1.5,24.5,1.5c3,0,13.4,0,25.2-1.5c16.3-1.5,33.4-4.5,39.3-5.2
		c6.7-0.7,23.7-3,34.1-3s26.7,5.2,26.7,5.2v-6.7C455.2,135.5,441.1,131.8,428.5,131.8z"/>
</g>
<g>
	<path fill="#3E73B0" d="M220,180.9v12.4h-7.1v-12.4l-11-16.9h8.6l6.3,10.8L223,164h8.3L220,180.9z"/>
	<path fill="#3E73B0" d="M262.7,178.6c0,2.3-0.4,4.4-1.2,6.4c-0.8,1.9-1.9,3.6-3.3,4.9c-1.4,1.4-3.1,2.4-5.1,3.2
		c-2,0.7-4.1,1.1-6.4,1.1c-2.3,0-4.4-0.4-6.4-1.1c-1.9-0.7-3.6-1.8-5.1-3.2c-1.4-1.4-2.5-3-3.3-4.9s-1.2-4-1.2-6.4
		c0-2.3,0.4-4.5,1.2-6.4c0.8-1.9,1.9-3.5,3.3-4.8c1.4-1.3,3.1-2.3,5.1-3.1c1.9-0.7,4.1-1.1,6.4-1.1c2.3,0,4.4,0.4,6.4,1.1
		c2,0.7,3.7,1.7,5.1,3.1s2.5,2.9,3.3,4.8C262.3,174.1,262.7,176.2,262.7,178.6z M255.1,178.6c0-1.3-0.2-2.5-0.6-3.6s-1-2-1.7-2.8
		s-1.6-1.4-2.7-1.9c-1-0.5-2.2-0.7-3.4-0.7s-2.4,0.2-3.4,0.7c-1,0.5-1.9,1.1-2.7,1.9s-1.3,1.7-1.7,2.8s-0.6,2.3-0.6,3.6
		c0,1.3,0.2,2.5,0.6,3.7s1,2.1,1.7,2.9c0.7,0.8,1.6,1.4,2.6,1.9c1,0.5,2.2,0.7,3.4,0.7s2.4-0.2,3.4-0.7c1-0.5,1.9-1.1,2.7-1.9
		c0.7-0.8,1.3-1.8,1.7-2.9S255.1,179.9,255.1,178.6z"/>
	<path fill="#3E73B0" d="M291.3,187.1c-0.6,1.4-1.4,2.7-2.5,3.7c-1.1,1-2.4,1.8-4,2.4c-1.6,0.6-3.3,0.9-5.2,0.9
		c-1.9,0-3.7-0.3-5.2-0.9c-1.5-0.6-2.9-1.4-3.9-2.4c-1.1-1-1.9-2.3-2.5-3.7c-0.6-1.4-0.9-3.1-0.9-4.8V164h7v17.7
		c0,0.8,0.1,1.6,0.3,2.3s0.5,1.4,1,1.9c0.4,0.6,1,1,1.7,1.3c0.7,0.3,1.6,0.5,2.5,0.5c1,0,1.8-0.2,2.5-0.5c0.7-0.3,1.3-0.8,1.7-1.3
		c0.4-0.6,0.8-1.2,1-1.9s0.3-1.5,0.3-2.3V164h7.1v18.3C292.2,184.1,291.9,185.7,291.3,187.1z"/>
	<path fill="#3E73B0" d="M313.6,193.3l-6.4-11.6h-2.4v11.6h-6.9V164h11.2c1.4,0,2.8,0.1,4.1,0.4c1.3,0.3,2.5,0.8,3.6,1.5
		c1.1,0.7,1.9,1.6,2.5,2.7s1,2.5,1,4.2c0,2-0.5,3.7-1.6,5c-1.1,1.4-2.6,2.3-4.5,2.9l7.7,12.5H313.6z M313.3,173
		c0-0.7-0.1-1.2-0.4-1.7s-0.7-0.8-1.1-1c-0.5-0.2-1-0.4-1.5-0.5c-0.6-0.1-1.1-0.1-1.6-0.1h-3.8v6.8h3.4c0.6,0,1.2,0,1.8-0.1
		c0.6-0.1,1.2-0.3,1.7-0.5c0.5-0.2,0.9-0.6,1.2-1.1C313.2,174.4,313.3,173.8,313.3,173z"/>
	<path fill="#3E73B0" d="M335.7,193.3V164h7.1v23.1h11.3v6.2H335.7z"/>
	<path fill="#3E73B0" d="M386.8,178.6c0,2.3-0.4,4.4-1.2,6.4c-0.8,1.9-1.9,3.6-3.3,4.9c-1.4,1.4-3.1,2.4-5.1,3.2
		c-2,0.7-4.1,1.1-6.4,1.1c-2.3,0-4.4-0.4-6.4-1.1c-1.9-0.7-3.6-1.8-5.1-3.2c-1.4-1.4-2.5-3-3.3-4.9s-1.2-4-1.2-6.4
		c0-2.3,0.4-4.5,1.2-6.4c0.8-1.9,1.9-3.5,3.3-4.8c1.4-1.3,3.1-2.3,5.1-3.1c1.9-0.7,4.1-1.1,6.4-1.1c2.3,0,4.4,0.4,6.4,1.1
		c2,0.7,3.7,1.7,5.1,3.1s2.5,2.9,3.3,4.8C386.4,174.1,386.8,176.2,386.8,178.6z M379.2,178.6c0-1.3-0.2-2.5-0.6-3.6s-1-2-1.7-2.8
		s-1.6-1.4-2.7-1.9c-1-0.5-2.2-0.7-3.4-0.7s-2.4,0.2-3.4,0.7c-1,0.5-1.9,1.1-2.7,1.9s-1.3,1.7-1.7,2.8s-0.6,2.3-0.6,3.6
		c0,1.3,0.2,2.5,0.6,3.7s1,2.1,1.7,2.9c0.7,0.8,1.6,1.4,2.6,1.9c1,0.5,2.2,0.7,3.4,0.7s2.4-0.2,3.4-0.7c1-0.5,1.9-1.1,2.7-1.9
		c0.7-0.8,1.3-1.8,1.7-2.9S379.2,179.9,379.2,178.6z"/>
	<path fill="#3E73B0" d="M412.5,193.4c-1.9,0.5-4,0.7-6.3,0.7c-2.3,0-4.5-0.4-6.5-1.1c-2-0.7-3.7-1.8-5.1-3.1
		c-1.4-1.4-2.5-3-3.3-4.9c-0.8-1.9-1.2-4-1.2-6.3c0-2.3,0.4-4.5,1.2-6.4s1.9-3.5,3.4-4.9c1.4-1.3,3.1-2.4,5.1-3.1
		c1.9-0.7,4-1.1,6.3-1.1c2.3,0,4.5,0.4,6.5,1.1c2,0.7,3.6,1.7,4.8,2.8l-4.5,5.1c-0.7-0.8-1.6-1.5-2.7-2c-1.1-0.5-2.4-0.8-3.9-0.8
		c-1.2,0-2.4,0.2-3.4,0.7c-1,0.5-2,1.1-2.7,1.9c-0.8,0.8-1.4,1.8-1.8,2.9c-0.4,1.1-0.6,2.3-0.6,3.7c0,1.4,0.2,2.6,0.6,3.7
		c0.4,1.1,1,2.1,1.7,2.9c0.8,0.8,1.7,1.4,2.8,1.9c1.1,0.5,2.4,0.7,3.8,0.7c0.8,0,1.6-0.1,2.4-0.2c0.7-0.1,1.4-0.3,2.1-0.6v-5.3h-5.6
		V176h12.1v15.5C416.1,192.3,414.4,192.9,412.5,193.4z"/>
	<path fill="#3E73B0" d="M453.9,178.6c0,2.3-0.4,4.4-1.2,6.4c-0.8,1.9-1.9,3.6-3.3,4.9c-1.4,1.4-3.1,2.4-5.1,3.2
		c-2,0.7-4.1,1.1-6.4,1.1c-2.3,0-4.4-0.4-6.4-1.1c-1.9-0.7-3.6-1.8-5.1-3.2c-1.4-1.4-2.5-3-3.3-4.9s-1.2-4-1.2-6.4
		c0-2.3,0.4-4.5,1.2-6.4c0.8-1.9,1.9-3.5,3.3-4.8c1.4-1.3,3.1-2.3,5.1-3.1c1.9-0.7,4.1-1.1,6.4-1.1c2.3,0,4.4,0.4,6.4,1.1
		c2,0.7,3.7,1.7,5.1,3.1s2.5,2.9,3.3,4.8C453.5,174.1,453.9,176.2,453.9,178.6z M446.3,178.6c0-1.3-0.2-2.5-0.6-3.6s-1-2-1.7-2.8
		s-1.6-1.4-2.7-1.9c-1-0.5-2.2-0.7-3.4-0.7s-2.4,0.2-3.4,0.7c-1,0.5-1.9,1.1-2.7,1.9s-1.3,1.7-1.7,2.8s-0.6,2.3-0.6,3.6
		c0,1.3,0.2,2.5,0.6,3.7s1,2.1,1.7,2.9c0.7,0.8,1.6,1.4,2.6,1.9c1,0.5,2.2,0.7,3.4,0.7s2.4-0.2,3.4-0.7c1-0.5,1.9-1.1,2.7-1.9
		c0.7-0.8,1.3-1.8,1.7-2.9S446.3,179.9,446.3,178.6z"/>
</g>
</svg>
