<?xml version="1.0" encoding="utf-8"?>
<!-- Generator: Adobe Illustrator 18.1.1, SVG Export Plug-In . SVG Version: 6.00 Build 0)  -->
<svg version="1.1" id="Layer_1" xmlns="http://www.w3.org/2000/svg" xmlns:xlink="http://www.w3.org/1999/xlink" x="0px" y="0px"
	 viewBox="0 0 657.4 211.3" enable-background="new 0 0 657.4 211.3" xml:space="preserve">
<g>
	<path fill="#34E3AB" stroke="#34E3AB" stroke-width="3.3171" stroke-linejoin="round" stroke-miterlimit="10" d="M236,174.6
		c3.4,0,7.4-0.7,11.8-2c4.3-1.3,8.4-3.5,12.2-6.6c3.8-3,7-7.1,9.7-12.2c2.6-4.9,3.9-11.4,3.9-19V55.7h-15v80.3
		c0,3.9-0.7,7.4-2.1,10.5c-1.4,3-3.3,5.6-5.6,7.8c-2.3,2.1-4.9,3.7-7.8,4.9c-2.9,1.1-5.9,1.7-8.9,1.7c-4.4,0-8.8-1.2-12.9-3.5
		c-2.3-1.3-4.4-2.9-6.2-4.8l-8.9,8.8c3.3,3.5,7.3,6.4,11.7,8.8C223.5,173.1,229.6,174.6,236,174.6z"/>
	<path fill="#34E3AB" stroke="#34E3AB" stroke-width="3.3171" stroke-linejoin="round" stroke-miterlimit="10" d="M356.4,173v-46.4
		c0-7.2-0.7-13.2-2.2-17.7c-1.4-4.3-3.9-8.3-7.4-11.8c-2.7-2.8-6.2-5-10.5-6.8c-4.4-1.8-9.6-2.7-15.3-2.7c-6.2,0-12.3,1.2-18.1,3.5
		c-4.5,1.8-8.5,4.1-12.2,7l7.5,7.6c2.8-2.1,5.6-3.6,8.4-4.6c3.8-1.3,7.6-2,11.2-2c7.6,0,13.6,2,17.9,5.9c4.4,4,6.6,9.4,6.6,16v4.3
		h-17.4c-5.6,0-11,0.6-15.9,1.8c-4.7,1.1-8.9,2.9-12.3,5.2c-3.3,2.2-6,5-7.9,8.3c-1.9,3.2-2.8,7-2.8,11.4c0,3.5,0.6,6.7,1.8,9.6
		c1.2,2.8,2.9,5.3,5.1,7.3c2.2,2.1,4.9,3.7,7.9,4.8c3.1,1.1,6.7,1.7,10.6,1.7c4.4,0,8.7-0.5,12.9-1.5c3.9-0.9,7.8-2.6,11.3-5.1
		l6.7-4.6v8.7H356.4z M340.1,158.1c-3.6,2.2-7.3,3.8-10.9,5c-3.7,1.2-7.5,1.8-11.3,1.8c-4.9,0-9-1.3-12.3-4
		c-3.5-2.8-5.3-6.6-5.3-11.1c0-3.2,0.9-6,2.7-8.3c1.6-2.1,3.8-3.8,6.4-5.1c2.4-1.2,5.3-2,8.5-2.5c3-0.5,6.2-0.7,9.6-0.7h14.7v23.6
		L340.1,158.1z"/>
	<path fill="#34E3AB" stroke="#34E3AB" stroke-width="3.3171" stroke-linejoin="round" stroke-miterlimit="10" d="M413.7,87.6
		c-6.1,0-12,1.1-17.3,3.4s-10,5.4-13.9,9.3c-3.9,3.9-7,8.6-9.3,14c-2.3,5.3-3.4,11.1-3.4,17.2c0,6.3,1.2,12.1,3.4,17.5
		c2.3,5.4,5.4,10,9.4,13.9c3.9,3.9,8.6,6.9,14,9.1c5.4,2.2,11.2,3.3,17.2,3.3c6.6,0,12.9-1.3,18.9-3.8c4.7-2,8.8-4.6,12.4-8
		l-9.5-9.5c-2,2.2-4.4,4-7.1,5.6c-4.3,2.5-9.2,3.8-14.5,3.8c-4.1,0-8.1-0.9-11.8-2.6c-3.7-1.7-6.9-4-9.5-6.9
		c-2.7-2.9-4.8-6.3-6.4-10.1c-1.6-3.9-2.4-8-2.4-12.4c0-4.3,0.8-8.5,2.4-12.4c1.6-3.9,3.7-7.3,6.5-10.1c2.7-2.8,5.9-5.1,9.5-6.8
		c3.7-1.7,7.6-2.6,11.7-2.6c5.5,0,10.3,1.2,14.3,3.6c2.4,1.4,4.5,3.1,6.4,5l9.2-9.4c-3.5-3.3-7.6-5.8-12-7.6
		C426.3,88.8,420.1,87.6,413.7,87.6z"/>
	<polygon fill="#34E3AB" stroke="#34E3AB" stroke-width="3.3171" stroke-linejoin="round" stroke-miterlimit="10" points="523.8,97 
		514.9,88.1 470.1,133 514.9,177.8 523.8,168.9 487.8,133 	"/>
	
		<rect x="457" y="59" fill="#34E3AB" stroke="#34E3AB" stroke-width="3.3171" stroke-linejoin="round" stroke-miterlimit="10" width="13.1" height="115.2"/>
</g>
<g>
	
		<ellipse transform="matrix(0.9863 -0.165 0.165 0.9863 -18.5143 17.3878)" fill="#34E3AB" cx="95.4" cy="120.1" rx="76.1" ry="73.2"/>
	<g>
		<path fill="#FFFFFF" d="M58.5,173.2c-21.3,0-39.4-15.3-42.9-36.3c-1.9-11.4,0.8-22.9,7.5-32.4c6.8-9.5,16.8-15.7,28.2-17.6
			l75-12.6c2.4-0.4,4.8-0.6,7.1-0.6c21.3,0,39.4,15.3,42.9,36.3c4,23.6-12.1,46.1-35.7,50l-75,12.6C63.3,173,60.8,173.2,58.5,173.2z
			"/>
		<path fill="#34E3AB" d="M133.5,78.2c18.7,0,35.3,13.6,38.5,32.5l0,0c3.5,21.1-10.9,41.3-32,44.9l-75,12.6
			c-2.2,0.4-4.3,0.5-6.4,0.5c-18.7,0-35.3-13.6-38.5-32.5l0,0C16.5,115,30.9,94.8,52,91.3l75-12.6C129.2,78.4,131.3,78.2,133.5,78.2
			 M133.5,69.2v8.9V69.2c-2.6,0-5.3,0.2-7.9,0.7l-75,12.6c-12.6,2.1-23.6,9-31.1,19.5C12,112.4,9.1,125,11.2,137.6
			c1.9,11.2,7.7,21.4,16.5,28.8c8.7,7.2,19.6,11.2,30.8,11.2c2.6,0,5.3-0.2,7.9-0.7l75-12.6c12.6-2.1,23.6-9,31.1-19.5
			c7.5-10.4,10.4-23.1,8.3-35.7c-1.9-11.2-7.7-21.4-16.5-28.8C155.6,73.2,144.7,69.2,133.5,69.2L133.5,69.2z"/>
	</g>
	<path opacity="0.33" fill="#34E3AB" d="M46.4,105.1c9.4-6,24.3-11.1,33.2-0.5c8.8,10.7,4.8,29.6-2.9,39.7
		C54,173.9,13.8,127.9,46.4,105.1C47,104.8,43.8,107,46.4,105.1z"/>
	<circle fill="#34E3AB" cx="79.7" cy="26.4" r="12.3"/>
	
		<rect x="78.9" y="31.5" transform="matrix(0.9863 -0.165 0.165 0.9863 -6.0683 14.2283)" fill="#34E3AB" width="7.5" height="24.2"/>
	<path fill="#34E3AB" d="M101.6,147.9c0,0,3.5-3.4,5.9-6.5c2.7-3.5,1.7-8.1-2.6-9.9c-1.1-0.5-2.3-0.7-3.4-0.5l-8.2,1.4
		c-1.2,0.2-2.2,0.8-3.1,1.6c-3.5,3.1-2.9,7.8,0.8,10.2c3.3,2.1,8,4.1,8,4.1"/>
	<path fill="none" stroke="#34E3AB" stroke-width="4.3713" stroke-linecap="round" stroke-miterlimit="10" d="M113.6,149
		c-2,3.8-6.3,6.8-11.7,7.7c-5.8,1-11.3-0.8-14.4-4.2"/>
	
		<rect x="98.6" y="143.9" transform="matrix(0.9863 -0.165 0.165 0.9863 -23.5518 18.6666)" fill="#34E3AB" width="4" height="14.4"/>
	<g>
		<circle fill="#34E3AB" cx="64" cy="129.2" r="9.4"/>
		<circle fill="#34E3AB" cx="128.1" cy="118.6" r="9.4"/>
	</g>
</g>
</svg>
