<?xml version="1.0" encoding="utf-8"?>
<!-- Generator: Adobe Illustrator 18.1.1, SVG Export Plug-In . SVG Version: 6.00 Build 0)  -->
<svg version="1.1" id="Layer_1" xmlns="http://www.w3.org/2000/svg" xmlns:xlink="http://www.w3.org/1999/xlink" x="0px" y="0px"
	 viewBox="0 0 657.4 211.3" enable-background="new 0 0 657.4 211.3" xml:space="preserve">
<g>
	<path fill="#FFFFFF" stroke="#FFFFFF" stroke-width="3.8336" stroke-linejoin="round" stroke-miterlimit="10" d="M239.6,179.5
		c3.9,0,8.5-0.8,13.6-2.3c4.9-1.5,9.7-4,14.1-7.6c4.4-3.5,8.1-8.3,11.2-14.1c3-5.7,4.5-13.1,4.5-22V42.1h-17.4V135
		c0,4.5-0.8,8.5-2.4,12.1c-1.6,3.5-3.8,6.5-6.5,9c-2.7,2.4-5.7,4.3-9,5.6c-3.3,1.3-6.8,1.9-10.3,1.9c-5.1,0-10.1-1.4-14.9-4
		c-2.7-1.5-5.1-3.4-7.2-5.5L205,164.2c3.8,4,8.4,7.4,13.5,10.1C225.2,177.8,232.3,179.5,239.6,179.5z"/>
	<path fill="#FFFFFF" stroke="#FFFFFF" stroke-width="3.8336" stroke-linejoin="round" stroke-miterlimit="10" d="M378.8,177.6V124
		c0-8.3-0.9-15.2-2.6-20.4c-1.6-5-4.5-9.5-8.5-13.6c-3.1-3.2-7.2-5.8-12.2-7.9c-5.1-2.1-11.1-3.1-17.7-3.1c-7.1,0-14.2,1.4-21,4
		c-5.2,2-9.9,4.8-14.1,8.1l8.7,8.8c3.2-2.4,6.5-4.2,9.8-5.3c4.4-1.5,8.8-2.3,13-2.3c8.8,0,15.8,2.3,20.7,6.8
		c5.1,4.6,7.7,10.8,7.7,18.5v4.9h-20.1c-6.5,0-12.7,0.7-18.3,2.1c-5.5,1.3-10.2,3.3-14.3,6c-3.9,2.6-6.9,5.8-9.2,9.5
		c-2.2,3.7-3.3,8.1-3.3,13.1c0,4.1,0.7,7.8,2.1,11.1c1.4,3.2,3.3,6.1,5.9,8.5c2.5,2.4,5.6,4.3,9.1,5.6c3.6,1.3,7.7,2,12.2,2
		c5.1,0,10.1-0.6,14.9-1.7c4.6-1.1,9-3,13.1-5.9l7.7-5.3v10.1H378.8z M360,160.5c-4.2,2.5-8.5,4.4-12.6,5.8
		c-4.3,1.4-8.7,2.1-13.1,2.1c-5.7,0-10.4-1.5-14.2-4.6c-4-3.2-6.1-7.7-6.1-12.8c0-3.7,1.1-6.9,3.1-9.6c1.9-2.4,4.4-4.4,7.4-5.9
		c2.8-1.4,6.1-2.4,9.8-2.9c3.5-0.5,7.2-0.8,11.1-0.8h17V159L360,160.5z"/>
	<path fill="#FFFFFF" stroke="#FFFFFF" stroke-width="3.8336" stroke-linejoin="round" stroke-miterlimit="10" d="M445.1,79
		c-7.1,0-13.8,1.3-20,3.9c-6.2,2.6-11.6,6.2-16.1,10.7c-4.5,4.5-8.1,10-10.8,16.1c-2.6,6.1-4,12.8-4,19.9c0,7.2,1.3,14,4,20.2
		c2.6,6.2,6.3,11.6,10.8,16.1c4.5,4.5,10,8,16.2,10.6c6.2,2.5,12.9,3.8,19.9,3.8c7.6,0,15-1.5,21.9-4.4c5.4-2.3,10.2-5.4,14.4-9.3
		l-10.9-10.9c-2.3,2.5-5.1,4.6-8.2,6.5c-5,2.9-10.7,4.4-16.8,4.4c-4.7,0-9.3-1-13.6-3c-4.2-2-7.9-4.7-11-8
		c-3.1-3.3-5.6-7.2-7.4-11.7c-1.8-4.5-2.7-9.3-2.7-14.3c0-5,0.9-9.8,2.7-14.3c1.8-4.5,4.3-8.4,7.5-11.7c3.1-3.3,6.8-5.9,11-7.9
		c4.2-2,8.8-3,13.6-3c6.4,0,11.9,1.4,16.5,4.2c2.7,1.6,5.2,3.6,7.4,5.8l10.6-10.9c-4.1-3.8-8.7-6.7-13.9-8.8
		C459.6,80.4,452.5,79,445.1,79z"/>
	<polygon fill="#FFFFFF" stroke="#FFFFFF" stroke-width="3.8336" stroke-linejoin="round" stroke-miterlimit="10" points="
		572.3,89.8 562,79.5 510.2,131.4 562,183.2 572.3,173 530.7,131.4 	"/>
	
		<rect x="495" y="45.9" fill="#FFFFFF" stroke="#FFFFFF" stroke-width="3.8336" stroke-linejoin="round" stroke-miterlimit="10" width="15.2" height="133.1"/>
</g>
<ellipse transform="matrix(0.9863 -0.165 0.165 0.9863 -18.4522 17.7151)" fill="#FFFFFF" cx="97.4" cy="119.9" rx="76.1" ry="73.2"/>
<g>
	<path fill="#282828" d="M60.5,172.9c-21.3,0-39.4-15.3-42.9-36.3c-1.9-11.4,0.8-22.9,7.5-32.4c6.8-9.5,16.8-15.7,28.2-17.6l75-12.6
		c2.4-0.4,4.8-0.6,7.1-0.6c21.3,0,39.4,15.3,42.9,36.3c4,23.6-12.1,46.1-35.7,50l-75,12.6C65.3,172.7,62.9,172.9,60.5,172.9z"/>
	<path fill="#FFFFFF" d="M135.5,78c18.7,0,35.3,13.6,38.5,32.5v0c3.5,21.1-10.9,41.3-32,44.9l-75,12.6c-2.2,0.4-4.3,0.5-6.4,0.5
		c-18.7,0-35.3-13.6-38.5-32.5v0c-3.5-21.1,10.9-41.3,32-44.9l75-12.6C131.2,78.2,133.3,78,135.5,78 M135.5,69V78V69
		c-2.6,0-5.3,0.2-7.9,0.7l-75,12.6c-12.6,2.1-23.6,9-31.1,19.5c-7.5,10.4-10.4,23.1-8.3,35.7c1.9,11.2,7.7,21.4,16.5,28.8
		c8.7,7.2,19.6,11.2,30.8,11.2c2.6,0,5.3-0.2,7.9-0.7l75-12.6c12.6-2.1,23.6-9,31.1-19.5c7.5-10.4,10.4-23.1,8.3-35.7
		c-1.9-11.2-7.7-21.4-16.5-28.8C157.6,73,146.7,69,135.5,69L135.5,69z"/>
</g>
<path opacity="0.23" fill="#FFFFFF" d="M48.4,104.9c9.4-6,24.3-11.1,33.2-0.5c8.8,10.7,4.8,29.6-2.9,39.7
	C56,173.7,15.8,127.7,48.4,104.9C49,104.6,45.8,106.7,48.4,104.9z"/>
<circle fill="#FFFFFF" cx="81.7" cy="26.2" r="12.3"/>
<rect x="80.9" y="31.3" transform="matrix(0.9863 -0.165 0.165 0.9863 -6.0061 14.5556)" fill="#FFFFFF" width="7.5" height="24.2"/>
<path fill="#FFFFFF" d="M103.6,147.7c0,0,3.5-3.4,5.9-6.5c2.7-3.5,1.7-8.1-2.6-9.9c-1.1-0.5-2.3-0.7-3.4-0.5l-8.2,1.4
	c-1.2,0.2-2.2,0.8-3.1,1.6c-3.5,3.1-2.9,7.8,0.8,10.2c3.3,2.1,8,4.1,8,4.1"/>
<path fill="none" stroke="#FFFFFF" stroke-width="4.3713" stroke-linecap="round" stroke-miterlimit="10" d="M115.6,148.8
	c-2,3.8-6.3,6.8-11.7,7.7c-5.8,1-11.3-0.8-14.4-4.2"/>
<rect x="100.6" y="143.7" transform="matrix(0.9863 -0.165 0.165 0.9863 -23.4897 18.9939)" fill="#FFFFFF" width="4" height="14.4"/>
<g>
	<circle fill="#FFFFFF" cx="66" cy="129" r="9.4"/>
	<circle fill="#FFFFFF" cx="130.1" cy="118.4" r="9.4"/>
</g>
</svg>
