<?xml version="1.0" encoding="utf-8"?>
<!-- Generator: Adobe Illustrator 18.1.1, SVG Export Plug-In . SVG Version: 6.00 Build 0)  -->
<svg version="1.1" xmlns="http://www.w3.org/2000/svg" xmlns:xlink="http://www.w3.org/1999/xlink" x="0px" y="0px"
	 viewBox="0 0 855 607" enable-background="new 0 0 855 607" xml:space="preserve">
<g id="Layer_5" display="none">
	<g display="inline">
		<g>
			<g>
				<g>
					<path fill="#FF7211" d="M556.3,243.8c0,0,21.9,10.4,13.6,52.9c-8.3,42.5-25.3,39.8-28.9,42.9l4.6-23.6c0,0,6.7,1.4,11.3-21.9
						c0,0,4-23.1-3.8-26.6c-7.8-3.6-0.6-13.4,0-14.1C553.8,252.8,556.3,243.8,556.3,243.8z"/>
				</g>
				<g>
					<path fill="#662483" d="M541,341.5c-0.3,0-0.6-0.1-0.9-0.3c-0.7-0.4-1-1.2-0.9-2l4.6-23.6c0.1-0.5,0.3-1.1,0.8-1.3
						c0.5-0.3,0.9-0.3,1.3-0.2c1.5-0.1,6-4,9.2-20.4c1.4-8.3,2-22.4-2.7-24.6c-3.2-1.5-4.2-3.8-4.6-5.5c-0.9-4.7,2.9-10.2,3.9-11.3
						c0.4-0.9,1.8-5.3,2.8-9c0.1-0.5,0.5-1,1-1.2c0.5-0.2,1.1-0.2,1.6,0c0.9,0.5,23.1,11.5,14.6,54.9c-7,36-20.6,40.7-27,42.9
						c-1.1,0.4-2.1,0.7-2.5,1C541.9,341.3,541.4,341.5,541,341.5z M547.2,317.7l-3.7,18.7c5.9-2,18-6.3,24.6-40.1
						c6.5-33.3-5.7-46-10.7-49.7c-2.1,7.2-2.6,7.8-2.9,8.1c-0.5,0.5-3.7,5.1-3,8.4c0.3,1.2,1,2.1,2.4,2.7c4,1.8,5.9,7.3,5.9,16.4
						c0,6.3-1,12-1.1,12.3C555.2,312.5,550.1,316.8,547.2,317.7z"/>
				</g>
			</g>
			<g>
				<g>
					<path fill="#FFB22C" d="M548.1,231.6c0,0-5.3-1.1-6.3,3.9c-0.7,3.7-4,20.4-5.6,28.8c-1.1,5.9,4.4,5.9,4.4,5.9
						c8.7,1.7,17.2-4,18.9-12.7l1.4-7C562.5,241.8,556.8,233.3,548.1,231.6z"/>
				</g>
				<g>
					<path fill="#662483" d="M543.6,272.4C543.6,272.4,543.6,272.4,543.6,272.4c-1.1,0-2.2-0.1-3.3-0.3c-0.8,0-3.2-0.3-4.8-2.3
						c-1.2-1.5-1.6-3.4-1.1-5.8l5.6-28.8c0.7-3.5,3.2-5.5,6.9-5.5c0.9,0,1.5,0.1,1.6,0.1c4.7,0.9,8.7,3.6,11.4,7.6
						c2.7,4,3.6,8.8,2.7,13.5l-1.4,7C559.6,266.3,552.2,272.4,543.6,272.4z M546.9,233.3c-2.5,0-3,1.4-3.2,2.5l-5.6,28.8
						c-0.2,1.2-0.1,2.2,0.3,2.8c0.7,0.9,2.2,1,2.2,1c0.1,0,0.2,0,0.3,0c0.9,0.2,1.8,0.3,2.8,0.3c6.8,0,12.7-4.8,14-11.5l1.4-7
						c0.7-3.7,0-7.5-2.2-10.7c-2.1-3.2-5.3-5.3-9.1-6C547.7,233.4,547.4,233.3,546.9,233.3z"/>
				</g>
			</g>
			<g>
				<g>
					<path fill="#FFB22C" d="M533.5,306c0,0-5.3-1.1-6.3,3.9c-0.7,3.7-4,20.4-5.6,28.8c-1.1,5.9,4.4,5.9,4.4,5.9
						c8.7,1.7,17.2-4,18.9-12.7l1.4-7C547.9,316.2,542.2,307.7,533.5,306z"/>
				</g>
				<g>
					<path fill="#662483" d="M529.1,346.8L529.1,346.8c-1.1,0-2.2-0.1-3.3-0.3c-0.8,0-3.2-0.3-4.8-2.3c-1.2-1.5-1.6-3.4-1.1-5.8
						l5.6-28.8c0.7-3.5,3.2-5.5,6.9-5.5c0.9,0,1.5,0.1,1.6,0.1c9.7,1.9,16,11.3,14.1,21l-1.4,7C545,340.7,537.6,346.8,529.1,346.8z
						 M532.3,307.7c-2.4,0-3,1.4-3.2,2.5l-5.6,28.8c-0.2,1.2-0.1,2.2,0.3,2.7c0.6,0.8,1.8,1,2.2,1c0.1,0,0.2,0,0.3,0
						c0.9,0.2,1.8,0.3,2.8,0.3c6.8,0,12.7-4.8,14-11.5l1.4-7c1.5-7.7-3.5-15.2-11.2-16.7C533.1,307.8,532.8,307.7,532.3,307.7z"/>
				</g>
			</g>
		</g>
		<g>
			<g>
				<g>
					<path fill="#4DC9DB" d="M315.6,437.8c0.6,0.2,1.2,0.4,1.7,0.6c26.4,8.2,50.4,7.8,51.4,7.7l-0.6-28.3c-0.8,0-78.6,0.9-92.5-52.4
						l-27.4,7.1C256.3,403.6,279.6,426.2,315.6,437.8z"/>
				</g>
				<g>
					<path fill="#662483" d="M367.5,448c-6,0-27.4-0.6-50.8-7.8c-0.6-0.2-1.2-0.4-1.8-0.6c-36.6-11.9-60.3-34.9-68.6-66.6
						c-0.1-0.5-0.1-1,0.2-1.4c0.2-0.4,0.7-0.7,1.1-0.9l27.4-7.1c1-0.3,2,0.3,2.3,1.3c5.4,20.8,21.4,35.6,47.4,44.1
						c20.6,6.7,40.6,6.9,42.8,6.9l0.4,0c1,0,1.9,0.8,1.9,1.8l0.6,28.3c0,0.5-0.2,1-0.5,1.3c-0.3,0.4-0.8,0.6-1.3,0.6
						C368.7,448,368.2,448,367.5,448z M250.5,373.8c8.3,29.5,31,51,65.7,62.2c0.6,0.2,1.1,0.4,1.7,0.5c22.1,6.9,42.4,7.6,49,7.7
						l-0.5-24.7c-5.9-0.1-23.8-0.9-42.6-7.1c-26.2-8.5-43.2-24.1-49.4-44.9L250.5,373.8z"/>
				</g>
			</g>
		</g>
		<g>
			<g>
				<g>
					<path fill="#4DC9DB" d="M541.2,436.5v-27.1c28.9,0,50.5-8,60.7-22.5c7.3-10.4,8.6-23.6,3.7-37.4c-6.5-18.4-31.8-32.5-41-36.4
						l10.6-25c1.8,0.8,44.1,19,55.9,52.3c7.8,22,5.2,44.6-7.1,62.1C613.1,418,589.8,436.5,541.2,436.5z"/>
				</g>
				<g>
					<path fill="#662483" d="M541.2,438.4c-1,0-1.8-0.8-1.8-1.8v-27.1c0-1,0.8-1.8,1.8-1.8c28.3,0,49.3-7.7,59.2-21.7
						c7-9.8,8.2-22.5,3.5-35.7c-6.3-17.8-31-31.5-40-35.3c-0.5-0.2-0.8-0.6-1-1c-0.2-0.5-0.2-1,0-1.4l10.6-25c0.2-0.5,0.6-0.8,1-1
						c0.5-0.2,1-0.2,1.4,0c1.8,0.8,44.9,19.4,57,53.4c8,22.6,5.3,45.8-7.4,63.8C614.3,419.5,590.6,438.4,541.2,438.4z M543,411.3
						v23.4c46.6-0.5,68.9-18.2,79.5-33.2c12-17,14.5-39,6.9-60.4c-10.4-29.2-45-46.7-53.2-50.5l-9.1,21.5
						c10.5,4.8,33.9,18.8,40.3,36.7c5.1,14.4,3.7,28.2-4,39.1C593,402.7,571.6,410.9,543,411.3z"/>
				</g>
			</g>
		</g>
		<g>
			<g>
				<g>
					<path fill="#4DC9DB" d="M450.6,333.2l-13.1-3.3l0,0h0h0l0,0l-13.1,3.3c0,0-61.6,14.8-69,104.3h164.3
						C512.2,348,450.6,333.2,450.6,333.2z"/>
				</g>
				<g>
					<path fill="#662483" d="M519.6,439.4H355.3c-0.5,0-1-0.2-1.4-0.6c-0.4-0.4-0.5-0.9-0.5-1.4c3.9-46.8,22.7-73.1,37.9-86.9
						c16.5-15,31.9-18.9,32.5-19l13.1-3.3c0.3-0.1,0.6-0.1,0.9,0l13.1,3.3c0.6,0.2,16,4,32.5,19c15.1,13.8,34,40.1,37.9,86.9
						c0,0.5-0.1,1-0.5,1.4C520.6,439.2,520.1,439.4,519.6,439.4z M357.3,435.7h160.2c-2.3-25-10.6-58.8-36.3-82.4
						c-15.8-14.5-30.9-18.3-31.1-18.3l-12.7-3.2l-12.7,3.2c-0.2,0-15.3,3.8-31.1,18.3C368,376.9,359.7,410.7,357.3,435.7z"/>
				</g>
			</g>
			<g opacity="0.3">
				<g>
					<path fill="#029BD7" d="M443.8,335.9l2.4-0.6l-10.2-2.6v0h0h0v0l-12.6,3.1c0,0-58.9,14.1-65.9,99.7h20.4
						C385,350,443.8,335.9,443.8,335.9z"/>
				</g>
			</g>
			<g>
				<g>
					<path fill="#FBC7B6" d="M452.5,334.3c0.1-0.7,0.2-1.3,0.2-2V322c0-8.2-6.6-14.8-14.8-14.8c-8.2,0-14.8,6.6-14.8,14.8v10.3
						c0,0.6,0.1,1.3,0.1,1.9c-2.2,0.7-7.1,2.4-13.4,5.9c3.7,12.9,14.8,22.3,27.8,22.3c13,0,24-9.4,27.8-22.3
						C459.6,336.7,454.9,335,452.5,334.3z"/>
				</g>
				<g>
					<path fill="#662483" d="M437.7,364.1c-13.6,0-25.5-9.5-29.6-23.6l-0.4-1.4l1.3-0.7c5.3-2.9,9.6-4.6,12.3-5.6c0-0.2,0-0.4,0-0.6
						V322c0-9.2,7.5-16.6,16.6-16.6c9.2,0,16.6,7.5,16.6,16.6v10.3c0,0.2,0,0.5,0,0.8c2.6,0.9,6.8,2.6,11.8,5.4l1.3,0.7l-0.4,1.4
						C463.1,354.6,451.2,364.1,437.7,364.1z M412.1,340.9c4,11.8,14.1,19.6,25.6,19.6c11.5,0,21.6-7.8,25.6-19.6
						c-5.1-2.7-9.2-4.2-11.3-4.9l-1.5-0.5l0.2-1.5c0.1-0.7,0.1-1.3,0.1-1.8V322c0-7.1-5.8-12.9-12.9-12.9c-7.1,0-12.9,5.8-12.9,12.9
						v10.3c0,0.5,0,1,0.1,1.7l0.2,1.5l-1.5,0.5C421.7,336.5,417.5,338,412.1,340.9z"/>
				</g>
			</g>
			<g>
				<g>
					<path fill="#662483" d="M465.1,190.2c0,12.4-10,22.4-22.4,22.4h-12.4c-12.4,0-22.4-10-22.4-22.4v-10c0-12.4,10-22.4,22.4-22.4
						h12.4c12.4,0,22.4,10,22.4,22.4V190.2z"/>
				</g>
			</g>
			<g>
				<g>
					<path fill="#FBC7B6" d="M482.6,280.1c0,24.7-39.3,44.7-44.7,44.7l0,0c-6.6,0-44.7-20-44.7-44.7v-32.2c0-24.7,20-44.7,44.7-44.7
						l0,0c24.7,0,44.7,20,44.7,44.7V280.1z"/>
				</g>
				<g>
					<path fill="#662483" d="M437.9,326.6c-7.2,0-46.5-20.4-46.5-46.5v-32.2c0-25.6,20.9-46.5,46.5-46.5c25.6,0,46.5,20.9,46.5,46.5
						v32.2C484.4,305.5,444.9,326.6,437.9,326.6z M437.9,205c-23.6,0-42.8,19.2-42.8,42.8v32.2c0,22.9,36.6,42.8,42.8,42.8
						c4.7,0,42.8-19.7,42.8-42.8v-32.2C480.7,224.2,461.5,205,437.9,205z"/>
				</g>
			</g>
			<g>
				<g>
					<path fill="#89579F" d="M450,180.8h-24.7c-24.7,0-44.7,20-44.7,44.7v19.9c0,12,4.8,23,12.5,31v-27.7c0-2.2,0.7-6.8,1-9
						c0,0,5.2-34.7,43.7-35.7c24.7-0.6,44.7,20,44.7,44.7v27.3c7.5-8,12.1-18.7,12.1-30.6v-19.9C494.6,200.8,474.6,180.8,450,180.8z
						"/>
				</g>
				<g>
					<path fill="#662483" d="M393.2,278.2c-0.5,0-1-0.2-1.3-0.6c-8.4-8.7-13-20.2-13-32.3v-19.9c0-25.6,20.9-46.5,46.5-46.5H450
						c25.6,0,46.5,20.9,46.5,46.5v19.9c0,11.9-4.5,23.2-12.6,31.8c-0.5,0.6-1.3,0.7-2,0.5c-0.7-0.3-1.2-1-1.2-1.7v-27.3
						c0-24-19.3-43.4-42.8-42.8c-15.4,0.4-27.1,6.2-34.8,17.4c-5.8,8.4-7.1,16.6-7.1,16.7c-0.3,2-1,6.6-1,8.7v27.7
						c0,0.8-0.5,1.4-1.2,1.7C393.7,278.1,393.4,278.2,393.2,278.2z M425.3,182.6c-23.6,0-42.8,19.2-42.8,42.8v19.9
						c0,9.5,3.1,18.6,8.8,26v-22.7c0-2.3,0.7-7,1-9.2c0.1-0.4,5.8-36.3,45.5-37.3c25.6-0.7,46.5,20.5,46.5,46.5v22.2
						c5.5-7.3,8.4-16.2,8.4-25.5v-19.9c0-23.6-19.2-42.8-42.8-42.8H425.3z"/>
				</g>
			</g>
			<g opacity="0.3">
				<g>
					<g>
						<path fill="#662483" d="M391.8,255.7l-1.2-22.2c-1.2-13.6,0.3-39.1,50.1-51.8l-16.1-0.9c-24.7,0-44.7,20-44.7,44.7v19.9
							c0,12,4.8,23,12.5,31v-1.2C390.2,269.4,391.8,262.3,391.8,255.7z"/>
					</g>
				</g>
			</g>
			<g>
				<g>
					<path fill="#662483" d="M412.3,275.2c-11.5,0-20.9-9.4-20.9-20.9c0-1.5,0.2-3.1,0.5-4.7c0.2-0.8,0.9-1.4,1.8-1.4h37.1
						c0.9,0,1.6,0.6,1.8,1.4c0.4,1.6,0.5,3.2,0.5,4.7C433.2,265.8,423.8,275.2,412.3,275.2z M395.3,251.9c-0.1,0.8-0.2,1.6-0.2,2.4
						c0,9.5,7.7,17.2,17.2,17.2c9.5,0,17.2-7.7,17.2-17.2c0-0.8-0.1-1.6-0.2-2.4H395.3z"/>
				</g>
			</g>
			<g>
				<g>
					<path fill="#662483" d="M464.1,275.2c-11.5,0-20.9-9.4-20.9-20.9c0-1.5,0.2-3.1,0.5-4.7c0.2-0.8,0.9-1.4,1.8-1.4h37.1
						c0.9,0,1.6,0.6,1.8,1.4c0.4,1.6,0.5,3.2,0.5,4.7C484.9,265.8,475.6,275.2,464.1,275.2z M447.1,251.9c-0.1,0.8-0.2,1.6-0.2,2.4
						c0,9.5,7.7,17.2,17.2,17.2c9.5,0,17.2-7.7,17.2-17.2c0-0.8-0.1-1.6-0.2-2.4H447.1z"/>
				</g>
			</g>
			<g>
				<g>
					<path fill="#662483" d="M444.5,252.6c-0.5,0-0.9-0.2-1.3-0.5c-1.4-1.4-3.2-2.1-5.1-2.1c-1.9,0-3.8,0.8-5.1,2.1
						c-0.7,0.7-1.9,0.7-2.6,0c-0.7-0.7-0.7-1.9,0-2.6c2.1-2.1,4.8-3.2,7.8-3.2c2.9,0,5.7,1.1,7.8,3.2c0.7,0.7,0.7,1.9,0,2.6
						C445.5,252.4,445,252.6,444.5,252.6z"/>
				</g>
			</g>
			<g>
				<g>
					<path fill="#662483" d="M415.8,266.3c-5.1,0-9.2-3.2-9.2-7.2c0-1,0.8-1.8,1.8-1.8c1,0,1.8,0.8,1.8,1.8c0,1.9,2.5,3.5,5.5,3.5
						c3,0,5.5-1.6,5.5-3.5c0-1,0.8-1.8,1.8-1.8c1,0,1.8,0.8,1.8,1.8C424.9,263.2,420.9,266.3,415.8,266.3z"/>
				</g>
			</g>
			<g>
				<g>
					<path fill="#662483" d="M461,266.3c-5.1,0-9.2-3.2-9.2-7.2c0-1,0.8-1.8,1.8-1.8c1,0,1.8,0.8,1.8,1.8c0,1.9,2.5,3.5,5.5,3.5
						c3,0,5.5-1.6,5.5-3.5c0-1,0.8-1.8,1.8-1.8s1.8,0.8,1.8,1.8C470.2,263.2,466.2,266.3,461,266.3z"/>
				</g>
			</g>
			<g>
				<g>
					<path fill="#FBC7B6" d="M438.7,259.5c0,0-0.4,9.9,7,19.7c5.1,6.8,0,11.1-10.7,8.6L438.7,259.5z"/>
				</g>
				<g>
					<path fill="#662483" d="M440.6,290.4c-1.8,0-3.8-0.2-6-0.8c-1-0.2-1.6-1.2-1.4-2.2c0.2-1,1.2-1.6,2.2-1.4
						c5.7,1.3,9.2,0.5,10.1-0.9c0.7-1,0.2-2.8-1.3-4.8c-7.7-10.3-7.4-20.5-7.3-20.9c0-1,0.9-1.8,1.9-1.8c1,0,1.8,0.9,1.8,1.9l0,0
						c0,0.1-0.3,9.4,6.6,18.5c3.4,4.6,2.4,7.6,1.5,9C447.3,289.3,444.5,290.4,440.6,290.4z"/>
				</g>
			</g>
			<g>
				<g>
					<path fill="#662483" d="M452.2,245.8c-0.9,0-1.8-0.4-2.4-1.2c-1.1-1.3-0.8-3.3,0.5-4.3c0.5-0.4,5.6-4.1,17-4.1
						c1.7,0,3.1,1.4,3.1,3.1c0,1.7-1.4,3.1-3.1,3.1c-9.2,0-13.2,2.8-13.2,2.8C453.5,245.5,452.9,245.8,452.2,245.8z"/>
				</g>
			</g>
			<g>
				<g>
					<path fill="#662483" d="M425.2,246.4c-0.7,0-1.3-0.2-1.9-0.6c-0.1-0.1-4.1-2.9-13.3-2.9c-1.7,0-3.1-1.4-3.1-3.1
						c0-1.7,1.4-3.1,3.1-3.1c11.4,0,16.5,3.7,17,4.1c1.3,1.1,1.6,3,0.5,4.3C427,246,426.1,246.4,425.2,246.4z"/>
				</g>
			</g>
			<g>
				<g>
					<path fill="#89579F" d="M424.7,180.8c-24.7,0-44.7,20-44.7,44.7v19.9c0,12,4.8,23,12.5,31v-27.7c0-2.2,2.7-13.4,2.7-13.4
						s24.9,0,38.3-24.9l-6.1-5.3c3-0.6,6.2-1,9.8-1.1c1.5,0,2.9,0,4.3,0.1v-23.3H424.7z"/>
				</g>
				<g>
					<path fill="#662483" d="M392.6,278.2c-0.5,0-1-0.2-1.3-0.6c-8.4-8.7-13-20.2-13-32.3v-19.9c0-25.6,20.9-46.5,46.5-46.5h16.8
						c1,0,1.8,0.8,1.8,1.8v23.3c0,0.5-0.2,1-0.6,1.4c-0.4,0.4-0.9,0.5-1.4,0.5c-1.4-0.1-2.8-0.1-4.1-0.1c-1.9,0-3.8,0.2-5.6,0.4
						l3.1,2.7c0.7,0.6,0.8,1.5,0.4,2.3c-12,22.3-32.7,25.4-38.4,25.8c-1,4.3-2.3,10.4-2.3,11.7v27.7c0,0.8-0.5,1.4-1.2,1.7
						C393.1,278.1,392.8,278.2,392.6,278.2z M424.7,182.6c-23.6,0-42.8,19.2-42.8,42.8v19.9c0,9.5,3.1,18.6,8.8,26v-22.7
						c0-2.3,2.3-12,2.7-13.9c0.2-0.8,0.9-1.4,1.8-1.4c1,0,23.2-0.3,35.9-22.6l-4.9-4.3c-0.5-0.5-0.8-1.2-0.6-1.9
						c0.2-0.7,0.7-1.2,1.4-1.3c3.2-0.6,6.6-1,10.1-1.1c0.8,0,1.7,0,2.5,0v-19.5H424.7z"/>
				</g>
			</g>
			<g>
				<g>
					<path fill="#FBC7B6" d="M482.6,255.7c0.2,0,0.4,0,0.7,0c4.8,0,8.7,3.9,8.7,8.6v6.2c0,4.7-3.9,8.6-8.7,8.6c-0.2,0-0.4,0-0.7,0
						V255.7z"/>
				</g>
				<g>
					<path fill="#662483" d="M483.2,280.9c-0.3,0-0.5,0-0.8,0l-1.7-0.1l0-1.7v-25.1l1.7-0.1c0.3,0,0.5,0,0.8,0
						c5.8,0,10.5,4.7,10.5,10.4v6.2C493.8,276.2,489,280.9,483.2,280.9z M484.4,257.6v19.5c3.2-0.6,5.6-3.3,5.6-6.6v-6.2
						C490.1,260.9,487.6,258.1,484.4,257.6z"/>
				</g>
			</g>
			<g>
				<g>
					<path fill="#FBC7B6" d="M393.1,255.5c-0.2,0-0.4,0-0.7,0c-4.8,0-8.7,3.9-8.7,8.6v6.2c0,4.7,3.9,8.6,8.7,8.6c0.2,0,0.4,0,0.7,0
						V255.5z"/>
				</g>
				<g>
					<path fill="#662483" d="M392.5,280.7c-5.8,0-10.5-4.7-10.5-10.4V264c0-5.8,4.7-10.4,10.5-10.4c0.3,0,0.5,0,0.8,0l1.7,0.1l0,1.7
						v25.1l-1.7,0.1C393,280.7,392.8,280.7,392.5,280.7z M391.3,257.4c-3.2,0.6-5.6,3.3-5.6,6.6v6.2c0,3.3,2.4,6.1,5.6,6.6V257.4z"
						/>
				</g>
			</g>
			<g>
				<g>
					<g>
						<g>
							<g>
								<path fill="#ED5050" d="M432.2,302.8c-0.6,0-1-0.4-1-1c0,0,0-0.1,0-0.1c0-2,1.6-3.7,3.7-3.7c2,0,3.7,1.6,3.7,3.7
									c0,0,0,0.1,0,0.2c0,0.5-0.5,1-1,1H432.2z"/>
							</g>
						</g>
						<g>
							<g>
								<path fill="#ED5050" d="M434.8,299c1.5,0,2.6,1.2,2.6,2.6c0,0,0,0.1,0,0.1h-5.3c0,0,0-0.1,0-0.1
									C432.2,300.2,433.3,299,434.8,299L434.8,299z M434.8,296.9c-2.6,0-4.7,2.1-4.7,4.7c0,0,0,0.1,0,0.2c0,1.1,0.9,2,2,2h5.3
									c1.1,0,2-0.8,2-1.9c0-0.1,0-0.2,0-0.2C439.5,299.1,437.4,296.9,434.8,296.9L434.8,296.9z"/>
							</g>
						</g>
					</g>
				</g>
				<g>
					<g>
						<g>
							<g>
								<path fill="#ED5050" d="M440.2,302.8c-0.5,0-0.9-0.4-1-0.9c0,0,0-0.1,0-0.1c0-2,1.6-3.6,3.6-3.6c2,0,3.6,1.6,3.6,3.6
									c0,0,0,0.1,0,0.1c0,0.5-0.4,0.9-1,0.9H440.2z"/>
							</g>
						</g>
						<g>
							<g>
								<path fill="#ED5050" d="M442.9,299.1c1.5,0,2.6,1.2,2.6,2.6c0,0,0,0.1,0,0.1h-5.3c0,0,0-0.1,0-0.1
									C440.2,300.3,441.4,299.1,442.9,299.1L442.9,299.1z M442.9,297.2c-2.5,0-4.6,2-4.6,4.6c0,0,0,0.1,0,0.2
									c0.1,1,0.9,1.8,1.9,1.8h5.3c1,0,1.9-0.8,1.9-1.8c0,0,0-0.1,0-0.2C447.4,299.2,445.4,297.2,442.9,297.2L442.9,297.2z"/>
							</g>
						</g>
					</g>
				</g>
				<g>
					<g>
						<path fill="#ED5050" d="M432,308.2L432,308.2c0,2.5,2,4.5,4.5,4.5h3.6c2.5,0,4.5-2,4.5-4.5l0,0H432z"/>
					</g>
					<g>
						<path fill="#ED5050" d="M440.1,313.7h-3.6c-3.1,0-5.6-2.5-5.6-5.6c0-0.6,0.5-1,1-1h12.6c0.6,0,1,0.5,1,1
							C445.6,311.2,443.1,313.7,440.1,313.7z M433.1,309.2c0.4,1.4,1.8,2.5,3.4,2.5h3.6c1.6,0,2.9-1,3.4-2.5H433.1z"/>
					</g>
				</g>
			</g>
			<g>
				<g>
					<path fill="#F7B2B2" d="M421.9,284.2c0,2.5-2,4.5-4.5,4.5h-9c-2.5,0-4.5-2-4.5-4.5l0,0c0-2.5,2-4.5,4.5-4.5h9
						C419.9,279.7,421.9,281.7,421.9,284.2L421.9,284.2z"/>
				</g>
			</g>
			<g>
				<g>
					<path fill="#F7B2B2" d="M474.5,284.2c0,2.5-2,4.5-4.5,4.5h-9c-2.5,0-4.5-2-4.5-4.5l0,0c0-2.5,2-4.5,4.5-4.5h9
						C472.4,279.7,474.5,281.7,474.5,284.2L474.5,284.2z"/>
				</g>
			</g>
			<g>
				<g>
					<path fill="#89579F" d="M410.8,183.9c0,0,10.7,47.7,87.1,50.6C497.9,234.5,507.8,161,410.8,183.9z"/>
				</g>
				<g>
					<path fill="#662483" d="M497.9,236.3C497.8,236.3,497.8,236.3,497.9,236.3c-22.2-0.8-52.9-6.2-73.5-26.9
						c-12.5-12.5-15.3-24.6-15.4-25.1c-0.2-1,0.4-2,1.4-2.2c12.6-3,24-4.5,34.1-4.5c19.5,0,34.2,5.5,43.7,16.4
						c14.6,16.7,11.7,39.7,11.5,40.6C499.6,235.6,498.8,236.3,497.9,236.3z M413.1,185.3c1.2,3.7,5,12.6,14.1,21.7
						c19.3,19.2,47.8,24.6,69,25.6c0.4-5.5,0.5-23.1-10.8-36.1c-8.8-10.1-22.6-15.2-40.9-15.2C435.2,181.3,424.6,182.7,413.1,185.3z
						"/>
				</g>
			</g>
			<g>
				<g>
					<path fill="#FFC200" d="M393.5,285.5c0,1.4-1.1,2.5-2.5,2.5l0,0c-1.4,0-2.5-1.1-2.5-2.5v-9.9c0-1.4,1.1-2.5,2.5-2.5l0,0
						c1.4,0,2.5,1.1,2.5,2.5V285.5z"/>
				</g>
				<g>
					<path fill="#662483" d="M391,289.4c-2.1,0-3.9-1.7-3.9-3.9v-9.9c0-2.1,1.7-3.9,3.9-3.9c2.1,0,3.9,1.7,3.9,3.9v9.9
						C394.8,287.7,393.1,289.4,391,289.4z M391,274.4c-0.7,0-1.2,0.5-1.2,1.2v9.9c0,0.7,0.5,1.2,1.2,1.2c0.7,0,1.2-0.5,1.2-1.2v-9.9
						C392.2,275,391.6,274.4,391,274.4z"/>
				</g>
			</g>
			<g>
				<g>
					<path fill="#FFC200" d="M487.8,285.5c0,1.4-1.1,2.5-2.5,2.5l0,0c-1.4,0-2.5-1.1-2.5-2.5v-9.9c0-1.4,1.1-2.5,2.5-2.5l0,0
						c1.4,0,2.5,1.1,2.5,2.5V285.5z"/>
				</g>
				<g>
					<path fill="#662483" d="M485.2,289.4c-2.1,0-3.9-1.7-3.9-3.9v-9.9c0-2.1,1.7-3.9,3.9-3.9c2.1,0,3.9,1.7,3.9,3.9v9.9
						C489.1,287.7,487.3,289.4,485.2,289.4z M485.2,274.4c-0.7,0-1.2,0.5-1.2,1.2v9.9c0,0.7,0.5,1.2,1.2,1.2c0.7,0,1.2-0.5,1.2-1.2
						v-9.9C486.4,275,485.9,274.4,485.2,274.4z"/>
				</g>
			</g>
			<g>
				<g>
					<path fill="#662483" d="M473.2,221.5c-0.2,0-0.3,0-0.5-0.1c-32.5-9.2-41.5-27.3-41.8-28.1c-0.4-0.9,0-2,0.9-2.5
						c0.9-0.4,2-0.1,2.5,0.9c0.1,0.2,8.8,17.5,39.5,26.1c1,0.3,1.6,1.3,1.3,2.3C474.8,221,474,221.5,473.2,221.5z"/>
				</g>
			</g>
			<g>
				<g>
					<path fill="#89579F" d="M446.5,188.5c0,0,7.2,15,33.8,22.6L446.5,188.5z"/>
				</g>
				<g>
					<path fill="#662483" d="M480.4,212.9c-0.2,0-0.3,0-0.5-0.1c-27.1-7.7-34.7-22.9-35-23.5c-0.4-0.9,0-2,0.9-2.5
						c0.9-0.4,2-0.1,2.5,0.9c0.1,0.1,7.3,14.4,32.7,21.6c1,0.3,1.6,1.3,1.3,2.3C481.9,212.4,481.2,212.9,480.4,212.9z"/>
				</g>
			</g>
			<g>
				<g>
					<path fill="#662483" d="M390.5,228.5c-1,0-1.8-0.8-1.8-1.8c-0.6-20.5,13.6-28.9,14.2-29.3c0.9-0.5,2-0.2,2.5,0.7
						c0.5,0.9,0.2,2-0.7,2.5c-0.6,0.3-12.9,7.8-12.4,26C392.4,227.7,391.6,228.5,390.5,228.5C390.6,228.5,390.6,228.5,390.5,228.5z"
						/>
				</g>
			</g>
			<g>
				<g>
					<path fill="#662483" d="M402.4,225.8c-1,0-1.8-0.8-1.8-1.8c-0.4-12.7,8.5-18,8.9-18.3c0.9-0.5,2-0.2,2.5,0.7
						c0.5,0.9,0.2,2-0.7,2.5c-0.3,0.2-7.4,4.5-7.1,14.9C404.3,224.9,403.4,225.8,402.4,225.8C402.4,225.8,402.4,225.8,402.4,225.8z"
						/>
				</g>
			</g>
			<g>
				<g>
					<path fill="#662483" d="M451.9,328.1"/>
				</g>
			</g>
			<g>
				<g>
					<path fill="#FBC7B6" stroke="#662483" stroke-width="3.696" stroke-miterlimit="10" d="M424.4,333"/>
				</g>
			</g>
			<g>
				<g>
					<rect x="435.7" y="301.8" fill="#ED5050" width="8.1" height="2"/>
				</g>
			</g>
		</g>
		<g>
			<g>
				<circle fill="#FBC7B6" cx="561.7" cy="296.5" r="21.4"/>
			</g>
			<g>
				<path fill="#662483" d="M561.7,319.7c-12.8,0-23.2-10.4-23.2-23.2c0-12.8,10.4-23.2,23.2-23.2c12.8,0,23.2,10.4,23.2,23.2
					C584.9,309.3,574.5,319.7,561.7,319.7z M561.7,277c-10.8,0-19.5,8.8-19.5,19.5c0,10.8,8.8,19.5,19.5,19.5
					c10.8,0,19.5-8.8,19.5-19.5C581.2,285.7,572.5,277,561.7,277z"/>
			</g>
		</g>
		<g>
			<g>
				<g>
					<polygon fill="#89579F" points="302.2,346.7 297.6,337 240.6,364 245.2,373.7 					"/>
				</g>
				<g>
					<path fill="#662483" d="M245.2,375.5c-0.2,0-0.4,0-0.6-0.1c-0.5-0.2-0.8-0.5-1-0.9l-4.5-9.7c-0.4-0.9,0-2,0.9-2.4l57-27
						c0.4-0.2,0.9-0.2,1.4-0.1c0.5,0.2,0.8,0.5,1,0.9l4.6,9.7c0.4,0.9,0,2-0.9,2.4l-57,27C245.7,375.5,245.4,375.5,245.2,375.5z
						 M243.1,364.9l3,6.3l53.7-25.5l-3-6.3L243.1,364.9z"/>
				</g>
			</g>
			<g opacity="0.4">
				<g>
					<polygon fill="#FBC7B6" points="298.2,342.5 296.8,339.5 243.6,364.7 245,367.7 					"/>
				</g>
			</g>
			<g>
				<g>
					<path fill="#662483" d="M268.5,346.7c-0.7,0-1.3-0.4-1.7-1.1c-0.4-0.9,0-2,0.9-2.4l19.6-9.1c0.9-0.4,2,0,2.4,0.9l1.9,4
						c0.4,0.9,0,2-0.9,2.4c-0.9,0.4-2,0-2.4-0.9l-1.1-2.3l-18,8.3C269,346.7,268.8,346.7,268.5,346.7z"/>
				</g>
			</g>
			<g>
				<g>
					<path fill="#89579F" d="M245.8,373.5c-6.5,3.1-17.6,5.6-18.9,2.9c-1.3-2.7,7.7-9.6,14.3-12.7L245.8,373.5z"/>
				</g>
				<g>
					<path fill="#662483" d="M230.3,379.4c-1,0-4,0-5-2.2c-2.5-5.4,12.2-13.7,15.2-15.2c0.4-0.2,1-0.2,1.4-0.1c0.5,0.2,0.8,0.5,1,1
						l4.6,9.8c0.4,0.9,0,2-0.9,2.5C242.2,377.2,235,379.4,230.3,379.4z M228.7,375.5c0.3,0.1,0.7,0.2,1.5,0.2c3.2,0,8.6-1.3,13-3.1
						l-3-6.3C234.6,369.2,229.4,373.7,228.7,375.5z"/>
				</g>
			</g>
			<g>
				<g>
					<polygon fill="#89579F" points="227.1,374.7 223.9,377.9 228.6,377.4 					"/>
				</g>
				<g>
					<path fill="#662483" d="M223.9,379.7c-0.7,0-1.3-0.4-1.6-1c-0.3-0.7-0.2-1.5,0.4-2.1l3.2-3.2c0.4-0.4,1-0.6,1.5-0.5
						c0.6,0.1,1.1,0.4,1.3,0.9l1.5,2.7c0.3,0.5,0.3,1.2,0,1.7c-0.3,0.5-0.8,0.9-1.4,1l-4.7,0.5C224,379.7,224,379.7,223.9,379.7z"/>
				</g>
			</g>
		</g>
		<g>
			<g>
				<circle fill="#FBC7B6" cx="260.5" cy="361.6" r="21.4"/>
			</g>
			<g>
				<path fill="#662483" d="M260.5,384.8c-2.4,0-4.8-0.4-7.2-1.1c-5.9-1.9-10.7-6-13.5-11.5c-2.8-5.5-3.3-11.8-1.4-17.7
					c3.1-9.6,12-16.1,22.1-16.1c2.4,0,4.8,0.4,7.2,1.1c5.9,1.9,10.7,6,13.5,11.5c2.8,5.5,3.3,11.8,1.4,17.7
					C279.4,378.3,270.6,384.8,260.5,384.8z M260.5,342.1c-8.5,0-15.9,5.4-18.6,13.5c-1.6,5-1.2,10.2,1.2,14.9
					c2.4,4.6,6.4,8.1,11.4,9.7c2,0.6,4,1,6,1c8.5,0,15.9-5.4,18.6-13.5c1.6-5,1.2-10.2-1.2-14.9c-2.4-4.6-6.4-8.1-11.4-9.7
					C264.5,342.4,262.5,342.1,260.5,342.1z"/>
			</g>
		</g>
	</g>
</g>
<g id="_x2018_ÎÓÈ_x5F_6">
</g>
<g id="Layer_4">
</g>
<g id="_x2018_ÎÓÈ_x5F_3">
	<path fill="#646464" d="M202.9,548.7h426c1.1,0,2-0.9,2-2s-0.9-2-2-2h-426c-1.1,0-2,0.9-2,2S201.8,548.7,202.9,548.7z"/>
	<path fill="#969696" d="M63.5,560.5h304.8c1.3,0,2.3-0.9,2.3-2c0-1.1-1-2-2.3-2H63.5c-1.3,0-2.3,0.9-2.3,2
		C61.2,559.6,62.2,560.5,63.5,560.5z"/>
	<path fill="#969696" d="M520.4,558.5c0,1.1,1.1,2,2.5,2h258c1.4,0,2.5-0.9,2.5-2c0-1.1-1.1-2-2.5-2H523
		C521.6,556.6,520.4,557.4,520.4,558.5z"/>
	<path fill="#969696" d="M380.4,556.6c-1.1,0-2,0.9-2,2c0,1.1,0.9,2,2,2h130.2c1.1,0,2-0.9,2-2c0-1.1-0.9-2-2-2H380.4z"/>
	<polygon fill="#F0F0F0" points="477.1,473.5 477.1,473.7 477.3,473.7 	"/>
	<polygon fill="#F0F0F0" points="252.2,473.5 252.2,473.7 252.5,473.7 	"/>
	<polygon fill="#F0F0F0" points="354.8,473.5 354.6,473.7 354.8,473.7 	"/>
	<polygon fill="#F0F0F0" points="358.7,473.5 358.7,473.7 359,473.7 	"/>
	<polygon fill="#F0F0F0" points="473.1,473.5 472.9,473.7 473.1,473.7 	"/>
	<rect x="131.9" y="465.8" fill="#FFFFFF" width="19.7" height="7.9"/>
	<polygon fill="#FFFFFF" points="128,264.7 119.7,264.7 108.7,319.9 128,319.9 	"/>
	<rect x="131.9" y="264.7" fill="#FFFFFF" width="19.7" height="55.2"/>
	<polygon fill="#FFFFFF" points="647.2,254.6 628.3,273.5 646.4,273.5 656.3,263.6 	"/>
	<polygon fill="#FFFFFF" points="163.8,264.7 155.6,264.7 155.6,319.9 174.9,319.9 	"/>
	<polygon fill="#F0F0F0" points="252.2,501.3 252.2,544.7 260.6,544.7 271.4,501.3 	"/>
	<path fill="#FFFFFF" d="M751.8,194.6H613.7v90.7h138.1V194.6z M743.9,275.5c0,1.1-0.9,2-2,2H623.6c0,0,0,0,0,0c-0.1,0-0.2,0-0.4,0
		c-0.1,0-0.1,0-0.2-0.1c-0.1,0-0.1,0-0.2-0.1c-0.1,0-0.1-0.1-0.2-0.1c0,0-0.1,0-0.1-0.1c-0.2-0.1-0.4-0.3-0.5-0.5
		c0,0-0.1-0.1-0.1-0.1c0-0.1-0.1-0.1-0.1-0.2c0-0.1,0-0.1-0.1-0.2c0-0.1,0-0.1-0.1-0.2c0-0.1,0-0.2,0-0.4c0,0,0,0,0,0v-71
		c0-1.1,0.9-2,2-2h118.3c1.1,0,2,0.9,2,2V275.5z"/>
	<path fill="#FFFFFF" d="M684.1,265c-0.8,0.8-2,0.8-2.8,0c-0.8-0.8-0.8-2,0-2.8l10.4-10.4l-9-9L652,273.5h87.9v-20.9l-21.7-21.7
		L684.1,265z"/>
	<polygon fill="#F0F0F0" points="579.6,473.5 579.4,473.7 579.6,473.7 	"/>
	<rect x="131.9" y="477.7" fill="#FFFFFF" width="19.7" height="67.1"/>
	<path fill="#F0F0F0" d="M593.8,497.4l1-0.1l1-0.2l0.9-0.3l0.9-0.4l0.8-0.4l0.8-0.5l0.7-0.6l0.7-0.7l0.6-0.7l0.5-0.8l0.5-0.8
		l0.4-0.9l0.3-0.9l0.2-1l0.1-1l0-0.6v-59.1l0-0.4l-0.1-1l-0.2-1l-0.3-0.9l-0.4-0.9l-0.4-0.8l-0.5-0.8l-0.6-0.7l-0.7-0.7l-0.7-0.6
		l-0.8-0.5l-0.8-0.5l-0.9-0.4l-0.9-0.3l-1-0.2l-1-0.1l-0.6,0h-9.8v57.2c0,1.1-0.9,2-2,2H250.3c-1.1,0-2-0.9-2-2v-57.2h-9.9l-0.4,0
		l-1,0.1l-1,0.2l-0.9,0.3l-0.9,0.4l-0.8,0.4l-0.8,0.5l-0.7,0.6l-0.7,0.7l-0.6,0.7l-0.5,0.8l-0.5,0.8l-0.4,0.9l-0.3,0.9l-0.2,1
		l-0.1,1l0,0.6v59.1l0,0.4l0.1,1l0.2,1l0.3,0.9l0.4,0.9l0.4,0.8l0.5,0.8l0.6,0.7l0.7,0.7l0.7,0.6l0.8,0.5l0.8,0.5l0.9,0.4l0.9,0.3
		l1,0.2l1,0.1l0.6,0h355L593.8,497.4z"/>
	<polygon fill="#F0F0F0" points="560.4,501.3 571.3,544.7 579.6,544.7 579.6,501.3 	"/>
	<path fill="#F0F0F0" d="M753.7,190.7h-142c-1.1,0-2,0.9-2,2v94.7c0,1.1,0.9,2,2,2h142c1.1,0,2-0.9,2-2v-94.7
		C755.7,191.5,754.8,190.7,753.7,190.7z M751.8,194.6v90.7H613.7v-90.7H751.8z"/>
	<path fill="#F0F0F0" d="M621.6,275.5c0,0.1,0,0.2,0,0.4c0,0.1,0,0.1,0.1,0.2c0,0.1,0,0.1,0.1,0.2c0,0.1,0.1,0.1,0.1,0.2
		c0,0,0,0.1,0.1,0.1c0.1,0.2,0.3,0.4,0.5,0.5c0,0,0.1,0.1,0.1,0.1c0.1,0,0.1,0.1,0.2,0.1c0.1,0,0.1,0,0.2,0.1c0.1,0,0.1,0,0.2,0.1
		c0.1,0,0.2,0,0.4,0c0,0,0,0,0,0h118.3c1.1,0,2-0.9,2-2v-71c0-1.1-0.9-2-2-2H623.6c-1.1,0-2,0.9-2,2L621.6,275.5
		C621.6,275.5,621.6,275.5,621.6,275.5z M628.3,273.5l18.9-18.9l9,9l-9.9,9.9H628.3z M682.7,242.8l9,9l-10.4,10.4
		c-0.8,0.8-0.8,2,0,2.8c0.8,0.8,2,0.8,2.8,0l34.1-34.1l21.7,21.7v20.9H652L682.7,242.8z M719.6,226.7c-0.8-0.8-2-0.8-2.8,0
		L694.6,249l-10.4-10.4c-0.8-0.8-2-0.8-2.8,0l-22.3,22.3l-10.4-10.4c-0.8-0.8-2-0.8-2.8,0l-20.3,20.3v-64.3h114.4V247L719.6,226.7z"
		/>
	<path fill="#646464" d="M607.2,428.4C607.2,428.4,607.2,428.3,607.2,428.4C607.2,428.3,607.2,428.3,607.2,428.4l0-0.8l-0.2-1.4
		l-0.3-1.3l-0.4-1.3l-0.5-1.2l-0.6-1.2l-0.8-1.1l-0.8-1l-0.9-0.9l-1-0.8l-1.1-0.7l-1.2-0.6l-1.2-0.5l-1.3-0.4l-1.4-0.3l-1.3-0.1
		l-0.6,0c0,0,0,0,0,0c0,0,0,0,0,0h-9.9v-45.4c0,0,0,0,0,0c0,0,0,0,0,0l0-0.8l-0.2-1.4l-0.3-1.3l-0.4-1.3l-0.5-1.2l-0.6-1.2l-0.8-1.1
		l-0.8-1l-0.9-0.9l-1-0.8l-1.1-0.7l-1.2-0.6l-1.2-0.5l-1.3-0.4l-1.4-0.3l-1.3-0.1l-0.6,0c0,0,0,0,0,0c0,0,0,0,0,0h-82.8c0,0,0,0,0,0
		c0,0,0,0,0,0l-0.8,0l-1.4,0.2l-1.3,0.3l-1.3,0.4l-1.2,0.5l-1.2,0.6l-1.1,0.8l-1,0.8l-0.9,0.9l-0.8,1l-0.7,1.1L475,362l-0.8-1.1
		l-0.8-1l-0.9-0.9l-1-0.8l-1.1-0.7l-1.2-0.6l-1.2-0.5l-1.3-0.4l-1.4-0.3l-1.3-0.1l-0.6,0c0,0,0,0,0,0c0,0,0,0,0,0h-94.7c0,0,0,0,0,0
		c0,0,0,0,0,0l-0.8,0l-1.4,0.2l-1.3,0.3l-1.3,0.4l-1.2,0.5l-1.2,0.6l-1.1,0.8l-1,0.8l-0.9,0.9l-0.8,1l-0.7,1.1l-0.1-0.1l-0.8-1.1
		l-0.8-1l-0.9-0.9l-1-0.8l-1.1-0.7l-1.2-0.6l-1.2-0.5l-1.3-0.4l-1.4-0.3l-1.3-0.1l-0.6,0c0,0,0,0,0,0c0,0,0,0,0,0h-82.8c0,0,0,0,0,0
		c0,0,0,0,0,0l-0.8,0l-1.4,0.2l-1.3,0.3l-1.3,0.4l-1.2,0.5l-1.2,0.6l-1.1,0.8l-1,0.8l-0.9,0.9l-0.8,1l-0.7,1.1l-0.6,1.2l-0.5,1.2
		l-0.4,1.3l-0.3,1.4l-0.1,1.3l0,0.6c0,0,0,0,0,0c0,0,0,0,0,0v45.4h-9.9c0,0,0,0,0,0c0,0,0,0,0,0l-0.8,0l-1.4,0.2l-1.3,0.3l-1.3,0.4
		l-1.2,0.5l-1.2,0.6l-1.1,0.8l-1,0.8l-0.9,0.9l-0.8,1l-0.7,1.1l-0.6,1.2l-0.5,1.2L225,425l-0.3,1.4l-0.1,1.3l0,0.6c0,0,0,0,0,0
		c0,0,0,0,0,0v59.2c0,0,0,0,0,0c0,0,0,0,0,0l0,0.8l0.2,1.4l0.3,1.3l0.4,1.3l0.5,1.2l0.6,1.2l0.8,1.1l0.8,1l0.9,0.9l1,0.8l1.1,0.7
		l1.2,0.6l1.2,0.5l1.3,0.4l1.4,0.3l1.3,0.1l0.6,0c0,0,0,0,0,0c0,0,0,0,0,0h9.9v45.4c0,1.1,0.9,2,2,2c1.1,0,2-0.9,2-2v-45.4h19.2
		l-11.2,44.9c-0.3,1.1,0.4,2.1,1.4,2.4c1.1,0.3,2.1-0.4,2.4-1.4l11.5-45.8h280.9l11.5,45.8c0.3,1.1,1.3,1.7,2.4,1.4
		c1.1-0.3,1.7-1.3,1.4-2.4l-11.2-44.9h19.2v45.4c0,1.1,0.9,2,2,2c1.1,0,2-0.9,2-2v-45.4h9.9c0,0,0,0,0,0c0,0,0,0,0,0l0.8,0l1.4-0.2
		l1.3-0.3l1.3-0.4l1.2-0.5l1.2-0.6l1.1-0.8l1-0.8l0.9-0.9l0.8-1l0.7-1.1l0.6-1.2l0.5-1.2l0.4-1.3l0.3-1.4l0.1-1.3l0-0.6c0,0,0,0,0,0
		c0,0,0,0,0,0V428.4z M579.4,473.7l0.2-0.2v0.2H579.4z M472.9,473.7l0.2-0.2v0.2H472.9z M354.6,473.7l0.2-0.2v0.2H354.6z
		 M252.2,473.5l0.2,0.2h-0.2V473.5z M262.1,473.7l-0.6,0l-1-0.1l-1-0.2l-0.9-0.3l-0.9-0.4l-0.8-0.5l-0.8-0.5l-0.7-0.6l-0.7-0.7
		l-0.6-0.7l-0.5-0.8l-0.4-0.8l-0.4-0.9l-0.3-0.9l-0.2-1l-0.1-1l0-0.4l0-0.6l0.1-1l0.2-1l0.3-0.9l0.4-0.9l0.5-0.8l0.5-0.8l0.6-0.7
		l0.7-0.7l0.7-0.6l0.8-0.5l0.8-0.4l0.9-0.4l0.9-0.3l1-0.2l1-0.1l0.4,0h82.8l0.6,0l1,0.1l1,0.2l0.9,0.3l0.9,0.4l0.8,0.5l0.8,0.5
		l0.7,0.6l0.7,0.7l0.6,0.7l0.5,0.8l0.4,0.8l0.4,0.9l0.3,0.9l0.2,1l0.1,1l0,0.4l0,0.6l-0.1,1l-0.2,1l-0.3,0.9l-0.4,0.9l-0.5,0.8
		l-0.5,0.8l-0.6,0.7l-0.7,0.7l-0.7,0.6l-0.8,0.5l-0.8,0.4l-0.9,0.4l-0.9,0.3l-1,0.2l-1,0.1l-0.4,0H262.1z M358.7,473.5l0.2,0.2h-0.2
		V473.5z M368.6,473.7l-0.6,0l-1-0.1l-1-0.2l-0.9-0.3l-0.9-0.4l-0.8-0.5l-0.8-0.5l-0.7-0.6l-0.7-0.7l-0.6-0.7l-0.5-0.8l-0.4-0.8
		l-0.4-0.9l-0.3-0.9l-0.2-1l-0.1-1l0-0.4l0-0.6l0.1-1l0.2-1l0.3-0.9l0.4-0.9l0.5-0.8l0.5-0.8l0.6-0.7l0.7-0.7l0.7-0.6l0.8-0.5
		l0.8-0.4l0.9-0.4l0.9-0.3l1-0.2l1-0.1l0.4,0h94.6l0.6,0l1,0.1l1,0.2l0.9,0.3l0.9,0.4l0.8,0.5l0.8,0.5l0.7,0.6l0.7,0.7l0.6,0.7
		l0.5,0.8l0.4,0.8l0.4,0.9l0.3,0.9l0.2,1l0.1,1l0,0.4l0,0.6l-0.1,1l-0.2,1l-0.3,0.9l-0.4,0.9l-0.5,0.8l-0.5,0.8l-0.6,0.7l-0.7,0.7
		l-0.7,0.6l-0.8,0.5l-0.8,0.4l-0.9,0.4l-0.9,0.3l-1,0.2l-1,0.1l-0.4,0H368.6z M477.1,473.5l0.2,0.2h-0.2V473.5z M486.9,473.7l-0.6,0
		l-1-0.1l-1-0.2l-0.9-0.3l-0.9-0.4l-0.8-0.5l-0.8-0.5l-0.7-0.6l-0.7-0.7l-0.6-0.7l-0.5-0.8l-0.4-0.8l-0.4-0.9l-0.3-0.9l-0.2-1
		l-0.1-1l0-0.4l0-0.6l0.1-1l0.2-1l0.3-0.9l0.4-0.9l0.5-0.8l0.5-0.8l0.6-0.7l0.7-0.7l0.7-0.6l0.8-0.5l0.8-0.4l0.9-0.4l0.9-0.3l1-0.2
		l1-0.1l0.4,0h82.8l0.6,0l1,0.1l1,0.2l0.9,0.3l0.9,0.4l0.8,0.5l0.8,0.5l0.7,0.6l0.7,0.7l0.6,0.7l0.5,0.8l0.4,0.8l0.4,0.9l0.3,0.9
		l0.2,1l0.1,1l0,0.4l0,0.6l-0.1,1l-0.2,1l-0.3,0.9l-0.4,0.9l-0.5,0.8l-0.5,0.8l-0.6,0.7l-0.7,0.7l-0.7,0.6l-0.8,0.5l-0.8,0.4
		l-0.9,0.4l-0.9,0.3l-1,0.2l-1,0.1l-0.4,0H486.9z M477.2,367.6l0.2-1l0.3-0.9l0.4-0.9l0.5-0.8l0.5-0.8l0.6-0.7l0.7-0.7l0.7-0.6
		l0.8-0.5l0.8-0.4l0.9-0.4l0.9-0.3l1-0.2l1-0.1l0.4,0h82.8l0.6,0l1,0.1l1,0.2l0.9,0.3l0.9,0.4l0.8,0.5l0.8,0.5l0.7,0.6l0.7,0.7
		l0.6,0.7l0.5,0.8l0.4,0.8l0.4,0.9l0.3,0.9l0.2,1l0.1,1l0,0.4v85l-0.6-0.6l-1-0.8l-1.1-0.7l-1.2-0.6l-1.2-0.5l-1.3-0.4l-1.4-0.3
		l-1.3-0.1l-0.6,0c0,0,0,0,0,0c0,0,0,0,0,0h-82.8c0,0,0,0,0,0c0,0,0,0,0,0l-0.8,0l-1.4,0.2l-1.3,0.3l-1.3,0.4l-1.2,0.5l-1.2,0.6
		l-1.1,0.8l-1,0.8l-0.5,0.5v-85l0-0.6L477.2,367.6z M358.9,367.6l0.2-1l0.3-0.9l0.4-0.9l0.5-0.8l0.5-0.8l0.6-0.7l0.7-0.7l0.7-0.6
		l0.8-0.5l0.8-0.4l0.9-0.4l0.9-0.3l1-0.2l1-0.1l0.4,0h94.6l0.6,0l1,0.1l1,0.2l0.9,0.3l0.9,0.4l0.8,0.5l0.8,0.5l0.7,0.6l0.7,0.7
		l0.6,0.7l0.5,0.8l0.4,0.8l0.4,0.9l0.3,0.9l0.2,1l0.1,1l0,0.4v85l-0.6-0.6l-1-0.8l-1.1-0.7l-1.2-0.6l-1.2-0.5l-1.3-0.4l-1.4-0.3
		l-1.3-0.1l-0.6,0c0,0,0,0,0,0c0,0,0,0,0,0h-94.7c0,0,0,0,0,0c0,0,0,0,0,0l-0.8,0l-1.4,0.2l-1.3,0.3l-1.3,0.4l-1.2,0.5l-1.2,0.6
		l-1.1,0.8l-1,0.8l-0.5,0.5v-85l0-0.6L358.9,367.6z M252.4,367.6l0.2-1l0.3-0.9l0.4-0.9l0.5-0.8l0.5-0.8l0.6-0.7l0.7-0.7l0.7-0.6
		l0.8-0.5l0.8-0.4l0.9-0.4l0.9-0.3l1-0.2l1-0.1l0.4,0h82.8l0.6,0l1,0.1l1,0.2l0.9,0.3l0.9,0.4l0.8,0.5l0.8,0.5l0.7,0.6l0.7,0.7
		l0.6,0.7l0.5,0.8l0.4,0.8l0.4,0.9l0.3,0.9l0.2,1l0.1,1l0,0.4v85l-0.6-0.6l-1-0.8L352,452l-1.2-0.6l-1.2-0.5l-1.3-0.4l-1.4-0.3
		l-1.3-0.1l-0.6,0c0,0,0,0,0,0c0,0,0,0,0,0h-82.8c0,0,0,0,0,0c0,0,0,0,0,0l-0.8,0l-1.4,0.2l-1.3,0.3l-1.3,0.4l-1.2,0.5l-1.2,0.6
		l-1.1,0.8l-1,0.8l-0.5,0.5v-85l0-0.6L252.4,367.6z M603.1,489.1l-0.2,1l-0.3,0.9l-0.4,0.9l-0.5,0.8l-0.5,0.8l-0.6,0.7l-0.7,0.7
		l-0.7,0.6l-0.8,0.5l-0.8,0.4l-0.9,0.4l-0.9,0.3l-1,0.2l-1,0.1l-0.4,0h-355l-0.6,0l-1-0.1l-1-0.2l-0.9-0.3l-0.9-0.4l-0.8-0.5
		l-0.8-0.5l-0.7-0.6l-0.7-0.7l-0.6-0.7l-0.5-0.8l-0.4-0.8l-0.4-0.9l-0.3-0.9l-0.2-1l-0.1-1l0-0.4v-59.1l0-0.6l0.1-1l0.2-1l0.3-0.9
		l0.4-0.9l0.5-0.8l0.5-0.8l0.6-0.7l0.7-0.7l0.7-0.6l0.8-0.5l0.8-0.4l0.9-0.4l0.9-0.3l1-0.2l1-0.1l0.4,0h9.9v57.2c0,1.1,0.9,2,2,2
		h331.3c1.1,0,2-0.9,2-2v-57.2h9.8l0.6,0l1,0.1l1,0.2l0.9,0.3l0.9,0.4l0.8,0.5l0.8,0.5l0.7,0.6l0.7,0.7l0.6,0.7l0.5,0.8l0.4,0.8
		l0.4,0.9l0.3,0.9l0.2,1l0.1,1l0,0.4v59.1l0,0.6L603.1,489.1z"/>
	<path fill="#F0F0F0" d="M178.8,323.1c0,0,0.1-0.1,0.1-0.1c0,0,0.1-0.1,0.1-0.1c0-0.1,0.1-0.1,0.1-0.2c0.1-0.2,0.2-0.5,0.2-0.8
		c0,0,0,0,0,0c0-0.1,0-0.1,0-0.2c0-0.1,0-0.1,0-0.2l0,0c0,0,0,0,0,0l-11.8-59.2c0,0,0,0,0,0c0-0.1-0.1-0.3-0.1-0.4c0,0,0,0,0,0
		c0-0.1-0.1-0.2-0.2-0.3c0-0.1-0.1-0.1-0.1-0.2c0,0-0.1-0.1-0.1-0.1c0,0-0.1-0.1-0.1-0.1c0,0-0.1-0.1-0.1-0.1c0,0-0.1-0.1-0.1-0.1
		c-0.1,0-0.1-0.1-0.2-0.1c-0.2-0.1-0.5-0.2-0.8-0.2c0,0,0,0,0,0h-21.7v-9.9c0-1.1-0.9-2-2-2c-1.1,0-2,0.9-2,2v9.9h-21.7c0,0,0,0,0,0
		c-0.3,0-0.5,0.1-0.8,0.2c-0.1,0-0.1,0.1-0.2,0.1c0,0-0.1,0-0.1,0.1c-0.1,0-0.1,0.1-0.1,0.1c0,0-0.1,0.1-0.1,0.1
		c0,0-0.1,0.1-0.1,0.1c0,0.1-0.1,0.1-0.1,0.2c-0.1,0.1-0.1,0.2-0.2,0.3c0,0,0,0,0,0c-0.1,0.1-0.1,0.2-0.1,0.4c0,0,0,0,0,0
		l-11.8,59.2c0,0,0,0,0,0l0,0c0,0.1,0,0.1,0,0.2c0,0.1,0,0.1,0,0.2c0,0,0,0,0,0c0,0.3,0.1,0.5,0.2,0.8c0,0.1,0.1,0.1,0.1,0.2
		c0,0,0,0.1,0.1,0.1c0,0.1,0.1,0.1,0.1,0.1c0,0,0.1,0.1,0.1,0.1c0,0,0.1,0.1,0.1,0.1c0.1,0,0.1,0.1,0.2,0.1c0.1,0.1,0.2,0.1,0.3,0.2
		c0,0,0,0,0,0c0.1,0.1,0.2,0.1,0.4,0.1c0,0,0,0,0,0c0.1,0,0.1,0,0.2,0c0.1,0,0.1,0,0.2,0h0c0,0,0,0,0,0h33.5v138.1H130
		c-1.1,0-2,0.9-2,2v82.8c0,1.1,0.9,2,2,2h23.7c1.1,0,2-0.9,2-2v-82.8c0-1.1-0.9-2-2-2h-9.9V323.8h33.5c0,0,0,0,0,0h0
		c0.1,0,0.1,0,0.2,0c0.1,0,0.1,0,0.2,0c0,0,0,0,0,0c0.1,0,0.3-0.1,0.4-0.1c0,0,0,0,0,0c0.1,0,0.2-0.1,0.3-0.2c0.1,0,0.1-0.1,0.2-0.1
		c0,0,0.1-0.1,0.1-0.1C178.7,323.2,178.8,323.2,178.8,323.1z M151.7,473.7h-19.7v-7.9h19.7V473.7z M131.9,477.7h19.7v67.1h-19.7
		V477.7z M131.9,319.9v-55.2h19.7v55.2H131.9z M119.7,264.7h8.2v55.2h-19.3L119.7,264.7z M155.6,264.7h8.2l11,55.2h-19.3V264.7z"/>
	<path fill="#969696" d="M118.1,548.7h47.3c1.1,0,2-0.9,2-2s-0.9-2-2-2h-47.3c-1.1,0-2,0.9-2,2S117,548.7,118.1,548.7z"/>
	<path fill="#969696" d="M653.4,548.7h59.2c1.1,0,2-0.9,2-2s-0.9-2-2-2h-59.2c-1.1,0-2,0.9-2,2S652.3,548.7,653.4,548.7z"/>
	<g id="facebook-messenger" transform="translate(188.000000, 0.000000)">
		<path id="Shape" fill="#0084FF" d="M230.3,45.5c-17.9,0-32.3,13.5-32.3,30.1c0,9.5,4.7,17.9,12,23.5v11.5l11-6.1
			c2.9,0.8,6.1,1.3,9.3,1.3c17.9,0,32.3-13.5,32.3-30.1S248.2,45.5,230.3,45.5z M233.5,86l-8.2-8.8L209.2,86l17.7-18.9l8.4,8.8
			l15.9-8.8L233.5,86z"/>
	</g>
	<g id="slack" transform="translate(0.000000, 28.000000)">
		<path id="Shape_1_" fill="#70CADB" d="M310.3,68.1c-2,0-3.8-1.2-4.4-3.1c0-0.1,0-0.1-0.1-0.2c-0.7-2.5,0.7-5,3.1-5.8l38.7-13.1
			c0.5-0.1,0.9-0.2,1.4-0.2c2.1,0,3.9,1.2,4.5,3.2l0.1,0.2c0.7,2.6-1.1,4.8-3.2,5.6c0,0-0.4,0.1-38.5,13.3
			C311.3,68,310.8,68.1,310.3,68.1z"/>
		<path id="Shape_2_" fill="#E01765" d="M316.7,87.3c-2.1,0-3.8-1.2-4.4-3.1c0-0.1,0-0.1-0.1-0.2c-0.7-2.5,0.6-5.1,3.1-5.9L354,64.9
			c0.5-0.2,1-0.3,1.5-0.3c2.1,0,3.9,1.3,4.5,3.2l0.1,0.2c0.4,1.3,0.2,2.8-0.6,4c-0.6,0.9-2.3,1.6-2.3,1.6L318.3,87
			C317.8,87.2,317.3,87.3,316.7,87.3L316.7,87.3z"/>
		<path id="Shape_3_" fill="#E8A723" d="M348.9,87.4c-2.1,0-3.9-1.3-4.5-3.3l-12.9-38.8l-0.1-0.2c-0.7-2.5,0.6-5.1,3.1-5.9
			c0.5-0.2,1-0.2,1.5-0.3c0.7,0,1.5,0.2,2.1,0.5c1.1,0.6,2,1.6,2.4,2.8l12.9,38.8l0,0.1c0.7,2.6-0.6,5.2-3,6
			C349.9,87.3,349.4,87.4,348.9,87.4L348.9,87.4z"/>
		<path id="Shape_4_" fill="#3EB890" d="M329.7,93.9c-2.1,0-3.9-1.3-4.6-3.3l-12.9-38.8c-0.4-1.2-0.3-2.5,0.2-3.7s1.5-2,2.7-2.4
			c0.5-0.2,1-0.2,1.5-0.3c2.1,0,3.9,1.3,4.5,3.3l12.9,38.8c0.4,1.2,0.3,2.5-0.2,3.7c-0.6,1.1-1.5,2-2.7,2.4
			C330.7,93.9,330.2,93.9,329.7,93.9L329.7,93.9L329.7,93.9z"/>
		<polygon id="Shape_5_" fill="#CC2027" points="342.5,78.7 351.5,75.6 348.6,66.7 339.6,69.8 		"/>
		<polygon id="Shape_6_" fill="#361238" points="323.4,85.3 332.4,82.2 329.4,73.3 320.4,76.4 		"/>
		<polygon id="Shape_7_" fill="#65863A" points="336.1,59.4 345.1,56.3 342.2,47.6 333.2,50.6 		"/>
		<polygon id="Shape_8_" fill="#1A937D" points="317,66 326,62.9 323,54.1 314,57.1 		"/>
	</g>
	<g id="telegram" transform="translate(360.000000, 118.000000)">
		
			<linearGradient id="path2995-1-0_1_" gradientUnits="userSpaceOnUse" x1="-83.2313" y1="289.2433" x2="-83.3526" y2="288.9603" gradientTransform="matrix(82 0 0 -82 6961.498 23697.5)">
			<stop  offset="0" style="stop-color:#37AEE2"/>
			<stop  offset="1" style="stop-color:#1E96C8"/>
		</linearGradient>
		<path id="path2995-1-0" fill="url(#path2995-1-0_1_)" d="M150.6-6.8c0,11-8.9,19.9-19.9,19.9s-19.9-8.9-19.9-19.9
			s8.9-19.9,19.9-19.9S150.6-17.8,150.6-6.8z"/>
		<path id="path2993" fill="#C8DAEA" d="M127.1,2.3c-0.6,0-0.5-0.2-0.8-0.9l-1.9-6.2l11.7-7.3l1.4,0.4l-1.1,3.1L127.1,2.3z"/>
		<path id="path2989" fill="#A9C9DD" d="M127.1,2.3c0.5,0,0.7-0.2,1-0.5c0.4-0.4,6-5.8,6-5.8l-3.4-0.8l-3.1,2l-0.4,5V2.3z"/>
		
			<linearGradient id="path2991_1_" gradientUnits="userSpaceOnUse" x1="-85.1557" y1="292.7966" x2="-85.0627" y2="292.6192" gradientTransform="matrix(44.5936 0 0 -37.3821 3929.5901 10939.123)">
			<stop  offset="0" style="stop-color:#EFF7FC"/>
			<stop  offset="1" style="stop-color:#FFFFFF"/>
		</linearGradient>
		<path id="path2991" fill="url(#path2991_1_)" d="M127.4-2.8l8,5.9c0.9,0.5,1.6,0.2,1.8-0.8l3.3-15.4c0.3-1.3-0.5-1.9-1.4-1.5
			l-19.2,7.4c-1.3,0.5-1.3,1.3-0.2,1.6l4.9,1.5l11.4-7.2c0.5-0.3,1-0.1,0.6,0.2L127.4-2.8z"/>
	</g>
	<g id="alexa-copy" transform="translate(371.000000, 380.000000)">
		<g transform="translate(24.000000, 19.000000)">
			<path id="Fill-1" fill="#00CAFF" d="M-113.9-237.2v-3.7c0-1.3-0.8-2.5-2-3c-4.6-1.9-7.8-6.5-7.8-11.7c0-7,5.7-12.7,12.7-12.7
				s12.7,5.7,12.7,12.7C-98.2-247.3-104.6-239.6-113.9-237.2 M-110.9-274.2c-10.3,0-18.7,8.4-18.7,18.7c0,10.2,8.3,18.7,18.7,18.7
				c10.3,0,18.7-8.4,18.7-18.7C-92.3-265.8-100.6-274.2-110.9-274.2"/>
			<path id="alexa" fill-opacity="0.87" d="M-127.5-220.6c-0.4,0-0.8-0.1-1.1-0.2c-0.3-0.1-0.6-0.3-0.9-0.6
				c-0.3-0.2-0.5-0.5-0.6-0.8c-0.1-0.3-0.2-0.7-0.2-1.1s0.1-0.7,0.3-1s0.4-0.6,0.7-0.8s0.7-0.4,1.1-0.5c0.4-0.1,0.9-0.2,1.5-0.2
				c0.5,0,0.9,0,1.4,0.1c0.5,0.1,0.9,0.2,1.3,0.3v-0.8c0-0.8-0.2-1.5-0.7-1.9c-0.5-0.5-1.1-0.7-1.9-0.7c-0.4,0-0.9,0.1-1.3,0.3
				c-0.5,0.2-0.9,0.4-1.4,0.8l-0.3-0.6c1.1-0.8,2.2-1.1,3.2-1.1c1,0,1.9,0.3,2.5,0.9c0.6,0.6,0.9,1.4,0.9,2.5v4.2
				c0,0.3,0.1,0.4,0.4,0.4v0.7c-0.1,0-0.1,0-0.2,0s-0.1,0-0.2,0c-0.2,0-0.4-0.1-0.5-0.2c-0.1-0.1-0.2-0.3-0.2-0.5v-0.7
				c-0.4,0.5-0.9,0.9-1.5,1.2C-126.2-220.8-126.8-220.6-127.5-220.6z M-127.4-221.3c0.6,0,1.2-0.1,1.8-0.4c0.5-0.2,0.9-0.6,1.2-1
				c0.2-0.2,0.3-0.5,0.3-0.7v-1.5c-0.4-0.2-0.8-0.3-1.2-0.3c-0.4-0.1-0.9-0.1-1.3-0.1c-0.4,0-0.8,0-1.2,0.1
				c-0.4,0.1-0.7,0.2-0.9,0.4c-0.3,0.2-0.5,0.4-0.6,0.6s-0.2,0.5-0.2,0.8s0.1,0.6,0.2,0.8c0.1,0.3,0.3,0.5,0.5,0.7
				c0.2,0.2,0.4,0.3,0.7,0.4C-128-221.3-127.7-221.3-127.4-221.3z M-120.6-232.9h0.8v10.4c0,0.3,0.1,0.6,0.3,0.8
				c0.2,0.2,0.4,0.3,0.8,0.3c0.1,0,0.3,0,0.4,0c0.2,0,0.3-0.1,0.5-0.1l0.2,0.7c-0.2,0.1-0.4,0.1-0.7,0.2s-0.5,0.1-0.7,0.1
				c-0.5,0-0.8-0.1-1.1-0.4c-0.3-0.3-0.4-0.7-0.4-1.1V-232.9z M-112.6-220.6c-0.6,0-1.2-0.1-1.7-0.4s-1-0.6-1.4-1s-0.7-0.9-0.9-1.4
				c-0.2-0.5-0.3-1.1-0.3-1.7c0-0.6,0.1-1.2,0.3-1.7c0.2-0.5,0.5-1,0.9-1.4c0.4-0.4,0.8-0.7,1.3-1c0.5-0.2,1.1-0.3,1.7-0.3
				c0.6,0,1.2,0.1,1.7,0.4s1,0.6,1.3,1c0.4,0.4,0.7,0.9,0.9,1.4c0.2,0.5,0.3,1.1,0.3,1.7v0.2c0,0.1,0,0.1,0,0.2h-7.6
				c0,0.5,0.1,1,0.3,1.4c0.2,0.4,0.5,0.8,0.8,1.1c0.3,0.3,0.7,0.6,1.1,0.7c0.4,0.2,0.8,0.3,1.3,0.3c0.3,0,0.6,0,0.9-0.1
				s0.6-0.2,0.8-0.3c0.2-0.1,0.5-0.3,0.7-0.5c0.2-0.2,0.3-0.4,0.5-0.7l0.7,0.2c-0.1,0.3-0.3,0.6-0.5,0.9s-0.5,0.5-0.8,0.7
				s-0.7,0.3-1,0.4C-111.8-220.7-112.2-220.6-112.6-220.6z M-109.2-225.4c0-0.5-0.1-1-0.3-1.4c-0.2-0.4-0.4-0.8-0.7-1.1
				c-0.3-0.3-0.7-0.5-1.1-0.7c-0.4-0.2-0.8-0.3-1.3-0.3c-0.5,0-0.9,0.1-1.3,0.3c-0.4,0.2-0.7,0.4-1.1,0.7s-0.5,0.7-0.7,1.1
				c-0.2,0.4-0.3,0.9-0.3,1.4H-109.2z M-106.9-229.4l2.8,3.6l0.1,0.2l0.1-0.2l2.8-3.6h0.9l-3.3,4.3l3.3,4.3h-0.9l-2.8-3.5l-0.1-0.2
				l-0.1,0.2l-2.8,3.5h-0.9l3.3-4.3l-3.3-4.3H-106.9z M-96.5-220.6c-0.4,0-0.8-0.1-1.1-0.2c-0.3-0.1-0.6-0.3-0.9-0.6
				c-0.3-0.2-0.5-0.5-0.6-0.8s-0.2-0.7-0.2-1.1s0.1-0.7,0.3-1s0.4-0.6,0.7-0.8s0.7-0.4,1.1-0.5s0.9-0.2,1.5-0.2c0.5,0,0.9,0,1.4,0.1
				c0.5,0.1,0.9,0.2,1.3,0.3v-0.8c0-0.8-0.2-1.5-0.7-1.9s-1.1-0.7-1.9-0.7c-0.4,0-0.9,0.1-1.3,0.3c-0.5,0.2-0.9,0.4-1.4,0.8
				l-0.3-0.6c1.1-0.8,2.2-1.1,3.2-1.1c1,0,1.9,0.3,2.5,0.9c0.6,0.6,0.9,1.4,0.9,2.5v4.2c0,0.3,0.1,0.4,0.4,0.4v0.7
				c-0.1,0-0.1,0-0.2,0c-0.1,0-0.1,0-0.2,0c-0.2,0-0.4-0.1-0.5-0.2s-0.2-0.3-0.2-0.5v-0.7c-0.4,0.5-0.9,0.9-1.5,1.2
				C-95.1-220.8-95.8-220.6-96.5-220.6z M-96.3-221.3c0.6,0,1.2-0.1,1.8-0.4c0.5-0.2,0.9-0.6,1.2-1c0.2-0.2,0.3-0.5,0.3-0.7v-1.5
				c-0.4-0.2-0.8-0.3-1.2-0.3c-0.4-0.1-0.9-0.1-1.3-0.1c-0.4,0-0.8,0-1.2,0.1c-0.4,0.1-0.7,0.2-0.9,0.4c-0.3,0.2-0.5,0.4-0.6,0.6
				c-0.1,0.2-0.2,0.5-0.2,0.8s0.1,0.6,0.2,0.8s0.3,0.5,0.5,0.7c0.2,0.2,0.4,0.3,0.7,0.4S-96.6-221.3-96.3-221.3z"/>
		</g>
	</g>
	<g id="g17480_1_" transform="translate(646.3034,236.3789)">
		<path id="path17482_1_" fill="#4285F4" d="M-105.5-77.4c4.8,0,8.7-3.9,8.7-8.7l0-20.4c0-4.8-3.9-8.7-8.7-8.7
			c-4.8,0-8.7,3.9-8.7,8.7v20.4C-114.3-81.3-110.4-77.4-105.5-77.4"/>
	</g>
	<g id="g17484_1_" transform="translate(645.4803,233.1492)">
		<path id="path17486_1_" fill="#34A853" d="M-107.6-62.8L-107.6-62.8v9.2h5.8v-9.1c-0.9,0.1-1.9,0.1-2.9,0.1
			C-105.7-62.5-106.7-62.6-107.6-62.8"/>
	</g>
	<g id="g17488_1_" transform="translate(643.3809,235.9115)">
		<path id="path17490_1_" fill="#FBBC05" d="M-112.9-75.3c-2.6-2.6-4.2-5.8-4.2-10.2h-5.8c0,5.8,2.3,10.6,6,14.3l0,0c0,0,0,0,0,0
			L-112.9-75.3z"/>
	</g>
	<g id="g17492_1_" transform="translate(650.4081,238.79)">
		<path id="path17494_1_" fill="#EA4335" d="M-95.1-88.3c0,7.3-6.5,14.4-14.5,14.4c-4,0-7.7-1.7-10.3-4.3l0,0l-4.1,4c0,0,0,0,0,0
			c3,3,7,5.1,11.4,5.7c1,0.1,1.9,0.2,2.9,0.2c1,0,1.9,0,2.9-0.1c9.9-1.4,17.4-9.9,17.4-20H-95.1z"/>
	</g>
	<g>
		<g opacity="0.7">
			
				<linearGradient id="SVGID_1_" gradientUnits="userSpaceOnUse" x1="381.7619" y1="239.2486" x2="449.6176" y2="239.2486" gradientTransform="matrix(1 0 0 -1 0 609)">
				<stop  offset="0" style="stop-color:#808080;stop-opacity:0.25"/>
				<stop  offset="0.54" style="stop-color:#808080;stop-opacity:0.12"/>
				<stop  offset="1" style="stop-color:#808080;stop-opacity:0.1"/>
			</linearGradient>
			<rect x="381.8" y="344.7" fill="url(#SVGID_1_)" width="67.9" height="50.2"/>
			<g opacity="0.1">
				
					<linearGradient id="SVGID_2_" gradientUnits="userSpaceOnUse" x1="542.9777" y1="201.8411" x2="610.8392" y2="201.8411" gradientTransform="matrix(1 0 0 -1 -161.21 555)">
					<stop  offset="0" style="stop-color:#808080;stop-opacity:0.25"/>
					<stop  offset="0.54" style="stop-color:#808080;stop-opacity:0.12"/>
					<stop  offset="1" style="stop-color:#808080;stop-opacity:0.1"/>
				</linearGradient>
				<path fill="url(#SVGID_2_)" d="M381.8,358c0,0,25.3,2.9,33.9,2.9c8.6,0,33.9-2.9,33.9-2.9v-12.5h-67.9V358z"/>
			</g>
			
				<linearGradient id="SVGID_3_" gradientUnits="userSpaceOnUse" x1="542.9719" y1="237.9861" x2="610.8334" y2="237.9861" gradientTransform="matrix(1 0 0 -1 -161.21 555)">
				<stop  offset="0" style="stop-color:#808080;stop-opacity:0.25"/>
				<stop  offset="0.54" style="stop-color:#808080;stop-opacity:0.12"/>
				<stop  offset="1" style="stop-color:#808080;stop-opacity:0.1"/>
			</linearGradient>
			<path fill="url(#SVGID_3_)" d="M449.6,357.2c0,0-25.3,2.9-33.9,2.9c-8.6,0-33.9-2.9-33.9-2.9v-49.4c0-18.7,15.2-33.9,33.9-33.9
				l0,0c18.7,0,33.9,15.2,33.9,33.9V357.2z"/>
			
				<linearGradient id="SVGID_4_" gradientUnits="userSpaceOnUse" x1="568.7914" y1="284.8237" x2="585.0197" y2="284.8237" gradientTransform="matrix(1 0 0 -1 -161.21 555)">
				<stop  offset="0" style="stop-color:#808080;stop-opacity:0.25"/>
				<stop  offset="0.54" style="stop-color:#808080;stop-opacity:0.12"/>
				<stop  offset="1" style="stop-color:#808080;stop-opacity:0.1"/>
			</linearGradient>
			<path fill="url(#SVGID_4_)" d="M417.4,283.5H414c-3.5,0-6.4-2.9-6.4-6.4v-20.1h16.2V277C423.8,280.6,420.9,283.5,417.4,283.5
				C417.4,283.5,417.4,283.5,417.4,283.5z"/>
			
				<linearGradient id="SVGID_5_" gradientUnits="userSpaceOnUse" x1="381.7619" y1="149.259" x2="406.1014" y2="149.259" gradientTransform="matrix(1 0 0 -1 0 609)">
				<stop  offset="0" style="stop-color:#808080;stop-opacity:0.25"/>
				<stop  offset="0.54" style="stop-color:#808080;stop-opacity:0.12"/>
				<stop  offset="1" style="stop-color:#808080;stop-opacity:0.1"/>
			</linearGradient>
			<rect x="381.8" y="377.1" fill="url(#SVGID_5_)" width="24.3" height="165.2"/>
			
				<linearGradient id="SVGID_6_" gradientUnits="userSpaceOnUse" x1="425.2839" y1="149.259" x2="449.6234" y2="149.259" gradientTransform="matrix(1 0 0 -1 0 609)">
				<stop  offset="0" style="stop-color:#808080;stop-opacity:0.25"/>
				<stop  offset="0.54" style="stop-color:#808080;stop-opacity:0.12"/>
				<stop  offset="1" style="stop-color:#808080;stop-opacity:0.1"/>
			</linearGradient>
			<rect x="425.3" y="377.1" fill="url(#SVGID_6_)" width="24.3" height="165.2"/>
			<g opacity="0.1">
				
					<linearGradient id="SVGID_7_" gradientUnits="userSpaceOnUse" x1="568.7914" y1="291.0881" x2="585.0197" y2="291.0881" gradientTransform="matrix(1 0 0 -1 -161.21 555)">
					<stop  offset="0" style="stop-color:#808080;stop-opacity:0.25"/>
					<stop  offset="0.54" style="stop-color:#808080;stop-opacity:0.12"/>
					<stop  offset="1" style="stop-color:#808080;stop-opacity:0.1"/>
				</linearGradient>
				<path fill="url(#SVGID_7_)" d="M407.6,269.2c5.3,1.3,10.9,1.3,16.2,0v-11.6h-16.2V269.2z"/>
			</g>
			
				<linearGradient id="SVGID_8_" gradientUnits="userSpaceOnUse" x1="380.2877" y1="381.5998" x2="451.0977" y2="381.5998" gradientTransform="matrix(1 0 0 -1 0 609)">
				<stop  offset="0" style="stop-color:#808080;stop-opacity:0.25"/>
				<stop  offset="0.54" style="stop-color:#808080;stop-opacity:0.12"/>
				<stop  offset="1" style="stop-color:#808080;stop-opacity:0.1"/>
			</linearGradient>
			<circle fill="url(#SVGID_8_)" cx="415.7" cy="227.4" r="35.4"/>
			
				<linearGradient id="SVGID_9_" gradientUnits="userSpaceOnUse" x1="381.7619" y1="373.4886" x2="449.6234" y2="373.4886" gradientTransform="matrix(1 0 0 -1 0 609)">
				<stop  offset="0" style="stop-color:#808080;stop-opacity:0.25"/>
				<stop  offset="0.54" style="stop-color:#808080;stop-opacity:0.12"/>
				<stop  offset="1" style="stop-color:#808080;stop-opacity:0.1"/>
			</linearGradient>
			<circle fill="url(#SVGID_9_)" cx="415.7" cy="235.5" r="33.9"/>
			<g opacity="0.1">
				
					<linearGradient id="SVGID_10_" gradientUnits="userSpaceOnUse" x1="551.0613" y1="342.8764" x2="610.366" y2="342.8764" gradientTransform="matrix(1 0 0 -1 -161.21 555)">
					<stop  offset="0" style="stop-color:#808080;stop-opacity:0.25"/>
					<stop  offset="0.54" style="stop-color:#808080;stop-opacity:0.12"/>
					<stop  offset="1" style="stop-color:#808080;stop-opacity:0.1"/>
				</linearGradient>
				<path fill="url(#SVGID_10_)" d="M395.1,218.5c1.8,1.1,3.9,1.5,6,1.8c8.7,1.2,17.5,0.2,25.7-2.9c1.3,3.4,4.6,5.8,8.1,6.9
					c3.5,1.1,7.2,1.2,10.9,1.2c0.8,0.1,1.6-0.1,2.3-0.4c1.6-1.1,0.8-3.6-0.1-5.3l-4.7-8.6c-1.4-2.5-2.8-5.1-5-7
					c-2.7-2.4-6.3-3.5-9.9-4.2c-8.4-1.7-17.1-1.4-25.3,0.8C394.4,203.1,383,211.2,395.1,218.5z"/>
			</g>
			
				<linearGradient id="SVGID_11_" gradientUnits="userSpaceOnUse" x1="551.0613" y1="343.6165" x2="610.366" y2="343.6165" gradientTransform="matrix(1 0 0 -1 -161.21 555)">
				<stop  offset="0" style="stop-color:#808080;stop-opacity:0.25"/>
				<stop  offset="0.54" style="stop-color:#808080;stop-opacity:0.12"/>
				<stop  offset="1" style="stop-color:#808080;stop-opacity:0.1"/>
			</linearGradient>
			<path fill="url(#SVGID_11_)" d="M395.1,217.8c1.8,1.1,3.9,1.5,6,1.8c8.7,1.2,17.5,0.2,25.7-2.9c1.3,3.4,4.6,5.8,8.1,6.9
				c3.5,1.1,7.2,1.2,10.9,1.2c0.8,0.1,1.6-0.1,2.3-0.4c1.6-1.1,0.8-3.6-0.1-5.3l-4.7-8.6c-1.4-2.5-2.8-5.1-5-7
				c-2.7-2.4-6.3-3.5-9.9-4.2c-8.4-1.7-17.1-1.4-25.3,0.8C394.4,202.3,383,210.4,395.1,217.8z"/>
			
				<linearGradient id="SVGID_12_" gradientUnits="userSpaceOnUse" x1="446.302" y1="373.4886" x2="452.1989" y2="373.4886" gradientTransform="matrix(1 0 0 -1 0 609)">
				<stop  offset="0" style="stop-color:#808080;stop-opacity:0.25"/>
				<stop  offset="0.54" style="stop-color:#808080;stop-opacity:0.12"/>
				<stop  offset="1" style="stop-color:#808080;stop-opacity:0.1"/>
			</linearGradient>
			<ellipse fill="url(#SVGID_12_)" cx="449.3" cy="235.5" rx="2.9" ry="5.5"/>
			
				<linearGradient id="SVGID_13_" gradientUnits="userSpaceOnUse" x1="379.1864" y1="373.4886" x2="385.0833" y2="373.4886" gradientTransform="matrix(1 0 0 -1 0 609)">
				<stop  offset="0" style="stop-color:#808080;stop-opacity:0.25"/>
				<stop  offset="0.54" style="stop-color:#808080;stop-opacity:0.12"/>
				<stop  offset="1" style="stop-color:#808080;stop-opacity:0.1"/>
			</linearGradient>
			<ellipse fill="url(#SVGID_13_)" cx="382.1" cy="235.5" rx="2.9" ry="5.5"/>
			
				<linearGradient id="SVGID_14_" gradientUnits="userSpaceOnUse" x1="498.3024" y1="417.0048" x2="514.5248" y2="417.0048" gradientTransform="matrix(1 0 0 -1 0 609)">
				<stop  offset="0" style="stop-color:#808080;stop-opacity:0.25"/>
				<stop  offset="0.54" style="stop-color:#808080;stop-opacity:0.12"/>
				<stop  offset="1" style="stop-color:#808080;stop-opacity:0.1"/>
			</linearGradient>
			<circle fill="url(#SVGID_14_)" cx="506.4" cy="192" r="8.1"/>
			
				<linearGradient id="SVGID_15_" gradientUnits="userSpaceOnUse" x1="543.712" y1="299.9344" x2="610.4022" y2="299.9344" gradientTransform="matrix(1 0 0 -1 -161.21 555)">
				<stop  offset="0" style="stop-color:#808080;stop-opacity:0.25"/>
				<stop  offset="0.54" style="stop-color:#808080;stop-opacity:0.12"/>
				<stop  offset="1" style="stop-color:#808080;stop-opacity:0.1"/>
			</linearGradient>
			<path fill="url(#SVGID_15_)" d="M416.4,248.8c0,0-19.2,6.6-33.9-8.1c0,0,1.2,4.9,3.2,10.8c8.8,16.5,29.4,22.8,45.9,14
				c9.4-5,15.9-14.1,17.5-24.5C445.7,242.8,420.5,254.9,416.4,248.8z M415.7,257.6c-3.7,0-6.6-2.8-6.6-4.4c0-1.6,3-1.5,6.6-1.5
				c3.7,0,6.6-0.2,6.6,1.5C422.3,254.8,419.4,257.6,415.7,257.6z"/>
			
				<linearGradient id="SVGID_16_" gradientUnits="userSpaceOnUse" x1="594.9373" y1="308.4231" x2="670.572" y2="308.4231" gradientTransform="matrix(1 0 0 -1 -161.21 555)">
				<stop  offset="0" style="stop-color:#808080;stop-opacity:0.25"/>
				<stop  offset="0.54" style="stop-color:#808080;stop-opacity:0.12"/>
				<stop  offset="1" style="stop-color:#808080;stop-opacity:0.1"/>
			</linearGradient>
			<path fill="url(#SVGID_16_)" d="M433.7,279c0,0,39.5-22.1,63.8-87.1l11.8,7.4c0,0-19.5,82.7-68.6,101.8L433.7,279z"/>
			
				<linearGradient id="SVGID_17_" gradientUnits="userSpaceOnUse" x1="316.8606" y1="417.0048" x2="333.083" y2="417.0048" gradientTransform="matrix(1 0 0 -1 0 609)">
				<stop  offset="0" style="stop-color:#808080;stop-opacity:0.25"/>
				<stop  offset="0.54" style="stop-color:#808080;stop-opacity:0.12"/>
				<stop  offset="1" style="stop-color:#808080;stop-opacity:0.1"/>
			</linearGradient>
			<circle fill="url(#SVGID_17_)" cx="325" cy="192" r="8.1"/>
			
				<linearGradient id="SVGID_18_" gradientUnits="userSpaceOnUse" x1="483.2333" y1="308.4115" x2="558.868" y2="308.4115" gradientTransform="matrix(1 0 0 -1 -161.21 555)">
				<stop  offset="0" style="stop-color:#808080;stop-opacity:0.25"/>
				<stop  offset="0.54" style="stop-color:#808080;stop-opacity:0.12"/>
				<stop  offset="1" style="stop-color:#808080;stop-opacity:0.1"/>
			</linearGradient>
			<path fill="url(#SVGID_18_)" d="M397.7,279c0,0-39.5-22.1-63.8-87l-11.8,7.4c0,0,19.5,82.7,68.6,101.8L397.7,279z"/>
			
				<linearGradient id="SVGID_19_" gradientUnits="userSpaceOnUse" x1="544.452" y1="12.6523" x2="565.843" y2="12.6523" gradientTransform="matrix(1 0 0 -1 -161.21 555)">
				<stop  offset="0" style="stop-color:#808080;stop-opacity:0.25"/>
				<stop  offset="0.54" style="stop-color:#808080;stop-opacity:0.12"/>
				<stop  offset="1" style="stop-color:#808080;stop-opacity:0.1"/>
			</linearGradient>
			<path fill="url(#SVGID_19_)" d="M404.6,548.2h-21.4v-3.4c0-4.6,3.8-8.4,8.4-8.4h4.7c4.6,0,8.4,3.8,8.4,8.4l0,0L404.6,548.2z"/>
			
				<linearGradient id="SVGID_20_" gradientUnits="userSpaceOnUse" x1="587.9682" y1="12.6523" x2="609.3592" y2="12.6523" gradientTransform="matrix(1 0 0 -1 -161.21 555)">
				<stop  offset="0" style="stop-color:#808080;stop-opacity:0.25"/>
				<stop  offset="0.54" style="stop-color:#808080;stop-opacity:0.12"/>
				<stop  offset="1" style="stop-color:#808080;stop-opacity:0.1"/>
			</linearGradient>
			<path fill="url(#SVGID_20_)" d="M448.1,548.2h-21.4v-3.4c0-4.6,3.7-8.4,8.4-8.4c0,0,0,0,0,0h4.7c4.6,0,8.4,3.7,8.4,8.4
				c0,0,0,0,0,0L448.1,548.2z"/>
		</g>
		<rect x="382.7" y="345.3" fill="#646464" width="65.9" height="48.7"/>
		<path opacity="0.1" enable-background="new    " d="M382.7,358.2c0,0,24.6,2.9,32.9,2.9c8.4,0,32.9-2.9,32.9-2.9V346h-65.9V358.2z
			"/>
		<path fill="#969696" d="M448.6,357.5c0,0-24.6,2.9-32.9,2.9c-8.4,0-32.9-2.9-32.9-2.9v-48c0-18.2,14.8-32.9,32.9-32.9l0,0
			c18.2,0,32.9,14.8,32.9,32.9V357.5z"/>
		<path fill="#F0F0F0" d="M407.8,260.1h15.7l0,0v19.4c0,3.5-2.9,6.4-6.4,6.4l0,0h-2.9c-3.5,0-6.4-2.9-6.4-6.4l0,0V260.1L407.8,260.1
			z"/>
		<rect x="382.7" y="376.8" fill="#646464" width="23.6" height="160.4"/>
		<rect x="425" y="376.8" fill="#646464" width="23.6" height="160.4"/>
		<path opacity="0.1" enable-background="new    " d="M407.8,272c5.2,1.3,10.6,1.3,15.7,0v-11.2h-15.7V272z"/>
		<circle fill="#646464" cx="415.7" cy="231.4" r="34.4"/>
		<circle fill="#F0F0F0" cx="415.7" cy="239.3" r="32.9"/>
		<path opacity="0.1" enable-background="new    " d="M395.7,222.8c1.8,1,3.8,1.6,5.8,1.7c8.4,1.2,17,0.2,25-2.8
			c1.3,3.3,4.5,5.6,7.9,6.7s7,1.1,10.6,1.2c0.8,0.1,1.6-0.1,2.3-0.4c1.6-1.1,0.8-3.5-0.1-5.2l-4.6-8.3c-1.4-2.5-2.8-5-4.9-6.8
			c-2.6-2.3-6.1-3.4-9.6-4.1c-8.1-1.6-16.6-1.3-24.6,0.8C395,207.8,384,215.7,395.7,222.8z"/>
		<path fill="#646464" d="M395.7,222.1c1.8,1,3.8,1.6,5.8,1.7c8.4,1.2,17,0.2,25-2.8c1.3,3.3,4.5,5.6,7.9,6.7s7,1.1,10.6,1.2
			c0.8,0.1,1.6-0.1,2.3-0.4c1.6-1.1,0.8-3.5-0.1-5.2l-4.6-8.3c-1.4-2.5-2.8-5-4.9-6.8c-2.6-2.3-6.1-3.4-9.6-4.1
			c-8.1-1.6-16.6-1.3-24.6,0.8C395,207.1,384,214.9,395.7,222.1z"/>
		<ellipse fill="#F0F0F0" cx="448.3" cy="239.3" rx="2.9" ry="5.4"/>
		<ellipse fill="#F0F0F0" cx="383.1" cy="239.3" rx="2.9" ry="5.4"/>
		<circle fill="#F0F0F0" cx="503.8" cy="197" r="7.9"/>
		<path fill="#646464" d="M416.4,252.2c0,0-18.6,6.4-32.9-7.9c0,0,1.2,4.7,3.1,10.5c8.6,16.1,28.5,22.1,44.6,13.6
			c9.1-4.8,15.4-13.7,17-23.8C444.9,246.4,420.4,258.2,416.4,252.2z M415.7,260.8c-3.6,0-6.5-2.7-6.5-4.3c0-1.6,2.9-1.4,6.4-1.4
			c3.5,0,6.4-0.2,6.4,1.4C422.1,258.1,419.3,260.8,415.7,260.8L415.7,260.8z"/>
		<path fill="#969696" d="M433.2,281.6c0,0,38.4-21.5,62-84.5l11.5,7.2c0,0-19,80.3-66.6,98.8L433.2,281.6z"/>
		<circle fill="#F0F0F0" cx="327.6" cy="197" r="7.9"/>
		<path fill="#969696" d="M398.2,281.6c0,0-38.4-21.5-62-84.5l-11.4,7.2c0,0,19,80.3,66.6,98.8L398.2,281.6z"/>
		<path opacity="0.1" enable-background="new    " d="M392.6,531.5h4c4.6,0,8.4,3.7,8.4,8.4v3.1l0,0h-20.8l0,0v-3.1
			C384.2,535.3,387.9,531.5,392.6,531.5C392.6,531.5,392.6,531.5,392.6,531.5z"/>
		<path opacity="0.1" enable-background="new    " d="M434.8,531.5h4c4.6,0,8.4,3.7,8.4,8.4c0,0,0,0,0,0v3.1l0,0h-20.8l0,0v-3.1
			C426.4,535.3,430.2,531.5,434.8,531.5C434.8,531.5,434.8,531.5,434.8,531.5z"/>
	</g>
</g>
</svg>
