<?xml version="1.0" encoding="utf-8"?>
<!-- Generator: Adobe Illustrator 18.1.1, SVG Export Plug-In . SVG Version: 6.00 Build 0)  -->
<svg version="1.1" id="_x2018_ÎÓÈ_x5F_3" xmlns="http://www.w3.org/2000/svg" xmlns:xlink="http://www.w3.org/1999/xlink"
	 x="0px" y="0px" viewBox="0 0 855 607" enable-background="new 0 0 855 607" xml:space="preserve">
<g opacity="0.5" enable-background="new    ">
	<g>
		<defs>
			<rect id="SVGID_1_" x="423" y="385" width="287.7" height="15.1"/>
		</defs>
		<clipPath id="SVGID_2_">
			<use xlink:href="#SVGID_1_"  overflow="visible"/>
		</clipPath>
		<g clip-path="url(#SVGID_2_)">
			<defs>
				<rect id="SVGID_3_" x="423" y="385" width="286.8" height="15.1"/>
			</defs>
			<clipPath id="SVGID_4_">
				<use xlink:href="#SVGID_3_"  overflow="visible"/>
			</clipPath>
			<g clip-path="url(#SVGID_4_)">
				<defs>
					<rect id="SVGID_5_" x="423" y="385" width="286.8" height="15.1"/>
				</defs>
				<clipPath id="SVGID_6_">
					<use xlink:href="#SVGID_5_"  overflow="visible"/>
				</clipPath>
				<defs>
					<filter id="Adobe_OpacityMaskFilter" filterUnits="userSpaceOnUse" x="423" y="385" width="287" height="15.1">
						<feColorMatrix  type="matrix" values="1 0 0 0 0  0 1 0 0 0  0 0 1 0 0  0 0 0 1 0"/>
					</filter>
				</defs>
				<mask maskUnits="userSpaceOnUse" x="423" y="385" width="287" height="15.1" id="SVGID_7_">
					<g filter="url(#Adobe_OpacityMaskFilter)">
						<g>
							<defs>
								<rect id="SVGID_8_" x="423" y="385" width="286.8" height="15.1"/>
							</defs>
							<clipPath id="SVGID_9_" clip-path="url(#SVGID_6_)">
								<use xlink:href="#SVGID_8_"  overflow="visible"/>
							</clipPath>
							<g transform="matrix(1 0 0 1 0 0)" clip-path="url(#SVGID_9_)">
								
									<image overflow="visible" width="304" height="16" xlink:href="6483F914E2C1E21.jpg"  transform="matrix(0.9434 0 0 -0.9434 422.9874 400.1074)">
								</image>
							</g>
						</g>
					</g>
				</mask>
				<g clip-path="url(#SVGID_6_)" mask="url(#SVGID_7_)">
					<defs>
						<filter id="Adobe_OpacityMaskFilter_1_" filterUnits="userSpaceOnUse" x="423" y="385" width="287" height="15.1">
							<feColorMatrix  type="matrix" values="1 0 0 0 0  0 1 0 0 0  0 0 1 0 0  0 0 0 1 0"/>
						</filter>
					</defs>
					<mask maskUnits="userSpaceOnUse" x="423" y="385" width="287" height="15.1" id="SVGID_7_">
						<g filter="url(#Adobe_OpacityMaskFilter_1_)">
							<rect x="422" y="384" width="288.8" height="17.1"/>
							<g enable-background="new    ">
								<g>
									<defs>
										<rect id="SVGID_10_" x="423" y="385" width="286.8" height="15.1"/>
									</defs>
									<clipPath id="SVGID_11_">
										<use xlink:href="#SVGID_10_"  overflow="visible"/>
									</clipPath>
									<g>
										<defs>
											<rect id="SVGID_12_" x="423" y="385" width="286.8" height="15.1"/>
										</defs>
										<clipPath id="SVGID_13_" clip-path="url(#SVGID_11_)">
											<use xlink:href="#SVGID_12_"  overflow="visible"/>
										</clipPath>
										<g transform="matrix(1 0 0 1 0 0)" clip-path="url(#SVGID_13_)">
											
												<image overflow="visible" width="304" height="16" xlink:href="6483F914E2C1E23.jpg"  transform="matrix(0.9434 0 0 -0.9434 422.9868 400.1074)">
											</image>
										</g>
									</g>
								</g>
							</g>
						</g>
					</mask>
					<g>
						<g>
							<defs>
								<rect id="SVGID_14_" x="423" y="385" width="286.8" height="15.1"/>
							</defs>
							<clipPath id="SVGID_15_">
								<use xlink:href="#SVGID_14_"  overflow="visible"/>
							</clipPath>
							<defs>
								<filter id="Adobe_OpacityMaskFilter_2_" filterUnits="userSpaceOnUse" x="423" y="385" width="287" height="15.1">
									<feColorMatrix  type="matrix" values="1 0 0 0 0  0 1 0 0 0  0 0 1 0 0  0 0 0 1 0"/>
								</filter>
							</defs>
							<mask maskUnits="userSpaceOnUse" x="423" y="385" width="287" height="15.1" id="SVGID_7_">
								<g filter="url(#Adobe_OpacityMaskFilter_2_)">
									<g>
										<defs>
											<rect id="SVGID_16_" x="423" y="385" width="286.8" height="15.1"/>
										</defs>
										<clipPath id="SVGID_17_" clip-path="url(#SVGID_15_)">
											<use xlink:href="#SVGID_16_"  overflow="visible"/>
										</clipPath>
										<g transform="matrix(1 0 0 1 0 0)" clip-path="url(#SVGID_17_)">
											
												<image overflow="visible" width="304" height="16" xlink:href="6483F914E2C1E26.jpg"  transform="matrix(0.9434 0 0 -0.9434 422.9875 400.1071)">
											</image>
										</g>
									</g>
								</g>
							</mask>
							<g clip-path="url(#SVGID_15_)">
								
									<image overflow="visible" width="1196" height="63" xlink:href="6483F914E2C1E27.jpg"  transform="matrix(0.24 0 0 0.24 422.9688 385.0123)">
								</image>
							</g>
						</g>
					</g>
				</g>
			</g>
		</g>
	</g>
</g>
<g>
	<defs>
		<rect id="SVGID_18_" x="427.7" y="385" width="280.2" height="12.3"/>
	</defs>
	<clipPath id="SVGID_19_">
		<use xlink:href="#SVGID_18_"  overflow="visible"/>
	</clipPath>
	<rect x="423" y="380.3" clip-path="url(#SVGID_19_)" fill="#777676" width="289.6" height="21.7"/>
</g>
<g opacity="0.5" enable-background="new    ">
	<g>
		<defs>
			<rect id="SVGID_20_" x="134.3" y="214.3" width="440.6" height="185.9"/>
		</defs>
		<clipPath id="SVGID_21_">
			<use xlink:href="#SVGID_20_"  overflow="visible"/>
		</clipPath>
		<g clip-path="url(#SVGID_21_)">
			<defs>
				<path id="SVGID_22_" d="M486.9,348.5l1.1,0.5l36.5,15.7l46.6-55.2c0,0,7-7.9-1.3-13.3c-8.4-5.4-13.7,8.6-13.7,8.6l-35.9,38.4
					L490,327.9l0.5-3.2l-27.7-16c-0.5-1-1.1-2-1.8-2.9l-0.3-0.9l-1.4-1.2c-0.3-0.3-0.5-0.5-0.8-0.8l4.6-5c6.9,2.4,14.5,1.6,20.7-2.1
					c6.3-3.7,10.6-10,11.7-17.2c2.1,0.4,4.3,0.4,6.5,0c5.7-1.2,10.5-5.1,12.8-10.5c-0.2,0.4-0.5,0.6-0.9,0.7
					c0.4-0.6,0.7-1.2,0.9-1.9c-0.9,2.3-9.8-0.9-11.1-1.6c-4.1-2.2-6.1-5.3-8.2-9.3c-4.1-7.7-11.8-10.6-20.4-11.3
					c-6.6-0.5-13.3-0.1-19.4,2.4c-6.1,2.5-11.5,7.3-13.7,13.5c-0.7,2.1-1,4.3-0.9,6.6c-0.3,4.8,1.6,9.5,5.2,12.8
					c0.3,0.3,0.6,0.5,0.9,0.7c0.2,0.7,0.4,1.4,0.6,2.1l-1.3,1.2v0.1l-7.9,8.5l-0.4-0.1l-82.9,12.4v0.2c-2.8-1.8-15.2-8.2-46.4,0.5
					c-11.8,3.3-31.4,2.9-52.4,0.9c-14.8-18.4-24.3-75.3-24.3-75.3l-3.7-16.1l-48.2,11.2c0,0,22.3,5,26,11.2
					c5.7,1.9,9.2,44.2,10.5,64.2c-28.9-4.5-52.6-9.6-52.6-9.6l-17.3-6.2l-12.4,43.4c0,0,13.7-14.9,26-16.1c0,0,61.9,29.7,107.6,23.6
					c17.8-2.5,35,5,49.5,7.4c12.6,2.1,25.4,3.3,38.2,3.7l0.2,13.6c0,0,50.9-2.2,84.4-12.8c2.5,6.9,4.6,11.8,5.3,12.2l6.1-3l34.1,42
					l66.8-27.3c0,0,9.9-3.7,4.9-12.4c-5-8.7-16,1.2-16,1.2l-49.5,17.3l-20.9-28.9l-0.8-1.1l4.4-2.2c0,0-0.1-0.6-0.4-1.8l11.5,9.2
					L486.9,348.5z"/>
			</defs>
			<clipPath id="SVGID_23_">
				<use xlink:href="#SVGID_22_"  overflow="visible"/>
			</clipPath>
			<g clip-path="url(#SVGID_23_)">
				<defs>
					<rect id="SVGID_24_" x="134.3" y="214.3" width="440.6" height="185.9"/>
				</defs>
				<clipPath id="SVGID_25_">
					<use xlink:href="#SVGID_24_"  overflow="visible"/>
				</clipPath>
				<defs>
					<filter id="Adobe_OpacityMaskFilter_3_" filterUnits="userSpaceOnUse" x="134.3" y="214.3" width="440.6" height="186">
						<feColorMatrix  type="matrix" values="1 0 0 0 0  0 1 0 0 0  0 0 1 0 0  0 0 0 1 0"/>
					</filter>
				</defs>
				<mask maskUnits="userSpaceOnUse" x="134.3" y="214.3" width="440.6" height="186" id="SVGID_26_">
					<g filter="url(#Adobe_OpacityMaskFilter_3_)">
						<g>
							<defs>
								<rect id="SVGID_27_" x="134.8" y="215" width="439.6" height="184.9"/>
							</defs>
							<clipPath id="SVGID_28_" clip-path="url(#SVGID_25_)">
								<use xlink:href="#SVGID_27_"  overflow="visible"/>
							</clipPath>
							<g transform="matrix(1 0 0 1 0 0)" clip-path="url(#SVGID_28_)">
								
									<image overflow="visible" width="466" height="196" xlink:href="6483F914E2C1E22.jpg"  transform="matrix(0.9434 0 0 -0.9434 134.7985 399.9376)">
								</image>
							</g>
						</g>
					</g>
				</mask>
				<g clip-path="url(#SVGID_25_)" mask="url(#SVGID_26_)">
					<defs>
						<filter id="Adobe_OpacityMaskFilter_4_" filterUnits="userSpaceOnUse" x="134.3" y="214.3" width="440.6" height="186">
							<feColorMatrix  type="matrix" values="1 0 0 0 0  0 1 0 0 0  0 0 1 0 0  0 0 0 1 0"/>
						</filter>
					</defs>
					<mask maskUnits="userSpaceOnUse" x="134.3" y="214.3" width="440.6" height="186" id="SVGID_26_">
						<g filter="url(#Adobe_OpacityMaskFilter_4_)">
							<rect x="133.3" y="213.3" width="442.6" height="187.9"/>
							<g enable-background="new    ">
								<g>
									<defs>
										<rect id="SVGID_29_" x="134.8" y="215" width="439.6" height="184.9"/>
									</defs>
									<clipPath id="SVGID_30_">
										<use xlink:href="#SVGID_29_"  overflow="visible"/>
									</clipPath>
									<g>
										<defs>
											<rect id="SVGID_31_" x="134.8" y="215" width="439.6" height="184.9"/>
										</defs>
										<clipPath id="SVGID_32_" clip-path="url(#SVGID_30_)">
											<use xlink:href="#SVGID_31_"  overflow="visible"/>
										</clipPath>
										<g transform="matrix(1 0 0 1 0 0)" clip-path="url(#SVGID_32_)">
											
												<image overflow="visible" width="466" height="196" xlink:href="6483F914E2C1E2D.jpg"  transform="matrix(0.9434 0 0 -0.9434 134.7983 399.9375)">
											</image>
										</g>
									</g>
								</g>
							</g>
						</g>
					</mask>
					<g>
						<g>
							<defs>
								<rect id="SVGID_33_" x="134.3" y="214.3" width="440.6" height="185.9"/>
							</defs>
							<clipPath id="SVGID_34_">
								<use xlink:href="#SVGID_33_"  overflow="visible"/>
							</clipPath>
							<defs>
								<filter id="Adobe_OpacityMaskFilter_5_" filterUnits="userSpaceOnUse" x="134.3" y="214.3" width="440.6" height="186">
									<feColorMatrix  type="matrix" values="1 0 0 0 0  0 1 0 0 0  0 0 1 0 0  0 0 0 1 0"/>
								</filter>
							</defs>
							<mask maskUnits="userSpaceOnUse" x="134.3" y="214.3" width="440.6" height="186" id="SVGID_26_">
								<g filter="url(#Adobe_OpacityMaskFilter_5_)">
									<g>
										<defs>
											<rect id="SVGID_35_" x="134.8" y="215" width="439.6" height="184.9"/>
										</defs>
										<clipPath id="SVGID_36_" clip-path="url(#SVGID_34_)">
											<use xlink:href="#SVGID_35_"  overflow="visible"/>
										</clipPath>
										<g transform="matrix(1 0 0 1 0 0)" clip-path="url(#SVGID_36_)">
											
												<image overflow="visible" width="466" height="196" xlink:href="6483F914E2C1E2E.jpg"  transform="matrix(0.9434 0 0 -0.9434 134.7986 399.9373)">
											</image>
										</g>
									</g>
								</g>
							</mask>
							<g clip-path="url(#SVGID_34_)">
								
									<image overflow="visible" width="1836" height="775" xlink:href="6483F914E2C1E2F.jpg"  transform="matrix(0.24 0 0 0.24 134.2798 214.2519)">
								</image>
							</g>
						</g>
					</g>
				</g>
			</g>
		</g>
	</g>
</g>
<g>
	<defs>
		<polygon id="SVGID_37_" points="446.6,313 431.3,298.8 456.6,271.4 471.9,285.5 		"/>
	</defs>
	<clipPath id="SVGID_38_">
		<use xlink:href="#SVGID_37_"  overflow="visible"/>
	</clipPath>
	<rect x="426.5" y="266.7" clip-path="url(#SVGID_38_)" fill="#F0F0F0" width="50" height="51"/>
</g>
<g>
	<defs>
		<path id="SVGID_39_" d="M455.4,272.6l-11.2,12.1c2.4,6.9,7.9,12.3,14.8,14.7l11.7-12.7L455.4,272.6z"/>
	</defs>
	<clipPath id="SVGID_40_">
		<use xlink:href="#SVGID_39_"  overflow="visible"/>
	</clipPath>
	<rect x="439.5" y="267.9" clip-path="url(#SVGID_40_)" fill="#646464" width="35.9" height="36.3"/>
</g>
<g>
	<defs>
		<path id="SVGID_41_" d="M458.6,336.7l61.3,26.4l45.3-53.7c0,0,6.9-7.7-1.3-12.9s-13.3,8.3-13.3,8.3l-34.8,37.3l-44.7-22.4
			L458.6,336.7z"/>
	</defs>
	<clipPath id="SVGID_42_">
		<use xlink:href="#SVGID_41_"  overflow="visible"/>
	</clipPath>
	<rect x="453.9" y="290.6" clip-path="url(#SVGID_42_)" fill="#F0F0F0" width="118.7" height="77.2"/>
</g>
<g>
	<defs>
		<polygon id="SVGID_43_" points="455.4,306.2 486.7,324.3 482.5,352.6 453,329.1 		"/>
	</defs>
	<clipPath id="SVGID_44_">
		<use xlink:href="#SVGID_43_"  overflow="visible"/>
	</clipPath>
	<rect x="448.3" y="301.5" clip-path="url(#SVGID_44_)" fill="#969696" width="43.1" height="55.8"/>
</g>
<g>
	<defs>
		<ellipse id="SVGID_45_" cx="468.1" cy="275.5" rx="24.1" ry="24.1"/>
	</defs>
	<clipPath id="SVGID_46_">
		<use xlink:href="#SVGID_45_"  overflow="visible"/>
	</clipPath>
	<rect x="439.3" y="246.6" clip-path="url(#SVGID_46_)" fill="#F0F0F0" width="57.5" height="57.6"/>
</g>
<g>
	<defs>
		<path id="SVGID_47_" d="M448.2,296.6l-12-3.6L355.6,305l0.6,54.9c0,0,98.1-4.2,108.9-29.5l-7.2-25.3L448.2,296.6z"/>
	</defs>
	<clipPath id="SVGID_48_">
		<use xlink:href="#SVGID_47_"  overflow="visible"/>
	</clipPath>
	<rect x="350.9" y="288.2" clip-path="url(#SVGID_48_)" fill="#969696" width="118.9" height="76.3"/>
</g>
<g>
	<defs>
		<polygon id="SVGID_49_" points="454,329.8 482.5,352.6 483.7,343 455.4,315.8 		"/>
	</defs>
	<clipPath id="SVGID_50_">
		<use xlink:href="#SVGID_49_"  overflow="visible"/>
	</clipPath>
	<rect x="449.2" y="311.1" clip-path="url(#SVGID_50_)" fill="#646464" width="39.2" height="46.2"/>
</g>
<g>
	<defs>
		<path id="SVGID_51_" d="M356.2,305.6c0,0-10.8-9.6-45.7,0c-34.9,9.6-140.8-13.3-140.8-13.3l-3.6,20.5c0,0,60.2,28.9,104.7,22.9
			c17.3-2.3,34.1,5,48.1,7.2c12.3,2.1,24.8,3.3,37.3,3.6L356.2,305.6z"/>
	</defs>
	<clipPath id="SVGID_52_">
		<use xlink:href="#SVGID_51_"  overflow="visible"/>
	</clipPath>
	<rect x="161.4" y="287.6" clip-path="url(#SVGID_52_)" fill="#777676" width="199.5" height="63.7"/>
</g>
<g>
	<defs>
		<path id="SVGID_53_" d="M169.7,292.3l-16.8-6l-12,42.2c0,0,13.2-14.5,25.3-15.7L169.7,292.3z"/>
	</defs>
	<clipPath id="SVGID_54_">
		<use xlink:href="#SVGID_53_"  overflow="visible"/>
	</clipPath>
	<rect x="136.1" y="281.6" clip-path="url(#SVGID_54_)" fill="#646464" width="38.3" height="51.6"/>
</g>
<g>
	<defs>
		<path id="SVGID_55_" d="M210.6,239.3l25.3-6c0,0,12,72.3,30.1,78.4h-44.5C221.4,311.6,217.8,241.7,210.6,239.3z"/>
	</defs>
	<clipPath id="SVGID_56_">
		<use xlink:href="#SVGID_55_"  overflow="visible"/>
	</clipPath>
	<rect x="205.9" y="228.6" clip-path="url(#SVGID_56_)" fill="#777676" width="64.8" height="87.8"/>
</g>
<g>
	<defs>
		<path id="SVGID_57_" d="M235.9,233.3l-3.6-15.7l-46.9,10.8c0,0,21.7,4.8,25.3,10.8L235.9,233.3z"/>
	</defs>
	<clipPath id="SVGID_58_">
		<use xlink:href="#SVGID_57_"  overflow="visible"/>
	</clipPath>
	<rect x="180.6" y="212.9" clip-path="url(#SVGID_58_)" fill="#646464" width="60" height="31.1"/>
</g>
<g>
	<defs>
		<path id="SVGID_59_" d="M471.9,247.6c-6.4-0.5-13-0.1-18.9,2.4c-5.9,2.4-11.1,7.1-13.3,13.1c-2.2,6-0.8,13.5,4.1,17.6
			c1.2,1.1,2.7,1.7,4.2,1.9c2.6,0.1,4.7-1.8,6.7-3.4c3.7-3,7.7-5.6,12.1-7.6c3.7-1.7,8.2-3,11.7-0.9c1.7,1,2.8,2.6,4.2,4
			c4,4,9.8,5.8,15.4,4.6c5.6-1.1,10.2-4.9,12.4-10.2c-0.9,2.2-9.5-0.8-10.8-1.5c-3.9-2.1-6-5.2-8-9
			C487.7,251,480.3,248.2,471.9,247.6z"/>
	</defs>
	<clipPath id="SVGID_60_">
		<use xlink:href="#SVGID_59_"  overflow="visible"/>
	</clipPath>
	<rect x="434" y="242.7" clip-path="url(#SVGID_60_)" fill="#646464" width="81.2" height="44.6"/>
</g>
<g>
	<defs>
		<path id="SVGID_61_" d="M471.9,246.4c-6.4-0.5-13-0.1-18.9,2.4c-5.9,2.4-11.2,7-13.3,13.1s-0.8,13.5,4.1,17.6
			c1.2,1.1,2.7,1.7,4.2,1.9c2.6,0.1,4.7-1.8,6.7-3.4c3.7-3,7.7-5.6,12.1-7.6c3.7-1.7,8.2-3,11.7-0.9c1.7,1,2.8,2.6,4.2,4
			c4,4,9.8,5.8,15.4,4.6c5.6-1.1,10.2-4.9,12.4-10.2c-0.9,2.2-9.5-0.8-10.8-1.5c-3.9-2.1-6-5.2-8-9
			C487.7,249.8,480.3,247,471.9,246.4z"/>
	</defs>
	<clipPath id="SVGID_62_">
		<use xlink:href="#SVGID_61_"  overflow="visible"/>
	</clipPath>
	<rect x="434" y="241.5" clip-path="url(#SVGID_62_)" fill="#646464" width="81.2" height="44.6"/>
</g>
<g>
	<defs>
		
			<ellipse id="SVGID_63_" transform="matrix(0.973 0.2309 -0.2309 0.973 75.4883 -98.8969)" cx="460.3" cy="273.1" rx="1.8" ry="3.6"/>
	</defs>
	<clipPath id="SVGID_64_">
		<use xlink:href="#SVGID_63_"  overflow="visible"/>
	</clipPath>
	
		<rect x="451.9" y="266.5" transform="matrix(-0.2309 0.973 -0.973 -0.2309 832.1956 -111.7138)" clip-path="url(#SVGID_64_)" fill="#F0F0F0" width="16.7" height="13"/>
</g>
<g>
	<defs>
		<polygon id="SVGID_65_" points="449.3,356.3 450.1,357.3 468.2,348.6 467.4,347.5 		"/>
	</defs>
	<clipPath id="SVGID_66_">
		<use xlink:href="#SVGID_65_"  overflow="visible"/>
	</clipPath>
	<rect x="444.6" y="342.7" clip-path="url(#SVGID_66_)" fill="#646464" width="28.3" height="19.3"/>
</g>
<g>
	<defs>
		<polygon id="SVGID_67_" points="486.3,327.4 483.3,347.2 484.4,347.8 486.7,327.6 		"/>
	</defs>
	<clipPath id="SVGID_68_">
		<use xlink:href="#SVGID_67_"  overflow="visible"/>
	</clipPath>
	<rect x="478.6" y="322.7" clip-path="url(#SVGID_68_)" fill="#646464" width="12.8" height="29.9"/>
</g>
<g>
	<defs>
		<rect id="SVGID_69_" x="376.6" y="276.7" width="14.4" height="97.6"/>
	</defs>
	<clipPath id="SVGID_70_">
		<use xlink:href="#SVGID_69_"  overflow="visible"/>
	</clipPath>
	<rect x="371.9" y="271.9" clip-path="url(#SVGID_70_)" fill="#34E3AB" width="23.9" height="107.1"/>
</g>
<g>
	<defs>
		<polygon id="SVGID_71_" points="386.3,287.5 381.4,287.5 381.4,51.7 386.2,52 		"/>
	</defs>
	<clipPath id="SVGID_72_">
		<use xlink:href="#SVGID_71_"  overflow="visible"/>
	</clipPath>
	<rect x="376.7" y="47" clip-path="url(#SVGID_72_)" fill="#34E3AB" width="14.2" height="245.2"/>
</g>
<g>
	<defs>
		<path id="SVGID_73_" d="M440.4,345.4l42.1,51.8l65-26.5c0,0,9.6-3.6,4.8-12.1c-4.9-8.5-15.6,1.2-15.6,1.2l-48.1,16.9l-29.2-40.6
			L440.4,345.4z"/>
	</defs>
	<clipPath id="SVGID_74_">
		<use xlink:href="#SVGID_73_"  overflow="visible"/>
	</clipPath>
	<rect x="435.7" y="331.4" clip-path="url(#SVGID_74_)" fill="#F0F0F0" width="122.6" height="70.5"/>
</g>
<g>
	<defs>
		<path id="SVGID_75_" d="M423,302.6c0,0,18,55.4,20.5,56.7l28.3-13.9c0,0-8-37.4-17-43.1C445.8,296.6,424.2,297.8,423,302.6z"/>
	</defs>
	<clipPath id="SVGID_76_">
		<use xlink:href="#SVGID_75_"  overflow="visible"/>
	</clipPath>
	<rect x="418.3" y="293.7" clip-path="url(#SVGID_76_)" fill="#969696" width="58.2" height="70.2"/>
</g>
<g>
	<defs>
		<path id="SVGID_77_" d="M428.1,318.1c0,0-0.9,21.2,5.1,24.8"/>
	</defs>
	<clipPath id="SVGID_78_">
		<use xlink:href="#SVGID_77_"  overflow="visible"/>
	</clipPath>
	<rect x="423.3" y="313.4" clip-path="url(#SVGID_78_)" fill="#646464" width="14.6" height="34.3"/>
</g>
<g opacity="0.5" enable-background="new    ">
	<g>
		<defs>
			<rect id="SVGID_79_" x="510.7" y="272.7" width="139.6" height="117.9"/>
		</defs>
		<clipPath id="SVGID_80_">
			<use xlink:href="#SVGID_79_"  overflow="visible"/>
		</clipPath>
		<g clip-path="url(#SVGID_80_)">
			<defs>
				<polygon id="SVGID_81_" points="645.7,272.7 636.9,281.3 614.6,374.9 614.2,374.8 543.7,373 511.2,385.9 511.2,390.7 611,389.6 
					617.9,389.6 622.2,388.7 649.9,274.3 				"/>
			</defs>
			<clipPath id="SVGID_82_">
				<use xlink:href="#SVGID_81_"  overflow="visible"/>
			</clipPath>
			<g clip-path="url(#SVGID_82_)">
				<defs>
					<rect id="SVGID_83_" x="510.7" y="272.7" width="139.6" height="117.9"/>
				</defs>
				<clipPath id="SVGID_84_">
					<use xlink:href="#SVGID_83_"  overflow="visible"/>
				</clipPath>
				<defs>
					<filter id="Adobe_OpacityMaskFilter_6_" filterUnits="userSpaceOnUse" x="510.7" y="272.7" width="139.7" height="118.1">
						<feColorMatrix  type="matrix" values="1 0 0 0 0  0 1 0 0 0  0 0 1 0 0  0 0 0 1 0"/>
					</filter>
				</defs>
				<mask maskUnits="userSpaceOnUse" x="510.7" y="272.7" width="139.7" height="118.1" id="SVGID_85_">
					<g filter="url(#Adobe_OpacityMaskFilter_6_)">
						<g>
							<defs>
								<rect id="SVGID_86_" x="511.2" y="272.7" width="139.6" height="117.9"/>
							</defs>
							<clipPath id="SVGID_87_" clip-path="url(#SVGID_84_)">
								<use xlink:href="#SVGID_86_"  overflow="visible"/>
							</clipPath>
							<g transform="matrix(1 0 0 1 3.051758e-05 0)" clip-path="url(#SVGID_87_)">
								
									<image overflow="visible" width="148" height="125" xlink:href="6483F914E2C1E24.jpg"  transform="matrix(0.9434 0 0 -0.9434 511.179 390.6731)">
								</image>
							</g>
						</g>
					</g>
				</mask>
				<g clip-path="url(#SVGID_84_)" mask="url(#SVGID_85_)">
					<defs>
						<filter id="Adobe_OpacityMaskFilter_7_" filterUnits="userSpaceOnUse" x="510.7" y="272.7" width="139.7" height="118.1">
							<feColorMatrix  type="matrix" values="1 0 0 0 0  0 1 0 0 0  0 0 1 0 0  0 0 0 1 0"/>
						</filter>
					</defs>
					<mask maskUnits="userSpaceOnUse" x="510.7" y="272.7" width="139.7" height="118.1" id="SVGID_85_">
						<g filter="url(#Adobe_OpacityMaskFilter_7_)">
							<rect x="509.7" y="271.7" width="141.6" height="119.9"/>
							<g enable-background="new    ">
								<g>
									<defs>
										<rect id="SVGID_88_" x="511.2" y="272.7" width="139.6" height="117.9"/>
									</defs>
									<clipPath id="SVGID_89_">
										<use xlink:href="#SVGID_88_"  overflow="visible"/>
									</clipPath>
									<g>
										<defs>
											<rect id="SVGID_90_" x="511.2" y="272.7" width="139.6" height="117.9"/>
										</defs>
										<clipPath id="SVGID_91_" clip-path="url(#SVGID_89_)">
											<use xlink:href="#SVGID_90_"  overflow="visible"/>
										</clipPath>
										<g transform="matrix(1 0 0 1 3.051758e-05 0)" clip-path="url(#SVGID_91_)">
											
												<image overflow="visible" width="148" height="125" xlink:href="E87130004C605ADA.jpg"  transform="matrix(0.9434 0 0 -0.9434 511.1787 390.6729)">
											</image>
										</g>
									</g>
								</g>
							</g>
						</g>
					</mask>
					<g>
						<g>
							<defs>
								<rect id="SVGID_92_" x="510.7" y="272.7" width="139.6" height="117.9"/>
							</defs>
							<clipPath id="SVGID_93_">
								<use xlink:href="#SVGID_92_"  overflow="visible"/>
							</clipPath>
							<defs>
								<filter id="Adobe_OpacityMaskFilter_8_" filterUnits="userSpaceOnUse" x="510.7" y="272.7" width="139.7" height="118.1">
									<feColorMatrix  type="matrix" values="1 0 0 0 0  0 1 0 0 0  0 0 1 0 0  0 0 0 1 0"/>
								</filter>
							</defs>
							<mask maskUnits="userSpaceOnUse" x="510.7" y="272.7" width="139.7" height="118.1" id="SVGID_85_">
								<g filter="url(#Adobe_OpacityMaskFilter_8_)">
									<g>
										<defs>
											<rect id="SVGID_94_" x="511.2" y="272.7" width="139.6" height="117.9"/>
										</defs>
										<clipPath id="SVGID_95_" clip-path="url(#SVGID_93_)">
											<use xlink:href="#SVGID_94_"  overflow="visible"/>
										</clipPath>
										<g transform="matrix(1 0 0 1 0 0)" clip-path="url(#SVGID_95_)">
											
												<image overflow="visible" width="148" height="125" xlink:href="E87130004C605ADD.jpg"  transform="matrix(0.9434 0 0 -0.9434 511.1792 390.6729)">
											</image>
										</g>
									</g>
								</g>
							</mask>
							<g clip-path="url(#SVGID_93_)">
								
									<image overflow="visible" width="582" height="492" xlink:href="E87130004C605ADE.jpg"  transform="matrix(0.24 0 0 0.24 510.7075 272.7444)">
								</image>
							</g>
						</g>
					</g>
				</g>
			</g>
		</g>
	</g>
</g>
<g>
	<defs>
		<polygon id="SVGID_96_" points="642.6,275.6 634.2,283.7 639.7,285.7 646.6,277.1 		"/>
	</defs>
	<clipPath id="SVGID_97_">
		<use xlink:href="#SVGID_96_"  overflow="visible"/>
	</clipPath>
	<rect x="629.5" y="270.9" clip-path="url(#SVGID_97_)" fill="#F5F5F5" width="21.8" height="19.6"/>
</g>
<g>
	<defs>
		<polygon id="SVGID_98_" points="634.2,283.7 639.7,285.7 616.1,386.8 609.6,386.8 		"/>
	</defs>
	<clipPath id="SVGID_99_">
		<use xlink:href="#SVGID_98_"  overflow="visible"/>
	</clipPath>
	<rect x="604.8" y="279" clip-path="url(#SVGID_99_)" fill="#F5F5F5" width="39.6" height="112.5"/>
</g>
<g>
	<defs>
		<polygon id="SVGID_100_" points="616.1,386.8 620.2,386 646.6,277.1 639.7,285.7 		"/>
	</defs>
	<clipPath id="SVGID_101_">
		<use xlink:href="#SVGID_100_"  overflow="visible"/>
	</clipPath>
	<rect x="611.4" y="272.4" clip-path="url(#SVGID_101_)" fill="#E0E0E0" width="39.9" height="119.2"/>
</g>
<g>
	<defs>
		<polygon id="SVGID_102_" points="514.5,383.3 514.5,387.8 609.6,386.8 611.1,382 		"/>
	</defs>
	<clipPath id="SVGID_103_">
		<use xlink:href="#SVGID_102_"  overflow="visible"/>
	</clipPath>
	<rect x="509.8" y="377.2" clip-path="url(#SVGID_103_)" fill="#E0E0E0" width="106" height="15.3"/>
</g>
<g>
	<defs>
		<polyline id="SVGID_104_" points="613.1,372.8 612.6,372.7 545.5,371.1 514.5,383.3 611.1,382.3 		"/>
	</defs>
	<clipPath id="SVGID_105_">
		<use xlink:href="#SVGID_104_"  overflow="visible"/>
	</clipPath>
	<rect x="509.8" y="366.4" clip-path="url(#SVGID_105_)" fill="#969696" width="108.1" height="21.7"/>
</g>
<g>
	<defs>
		<polygon id="SVGID_106_" points="573.9,379.4 575.8,373.7 612.6,373.7 610.7,380.3 		"/>
	</defs>
	<clipPath id="SVGID_107_">
		<use xlink:href="#SVGID_106_"  overflow="visible"/>
	</clipPath>
	<rect x="569.2" y="369" clip-path="url(#SVGID_107_)" fill="#34E3AB" width="48.1" height="16"/>
</g>
<g>
	<defs>
		<polygon id="SVGID_108_" points="542.8,378.4 556,373.7 565.4,373.7 560.7,378.4 		"/>
	</defs>
	<clipPath id="SVGID_109_">
		<use xlink:href="#SVGID_108_"  overflow="visible"/>
	</clipPath>
	<rect x="538.1" y="369" clip-path="url(#SVGID_109_)" fill="#34E3AB" width="32.1" height="14.2"/>
</g>
<g opacity="0.5" enable-background="new    ">
	<g>
		<defs>
			<rect id="SVGID_110_" x="441.8" y="397.3" width="17.9" height="154.7"/>
		</defs>
		<clipPath id="SVGID_111_">
			<use xlink:href="#SVGID_110_"  overflow="visible"/>
		</clipPath>
		<g clip-path="url(#SVGID_111_)">
			<defs>
				<rect id="SVGID_112_" x="441.9" y="397.3" width="17" height="154.7"/>
			</defs>
			<clipPath id="SVGID_113_">
				<use xlink:href="#SVGID_112_"  overflow="visible"/>
			</clipPath>
			<g clip-path="url(#SVGID_113_)">
				<defs>
					<rect id="SVGID_114_" x="441.8" y="397.3" width="17.9" height="154.7"/>
				</defs>
				<clipPath id="SVGID_115_">
					<use xlink:href="#SVGID_114_"  overflow="visible"/>
				</clipPath>
				<defs>
					<filter id="Adobe_OpacityMaskFilter_9_" filterUnits="userSpaceOnUse" x="441.8" y="397.3" width="18" height="154.8">
						<feColorMatrix  type="matrix" values="1 0 0 0 0  0 1 0 0 0  0 0 1 0 0  0 0 0 1 0"/>
					</filter>
				</defs>
				<mask maskUnits="userSpaceOnUse" x="441.8" y="397.3" width="18" height="154.8" id="SVGID_116_">
					<g filter="url(#Adobe_OpacityMaskFilter_9_)">
						<g>
							<defs>
								<rect id="SVGID_117_" x="441.9" y="397.3" width="17" height="154.7"/>
							</defs>
							<clipPath id="SVGID_118_" clip-path="url(#SVGID_115_)">
								<use xlink:href="#SVGID_117_"  overflow="visible"/>
							</clipPath>
							<g transform="matrix(1 0 0 1 0 0)" clip-path="url(#SVGID_118_)">
								
									<image overflow="visible" width="18" height="164" xlink:href="E87130004C605ADC.jpg"  transform="matrix(0.9434 0 0 -0.9434 441.856 551.9993)">
								</image>
							</g>
						</g>
					</g>
				</mask>
				<g clip-path="url(#SVGID_115_)" mask="url(#SVGID_116_)">
					<defs>
						<filter id="Adobe_OpacityMaskFilter_10_" filterUnits="userSpaceOnUse" x="441.8" y="397.3" width="18" height="154.8">
							<feColorMatrix  type="matrix" values="1 0 0 0 0  0 1 0 0 0  0 0 1 0 0  0 0 0 1 0"/>
						</filter>
					</defs>
					<mask maskUnits="userSpaceOnUse" x="441.8" y="397.3" width="18" height="154.8" id="SVGID_116_">
						<g filter="url(#Adobe_OpacityMaskFilter_10_)">
							<rect x="440.8" y="396.3" width="19.9" height="156.7"/>
							<g enable-background="new    ">
								<g>
									<defs>
										<rect id="SVGID_119_" x="441.9" y="397.3" width="17" height="154.7"/>
									</defs>
									<clipPath id="SVGID_120_">
										<use xlink:href="#SVGID_119_"  overflow="visible"/>
									</clipPath>
									<g>
										<defs>
											<rect id="SVGID_121_" x="441.9" y="397.3" width="17" height="154.7"/>
										</defs>
										<clipPath id="SVGID_122_" clip-path="url(#SVGID_120_)">
											<use xlink:href="#SVGID_121_"  overflow="visible"/>
										</clipPath>
										<g transform="matrix(1 0 0 1 0 0)" clip-path="url(#SVGID_122_)">
											
												<image overflow="visible" width="18" height="164" xlink:href="E87130004C605ADB.jpg"  transform="matrix(0.9434 0 0 -0.9434 441.8555 551.999)">
											</image>
										</g>
									</g>
								</g>
							</g>
						</g>
					</mask>
					<g>
						<g>
							<defs>
								<rect id="SVGID_123_" x="441.8" y="397.3" width="17.9" height="154.7"/>
							</defs>
							<clipPath id="SVGID_124_">
								<use xlink:href="#SVGID_123_"  overflow="visible"/>
							</clipPath>
							<defs>
								<filter id="Adobe_OpacityMaskFilter_11_" filterUnits="userSpaceOnUse" x="441.8" y="397.3" width="18" height="154.8">
									<feColorMatrix  type="matrix" values="1 0 0 0 0  0 1 0 0 0  0 0 1 0 0  0 0 0 1 0"/>
								</filter>
							</defs>
							<mask maskUnits="userSpaceOnUse" x="441.8" y="397.3" width="18" height="154.8" id="SVGID_116_">
								<g filter="url(#Adobe_OpacityMaskFilter_11_)">
									<g>
										<defs>
											<rect id="SVGID_125_" x="441.9" y="397.3" width="17" height="154.7"/>
										</defs>
										<clipPath id="SVGID_126_" clip-path="url(#SVGID_124_)">
											<use xlink:href="#SVGID_125_"  overflow="visible"/>
										</clipPath>
										<g transform="matrix(1 0 0 1 0 0)" clip-path="url(#SVGID_126_)">
											
												<image overflow="visible" width="18" height="164" xlink:href="E87130004C605AC5.jpg"  transform="matrix(0.9434 0 0 -0.9434 441.8562 551.999)">
											</image>
										</g>
									</g>
								</g>
							</mask>
							<g clip-path="url(#SVGID_124_)">
								
									<image overflow="visible" width="75" height="645" xlink:href="E87130004C605AC6.jpg"  transform="matrix(0.24 0 0 0.24 441.8373 397.2769)">
								</image>
							</g>
						</g>
					</g>
				</g>
			</g>
		</g>
	</g>
</g>
<g opacity="0.5" enable-background="new    ">
	<g>
		<defs>
			<rect id="SVGID_127_" x="677.7" y="397.3" width="17.9" height="154.7"/>
		</defs>
		<clipPath id="SVGID_128_">
			<use xlink:href="#SVGID_127_"  overflow="visible"/>
		</clipPath>
		<g clip-path="url(#SVGID_128_)">
			<defs>
				<rect id="SVGID_129_" x="677.7" y="397.3" width="17" height="154.7"/>
			</defs>
			<clipPath id="SVGID_130_">
				<use xlink:href="#SVGID_129_"  overflow="visible"/>
			</clipPath>
			<g clip-path="url(#SVGID_130_)">
				<defs>
					<rect id="SVGID_131_" x="677.7" y="397.3" width="17.9" height="154.7"/>
				</defs>
				<clipPath id="SVGID_132_">
					<use xlink:href="#SVGID_131_"  overflow="visible"/>
				</clipPath>
				<defs>
					<filter id="Adobe_OpacityMaskFilter_12_" filterUnits="userSpaceOnUse" x="677.7" y="397.3" width="18" height="154.8">
						<feColorMatrix  type="matrix" values="1 0 0 0 0  0 1 0 0 0  0 0 1 0 0  0 0 0 1 0"/>
					</filter>
				</defs>
				<mask maskUnits="userSpaceOnUse" x="677.7" y="397.3" width="18" height="154.8" id="SVGID_133_">
					<g filter="url(#Adobe_OpacityMaskFilter_12_)">
						<g>
							<defs>
								<rect id="SVGID_134_" x="677.7" y="397.3" width="17" height="154.7"/>
							</defs>
							<clipPath id="SVGID_135_" clip-path="url(#SVGID_132_)">
								<use xlink:href="#SVGID_134_"  overflow="visible"/>
							</clipPath>
							<g transform="matrix(1 0 0 1 0 0)" clip-path="url(#SVGID_135_)">
								
									<image overflow="visible" width="18" height="164" xlink:href="E87130004C605AC4.jpg"  transform="matrix(0.9434 0 0 -0.9434 677.713 551.9993)">
								</image>
							</g>
						</g>
					</g>
				</mask>
				<g clip-path="url(#SVGID_132_)" mask="url(#SVGID_133_)">
					<defs>
						<filter id="Adobe_OpacityMaskFilter_13_" filterUnits="userSpaceOnUse" x="677.7" y="397.3" width="18" height="154.8">
							<feColorMatrix  type="matrix" values="1 0 0 0 0  0 1 0 0 0  0 0 1 0 0  0 0 0 1 0"/>
						</filter>
					</defs>
					<mask maskUnits="userSpaceOnUse" x="677.7" y="397.3" width="18" height="154.8" id="SVGID_133_">
						<g filter="url(#Adobe_OpacityMaskFilter_13_)">
							<rect x="676.7" y="396.3" width="19.9" height="156.7"/>
							<g enable-background="new    ">
								<g>
									<defs>
										<rect id="SVGID_136_" x="677.7" y="397.3" width="17" height="154.7"/>
									</defs>
									<clipPath id="SVGID_137_">
										<use xlink:href="#SVGID_136_"  overflow="visible"/>
									</clipPath>
									<g>
										<defs>
											<rect id="SVGID_138_" x="677.7" y="397.3" width="17" height="154.7"/>
										</defs>
										<clipPath id="SVGID_139_" clip-path="url(#SVGID_137_)">
											<use xlink:href="#SVGID_138_"  overflow="visible"/>
										</clipPath>
										<g transform="matrix(1 0 0 1 0 0)" clip-path="url(#SVGID_139_)">
											
												<image overflow="visible" width="18" height="164" xlink:href="E87130004C605ACA.jpg"  transform="matrix(0.9434 0 0 -0.9434 677.7129 551.999)">
											</image>
										</g>
									</g>
								</g>
							</g>
						</g>
					</mask>
					<g>
						<g>
							<defs>
								<rect id="SVGID_140_" x="677.7" y="397.3" width="17.9" height="154.7"/>
							</defs>
							<clipPath id="SVGID_141_">
								<use xlink:href="#SVGID_140_"  overflow="visible"/>
							</clipPath>
							<defs>
								<filter id="Adobe_OpacityMaskFilter_14_" filterUnits="userSpaceOnUse" x="677.7" y="397.3" width="18" height="154.8">
									<feColorMatrix  type="matrix" values="1 0 0 0 0  0 1 0 0 0  0 0 1 0 0  0 0 0 1 0"/>
								</filter>
							</defs>
							<mask maskUnits="userSpaceOnUse" x="677.7" y="397.3" width="18" height="154.8" id="SVGID_133_">
								<g filter="url(#Adobe_OpacityMaskFilter_14_)">
									<g>
										<defs>
											<rect id="SVGID_142_" x="677.7" y="397.3" width="17" height="154.7"/>
										</defs>
										<clipPath id="SVGID_143_" clip-path="url(#SVGID_141_)">
											<use xlink:href="#SVGID_142_"  overflow="visible"/>
										</clipPath>
										<g transform="matrix(1 0 0 1 0 0)" clip-path="url(#SVGID_143_)">
											
												<image overflow="visible" width="18" height="164" xlink:href="E87130004C605ACD.jpg"  transform="matrix(0.9434 0 0 -0.9434 677.7131 551.999)">
											</image>
										</g>
									</g>
								</g>
							</mask>
							<g clip-path="url(#SVGID_141_)">
								
									<image overflow="visible" width="75" height="645" xlink:href="E87130004C605AE1.jpg"  transform="matrix(0.24 0 0 0.24 677.6942 397.2769)">
								</image>
							</g>
						</g>
					</g>
				</g>
			</g>
		</g>
	</g>
</g>
<g>
	<defs>
		<rect id="SVGID_144_" x="443.7" y="397.3" width="14.2" height="151.9"/>
	</defs>
	<clipPath id="SVGID_145_">
		<use xlink:href="#SVGID_144_"  overflow="visible"/>
	</clipPath>
	<rect x="439" y="392.6" clip-path="url(#SVGID_145_)" fill="#777676" width="23.6" height="161.3"/>
</g>
<g>
	<defs>
		<rect id="SVGID_146_" x="679.6" y="397.3" width="14.2" height="151.9"/>
	</defs>
	<clipPath id="SVGID_147_">
		<use xlink:href="#SVGID_146_"  overflow="visible"/>
	</clipPath>
	<rect x="674.9" y="392.6" clip-path="url(#SVGID_147_)" fill="#777676" width="23.6" height="161.3"/>
</g>
<g>
	<defs>
		
			<rect id="SVGID_148_" x="485.7" y="282.4" transform="matrix(-0.8329 -0.5534 0.5534 -0.8329 734.775 796.2145)" width="3.8" height="9.5"/>
	</defs>
	<clipPath id="SVGID_149_">
		<use xlink:href="#SVGID_148_"  overflow="visible"/>
	</clipPath>
	
		<rect x="481" y="277.7" transform="matrix(-0.8329 -0.5534 0.5534 -0.8329 734.7761 796.214)" clip-path="url(#SVGID_149_)" fill="#646464" width="13.2" height="18.9"/>
</g>
<g>
	<defs>
		
			<rect id="SVGID_150_" x="461.3" y="276" transform="matrix(-0.8327 -0.5537 0.5537 -0.8327 717.7432 770.6591)" width="27.9" height="1.9"/>
	</defs>
	<clipPath id="SVGID_151_">
		<use xlink:href="#SVGID_150_"  overflow="visible"/>
	</clipPath>
	
		<rect x="456.6" y="271.3" transform="matrix(-0.8327 -0.5537 0.5537 -0.8327 717.7446 770.6584)" clip-path="url(#SVGID_151_)" fill="#646464" width="37.4" height="11.3"/>
</g>
</svg>
