<?xml version="1.0" encoding="utf-8"?>
<!-- Generator: Adobe Illustrator 18.1.1, SVG Export Plug-In . SVG Version: 6.00 Build 0)  -->
<svg version="1.1" id="_x2018_ÎÓÈ_x5F_3" xmlns="http://www.w3.org/2000/svg" xmlns:xlink="http://www.w3.org/1999/xlink"
	 x="0px" y="0px" viewBox="0 0 855 607" enable-background="new 0 0 855 607" xml:space="preserve">
<ellipse opacity="0.1" fill="#34E3AB" enable-background="new    " cx="497.7" cy="539" rx="158" ry="30.5"/>
<path opacity="0.1" fill="#34E3AB" enable-background="new    " d="M397.5,80.9c-23.3,0-45.8-6.3-68.5-10.8
	c-25.1-5.1-50.6-8.7-76-10.8c-27.2-2.1-55.1-2.1-81.4,3.3s-51.5,17.1-66.7,34.7C79.1,127,86,167.1,99.8,201.2
	c16.2,40.7,40.4,79.9,76.6,111.9c25.7,22.7,56.8,41.6,87.4,60.1c17.4,10.5,35,20.9,54.8,28.4c18.6,6.9,38.3,11.1,58,15.6
	c21.2,4.5,42.2,9,63.7,11.7c68.8,9,139.4,0.3,208.2-9c24.2-3.3,49.4-7.2,68.8-18.9c15-9.3,24.8-22.4,32-36.2
	c9.3-18,14.1-38.9,3.9-56.8c-15-26.3-56.8-38-73.6-63.7c-21.2-32.9,8.1-73.6-5.7-108.9c-5.7-14.7-18.3-26.9-31.4-38.6
	c-31.4-27.2-71.8-50.6-121.2-40.7C479.5,64.4,442.3,81.2,397.5,80.9z"/>
<linearGradient id="SVGID_1_" gradientUnits="userSpaceOnUse" x1="1052.488" y1="-570.4861" x2="1052.488" y2="1028.0454" gradientTransform="matrix(0.2947 0 0 -0.2947 195.6691 383.5938)">
	<stop  offset="0" style="stop-color:#808080;stop-opacity:0.25"/>
	<stop  offset="0.54" style="stop-color:#808080;stop-opacity:0.12"/>
	<stop  offset="1" style="stop-color:#808080;stop-opacity:0.1"/>
</linearGradient>
<path fill="url(#SVGID_1_)" d="M565.6,172.2c-0.3-0.3-0.9-0.9-1.2-1.2c3-3.3,6-6.9,6-11.4c0-5.4-4.8-9.6-6.6-14.4
	c-2.4-6.9,0.9-14.1,2.4-21.2c2.1-11.7-1.2-23.6-8.7-32.9c-1.5-1.8-3-3.3-5.1-3.9c-3.3-0.9-6.6,0.3-9.9,0.9
	c-10.8,1.2-20.6-8.1-31.4-7.2c-0.6,0-1.5,0.3-2.1,0.3c-1.5,0.6-2.1,2.1-3,3.3c-3.3,5.1-9,7.5-14.7,9.9c-0.6,0.3-1.5,0.6-2.1,0.9
	c-1.8,0.9-3.3,1.5-5.1,2.7c-10.8,6.3-9,15-2.7,20.6c-1.2,6-7.5,11.4-6.6,18c0.9,5.1,6,8.4,6.9,13.2c0.6,2.7-0.3,5.7-1.5,8.4
	c-12,2.7-25.4,7.8-26.3,16.8c-1.8,15.6-7.2,58.6-7.2,58.6s-6.3,34.4,18,18.3l-0.3,0.9c-4.2,13.2-7.2,26.9-9,40.7
	c-0.3,2.1-0.6,3.6-1.8,4.2c-0.3,0.3,0.3,0.6,1.8,0.9c-0.3,0.6-0.3,1.2-0.3,1.8c-2.7,10.2-4.2,20.3-5.1,30.8
	c-0.6,9.3-1.8,18.3-3.9,27.5c-5.7,28.7,0,65.8,0,65.8l12.6,58.9l2.1,10.2c1.5,1.5,3.3,2.7,5.1,3.6c0.9,3.6,1.5,7.2,1.8,11.1
	c0,0.3,0,0.9,0,1.2c-1.5,0.3-3,1.2-3.6,2.4c-4.5,6.3,0.6,11.4-16.5,23.9c-4.5,3.3-6.6,6.3-7.2,8.7l0,0c-0.6,2.7,0.6,4.8,3,6.3l0,0
	c0.3,0.3,0.9,0.3,1.2,0.6l0,0c0.3,0,0.3,0.3,0.6,0.3l0,0c0.3,0,0.3,0.3,0.6,0.3l0,0l0.6,0.3l0,0l0.6,0.3l0,0l0.6,0.3l0,0h0.6l0,0
	h0.6l0,0h0.9l0,0h0.6h0.3h0.9l0,0h0.6h0.3h0.9l0,0h0.6h0.3l0.9-0.3l0,0l0.6-0.3h0.3c0.3,0,0.6-0.3,0.6-0.3l0,0l0.6-0.3h0.3
	c0.3,0,0.3-0.3,0.6-0.3c11.4-5.1,35-18.3,35-18.3v-0.3c0,0,0,0,0-0.3c0-0.3,0,0,0-0.3c0-0.3,0,0,0-0.3v-0.3v-0.3v-0.3v-0.3
	c0,0,0-0.3,0-0.6l0,0c0-5.4-0.6-18-3-17.7c-0.9,0.3-1.5,1.2-2.1,2.7l-0.3-0.6c-2.4-4.8-6-12.6-6.3-20.6c1.8-1.5,3.9-3,5.4-4.8
	c0,0-1.2-5.4-2.4-11.1c-0.9-5.1-1.8-10.2-1.5-12c0.6-4.5-7.8-38.3-7.8-38.3s0.9-7.5,2.7-18c3.3-20,9.9-51.2,19.7-59.8
	c0.3-0.3,0.3-0.3,0.6-0.6c0,0,6.9,1.2,12.6,40.7l1.8,17.7c0.3,4.8,1.2,9.6,2.4,14.4c1.2,4.8,2.4,12.6,1.5,23
	c-0.6,10.5-1.2,22.4-1.2,31.1c0,6.6,0,10.8,0,10.8c1.2,0.9,2.4,1.8,3.9,2.7v5.7c0,1.2-0.6,2.4-1.2,3.3l0,0c-0.9,1.2-1.5,2.1-1.8,3.6
	c-1.2,2.1-2.1,5.4-2.4,10.5c-1.2,17.1-1.8,15-1.8,15c-0.6,1.8-1.2,3.9-1.5,5.7l0,0c0,0.3,0,0.6,0,1.2c0,0,0,0,0,0.3
	c0,0.3,0,0.3,0,0.6v0.3v0.3v0.3v0.3v0.3v0.3c0,0.3,0,0.3,0.3,0.3v0.3c0,0.3,0,0.3,0.3,0.3l0,0c0,0.3,0.3,0.3,0.3,0.3l0,0
	c0,0.3,0.3,0.3,0.3,0.3l0,0c0,0.3,0.3,0.3,0.3,0.3l0,0c0.3,0,0.3,0.3,0.3,0.3l0,0c0.3,0,0.3,0.3,0.6,0.3l0,0c0.3,0,0.3,0.3,0.6,0.3
	l0,0c0.3,0,0.3,0.3,0.6,0.3l0,0c0.3,0,0.6,0,0.9,0l0,0c0.3,0,0.6,0,0.9,0h0.3c0.3,0,0.6,0,0.9,0h0.3c0.3,0,0.6,0,1.2,0
	c13.5-1.8,19.7-3,19.1-10.8c-0.3-4.5-1.5-11.1-2.4-15.6c-0.3-2.4-1.2-4.5-2.1-6.6c0-0.3,0-0.6,0-1.2c0.3-3,0.3-6.9-0.6-9.3l0.3-5.4
	c3.3-0.9,6.3-2.7,8.7-5.1c0,0,0-4.2,0.3-9.6c0.3-8.4,1.2-19.7,2.7-24.5c2.7-7.5,0-33.8,0-33.8s-9.6-45.2-0.6-64.6
	c7.8-17.1,7.8-34.4,0.3-50.9c0.3,0,0.3-0.3,0.3-0.3s-1.8-1.2-1.2-15.6c0.6-11.1-2.7-22.4-4.2-27.2c2.4,1.2,5.1,1.8,7.5,2.7
	c14.7,4.2,15.9-12,15.9-12l3.3-24.5l3.9-36.5l0,0C571.6,187.7,573.1,180.5,565.6,172.2z M501,147.9c0,0.3,0,0.9,0,1.2
	c0,1.2-0.3,2.7-0.9,3.9C500.4,151.2,500.7,149.7,501,147.9L501,147.9z M539.6,237.1c0.3,0.3,0.3,0.9,0.6,1.2l-1.5-0.9
	c0.6-3,1.5-5.7,3-8.7c1.5-3.3,3-6.6,3.9-9.9c0,3.9,0.3,7.8,0.6,11.7C547.1,240.7,539.6,237.1,539.6,237.1L539.6,237.1z"/>
<path fill="#646464" d="M485.4,100.7c-2.1,1.5-4.2,3-4.8,5.4c-1.2,3.9,1.8,7.5,2.1,11.7c0.6,7.2-7.5,13.2-6.6,20.3
	c0.9,4.8,5.7,8.1,6.9,13.2c1.5,7.2-6.3,13.5-5.7,20.6c0.3,3.9,3,7.2,6,9.6c4.2,3.3,9.3,5.4,14.7,6c-0.3-6.3-5.1-11.7-4.2-18
	c0.6-4.2,3.6-7.8,5.1-11.7c3-6.9,2.1-14.7,0.3-21.8c-1.8-7.2-4.5-14.4-4.5-21.8c0-4.5,2.1-11.1,0.3-15.3
	C493.2,93.5,489,98.3,485.4,100.7z"/>
<path opacity="0.1" enable-background="new    " d="M485.4,100.7c-2.1,1.5-4.2,3-4.8,5.4c-1.2,3.9,1.8,7.5,2.1,11.7
	c0.6,7.2-7.5,13.2-6.6,20.3c0.9,4.8,5.7,8.1,6.9,13.2c1.5,7.2-6.3,13.5-5.7,20.6c0.3,3.9,3,7.2,6,9.6c4.2,3.3,9.3,5.4,14.7,6
	c-0.3-6.3-5.1-11.7-4.2-18c0.6-4.2,3.6-7.8,5.1-11.7c3-6.9,2.1-14.7,0.3-21.8c-1.8-7.2-4.5-14.4-4.5-21.8c0-4.5,2.1-11.1,0.3-15.3
	C493.2,93.5,489,98.3,485.4,100.7z"/>
<path fill="#F0F0F0" d="M491.4,516.9l-5.7,5.7c0,0-20,10.5-17.4-3.6c0.6-4.2,0.9-8.7,0.3-12.9c-0.6-6-1.8-12-3.6-17.7l18.6-3.6
	c-3,9.9,2.1,22.1,5.1,28.4C490.2,515.4,491.4,516.9,491.4,516.9z"/>
<path fill="#F0F0F0" d="M533.6,505.5c-0.3,1.8-0.3,3.9-0.6,5.7c0,0-15.6,10.5-16.8-1.2c-0.9-7.8,1.2-11.1,2.4-12.6l0,0
	c0.9-0.9,1.2-2.1,1.2-3.3V480l13.8,4.2l-0.6,11.7C533.9,498.9,533.9,502.5,533.6,505.5z"/>
<path opacity="5.000000e-02" enable-background="new    " d="M491.4,516.9l-5.7,5.7c0,0-20,10.5-17.4-3.6c0.6-4.2,0.9-8.7,0.3-12.9
	c4.2-0.6,9.6,4.2,9.6,4.2c7.2,10.2,9.3,6.3,10.8,2.7C490.2,515.4,491.4,516.9,491.4,516.9z"/>
<path fill="#C8C8C8" d="M478.3,511.2c0,0-8.7-8.1-13.2-1.8c-4.2,6.3,0.6,11.1-16.2,23.6c-16.8,12.6,0,20.6,11.1,15.6
	c11.1-5.1,34.1-18,34.1-18s0-20.6-3-20C488.1,511.2,488.7,526.1,478.3,511.2z"/>
<path opacity="5.000000e-02" enable-background="new    " d="M533.6,505.5c-0.3,1.8-0.3,3.9-0.6,5.7c0,0-15.6,10.5-16.8-1.2
	c-0.9-7.8,1.2-11.1,2.4-12.6c1.2-0.9,2.7-0.9,3.9-0.3c2.4-1.2,5.1,0.6,7.5,3C531.5,501.9,532.7,503.7,533.6,505.5z"/>
<path fill="#C8C8C8" d="M522.5,498.3c0,0-6.9-3.6-8.1,13.2c-1.2,16.8-1.8,15-1.8,15s-6.3,15,6.9,13.2c13.2-1.8,19.4-3,18.6-10.5
	c-0.3-4.5-1.5-11.1-2.1-15.6c-0.6-4.5-2.7-8.7-5.7-11.7C527.6,498.9,524.9,497.1,522.5,498.3z"/>
<path fill="#646464" d="M544.7,418.7c0,0,2.4,26,0,33.5c-1.5,4.5-2.4,15.9-2.7,24.2c-0.3,5.4-0.3,9.3-0.3,9.3
	c-11.7,12.6-25.4,0-25.4,0s0-4.2,0-10.8c0-8.4,0.3-20.6,1.2-30.8c0.6-10.5-0.3-18.3-1.5-23c-1.2-4.8-1.8-9.6-2.4-14.4l-1.5-17.4
	c-5.7-39.2-12.6-40.4-12.6-40.4c-0.3,0.3-0.3,0.3-0.6,0.6c-9.6,8.7-15.9,39.5-19.1,59.5c-1.8,10.2-2.4,17.7-2.4,17.7
	s8.1,33.5,7.5,38c-0.3,2.1,0.6,7.2,1.5,12c1.2,5.7,2.4,11.1,2.4,11.1c-15.6,16.8-26,3.6-26,3.6l-2.1-9.9l-12.3-58.3
	c0,0-5.7-36.8,0-65.2c1.8-9,3-18,3.6-27.2c0.6-10.2,2.4-20.6,5.1-30.5c0.9-3,1.5-6,2.7-8.7c1.5-4.5,23.3-4.2,45.2-4.2
	c16.5,0,32.3,2.4,36.8,10.2c1.2,1.8,2.1,3.6,2.7,5.7c7.8,17.1,8.1,34.4,0.3,51.8C535.4,373.8,544.7,418.7,544.7,418.7z"/>
<path fill="#F0F0F0" d="M492.6,192.8c0,0-32.9-33.5-8.1-31.1c5.7,0.6,9.6-0.3,12-2.4c3-2.1,4.2-5.4,4.5-9c0.6-6.9-2.1-14.4-2.1-14.4
	s33.5-26.6,26.6,6.9c-0.9,3.3-1.2,6.9-1.2,10.5c0,7.2,2.1,9.9,5.7,11.1c5.7,1.8,13.8-0.9,17.7,5.4
	C554.3,181.1,492.6,192.8,492.6,192.8z"/>
<path opacity="5.000000e-02" enable-background="new    " d="M525.5,143.1c-0.9,3.3-1.2,6.9-1.2,10.5c-0.9,0.3-1.8,0.6-2.7,0.9
	c-7.2,1.5-14.7,0.3-20.6-3.6c0.6-6.9-2.1-14.4-2.1-14.4S532.4,109.6,525.5,143.1z"/>
<path fill="#F0F0F0" d="M542.3,127c0,14.7-12,26.6-26.6,26.6c-14.7,0-26.6-12-26.6-26.6c0-0.6,0-0.9,0-1.5
	c0.9-14.7,13.5-26,28.1-25.1C531.2,101.3,542.3,112.9,542.3,127z"/>
<path opacity="5.000000e-02" enable-background="new    " d="M492.6,192.8c0,0-32.9-33.5-8.1-31.1c5.7,0.6,9.6-0.3,12-2.4
	c-4.8,8.1-10.2,22.4,14.1,20.9c22.4-1.2,21.8-10.2,19.1-15.9c5.7,1.8,13.8-0.9,17.7,5.4C554.3,181.1,492.6,192.8,492.6,192.8z"/>
<path opacity="0.1" enable-background="new    " d="M544.7,305.6c-5.7,7.2-77.8-2.4-88.3-5.4c0.9-3,1.5-6,2.7-8.7
	c1.5-4.5,23.3-4.2,45.2-4.2c16.5,0,32.3,2.4,36.8,10.2c1.2,1.8,2.1,3.6,2.7,5.7C544.4,305,544.7,305.6,544.7,305.6z"/>
<path fill="#969696" d="M499.5,156.3c0,0-41.9,3.3-43.7,19.4c-1.8,15.6-7.2,58-7.2,58s-6.3,34.1,17.4,18l-0.3,0.9
	c-4.2,13.2-7.2,26.6-8.7,40.4c-0.3,2.1-0.6,3.6-1.5,4.2c-3,1.8,83.5,14.4,89.5,6.3c0,0-1.8-1.2-1.2-15.6c0.6-14.4-5.1-29.3-5.1-29.3
	s-5.1-15,1.8-29.3c6.9-14.4,4.2-18.6,4.2-18.6l23.6-18c0,0,5.1-8.7-4.2-19.4c-5.7-6.6-13.8-10.5-22.1-11.1l-16.5-1.2
	c0,0,18,19.1-15.6,20.9C476.5,184.1,499.5,156.3,499.5,156.3z"/>
<path opacity="5.000000e-02" enable-background="new    " d="M471.4,190.4c0,0,1.2,9.9-1.2,13.2c-2.4,3.3-3,17.4,0,26"/>
<path opacity="0.1" enable-background="new    " d="M498.9,349.6c-9.6,8.7-15.9,39.5-19.1,59.5c-4.5-27.8,14.4-73.6,14.4-73.6
	L498.9,349.6z"/>
<path opacity="0.1" enable-background="new    " d="M488.1,487.5c-15.6,16.8-26,3.6-26,3.6l-2.1-9.9c6,3,15.9,5.4,26-4.8
	C486.9,482.1,488.1,487.5,488.1,487.5z"/>
<path opacity="0.1" enable-background="new    " d="M542,476.5c-0.3,5.4-0.3,9.3-0.3,9.3c-11.7,12.6-25.4,0-25.4,0s0-4.2,0-10.8
	C521.3,478.3,530.6,481.8,542,476.5z"/>
<path fill="#CDD0DB" d="M477.1,211.7h37.7c1.2,0,2.4,1.2,2.4,2.4v12.9c0,1.2-1.2,2.4-2.4,2.4h-37.7c-1.2,0-2.4-1.2-2.4-2.4v-12.9
	C474.7,212.6,475.6,211.7,477.1,211.7z"/>
<path opacity="5.000000e-02" enable-background="new    " d="M477.1,211.7h37.7c1.2,0,2.4,1.2,2.4,2.4v12.9c0,1.2-1.2,2.4-2.4,2.4
	h-37.7c-1.2,0-2.4-1.2-2.4-2.4v-12.9C474.7,212.6,475.6,211.7,477.1,211.7z"/>
<path fill="#CDD0DB" d="M477.1,212.3h37.7c1.2,0,2.4,1.2,2.4,2.4v12.9c0,1.2-1.2,2.4-2.4,2.4h-37.7c-1.2,0-2.4-1.2-2.4-2.4v-12.9
	C474.7,213.2,475.6,212.3,477.1,212.3z"/>
<circle fill="#9DA7C0" cx="507.9" cy="220.6" r="1.8"/>
<path opacity="5.000000e-02" enable-background="new    " d="M456.4,239.2c1.2-3.3,3.6-6,7.2-7.5c2.1-0.9,4.8-2.4,6-5.4
	c2.4-5.4,6.9-11.1,18-7.2c11.1,3.6-3,6.3-3,6.3s25.4-3.6,15.6,3.6c-9.9,7.5-22.4,11.7-22.4,11.7l-6,6.6c-3.6,3.9-10.2,3.9-13.8-0.3
	C456.4,245.2,455.5,242.5,456.4,239.2z"/>
<path fill="#F0F0F0" d="M455.8,238c1.2-3.3,3.6-6,7.2-7.5c2.1-0.9,4.8-2.4,6-5.4c2.4-5.4,6.9-11.1,18-7.2c11.1,3.6-3,6.3-3,6.3
	s25.4-3.6,15.6,3.6c-9.9,7.5-22.4,11.7-22.4,11.7l-6,6.6c-3.6,3.9-10.2,3.9-13.8-0.3C455.8,244,454.9,241.3,455.8,238z"/>
<path opacity="5.000000e-02" enable-background="new    " d="M543.5,250.9l-4.2,10.5l-5.7-4.2L518,245.8l-10.5-6.9
	c-15-11.1,0-13.2,0-13.2c-5.7-2.4,0-5.1,0-5.1c20-4.2,16.2,11.7,16.2,11.7l12.6,6.6l4.2,2.1L543.5,250.9z"/>
<path fill="#F0F0F0" d="M544.7,249.4l-4.2,10.5l-5.7-4.2l-15.6-11.4l-10.5-6.9c-15-11.1,0-13.2,0-13.2c-5.7-2.4,0-5.1,0-5.1
	c20-4.2,16.2,11.7,16.2,11.7l12.6,6.6l4.2,2.1L544.7,249.4z"/>
<path opacity="5.000000e-02" enable-background="new    " d="M544.7,249.4l-4.2,10.5l-5.7-4.2c5.1,0.3,11.1-2.4,2.7-18l4.2,2.1
	L544.7,249.4z"/>
<path fill="#969696" d="M567.7,186.8l1.2,4.8l-3.6,36.2l-3,24.2c0,0-1.2,16.2-15.6,11.7c-14.4-4.2-15.6-8.7-15.6-8.7
	s20.6,6.9,7.5-17.4c0,0,7.5,3.6,6.3-6.3c-1.2-9.9,0-27.2,0-27.2L567.7,186.8z"/>
<path opacity="5.000000e-02" enable-background="new    " d="M542.3,127c0,12.6-8.7,23.3-20.9,26c-0.9-2.7-1.5-5.1-0.9-7.8
	c1.2-5.1,7.2-8.7,6.6-14.1c0-0.6-0.3-1.2-0.6-1.5c-1.2-1.8-3.9-0.9-6-0.3c-5.4,1.2-11.7-2.7-13.2-8.1c-4.8,4.8-12,6.6-18.6,4.2
	c0.9-14.7,13.5-26,28.1-25.1C531.2,101.3,542.3,112.9,542.3,127L542.3,127z"/>
<path fill="#646464" d="M508.2,120.1c1.5,5.4,7.5,9,12.9,8.1c2.1-0.3,4.8-1.2,6,0.3c0.3,0.3,0.6,1.2,0.6,1.5c0.6,5.1-5.1,9-6.6,14.1
	c-1.2,5.1,2.4,10.2,3.3,15.6c0.3,3,0,6,0,8.7c0,2.7,0.6,6,3,8.1c2.4,2.1,6.3,2.1,7.8-0.6c6.9,3.6,4.2,15.3,9.6,20.9
	c3,3.3,7.8,3.9,12,3.6c1.2,0,2.1-0.3,2.7-0.9c0.6-0.6,1.2-1.5,1.5-2.7c1.2-4.2,0.9-8.7-0.6-12.6c-0.6-1.8-1.8-3.9-1.5-6
	c0.3-1.5,1.2-3,2.1-4.2c3.3-4.2,8.1-8.1,7.8-13.5c0-5.4-4.8-9.3-6.3-14.4c-2.4-6.9,0.9-14.1,2.1-21.2c2.1-11.7-0.9-23.6-8.4-32.6
	c-1.2-1.5-3-3.3-5.1-3.9c-3-0.9-6.3,0.3-9.6,0.9c-10.5,1.2-20-8.1-30.8-7.2c-0.6,0-1.5,0.3-2.1,0.3c-1.5,0.6-2.1,2.1-3,3.3
	c-4.8,6.9-13.8,9-20.9,13.5C464.2,112.6,492,135.4,508.2,120.1z"/>
<path opacity="0.3" fill="#FFFFFF" enable-background="new    " d="M460.3,546.2c-7.2,3.3-17.1,0.9-18.3-4.5
	c-1.5,7.2,9.9,10.5,18.3,6.9c11.1-5.1,34.1-18,34.1-18s0-0.9,0-2.4C493.8,528.5,471.4,541.1,460.3,546.2z"/>
<path opacity="0.3" fill="#FFFFFF" enable-background="new    " d="M538.1,528.2c-0.6,5.7-6.9,6.9-18.6,8.4c-6,0.9-7.8-1.8-8.4-5.1
	c-0.3,3.9,0.6,8.4,8.4,7.5c13.2-1.8,19.4-3,18.6-10.5C538.1,528.5,538.1,528.5,538.1,528.2z"/>
<path fill="none" stroke="#646464" stroke-width="4.2197" stroke-miterlimit="10" d="M615,539.6c0,0-9-45.8,9.6-76.9
	c7.8-13.2,11.4-28.4,9.6-43.4c-0.9-7.2-2.4-14.4-4.2-21.2"/>
<path fill="#34E3AB" d="M641.3,378.3c-0.6,5.4-11.7,20.3-11.7,20.3s-8.4-16.8-8.1-22.1c0.3-5.4,5.1-9.6,10.5-9.3s9.6,5.1,9.3,10.5
	C641.3,378,641.3,378,641.3,378.3L641.3,378.3z"/>
<path fill="#34E3AB" d="M654.8,410c-3.3,4.2-20.9,10.8-20.9,10.8s2.1-18.6,5.4-22.7c3.3-4.5,9.3-5.4,13.8-2.4
	c4.5,3.3,5.4,9.3,2.4,13.8C655.4,409.4,655.1,409.7,654.8,410L654.8,410z"/>
<path fill="#34E3AB" d="M649.4,461.2c-5.1,2.1-23.3-1.5-23.3-1.5s11.1-15,16.2-17.1c5.1-2.1,10.8,0.3,12.9,5.4
	c2.1,5.1-0.3,10.8-5.4,12.9C649.7,461.2,649.7,461.2,649.4,461.2z"/>
<path fill="#34E3AB" d="M636.5,499.2c-4.8,2.7-23.3,2.7-23.3,2.7s8.4-16.8,13.2-19.4c4.5-3,10.8-1.5,13.8,3s1.5,10.8-3,13.8
	C636.8,499.2,636.5,499.2,636.5,499.2L636.5,499.2z"/>
<path fill="#34E3AB" d="M613.2,419.6c3.6,4.2,21.5,9.9,21.5,9.9s-2.7-18.6-6.3-22.7c-3.6-4.2-9.9-4.5-14.1-0.9
	C610.2,409.4,609.6,415.4,613.2,419.6z"/>
<path fill="#34E3AB" d="M598.5,464.2c4.8,3,23.3,3,23.3,3s-8.1-16.8-12.9-19.7c-4.5-3-10.8-1.8-13.8,3
	C592.6,455.2,593.7,461.2,598.5,464.2L598.5,464.2L598.5,464.2z"/>
<path fill="#34E3AB" d="M590.5,509.7c4.2,3.6,22.4,6.9,22.4,6.9s-5.1-18-9.3-21.5c-3.9-3.9-10.2-3.6-14.1,0.3
	c-3.9,3.9-3.6,10.2,0.3,14.1C590.2,509.4,590.5,509.4,590.5,509.7z"/>
<path fill="#34E3AB" d="M422.9,146.5c-0.4-6.1-5.4-11.1-11.5-11.1H259.4c-5.7,0-11.1,4.2-11.9,10.3c-0.8,6.5,3.8,12.3,10.3,13
	c0.4,0,0.8,0,1.5,0h152.1h0.8c3.8-0.4,7.3,1.5,9.2,5c0.8,1.1,1.1,2.7,1.5,3.8l0.4,0.4v-21.4H422.9z"/>
<path fill="#34E3AB" d="M422.9,221.2c-0.4-6.1-5.4-11.1-11.5-11.1h-89.6c-5.7,0-11.1,4.2-11.9,10.3c-0.8,6.5,3.8,12.3,10.3,13
	c0.4,0,0.8,0,1.5,0h90h0.8c3.8-0.4,7.3,1.5,9.2,5c0.8,1.1,1.1,2.7,1.5,3.8l0.4,0.4v-21.4H422.9z"/>
<path opacity="0.2" fill="#34E3AB" enable-background="new    " d="M152.5,109c0-6.1,3.4-11.1,7.7-11.1h136c4.2,0,7.7,5.4,7.7,11.5
	c0,6.5-3.4,11.5-7.7,11.5H159.8c-2.7,0-5,1.5-6.1,3.8c-0.4,1.5-1.1,3.4-1.1,5l-0.4,0.4L152.5,109L152.5,109z"/>
<path opacity="0.2" fill="#34E3AB" enable-background="new    " d="M152.5,183.7c0-6.1,4.2-11.1,9.2-11.1h165.4
	c5,0,9.2,5.4,9.2,11.5c0,6.5-4.2,11.5-9.2,11.5H161.7c-3.1,0-6.1,1.5-7.3,3.8c-0.8,1.5-1.1,3.4-1.5,5l-0.4,0.4L152.5,183.7
	L152.5,183.7z"/>
<circle opacity="0.66" fill="#FFFFFF" enable-background="new    " cx="326.8" cy="221.2" r="3.8"/>
<circle opacity="0.66" fill="#FFFFFF" enable-background="new    " cx="340.2" cy="221.2" r="3.8"/>
<circle opacity="0.66" fill="#FFFFFF" enable-background="new    " cx="353.6" cy="221.2" r="3.8"/>
<polygon opacity="0.66" fill="#FFFFFF" enable-background="new    " points="277.4,140.2 279,145.2 284.3,145.2 280,148.4 
	281.7,153.4 277.4,150.3 273.1,153.4 274.7,148.4 270.4,145.2 275.7,145.2 "/>
<polygon opacity="0.66" fill="#FFFFFF" enable-background="new    " points="296.4,140.2 298.1,145.2 303.4,145.2 299.1,148.4 
	300.7,153.4 296.4,150.3 292.1,153.4 293.8,148.4 289.5,145.2 294.8,145.2 "/>
<polygon opacity="0.66" fill="#FFFFFF" enable-background="new    " points="315.5,140.2 317.1,145.2 322.4,145.2 318.1,148.4 
	319.8,153.4 315.5,150.3 311.2,153.4 312.8,148.4 308.5,145.2 313.8,145.2 "/>
<polygon opacity="0.66" fill="#FFFFFF" enable-background="new    " points="334.5,140.2 336.2,145.2 341.5,145.2 337.2,148.4 
	338.8,153.4 334.5,150.3 330.2,153.4 331.9,148.4 327.6,145.2 332.9,145.2 "/>
<polygon opacity="0.66" fill="#FFFFFF" enable-background="new    " points="353.6,140.2 355.2,145.2 360.5,145.2 356.2,148.4 
	357.9,153.4 353.6,150.3 349.3,153.4 350.9,148.4 346.6,145.2 351.9,145.2 "/>
</svg>
