<?xml version="1.0" encoding="utf-8"?>
<!-- Generator: Adobe Illustrator 18.1.1, SVG Export Plug-In . SVG Version: 6.00 Build 0)  -->
<svg version="1.1" id="_x2018_ÎÓÈ_x5F_3" xmlns="http://www.w3.org/2000/svg" xmlns:xlink="http://www.w3.org/1999/xlink"
	 x="0px" y="0px" viewBox="0 0 855 607" enable-background="new 0 0 855 607" xml:space="preserve">
<polygon fill="#F0F0F0" points="613.1,91.6 571.8,79.1 569.3,135.5 612.7,148.6 "/>
<polygon fill="#F0F0F0" points="322.6,3.8 322.6,61.2 569.3,135.5 571.8,79.1 "/>
<polygon opacity="0.1" enable-background="new    " points="613.1,91.6 571.8,79.1 569.3,135.5 612.7,148.6 "/>
<polygon fill="#34E3AB" points="613.1,199.6 571.8,187.2 569.3,243.6 612.7,256.7 "/>
<polygon fill="#34E3AB" points="322.6,111.8 322.6,169.2 569.3,243.6 571.8,187.2 "/>
<polygon opacity="0.1" enable-background="new    " points="613.1,199.6 571.8,187.2 569.3,243.6 612.7,256.7 "/>
<polyline fill="none" stroke="#FFFFFF" stroke-width="5.3232" stroke-linecap="round" stroke-miterlimit="10" points="582.3,219.5 
	589.1,229.7 602.6,212.8 "/>
<g opacity="0.4">
	
		<line fill="none" stroke="#FFFFFF" stroke-width="5.3232" stroke-linecap="round" stroke-miterlimit="10" x1="582.7" y1="101.3" x2="596.2" y2="125"/>
	
		<line fill="none" stroke="#FFFFFF" stroke-width="5.3232" stroke-linecap="round" stroke-miterlimit="10" x1="599.6" y1="104.7" x2="582.7" y2="121.6"/>
</g>
<polygon fill="#F0F0F0" points="613.1,301 571.8,288.5 569.3,344.9 612.7,358 "/>
<polygon fill="#F0F0F0" points="322.6,213.2 322.6,270.6 569.3,344.9 571.8,288.5 "/>
<polygon opacity="0.1" enable-background="new    " points="613.1,301 571.8,288.5 569.3,344.9 612.7,358 "/>
<g opacity="0.4">
	
		<line fill="none" stroke="#FFFFFF" stroke-width="5.3232" stroke-linecap="round" stroke-miterlimit="10" x1="582.7" y1="310.7" x2="596.2" y2="334.4"/>
	
		<line fill="none" stroke="#FFFFFF" stroke-width="5.3232" stroke-linecap="round" stroke-miterlimit="10" x1="599.6" y1="314.1" x2="582.7" y2="331"/>
</g>
<ellipse opacity="0.3" enable-background="new    " cx="493.2" cy="189.1" rx="8.4" ry="16.9"/>
<ellipse opacity="0.13" fill="#34E3AB" enable-background="new    " cx="493.2" cy="189.1" rx="70.9" ry="141.8"/>
<ellipse opacity="0.1" fill="#FFFFFF" enable-background="new    " cx="493.2" cy="189.1" rx="38.8" ry="77.7"/>
<g opacity="0.5">
	
		<linearGradient id="SVGID_1_" gradientUnits="userSpaceOnUse" x1="574.2791" y1="202.2777" x2="817.4601" y2="202.2777" gradientTransform="matrix(1 0 0 -1 -316 549.65)">
		<stop  offset="0" style="stop-color:#808080;stop-opacity:0.25"/>
		<stop  offset="0.54" style="stop-color:#808080;stop-opacity:0.12"/>
		<stop  offset="1" style="stop-color:#808080;stop-opacity:0.1"/>
	</linearGradient>
	<path fill="url(#SVGID_1_)" d="M501.1,191.4c-3.5-10.4-24.1,3.7-24.1,3.7l-1.7,2.3l-36.6,49.5l-89.8-50.2v-22.4
		c17.1-1.9,29.5-17.3,27.6-34.4c-0.1-0.6-0.2-1.3-0.3-1.9c4.5-1.7,8.2-5.5,11.6-9.1c3.1-3.3,6.5-7.4,6.2-11.8c0.1-0.7,0-1.4-0.1-2.1
		c-0.7-3.7-4.1-6.5-7.7-7.8c-3.6-1.3-7.4-1.5-11.2-2.3c-8.9-1.7-16.9-6.4-25.6-9c-3.9-1.2-8-2-12.1-2.3c-2.9-0.2-6-0.2-8.7,1
		c-3,1.3-5.1,3.9-7.5,6.1c-2.9,2.7-6.2,4.8-9.8,6.4c-5.4,2.3-11.4,3.2-16.3,6.4c-1.3,0.8-2.5,1.9-3.3,3.3c-0.7,1.4-1,3.1-0.9,4.7
		c0,1.4,0.1,2.8,0.3,4.2c0.9,6,1.8,12.1,4.9,17.3c2.5,4.3,6.2,7.7,9.8,11l8.1,7.5c1.7,1.5,3.5,3.4,5.6,4.1c-0.1-1,0.4-2,1.3-3
		l-2.6,18.4c-4.9-1.5-10-2.3-15.2-2.4c-6.9-0.1-14,1.2-17,5.9c-0.2,0.3-0.3,0.6-0.5,0.9c-9.6,11.3-31.5,48.1-18.6,137.3
		c-1.1,10.9-1.8,17.8-1.8,17.8l0.1,1.1l-0.1,0.8l0.2,0.1l7.2,98.5l-13.9,97.1h3.1V549h-3.5v17.3c0,0,48.2-3.1,55.5-13.9
		c6.1-9-24.2-5.4-34.7-4v-6.6h0.2v-3.7h3.7l13.9-65.9c14.3-24.6,7-86.3,7-86.3l17.3,10.4l13.8,72.5l-10.4,107.5h3.1v7.5h-4v17.3
		c0,0,48.2-3.1,55.5-13.9c6.1-9-24.2-5.4-34.7-4l-1.2-7h2.1l13.9-97.1c6.8-26.3-2.5-103.5-3.7-113.4l17.2-113.6l-0.2-0.3l0.2-1.6
		l69.4,24.3c0,0,6.9,6.9,14.1-13.7c6.7-19.3,24.9-45.1,27.3-48.4l0.3-0.3C483.7,212.2,504.5,201.8,501.1,191.4z"/>
</g>
<polygon fill="#F0F0F0" points="264.8,529.9 264.8,546.8 281.7,546.8 281.7,523.1 "/>
<polygon fill="#F0F0F0" points="329,563.6 329,583.9 345.9,580.5 342.5,560.3 "/>
<path fill="#969696" d="M292.1,185.6c0,0-40.3,30.2-20.4,148.4L292.1,185.6z"/>
<path opacity="5.000000e-02" enable-background="new    " d="M292.1,185.6c0,0-40.3,30.2-20.4,148.4L292.1,185.6z"/>
<polygon opacity="5.000000e-02" enable-background="new    " points="344.4,574 342.7,563.8 329.2,567.2 329.2,574 "/>
<polygon opacity="5.000000e-02" enable-background="new    " points="265,536.8 281.9,536.8 281.9,526.7 265,533.4 "/>
<polygon fill="#F0F0F0" points="322.6,165.5 319.3,189.1 349.7,206 349.7,172.2 "/>
<path fill="#646464" d="M261.9,533.3l13.5-94.6l-7.1-97.9l87.8,23.6c0,0,10.9,84.1,3.7,111.5l-13.5,94.6H326l10.1-104.7l-13.5-70.6
	L305.8,385c0,0,7.1,60.1-6.8,84.1l-13.5,64.2H261.9z"/>
<path fill="#F0F0F0" d="M497.9,195.5c-3.4-10.1-23.5,3.6-23.5,3.6l-1.7,2.2l8,14.8l0.3-0.3C481,215.8,501.3,205.6,497.9,195.5z"/>
<path opacity="5.000000e-02" enable-background="new    " d="M322.3,187.3c0,0-27-7.1-33.8,3.4c-6.8,10.5-20.3,152-20.3,152
	s40.2,33.8,87.8,23.6l16.9-111.5L322.3,187.3z"/>
<path fill="#969696" d="M437.1,249.5l-106.8-59.7c-7.7-4.4-16.4-6.7-25.3-6.8c-6.8-0.1-13.6,1.1-16.5,5.7
	c-6.8,10.5-20.3,152-20.3,152s40.2,33.8,87.8,23.6l16.9-111.5l67.6,23.6c0,0,6.8,6.8,13.7-13.3c6.5-18.8,24.3-43.9,26.6-47.1
	l-8-14.8L437.1,249.5z"/>
<path opacity="5.000000e-02" enable-background="new    " d="M322.2,170.7c5.8,7.4,14.6,11.6,23.9,11.6c1.1,0,2.3-0.1,3.4-0.2v-6.6
	l-27-6.8L322.2,170.7z"/>
<circle fill="#F0F0F0" cx="346.3" cy="148.6" r="30.4"/>
<path fill="#646464" d="M261.5,543.8v16.9c0,0,46.9-3,54-13.5s-37.1-3.4-37.1-3.4H261.5z"/>
<path fill="#646464" d="M325.1,577.7v16.9c0,0,46.9-3,54-13.5c7.1-10.5-37.1-3.4-37.1-3.4H325.1z"/>
<path opacity="5.000000e-02" enable-background="new    " d="M327,162.5l11.9-17c1.8-2.5,3.6-5.1,6-6.9s5.7-2.9,8.7-1.9
	c1.8,0.6,3.2,1.8,4.7,2.9c4.4,3.2,9.9,5.6,15.3,4.6c5.7-1,10-5.4,13.9-9.6c3.3-3.5,6.8-7.7,5.9-12.4c-0.7-3.6-4-6.3-7.5-7.6
	s-7.2-1.5-10.9-2.2c-8.7-1.7-16.5-6.2-24.9-8.8c-3.8-1.2-7.8-1.9-11.8-2.3c-2.9-0.2-5.9-0.2-8.5,0.9c-2.9,1.3-5,3.8-7.3,6
	c-2.8,2.6-6,4.7-9.5,6.2c-5.2,2.2-11.1,3.1-15.8,6.3c-1.3,0.8-2.4,1.9-3.2,3.2c-1.2,2.3-0.9,5-0.5,7.5c0.8,5.8,1.8,11.7,4.7,16.8
	c2.4,4.1,6,7.5,9.5,10.7l7.9,7.3c1.6,1.5,3.4,3.3,5.5,4C320.8,167.7,325.5,164.7,327,162.5z"/>
<path fill="#646464" d="M327,161.4l11.9-17c1.8-2.5,3.6-5.1,6-6.9s5.7-2.9,8.7-1.9c1.8,0.6,3.2,1.8,4.7,2.9
	c4.4,3.2,9.9,5.6,15.3,4.6c5.7-1,10-5.4,13.9-9.6c3.3-3.5,6.8-7.7,5.9-12.4c-0.7-3.6-4-6.3-7.5-7.6c-3.5-1.3-7.2-1.5-10.9-2.2
	c-8.7-1.7-16.5-6.2-24.9-8.8c-3.8-1.2-7.8-1.9-11.8-2.3c-2.9-0.2-5.9-0.2-8.5,0.9c-2.9,1.3-5,3.8-7.3,6c-2.8,2.6-6,4.7-9.5,6.2
	c-5.2,2.2-11.1,3.1-15.8,6.3c-1.3,0.8-2.4,1.9-3.2,3.2c-1.2,2.3-0.9,5-0.5,7.5c0.8,5.8,1.8,11.7,4.7,16.8c2.4,4.1,6,7.5,9.5,10.7
	l7.9,7.3c1.6,1.5,3.4,3.3,5.5,4C320.8,166.6,325.5,163.5,327,161.4z"/>
<g opacity="0.5">
	<rect x="213.6" y="87.6" fill="#34E3AB" width="1.1" height="6.4"/>
	<rect x="211" y="90.2" fill="#34E3AB" width="6.4" height="1.1"/>
</g>
<g opacity="0.5">
	<rect x="612.9" y="398.7" fill="#34E3AB" width="1.1" height="6.4"/>
	<rect x="610.2" y="401.3" fill="#34E3AB" width="6.4" height="1.1"/>
</g>
<g opacity="0.5">
	<rect x="585.1" y="263.3" fill="#34E3AB" width="1.1" height="6.4"/>
	<rect x="582.5" y="265.9" fill="#34E3AB" width="6.4" height="1.1"/>
</g>
<g>
	<rect x="537.1" y="393.1" fill="#34E3AB" width="1.1" height="6.4"/>
	<rect x="534.5" y="395.7" fill="#34E3AB" width="6.4" height="1.1"/>
</g>
<g opacity="0.5">
	<rect x="503.3" y="474.5" fill="#34E3AB" width="1.1" height="6.4"/>
	<rect x="500.7" y="477.2" fill="#34E3AB" width="6.4" height="1.1"/>
</g>
<g opacity="0.5">
	<rect x="261.7" y="186.3" fill="#34E3AB" width="1.1" height="6.4"/>
	<rect x="259" y="188.9" fill="#34E3AB" width="6.4" height="1.1"/>
</g>
<path fill="#969696" d="M279.2,87c-0.6-0.3-1-1-0.8-1.7c0-0.1,0-0.1,0-0.2l0,0c0-0.4-0.3-0.7-0.7-0.7c-0.2,0-0.4,0.1-0.6,0.3l0,0
	c0,0-0.1,0.1-0.1,0.1c-0.3,0.6-1,1-1.7,0.8h-0.2l0,0c-0.4,0-0.7,0.3-0.7,0.7c0,0.2,0.1,0.4,0.3,0.6l0,0c0,0,0.1,0.1,0.1,0.1
	c0.6,0.3,1,1,0.8,1.7c0,0.1,0,0.1,0,0.2l0,0c0,0.4,0.3,0.7,0.7,0.7c0.2,0,0.4-0.1,0.6-0.3l0,0c0,0,0.1-0.1,0.1-0.1
	c0.3-0.6,1-1,1.7-0.8h0.2l0,0c0.4,0,0.7-0.3,0.7-0.7c0-0.2-0.1-0.4-0.3-0.6l0,0C279.3,87,279.2,87,279.2,87z"/>
<path fill="#969696" d="M532.6,30.6c-0.6-0.3-1-1-0.8-1.7c0-0.1,0-0.1,0-0.2l0,0c0-0.4-0.3-0.7-0.7-0.7c-0.2,0-0.4,0.1-0.6,0.3l0,0
	c0,0-0.1,0.1-0.1,0.1c-0.3,0.6-1,1-1.7,0.8h-0.2l0,0c-0.4,0-0.7,0.3-0.7,0.7c0,0.2,0.1,0.4,0.3,0.6l0,0c0,0,0.1,0.1,0.1,0.1
	c0.6,0.3,1,1,0.8,1.7c0,0.1,0,0.1,0,0.2l0,0c0,0.4,0.3,0.7,0.7,0.7c0.2,0,0.4-0.1,0.6-0.3l0,0c0,0,0.1-0.1,0.1-0.1
	c0.3-0.6,1-1,1.7-0.8h0.2l0,0c0.4,0,0.7-0.3,0.7-0.7c0-0.2-0.1-0.4-0.3-0.6l0,0C532.7,30.6,532.6,30.6,532.6,30.6z"/>
<path fill="#969696" d="M221.1,231.3c-0.6-0.3-1-1-0.8-1.7c0-0.1,0-0.1,0-0.2l0,0c0-0.4-0.3-0.7-0.7-0.7c-0.2,0-0.4,0.1-0.6,0.3l0,0
	c0,0-0.1,0.1-0.1,0.1c-0.3,0.6-1,1-1.7,0.8h-0.2l0,0c-0.4,0-0.7,0.3-0.7,0.7c0,0.2,0.1,0.4,0.3,0.6l0,0c0,0,0.1,0.1,0.1,0.1
	c0.6,0.3,1,1,0.8,1.7c0,0.1,0,0.1,0,0.2l0,0c0,0.4,0.3,0.7,0.7,0.7c0.2,0,0.4-0.1,0.6-0.3l0,0c0,0,0.1-0.1,0.1-0.1
	c0.3-0.6,1-1,1.7-0.8h0.2l0,0c0.4,0,0.7-0.3,0.7-0.7c0-0.2-0.1-0.4-0.3-0.6l0,0C221.2,231.4,221.1,231.4,221.1,231.3z"/>
<path fill="#969696" d="M231.2,373.2c-0.6-0.3-1-1-0.8-1.7c0-0.1,0-0.1,0-0.2l0,0c0-0.4-0.3-0.7-0.7-0.7c-0.2,0-0.4,0.1-0.6,0.3l0,0
	c0,0-0.1,0.1-0.1,0.1c-0.3,0.6-1,1-1.7,0.8h-0.2l0,0c-0.4,0-0.7,0.3-0.7,0.7c0,0.2,0.1,0.4,0.3,0.6l0,0c0,0,0.1,0.1,0.1,0.1
	c0.6,0.3,1,1,0.8,1.7c0,0.1,0,0.1,0,0.2l0,0c0,0.4,0.3,0.7,0.7,0.7c0.2,0,0.4-0.1,0.6-0.3l0,0c0,0,0.1-0.1,0.1-0.1
	c0.3-0.6,1-1,1.7-0.8h0.2l0,0c0.4,0,0.7-0.3,0.7-0.7c0-0.2-0.1-0.4-0.3-0.6l0,0C231.3,373.2,231.3,373.2,231.2,373.2z"/>
<circle fill="#969696" cx="400.1" cy="106" r="2.3"/>
<circle fill="#969696" cx="460.9" cy="399.8" r="2.3"/>
<circle fill="#969696" cx="599.4" cy="166.8" r="2.3"/>
<circle fill="#34E3AB" cx="639.9" cy="268.1" r="2.3"/>
<circle fill="#969696" cx="489.1" cy="12.6" r="2.3"/>
</svg>
