<?xml version="1.0" encoding="utf-8"?>
<!-- Generator: Adobe Illustrator 18.1.1, SVG Export Plug-In . SVG Version: 6.00 Build 0)  -->
<svg version="1.1" id="Layer_1" xmlns="http://www.w3.org/2000/svg" xmlns:xlink="http://www.w3.org/1999/xlink" x="0px" y="0px"
	 viewBox="0 0 1623.5 531.7" enable-background="new 0 0 1623.5 531.7" xml:space="preserve">
<g opacity="0.22">
	<g>
		<path fill="#34E3AB" d="M423.9,526.3c1.1,0,1.9-0.9,1.9-1.9V401.6c0-1.1-0.9-1.9-1.9-1.9c-1.1,0-1.9,0.9-1.9,1.9v122.8
			C422,525.4,422.9,526.3,423.9,526.3z"/>
		<g>
			<path fill="#34E3AB" d="M424,461.5c0.5,0,1-0.2,1.4-0.6l25.7-25.7c0.7-0.7,0.7-2,0-2.7c-0.7-0.7-2-0.7-2.7,0L424,456.9
				l-30.6-30.6c-0.7-0.7-2-0.7-2.7,0c-0.7,0.7-0.7,2,0,2.7l32,32C423,461.3,423.5,461.5,424,461.5z"/>
			<path fill="#34E3AB" d="M424,438.1c0.5,0,1-0.2,1.3-0.5l14.7-14.4c0.8-0.7,0.8-2,0-2.7c-0.7-0.8-2-0.8-2.7,0L424,433.5
				l-16.3-16.3c-0.7-0.7-2-0.7-2.7,0c-0.7,0.7-0.7,2,0,2.7l17.6,17.6C423,437.9,423.5,438.1,424,438.1z"/>
			<path fill="#34E3AB" d="M424,417c0.5,0,1-0.2,1.4-0.6l7.8-7.8c0.7-0.7,0.7-2,0-2.7c-0.7-0.7-2-0.7-2.7,0l-6.5,6.5l-6.5-6.5
				c-0.7-0.7-2-0.7-2.7,0c-0.7,0.7-0.7,2,0,2.7l7.8,7.8C423,416.8,423.5,417,424,417z"/>
		</g>
	</g>
	<g>
		<path fill="#34E3AB" d="M380.3,458.9c1,0,1.8-0.7,1.9-1.7c0.1-1-0.6-2-1.7-2.1c-8.8-1-15.4-8.5-15.4-17.4c0-6.4,3.5-12.3,9.1-15.4
			c0.5-0.3,0.8-0.7,0.9-1.2c0.1-0.5,0.1-1-0.2-1.5c-1.7-2.7-2.6-5.9-2.6-9.1c0-9.7,7.9-17.5,17.5-17.5c2.6,0,5.1,0.6,7.5,1.7
			c0.5,0.2,1.1,0.2,1.6,0c0.5-0.2,0.9-0.6,1.1-1.1c3.5-9.9,12.9-16.6,23.4-16.6c4.6,0,9.1,1.3,12.9,3.6c0.9,0.6,2.1,0.3,2.6-0.6
			c0.6-0.9,0.3-2.1-0.6-2.6c-4.5-2.8-9.7-4.2-14.9-4.2c-11.5,0-21.8,6.9-26.3,17.3c-2.3-0.8-4.7-1.2-7.2-1.2
			c-11.8,0-21.3,9.6-21.3,21.3c0,3.3,0.8,6.5,2.2,9.4c-5.9,3.9-9.5,10.6-9.5,17.7c0,10.8,8.1,19.9,18.8,21.2
			C380.1,458.8,380.2,458.9,380.3,458.9z"/>
		<path fill="#34E3AB" d="M406.4,480.2c6.8,0,13.5-2.4,18.7-7c0.8-0.7,0.9-1.9,0.2-2.7c-0.7-0.8-1.9-0.9-2.7-0.2
			c-5.4,4.6-12.5,6.8-19.5,5.8c-10.4-1.4-18.9-9.3-21-19.6c-0.2-1-1.2-1.7-2.3-1.5c-1,0.2-1.7,1.2-1.5,2.3
			c2.4,11.9,12.2,21,24.2,22.6C403.9,480.1,405.2,480.2,406.4,480.2z"/>
	</g>
	<g>
		<path fill="#34E3AB" d="M466.5,458.9c0.1,0,0.2,0,0.2,0c10.7-1.3,18.8-10.4,18.8-21.2c0-7.2-3.6-13.8-9.5-17.7
			c1.4-2.9,2.2-6.2,2.2-9.4c0-11.8-9.6-21.3-21.3-21.3c-2.5,0-4.9,0.4-7.2,1.2c-4.5-10.4-14.8-17.3-26.3-17.3
			c-5.3,0-10.5,1.5-14.9,4.2c-0.9,0.6-1.2,1.7-0.6,2.6c0.6,0.9,1.7,1.2,2.6,0.6c3.9-2.4,8.4-3.6,12.9-3.6c10.5,0,19.9,6.7,23.4,16.6
			c0.2,0.5,0.6,0.9,1.1,1.1c0.5,0.2,1.1,0.2,1.6,0c2.3-1.1,4.8-1.7,7.5-1.7c9.7,0,17.5,7.9,17.5,17.5c0,3.2-0.9,6.4-2.6,9.1
			c-0.3,0.4-0.4,1-0.2,1.5c0.1,0.5,0.5,0.9,0.9,1.2c5.6,3.1,9.1,9,9.1,15.4c0,8.9-6.6,16.3-15.4,17.4c-1,0.1-1.8,1.1-1.7,2.1
			C464.7,458.1,465.6,458.9,466.5,458.9z"/>
		<path fill="#34E3AB" d="M440.3,480.2c1.3,0,2.5-0.1,3.8-0.3c12-1.6,21.8-10.7,24.2-22.6c0.2-1-0.5-2-1.5-2.3c-1-0.2-2,0.5-2.3,1.5
			c-2.1,10.3-10.6,18.2-21,19.6c-7,0.9-14.1-1.2-19.5-5.8c-0.8-0.7-2-0.6-2.7,0.2c-0.7,0.8-0.6,2,0.2,2.7
			C426.9,477.7,433.5,480.2,440.3,480.2z"/>
	</g>
</g>
<g opacity="0.22">
	<g>
		<path fill="#34E3AB" stroke="#34E3AB" stroke-width="0.6297" stroke-miterlimit="10" d="M965.7,526.3c0.7,0,1.3-0.6,1.3-1.3v-85.4
			c0-0.7-0.6-1.3-1.3-1.3c-0.7,0-1.3,0.6-1.3,1.3V525C964.4,525.7,965,526.3,965.7,526.3z"/>
		<g>
			<path fill="#34E3AB" stroke="#34E3AB" stroke-width="0.6297" stroke-miterlimit="10" d="M965.7,481.2c0.3,0,0.7-0.1,0.9-0.4
				l17.9-17.9c0.5-0.5,0.5-1.4,0-1.9c-0.5-0.5-1.4-0.5-1.9,0l-17,17l-21.3-21.3c-0.5-0.5-1.4-0.5-1.9,0c-0.5,0.5-0.5,1.4,0,1.9
				l22.3,22.3C965.1,481.1,965.4,481.2,965.7,481.2z"/>
			<path fill="#34E3AB" stroke="#34E3AB" stroke-width="0.6297" stroke-miterlimit="10" d="M965.7,464.9c0.3,0,0.7-0.1,0.9-0.4
				l10.2-10c0.5-0.5,0.5-1.4,0-1.9c-0.5-0.5-1.4-0.5-1.9,0l-9.3,9.1l-11.3-11.3c-0.5-0.5-1.4-0.5-1.9,0c-0.5,0.5-0.5,1.4,0,1.9
				l12.3,12.3C965.1,464.8,965.4,464.9,965.7,464.9z"/>
			<path fill="#34E3AB" stroke="#34E3AB" stroke-width="0.6297" stroke-miterlimit="10" d="M965.7,450.2c0.3,0,0.7-0.1,0.9-0.4
				l5.4-5.4c0.5-0.5,0.5-1.4,0-1.9c-0.5-0.5-1.4-0.5-1.9,0l-4.5,4.5l-4.5-4.5c-0.5-0.5-1.4-0.5-1.9,0c-0.5,0.5-0.5,1.4,0,1.9
				l5.4,5.4C965.1,450.1,965.4,450.2,965.7,450.2z"/>
		</g>
	</g>
	<g>
		<path fill="#34E3AB" stroke="#34E3AB" stroke-width="0.6297" stroke-miterlimit="10" d="M935.3,479.3c0.7,0,1.2-0.5,1.3-1.2
			c0.1-0.7-0.4-1.4-1.2-1.5c-6.1-0.7-10.7-5.9-10.7-12.1c0-4.5,2.4-8.6,6.4-10.7c0.3-0.2,0.6-0.5,0.6-0.8c0.1-0.4,0-0.7-0.2-1
			c-1.2-1.9-1.8-4.1-1.8-6.4c0-6.7,5.5-12.2,12.2-12.2c1.8,0,3.6,0.4,5.2,1.2c0.3,0.2,0.7,0.2,1.1,0c0.3-0.1,0.6-0.4,0.7-0.8
			c2.4-6.9,9-11.5,16.3-11.5c3.2,0,6.3,0.9,9,2.5c0.6,0.4,1.4,0.2,1.8-0.4c0.4-0.6,0.2-1.4-0.4-1.8c-3.1-1.9-6.7-2.9-10.4-2.9
			c-8,0-15.2,4.8-18.3,12c-1.6-0.6-3.3-0.9-5-0.9c-8.2,0-14.9,6.7-14.9,14.9c0,2.3,0.5,4.5,1.5,6.6c-4.1,2.7-6.6,7.4-6.6,12.4
			c0,7.5,5.6,13.9,13.1,14.7C935.2,479.3,935.3,479.3,935.3,479.3z"/>
		<path fill="#34E3AB" stroke="#34E3AB" stroke-width="0.6297" stroke-miterlimit="10" d="M953.5,494.2c4.7,0,9.4-1.7,13-4.8
			c0.6-0.5,0.6-1.3,0.1-1.9c-0.5-0.6-1.3-0.6-1.9-0.1c-3.7,3.2-8.7,4.7-13.6,4c-7.3-1-13.1-6.5-14.6-13.6c-0.1-0.7-0.9-1.2-1.6-1
			c-0.7,0.1-1.2,0.9-1,1.6c1.7,8.3,8.5,14.6,16.9,15.7C951.7,494.1,952.6,494.2,953.5,494.2z"/>
	</g>
	<g>
		<path fill="#34E3AB" stroke="#34E3AB" stroke-width="0.6297" stroke-miterlimit="10" d="M995.3,479.3c0.1,0,0.1,0,0.2,0
			c7.5-0.9,13.1-7.2,13.1-14.7c0-5-2.5-9.6-6.6-12.4c1-2,1.5-4.3,1.5-6.6c0-8.2-6.7-14.9-14.9-14.9c-1.7,0-3.4,0.3-5,0.9
			c-3.1-7.2-10.3-12-18.3-12c-3.7,0-7.3,1-10.4,2.9c-0.6,0.4-0.8,1.2-0.4,1.8c0.4,0.6,1.2,0.8,1.8,0.4c2.7-1.7,5.8-2.5,9-2.5
			c7.3,0,13.9,4.6,16.3,11.5c0.1,0.4,0.4,0.6,0.7,0.8c0.3,0.1,0.7,0.1,1.1,0c1.6-0.8,3.4-1.2,5.2-1.2c6.7,0,12.2,5.5,12.2,12.2
			c0,2.3-0.6,4.4-1.8,6.4c-0.2,0.3-0.2,0.7-0.2,1c0.1,0.4,0.3,0.7,0.6,0.8c3.9,2.1,6.4,6.2,6.4,10.7c0,6.2-4.6,11.4-10.7,12.1
			c-0.7,0.1-1.3,0.7-1.2,1.5C994.1,478.9,994.7,479.3,995.3,479.3z"/>
		<path fill="#34E3AB" stroke="#34E3AB" stroke-width="0.6297" stroke-miterlimit="10" d="M977.1,494.2c0.9,0,1.8-0.1,2.7-0.2
			c8.4-1.1,15.1-7.5,16.9-15.7c0.1-0.7-0.3-1.4-1-1.6c-0.7-0.1-1.4,0.3-1.6,1c-1.5,7.2-7.3,12.6-14.6,13.6c-4.9,0.7-9.8-0.8-13.6-4
			c-0.6-0.5-1.4-0.4-1.9,0.1c-0.5,0.6-0.4,1.4,0.1,1.9C967.7,492.5,972.4,494.2,977.1,494.2z"/>
	</g>
</g>
<path fill="#FFFFFF" d="M1322.5,412.1c-0.9,0-1.6-0.7-1.6-1.6v-2h-2c-0.9,0-1.6-0.7-1.6-1.6c0-0.9,0.7-1.6,1.6-1.6h2v-2
	c0-0.9,0.7-1.6,1.6-1.6c0.9,0,1.6,0.7,1.6,1.6v2h2c0.9,0,1.6,0.7,1.6,1.6c0,0.9-0.7,1.6-1.6,1.6h-2v2
	C1324.1,411.3,1323.4,412.1,1322.5,412.1z"/>
<g opacity="0.22">
	<g>
		<path fill="#34E3AB" d="M1243.4,526.6c-1.1,0-1.9-0.9-1.9-1.9V401.9c0-1.1,0.9-1.9,1.9-1.9s1.9,0.9,1.9,1.9v122.8
			C1245.4,525.8,1244.5,526.6,1243.4,526.6z"/>
		<g>
			<path fill="#34E3AB" d="M1243.4,461.8c-0.5,0-1-0.2-1.4-0.6l-25.7-25.7c-0.7-0.7-0.7-2,0-2.7c0.7-0.7,2-0.7,2.7,0l24.4,24.4
				l30.6-30.6c0.7-0.7,2-0.7,2.7,0c0.7,0.7,0.7,2,0,2.7l-32,32C1244.3,461.7,1243.8,461.8,1243.4,461.8z"/>
			<path fill="#34E3AB" d="M1243.4,438.4c-0.5,0-1-0.2-1.3-0.5l-14.7-14.4c-0.8-0.7-0.8-2,0-2.7c0.7-0.8,2-0.8,2.7,0l13.3,13.1
				l16.3-16.3c0.7-0.7,2-0.7,2.7,0c0.7,0.7,0.7,2,0,2.7l-17.6,17.6C1244.3,438.3,1243.8,438.4,1243.4,438.4z"/>
			<path fill="#34E3AB" d="M1243.4,417.3c-0.5,0-1-0.2-1.4-0.6l-7.8-7.8c-0.7-0.7-0.7-2,0-2.7c0.7-0.7,2-0.7,2.7,0l6.5,6.5l6.5-6.5
				c0.7-0.7,2-0.7,2.7,0c0.7,0.7,0.7,2,0,2.7l-7.8,7.8C1244.3,417.1,1243.8,417.3,1243.4,417.3z"/>
		</g>
	</g>
	<g>
		<path fill="#34E3AB" d="M1287.1,459.2c-1,0-1.8-0.7-1.9-1.7c-0.1-1,0.6-2,1.7-2.1c8.8-1,15.4-8.5,15.4-17.4
			c0-6.4-3.5-12.3-9.1-15.4c-0.5-0.3-0.8-0.7-0.9-1.2c-0.1-0.5-0.1-1,0.2-1.5c1.7-2.7,2.6-5.9,2.6-9.1c0-9.7-7.9-17.5-17.5-17.5
			c-2.6,0-5.1,0.6-7.5,1.7c-0.5,0.2-1.1,0.2-1.6,0c-0.5-0.2-0.9-0.6-1.1-1.1c-3.5-9.9-12.9-16.6-23.4-16.6c-4.6,0-9.1,1.3-12.9,3.6
			c-0.9,0.6-2.1,0.3-2.6-0.6c-0.6-0.9-0.3-2.1,0.6-2.6c4.5-2.8,9.7-4.2,14.9-4.2c11.5,0,21.8,6.9,26.3,17.3c2.3-0.8,4.7-1.2,7.2-1.2
			c11.8,0,21.3,9.6,21.3,21.3c0,3.3-0.8,6.5-2.2,9.5c5.9,3.9,9.5,10.6,9.5,17.8c0,10.8-8.1,19.9-18.8,21.2
			C1287.2,459.2,1287.2,459.2,1287.1,459.2z"/>
		<path fill="#34E3AB" d="M1260.9,480.5c-6.8,0-13.5-2.4-18.7-7c-0.8-0.7-0.9-1.9-0.2-2.7c0.7-0.8,1.9-0.9,2.7-0.2
			c5.4,4.6,12.5,6.8,19.5,5.8c10.4-1.4,18.9-9.3,21-19.6c0.2-1,1.2-1.7,2.3-1.5c1,0.2,1.7,1.2,1.5,2.3c-2.4,11.9-12.2,21-24.2,22.6
			C1263.5,480.4,1262.2,480.5,1260.9,480.5z"/>
	</g>
	<g>
		<path fill="#34E3AB" d="M1200.8,459.2c-0.1,0-0.2,0-0.2,0c-10.7-1.3-18.8-10.4-18.8-21.2c0-7.2,3.6-13.8,9.5-17.8
			c-1.4-2.9-2.2-6.2-2.2-9.5c0-11.8,9.6-21.3,21.3-21.3c2.5,0,4.9,0.4,7.2,1.2c4.5-10.4,14.8-17.3,26.3-17.3
			c5.3,0,10.5,1.5,14.9,4.2c0.9,0.6,1.2,1.7,0.6,2.6c-0.6,0.9-1.7,1.2-2.6,0.6c-3.9-2.4-8.4-3.6-12.9-3.6
			c-10.5,0-19.9,6.7-23.4,16.6c-0.2,0.5-0.6,0.9-1.1,1.1c-0.5,0.2-1.1,0.2-1.6,0c-2.3-1.1-4.9-1.7-7.5-1.7
			c-9.7,0-17.5,7.9-17.5,17.5c0,3.2,0.9,6.4,2.6,9.1c0.3,0.4,0.4,1,0.2,1.5c-0.1,0.5-0.5,0.9-0.9,1.2c-5.6,3.1-9.1,9-9.1,15.4
			c0,8.9,6.6,16.4,15.4,17.4c1,0.1,1.8,1.1,1.7,2.1C1202.6,458.5,1201.8,459.2,1200.8,459.2z"/>
		<path fill="#34E3AB" d="M1227,480.5c-1.3,0-2.5-0.1-3.8-0.3c-12-1.6-21.8-10.7-24.2-22.6c-0.2-1,0.5-2,1.5-2.3
			c1-0.2,2,0.5,2.3,1.5c2.1,10.3,10.6,18.2,21,19.6c7,0.9,14.1-1.2,19.5-5.8c0.8-0.7,2-0.6,2.7,0.2c0.7,0.8,0.6,2-0.2,2.7
			C1240.5,478.1,1233.8,480.5,1227,480.5z"/>
	</g>
</g>
<g opacity="0.15">
	<g>
		<path fill="#646464" d="M1404.7,172h-42.9c-2,0-3.5-1.6-3.5-3.5c0-2,1.6-3.5,3.5-3.5h42.9c2,0,3.5,1.6,3.5,3.5
			C1408.2,170.4,1406.7,172,1404.7,172z"/>
		<path fill="#646464" d="M1418.7,182.6h-30.8c-2,0-3.5-1.6-3.5-3.5c0-2,1.6-3.5,3.5-3.5h30.8c2,0,3.5,1.6,3.5,3.5
			C1422.2,181,1420.7,182.6,1418.7,182.6z"/>
	</g>
	<g>
		<path fill="#646464" d="M1426.1,161.5h-78.3c-2,0-3.5-1.6-3.5-3.5c0-2,1.6-3.5,3.5-3.5h78.3c2,0,3.5,1.6,3.5,3.5
			C1429.6,159.9,1428.1,161.5,1426.1,161.5z"/>
		<path fill="#646464" d="M1404.7,172h-30.8c-2,0-3.5-1.6-3.5-3.5c0-2,1.6-3.5,3.5-3.5h30.8c2,0,3.5,1.6,3.5,3.5
			C1408.2,170.4,1406.7,172,1404.7,172z"/>
	</g>
</g>
<g opacity="0.15">
	<path fill="#646464" d="M1559.7,29.4h-81.5c-2,0-3.5-1.6-3.5-3.5c0-2,1.6-3.5,3.5-3.5h81.5c2,0,3.5,1.6,3.5,3.5
		C1563.2,27.8,1561.6,29.4,1559.7,29.4z"/>
	<path fill="#646464" d="M1586.2,44.6h-58.4c-2,0-3.5-1.6-3.5-3.5c0-2,1.6-3.5,3.5-3.5h58.4c2,0,3.5,1.6,3.5,3.5
		C1589.8,43,1588.2,44.6,1586.2,44.6z"/>
</g>
<g>
	<rect x="1423.2" y="238" fill="#FFFFFF" width="113.5" height="282.7"/>
	<path fill="#646464" d="M1536.7,523.8h-113.5c-1.7,0-3.1-1.4-3.1-3.1V238c0-1.7,1.4-3.1,3.1-3.1h113.5c1.7,0,3.1,1.4,3.1,3.1v282.7
		C1539.8,522.5,1538.4,523.8,1536.7,523.8z M1426.3,517.6h107.2V241.1h-107.2V517.6z"/>
</g>
<g>
	<polygon fill="#FFFFFF" points="1536.7,238 1536.7,520.7 1608.6,520.7 1608.6,238 1573.1,208.6 	"/>
	<path fill="#646464" d="M1608.6,523.8h-72c-1.7,0-3.1-1.4-3.1-3.1V238c0-0.9,0.4-1.8,1.2-2.4l36.4-29.4c1.1-0.9,2.8-0.9,3.9,0
		l35.6,29.4c0.7,0.6,1.1,1.5,1.1,2.4v282.8C1611.8,522.5,1610.4,523.8,1608.6,523.8z M1539.8,517.6h65.8V239.4l-32.5-26.8
		l-33.3,26.9V517.6z"/>
</g>
<g>
	<polygon fill="#646464" points="1423.2,238 1434.3,238 1536.7,238 1573.1,208.6 1460,208.6 	"/>
	<path fill="#646464" d="M1423.2,241.1c-1.3,0-2.5-0.8-2.9-2.1c-0.4-1.2,0-2.6,1-3.5l36.8-29.4c0.6-0.4,1.2-0.7,1.9-0.7h113
		c1.3,0,2.5,0.8,2.9,2.1c0.4,1.2,0,2.6-1,3.5l-36.4,29.4c-0.6,0.4-1.2,0.7-2,0.7h-102.3L1423.2,241.1L1423.2,241.1z M1461.1,211.7
		l-29,23.2l2.2,0h101.3l28.7-23.2H1461.1z"/>
</g>
<g>
	<path fill="#646464" d="M1588.7,288.6h-28.8c-1.7,0-3.1-1.4-3.1-3.1v-31.2c0-1.7,1.4-3.1,3.1-3.1h28.8c1.7,0,3.1,1.4,3.1,3.1v31.2
		C1591.8,287.2,1590.4,288.6,1588.7,288.6z M1563,282.4h22.6v-25H1563V282.4z"/>
	<path fill="#646464" d="M1588.7,340.6h-28.8c-1.7,0-3.1-1.4-3.1-3.1v-31.2c0-1.7,1.4-3.1,3.1-3.1h28.8c1.7,0,3.1,1.4,3.1,3.1v31.2
		C1591.8,339.2,1590.4,340.6,1588.7,340.6z M1563,334.4h22.6v-25H1563V334.4z"/>
	<path fill="#646464" d="M1588.7,392.6h-28.8c-1.7,0-3.1-1.4-3.1-3.1v-31.2c0-1.7,1.4-3.1,3.1-3.1h28.8c1.7,0,3.1,1.4,3.1,3.1v31.2
		C1591.8,391.2,1590.4,392.6,1588.7,392.6z M1563,386.4h22.6v-25H1563V386.4z"/>
	<path fill="#646464" d="M1588.7,444.6h-28.8c-1.7,0-3.1-1.4-3.1-3.1v-31.2c0-1.7,1.4-3.1,3.1-3.1h28.8c1.7,0,3.1,1.4,3.1,3.1v31.2
		C1591.8,443.2,1590.4,444.6,1588.7,444.6z M1563,438.4h22.6v-25H1563V438.4z"/>
	<path fill="#646464" d="M1588.7,496.6h-28.8c-1.7,0-3.1-1.4-3.1-3.1v-31.2c0-1.7,1.4-3.1,3.1-3.1h28.8c1.7,0,3.1,1.4,3.1,3.1v31.2
		C1591.8,495.2,1590.4,496.6,1588.7,496.6z M1563,490.3h22.6v-25H1563V490.3z"/>
</g>
<g>
	<g>
		<path fill="#646464" d="M1519,288.6h-28.8c-1.7,0-3.1-1.4-3.1-3.1v-31.2c0-1.7,1.4-3.1,3.1-3.1h28.8c1.7,0,3.1,1.4,3.1,3.1v31.2
			C1522.1,287.2,1520.7,288.6,1519,288.6z M1493.3,282.4h22.6v-25h-22.6V282.4z"/>
	</g>
	<g>
		<path fill="#646464" d="M1519,340.6h-28.8c-1.7,0-3.1-1.4-3.1-3.1v-31.2c0-1.7,1.4-3.1,3.1-3.1h28.8c1.7,0,3.1,1.4,3.1,3.1v31.2
			C1522.1,339.2,1520.7,340.6,1519,340.6z M1493.3,334.4h22.6v-25h-22.6V334.4z"/>
	</g>
	<g>
		<path fill="#646464" d="M1519,392.6h-28.8c-1.7,0-3.1-1.4-3.1-3.1v-31.2c0-1.7,1.4-3.1,3.1-3.1h28.8c1.7,0,3.1,1.4,3.1,3.1v31.2
			C1522.1,391.2,1520.7,392.6,1519,392.6z M1493.3,386.4h22.6v-25h-22.6V386.4z"/>
	</g>
	<g>
		<path fill="#646464" d="M1519,444.6h-28.8c-1.7,0-3.1-1.4-3.1-3.1v-31.2c0-1.7,1.4-3.1,3.1-3.1h28.8c1.7,0,3.1,1.4,3.1,3.1v31.2
			C1522.1,443.2,1520.7,444.6,1519,444.6z M1493.3,438.4h22.6v-25h-22.6V438.4z"/>
	</g>
	<g>
		<path fill="#646464" d="M1519,496.6h-28.8c-1.7,0-3.1-1.4-3.1-3.1v-31.2c0-1.7,1.4-3.1,3.1-3.1h28.8c1.7,0,3.1,1.4,3.1,3.1v31.2
			C1522.1,495.2,1520.7,496.6,1519,496.6z M1493.3,490.3h22.6v-25h-22.6V490.3z"/>
	</g>
</g>
<g>
	<g>
		<path fill="#646464" d="M1468.8,288.6H1440c-1.7,0-3.1-1.4-3.1-3.1v-31.2c0-1.7,1.4-3.1,3.1-3.1h28.8c1.7,0,3.1,1.4,3.1,3.1v31.2
			C1471.9,287.2,1470.5,288.6,1468.8,288.6z M1443.1,282.4h22.6v-25h-22.6V282.4z"/>
	</g>
	<g>
		<path fill="#646464" d="M1468.8,340.6H1440c-1.7,0-3.1-1.4-3.1-3.1v-31.2c0-1.7,1.4-3.1,3.1-3.1h28.8c1.7,0,3.1,1.4,3.1,3.1v31.2
			C1471.9,339.2,1470.5,340.6,1468.8,340.6z M1443.1,334.4h22.6v-25h-22.6V334.4z"/>
	</g>
	<g>
		<path fill="#646464" d="M1468.8,392.6H1440c-1.7,0-3.1-1.4-3.1-3.1v-31.2c0-1.7,1.4-3.1,3.1-3.1h28.8c1.7,0,3.1,1.4,3.1,3.1v31.2
			C1471.9,391.2,1470.5,392.6,1468.8,392.6z M1443.1,386.4h22.6v-25h-22.6V386.4z"/>
	</g>
	<g>
		<path fill="#646464" d="M1468.8,444.6H1440c-1.7,0-3.1-1.4-3.1-3.1v-31.2c0-1.7,1.4-3.1,3.1-3.1h28.8c1.7,0,3.1,1.4,3.1,3.1v31.2
			C1471.9,443.2,1470.5,444.6,1468.8,444.6z M1443.1,438.4h22.6v-25h-22.6V438.4z"/>
	</g>
	<g>
		<path fill="#646464" d="M1468.8,496.6H1440c-1.7,0-3.1-1.4-3.1-3.1v-31.2c0-1.7,1.4-3.1,3.1-3.1h28.8c1.7,0,3.1,1.4,3.1,3.1v31.2
			C1471.9,495.2,1470.5,496.6,1468.8,496.6z M1443.1,490.3h22.6v-25h-22.6V490.3z"/>
	</g>
</g>
<g>
	<polygon fill="#FFFFFF" points="1354.4,521.6 1354.4,423.9 1422.3,452.9 1422.3,521.6 	"/>
	<path fill="#646464" d="M1422.3,523.8h-67.9c-1.2,0-2.2-1-2.2-2.2v-97.7c0-0.7,0.4-1.4,1-1.8c0.6-0.4,1.4-0.5,2.1-0.2l67.9,28.9
		c0.8,0.3,1.3,1.1,1.3,2v68.8C1424.5,522.9,1423.5,523.8,1422.3,523.8z M1356.6,519.4h63.5v-65.1l-63.5-27V519.4z"/>
</g>
<g>
	<polygon fill="#C8C8C8" points="1321.6,397.3 1364.7,452.6 1430,452.6 1386.9,397.3 	"/>
	<path fill="#646464" d="M1430,454.9h-65.3c-0.7,0-1.3-0.3-1.7-0.9l-43-55.4c-0.5-0.7-0.6-1.6-0.2-2.3c0.4-0.8,1.1-1.2,2-1.2h65.3
		c0.7,0,1.3,0.3,1.7,0.9l43,55.4c0.5,0.7,0.6,1.6,0.2,2.3C1431.6,454.4,1430.8,454.9,1430,454.9z M1365.8,450.4h59.7l-39.6-50.9
		h-59.7L1365.8,450.4z"/>
</g>
<g>
	<polygon fill="#FFFFFF" points="1356.8,443.2 1356.8,521.6 1287.6,521.6 1287.6,442 1321.6,397.3 	"/>
	<path fill="#646464" d="M1356.8,523.8h-69.3c-1.2,0-2.2-1-2.2-2.2V442c0-0.5,0.2-1,0.5-1.3l34.1-44.7c0.4-0.5,1.1-0.9,1.8-0.9h0
		c0.7,0,1.3,0.3,1.8,0.9l35.2,45.9c0.3,0.4,0.5,0.9,0.5,1.3v78.5C1359,522.9,1358.1,523.8,1356.8,523.8z M1289.8,519.4h64.8v-75.5
		l-33-43l-31.9,41.8V519.4z"/>
</g>
<path fill="#646464" d="M1278.6,454.9c-0.5,0-1-0.2-1.4-0.5c-1-0.8-1.1-2.1-0.4-3.1l43-55.4c0.4-0.5,1.1-0.9,1.7-0.9
	s1.3,0.3,1.7,0.9l42.4,54.5h64.2c1.2,0,2.2,1,2.2,2.2c0,1.2-1,2.2-2.2,2.2h-65.3c-0.7,0-1.3-0.3-1.7-0.9l-41.3-53.1l-41.3,53.1
	C1279.9,454.6,1279.2,454.9,1278.6,454.9z"/>
<g>
	<rect x="1309.4" y="465.2" fill="#FFFFFF" width="28.5" height="56.5"/>
	<path fill="#646464" d="M1337.9,523.8h-28.5c-1.2,0-2.2-1-2.2-2.2v-56.5c0-1.2,1-2.2,2.2-2.2h28.5c1.2,0,2.2,1,2.2,2.2v56.5
		C1340.1,522.9,1339.1,523.8,1337.9,523.8z M1311.6,519.4h24v-52h-24V519.4z"/>
</g>
<g>
	<g>
		<path fill="#646464" d="M1404.4,504.1h-15.2c-1.2,0-2.2-1-2.2-2.2V468c0-1.2,1-2.2,2.2-2.2h15.2c1.2,0,2.2,1,2.2,2.2v33.8
			C1406.6,503.1,1405.6,504.1,1404.4,504.1z M1391.4,499.7h10.8v-29.4h-10.8V499.7z"/>
		<path fill="#646464" d="M1389.2,504.1h-15.4c-1.2,0-2.2-1-2.2-2.2V468c0-1.2,1-2.2,2.2-2.2h15.4c1.2,0,2.2,1,2.2,2.2v33.8
			C1391.4,503.1,1390.4,504.1,1389.2,504.1z M1376,499.7h11v-29.4h-11V499.7z"/>
	</g>
	<path fill="#646464" d="M1407.1,504.1h-36c-1.2,0-2.2-1-2.2-2.2c0-1.2,1-2.2,2.2-2.2h36c1.2,0,2.2,1,2.2,2.2
		C1409.3,503.1,1408.3,504.1,1407.1,504.1z"/>
</g>
<path fill="#FFFFFF" d="M1033.5,412.1c-0.9,0-1.6-0.7-1.6-1.6v-2h-2c-0.9,0-1.6-0.7-1.6-1.6c0-0.9,0.7-1.6,1.6-1.6h2v-2
	c0-0.9,0.7-1.6,1.6-1.6c0.9,0,1.6,0.7,1.6,1.6v2h2c0.9,0,1.6,0.7,1.6,1.6c0,0.9-0.7,1.6-1.6,1.6h-2v2
	C1035.1,411.3,1034.4,412.1,1033.5,412.1z"/>
<g>
	<polygon fill="#FFFFFF" points="1065.3,521.6 1065.3,423.9 1133.2,452.9 1133.2,521.6 	"/>
	<path fill="#646464" d="M1133.2,523.8h-67.9c-1.2,0-2.2-1-2.2-2.2v-97.7c0-0.7,0.4-1.4,1-1.8c0.6-0.4,1.4-0.5,2.1-0.2l67.9,28.9
		c0.8,0.3,1.3,1.1,1.3,2v68.8C1135.5,522.9,1134.5,523.8,1133.2,523.8z M1067.5,519.4h63.5v-65.1l-63.5-27V519.4z"/>
</g>
<g>
	<polygon fill="#C8C8C8" points="1032.6,397.3 1075.6,452.6 1140.9,452.6 1097.9,397.3 	"/>
	<path fill="#646464" d="M1140.9,454.9h-65.3c-0.7,0-1.3-0.3-1.7-0.9l-43-55.4c-0.5-0.7-0.6-1.6-0.2-2.3c0.4-0.8,1.1-1.2,2-1.2h65.3
		c0.7,0,1.3,0.3,1.7,0.9l43,55.4c0.5,0.7,0.6,1.6,0.2,2.3C1142.6,454.4,1141.8,454.9,1140.9,454.9z M1076.7,450.4h59.7l-39.6-50.9
		h-59.7L1076.7,450.4z"/>
</g>
<g>
	<polygon fill="#FFFFFF" points="1067.8,443.2 1067.8,521.6 998.5,521.6 998.5,442 1032.6,397.3 	"/>
	<path fill="#646464" d="M1067.8,523.8h-69.3c-1.2,0-2.2-1-2.2-2.2V442c0-0.5,0.2-1,0.5-1.3l34.1-44.7c0.4-0.5,1.1-0.9,1.8-0.9h0
		c0.7,0,1.3,0.3,1.8,0.9l35.2,45.9c0.3,0.4,0.5,0.9,0.5,1.3v78.5C1070,522.9,1069,523.8,1067.8,523.8z M1000.7,519.4h64.8v-75.5
		l-33-43l-31.9,41.8V519.4z"/>
</g>
<path fill="#646464" d="M989.5,454.9c-0.5,0-1-0.2-1.4-0.5c-1-0.8-1.1-2.1-0.4-3.1l43-55.4c0.4-0.5,1.1-0.9,1.7-0.9s1.3,0.3,1.7,0.9
	l42.4,54.5h64.2c1.2,0,2.2,1,2.2,2.2c0,1.2-1,2.2-2.2,2.2h-65.3c-0.7,0-1.3-0.3-1.7-0.9l-41.3-53.1L991.3,454
	C990.8,454.6,990.2,454.9,989.5,454.9z"/>
<g>
	<rect x="1020.4" y="465.2" fill="#FFFFFF" width="28.5" height="56.5"/>
	<path fill="#646464" d="M1048.8,523.8h-28.5c-1.2,0-2.2-1-2.2-2.2v-56.5c0-1.2,1-2.2,2.2-2.2h28.5c1.2,0,2.2,1,2.2,2.2v56.5
		C1051,522.9,1050,523.8,1048.8,523.8z M1022.6,519.4h24v-52h-24V519.4z"/>
</g>
<g>
	<g>
		<path fill="#646464" d="M1115.3,504.1h-15.2c-1.2,0-2.2-1-2.2-2.2V468c0-1.2,1-2.2,2.2-2.2h15.2c1.2,0,2.2,1,2.2,2.2v33.8
			C1117.5,503.1,1116.5,504.1,1115.3,504.1z M1102.3,499.7h10.8v-29.4h-10.8V499.7z"/>
		<path fill="#646464" d="M1100.1,504.1h-15.4c-1.2,0-2.2-1-2.2-2.2V468c0-1.2,1-2.2,2.2-2.2h15.4c1.2,0,2.2,1,2.2,2.2v33.8
			C1102.3,503.1,1101.3,504.1,1100.1,504.1z M1086.9,499.7h11v-29.4h-11V499.7z"/>
	</g>
	<path fill="#646464" d="M1118,504.1h-36c-1.2,0-2.2-1-2.2-2.2c0-1.2,1-2.2,2.2-2.2h36c1.2,0,2.2,1,2.2,2.2
		C1120.2,503.1,1119.2,504.1,1118,504.1z"/>
</g>
<path fill="#FFFFFF" d="M254.3,412.1c0.9,0,1.6-0.7,1.6-1.6v-2h2c0.9,0,1.6-0.7,1.6-1.6c0-0.9-0.7-1.6-1.6-1.6h-2v-2
	c0-0.9-0.7-1.6-1.6-1.6c-0.9,0-1.6,0.7-1.6,1.6v2h-2c-0.9,0-1.6,0.7-1.6,1.6c0,0.9,0.7,1.6,1.6,1.6h2v2
	C252.7,411.3,253.4,412.1,254.3,412.1z"/>
<g opacity="0.15">
	<path fill="#646464" d="M179.8,90.4h42.5c2,0,3.5-1.6,3.5-3.5c0-2-1.6-3.5-3.5-3.5h-42.5c-2,0-3.5,1.6-3.5,3.5
		C176.3,88.8,177.9,90.4,179.8,90.4z"/>
	<path fill="#646464" d="M140.9,90.4h20.1c2,0,3.5-1.6,3.5-3.5c0-2-1.6-3.5-3.5-3.5h-20.1c-2,0-3.5,1.6-3.5,3.5
		C137.3,88.8,138.9,90.4,140.9,90.4z"/>
	<path fill="#646464" d="M153.9,106h44.9c2,0,3.5-1.6,3.5-3.5c0-2-1.6-3.5-3.5-3.5h-44.9c-2,0-3.5,1.6-3.5,3.5
		C150.3,104.4,151.9,106,153.9,106z"/>
</g>
<g opacity="0.15">
	<path fill="#646464" d="M5.3,47.3h78.3c2,0,3.5-1.6,3.5-3.5c0-2-1.6-3.5-3.5-3.5H5.3c-2,0-3.5,1.6-3.5,3.5
		C1.8,45.8,3.4,47.3,5.3,47.3z"/>
	<path fill="#646464" d="M27,64.5h44.8c2,0,3.5-1.6,3.5-3.5c0-2-1.6-3.5-3.5-3.5H27c-2,0-3.5,1.6-3.5,3.5C23.4,62.9,25,64.5,27,64.5
		z"/>
	<g>
		<path fill="#646464" d="M14.3,30.2h23.1c2,0,3.5-1.6,3.5-3.5c0-2-1.6-3.5-3.5-3.5H14.3c-2,0-3.5,1.6-3.5,3.5
			C10.8,28.6,12.3,30.2,14.3,30.2z"/>
		<path fill="#646464" d="M56.1,30.2H68c2,0,3.5-1.6,3.5-3.5c0-2-1.6-3.5-3.5-3.5H56.1c-2,0-3.5,1.6-3.5,3.5
			C52.5,28.6,54.1,30.2,56.1,30.2z"/>
	</g>
</g>
<g>
	<polygon fill="#FFFFFF" points="222.5,521.6 222.5,423.9 154.6,452.9 154.6,521.6 	"/>
	<path fill="#646464" d="M152.3,521.6v-68.8c0-0.9,0.5-1.7,1.3-2l67.9-28.9c0.7-0.3,1.5-0.2,2.1,0.2c0.6,0.4,1,1.1,1,1.8v97.7
		c0,1.2-1,2.2-2.2,2.2h-67.9C153.3,523.8,152.3,522.9,152.3,521.6z M220.3,427.3l-63.5,27v65.1h63.5V427.3z"/>
</g>
<g>
	<polygon fill="#C8C8C8" points="255.2,397.3 212.2,452.6 146.9,452.6 189.9,397.3 	"/>
	<path fill="#646464" d="M144.9,453.6c-0.4-0.8-0.3-1.7,0.2-2.3l43-55.4c0.4-0.5,1.1-0.9,1.7-0.9h65.3c0.8,0,1.6,0.5,2,1.2
		c0.4,0.8,0.3,1.7-0.2,2.3l-43,55.4c-0.4,0.5-1.1,0.9-1.7,0.9h-65.3C146,454.9,145.3,454.4,144.9,453.6z M250.7,399.5H191
		l-39.6,50.9h59.7L250.7,399.5z"/>
</g>
<g>
	<polygon fill="#FFFFFF" points="220,443.2 220,521.6 289.3,521.6 289.3,442 255.2,397.3 	"/>
	<path fill="#646464" d="M217.8,521.6v-78.5c0-0.5,0.2-1,0.5-1.3l35.2-45.9c0.4-0.5,1.1-0.9,1.8-0.9c0,0,0,0,0,0
		c0.7,0,1.3,0.3,1.8,0.9l34.1,44.7c0.3,0.4,0.5,0.9,0.5,1.3v79.6c0,1.2-1,2.2-2.2,2.2H220C218.8,523.8,217.8,522.9,217.8,521.6z
		 M287.1,442.7l-31.9-41.8l-33,43v75.5h64.8V442.7z"/>
</g>
<path fill="#646464" d="M298.3,454.9c0.5,0,1-0.2,1.4-0.5c1-0.8,1.1-2.1,0.4-3.1l-43-55.4c-0.4-0.5-1.1-0.9-1.7-0.9
	c-0.7,0-1.3,0.3-1.7,0.9l-42.4,54.5h-64.2c-1.2,0-2.2,1-2.2,2.2c0,1.2,1,2.2,2.2,2.2h65.3c0.7,0,1.3-0.3,1.7-0.9l41.3-53.1
	l41.3,53.1C297,454.6,297.6,454.9,298.3,454.9z"/>
<g>
	<rect x="239" y="465.2" fill="#FFFFFF" width="28.5" height="56.5"/>
	<path fill="#646464" d="M236.8,521.6v-56.5c0-1.2,1-2.2,2.2-2.2h28.5c1.2,0,2.2,1,2.2,2.2v56.5c0,1.2-1,2.2-2.2,2.2H239
		C237.8,523.8,236.8,522.9,236.8,521.6z M265.2,467.4h-24v52h24V467.4z"/>
</g>
<g>
	<g>
		<path fill="#646464" d="M170.3,501.9V468c0-1.2,1-2.2,2.2-2.2h15.2c1.2,0,2.2,1,2.2,2.2v33.8c0,1.2-1,2.2-2.2,2.2h-15.2
			C171.3,504.1,170.3,503.1,170.3,501.9z M185.5,470.3h-10.8v29.4h10.8V470.3z"/>
		<path fill="#646464" d="M185.5,501.9V468c0-1.2,1-2.2,2.2-2.2h15.4c1.2,0,2.2,1,2.2,2.2v33.8c0,1.2-1,2.2-2.2,2.2h-15.4
			C186.5,504.1,185.5,503.1,185.5,501.9z M200.9,470.3h-11v29.4h11V470.3z"/>
	</g>
	<path fill="#646464" d="M169.8,504.1h36c1.2,0,2.2-1,2.2-2.2c0-1.2-1-2.2-2.2-2.2h-36c-1.2,0-2.2,1-2.2,2.2
		C167.6,503.1,168.6,504.1,169.8,504.1z"/>
</g>
<path fill="#FFFFFF" d="M564.3,412.1c0.9,0,1.6-0.7,1.6-1.6v-2h2c0.9,0,1.6-0.7,1.6-1.6c0-0.9-0.7-1.6-1.6-1.6h-2v-2
	c0-0.9-0.7-1.6-1.6-1.6c-0.9,0-1.6,0.7-1.6,1.6v2h-2c-0.9,0-1.6,0.7-1.6,1.6c0,0.9,0.7,1.6,1.6,1.6h2v2
	C562.7,411.3,563.4,412.1,564.3,412.1z"/>
<g>
	<polygon fill="#FFFFFF" points="532.4,521.6 532.4,423.9 464.5,452.9 464.5,521.6 	"/>
	<path fill="#646464" d="M462.3,521.6v-68.8c0-0.9,0.5-1.7,1.3-2l67.9-28.9c0.7-0.3,1.5-0.2,2.1,0.2c0.6,0.4,1,1.1,1,1.8v97.7
		c0,1.2-1,2.2-2.2,2.2h-67.9C463.3,523.8,462.3,522.9,462.3,521.6z M530.2,427.3l-63.5,27v65.1h63.5V427.3z"/>
</g>
<g>
	<polygon fill="#C8C8C8" points="565.2,397.3 522.1,452.6 456.8,452.6 499.9,397.3 	"/>
	<path fill="#646464" d="M454.8,453.6c-0.4-0.8-0.3-1.7,0.2-2.3l43-55.4c0.4-0.5,1.1-0.9,1.7-0.9h65.3c0.8,0,1.6,0.5,2,1.2
		c0.4,0.8,0.3,1.7-0.2,2.3l-43,55.4c-0.4,0.5-1.1,0.9-1.7,0.9h-65.3C456,454.9,455.2,454.4,454.8,453.6z M560.7,399.5h-59.7
		l-39.6,50.9h59.7L560.7,399.5z"/>
</g>
<g>
	<polygon fill="#FFFFFF" points="530,443.2 530,521.6 599.3,521.6 599.3,442 565.2,397.3 	"/>
	<path fill="#646464" d="M527.8,521.6v-78.5c0-0.5,0.2-1,0.5-1.3l35.2-45.9c0.4-0.5,1.1-0.9,1.8-0.9c0,0,0,0,0,0
		c0.7,0,1.3,0.3,1.8,0.9l34.1,44.7c0.3,0.4,0.5,0.9,0.5,1.3v79.6c0,1.2-1,2.2-2.2,2.2H530C528.8,523.8,527.8,522.9,527.8,521.6z
		 M597,442.7l-31.9-41.8l-33,43v75.5H597V442.7z"/>
</g>
<path fill="#646464" d="M608.2,454.9c0.5,0,1-0.2,1.4-0.5c1-0.8,1.1-2.1,0.4-3.1l-43-55.4c-0.4-0.5-1.1-0.9-1.7-0.9
	s-1.3,0.3-1.7,0.9l-42.4,54.5h-64.2c-1.2,0-2.2,1-2.2,2.2c0,1.2,1,2.2,2.2,2.2h65.3c0.7,0,1.3-0.3,1.7-0.9l41.3-53.1l41.3,53.1
	C606.9,454.6,607.6,454.9,608.2,454.9z"/>
<g>
	<rect x="548.9" y="465.2" fill="#FFFFFF" width="28.5" height="56.5"/>
	<path fill="#646464" d="M546.7,521.6v-56.5c0-1.2,1-2.2,2.2-2.2h28.5c1.2,0,2.2,1,2.2,2.2v56.5c0,1.2-1,2.2-2.2,2.2h-28.5
		C547.7,523.8,546.7,522.9,546.7,521.6z M575.2,467.4h-24v52h24V467.4z"/>
</g>
<g>
	<g>
		<path fill="#646464" d="M480.2,501.9V468c0-1.2,1-2.2,2.2-2.2h15.2c1.2,0,2.2,1,2.2,2.2v33.8c0,1.2-1,2.2-2.2,2.2h-15.2
			C481.2,504.1,480.2,503.1,480.2,501.9z M495.4,470.3h-10.8v29.4h10.8V470.3z"/>
		<path fill="#646464" d="M495.4,501.9V468c0-1.2,1-2.2,2.2-2.2H513c1.2,0,2.2,1,2.2,2.2v33.8c0,1.2-1,2.2-2.2,2.2h-15.4
			C496.4,504.1,495.4,503.1,495.4,501.9z M510.8,470.3h-11v29.4h11V470.3z"/>
	</g>
	<path fill="#646464" d="M479.7,504.1h36c1.2,0,2.2-1,2.2-2.2c0-1.2-1-2.2-2.2-2.2h-36c-1.2,0-2.2,1-2.2,2.2
		C477.5,503.1,478.5,504.1,479.7,504.1z"/>
</g>
<g>
	<path fill="#646464" d="M137.8,523.8H9.7V158.7h128V523.8z M16.9,517.2h113.7V165.3H16.9V517.2z"/>
</g>
<g>
	<rect x="56.4" y="252.9" opacity="0.21" fill="#646464" width="57.4" height="18.6"/>
	<path opacity="0.21" fill="#646464" d="M117.4,274.7H52.8v-25.1h64.6V274.7z M60,268.2h50.3v-12H60V268.2z"/>
</g>
<g>
	<rect x="56.4" y="187.4" opacity="0.21" fill="#646464" width="57.4" height="18.6"/>
	<path opacity="0.21" fill="#646464" d="M117.4,209.2H52.8v-25.1h64.6V209.2z M60,202.7h50.3v-12H60V202.7z"/>
</g>
<g>
	<rect x="56.4" y="318.4" opacity="0.21" fill="#646464" width="57.4" height="18.6"/>
	<path opacity="0.21" fill="#646464" d="M117.4,340.2H52.8v-25.1h64.6V340.2z M60,333.7h50.3v-12H60V333.7z"/>
</g>
<g>
	<rect x="56.4" y="383.9" opacity="0.21" fill="#646464" width="57.4" height="18.6"/>
	<path opacity="0.21" fill="#646464" d="M117.4,405.7H52.8v-25.1h64.6V405.7z M60,399.2h50.3v-12H60V399.2z"/>
</g>
<g>
	<rect x="56.4" y="449.4" opacity="0.21" fill="#646464" width="57.4" height="18.6"/>
	<path opacity="0.21" fill="#646464" d="M117.4,471.2H52.8v-25.1h64.6V471.2z M60,464.7h50.3v-12H60V464.7z"/>
</g>
<g>
	<path fill="#646464" d="M121,235.4H23.7v-32.7H121V235.4z M30.9,228.9h82.9v-19.6H30.9V228.9z"/>
</g>
<g>
	<path fill="#646464" d="M104.7,209.2H40.1v-25.1h64.6V209.2z M47.2,202.7h50.3v-12H47.2V202.7z"/>
</g>
<g>
	<rect x="43.2" y="204.9" fill="#646464" width="7.2" height="27.3"/>
</g>
<g>
	<rect x="60" y="204.9" fill="#646464" width="7.2" height="27.3"/>
</g>
<g>
	<rect x="76.7" y="204.9" fill="#646464" width="7.2" height="27.3"/>
</g>
<g>
	<rect x="93.5" y="204.9" fill="#646464" width="7.2" height="27.3"/>
</g>
<g>
	<path fill="#646464" d="M121,300.9H23.7v-32.7H121V300.9z M30.9,294.4h82.9v-19.6H30.9V294.4z"/>
</g>
<g>
	<path fill="#646464" d="M104.7,274.7H40.1v-25.1h64.6V274.7z M47.2,268.2h50.3v-12H47.2V268.2z"/>
</g>
<g>
	<rect x="43.2" y="270.4" fill="#646464" width="7.2" height="27.3"/>
</g>
<g>
	<rect x="60" y="270.4" fill="#646464" width="7.2" height="27.3"/>
</g>
<g>
	<rect x="76.7" y="270.4" fill="#646464" width="7.2" height="27.3"/>
</g>
<g>
	<rect x="93.5" y="270.4" fill="#646464" width="7.2" height="27.3"/>
</g>
<g>
	<path fill="#646464" d="M121,366.4H23.7v-32.7H121V366.4z M30.9,359.9h82.9v-19.6H30.9V359.9z"/>
</g>
<g>
	<path fill="#646464" d="M104.7,340.2H40.1v-25.1h64.6V340.2z M47.2,333.7h50.3v-12H47.2V333.7z"/>
</g>
<g>
	<rect x="43.2" y="335.9" fill="#646464" width="7.2" height="27.3"/>
</g>
<g>
	<rect x="60" y="335.9" fill="#646464" width="7.2" height="27.3"/>
</g>
<g>
	<rect x="76.7" y="335.9" fill="#646464" width="7.2" height="27.3"/>
</g>
<g>
	<rect x="93.5" y="335.9" fill="#646464" width="7.2" height="27.3"/>
</g>
<g>
	<path fill="#646464" d="M121,431.9H23.7v-32.7H121V431.9z M30.9,425.4h82.9v-19.6H30.9V425.4z"/>
</g>
<g>
	<path fill="#646464" d="M104.7,405.7H40.1v-25.1h64.6V405.7z M47.2,399.2h50.3v-12H47.2V399.2z"/>
</g>
<g>
	<rect x="43.2" y="401.4" fill="#646464" width="7.2" height="27.3"/>
</g>
<g>
	<rect x="60" y="401.4" fill="#646464" width="7.2" height="27.3"/>
</g>
<g>
	<rect x="76.7" y="401.4" fill="#646464" width="7.2" height="27.3"/>
</g>
<g>
	<rect x="93.5" y="401.4" fill="#646464" width="7.2" height="27.3"/>
</g>
<g>
	<path fill="#646464" d="M121,497.4H23.7v-32.7H121V497.4z M30.9,490.9h82.9v-19.6H30.9V490.9z"/>
</g>
<g>
	<path fill="#646464" d="M104.7,471.2H40.1v-25.1h64.6V471.2z M47.2,464.7h50.3v-12H47.2V464.7z"/>
</g>
<g>
	<rect x="43.2" y="466.9" fill="#646464" width="7.2" height="27.3"/>
</g>
<g>
	<rect x="60" y="466.9" fill="#646464" width="7.2" height="27.3"/>
</g>
<g>
	<rect x="76.7" y="466.9" fill="#646464" width="7.2" height="27.3"/>
</g>
<g>
	<rect x="93.5" y="466.9" fill="#646464" width="7.2" height="27.3"/>
</g>
<path fill="#C8C8C8" stroke="#C8C8C8" stroke-width="5.0377" stroke-miterlimit="10" d="M-202,529.9H1804c2.5,0,4.5-0.7,4.5-1.6
	c0-0.9-2-1.6-4.5-1.6H-202c-2.5,0-4.5,0.7-4.5,1.6C-206.5,529.1-204.5,529.9-202,529.9z"/>
<g transform="translate(0,-952.36218)">
	<path fill="#34E3AB" stroke="#34E3AB" stroke-width="1.8891" stroke-miterlimit="10" d="M244,1250.8c-10.7,0-20.4,3.2-27.5,8.4
		c-7.1,5.2-11.6,12.5-11.6,20.6c0,10.3,7.2,19.2,17.9,24.3v14.8c0,0.6,0.5,1.1,1.1,1.1c0.2,0,0.5-0.1,0.7-0.2l15.3-11h4.1
		c10.7,0,20.4-3.2,27.5-8.4c7.1-5.2,11.6-12.5,11.6-20.6c0-8.1-4.5-15.4-11.6-20.6C264.4,1254,254.7,1250.8,244,1250.8z M244,1253
		c10.3,0,19.5,3.1,26.2,8c6.6,4.9,10.7,11.5,10.7,18.8c0,7.3-4,13.9-10.7,18.8c-6.6,4.9-15.9,8-26.2,8h-4.5c-0.2,0-0.5,0.1-0.7,0.2
		l-13.8,9.9v-13.3c0-0.4-0.3-0.8-0.7-1c-10.4-4.8-17.2-13.2-17.2-22.6c0-7.3,4-13.9,10.7-18.8C224.5,1256.1,233.8,1253,244,1253z"/>
</g>
<g transform="translate(0,-952.36218)">
	<path fill="#34E3AB" stroke="#34E3AB" stroke-width="1.8891" stroke-miterlimit="10" d="M1086.8,1251.4c-10.7,0-20.4,3.2-27.5,8.4
		c-7.1,5.2-11.6,12.5-11.6,20.6c0,10.3,7.2,19.2,17.9,24.3v14.8c0,0.6,0.5,1.1,1.1,1.1c0.2,0,0.5-0.1,0.7-0.2l15.3-11h4.1
		c10.7,0,20.4-3.2,27.5-8.4c7.1-5.2,11.6-12.5,11.6-20.6s-4.5-15.4-11.6-20.6C1107.2,1254.6,1097.5,1251.4,1086.8,1251.4z
		 M1086.8,1253.7c10.3,0,19.5,3.1,26.2,8c6.6,4.9,10.7,11.5,10.7,18.8s-4,13.9-10.7,18.8c-6.6,4.9-15.9,8-26.2,8h-4.5
		c-0.2,0-0.5,0.1-0.7,0.2l-13.8,9.9v-13.3c0-0.4-0.3-0.8-0.7-1c-10.4-4.8-17.2-13.2-17.2-22.6c0-7.3,4-13.9,10.7-18.8
		C1067.2,1256.7,1076.5,1253.7,1086.8,1253.7z"/>
</g>
<g>
	<path fill="#34E3AB" d="M1538,133.2c0,6.1-4,7.2-5.5,15.6c-0.2,1.1-1.1,1.9-2.2,1.9h-3.5h-3.5c-1.1,0-2.1-0.8-2.2-1.9
		c-1.5-8.4-5.5-9.5-5.5-15.6c0-6.1,5.1-11.1,11.2-11.1C1532.9,122,1538,127,1538,133.2z M1531.8,153.3c0,0.6-0.5,1-1,1h-7.9
		c-0.6,0-1-0.5-1-1c0-0.6,0.5-1,1-1h7.9C1531.3,152.3,1531.8,152.8,1531.8,153.3z M1531.8,157c0,0.6-0.5,1-1,1h-7.9
		c-0.6,0-1-0.5-1-1c0-0.6,0.5-1,1-1h7.9C1531.3,156,1531.8,156.4,1531.8,157z M1523.7,159.6h6.2l-1.7,2.1h-2.8L1523.7,159.6z"/>
</g>
<g transform="translate(0,-952.36218)">
	<path fill="#34E3AB" stroke="#34E3AB" stroke-width="1.8891" stroke-miterlimit="10" d="M1526.8,1065.6c-10.7,0-20.4,3.2-27.5,8.4
		s-11.6,12.5-11.6,20.6c0,10.3,7.2,19.2,17.9,24.3v14.8c0,0.6,0.5,1.1,1.1,1.1c0.2,0,0.5-0.1,0.7-0.2l15.3-11h4.1
		c10.7,0,20.4-3.2,27.5-8.4c7.1-5.2,11.6-12.5,11.6-20.6c0-8.1-4.5-15.4-11.6-20.6C1547.2,1068.8,1537.5,1065.6,1526.8,1065.6z
		 M1526.8,1067.8c10.3,0,19.5,3.1,26.2,8c6.6,4.9,10.7,11.5,10.7,18.8c0,7.3-4,13.9-10.7,18.8c-6.6,4.9-15.9,8-26.2,8h-4.5
		c-0.2,0-0.5,0.1-0.7,0.2l-13.8,9.9v-13.3c0-0.4-0.3-0.8-0.7-1c-10.4-4.8-17.2-13.2-17.2-22.6c0-7.3,4-13.9,10.7-18.8
		C1507.3,1070.9,1516.5,1067.8,1526.8,1067.8z"/>
</g>
<path fill="#34E3AB" d="M258.7,331.9c3-2.5,4.4-6,4.5-9.5c0-0.6-0.7-1-1.2-0.6l-5.3,4.5c-0.2,0.1-0.4,0.2-0.7,0.2l-7.5-1.6
	c-0.3-0.1-0.6-0.4-0.6-0.7l-0.3-7.8c0-0.2,0.1-0.5,0.3-0.6l5.3-4.5c0.5-0.4,0.3-1.2-0.4-1.3c-3.5-0.5-7.2,0.3-10.2,2.8
	c-3.4,2.9-4.9,7.1-4.4,11.1c0,0.5-0.1,1-0.5,1.3l-13.5,11.5c-0.3,0.3-0.4,0.8-0.1,1l6.8,8.1c0.3,0.3,0.8,0.4,1,0.1l13.6-11.4
	c0.3-0.3,0.9-0.4,1.4-0.3C250.9,335.4,255.3,334.6,258.7,331.9z"/>
<g>
	<path fill="#34E3AB" d="M1095,343.2c-4.6,0-8.4-3.8-8.4-8.4c0-6.1,7.5-12.3,7.8-12.5l0.6-0.5l0.6,0.5c0.3,0.3,7.8,6.4,7.8,12.5
		C1103.4,339.4,1099.6,343.2,1095,343.2z"/>
</g>
<g>
	<path fill="#34E3AB" d="M1078.5,332.5c-4.6,0-8.4-3.8-8.4-8.4c0-6.1,7.5-12.3,7.8-12.5l0.6-0.5l0.6,0.5c0.3,0.3,7.8,6.4,7.8,12.5
		C1086.9,328.7,1083.1,332.5,1078.5,332.5z"/>
</g>
</svg>
