<?xml version="1.0" encoding="utf-8"?>
<!-- Generator: Adobe Illustrator 18.1.1, SVG Export Plug-In . SVG Version: 6.00 Build 0)  -->
<svg version="1.1" id="Layer_1" xmlns="http://www.w3.org/2000/svg" xmlns:xlink="http://www.w3.org/1999/xlink" x="0px" y="0px"
	 viewBox="0 0 800 238.5" enable-background="new 0 0 800 238.5" xml:space="preserve">
<g opacity="0.22">
	<g>
		<path fill="#34E3AB" d="M250.3,237.4c0.4,0,0.8-0.3,0.8-0.8v-48.7c0-0.4-0.3-0.8-0.8-0.8s-0.8,0.3-0.8,0.8v48.7
			C249.5,237,249.9,237.4,250.3,237.4z"/>
		<g>
			<path fill="#34E3AB" d="M250.3,211.7c0.2,0,0.4-0.1,0.5-0.2l10.2-10.2c0.3-0.3,0.3-0.8,0-1.1c-0.3-0.3-0.8-0.3-1.1,0l-9.7,9.7
				l-12.2-12.2c-0.3-0.3-0.8-0.3-1.1,0c-0.3,0.3-0.3,0.8,0,1.1l12.7,12.7C249.9,211.6,250.1,211.7,250.3,211.7z"/>
			<path fill="#34E3AB" d="M250.3,202.4c0.2,0,0.4-0.1,0.5-0.2l5.8-5.7c0.3-0.3,0.3-0.8,0-1.1c-0.3-0.3-0.8-0.3-1.1,0l-5.3,5.2
				l-6.5-6.5c-0.3-0.3-0.8-0.3-1.1,0c-0.3,0.3-0.3,0.8,0,1.1l7,7C249.9,202.3,250.1,202.4,250.3,202.4z"/>
			<path fill="#34E3AB" d="M250.3,194c0.2,0,0.4-0.1,0.5-0.2l3.1-3.1c0.3-0.3,0.3-0.8,0-1.1c-0.3-0.3-0.8-0.3-1.1,0l-2.6,2.6
				l-2.6-2.6c-0.3-0.3-0.8-0.3-1.1,0c-0.3,0.3-0.3,0.8,0,1.1l3.1,3.1C249.9,193.9,250.1,194,250.3,194z"/>
		</g>
	</g>
	<g>
		<path fill="#34E3AB" d="M233,210.6c0.4,0,0.7-0.3,0.8-0.7c0-0.4-0.2-0.8-0.7-0.8c-3.5-0.4-6.1-3.4-6.1-6.9c0-2.5,1.4-4.9,3.6-6.1
			c0.2-0.1,0.3-0.3,0.4-0.5c0.1-0.2,0-0.4-0.1-0.6c-0.7-1.1-1-2.3-1-3.6c0-3.8,3.1-7,7-7c1,0,2,0.2,3,0.7c0.2,0.1,0.4,0.1,0.6,0
			c0.2-0.1,0.4-0.2,0.4-0.4c1.4-3.9,5.1-6.6,9.3-6.6c1.8,0,3.6,0.5,5.1,1.4c0.4,0.2,0.8,0.1,1-0.3c0.2-0.4,0.1-0.8-0.3-1
			c-1.8-1.1-3.8-1.7-5.9-1.7c-4.6,0-8.6,2.7-10.4,6.9c-0.9-0.3-1.9-0.5-2.9-0.5c-4.7,0-8.5,3.8-8.5,8.5c0,1.3,0.3,2.6,0.9,3.8
			c-2.3,1.6-3.8,4.2-3.8,7C225.4,206.5,228.6,210.1,233,210.6C232.9,210.6,232.9,210.6,233,210.6z"/>
		<path fill="#34E3AB" d="M243.4,219.1c2.7,0,5.4-1,7.4-2.8c0.3-0.3,0.4-0.8,0.1-1.1c-0.3-0.3-0.8-0.4-1.1-0.1
			c-2.1,1.8-5,2.7-7.8,2.3c-4.1-0.6-7.5-3.7-8.3-7.8c-0.1-0.4-0.5-0.7-0.9-0.6c-0.4,0.1-0.7,0.5-0.6,0.9c1,4.7,4.8,8.3,9.6,9
			C242.3,219,242.9,219.1,243.4,219.1z"/>
	</g>
	<g>
		<path fill="#34E3AB" d="M267.2,210.6C267.2,210.6,267.3,210.6,267.2,210.6c4.3-0.5,7.6-4.1,7.6-8.4c0-2.8-1.4-5.5-3.8-7
			c0.6-1.2,0.9-2.4,0.9-3.8c0-4.7-3.8-8.5-8.5-8.5c-1,0-1.9,0.2-2.9,0.5c-1.8-4.1-5.9-6.9-10.4-6.9c-2.1,0-4.2,0.6-5.9,1.7
			c-0.4,0.2-0.5,0.7-0.3,1c0.2,0.4,0.7,0.5,1,0.3c1.5-0.9,3.3-1.4,5.1-1.4c4.2,0,7.9,2.6,9.3,6.6c0.1,0.2,0.2,0.4,0.4,0.4
			c0.2,0.1,0.4,0.1,0.6,0c0.9-0.4,1.9-0.7,3-0.7c3.8,0,7,3.1,7,7c0,1.3-0.4,2.5-1,3.6c-0.1,0.2-0.1,0.4-0.1,0.6
			c0.1,0.2,0.2,0.4,0.4,0.5c2.2,1.2,3.6,3.6,3.6,6.1c0,3.5-2.6,6.5-6.1,6.9c-0.4,0-0.7,0.4-0.7,0.8
			C266.5,210.3,266.8,210.6,267.2,210.6z"/>
		<path fill="#34E3AB" d="M256.8,219.1c0.5,0,1,0,1.5-0.1c4.8-0.6,8.6-4.2,9.6-9c0.1-0.4-0.2-0.8-0.6-0.9c-0.4-0.1-0.8,0.2-0.9,0.6
			c-0.8,4.1-4.2,7.2-8.3,7.8c-2.8,0.4-5.6-0.5-7.8-2.3c-0.3-0.3-0.8-0.2-1.1,0.1c-0.3,0.3-0.2,0.8,0.1,1.1
			C251.5,218.1,254.1,219.1,256.8,219.1z"/>
	</g>
</g>
<g opacity="0.22">
	<g>
		<path fill="#34E3AB" stroke="#34E3AB" stroke-width="0.25" stroke-miterlimit="10" d="M465.4,237.4c0.3,0,0.5-0.2,0.5-0.5v-33.9
			c0-0.3-0.2-0.5-0.5-0.5s-0.5,0.2-0.5,0.5v33.9C464.9,237.1,465.1,237.4,465.4,237.4z"/>
		<g>
			<path fill="#34E3AB" stroke="#34E3AB" stroke-width="0.25" stroke-miterlimit="10" d="M465.4,219.5c0.1,0,0.3-0.1,0.4-0.2
				l7.1-7.1c0.2-0.2,0.2-0.5,0-0.7s-0.5-0.2-0.7,0l-6.7,6.7l-8.5-8.5c-0.2-0.2-0.5-0.2-0.7,0c-0.2,0.2-0.2,0.5,0,0.7l8.8,8.8
				C465.1,219.4,465.3,219.5,465.4,219.5z"/>
			<path fill="#34E3AB" stroke="#34E3AB" stroke-width="0.25" stroke-miterlimit="10" d="M465.4,213c0.1,0,0.3-0.1,0.4-0.2l4.1-4
				c0.2-0.2,0.2-0.5,0-0.7c-0.2-0.2-0.5-0.2-0.7,0l-3.7,3.6l-4.5-4.5c-0.2-0.2-0.5-0.2-0.7,0c-0.2,0.2-0.2,0.5,0,0.7l4.9,4.9
				C465.1,213,465.3,213,465.4,213z"/>
			<path fill="#34E3AB" stroke="#34E3AB" stroke-width="0.25" stroke-miterlimit="10" d="M465.4,207.2c0.1,0,0.3-0.1,0.4-0.2
				l2.2-2.2c0.2-0.2,0.2-0.5,0-0.7c-0.2-0.2-0.5-0.2-0.7,0l-1.8,1.8l-1.8-1.8c-0.2-0.2-0.5-0.2-0.7,0c-0.2,0.2-0.2,0.5,0,0.7
				l2.2,2.2C465.1,207.1,465.3,207.2,465.4,207.2z"/>
		</g>
	</g>
	<g>
		<path fill="#34E3AB" stroke="#34E3AB" stroke-width="0.25" stroke-miterlimit="10" d="M453.3,218.7c0.3,0,0.5-0.2,0.5-0.5
			c0-0.3-0.2-0.6-0.5-0.6c-2.4-0.3-4.3-2.4-4.3-4.8c0-1.8,1-3.4,2.5-4.3c0.1-0.1,0.2-0.2,0.3-0.3c0-0.1,0-0.3-0.1-0.4
			c-0.5-0.8-0.7-1.6-0.7-2.5c0-2.7,2.2-4.8,4.8-4.8c0.7,0,1.4,0.2,2.1,0.5c0.1,0.1,0.3,0.1,0.4,0c0.1-0.1,0.2-0.2,0.3-0.3
			c1-2.7,3.6-4.6,6.5-4.6c1.3,0,2.5,0.3,3.6,1c0.2,0.2,0.6,0.1,0.7-0.2c0.2-0.2,0.1-0.6-0.2-0.7c-1.2-0.8-2.7-1.2-4.1-1.2
			c-3.2,0-6,1.9-7.3,4.8c-0.6-0.2-1.3-0.3-2-0.3c-3.3,0-5.9,2.6-5.9,5.9c0,0.9,0.2,1.8,0.6,2.6c-1.6,1.1-2.6,2.9-2.6,4.9
			C448.1,215.9,450.3,218.4,453.3,218.7C453.3,218.7,453.3,218.7,453.3,218.7z"/>
		<path fill="#34E3AB" stroke="#34E3AB" stroke-width="0.25" stroke-miterlimit="10" d="M460.6,224.6c1.9,0,3.7-0.7,5.2-1.9
			c0.2-0.2,0.2-0.5,0.1-0.7c-0.2-0.2-0.5-0.2-0.7-0.1c-1.5,1.3-3.5,1.9-5.4,1.6c-2.9-0.4-5.2-2.6-5.8-5.4c-0.1-0.3-0.3-0.5-0.6-0.4
			c-0.3,0.1-0.5,0.3-0.4,0.6c0.7,3.3,3.4,5.8,6.7,6.2C459.8,224.6,460.2,224.6,460.6,224.6z"/>
	</g>
	<g>
		<path fill="#34E3AB" stroke="#34E3AB" stroke-width="0.25" stroke-miterlimit="10" d="M477.2,218.7
			C477.2,218.7,477.2,218.7,477.2,218.7c3-0.4,5.3-2.9,5.3-5.9c0-2-1-3.8-2.6-4.9c0.4-0.8,0.6-1.7,0.6-2.6c0-3.3-2.6-5.9-5.9-5.9
			c-0.7,0-1.4,0.1-2,0.3c-1.2-2.9-4.1-4.8-7.3-4.8c-1.5,0-2.9,0.4-4.1,1.2c-0.2,0.2-0.3,0.5-0.2,0.7c0.2,0.2,0.5,0.3,0.7,0.2
			c1.1-0.7,2.3-1,3.6-1c2.9,0,5.5,1.8,6.5,4.6c0,0.1,0.2,0.3,0.3,0.3c0.1,0.1,0.3,0.1,0.4,0c0.6-0.3,1.3-0.5,2.1-0.5
			c2.7,0,4.8,2.2,4.8,4.8c0,0.9-0.2,1.8-0.7,2.5c-0.1,0.1-0.1,0.3-0.1,0.4c0,0.1,0.1,0.3,0.3,0.3c1.6,0.8,2.5,2.5,2.5,4.3
			c0,2.5-1.8,4.5-4.3,4.8c-0.3,0-0.5,0.3-0.5,0.6C476.7,218.5,476.9,218.7,477.2,218.7z"/>
		<path fill="#34E3AB" stroke="#34E3AB" stroke-width="0.25" stroke-miterlimit="10" d="M469.9,224.6c0.4,0,0.7,0,1.1-0.1
			c3.3-0.4,6-3,6.7-6.2c0.1-0.3-0.1-0.6-0.4-0.6c-0.3-0.1-0.6,0.1-0.6,0.4c-0.6,2.8-2.9,5-5.8,5.4c-1.9,0.3-3.9-0.3-5.4-1.6
			c-0.2-0.2-0.6-0.2-0.7,0.1c-0.2,0.2-0.2,0.6,0.1,0.7C466.2,224,468,224.6,469.9,224.6z"/>
	</g>
</g>
<path fill="#FFFFFF" d="M607,192c-0.4,0-0.7-0.3-0.7-0.7v-0.8h-0.8c-0.4,0-0.7-0.3-0.7-0.7c0-0.4,0.3-0.7,0.7-0.7h0.8v-0.8
	c0-0.4,0.3-0.7,0.7-0.7s0.7,0.3,0.7,0.7v0.8h0.8c0.4,0,0.7,0.3,0.7,0.7c0,0.4-0.3,0.7-0.7,0.7h-0.8v0.8
	C607.7,191.7,607.4,192,607,192z"/>
<g opacity="0.22">
	<g>
		<path fill="#34E3AB" d="M575.7,237.5c-0.4,0-0.8-0.3-0.8-0.8V188c0-0.4,0.3-0.8,0.8-0.8c0.4,0,0.8,0.3,0.8,0.8v48.7
			C576.4,237.2,576.1,237.5,575.7,237.5z"/>
		<g>
			<path fill="#34E3AB" d="M575.6,211.8c-0.2,0-0.4-0.1-0.5-0.2l-10.2-10.2c-0.3-0.3-0.3-0.8,0-1.1c0.3-0.3,0.8-0.3,1.1,0l9.7,9.7
				l12.2-12.2c0.3-0.3,0.8-0.3,1.1,0c0.3,0.3,0.3,0.8,0,1.1l-12.7,12.7C576,211.7,575.8,211.8,575.6,211.8z"/>
			<path fill="#34E3AB" d="M575.6,202.5c-0.2,0-0.4-0.1-0.5-0.2l-5.8-5.7c-0.3-0.3-0.3-0.8,0-1.1c0.3-0.3,0.8-0.3,1.1,0l5.3,5.2
				l6.5-6.5c0.3-0.3,0.8-0.3,1.1,0c0.3,0.3,0.3,0.8,0,1.1l-7,7C576,202.4,575.8,202.5,575.6,202.5z"/>
			<path fill="#34E3AB" d="M575.6,194.1c-0.2,0-0.4-0.1-0.5-0.2l-3.1-3.1c-0.3-0.3-0.3-0.8,0-1.1c0.3-0.3,0.8-0.3,1.1,0l2.6,2.6
				l2.6-2.6c0.3-0.3,0.8-0.3,1.1,0c0.3,0.3,0.3,0.8,0,1.1l-3.1,3.1C576,194,575.8,194.1,575.6,194.1z"/>
		</g>
	</g>
	<g>
		<path fill="#34E3AB" d="M593,210.7c-0.4,0-0.7-0.3-0.8-0.7c0-0.4,0.2-0.8,0.7-0.8c3.5-0.4,6.1-3.4,6.1-6.9c0-2.5-1.4-4.9-3.6-6.1
			c-0.2-0.1-0.3-0.3-0.4-0.5c-0.1-0.2,0-0.4,0.1-0.6c0.7-1.1,1-2.3,1-3.6c0-3.8-3.1-7-7-7c-1,0-2,0.2-3,0.7c-0.2,0.1-0.4,0.1-0.6,0
			c-0.2-0.1-0.4-0.2-0.4-0.4c-1.4-3.9-5.1-6.6-9.3-6.6c-1.8,0-3.6,0.5-5.1,1.4c-0.4,0.2-0.8,0.1-1-0.3c-0.2-0.4-0.1-0.8,0.3-1
			c1.8-1.1,3.8-1.7,5.9-1.7c4.6,0,8.7,2.7,10.4,6.9c0.9-0.3,1.9-0.5,2.9-0.5c4.7,0,8.5,3.8,8.5,8.5c0,1.3-0.3,2.6-0.9,3.8
			c2.3,1.6,3.8,4.2,3.8,7C600.5,206.6,597.3,210.2,593,210.7C593,210.7,593,210.7,593,210.7z"/>
		<path fill="#34E3AB" d="M582.6,219.2c-2.7,0-5.4-1-7.4-2.8c-0.3-0.3-0.4-0.8-0.1-1.1c0.3-0.3,0.8-0.4,1.1-0.1
			c2.1,1.8,5,2.7,7.8,2.3c4.1-0.6,7.5-3.7,8.3-7.8c0.1-0.4,0.5-0.7,0.9-0.6c0.4,0.1,0.7,0.5,0.6,0.9c-1,4.7-4.8,8.3-9.6,9
			C583.6,219.2,583.1,219.2,582.6,219.2z"/>
	</g>
	<g>
		<path fill="#34E3AB" d="M558.7,210.7C558.7,210.7,558.7,210.7,558.7,210.7c-4.3-0.5-7.6-4.1-7.6-8.4c0-2.8,1.4-5.5,3.8-7
			c-0.6-1.2-0.9-2.4-0.9-3.8c0-4.7,3.8-8.5,8.5-8.5c1,0,1.9,0.2,2.9,0.5c1.8-4.1,5.9-6.9,10.4-6.9c2.1,0,4.2,0.6,5.9,1.7
			c0.4,0.2,0.5,0.7,0.3,1c-0.2,0.4-0.7,0.5-1,0.3c-1.5-0.9-3.3-1.4-5.1-1.4c-4.2,0-7.9,2.6-9.3,6.6c-0.1,0.2-0.2,0.4-0.4,0.4
			c-0.2,0.1-0.4,0.1-0.6,0c-0.9-0.4-1.9-0.7-3-0.7c-3.8,0-7,3.1-7,7c0,1.3,0.4,2.5,1,3.6c0.1,0.2,0.1,0.4,0.1,0.6
			c-0.1,0.2-0.2,0.4-0.4,0.5c-2.2,1.2-3.6,3.6-3.6,6.1c0,3.5,2.6,6.5,6.1,6.9c0.4,0,0.7,0.4,0.7,0.8
			C559.4,210.4,559.1,210.7,558.7,210.7z"/>
		<path fill="#34E3AB" d="M569.1,219.2c-0.5,0-1,0-1.5-0.1c-4.8-0.6-8.6-4.3-9.6-9c-0.1-0.4,0.2-0.8,0.6-0.9
			c0.4-0.1,0.8,0.2,0.9,0.6c0.8,4.1,4.2,7.2,8.3,7.8c2.8,0.4,5.6-0.5,7.8-2.3c0.3-0.3,0.8-0.2,1.1,0.1c0.3,0.3,0.2,0.8-0.1,1.1
			C574.5,218.2,571.8,219.2,569.1,219.2z"/>
	</g>
</g>
<g opacity="0.15">
	<g>
		<path fill="#646464" d="M639.7,96.7h-17c-0.8,0-1.4-0.6-1.4-1.4c0-0.8,0.6-1.4,1.4-1.4h17c0.8,0,1.4,0.6,1.4,1.4
			C641.1,96.1,640.5,96.7,639.7,96.7z"/>
		<path fill="#646464" d="M645.2,100.9H633c-0.8,0-1.4-0.6-1.4-1.4c0-0.8,0.6-1.4,1.4-1.4h12.2c0.8,0,1.4,0.6,1.4,1.4
			C646.6,100.3,646,100.9,645.2,100.9z"/>
	</g>
	<g>
		<path fill="#646464" d="M648.2,92.5h-31.1c-0.8,0-1.4-0.6-1.4-1.4c0-0.8,0.6-1.4,1.4-1.4h31.1c0.8,0,1.4,0.6,1.4,1.4
			C649.6,91.9,648.9,92.5,648.2,92.5z"/>
		<path fill="#646464" d="M639.7,96.7h-12.2c-0.8,0-1.4-0.6-1.4-1.4c0-0.8,0.6-1.4,1.4-1.4h12.2c0.8,0,1.4,0.6,1.4,1.4
			C641.1,96.1,640.5,96.7,639.7,96.7z"/>
	</g>
</g>
<g opacity="0.15">
	<path fill="#646464" d="M701.2,40.1h-32.3c-0.8,0-1.4-0.6-1.4-1.4c0-0.8,0.6-1.4,1.4-1.4h32.3c0.8,0,1.4,0.6,1.4,1.4
		C702.6,39.5,702,40.1,701.2,40.1z"/>
	<path fill="#646464" d="M711.7,46.1h-23.2c-0.8,0-1.4-0.6-1.4-1.4c0-0.8,0.6-1.4,1.4-1.4h23.2c0.8,0,1.4,0.6,1.4,1.4
		C713.1,45.5,712.5,46.1,711.7,46.1z"/>
</g>
<g>
	<rect x="647" y="122.9" fill="#FFFFFF" width="45" height="112.2"/>
	<path fill="#646464" d="M692.1,236.4h-45c-0.7,0-1.2-0.6-1.2-1.2V122.9c0-0.7,0.6-1.2,1.2-1.2h45c0.7,0,1.2,0.6,1.2,1.2v112.2
		C693.3,235.8,692.7,236.4,692.1,236.4z M648.3,233.9h42.6V124.2h-42.6V233.9z"/>
</g>
<g>
	<polygon fill="#FFFFFF" points="692.1,122.9 692.1,235.2 720.6,235.2 720.6,122.9 706.5,111.2 	"/>
	<path fill="#646464" d="M720.6,236.4h-28.6c-0.7,0-1.2-0.6-1.2-1.2V122.9c0-0.4,0.2-0.7,0.5-1l14.5-11.7c0.5-0.4,1.1-0.4,1.6,0
		l14.1,11.7c0.3,0.2,0.4,0.6,0.4,1v112.3C721.9,235.8,721.3,236.4,720.6,236.4z M693.3,233.9h26.1V123.5l-12.9-10.7l-13.2,10.7
		V233.9z"/>
</g>
<g>
	<polygon fill="#646464" points="647,122.9 651.4,122.9 692.1,122.9 706.5,111.2 661.6,111.2 	"/>
	<path fill="#646464" d="M647,124.1c-0.5,0-1-0.3-1.2-0.8c-0.2-0.5,0-1,0.4-1.4l14.6-11.7c0.2-0.2,0.5-0.3,0.8-0.3h44.9
		c0.5,0,1,0.3,1.2,0.8s0,1-0.4,1.4l-14.5,11.7c-0.2,0.2-0.5,0.3-0.8,0.3h-40.6L647,124.1L647,124.1z M662.1,112.5l-11.5,9.2l0.9,0
		h40.2l11.4-9.2H662.1z"/>
</g>
<g>
	<path fill="#646464" d="M712.7,143h-11.4c-0.7,0-1.2-0.6-1.2-1.2v-12.4c0-0.7,0.6-1.2,1.2-1.2h11.4c0.7,0,1.2,0.6,1.2,1.2v12.4
		C714,142.4,713.4,143,712.7,143z M702.5,140.5h9v-9.9h-9V140.5z"/>
	<path fill="#646464" d="M712.7,163.6h-11.4c-0.7,0-1.2-0.6-1.2-1.2V150c0-0.7,0.6-1.2,1.2-1.2h11.4c0.7,0,1.2,0.6,1.2,1.2v12.4
		C714,163.1,713.4,163.6,712.7,163.6z M702.5,161.2h9v-9.9h-9V161.2z"/>
	<path fill="#646464" d="M712.7,184.3h-11.4c-0.7,0-1.2-0.6-1.2-1.2v-12.4c0-0.7,0.6-1.2,1.2-1.2h11.4c0.7,0,1.2,0.6,1.2,1.2v12.4
		C714,183.7,713.4,184.3,712.7,184.3z M702.5,181.8h9v-9.9h-9V181.8z"/>
	<path fill="#646464" d="M712.7,204.9h-11.4c-0.7,0-1.2-0.6-1.2-1.2v-12.4c0-0.7,0.6-1.2,1.2-1.2h11.4c0.7,0,1.2,0.6,1.2,1.2v12.4
		C714,204.4,713.4,204.9,712.7,204.9z M702.5,202.5h9v-9.9h-9V202.5z"/>
	<path fill="#646464" d="M712.7,225.6h-11.4c-0.7,0-1.2-0.6-1.2-1.2v-12.4c0-0.7,0.6-1.2,1.2-1.2h11.4c0.7,0,1.2,0.6,1.2,1.2v12.4
		C714,225,713.4,225.6,712.7,225.6z M702.5,223.1h9v-9.9h-9V223.1z"/>
</g>
<g>
	<g>
		<path fill="#646464" d="M685.1,143h-11.4c-0.7,0-1.2-0.6-1.2-1.2v-12.4c0-0.7,0.6-1.2,1.2-1.2h11.4c0.7,0,1.2,0.6,1.2,1.2v12.4
			C686.3,142.4,685.7,143,685.1,143z M674.9,140.5h9v-9.9h-9V140.5z"/>
	</g>
	<g>
		<path fill="#646464" d="M685.1,163.6h-11.4c-0.7,0-1.2-0.6-1.2-1.2V150c0-0.7,0.6-1.2,1.2-1.2h11.4c0.7,0,1.2,0.6,1.2,1.2v12.4
			C686.3,163.1,685.7,163.6,685.1,163.6z M674.9,161.2h9v-9.9h-9V161.2z"/>
	</g>
	<g>
		<path fill="#646464" d="M685.1,184.3h-11.4c-0.7,0-1.2-0.6-1.2-1.2v-12.4c0-0.7,0.6-1.2,1.2-1.2h11.4c0.7,0,1.2,0.6,1.2,1.2v12.4
			C686.3,183.7,685.7,184.3,685.1,184.3z M674.9,181.8h9v-9.9h-9V181.8z"/>
	</g>
	<g>
		<path fill="#646464" d="M685.1,204.9h-11.4c-0.7,0-1.2-0.6-1.2-1.2v-12.4c0-0.7,0.6-1.2,1.2-1.2h11.4c0.7,0,1.2,0.6,1.2,1.2v12.4
			C686.3,204.4,685.7,204.9,685.1,204.9z M674.9,202.5h9v-9.9h-9V202.5z"/>
	</g>
	<g>
		<path fill="#646464" d="M685.1,225.6h-11.4c-0.7,0-1.2-0.6-1.2-1.2v-12.4c0-0.7,0.6-1.2,1.2-1.2h11.4c0.7,0,1.2,0.6,1.2,1.2v12.4
			C686.3,225,685.7,225.6,685.1,225.6z M674.9,223.1h9v-9.9h-9V223.1z"/>
	</g>
</g>
<g>
	<g>
		<path fill="#646464" d="M665.1,143h-11.4c-0.7,0-1.2-0.6-1.2-1.2v-12.4c0-0.7,0.6-1.2,1.2-1.2h11.4c0.7,0,1.2,0.6,1.2,1.2v12.4
			C666.4,142.4,665.8,143,665.1,143z M654.9,140.5h9v-9.9h-9V140.5z"/>
	</g>
	<g>
		<path fill="#646464" d="M665.1,163.6h-11.4c-0.7,0-1.2-0.6-1.2-1.2V150c0-0.7,0.6-1.2,1.2-1.2h11.4c0.7,0,1.2,0.6,1.2,1.2v12.4
			C666.4,163.1,665.8,163.6,665.1,163.6z M654.9,161.2h9v-9.9h-9V161.2z"/>
	</g>
	<g>
		<path fill="#646464" d="M665.1,184.3h-11.4c-0.7,0-1.2-0.6-1.2-1.2v-12.4c0-0.7,0.6-1.2,1.2-1.2h11.4c0.7,0,1.2,0.6,1.2,1.2v12.4
			C666.4,183.7,665.8,184.3,665.1,184.3z M654.9,181.8h9v-9.9h-9V181.8z"/>
	</g>
	<g>
		<path fill="#646464" d="M665.1,204.9h-11.4c-0.7,0-1.2-0.6-1.2-1.2v-12.4c0-0.7,0.6-1.2,1.2-1.2h11.4c0.7,0,1.2,0.6,1.2,1.2v12.4
			C666.4,204.4,665.8,204.9,665.1,204.9z M654.9,202.5h9v-9.9h-9V202.5z"/>
	</g>
	<g>
		<path fill="#646464" d="M665.1,225.6h-11.4c-0.7,0-1.2-0.6-1.2-1.2v-12.4c0-0.7,0.6-1.2,1.2-1.2h11.4c0.7,0,1.2,0.6,1.2,1.2v12.4
			C666.4,225,665.8,225.6,665.1,225.6z M654.9,223.1h9v-9.9h-9V223.1z"/>
	</g>
</g>
<g>
	<polygon fill="#FFFFFF" points="619.7,235.5 619.7,196.7 646.7,208.2 646.7,235.5 	"/>
	<path fill="#646464" d="M646.7,236.4h-27c-0.5,0-0.9-0.4-0.9-0.9v-38.8c0-0.3,0.1-0.6,0.4-0.7c0.2-0.2,0.6-0.2,0.8-0.1l27,11.5
		c0.3,0.1,0.5,0.5,0.5,0.8v27.3C647.5,236,647.1,236.4,646.7,236.4z M620.6,234.6h25.2v-25.8l-25.2-10.7V234.6z"/>
</g>
<g>
	<polygon fill="#C8C8C8" points="606.7,186.2 623.8,208.1 649.7,208.1 632.6,186.2 	"/>
	<path fill="#646464" d="M649.7,209h-25.9c-0.3,0-0.5-0.1-0.7-0.3l-17.1-22c-0.2-0.3-0.2-0.6-0.1-0.9c0.1-0.3,0.5-0.5,0.8-0.5h25.9
		c0.3,0,0.5,0.1,0.7,0.3l17.1,22c0.2,0.3,0.2,0.6,0.1,0.9C650.4,208.8,650.1,209,649.7,209z M624.2,207.3h23.7L632.2,187h-23.7
		L624.2,207.3z"/>
</g>
<g>
	<polygon fill="#FFFFFF" points="620.7,204.4 620.7,235.5 593.2,235.5 593.2,203.9 606.7,186.2 	"/>
	<path fill="#646464" d="M620.7,236.4h-27.5c-0.5,0-0.9-0.4-0.9-0.9v-31.6c0-0.2,0.1-0.4,0.2-0.5l13.5-17.7c0.2-0.2,0.4-0.3,0.7-0.3
		h0c0.3,0,0.5,0.1,0.7,0.3l14,18.2c0.1,0.2,0.2,0.3,0.2,0.5v31.1C621.5,236,621.2,236.4,620.7,236.4z M594,234.6h25.7v-30
		l-13.1-17.1L594,204.2V234.6z"/>
</g>
<path fill="#646464" d="M589.6,209c-0.2,0-0.4-0.1-0.5-0.2c-0.4-0.3-0.5-0.9-0.2-1.2l17.1-22c0.2-0.2,0.4-0.3,0.7-0.3
	s0.5,0.1,0.7,0.3l16.8,21.6h25.5c0.5,0,0.9,0.4,0.9,0.9c0,0.5-0.4,0.9-0.9,0.9h-25.9c-0.3,0-0.5-0.1-0.7-0.3l-16.4-21.1l-16.4,21.1
	C590.1,208.9,589.9,209,589.6,209z"/>
<g>
	<rect x="601.8" y="213.1" fill="#FFFFFF" width="11.3" height="22.4"/>
	<path fill="#646464" d="M613.1,236.4h-11.3c-0.5,0-0.9-0.4-0.9-0.9v-22.4c0-0.5,0.4-0.9,0.9-0.9h11.3c0.5,0,0.9,0.4,0.9,0.9v22.4
		C614,236,613.6,236.4,613.1,236.4z M602.7,234.6h9.5V214h-9.5V234.6z"/>
</g>
<g>
	<g>
		<path fill="#646464" d="M639.5,228.6h-6c-0.5,0-0.9-0.4-0.9-0.9v-13.4c0-0.5,0.4-0.9,0.9-0.9h6c0.5,0,0.9,0.4,0.9,0.9v13.4
			C640.4,228.2,640,228.6,639.5,228.6z M634.4,226.8h4.3v-11.7h-4.3V226.8z"/>
		<path fill="#646464" d="M633.5,228.6h-6.1c-0.5,0-0.9-0.4-0.9-0.9v-13.4c0-0.5,0.4-0.9,0.9-0.9h6.1c0.5,0,0.9,0.4,0.9,0.9v13.4
			C634.4,228.2,634,228.6,633.5,228.6z M628.3,226.8h4.4v-11.7h-4.4V226.8z"/>
	</g>
	<path fill="#646464" d="M640.6,228.6h-14.3c-0.5,0-0.9-0.4-0.9-0.9s0.4-0.9,0.9-0.9h14.3c0.5,0,0.9,0.4,0.9,0.9
		S641.1,228.6,640.6,228.6z"/>
</g>
<path fill="#FFFFFF" d="M34.1,192c-0.4,0-0.7-0.3-0.7-0.7v-0.8h-0.8c-0.4,0-0.7-0.3-0.7-0.7c0-0.4,0.3-0.7,0.7-0.7h0.8v-0.8
	c0-0.4,0.3-0.7,0.7-0.7c0.4,0,0.7,0.3,0.7,0.7v0.8h0.8c0.4,0,0.7,0.3,0.7,0.7c0,0.4-0.3,0.7-0.7,0.7h-0.8v0.8
	C34.8,191.7,34.5,192,34.1,192z"/>
<g>
	<polygon fill="#FFFFFF" points="46.8,235.5 46.8,196.7 73.8,208.2 73.8,235.5 	"/>
	<path fill="#646464" d="M73.8,236.4h-27c-0.5,0-0.9-0.4-0.9-0.9v-38.8c0-0.3,0.1-0.6,0.4-0.7c0.2-0.2,0.6-0.2,0.8-0.1l27,11.5
		c0.3,0.1,0.5,0.5,0.5,0.8v27.3C74.6,236,74.2,236.4,73.8,236.4z M47.7,234.6h25.2v-25.8l-25.2-10.7V234.6z"/>
</g>
<g>
	<polygon fill="#C8C8C8" points="33.8,186.2 50.9,208.1 76.8,208.1 59.7,186.2 	"/>
	<path fill="#646464" d="M76.8,209H50.9c-0.3,0-0.5-0.1-0.7-0.3l-17.1-22c-0.2-0.3-0.2-0.6-0.1-0.9c0.1-0.3,0.5-0.5,0.8-0.5h25.9
		c0.3,0,0.5,0.1,0.7,0.3l17.1,22c0.2,0.3,0.2,0.6,0.1,0.9C77.5,208.8,77.1,209,76.8,209z M51.3,207.3H75L59.3,187H35.6L51.3,207.3z"
		/>
</g>
<g>
	<polygon fill="#FFFFFF" points="47.8,204.4 47.8,235.5 20.3,235.5 20.3,203.9 33.8,186.2 	"/>
	<path fill="#646464" d="M47.8,236.4H20.3c-0.5,0-0.9-0.4-0.9-0.9v-31.6c0-0.2,0.1-0.4,0.2-0.5l13.5-17.7c0.2-0.2,0.4-0.3,0.7-0.3h0
		c0.3,0,0.5,0.1,0.7,0.3l14,18.2c0.1,0.2,0.2,0.3,0.2,0.5v31.1C48.6,236,48.3,236.4,47.8,236.4z M21.1,234.6h25.7v-30l-13.1-17.1
		l-12.7,16.6V234.6z"/>
</g>
<path fill="#646464" d="M16.7,209c-0.2,0-0.4-0.1-0.5-0.2c-0.4-0.3-0.5-0.9-0.2-1.2l17.1-22c0.2-0.2,0.4-0.3,0.7-0.3
	s0.5,0.1,0.7,0.3l16.8,21.6h25.5c0.5,0,0.9,0.4,0.9,0.9c0,0.5-0.4,0.9-0.9,0.9H50.9c-0.3,0-0.5-0.1-0.7-0.3l-16.4-21.1l-16.4,21.1
	C17.2,208.9,17,209,16.7,209z"/>
<g>
	<rect x="28.9" y="213.1" fill="#FFFFFF" width="11.3" height="22.4"/>
	<path fill="#646464" d="M40.2,236.4H28.9c-0.5,0-0.9-0.4-0.9-0.9v-22.4c0-0.5,0.4-0.9,0.9-0.9h11.3c0.5,0,0.9,0.4,0.9,0.9v22.4
		C41.1,236,40.7,236.4,40.2,236.4z M29.8,234.6h9.5V214h-9.5V234.6z"/>
</g>
<g>
	<g>
		<path fill="#646464" d="M66.6,228.6h-6c-0.5,0-0.9-0.4-0.9-0.9v-13.4c0-0.5,0.4-0.9,0.9-0.9h6c0.5,0,0.9,0.4,0.9,0.9v13.4
			C67.5,228.2,67.1,228.6,66.6,228.6z M61.5,226.8h4.3v-11.7h-4.3V226.8z"/>
		<path fill="#646464" d="M60.6,228.6h-6.1c-0.5,0-0.9-0.4-0.9-0.9v-13.4c0-0.5,0.4-0.9,0.9-0.9h6.1c0.5,0,0.9,0.4,0.9,0.9v13.4
			C61.5,228.2,61.1,228.6,60.6,228.6z M55.4,226.8h4.4v-11.7h-4.4V226.8z"/>
	</g>
	<path fill="#646464" d="M67.7,228.6H53.4c-0.5,0-0.9-0.4-0.9-0.9s0.4-0.9,0.9-0.9h14.3c0.5,0,0.9,0.4,0.9,0.9
		S68.2,228.6,67.7,228.6z"/>
</g>
<path fill="#FFFFFF" d="M492.3,192c-0.4,0-0.7-0.3-0.7-0.7v-0.8h-0.8c-0.4,0-0.7-0.3-0.7-0.7c0-0.4,0.3-0.7,0.7-0.7h0.8v-0.8
	c0-0.4,0.3-0.7,0.7-0.7c0.4,0,0.7,0.3,0.7,0.7v0.8h0.8c0.4,0,0.7,0.3,0.7,0.7c0,0.4-0.3,0.7-0.7,0.7h-0.8v0.8
	C492.9,191.7,492.6,192,492.3,192z"/>
<g>
	<polygon fill="#FFFFFF" points="504.9,235.5 504.9,196.7 531.9,208.2 531.9,235.5 	"/>
	<path fill="#646464" d="M531.9,236.4h-27c-0.5,0-0.9-0.4-0.9-0.9v-38.8c0-0.3,0.1-0.6,0.4-0.7c0.2-0.2,0.6-0.2,0.8-0.1l27,11.5
		c0.3,0.1,0.5,0.5,0.5,0.8v27.3C532.8,236,532.4,236.4,531.9,236.4z M505.8,234.6H531v-25.8l-25.2-10.7V234.6z"/>
</g>
<g>
	<polygon fill="#C8C8C8" points="491.9,186.2 509,208.1 535,208.1 517.9,186.2 	"/>
	<path fill="#646464" d="M535,209H509c-0.3,0-0.5-0.1-0.7-0.3l-17.1-22c-0.2-0.3-0.2-0.6-0.1-0.9c0.1-0.3,0.5-0.5,0.8-0.5h25.9
		c0.3,0,0.5,0.1,0.7,0.3l17.1,22c0.2,0.3,0.2,0.6,0.1,0.9C535.6,208.8,535.3,209,535,209z M509.5,207.3h23.7L517.4,187h-23.7
		L509.5,207.3z"/>
</g>
<g>
	<polygon fill="#FFFFFF" points="505.9,204.4 505.9,235.5 478.4,235.5 478.4,203.9 491.9,186.2 	"/>
	<path fill="#646464" d="M505.9,236.4h-27.5c-0.5,0-0.9-0.4-0.9-0.9v-31.6c0-0.2,0.1-0.4,0.2-0.5l13.5-17.7c0.2-0.2,0.4-0.3,0.7-0.3
		h0c0.3,0,0.5,0.1,0.7,0.3l14,18.2c0.1,0.2,0.2,0.3,0.2,0.5v31.1C506.8,236,506.4,236.4,505.9,236.4z M479.3,234.6H505v-30
		l-13.1-17.1l-12.7,16.6V234.6z"/>
</g>
<path fill="#646464" d="M474.8,209c-0.2,0-0.4-0.1-0.5-0.2c-0.4-0.3-0.5-0.9-0.2-1.2l17.1-22c0.2-0.2,0.4-0.3,0.7-0.3
	c0.3,0,0.5,0.1,0.7,0.3l16.8,21.6H535c0.5,0,0.9,0.4,0.9,0.9c0,0.5-0.4,0.9-0.9,0.9H509c-0.3,0-0.5-0.1-0.7-0.3l-16.4-21.1
	l-16.4,21.1C475.4,208.9,475.1,209,474.8,209z"/>
<g>
	<rect x="487.1" y="213.1" fill="#FFFFFF" width="11.3" height="22.4"/>
	<path fill="#646464" d="M498.4,236.4h-11.3c-0.5,0-0.9-0.4-0.9-0.9v-22.4c0-0.5,0.4-0.9,0.9-0.9h11.3c0.5,0,0.9,0.4,0.9,0.9v22.4
		C499.3,236,498.9,236.4,498.4,236.4z M488,234.6h9.5V214H488V234.6z"/>
</g>
<g>
	<g>
		<path fill="#646464" d="M524.8,228.6h-6c-0.5,0-0.9-0.4-0.9-0.9v-13.4c0-0.5,0.4-0.9,0.9-0.9h6c0.5,0,0.9,0.4,0.9,0.9v13.4
			C525.7,228.2,525.3,228.6,524.8,228.6z M519.6,226.8h4.3v-11.7h-4.3V226.8z"/>
		<path fill="#646464" d="M518.8,228.6h-6.1c-0.5,0-0.9-0.4-0.9-0.9v-13.4c0-0.5,0.4-0.9,0.9-0.9h6.1c0.5,0,0.9,0.4,0.9,0.9v13.4
			C519.6,228.2,519.2,228.6,518.8,228.6z M513.5,226.8h4.4v-11.7h-4.4V226.8z"/>
	</g>
	<path fill="#646464" d="M525.9,228.6h-14.3c-0.5,0-0.9-0.4-0.9-0.9s0.4-0.9,0.9-0.9h14.3c0.5,0,0.9,0.4,0.9,0.9
		S526.3,228.6,525.9,228.6z"/>
</g>
<path fill="#FFFFFF" d="M183,192c0.4,0,0.7-0.3,0.7-0.7v-0.8h0.8c0.4,0,0.7-0.3,0.7-0.7c0-0.4-0.3-0.7-0.7-0.7h-0.8v-0.8
	c0-0.4-0.3-0.7-0.7-0.7c-0.4,0-0.7,0.3-0.7,0.7v0.8h-0.8c-0.4,0-0.7,0.3-0.7,0.7c0,0.4,0.3,0.7,0.7,0.7h0.8v0.8
	C182.3,191.7,182.6,192,183,192z"/>
<g opacity="0.15">
	<path fill="#646464" d="M153.4,64.3h16.9c0.8,0,1.4-0.6,1.4-1.4c0-0.8-0.6-1.4-1.4-1.4h-16.9c-0.8,0-1.4,0.6-1.4,1.4
		C152,63.7,152.6,64.3,153.4,64.3z"/>
	<path fill="#646464" d="M137.9,64.3h8c0.8,0,1.4-0.6,1.4-1.4c0-0.8-0.6-1.4-1.4-1.4h-8c-0.8,0-1.4,0.6-1.4,1.4
		C136.5,63.7,137.1,64.3,137.9,64.3z"/>
	<path fill="#646464" d="M143.1,70.5h17.8c0.8,0,1.4-0.6,1.4-1.4c0-0.8-0.6-1.4-1.4-1.4h-17.8c-0.8,0-1.4,0.6-1.4,1.4
		C141.7,69.9,142.3,70.5,143.1,70.5z"/>
</g>
<g opacity="0.15">
	<path fill="#646464" d="M84.1,47.2h31.1c0.8,0,1.4-0.6,1.4-1.4c0-0.8-0.6-1.4-1.4-1.4H84.1c-0.8,0-1.4,0.6-1.4,1.4
		C82.7,46.6,83.3,47.2,84.1,47.2z"/>
	<path fill="#646464" d="M92.7,54h17.8c0.8,0,1.4-0.6,1.4-1.4c0-0.8-0.6-1.4-1.4-1.4H92.7c-0.8,0-1.4,0.6-1.4,1.4
		C91.3,53.4,91.9,54,92.7,54z"/>
	<g>
		<path fill="#646464" d="M87.7,40.4h9.2c0.8,0,1.4-0.6,1.4-1.4c0-0.8-0.6-1.4-1.4-1.4h-9.2c-0.8,0-1.4,0.6-1.4,1.4
			C86.3,39.8,86.9,40.4,87.7,40.4z"/>
		<path fill="#646464" d="M104.3,40.4h4.7c0.8,0,1.4-0.6,1.4-1.4c0-0.8-0.6-1.4-1.4-1.4h-4.7c-0.8,0-1.4,0.6-1.4,1.4
			C102.8,39.8,103.5,40.4,104.3,40.4z"/>
	</g>
</g>
<g>
	<polygon fill="#FFFFFF" points="170.3,235.5 170.3,196.7 143.4,208.2 143.4,235.5 	"/>
	<path fill="#646464" d="M142.5,235.5v-27.3c0-0.4,0.2-0.7,0.5-0.8l27-11.5c0.3-0.1,0.6-0.1,0.8,0.1c0.2,0.2,0.4,0.4,0.4,0.7v38.8
		c0,0.5-0.4,0.9-0.9,0.9h-27C142.9,236.4,142.5,236,142.5,235.5z M169.4,198.1l-25.2,10.7v25.8h25.2V198.1z"/>
</g>
<g>
	<polygon fill="#C8C8C8" points="183.3,186.2 166.2,208.1 140.3,208.1 157.4,186.2 	"/>
	<path fill="#646464" d="M139.5,208.5c-0.1-0.3-0.1-0.7,0.1-0.9l17.1-22c0.2-0.2,0.4-0.3,0.7-0.3h25.9c0.3,0,0.6,0.2,0.8,0.5
		c0.1,0.3,0.1,0.7-0.1,0.9l-17.1,22c-0.2,0.2-0.4,0.3-0.7,0.3h-25.9C140,209,139.7,208.8,139.5,208.5z M181.5,187h-23.7l-15.7,20.2
		h23.7L181.5,187z"/>
</g>
<g>
	<polygon fill="#FFFFFF" points="169.3,204.4 169.3,235.5 196.9,235.5 196.9,203.9 183.3,186.2 	"/>
	<path fill="#646464" d="M168.5,235.5v-31.1c0-0.2,0.1-0.4,0.2-0.5l14-18.2c0.2-0.2,0.4-0.3,0.7-0.3c0,0,0,0,0,0
		c0.3,0,0.5,0.1,0.7,0.3l13.5,17.7c0.1,0.2,0.2,0.3,0.2,0.5v31.6c0,0.5-0.4,0.9-0.9,0.9h-27.5C168.9,236.4,168.5,236,168.5,235.5z
		 M196,204.2l-12.7-16.6l-13.1,17.1v30H196V204.2z"/>
</g>
<path fill="#646464" d="M200.4,209c0.2,0,0.4-0.1,0.5-0.2c0.4-0.3,0.5-0.9,0.2-1.2l-17.1-22c-0.2-0.2-0.4-0.3-0.7-0.3
	c-0.3,0-0.5,0.1-0.7,0.3l-16.8,21.6h-25.5c-0.5,0-0.9,0.4-0.9,0.9c0,0.5,0.4,0.9,0.9,0.9h25.9c0.3,0,0.5-0.1,0.7-0.3l16.4-21.1
	l16.4,21.1C199.9,208.9,200.2,209,200.4,209z"/>
<g>
	<rect x="176.9" y="213.1" fill="#FFFFFF" width="11.3" height="22.4"/>
	<path fill="#646464" d="M176,235.5v-22.4c0-0.5,0.4-0.9,0.9-0.9h11.3c0.5,0,0.9,0.4,0.9,0.9v22.4c0,0.5-0.4,0.9-0.9,0.9h-11.3
		C176.4,236.4,176,236,176,235.5z M187.3,214h-9.5v20.7h9.5V214z"/>
</g>
<g>
	<g>
		<path fill="#646464" d="M149.6,227.7v-13.4c0-0.5,0.4-0.9,0.9-0.9h6c0.5,0,0.9,0.4,0.9,0.9v13.4c0,0.5-0.4,0.9-0.9,0.9h-6
			C150,228.6,149.6,228.2,149.6,227.7z M155.6,215.1h-4.3v11.7h4.3V215.1z"/>
		<path fill="#646464" d="M155.6,227.7v-13.4c0-0.5,0.4-0.9,0.9-0.9h6.1c0.5,0,0.9,0.4,0.9,0.9v13.4c0,0.5-0.4,0.9-0.9,0.9h-6.1
			C156,228.6,155.6,228.2,155.6,227.7z M161.7,215.1h-4.4v11.7h4.4V215.1z"/>
	</g>
	<path fill="#646464" d="M149.4,228.6h14.3c0.5,0,0.9-0.4,0.9-0.9s-0.4-0.9-0.9-0.9h-14.3c-0.5,0-0.9,0.4-0.9,0.9
		S148.9,228.6,149.4,228.6z"/>
</g>
<path fill="#FFFFFF" d="M306,192c0.4,0,0.7-0.3,0.7-0.7v-0.8h0.8c0.4,0,0.7-0.3,0.7-0.7c0-0.4-0.3-0.7-0.7-0.7h-0.8v-0.8
	c0-0.4-0.3-0.7-0.7-0.7c-0.4,0-0.7,0.3-0.7,0.7v0.8h-0.8c-0.4,0-0.7,0.3-0.7,0.7c0,0.4,0.3,0.7,0.7,0.7h0.8v0.8
	C305.4,191.7,305.7,192,306,192z"/>
<g>
	<polygon fill="#FFFFFF" points="293.4,235.5 293.4,196.7 266.4,208.2 266.4,235.5 	"/>
	<path fill="#646464" d="M265.5,235.5v-27.3c0-0.4,0.2-0.7,0.5-0.8l27-11.5c0.3-0.1,0.6-0.1,0.8,0.1c0.2,0.2,0.4,0.4,0.4,0.7v38.8
		c0,0.5-0.4,0.9-0.9,0.9h-27C265.9,236.4,265.5,236,265.5,235.5z M292.5,198.1l-25.2,10.7v25.8h25.2V198.1z"/>
</g>
<g>
	<polygon fill="#C8C8C8" points="306.4,186.2 289.3,208.1 263.4,208.1 280.4,186.2 	"/>
	<path fill="#646464" d="M262.6,208.5c-0.1-0.3-0.1-0.7,0.1-0.9l17.1-22c0.2-0.2,0.4-0.3,0.7-0.3h25.9c0.3,0,0.6,0.2,0.8,0.5
		c0.1,0.3,0.1,0.7-0.1,0.9l-17.1,22c-0.2,0.2-0.4,0.3-0.7,0.3h-25.9C263,209,262.7,208.8,262.6,208.5z M304.6,187h-23.7l-15.7,20.2
		h23.7L304.6,187z"/>
</g>
<g>
	<polygon fill="#FFFFFF" points="292.4,204.4 292.4,235.5 319.9,235.5 319.9,203.9 306.4,186.2 	"/>
	<path fill="#646464" d="M291.5,235.5v-31.1c0-0.2,0.1-0.4,0.2-0.5l14-18.2c0.2-0.2,0.4-0.3,0.7-0.3c0,0,0,0,0,0
		c0.3,0,0.5,0.1,0.7,0.3l13.5,17.7c0.1,0.2,0.2,0.3,0.2,0.5v31.6c0,0.5-0.4,0.9-0.9,0.9h-27.5C291.9,236.4,291.5,236,291.5,235.5z
		 M319,204.2l-12.7-16.6l-13.1,17.1v30H319V204.2z"/>
</g>
<path fill="#646464" d="M323.5,209c0.2,0,0.4-0.1,0.5-0.2c0.4-0.3,0.5-0.9,0.2-1.2l-17.1-22c-0.2-0.2-0.4-0.3-0.7-0.3
	c-0.3,0-0.5,0.1-0.7,0.3l-16.8,21.6h-25.5c-0.5,0-0.9,0.4-0.9,0.9c0,0.5,0.4,0.9,0.9,0.9h25.9c0.3,0,0.5-0.1,0.7-0.3l16.4-21.1
	l16.4,21.1C322.9,208.9,323.2,209,323.5,209z"/>
<g>
	<rect x="299.9" y="213.1" fill="#FFFFFF" width="11.3" height="22.4"/>
	<path fill="#646464" d="M299,235.5v-22.4c0-0.5,0.4-0.9,0.9-0.9h11.3c0.5,0,0.9,0.4,0.9,0.9v22.4c0,0.5-0.4,0.9-0.9,0.9h-11.3
		C299.4,236.4,299,236,299,235.5z M310.3,214h-9.5v20.7h9.5V214z"/>
</g>
<g>
	<g>
		<path fill="#646464" d="M272.7,227.7v-13.4c0-0.5,0.4-0.9,0.9-0.9h6c0.5,0,0.9,0.4,0.9,0.9v13.4c0,0.5-0.4,0.9-0.9,0.9h-6
			C273,228.6,272.7,228.2,272.7,227.7z M278.7,215.1h-4.3v11.7h4.3V215.1z"/>
		<path fill="#646464" d="M278.7,227.7v-13.4c0-0.5,0.4-0.9,0.9-0.9h6.1c0.5,0,0.9,0.4,0.9,0.9v13.4c0,0.5-0.4,0.9-0.9,0.9h-6.1
			C279.1,228.6,278.7,228.2,278.7,227.7z M284.8,215.1h-4.4v11.7h4.4V215.1z"/>
	</g>
	<path fill="#646464" d="M272.5,228.6h14.3c0.5,0,0.9-0.4,0.9-0.9s-0.4-0.9-0.9-0.9h-14.3c-0.5,0-0.9,0.4-0.9,0.9
		S272,228.6,272.5,228.6z"/>
</g>
<g>
	<path fill="#646464" d="M136.7,236.4H85.9v-145h50.8V236.4z M88.7,233.8h45.1V94.1H88.7V233.8z"/>
</g>
<g>
	<rect x="104.4" y="128.8" opacity="0.21" fill="#646464" width="22.8" height="7.4"/>
	<path opacity="0.21" fill="#646464" d="M128.6,137.5H103v-10h25.7V137.5z M105.8,134.9h20v-4.8h-20V134.9z"/>
</g>
<g>
	<rect x="104.4" y="102.8" opacity="0.21" fill="#646464" width="22.8" height="7.4"/>
	<path opacity="0.21" fill="#646464" d="M128.6,111.5H103v-10h25.7V111.5z M105.8,108.9h20v-4.8h-20V108.9z"/>
</g>
<g>
	<rect x="104.4" y="154.8" opacity="0.21" fill="#646464" width="22.8" height="7.4"/>
	<path opacity="0.21" fill="#646464" d="M128.6,163.5H103v-10h25.7V163.5z M105.8,160.9h20v-4.8h-20V160.9z"/>
</g>
<g>
	<rect x="104.4" y="180.8" opacity="0.21" fill="#646464" width="22.8" height="7.4"/>
	<path opacity="0.21" fill="#646464" d="M128.6,189.5H103v-10h25.7V189.5z M105.8,186.9h20v-4.8h-20V186.9z"/>
</g>
<g>
	<rect x="104.4" y="206.8" opacity="0.21" fill="#646464" width="22.8" height="7.4"/>
	<path opacity="0.21" fill="#646464" d="M128.6,215.5H103v-10h25.7V215.5z M105.8,212.9h20v-4.8h-20V212.9z"/>
</g>
<g>
	<path fill="#646464" d="M130,121.9H91.4v-13H130V121.9z M94.3,119.3h32.9v-7.8H94.3V119.3z"/>
</g>
<g>
	<path fill="#646464" d="M123.6,111.5H97.9v-10h25.7V111.5z M100.8,108.9h20v-4.8h-20V108.9z"/>
</g>
<g>
	<rect x="99.2" y="109.8" fill="#646464" width="2.9" height="10.8"/>
</g>
<g>
	<rect x="105.8" y="109.8" fill="#646464" width="2.9" height="10.8"/>
</g>
<g>
	<rect x="112.5" y="109.8" fill="#646464" width="2.9" height="10.8"/>
</g>
<g>
	<rect x="119.1" y="109.8" fill="#646464" width="2.9" height="10.8"/>
</g>
<g>
	<path fill="#646464" d="M130,147.9H91.4v-13H130V147.9z M94.3,145.3h32.9v-7.8H94.3V145.3z"/>
</g>
<g>
	<path fill="#646464" d="M123.6,137.5H97.9v-10h25.7V137.5z M100.8,134.9h20v-4.8h-20V134.9z"/>
</g>
<g>
	<rect x="99.2" y="135.8" fill="#646464" width="2.9" height="10.8"/>
</g>
<g>
	<rect x="105.8" y="135.8" fill="#646464" width="2.9" height="10.8"/>
</g>
<g>
	<rect x="112.5" y="135.8" fill="#646464" width="2.9" height="10.8"/>
</g>
<g>
	<rect x="119.1" y="135.8" fill="#646464" width="2.9" height="10.8"/>
</g>
<g>
	<path fill="#646464" d="M130,173.9H91.4v-13H130V173.9z M94.3,171.3h32.9v-7.8H94.3V171.3z"/>
</g>
<g>
	<path fill="#646464" d="M123.6,163.5H97.9v-10h25.7V163.5z M100.8,160.9h20v-4.8h-20V160.9z"/>
</g>
<g>
	<rect x="99.2" y="161.8" fill="#646464" width="2.9" height="10.8"/>
</g>
<g>
	<rect x="105.8" y="161.8" fill="#646464" width="2.9" height="10.8"/>
</g>
<g>
	<rect x="112.5" y="161.8" fill="#646464" width="2.9" height="10.8"/>
</g>
<g>
	<rect x="119.1" y="161.8" fill="#646464" width="2.9" height="10.8"/>
</g>
<g>
	<path fill="#646464" d="M130,199.9H91.4v-13H130V199.9z M94.3,197.3h32.9v-7.8H94.3V197.3z"/>
</g>
<g>
	<path fill="#646464" d="M123.6,189.5H97.9v-10h25.7V189.5z M100.8,186.9h20v-4.8h-20V186.9z"/>
</g>
<g>
	<rect x="99.2" y="187.8" fill="#646464" width="2.9" height="10.8"/>
</g>
<g>
	<rect x="105.8" y="187.8" fill="#646464" width="2.9" height="10.8"/>
</g>
<g>
	<rect x="112.5" y="187.8" fill="#646464" width="2.9" height="10.8"/>
</g>
<g>
	<rect x="119.1" y="187.8" fill="#646464" width="2.9" height="10.8"/>
</g>
<g>
	<path fill="#646464" d="M130,225.9H91.4v-13H130V225.9z M94.3,223.3h32.9v-7.8H94.3V223.3z"/>
</g>
<g>
	<path fill="#646464" d="M123.6,215.5H97.9v-10h25.7V215.5z M100.8,212.9h20v-4.8h-20V212.9z"/>
</g>
<g>
	<rect x="99.2" y="213.8" fill="#646464" width="2.9" height="10.8"/>
</g>
<g>
	<rect x="105.8" y="213.8" fill="#646464" width="2.9" height="10.8"/>
</g>
<g>
	<rect x="112.5" y="213.8" fill="#646464" width="2.9" height="10.8"/>
</g>
<g>
	<rect x="119.1" y="213.8" fill="#646464" width="2.9" height="10.8"/>
</g>
<path fill="#FFFFFF" d="M749,192c-0.4,0-0.7-0.3-0.7-0.7v-0.8h-0.8c-0.4,0-0.7-0.3-0.7-0.7c0-0.4,0.3-0.7,0.7-0.7h0.8v-0.8
	c0-0.4,0.3-0.7,0.7-0.7s0.7,0.3,0.7,0.7v0.8h0.8c0.4,0,0.7,0.3,0.7,0.7c0,0.4-0.3,0.7-0.7,0.7h-0.8v0.8
	C749.6,191.7,749.3,192,749,192z"/>
<g>
	<polygon fill="#FFFFFF" points="761.6,235.5 761.6,196.7 788.6,208.2 788.6,235.5 	"/>
	<path fill="#646464" d="M788.6,236.4h-27c-0.5,0-0.9-0.4-0.9-0.9v-38.8c0-0.3,0.1-0.6,0.4-0.7c0.2-0.2,0.6-0.2,0.8-0.1l27,11.5
		c0.3,0.1,0.5,0.5,0.5,0.8v27.3C789.5,236,789.1,236.4,788.6,236.4z M762.5,234.6h25.2v-25.8l-25.2-10.7V234.6z"/>
</g>
<g>
	<polygon fill="#C8C8C8" points="748.6,186.2 765.7,208.1 791.6,208.1 774.5,186.2 	"/>
	<path fill="#646464" d="M791.6,209h-25.9c-0.3,0-0.5-0.1-0.7-0.3l-17.1-22c-0.2-0.3-0.2-0.6-0.1-0.9c0.1-0.3,0.5-0.5,0.8-0.5h25.9
		c0.3,0,0.5,0.1,0.7,0.3l17.1,22c0.2,0.3,0.2,0.6,0.1,0.9C792.3,208.8,792,209,791.6,209z M766.1,207.3h23.7L774.1,187h-23.7
		L766.1,207.3z"/>
</g>
<g>
	<polygon fill="#FFFFFF" points="762.6,204.4 762.6,235.5 735.1,235.5 735.1,203.9 748.6,186.2 	"/>
	<path fill="#646464" d="M762.6,236.4h-27.5c-0.5,0-0.9-0.4-0.9-0.9v-31.6c0-0.2,0.1-0.4,0.2-0.5l13.5-17.7c0.2-0.2,0.4-0.3,0.7-0.3
		h0c0.3,0,0.5,0.1,0.7,0.3l14,18.2c0.1,0.2,0.2,0.3,0.2,0.5v31.1C763.5,236,763.1,236.4,762.6,236.4z M736,234.6h25.7v-30
		l-13.1-17.1L736,204.2V234.6z"/>
</g>
<path fill="#646464" d="M731.5,209c-0.2,0-0.4-0.1-0.5-0.2c-0.4-0.3-0.5-0.9-0.2-1.2l17.1-22c0.2-0.2,0.4-0.3,0.7-0.3
	s0.5,0.1,0.7,0.3l16.8,21.6h25.5c0.5,0,0.9,0.4,0.9,0.9c0,0.5-0.4,0.9-0.9,0.9h-25.9c-0.3,0-0.5-0.1-0.7-0.3l-16.4-21.1l-16.4,21.1
	C732,208.9,731.8,209,731.5,209z"/>
<g>
	<rect x="743.8" y="213.1" fill="#FFFFFF" width="11.3" height="22.4"/>
	<path fill="#646464" d="M755.1,236.4h-11.3c-0.5,0-0.9-0.4-0.9-0.9v-22.4c0-0.5,0.4-0.9,0.9-0.9h11.3c0.5,0,0.9,0.4,0.9,0.9v22.4
		C755.9,236,755.6,236.4,755.1,236.4z M744.6,234.6h9.5V214h-9.5V234.6z"/>
</g>
<g>
	<g>
		<path fill="#646464" d="M781.5,228.6h-6c-0.5,0-0.9-0.4-0.9-0.9v-13.4c0-0.5,0.4-0.9,0.9-0.9h6c0.5,0,0.9,0.4,0.9,0.9v13.4
			C782.3,228.2,781.9,228.6,781.5,228.6z M776.3,226.8h4.3v-11.7h-4.3V226.8z"/>
		<path fill="#646464" d="M775.4,228.6h-6.1c-0.5,0-0.9-0.4-0.9-0.9v-13.4c0-0.5,0.4-0.9,0.9-0.9h6.1c0.5,0,0.9,0.4,0.9,0.9v13.4
			C776.3,228.2,775.9,228.6,775.4,228.6z M770.2,226.8h4.4v-11.7h-4.4V226.8z"/>
	</g>
	<path fill="#646464" d="M782.5,228.6h-14.3c-0.5,0-0.9-0.4-0.9-0.9s0.4-0.9,0.9-0.9h14.3c0.5,0,0.9,0.4,0.9,0.9
		S783,228.6,782.5,228.6z"/>
</g>
<path fill="#C8C8C8" stroke="#C8C8C8" stroke-width="2" stroke-miterlimit="10" d="M1.8,238.8h796.4c1,0,1.8-0.3,1.8-0.7
	s-0.8-0.7-1.8-0.7H1.8c-1,0-1.8,0.3-1.8,0.7C0,238.5,0.8,238.8,1.8,238.8z"/>
<g transform="translate(0,-952.36218)">
	<path fill="#34E3AB" stroke="#34E3AB" stroke-width="0.75" stroke-miterlimit="10" d="M178.9,1099.3c-4.2,0-8.1,1.3-10.9,3.3
		c-2.8,2.1-4.6,5-4.6,8.2c0,4.1,2.9,7.6,7.1,9.6v5.9c0,0.2,0.2,0.4,0.4,0.4c0.1,0,0.2,0,0.3-0.1l6.1-4.3h1.6c4.2,0,8.1-1.3,10.9-3.3
		s4.6-5,4.6-8.2s-1.8-6.1-4.6-8.2C187,1100.5,183.1,1099.3,178.9,1099.3z M178.9,1100.2c4.1,0,7.7,1.2,10.4,3.2
		c2.6,1.9,4.2,4.6,4.2,7.5c0,2.9-1.6,5.5-4.2,7.5c-2.6,1.9-6.3,3.2-10.4,3.2h-1.8c-0.1,0-0.2,0-0.3,0.1l-5.5,3.9v-5.3
		c0-0.2-0.1-0.3-0.3-0.4c-4.1-1.9-6.8-5.2-6.8-9c0-2.9,1.6-5.5,4.2-7.5S174.8,1100.2,178.9,1100.2z"/>
</g>
<g transform="translate(0,-952.36218)">
	<path fill="#34E3AB" stroke="#34E3AB" stroke-width="0.75" stroke-miterlimit="10" d="M513.4,1099.5c-4.2,0-8.1,1.3-10.9,3.3
		s-4.6,5-4.6,8.2c0,4.1,2.9,7.6,7.1,9.6v5.9c0,0.2,0.2,0.4,0.4,0.4c0.1,0,0.2,0,0.3-0.1l6.1-4.3h1.6c4.2,0,8.1-1.3,10.9-3.3
		c2.8-2.1,4.6-5,4.6-8.2s-1.8-6.1-4.6-8.2C521.5,1100.8,517.7,1099.5,513.4,1099.5z M513.4,1100.4c4.1,0,7.7,1.2,10.4,3.2
		s4.2,4.6,4.2,7.5c0,2.9-1.6,5.5-4.2,7.5s-6.3,3.2-10.4,3.2h-1.8c-0.1,0-0.2,0-0.3,0.1l-5.5,3.9v-5.3c0-0.2-0.1-0.3-0.3-0.4
		c-4.1-1.9-6.8-5.2-6.8-9c0-2.9,1.6-5.5,4.2-7.5S509.4,1100.4,513.4,1100.4z"/>
</g>
<g>
	<path fill="#34E3AB" d="M692.6,81.3c0,2.4-1.6,2.9-2.2,6.2c-0.1,0.4-0.4,0.8-0.9,0.8h-1.4h-1.4c-0.5,0-0.8-0.3-0.9-0.8
		c-0.6-3.3-2.2-3.8-2.2-6.2c0-2.4,2-4.4,4.5-4.4S692.6,78.9,692.6,81.3z M690.1,89.3c0,0.2-0.2,0.4-0.4,0.4h-3.1
		c-0.2,0-0.4-0.2-0.4-0.4s0.2-0.4,0.4-0.4h3.1C689.9,88.9,690.1,89.1,690.1,89.3z M690.1,90.8c0,0.2-0.2,0.4-0.4,0.4h-3.1
		c-0.2,0-0.4-0.2-0.4-0.4c0-0.2,0.2-0.4,0.4-0.4h3.1C689.9,90.4,690.1,90.5,690.1,90.8z M686.9,91.8h2.5l-0.7,0.8h-1.1L686.9,91.8z"
		/>
</g>
<g transform="translate(0,-952.36218)">
	<path fill="#34E3AB" stroke="#34E3AB" stroke-width="0.75" stroke-miterlimit="10" d="M688.1,1025.8c-4.2,0-8.1,1.3-10.9,3.3
		c-2.8,2.1-4.6,5-4.6,8.2c0,4.1,2.9,7.6,7.1,9.6v5.9c0,0.2,0.2,0.4,0.4,0.4c0.1,0,0.2,0,0.3-0.1l6.1-4.3h1.6c4.2,0,8.1-1.3,10.9-3.3
		c2.8-2.1,4.6-5,4.6-8.2c0-3.2-1.8-6.1-4.6-8.2C696.2,1027,692.4,1025.8,688.1,1025.8z M688.1,1026.6c4.1,0,7.7,1.2,10.4,3.2
		c2.6,1.9,4.2,4.6,4.2,7.5c0,2.9-1.6,5.5-4.2,7.5c-2.6,1.9-6.3,3.2-10.4,3.2h-1.8c-0.1,0-0.2,0-0.3,0.1l-5.5,3.9v-5.3
		c0-0.2-0.1-0.3-0.3-0.4c-4.1-1.9-6.8-5.2-6.8-9c0-2.9,1.6-5.5,4.2-7.5C680.4,1027.9,684.1,1026.6,688.1,1026.6z"/>
</g>
<path fill="#34E3AB" d="M184.7,160.2c1.2-1,1.7-2.4,1.8-3.8c0-0.3-0.3-0.4-0.5-0.2l-2.1,1.8c-0.1,0.1-0.2,0.1-0.3,0.1l-3-0.6
	c-0.1,0-0.2-0.1-0.2-0.3l-0.1-3.1c0-0.1,0-0.2,0.1-0.2l2.1-1.8c0.2-0.2,0.1-0.5-0.1-0.5c-1.4-0.2-2.9,0.1-4,1.1
	c-1.3,1.1-1.9,2.8-1.7,4.4c0,0.2,0,0.4-0.2,0.5l-5.4,4.6c-0.1,0.1-0.2,0.3,0,0.4l2.7,3.2c0.1,0.1,0.3,0.2,0.4,0l5.4-4.5
	c0.1-0.1,0.4-0.2,0.6-0.1C181.6,161.6,183.4,161.3,184.7,160.2z"/>
<g>
	<path fill="#34E3AB" d="M516.7,164.7c-1.8,0-3.3-1.5-3.3-3.3c0-2.4,3-4.9,3.1-5l0.2-0.2l0.2,0.2c0.1,0.1,3.1,2.5,3.1,5
		C520.1,163.2,518.6,164.7,516.7,164.7z"/>
</g>
<g>
	<path fill="#34E3AB" d="M510.2,160.4c-1.8,0-3.3-1.5-3.3-3.3c0-2.4,3-4.9,3.1-5l0.2-0.2l0.2,0.2c0.1,0.1,3.1,2.5,3.1,5
		C513.5,158.9,512,160.4,510.2,160.4z"/>
</g>
</svg>
