<?xml version="1.0" encoding="utf-8"?>
<!-- Generator: Adobe Illustrator 18.1.1, SVG Export Plug-In . SVG Version: 6.00 Build 0)  -->
<svg version="1.1" xmlns="http://www.w3.org/2000/svg" xmlns:xlink="http://www.w3.org/1999/xlink" x="0px" y="0px"
	 viewBox="0 0 855 607" enable-background="new 0 0 855 607" xml:space="preserve">
<g id="Layer_5" display="none">
	<g display="inline">
		<g>
			<g>
				<g>
					<path fill="#FF7211" d="M556.3,243.8c0,0,21.9,10.4,13.6,52.9c-8.3,42.5-25.3,39.8-28.9,42.9l4.6-23.6c0,0,6.7,1.4,11.3-21.9
						c0,0,4-23.1-3.8-26.6c-7.8-3.6-0.6-13.4,0-14.1C553.8,252.8,556.3,243.8,556.3,243.8z"/>
				</g>
				<g>
					<path fill="#662483" d="M541,341.5c-0.3,0-0.6-0.1-0.9-0.3c-0.7-0.4-1-1.2-0.9-2l4.6-23.6c0.1-0.5,0.3-1.1,0.8-1.3
						c0.5-0.3,0.9-0.3,1.3-0.2c1.5-0.1,6-4,9.2-20.4c1.4-8.3,2-22.4-2.7-24.6c-3.2-1.5-4.2-3.8-4.6-5.5c-0.9-4.7,2.9-10.2,3.9-11.3
						c0.4-0.9,1.8-5.3,2.8-9c0.1-0.5,0.5-1,1-1.2c0.5-0.2,1.1-0.2,1.6,0c0.9,0.5,23.1,11.5,14.6,54.9c-7,36-20.6,40.7-27,42.9
						c-1.1,0.4-2.1,0.7-2.5,1C541.9,341.3,541.4,341.5,541,341.5z M547.2,317.7l-3.7,18.7c5.9-2,18-6.3,24.6-40.1
						c6.5-33.3-5.7-46-10.7-49.7c-2.1,7.2-2.6,7.8-2.9,8.1c-0.5,0.5-3.7,5.1-3,8.4c0.3,1.2,1,2.1,2.4,2.7c4,1.8,5.9,7.3,5.9,16.4
						c0,6.3-1,12-1.1,12.3C555.2,312.5,550.1,316.8,547.2,317.7z"/>
				</g>
			</g>
			<g>
				<g>
					<path fill="#FFB22C" d="M548.1,231.6c0,0-5.3-1.1-6.3,3.9c-0.7,3.7-4,20.4-5.6,28.8c-1.1,5.9,4.4,5.9,4.4,5.9
						c8.7,1.7,17.2-4,18.9-12.7l1.4-7C562.5,241.8,556.8,233.3,548.1,231.6z"/>
				</g>
				<g>
					<path fill="#662483" d="M543.6,272.4C543.6,272.4,543.6,272.4,543.6,272.4c-1.1,0-2.2-0.1-3.3-0.3c-0.8,0-3.2-0.3-4.8-2.3
						c-1.2-1.5-1.6-3.4-1.1-5.8l5.6-28.8c0.7-3.5,3.2-5.5,6.9-5.5c0.9,0,1.5,0.1,1.6,0.1c4.7,0.9,8.7,3.6,11.4,7.6
						c2.7,4,3.6,8.8,2.7,13.5l-1.4,7C559.6,266.3,552.2,272.4,543.6,272.4z M546.9,233.3c-2.5,0-3,1.4-3.2,2.5l-5.6,28.8
						c-0.2,1.2-0.1,2.2,0.3,2.8c0.7,0.9,2.2,1,2.2,1c0.1,0,0.2,0,0.3,0c0.9,0.2,1.8,0.3,2.8,0.3c6.8,0,12.7-4.8,14-11.5l1.4-7
						c0.7-3.7,0-7.5-2.2-10.7c-2.1-3.2-5.3-5.3-9.1-6C547.7,233.4,547.4,233.3,546.9,233.3z"/>
				</g>
			</g>
			<g>
				<g>
					<path fill="#FFB22C" d="M533.5,306c0,0-5.3-1.1-6.3,3.9c-0.7,3.7-4,20.4-5.6,28.8c-1.1,5.9,4.4,5.9,4.4,5.9
						c8.7,1.7,17.2-4,18.9-12.7l1.4-7C547.9,316.2,542.2,307.7,533.5,306z"/>
				</g>
				<g>
					<path fill="#662483" d="M529.1,346.8L529.1,346.8c-1.1,0-2.2-0.1-3.3-0.3c-0.8,0-3.2-0.3-4.8-2.3c-1.2-1.5-1.6-3.4-1.1-5.8
						l5.6-28.8c0.7-3.5,3.2-5.5,6.9-5.5c0.9,0,1.5,0.1,1.6,0.1c9.7,1.9,16,11.3,14.1,21l-1.4,7C545,340.7,537.6,346.8,529.1,346.8z
						 M532.3,307.7c-2.4,0-3,1.4-3.2,2.5l-5.6,28.8c-0.2,1.2-0.1,2.2,0.3,2.7c0.6,0.8,1.8,1,2.2,1c0.1,0,0.2,0,0.3,0
						c0.9,0.2,1.8,0.3,2.8,0.3c6.8,0,12.7-4.8,14-11.5l1.4-7c1.5-7.7-3.5-15.2-11.2-16.7C533.1,307.8,532.8,307.7,532.3,307.7z"/>
				</g>
			</g>
		</g>
		<g>
			<g>
				<g>
					<path fill="#4DC9DB" d="M315.6,437.8c0.6,0.2,1.2,0.4,1.7,0.6c26.4,8.2,50.4,7.8,51.4,7.7l-0.6-28.3c-0.8,0-78.6,0.9-92.5-52.4
						l-27.4,7.1C256.3,403.6,279.6,426.2,315.6,437.8z"/>
				</g>
				<g>
					<path fill="#662483" d="M367.5,448c-6,0-27.4-0.6-50.8-7.8c-0.6-0.2-1.2-0.4-1.8-0.6c-36.6-11.9-60.3-34.9-68.6-66.6
						c-0.1-0.5-0.1-1,0.2-1.4c0.2-0.4,0.7-0.7,1.1-0.9l27.4-7.1c1-0.3,2,0.3,2.3,1.3c5.4,20.8,21.4,35.6,47.4,44.1
						c20.6,6.7,40.6,6.9,42.8,6.9l0.4,0c1,0,1.9,0.8,1.9,1.8l0.6,28.3c0,0.5-0.2,1-0.5,1.3c-0.3,0.4-0.8,0.6-1.3,0.6
						C368.7,448,368.2,448,367.5,448z M250.5,373.8c8.3,29.5,31,51,65.7,62.2c0.6,0.2,1.1,0.4,1.7,0.5c22.1,6.9,42.4,7.6,49,7.7
						l-0.5-24.7c-5.9-0.1-23.8-0.9-42.6-7.1c-26.2-8.5-43.2-24.1-49.4-44.9L250.5,373.8z"/>
				</g>
			</g>
		</g>
		<g>
			<g>
				<g>
					<path fill="#4DC9DB" d="M541.2,436.5v-27.1c28.9,0,50.5-8,60.7-22.5c7.3-10.4,8.6-23.6,3.7-37.4c-6.5-18.4-31.8-32.5-41-36.4
						l10.6-25c1.8,0.8,44.1,19,55.9,52.3c7.8,22,5.2,44.6-7.1,62.1C613.1,418,589.8,436.5,541.2,436.5z"/>
				</g>
				<g>
					<path fill="#662483" d="M541.2,438.4c-1,0-1.8-0.8-1.8-1.8v-27.1c0-1,0.8-1.8,1.8-1.8c28.3,0,49.3-7.7,59.2-21.7
						c7-9.8,8.2-22.5,3.5-35.7c-6.3-17.8-31-31.5-40-35.3c-0.5-0.2-0.8-0.6-1-1c-0.2-0.5-0.2-1,0-1.4l10.6-25c0.2-0.5,0.6-0.8,1-1
						c0.5-0.2,1-0.2,1.4,0c1.8,0.8,44.9,19.4,57,53.4c8,22.6,5.3,45.8-7.4,63.8C614.3,419.5,590.6,438.4,541.2,438.4z M543,411.3
						v23.4c46.6-0.5,68.9-18.2,79.5-33.2c12-17,14.5-39,6.9-60.4c-10.4-29.2-45-46.7-53.2-50.5l-9.1,21.5
						c10.5,4.8,33.9,18.8,40.3,36.7c5.1,14.4,3.7,28.2-4,39.1C593,402.7,571.6,410.9,543,411.3z"/>
				</g>
			</g>
		</g>
		<g>
			<g>
				<g>
					<path fill="#4DC9DB" d="M450.6,333.2l-13.1-3.3l0,0h0h0l0,0l-13.1,3.3c0,0-61.6,14.8-69,104.3h164.3
						C512.2,348,450.6,333.2,450.6,333.2z"/>
				</g>
				<g>
					<path fill="#662483" d="M519.6,439.4H355.3c-0.5,0-1-0.2-1.4-0.6c-0.4-0.4-0.5-0.9-0.5-1.4c3.9-46.8,22.7-73.1,37.9-86.9
						c16.5-15,31.9-18.9,32.5-19l13.1-3.3c0.3-0.1,0.6-0.1,0.9,0l13.1,3.3c0.6,0.2,16,4,32.5,19c15.1,13.8,34,40.1,37.9,86.9
						c0,0.5-0.1,1-0.5,1.4C520.6,439.2,520.1,439.4,519.6,439.4z M357.3,435.7h160.2c-2.3-25-10.6-58.8-36.3-82.4
						c-15.8-14.5-30.9-18.3-31.1-18.3l-12.7-3.2l-12.7,3.2c-0.2,0-15.3,3.8-31.1,18.3C368,376.9,359.7,410.7,357.3,435.7z"/>
				</g>
			</g>
			<g opacity="0.3">
				<g>
					<path fill="#029BD7" d="M443.8,335.9l2.4-0.6l-10.2-2.6v0h0h0v0l-12.6,3.1c0,0-58.9,14.1-65.9,99.7h20.4
						C385,350,443.8,335.9,443.8,335.9z"/>
				</g>
			</g>
			<g>
				<g>
					<path fill="#FBC7B6" d="M452.5,334.3c0.1-0.7,0.2-1.3,0.2-2V322c0-8.2-6.6-14.8-14.8-14.8c-8.2,0-14.8,6.6-14.8,14.8v10.3
						c0,0.6,0.1,1.3,0.1,1.9c-2.2,0.7-7.1,2.4-13.4,5.9c3.7,12.9,14.8,22.3,27.8,22.3c13,0,24-9.4,27.8-22.3
						C459.6,336.7,454.9,335,452.5,334.3z"/>
				</g>
				<g>
					<path fill="#662483" d="M437.7,364.1c-13.6,0-25.5-9.5-29.6-23.6l-0.4-1.4l1.3-0.7c5.3-2.9,9.6-4.6,12.3-5.6c0-0.2,0-0.4,0-0.6
						V322c0-9.2,7.5-16.6,16.6-16.6c9.2,0,16.6,7.5,16.6,16.6v10.3c0,0.2,0,0.5,0,0.8c2.6,0.9,6.8,2.6,11.8,5.4l1.3,0.7l-0.4,1.4
						C463.1,354.6,451.2,364.1,437.7,364.1z M412.1,340.9c4,11.8,14.1,19.6,25.6,19.6c11.5,0,21.6-7.8,25.6-19.6
						c-5.1-2.7-9.2-4.2-11.3-4.9l-1.5-0.5l0.2-1.5c0.1-0.7,0.1-1.3,0.1-1.8V322c0-7.1-5.8-12.9-12.9-12.9c-7.1,0-12.9,5.8-12.9,12.9
						v10.3c0,0.5,0,1,0.1,1.7l0.2,1.5l-1.5,0.5C421.7,336.5,417.5,338,412.1,340.9z"/>
				</g>
			</g>
			<g>
				<g>
					<path fill="#662483" d="M465.1,190.2c0,12.4-10,22.4-22.4,22.4h-12.4c-12.4,0-22.4-10-22.4-22.4v-10c0-12.4,10-22.4,22.4-22.4
						h12.4c12.4,0,22.4,10,22.4,22.4V190.2z"/>
				</g>
			</g>
			<g>
				<g>
					<path fill="#FBC7B6" d="M482.6,280.1c0,24.7-39.3,44.7-44.7,44.7l0,0c-6.6,0-44.7-20-44.7-44.7v-32.2c0-24.7,20-44.7,44.7-44.7
						l0,0c24.7,0,44.7,20,44.7,44.7V280.1z"/>
				</g>
				<g>
					<path fill="#662483" d="M437.9,326.6c-7.2,0-46.5-20.4-46.5-46.5v-32.2c0-25.6,20.9-46.5,46.5-46.5c25.6,0,46.5,20.9,46.5,46.5
						v32.2C484.4,305.5,444.9,326.6,437.9,326.6z M437.9,205c-23.6,0-42.8,19.2-42.8,42.8v32.2c0,22.9,36.6,42.8,42.8,42.8
						c4.7,0,42.8-19.7,42.8-42.8v-32.2C480.7,224.2,461.5,205,437.9,205z"/>
				</g>
			</g>
			<g>
				<g>
					<path fill="#89579F" d="M450,180.8h-24.7c-24.7,0-44.7,20-44.7,44.7v19.9c0,12,4.8,23,12.5,31v-27.7c0-2.2,0.7-6.8,1-9
						c0,0,5.2-34.7,43.7-35.7c24.7-0.6,44.7,20,44.7,44.7v27.3c7.5-8,12.1-18.7,12.1-30.6v-19.9C494.6,200.8,474.6,180.8,450,180.8z
						"/>
				</g>
				<g>
					<path fill="#662483" d="M393.2,278.2c-0.5,0-1-0.2-1.3-0.6c-8.4-8.7-13-20.2-13-32.3v-19.9c0-25.6,20.9-46.5,46.5-46.5H450
						c25.6,0,46.5,20.9,46.5,46.5v19.9c0,11.9-4.5,23.2-12.6,31.8c-0.5,0.6-1.3,0.7-2,0.5c-0.7-0.3-1.2-1-1.2-1.7v-27.3
						c0-24-19.3-43.4-42.8-42.8c-15.4,0.4-27.1,6.2-34.8,17.4c-5.8,8.4-7.1,16.6-7.1,16.7c-0.3,2-1,6.6-1,8.7v27.7
						c0,0.8-0.5,1.4-1.2,1.7C393.7,278.1,393.4,278.2,393.2,278.2z M425.3,182.6c-23.6,0-42.8,19.2-42.8,42.8v19.9
						c0,9.5,3.1,18.6,8.8,26v-22.7c0-2.3,0.7-7,1-9.2c0.1-0.4,5.8-36.3,45.5-37.3c25.6-0.7,46.5,20.5,46.5,46.5v22.2
						c5.5-7.3,8.4-16.2,8.4-25.5v-19.9c0-23.6-19.2-42.8-42.8-42.8H425.3z"/>
				</g>
			</g>
			<g opacity="0.3">
				<g>
					<g>
						<path fill="#662483" d="M391.8,255.7l-1.2-22.2c-1.2-13.6,0.3-39.1,50.1-51.8l-16.1-0.9c-24.7,0-44.7,20-44.7,44.7v19.9
							c0,12,4.8,23,12.5,31v-1.2C390.2,269.4,391.8,262.3,391.8,255.7z"/>
					</g>
				</g>
			</g>
			<g>
				<g>
					<path fill="#662483" d="M412.3,275.2c-11.5,0-20.9-9.4-20.9-20.9c0-1.5,0.2-3.1,0.5-4.7c0.2-0.8,0.9-1.4,1.8-1.4h37.1
						c0.9,0,1.6,0.6,1.8,1.4c0.4,1.6,0.5,3.2,0.5,4.7C433.2,265.8,423.8,275.2,412.3,275.2z M395.3,251.9c-0.1,0.8-0.2,1.6-0.2,2.4
						c0,9.5,7.7,17.2,17.2,17.2c9.5,0,17.2-7.7,17.2-17.2c0-0.8-0.1-1.6-0.2-2.4H395.3z"/>
				</g>
			</g>
			<g>
				<g>
					<path fill="#662483" d="M464.1,275.2c-11.5,0-20.9-9.4-20.9-20.9c0-1.5,0.2-3.1,0.5-4.7c0.2-0.8,0.9-1.4,1.8-1.4h37.1
						c0.9,0,1.6,0.6,1.8,1.4c0.4,1.6,0.5,3.2,0.5,4.7C484.9,265.8,475.6,275.2,464.1,275.2z M447.1,251.9c-0.1,0.8-0.2,1.6-0.2,2.4
						c0,9.5,7.7,17.2,17.2,17.2c9.5,0,17.2-7.7,17.2-17.2c0-0.8-0.1-1.6-0.2-2.4H447.1z"/>
				</g>
			</g>
			<g>
				<g>
					<path fill="#662483" d="M444.5,252.6c-0.5,0-0.9-0.2-1.3-0.5c-1.4-1.4-3.2-2.1-5.1-2.1c-1.9,0-3.8,0.8-5.1,2.1
						c-0.7,0.7-1.9,0.7-2.6,0c-0.7-0.7-0.7-1.9,0-2.6c2.1-2.1,4.8-3.2,7.8-3.2c2.9,0,5.7,1.1,7.8,3.2c0.7,0.7,0.7,1.9,0,2.6
						C445.5,252.4,445,252.6,444.5,252.6z"/>
				</g>
			</g>
			<g>
				<g>
					<path fill="#662483" d="M415.8,266.3c-5.1,0-9.2-3.2-9.2-7.2c0-1,0.8-1.8,1.8-1.8c1,0,1.8,0.8,1.8,1.8c0,1.9,2.5,3.5,5.5,3.5
						c3,0,5.5-1.6,5.5-3.5c0-1,0.8-1.8,1.8-1.8c1,0,1.8,0.8,1.8,1.8C424.9,263.2,420.9,266.3,415.8,266.3z"/>
				</g>
			</g>
			<g>
				<g>
					<path fill="#662483" d="M461,266.3c-5.1,0-9.2-3.2-9.2-7.2c0-1,0.8-1.8,1.8-1.8c1,0,1.8,0.8,1.8,1.8c0,1.9,2.5,3.5,5.5,3.5
						c3,0,5.5-1.6,5.5-3.5c0-1,0.8-1.8,1.8-1.8s1.8,0.8,1.8,1.8C470.2,263.2,466.2,266.3,461,266.3z"/>
				</g>
			</g>
			<g>
				<g>
					<path fill="#FBC7B6" d="M438.7,259.5c0,0-0.4,9.9,7,19.7c5.1,6.8,0,11.1-10.7,8.6L438.7,259.5z"/>
				</g>
				<g>
					<path fill="#662483" d="M440.6,290.4c-1.8,0-3.8-0.2-6-0.8c-1-0.2-1.6-1.2-1.4-2.2c0.2-1,1.2-1.6,2.2-1.4
						c5.7,1.3,9.2,0.5,10.1-0.9c0.7-1,0.2-2.8-1.3-4.8c-7.7-10.3-7.4-20.5-7.3-20.9c0-1,0.9-1.8,1.9-1.8c1,0,1.8,0.9,1.8,1.9l0,0
						c0,0.1-0.3,9.4,6.6,18.5c3.4,4.6,2.4,7.6,1.5,9C447.3,289.3,444.5,290.4,440.6,290.4z"/>
				</g>
			</g>
			<g>
				<g>
					<path fill="#662483" d="M452.2,245.8c-0.9,0-1.8-0.4-2.4-1.2c-1.1-1.3-0.8-3.3,0.5-4.3c0.5-0.4,5.6-4.1,17-4.1
						c1.7,0,3.1,1.4,3.1,3.1c0,1.7-1.4,3.1-3.1,3.1c-9.2,0-13.2,2.8-13.2,2.8C453.5,245.5,452.9,245.8,452.2,245.8z"/>
				</g>
			</g>
			<g>
				<g>
					<path fill="#662483" d="M425.2,246.4c-0.7,0-1.3-0.2-1.9-0.6c-0.1-0.1-4.1-2.9-13.3-2.9c-1.7,0-3.1-1.4-3.1-3.1
						c0-1.7,1.4-3.1,3.1-3.1c11.4,0,16.5,3.7,17,4.1c1.3,1.1,1.6,3,0.5,4.3C427,246,426.1,246.4,425.2,246.4z"/>
				</g>
			</g>
			<g>
				<g>
					<path fill="#89579F" d="M424.7,180.8c-24.7,0-44.7,20-44.7,44.7v19.9c0,12,4.8,23,12.5,31v-27.7c0-2.2,2.7-13.4,2.7-13.4
						s24.9,0,38.3-24.9l-6.1-5.3c3-0.6,6.2-1,9.8-1.1c1.5,0,2.9,0,4.3,0.1v-23.3H424.7z"/>
				</g>
				<g>
					<path fill="#662483" d="M392.6,278.2c-0.5,0-1-0.2-1.3-0.6c-8.4-8.7-13-20.2-13-32.3v-19.9c0-25.6,20.9-46.5,46.5-46.5h16.8
						c1,0,1.8,0.8,1.8,1.8v23.3c0,0.5-0.2,1-0.6,1.4c-0.4,0.4-0.9,0.5-1.4,0.5c-1.4-0.1-2.8-0.1-4.1-0.1c-1.9,0-3.8,0.2-5.6,0.4
						l3.1,2.7c0.7,0.6,0.8,1.5,0.4,2.3c-12,22.3-32.7,25.4-38.4,25.8c-1,4.3-2.3,10.4-2.3,11.7v27.7c0,0.8-0.5,1.4-1.2,1.7
						C393.1,278.1,392.8,278.2,392.6,278.2z M424.7,182.6c-23.6,0-42.8,19.2-42.8,42.8v19.9c0,9.5,3.1,18.6,8.8,26v-22.7
						c0-2.3,2.3-12,2.7-13.9c0.2-0.8,0.9-1.4,1.8-1.4c1,0,23.2-0.3,35.9-22.6l-4.9-4.3c-0.5-0.5-0.8-1.2-0.6-1.9
						c0.2-0.7,0.7-1.2,1.4-1.3c3.2-0.6,6.6-1,10.1-1.1c0.8,0,1.7,0,2.5,0v-19.5H424.7z"/>
				</g>
			</g>
			<g>
				<g>
					<path fill="#FBC7B6" d="M482.6,255.7c0.2,0,0.4,0,0.7,0c4.8,0,8.7,3.9,8.7,8.6v6.2c0,4.7-3.9,8.6-8.7,8.6c-0.2,0-0.4,0-0.7,0
						V255.7z"/>
				</g>
				<g>
					<path fill="#662483" d="M483.2,280.9c-0.3,0-0.5,0-0.8,0l-1.7-0.1l0-1.7v-25.1l1.7-0.1c0.3,0,0.5,0,0.8,0
						c5.8,0,10.5,4.7,10.5,10.4v6.2C493.8,276.2,489,280.9,483.2,280.9z M484.4,257.6v19.5c3.2-0.6,5.6-3.3,5.6-6.6v-6.2
						C490.1,260.9,487.6,258.1,484.4,257.6z"/>
				</g>
			</g>
			<g>
				<g>
					<path fill="#FBC7B6" d="M393.1,255.5c-0.2,0-0.4,0-0.7,0c-4.8,0-8.7,3.9-8.7,8.6v6.2c0,4.7,3.9,8.6,8.7,8.6c0.2,0,0.4,0,0.7,0
						V255.5z"/>
				</g>
				<g>
					<path fill="#662483" d="M392.5,280.7c-5.8,0-10.5-4.7-10.5-10.4V264c0-5.8,4.7-10.4,10.5-10.4c0.3,0,0.5,0,0.8,0l1.7,0.1l0,1.7
						v25.1l-1.7,0.1C393,280.7,392.8,280.7,392.5,280.7z M391.3,257.4c-3.2,0.6-5.6,3.3-5.6,6.6v6.2c0,3.3,2.4,6.1,5.6,6.6V257.4z"
						/>
				</g>
			</g>
			<g>
				<g>
					<g>
						<g>
							<g>
								<path fill="#ED5050" d="M432.2,302.8c-0.6,0-1-0.4-1-1c0,0,0-0.1,0-0.1c0-2,1.6-3.7,3.7-3.7c2,0,3.7,1.6,3.7,3.7
									c0,0,0,0.1,0,0.2c0,0.5-0.5,1-1,1H432.2z"/>
							</g>
						</g>
						<g>
							<g>
								<path fill="#ED5050" d="M434.8,299c1.5,0,2.6,1.2,2.6,2.6c0,0,0,0.1,0,0.1h-5.3c0,0,0-0.1,0-0.1
									C432.2,300.2,433.3,299,434.8,299L434.8,299z M434.8,296.9c-2.6,0-4.7,2.1-4.7,4.7c0,0,0,0.1,0,0.2c0,1.1,0.9,2,2,2h5.3
									c1.1,0,2-0.8,2-1.9c0-0.1,0-0.2,0-0.2C439.5,299.1,437.4,296.9,434.8,296.9L434.8,296.9z"/>
							</g>
						</g>
					</g>
				</g>
				<g>
					<g>
						<g>
							<g>
								<path fill="#ED5050" d="M440.2,302.8c-0.5,0-0.9-0.4-1-0.9c0,0,0-0.1,0-0.1c0-2,1.6-3.6,3.6-3.6c2,0,3.6,1.6,3.6,3.6
									c0,0,0,0.1,0,0.1c0,0.5-0.4,0.9-1,0.9H440.2z"/>
							</g>
						</g>
						<g>
							<g>
								<path fill="#ED5050" d="M442.9,299.1c1.5,0,2.6,1.2,2.6,2.6c0,0,0,0.1,0,0.1h-5.3c0,0,0-0.1,0-0.1
									C440.2,300.3,441.4,299.1,442.9,299.1L442.9,299.1z M442.9,297.2c-2.5,0-4.6,2-4.6,4.6c0,0,0,0.1,0,0.2
									c0.1,1,0.9,1.8,1.9,1.8h5.3c1,0,1.9-0.8,1.9-1.8c0,0,0-0.1,0-0.2C447.4,299.2,445.4,297.2,442.9,297.2L442.9,297.2z"/>
							</g>
						</g>
					</g>
				</g>
				<g>
					<g>
						<path fill="#ED5050" d="M432,308.2L432,308.2c0,2.5,2,4.5,4.5,4.5h3.6c2.5,0,4.5-2,4.5-4.5l0,0H432z"/>
					</g>
					<g>
						<path fill="#ED5050" d="M440.1,313.7h-3.6c-3.1,0-5.6-2.5-5.6-5.6c0-0.6,0.5-1,1-1h12.6c0.6,0,1,0.5,1,1
							C445.6,311.2,443.1,313.7,440.1,313.7z M433.1,309.2c0.4,1.4,1.8,2.5,3.4,2.5h3.6c1.6,0,2.9-1,3.4-2.5H433.1z"/>
					</g>
				</g>
			</g>
			<g>
				<g>
					<path fill="#F7B2B2" d="M421.9,284.2c0,2.5-2,4.5-4.5,4.5h-9c-2.5,0-4.5-2-4.5-4.5l0,0c0-2.5,2-4.5,4.5-4.5h9
						C419.9,279.7,421.9,281.7,421.9,284.2L421.9,284.2z"/>
				</g>
			</g>
			<g>
				<g>
					<path fill="#F7B2B2" d="M474.5,284.2c0,2.5-2,4.5-4.5,4.5h-9c-2.5,0-4.5-2-4.5-4.5l0,0c0-2.5,2-4.5,4.5-4.5h9
						C472.4,279.7,474.5,281.7,474.5,284.2L474.5,284.2z"/>
				</g>
			</g>
			<g>
				<g>
					<path fill="#89579F" d="M410.8,183.9c0,0,10.7,47.7,87.1,50.6C497.9,234.5,507.8,161,410.8,183.9z"/>
				</g>
				<g>
					<path fill="#662483" d="M497.9,236.3C497.8,236.3,497.8,236.3,497.9,236.3c-22.2-0.8-52.9-6.2-73.5-26.9
						c-12.5-12.5-15.3-24.6-15.4-25.1c-0.2-1,0.4-2,1.4-2.2c12.6-3,24-4.5,34.1-4.5c19.5,0,34.2,5.5,43.7,16.4
						c14.6,16.7,11.7,39.7,11.5,40.6C499.6,235.6,498.8,236.3,497.9,236.3z M413.1,185.3c1.2,3.7,5,12.6,14.1,21.7
						c19.3,19.2,47.8,24.6,69,25.6c0.4-5.5,0.5-23.1-10.8-36.1c-8.8-10.1-22.6-15.2-40.9-15.2C435.2,181.3,424.6,182.7,413.1,185.3z
						"/>
				</g>
			</g>
			<g>
				<g>
					<path fill="#FFC200" d="M393.5,285.5c0,1.4-1.1,2.5-2.5,2.5l0,0c-1.4,0-2.5-1.1-2.5-2.5v-9.9c0-1.4,1.1-2.5,2.5-2.5l0,0
						c1.4,0,2.5,1.1,2.5,2.5V285.5z"/>
				</g>
				<g>
					<path fill="#662483" d="M391,289.4c-2.1,0-3.9-1.7-3.9-3.9v-9.9c0-2.1,1.7-3.9,3.9-3.9c2.1,0,3.9,1.7,3.9,3.9v9.9
						C394.8,287.7,393.1,289.4,391,289.4z M391,274.4c-0.7,0-1.2,0.5-1.2,1.2v9.9c0,0.7,0.5,1.2,1.2,1.2c0.7,0,1.2-0.5,1.2-1.2v-9.9
						C392.2,275,391.6,274.4,391,274.4z"/>
				</g>
			</g>
			<g>
				<g>
					<path fill="#FFC200" d="M487.8,285.5c0,1.4-1.1,2.5-2.5,2.5l0,0c-1.4,0-2.5-1.1-2.5-2.5v-9.9c0-1.4,1.1-2.5,2.5-2.5l0,0
						c1.4,0,2.5,1.1,2.5,2.5V285.5z"/>
				</g>
				<g>
					<path fill="#662483" d="M485.2,289.4c-2.1,0-3.9-1.7-3.9-3.9v-9.9c0-2.1,1.7-3.9,3.9-3.9c2.1,0,3.9,1.7,3.9,3.9v9.9
						C489.1,287.7,487.3,289.4,485.2,289.4z M485.2,274.4c-0.7,0-1.2,0.5-1.2,1.2v9.9c0,0.7,0.5,1.2,1.2,1.2c0.7,0,1.2-0.5,1.2-1.2
						v-9.9C486.4,275,485.9,274.4,485.2,274.4z"/>
				</g>
			</g>
			<g>
				<g>
					<path fill="#662483" d="M473.2,221.5c-0.2,0-0.3,0-0.5-0.1c-32.5-9.2-41.5-27.3-41.8-28.1c-0.4-0.9,0-2,0.9-2.5
						c0.9-0.4,2-0.1,2.5,0.9c0.1,0.2,8.8,17.5,39.5,26.1c1,0.3,1.6,1.3,1.3,2.3C474.8,221,474,221.5,473.2,221.5z"/>
				</g>
			</g>
			<g>
				<g>
					<path fill="#89579F" d="M446.5,188.5c0,0,7.2,15,33.8,22.6L446.5,188.5z"/>
				</g>
				<g>
					<path fill="#662483" d="M480.4,212.9c-0.2,0-0.3,0-0.5-0.1c-27.1-7.7-34.7-22.9-35-23.5c-0.4-0.9,0-2,0.9-2.5
						c0.9-0.4,2-0.1,2.5,0.9c0.1,0.1,7.3,14.4,32.7,21.6c1,0.3,1.6,1.3,1.3,2.3C481.9,212.4,481.2,212.9,480.4,212.9z"/>
				</g>
			</g>
			<g>
				<g>
					<path fill="#662483" d="M390.5,228.5c-1,0-1.8-0.8-1.8-1.8c-0.6-20.5,13.6-28.9,14.2-29.3c0.9-0.5,2-0.2,2.5,0.7
						c0.5,0.9,0.2,2-0.7,2.5c-0.6,0.3-12.9,7.8-12.4,26C392.4,227.7,391.6,228.5,390.5,228.5C390.6,228.5,390.6,228.5,390.5,228.5z"
						/>
				</g>
			</g>
			<g>
				<g>
					<path fill="#662483" d="M402.4,225.8c-1,0-1.8-0.8-1.8-1.8c-0.4-12.7,8.5-18,8.9-18.3c0.9-0.5,2-0.2,2.5,0.7
						c0.5,0.9,0.2,2-0.7,2.5c-0.3,0.2-7.4,4.5-7.1,14.9C404.3,224.9,403.4,225.8,402.4,225.8C402.4,225.8,402.4,225.8,402.4,225.8z"
						/>
				</g>
			</g>
			<g>
				<g>
					<path fill="#662483" d="M451.9,328.1"/>
				</g>
			</g>
			<g>
				<g>
					<path fill="#FBC7B6" stroke="#662483" stroke-width="3.696" stroke-miterlimit="10" d="M424.4,333"/>
				</g>
			</g>
			<g>
				<g>
					<rect x="435.7" y="301.8" fill="#ED5050" width="8.1" height="2"/>
				</g>
			</g>
		</g>
		<g>
			<g>
				<circle fill="#FBC7B6" cx="561.7" cy="296.5" r="21.4"/>
			</g>
			<g>
				<path fill="#662483" d="M561.7,319.7c-12.8,0-23.2-10.4-23.2-23.2c0-12.8,10.4-23.2,23.2-23.2c12.8,0,23.2,10.4,23.2,23.2
					C584.9,309.3,574.5,319.7,561.7,319.7z M561.7,277c-10.8,0-19.5,8.8-19.5,19.5c0,10.8,8.8,19.5,19.5,19.5
					c10.8,0,19.5-8.8,19.5-19.5C581.2,285.7,572.5,277,561.7,277z"/>
			</g>
		</g>
		<g>
			<g>
				<g>
					<polygon fill="#89579F" points="302.2,346.7 297.6,337 240.6,364 245.2,373.7 					"/>
				</g>
				<g>
					<path fill="#662483" d="M245.2,375.5c-0.2,0-0.4,0-0.6-0.1c-0.5-0.2-0.8-0.5-1-0.9l-4.5-9.7c-0.4-0.9,0-2,0.9-2.4l57-27
						c0.4-0.2,0.9-0.2,1.4-0.1c0.5,0.2,0.8,0.5,1,0.9l4.6,9.7c0.4,0.9,0,2-0.9,2.4l-57,27C245.7,375.5,245.4,375.5,245.2,375.5z
						 M243.1,364.9l3,6.3l53.7-25.5l-3-6.3L243.1,364.9z"/>
				</g>
			</g>
			<g opacity="0.4">
				<g>
					<polygon fill="#FBC7B6" points="298.2,342.5 296.8,339.5 243.6,364.7 245,367.7 					"/>
				</g>
			</g>
			<g>
				<g>
					<path fill="#662483" d="M268.5,346.7c-0.7,0-1.3-0.4-1.7-1.1c-0.4-0.9,0-2,0.9-2.4l19.6-9.1c0.9-0.4,2,0,2.4,0.9l1.9,4
						c0.4,0.9,0,2-0.9,2.4c-0.9,0.4-2,0-2.4-0.9l-1.1-2.3l-18,8.3C269,346.7,268.8,346.7,268.5,346.7z"/>
				</g>
			</g>
			<g>
				<g>
					<path fill="#89579F" d="M245.8,373.5c-6.5,3.1-17.6,5.6-18.9,2.9c-1.3-2.7,7.7-9.6,14.3-12.7L245.8,373.5z"/>
				</g>
				<g>
					<path fill="#662483" d="M230.3,379.4c-1,0-4,0-5-2.2c-2.5-5.4,12.2-13.7,15.2-15.2c0.4-0.2,1-0.2,1.4-0.1c0.5,0.2,0.8,0.5,1,1
						l4.6,9.8c0.4,0.9,0,2-0.9,2.5C242.2,377.2,235,379.4,230.3,379.4z M228.7,375.5c0.3,0.1,0.7,0.2,1.5,0.2c3.2,0,8.6-1.3,13-3.1
						l-3-6.3C234.6,369.2,229.4,373.7,228.7,375.5z"/>
				</g>
			</g>
			<g>
				<g>
					<polygon fill="#89579F" points="227.1,374.7 223.9,377.9 228.6,377.4 					"/>
				</g>
				<g>
					<path fill="#662483" d="M223.9,379.7c-0.7,0-1.3-0.4-1.6-1c-0.3-0.7-0.2-1.5,0.4-2.1l3.2-3.2c0.4-0.4,1-0.6,1.5-0.5
						c0.6,0.1,1.1,0.4,1.3,0.9l1.5,2.7c0.3,0.5,0.3,1.2,0,1.7c-0.3,0.5-0.8,0.9-1.4,1l-4.7,0.5C224,379.7,224,379.7,223.9,379.7z"/>
				</g>
			</g>
		</g>
		<g>
			<g>
				<circle fill="#FBC7B6" cx="260.5" cy="361.6" r="21.4"/>
			</g>
			<g>
				<path fill="#662483" d="M260.5,384.8c-2.4,0-4.8-0.4-7.2-1.1c-5.9-1.9-10.7-6-13.5-11.5c-2.8-5.5-3.3-11.8-1.4-17.7
					c3.1-9.6,12-16.1,22.1-16.1c2.4,0,4.8,0.4,7.2,1.1c5.9,1.9,10.7,6,13.5,11.5c2.8,5.5,3.3,11.8,1.4,17.7
					C279.4,378.3,270.6,384.8,260.5,384.8z M260.5,342.1c-8.5,0-15.9,5.4-18.6,13.5c-1.6,5-1.2,10.2,1.2,14.9
					c2.4,4.6,6.4,8.1,11.4,9.7c2,0.6,4,1,6,1c8.5,0,15.9-5.4,18.6-13.5c1.6-5,1.2-10.2-1.2-14.9c-2.4-4.6-6.4-8.1-11.4-9.7
					C264.5,342.4,262.5,342.1,260.5,342.1z"/>
			</g>
		</g>
	</g>
</g>
<g id="_x2018_ÎÓÈ_x5F_6">
</g>
<g id="Layer_4">
</g>
<g id="_x2018_ÎÓÈ_x5F_3">
	<g>
		<path fill="#646464" d="M387.6,297.7h50.1c5.3,0,9.5,4.3,9.5,9.5v24c0,5.3-4.3,9.5-9.5,9.5h-50.1c-5.3,0-9.5-4.3-9.5-9.5v-24
			C378.1,301.9,382.3,297.7,387.6,297.7z"/>
		<path fill="#FFFFFF" stroke="#FFFFFF" stroke-width="1.6731" stroke-miterlimit="10" d="M387.6,301.9c-2.9,0-5.3,2.4-5.3,5.3v24
			c0,2.9,2.4,5.3,5.3,5.3h50.1c2.9,0,5.3-2.4,5.3-5.3v-24c0-2.9-2.4-5.3-5.3-5.3H387.6z"/>
		<path fill="#646464" d="M398.3,323.4c1.5,0.5,3.8,1.3,6.9,2.3c0.7,0.2,1.2,0.8,1.4,1.5l0.2,1c0.2,0.9-0.3,1.8-1.2,2.1
			c-0.1,0-0.3,0.1-0.4,0.1h-17.8c-0.9,0-1.7-0.8-1.7-1.7c0-0.1,0-0.3,0.1-0.4l0.2-1c0.2-0.7,0.7-1.3,1.4-1.5c3.1-1,5.3-1.7,6.9-2.2
			c0.2-0.1,0.2-2.2,0-2.3c-1.6-1.1-2.7-3.5-2.7-6.2c0-3.8,2.1-6.9,4.8-6.9c2.6,0,4.8,3.1,4.8,6.9c0,2.7-1.1,5.1-2.7,6.2
			C398.2,321.2,398.2,323.4,398.3,323.4z"/>
		<path fill="#34E3AB" d="M433.2,308.5c-0.7,0-1.4,0.3-1.9,0.9l-10.7,12.3l-4-3.9c-2.2-2.7-6,1-3.6,3.6l7.6,8.1l14.3-16.4
			C436.4,311.3,435.3,308.5,433.2,308.5z"/>
	</g>
	<g>
		<path fill="#646464" d="M482.1,297.7h50.1c5.3,0,9.5,4.3,9.5,9.5v24c0,5.3-4.3,9.5-9.5,9.5h-50.1c-5.3,0-9.5-4.3-9.5-9.5v-24
			C472.6,301.9,476.9,297.7,482.1,297.7z"/>
		<path fill="#FFFFFF" stroke="#FFFFFF" stroke-width="1.6731" stroke-miterlimit="10" d="M482.1,301.9c-2.9,0-5.3,2.4-5.3,5.3v24
			c0,2.9,2.4,5.3,5.3,5.3h50.1c2.9,0,5.3-2.4,5.3-5.3v-24c0-2.9-2.4-5.3-5.3-5.3H482.1z"/>
		<path fill="#646464" d="M492.9,323.4c1.5,0.5,3.8,1.3,6.9,2.3c0.7,0.2,1.2,0.8,1.4,1.5l0.2,1c0.2,0.9-0.3,1.8-1.2,2.1
			c-0.1,0-0.3,0.1-0.4,0.1h-17.8c-0.9,0-1.7-0.8-1.7-1.7c0-0.1,0-0.3,0.1-0.4l0.2-1c0.2-0.7,0.7-1.3,1.4-1.5c3.1-1,5.3-1.7,6.9-2.2
			c0.2-0.1,0.2-2.2,0-2.3c-1.6-1.1-2.7-3.5-2.7-6.2c0-3.8,2.1-6.9,4.8-6.9c2.6,0,4.8,3.1,4.8,6.9c0,2.7-1.1,5.1-2.7,6.2
			C492.7,321.2,492.7,323.4,492.9,323.4z"/>
		<path fill="#34E3AB" d="M527.7,308.5c-0.7,0-1.4,0.3-1.9,0.9l-10.7,12.3l-4-3.9c-2.2-2.7-6,1-3.6,3.6l7.6,8.1l14.3-16.4
			C530.9,311.3,529.8,308.5,527.7,308.5z"/>
	</g>
	<g>
		<path fill="#646464" d="M576.6,297.7h50.1c5.3,0,9.5,4.3,9.5,9.5v24c0,5.3-4.3,9.5-9.5,9.5h-50.1c-5.3,0-9.5-4.3-9.5-9.5v-24
			C567.1,301.9,571.4,297.7,576.6,297.7z"/>
		<path fill="#FFFFFF" stroke="#FFFFFF" stroke-width="1.6731" stroke-miterlimit="10" d="M576.6,301.9c-2.9,0-5.3,2.4-5.3,5.3v24
			c0,2.9,2.4,5.3,5.3,5.3h50.1c2.9,0,5.3-2.4,5.3-5.3v-24c0-2.9-2.4-5.3-5.3-5.3H576.6z"/>
		<path fill="#646464" d="M587.4,323.4c1.5,0.5,3.8,1.3,6.9,2.3c0.7,0.2,1.2,0.8,1.4,1.5l0.2,1c0.2,0.9-0.3,1.8-1.2,2.1
			c-0.1,0-0.3,0.1-0.4,0.1h-17.8c-0.9,0-1.7-0.8-1.7-1.7c0-0.1,0-0.3,0.1-0.4l0.2-1c0.2-0.7,0.7-1.3,1.4-1.5c3.1-1,5.3-1.7,6.9-2.2
			c0.2-0.1,0.2-2.2,0-2.3c-1.6-1.1-2.7-3.5-2.7-6.2c0-3.8,2.1-6.9,4.8-6.9c2.6,0,4.8,3.1,4.8,6.9c0,2.7-1.1,5.1-2.7,6.2
			C587.2,321.2,587.2,323.4,587.4,323.4z"/>
		<path fill="#34E3AB" d="M622.2,308.5c-0.7,0-1.4,0.3-1.9,0.9l-10.7,12.3l-4-3.9c-2.2-2.7-6,1-3.6,3.6l7.6,8.1l14.3-16.4
			C625.4,311.3,624.4,308.5,622.2,308.5z"/>
	</g>
	<g>
		<path fill="#646464" d="M212.1,131.3l49.3-9.2c5.2-1,10.1,2.4,11.1,7.6l4.4,23.6c1,5.2-2.4,10.1-7.6,11.1l-49.3,9.2
			c-5.2,1-10.1-2.4-11.1-7.6l-4.4-23.6C203.5,137.3,206.9,132.3,212.1,131.3z"/>
		<path fill="#FFFFFF" stroke="#FFFFFF" stroke-width="1.6731" stroke-miterlimit="10" d="M212.9,135.5c-2.9,0.5-4.8,3.3-4.2,6.2
			l4.4,23.6c0.5,2.9,3.3,4.8,6.2,4.2l49.3-9.2c2.9-0.5,4.8-3.3,4.2-6.2l-4.4-23.6c-0.5-2.9-3.3-4.8-6.2-4.2L212.9,135.5z"/>
		<path fill="#C1C0BF" d="M227.4,154.7c1.6,0.2,4,0.5,7.2,0.9c0.7,0.1,1.3,0.6,1.6,1.2l0.4,0.9c0.4,0.9,0,1.9-0.8,2.3
			c-0.1,0.1-0.3,0.1-0.4,0.1l-17.5,3.3c-0.9,0.2-1.8-0.4-2-1.4c0-0.1,0-0.3,0-0.4l0.1-1c0-0.7,0.5-1.4,1.1-1.7
			c2.8-1.5,4.9-2.7,6.3-3.5c0.1-0.1-0.2-2.2-0.4-2.3c-1.8-0.8-3.3-2.9-3.8-5.6c-0.7-3.7,0.8-7.1,3.4-7.6c2.6-0.5,5.2,2.2,5.9,5.9
			c0.5,2.7-0.2,5.2-1.5,6.6C226.8,152.6,227.2,154.7,227.4,154.7z"/>
		<path fill="#646464" d="M257.6,152.3c-0.5,0.9-0.8,1.8,0.4,2.2c0.9,0.8,2-0.4,2.5-1C260.2,151.9,258.9,152.4,257.6,152.3z
			 M256.9,135.8c-1.5,0.4-3.3,0.6-4.4,2c-1,1-0.4,2.9,0.7,3.7c1.4,0.3,1.9-1.1,1.6-2.3c0.8-1.2,2.9-1.6,3.9-0.5
			c1.2,0.8,1.2,2.5,0.6,3.7c-0.4,1.3-1.2,2.3-2.1,3.3c-0.9,1.2-0.7,2.7-0.4,4c0.1,1.1,0.6,2,1.8,1.3c1.3-0.3,0.3-2.2,0.4-3.2
			c-0.3-1.3,0.9-2.2,1.5-3.2c0.8-1.2,1.9-2.5,1.6-4.1c-0.1-1.3-0.9-2.5-1.7-3.5C259.5,136,258.3,135.6,256.9,135.8z"/>
		<path fill="#646464" d="M245.4,154.6c-0.5,0.9-0.8,1.8,0.4,2.2c0.9,0.8,2-0.4,2.5-1C247.9,154.1,246.7,154.6,245.4,154.6z
			 M244.7,138.1c-1.5,0.4-3.3,0.6-4.4,2c-1,1-0.4,2.9,0.7,3.7c1.4,0.3,1.9-1.1,1.6-2.3c0.8-1.2,2.9-1.6,3.9-0.5
			c1.2,0.8,1.2,2.5,0.6,3.7c-0.4,1.3-1.2,2.3-2.1,3.3c-0.9,1.2-0.7,2.7-0.4,4c0.1,1.1,0.6,2,1.8,1.3c1.3-0.3,0.3-2.2,0.4-3.2
			c-0.3-1.3,0.9-2.2,1.5-3.2c0.8-1.2,1.9-2.5,1.6-4.1c-0.1-1.3-0.9-2.5-1.7-3.5C247.3,138.3,246.1,137.9,244.7,138.1z"/>
	</g>
	<path fill="#F0F0F0" d="M697.4,535.3c3,0.2,3.1,4.5,0,4.8c-47,3.7-146.5,6-261.8,6c-112.5,0-210.1-2-258.4-5.7
		c-3.4-0.3-3.4-5,0-5.3c48.3-3.5,147.4-5.7,259.9-5.7C552.4,529.4,650.4,531.9,697.4,535.3z"/>
	<g>
		<g>
			<path fill="#FFFFFF" d="M649.7,387.3H406.6c-12.1,0-22-9.9-22-22l0,0c0-12.1,9.9-22,22-22h243.1c12.1,0,22,9.9,22,22l0,0
				C671.7,377.4,661.8,387.3,649.7,387.3z"/>
		</g>
		<g>
			<path fill="#969696" d="M649.7,390.1H406.6c-13.7,0-24.8-11.1-24.8-24.8c0-13.7,11.1-24.8,24.8-24.8h243.1
				c13.7,0,24.8,11.1,24.8,24.8C674.5,378.9,663.4,390.1,649.7,390.1z M406.6,346.1c-10.6,0-19.2,8.6-19.2,19.2
				c0,10.6,8.6,19.2,19.2,19.2h243.1c10.6,0,19.2-8.6,19.2-19.2c0-10.6-8.6-19.2-19.2-19.2H406.6z"/>
		</g>
	</g>
	<polygon fill="#646464" points="197.9,176.8 236.6,215.5 249.3,215.5 244.5,168.5 	"/>
	<polygon fill="#646464" points="291.1,176.8 252.4,215.5 239.8,215.5 244.5,168.5 	"/>
	<rect x="197.9" y="160.2" fill="#969696" width="93.2" height="16.6"/>
	<rect x="232.8" y="198.5" fill="#646464" width="23.3" height="42.3"/>
	<rect x="348.7" y="389.2" fill="#646464" width="305.1" height="9.1"/>
	<rect x="419.7" y="391.2" fill="#646464" width="9.1" height="146.8"/>
	<rect x="645.4" y="391.2" fill="#646464" width="9.1" height="146.8"/>
	<rect x="210.4" y="391.2" fill="#646464" width="9.1" height="146.8"/>
	<rect x="344.2" y="391.2" fill="#646464" width="9.1" height="146.8"/>
	
		<rect x="455.9" y="379.5" transform="matrix(0.7071 0.7071 -0.7071 0.7071 439.14 -199.5792)" fill="#646464" width="9.1" height="101.7"/>
	
		<rect x="611" y="379.5" transform="matrix(-0.7071 0.7071 -0.7071 -0.7071 1355.1011 299.3712)" fill="#646464" width="9.1" height="101.7"/>
	<g>
		<g>
			<path fill="#646464" d="M451.8,363.2c-0.1-0.2-0.1-0.4-0.2-0.6l1.7-1.3l-1.6-2.5l-1.9,1c-0.3-0.3-0.6-0.5-0.9-0.8l0.7-2.1
				l-2.8-1.1l-0.9,2c-0.4-0.1-0.8-0.1-1.2-0.1l-0.7-2.1l-2.9,0.8l0.4,2.1c-0.4,0.2-0.7,0.4-1,0.6l-1.8-1.3l-1.9,2.3l1.6,1.5
				c-0.2,0.4-0.3,0.7-0.4,1.1l-2.2,0l-0.2,3l2.1,0.3c0,0.2,0.1,0.4,0.1,0.6c0.1,0.2,0.1,0.4,0.2,0.6l-1.7,1.3l1.6,2.5l1.9-1
				c0.3,0.3,0.6,0.6,1,0.8l-0.8,2.5l2.9,1.1l1.1-2.4l-0.2-0.1c0.5,0.1,1,0.1,1.5,0.1l-0.3,0.1l0.8,2.5l3-0.8l-0.5-2.6l-0.3,0.1
				c0.4-0.2,0.9-0.5,1.3-0.8l1.8,1.3l1.9-2.3l-1.6-1.5c0.2-0.4,0.3-0.7,0.4-1.1l2.2,0l0.2-3l-2.2-0.3
				C451.9,363.6,451.8,363.4,451.8,363.2z M445.3,366.8c-1,0.3-2-0.3-2.3-1.3c-0.3-1,0.3-2,1.3-2.3c1-0.3,2,0.3,2.3,1.3
				C446.9,365.5,446.3,366.6,445.3,366.8z"/>
			<g>
				<path fill="#646464" d="M429.5,365.3c0-0.3,0-0.7-0.1-1l3.4-1.4l-1.6-4.8l-3.6,0.9c-0.3-0.6-0.7-1.1-1.2-1.6l2-3.1l-4.1-3
					l-2.3,2.8c-0.6-0.3-1.3-0.5-1.9-0.6l-0.2-3.7h-5.1l-0.2,3.7c-0.7,0.2-1.3,0.4-1.9,0.6l-2.3-2.8l-4.1,3l2,3.1
					c-0.4,0.5-0.8,1-1.2,1.6l-3.6-0.9l-1.6,4.8l3.4,1.4c0,0.3-0.1,0.7-0.1,1c0,0.3,0,0.7,0.1,1l-3.4,1.4l1.6,4.8l3.6-0.9
					c0.3,0.6,0.7,1.1,1.2,1.6l-2,3.1l4.1,3l2.3-2.8c0.6,0.3,1.3,0.5,1.9,0.6l0.2,3.7h5.1l0.2-3.7c0.7-0.2,1.3-0.4,1.9-0.6l2.3,2.8
					l4.1-3l-2-3.1c0.4-0.5,0.8-1,1.2-1.6l3.6,0.9l1.6-4.8l-3.4-1.4C429.5,365.9,429.5,365.6,429.5,365.3z M417.4,375.2
					c-5.5,0-9.9-4.4-9.9-9.9c0-5.5,4.4-9.9,9.9-9.9c5.5,0,9.9,4.4,9.9,9.9C427.3,370.7,422.9,375.2,417.4,375.2z"/>
				<path fill="#646464" d="M417.4,356.9c-4.6,0-8.3,3.7-8.3,8.3c0,4.6,3.7,8.3,8.3,8.3c4.6,0,8.3-3.7,8.3-8.3
					C425.7,360.7,422,356.9,417.4,356.9z M417.4,368.4c-1.8,0-3.2-1.4-3.2-3.2c0-1.8,1.4-3.2,3.2-3.2c1.8,0,3.2,1.4,3.2,3.2
					C420.6,367,419.2,368.4,417.4,368.4z"/>
			</g>
			<path fill="#646464" d="M508.1,363.2c-0.1-0.2-0.1-0.4-0.2-0.6l1.7-1.3l-1.6-2.5l-1.9,1c-0.3-0.3-0.6-0.5-0.9-0.8l0.7-2.1
				l-2.8-1.1l-0.9,2c-0.4-0.1-0.8-0.1-1.2-0.1l-0.7-2.1l-2.9,0.8l0.4,2.1c-0.4,0.2-0.7,0.4-1,0.6L495,358l-1.9,2.3l1.6,1.5
				c-0.2,0.4-0.3,0.7-0.4,1.1l-2.2,0l-0.2,3l2.1,0.3c0,0.2,0.1,0.4,0.1,0.6c0.1,0.2,0.1,0.4,0.2,0.6l-1.7,1.3l1.6,2.5l1.9-1
				c0.3,0.3,0.6,0.6,1,0.8l-0.8,2.5l2.9,1.1l1.1-2.4l-0.2-0.1c0.5,0.1,1,0.1,1.5,0.1l-0.3,0.1l0.8,2.5l3-0.8l-0.5-2.6l-0.3,0.1
				c0.4-0.2,0.9-0.5,1.3-0.8l1.8,1.3l1.9-2.3l-1.6-1.5c0.2-0.4,0.3-0.7,0.4-1.1l2.2,0l0.2-3l-2.2-0.3
				C508.1,363.6,508.1,363.4,508.1,363.2z M501.6,366.8c-1,0.3-2-0.3-2.3-1.3c-0.3-1,0.3-2,1.3-2.3c1-0.3,2,0.3,2.3,1.3
				C503.2,365.5,502.6,366.6,501.6,366.8z"/>
			<g>
				<path fill="#646464" d="M485.8,365.3c0-0.3,0-0.7-0.1-1l3.4-1.4l-1.6-4.8L484,359c-0.3-0.6-0.7-1.1-1.2-1.6l2-3.1l-4.1-3
					l-2.3,2.8c-0.6-0.3-1.3-0.5-1.9-0.6l-0.2-3.7h-5.1l-0.2,3.7c-0.7,0.2-1.3,0.4-1.9,0.6l-2.3-2.8l-4.1,3l2,3.1
					c-0.4,0.5-0.8,1-1.2,1.6l-3.6-0.9l-1.6,4.8l3.4,1.4c0,0.3-0.1,0.7-0.1,1c0,0.3,0,0.7,0.1,1l-3.4,1.4l1.6,4.8l3.6-0.9
					c0.3,0.6,0.7,1.1,1.2,1.6l-2,3.1l4.1,3l2.3-2.8c0.6,0.3,1.3,0.5,1.9,0.6l0.2,3.7h5.1l0.2-3.7c0.7-0.2,1.3-0.4,1.9-0.6l2.3,2.8
					l4.1-3l-2-3.1c0.4-0.5,0.8-1,1.2-1.6l3.6,0.9l1.6-4.8l-3.4-1.4C485.8,365.9,485.8,365.6,485.8,365.3z M473.7,375.2
					c-5.5,0-9.9-4.4-9.9-9.9c0-5.5,4.4-9.9,9.9-9.9c5.5,0,9.9,4.4,9.9,9.9C483.6,370.7,479.1,375.2,473.7,375.2z"/>
				<path fill="#646464" d="M473.7,356.9c-4.6,0-8.3,3.7-8.3,8.3c0,4.6,3.7,8.3,8.3,8.3c4.6,0,8.3-3.7,8.3-8.3
					C482,360.7,478.3,356.9,473.7,356.9z M473.7,368.5c-1.8,0-3.2-1.4-3.2-3.2c0-1.8,1.4-3.2,3.2-3.2c1.8,0,3.2,1.4,3.2,3.2
					C476.8,367,475.4,368.5,473.7,368.5z"/>
			</g>
			<path fill="#646464" d="M564.3,363.2c-0.1-0.2-0.1-0.4-0.2-0.6l1.7-1.3l-1.6-2.5l-1.9,1c-0.3-0.3-0.6-0.5-0.9-0.8l0.7-2.1
				l-2.8-1.1l-0.9,2c-0.4-0.1-0.8-0.1-1.2-0.1l-0.7-2.1l-2.9,0.8l0.4,2.1c-0.4,0.2-0.7,0.4-1,0.6l-1.8-1.3l-1.9,2.3l1.6,1.5
				c-0.2,0.4-0.3,0.7-0.4,1.1l-2.2,0l-0.2,3l2.1,0.3c0,0.2,0.1,0.4,0.1,0.6c0.1,0.2,0.1,0.4,0.2,0.6l-1.7,1.3l1.6,2.5l1.9-1
				c0.3,0.3,0.6,0.6,1,0.8l-0.8,2.5l2.9,1.1l1.1-2.4l-0.2-0.1c0.5,0.1,1,0.1,1.5,0.1l-0.3,0.1l0.8,2.5l3-0.8l-0.5-2.6l-0.3,0.1
				c0.4-0.2,0.9-0.5,1.3-0.8l1.8,1.3l1.9-2.3l-1.6-1.5c0.2-0.4,0.3-0.7,0.4-1.1l2.2,0l0.2-3l-2.2-0.3
				C564.4,363.6,564.4,363.4,564.3,363.2z M557.9,366.8c-1,0.3-2-0.3-2.3-1.3c-0.3-1,0.3-2,1.3-2.3c1-0.3,2,0.3,2.3,1.3
				C559.5,365.5,558.9,366.6,557.9,366.8z"/>
			<g>
				<path fill="#646464" d="M542.1,365.3c0-0.3,0-0.7-0.1-1l3.4-1.4l-1.6-4.8l-3.6,0.9c-0.3-0.6-0.7-1.1-1.2-1.6l2-3.1l-4.1-3
					l-2.3,2.8c-0.6-0.3-1.3-0.5-1.9-0.6l-0.2-3.7h-5.1l-0.2,3.7c-0.7,0.2-1.3,0.4-1.9,0.6l-2.3-2.8l-4.1,3l2,3.1
					c-0.4,0.5-0.8,1-1.2,1.6l-3.6-0.9l-1.6,4.8l3.4,1.4c0,0.3-0.1,0.7-0.1,1c0,0.3,0,0.7,0.1,1l-3.4,1.4l1.6,4.8l3.6-0.9
					c0.3,0.6,0.7,1.1,1.2,1.6l-2,3.1l4.1,3l2.3-2.8c0.6,0.3,1.3,0.5,1.9,0.6l0.2,3.7h5.1l0.2-3.7c0.7-0.2,1.3-0.4,1.9-0.6l2.3,2.8
					l4.1-3l-2-3.1c0.4-0.5,0.8-1,1.2-1.6l3.6,0.9l1.6-4.8l-3.4-1.4C542,366,542.1,365.6,542.1,365.3z M529.9,375.2
					c-5.5,0-9.9-4.4-9.9-9.9c0-5.5,4.4-9.9,9.9-9.9c5.5,0,9.9,4.4,9.9,9.9C539.8,370.7,535.4,375.2,529.9,375.2z"/>
				<path fill="#646464" d="M529.9,356.9c-4.6,0-8.3,3.7-8.3,8.3c0,4.6,3.7,8.3,8.3,8.3c4.6,0,8.3-3.7,8.3-8.3
					C538.3,360.7,534.5,356.9,529.9,356.9z M529.9,368.5c-1.8,0-3.2-1.4-3.2-3.2c0-1.8,1.4-3.2,3.2-3.2c1.8,0,3.2,1.4,3.2,3.2
					C533.1,367,531.7,368.5,529.9,368.5z"/>
			</g>
			<path fill="#646464" d="M620.6,363.2c-0.1-0.2-0.1-0.4-0.2-0.6l1.7-1.3l-1.6-2.5l-1.9,1c-0.3-0.3-0.6-0.5-0.9-0.8l0.7-2.1
				l-2.8-1.1l-0.9,2c-0.4-0.1-0.8-0.1-1.2-0.1l-0.7-2.1l-2.9,0.8l0.4,2.1c-0.4,0.2-0.7,0.4-1,0.6l-1.8-1.3l-1.9,2.3l1.6,1.5
				c-0.2,0.4-0.3,0.7-0.4,1.1l-2.2,0l-0.2,3l2.1,0.3c0,0.2,0.1,0.4,0.1,0.6c0.1,0.2,0.1,0.4,0.2,0.6l-1.7,1.3l1.6,2.5l1.9-1
				c0.3,0.3,0.6,0.6,1,0.8l-0.8,2.5l2.9,1.1l1.1-2.4l-0.2-0.1c0.5,0.1,1,0.1,1.5,0.1l-0.3,0.1l0.8,2.5l3-0.8l-0.5-2.6l-0.3,0.1
				c0.4-0.2,0.9-0.5,1.3-0.8l1.8,1.3l1.9-2.3l-1.6-1.5c0.2-0.4,0.3-0.7,0.4-1.1l2.2,0l0.2-3l-2.2-0.3
				C620.7,363.6,620.6,363.4,620.6,363.2z M614.1,366.8c-1,0.3-2-0.3-2.3-1.3c-0.3-1,0.3-2,1.3-2.3c1-0.3,2,0.3,2.3,1.3
				C615.7,365.5,615.1,366.6,614.1,366.8z"/>
			<g>
				<path fill="#646464" d="M598.3,365.3c0-0.3,0-0.7-0.1-1l3.4-1.4l-1.6-4.8l-3.6,0.9c-0.3-0.6-0.7-1.1-1.2-1.6l2-3.1l-4.1-3
					l-2.3,2.8c-0.6-0.3-1.3-0.5-1.9-0.6l-0.2-3.7h-5.1l-0.2,3.7c-0.7,0.2-1.3,0.4-1.9,0.6l-2.3-2.8l-4.1,3l2,3.1
					c-0.4,0.5-0.8,1-1.2,1.6l-3.6-0.9l-1.6,4.8l3.4,1.4c0,0.3-0.1,0.7-0.1,1c0,0.3,0,0.7,0.1,1l-3.4,1.4l1.6,4.8l3.6-0.9
					c0.3,0.6,0.7,1.1,1.2,1.6l-2,3.1l4.1,3l2.3-2.8c0.6,0.3,1.3,0.5,1.9,0.6l0.2,3.7h5.1l0.2-3.7c0.7-0.2,1.3-0.4,1.9-0.6l2.3,2.8
					l4.1-3l-2-3.1c0.4-0.5,0.8-1,1.2-1.6l3.6,0.9l1.6-4.8l-3.4-1.4C598.3,366,598.3,365.6,598.3,365.3z M586.2,375.2
					c-5.5,0-9.9-4.4-9.9-9.9c0-5.5,4.4-9.9,9.9-9.9c5.5,0,9.9,4.4,9.9,9.9C596.1,370.7,591.7,375.2,586.2,375.2z"/>
				<path fill="#646464" d="M586.2,356.9c-4.6,0-8.3,3.7-8.3,8.3c0,4.6,3.7,8.3,8.3,8.3c4.6,0,8.3-3.7,8.3-8.3
					C594.5,360.7,590.8,356.9,586.2,356.9z M586.2,368.5c-1.8,0-3.2-1.4-3.2-3.2c0-1.8,1.4-3.2,3.2-3.2c1.8,0,3.2,1.4,3.2,3.2
					C589.4,367,588,368.5,586.2,368.5z"/>
			</g>
			<g>
				<path fill="#646464" d="M654.6,365.3c0-0.3,0-0.7-0.1-1l3.4-1.4l-1.6-4.8l-3.6,0.9c-0.3-0.6-0.7-1.1-1.2-1.6l2-3.1l-4.1-3
					l-2.3,2.8c-0.6-0.3-1.3-0.5-1.9-0.6l-0.2-3.7h-5.1l-0.2,3.7c-0.7,0.2-1.3,0.4-1.9,0.6l-2.3-2.8l-4.1,3l2,3.1
					c-0.4,0.5-0.8,1-1.2,1.6l-3.6-0.9l-1.6,4.8l3.4,1.4c0,0.3-0.1,0.7-0.1,1c0,0.3,0,0.7,0.1,1l-3.4,1.4l1.6,4.8l3.6-0.9
					c0.3,0.6,0.7,1.1,1.2,1.6l-2,3.1l4.1,3l2.3-2.8c0.6,0.3,1.3,0.5,1.9,0.6l0.2,3.7h5.1l0.2-3.7c0.7-0.2,1.3-0.4,1.9-0.6l2.3,2.8
					l4.1-3l-2-3.1c0.4-0.5,0.8-1,1.2-1.6l3.6,0.9l1.6-4.8l-3.4-1.4C654.6,366,654.6,365.6,654.6,365.3z M642.5,375.2
					c-5.5,0-9.9-4.4-9.9-9.9c0-5.5,4.4-9.9,9.9-9.9c5.5,0,9.9,4.4,9.9,9.9C652.4,370.8,647.9,375.2,642.5,375.2z"/>
				<path fill="#646464" d="M642.5,357c-4.6,0-8.3,3.7-8.3,8.3c0,4.6,3.7,8.3,8.3,8.3c4.6,0,8.3-3.7,8.3-8.3
					C650.8,360.7,647.1,357,642.5,357z M642.5,368.5c-1.8,0-3.2-1.4-3.2-3.2c0-1.8,1.4-3.2,3.2-3.2c1.8,0,3.2,1.4,3.2,3.2
					C645.6,367,644.2,368.5,642.5,368.5z"/>
			</g>
		</g>
	</g>
	
		<rect x="177" y="302.3" transform="matrix(0.8088 -0.5881 0.5881 0.8088 -154.2581 167.0972)" fill="#646464" width="5.6" height="36.9"/>
	<circle fill="#34E3AB" cx="168.3" cy="304.7" r="9.5"/>
	<rect x="210.3" y="225.8" fill="#969696" width="145.3" height="163.2"/>
	<rect x="270" y="250.4" fill="#646464" width="72.1" height="54.7"/>
	<rect x="274.8" y="254.4" fill="#F0F0F0" width="62.6" height="43.5"/>
	<rect x="170.9" y="331.8" fill="#969696" width="44.1" height="32.7"/>
	<rect x="218.7" y="256.3" fill="#F9F9F9" width="16.9" height="5.5"/>
	<rect x="218.7" y="247.9" fill="#F9F9F9" width="16.9" height="5.5"/>
	<rect x="217.9" y="268.5" fill="#F9F9F9" width="10" height="5.1"/>
	<rect x="229.4" y="268.5" fill="#34E3AB" width="10" height="5.1"/>
	<rect x="241" y="268.5" fill="#F9F9F9" width="10" height="5.1"/>
	<rect x="252.5" y="268.5" fill="#34E3AB" width="10" height="5.1"/>
	<rect x="217.9" y="275.2" fill="#34E3AB" width="10" height="5.1"/>
	<rect x="229.4" y="275.2" fill="#F9F9F9" width="10" height="5.1"/>
	<rect x="241" y="275.2" fill="#34E3AB" width="10" height="5.1"/>
	<rect x="252.5" y="275.2" fill="#F9F9F9" width="10" height="5.1"/>
	<rect x="217.9" y="281.9" fill="#F9F9F9" width="10" height="5.1"/>
	<rect x="229.4" y="281.9" fill="#F9F9F9" width="10" height="5.1"/>
	<rect x="241" y="281.9" fill="#34E3AB" width="10" height="5.1"/>
	<rect x="252.5" y="281.9" fill="#F9F9F9" width="10" height="5.1"/>
	<path fill="#F9F9F9" d="M261.8,258.7c-6-2.7-12.8-2.7-18.8,0c-0.5-2.6-1-5.1-1.5-7.7c6.8-3.7,15-3.7,21.8,0
		C262.8,253.6,262.3,256.1,261.8,258.7z"/>
	<polygon fill="#969696" points="395.1,331.8 348.7,331.8 348.7,391.2 437.2,391.2 437.2,375.5 	"/>
	<rect x="210.3" y="331.8" fill="#646464" width="145.3" height="66.5"/>
	<polygon fill="#34E3AB" points="252.2,248.9 251,256.3 252.2,256.3 253.4,256.3 	"/>
	<rect x="631.1" y="177.3" fill="#F0F0F0" width="35" height="12.2"/>
	<rect x="670.1" y="177.3" fill="#F0F0F0" width="35" height="12.2"/>
	<rect x="650.4" y="193.2" fill="#F0F0F0" width="35" height="12.2"/>
	<rect x="732.3" y="72.6" fill="#F0F0F0" width="35" height="12.2"/>
	<rect x="751.6" y="56.6" fill="#F0F0F0" width="35" height="12.2"/>
	<rect x="440.4" y="100.7" fill="#F0F0F0" width="35" height="12.2"/>
	<rect x="479.4" y="100.7" fill="#F0F0F0" width="35" height="12.2"/>
	<rect x="459.7" y="84.8" fill="#F0F0F0" width="35" height="12.2"/>
	<rect x="61.2" y="54.8" fill="#F0F0F0" width="35" height="12.2"/>
	<rect x="41.5" y="70.7" fill="#F0F0F0" width="35" height="12.2"/>
	<g>
		<path fill="#C1C0BF" d="M290.6,286.8l8.9-8.9l1.7,1.7l2.9-2.9l-6.8-6.8c-1.6,0.8-3.6,0.6-5.2-0.5c-1.6-1.1-2.3-3-2.1-4.8l3.5,2.5
			c0.6,0.4,1.5,0.3,1.9-0.3l1.3-1.8c0.4-0.6,0.3-1.5-0.3-1.9l-3.5-2.5c1.6-0.8,3.6-0.7,5.2,0.5c2,1.5,2.7,4.1,1.7,6.3l6.8,6.8
			l6.4-6.4l0.1-2.9l5.8-4.9l3.3,3.3l-4.9,5.8l-2.8,0.1l-6.5,6.5l6.8,6.8c1.6-0.8,3.6-0.6,5.2,0.5c1.6,1.1,2.3,3,2.1,4.8l-3.5-2.5
			c-0.6-0.4-1.5-0.3-1.9,0.3l-1.3,1.8c-0.4,0.6-0.3,1.5,0.3,1.9l3.5,2.5c-1.6,0.8-3.6,0.7-5.2-0.5c-2-1.5-2.7-4.1-1.7-6.3l-6.8-6.8
			l-2.9,2.9l1.7,1.7l-8.9,8.9c-0.8,0.8-2.2,0.8-3.1,0l-1.8-1.8C289.8,289,289.8,287.6,290.6,286.8z"/>
	</g>
	<g>
		<path fill="#646464" d="M236.2,85.3l49.8,5.4c5.2,0.6,9,5.3,8.4,10.5l-2.6,23.8c-0.6,5.2-5.3,9-10.5,8.4l-49.8-5.4
			c-5.2-0.6-9-5.3-8.4-10.5l2.6-23.8C226.3,88.5,231,84.7,236.2,85.3z"/>
		<path fill="#FFFFFF" stroke="#FFFFFF" stroke-width="1.6731" stroke-miterlimit="10" d="M235.7,89.5c-2.9-0.3-5.5,1.8-5.8,4.7
			l-2.6,23.8c-0.3,2.9,1.8,5.5,4.7,5.8l49.8,5.4c2.9,0.3,5.5-1.8,5.8-4.7l2.6-23.8c0.3-2.9-1.8-5.5-4.7-5.8L235.7,89.5z"/>
		<path fill="#C1C0BF" d="M244.1,112.1c1.5,0.7,3.7,1.7,6.6,3c0.7,0.3,1.1,0.9,1.2,1.6l0.1,1c0.1,0.9-0.5,1.8-1.5,1.9
			c-0.1,0-0.3,0-0.4,0l-17.7-1.9c-0.9-0.1-1.6-0.9-1.5-1.9c0-0.1,0-0.3,0.1-0.4l0.3-0.9c0.3-0.7,0.8-1.2,1.6-1.3
			c3.1-0.7,5.5-1.1,7.1-1.5c0.2,0,0.4-2.2,0.3-2.3c-1.5-1.3-2.3-3.7-2-6.5c0.4-3.8,2.9-6.6,5.5-6.3c2.6,0.3,4.4,3.6,4,7.3
			c-0.3,2.7-1.7,5-3.4,5.9C244.2,109.9,243.9,112,244.1,112.1z"/>
		<path fill="#646464" d="M262,99.2l22,2.4c1.2,0.1,2.1,1.2,2,2.4c-0.1,1.2-1.2,2.1-2.4,2l-22-2.4c-1.2-0.1-2.1-1.2-2-2.4
			C259.7,99.9,260.7,99.1,262,99.2z"/>
		<path fill="#646464" d="M261.1,107.2l16,1.7c1.2,0.1,2.1,1.2,2,2.4c-0.1,1.2-1.2,2.1-2.4,2l-16-1.7c-1.2-0.1-2.1-1.2-2-2.4
			C258.8,107.9,259.9,107.1,261.1,107.2z"/>
		<path fill="#646464" d="M260.2,115.2l22,2.4c1.2,0.1,2.1,1.2,2,2.4c-0.1,1.2-1.2,2.1-2.4,2l-22-2.4c-1.2-0.1-2.1-1.2-2-2.4
			C257.9,115.9,259,115,260.2,115.2z"/>
	</g>
</g>
</svg>
